<?xml version="1.0" encoding="UTF-8" standalone="no"?>
<!DOCTYPE svg PUBLIC "-//W3C//DTD SVG 1.1//EN"
 "http://www.w3.org/Graphics/SVG/1.1/DTD/svg11.dtd">
<!-- Generated by graphviz version 2.38.0 (20140413.2041)
 -->
<!-- Title: Audio.cpp Pages: 1 -->
<svg width="705pt" height="247pt"
 viewBox="0.00 0.00 705.23 247.00" xmlns="http://www.w3.org/2000/svg" xmlns:xlink="http://www.w3.org/1999/xlink">
<g id="graph0" class="graph" transform="scale(1 1) rotate(0) translate(4 243)">
<title>Audio.cpp</title>
<!-- Node0 -->
<g id="node1" class="node"><title>Node0</title>
<polygon fill="#bfbfbf" stroke="black" points="125.934,-220.5 125.934,-238.5 186.411,-238.5 186.411,-220.5 125.934,-220.5"/>
<text text-anchor="middle" x="156.172" y="-226.5" font-family="Helvetica,sans-Serif" font-size="10.00">Audio.cpp</text>
</g>
<!-- Node1 -->
<g id="node2" class="node"><title>Node1</title>
<g id="a_node2"><a xlink:href="_audio_8hpp.html" target="_top" xlink:title="Audio.hpp">
<polygon fill="none" stroke="black" points="61.6528,-110.5 61.6528,-128.5 122.692,-128.5 122.692,-110.5 61.6528,-110.5"/>
<text text-anchor="middle" x="92.1724" y="-116.5" font-family="Helvetica,sans-Serif" font-size="10.00">Audio.hpp</text>
</a>
</g>
</g>
<!-- Node0&#45;&gt;Node1 -->
<g id="edge1" class="edge"><title>Node0&#45;&gt;Node1</title>
<path fill="none" stroke="midnightblue" d="M151.362,-220.382C140.984,-202.869 116.302,-161.218 102.308,-137.605"/>
<polygon fill="midnightblue" stroke="midnightblue" points="105.148,-135.53 97.0386,-128.712 99.1256,-139.099 105.148,-135.53"/>
</g>
<!-- Node5 -->
<g id="node6" class="node"><title>Node5</title>
<g id="a_node6"><a xlink:href="_audio_source_8hpp.html" target="_top" xlink:title="AudioSource.hpp">
<polygon fill="none" stroke="black" points="152.811,-165.5 152.811,-183.5 245.534,-183.5 245.534,-165.5 152.811,-165.5"/>
<text text-anchor="middle" x="199.172" y="-171.5" font-family="Helvetica,sans-Serif" font-size="10.00">AudioSource.hpp</text>
</a>
</g>
</g>
<!-- Node0&#45;&gt;Node5 -->
<g id="edge5" class="edge"><title>Node0&#45;&gt;Node5</title>
<path fill="none" stroke="midnightblue" d="M162.891,-220.219C169.112,-212.551 178.533,-200.939 186.216,-191.469"/>
<polygon fill="midnightblue" stroke="midnightblue" points="189.059,-193.52 192.642,-183.55 183.623,-189.11 189.059,-193.52"/>
</g>
<!-- Node2 -->
<g id="node3" class="node"><title>Node2</title>
<polygon fill="none" stroke="#bfbfbf" points="0,-55.5 0,-73.5 54.3447,-73.5 54.3447,-55.5 0,-55.5"/>
<text text-anchor="middle" x="27.1724" y="-61.5" font-family="Helvetica,sans-Serif" font-size="10.00">iostream</text>
</g>
<!-- Node1&#45;&gt;Node2 -->
<g id="edge2" class="edge"><title>Node1&#45;&gt;Node2</title>
<path fill="none" stroke="midnightblue" d="M82.3003,-110.45C72.4693,-102.434 57.1546,-89.9471 45.1593,-80.1663"/>
<polygon fill="midnightblue" stroke="midnightblue" points="47.0994,-77.2322 37.1374,-73.6253 42.6758,-82.6573 47.0994,-77.2322"/>
</g>
<!-- Node3 -->
<g id="node4" class="node"><title>Node3</title>
<polygon fill="none" stroke="#bfbfbf" points="72.4409,-55.5 72.4409,-73.5 117.904,-73.5 117.904,-55.5 72.4409,-55.5"/>
<text text-anchor="middle" x="95.1724" y="-61.5" font-family="Helvetica,sans-Serif" font-size="10.00">stdio.h</text>
</g>
<!-- Node1&#45;&gt;Node3 -->
<g id="edge3" class="edge"><title>Node1&#45;&gt;Node3</title>
<path fill="none" stroke="midnightblue" d="M92.6411,-110.219C93.0397,-103.177 93.6266,-92.8083 94.1349,-83.8277"/>
<polygon fill="midnightblue" stroke="midnightblue" points="97.6459,-83.7314 94.7167,-73.5496 90.6571,-83.3357 97.6459,-83.7314"/>
</g>
<!-- Node4 -->
<g id="node5" class="node"><title>Node4</title>
<polygon fill="none" stroke="#bfbfbf" points="135.773,-55.5 135.773,-73.5 194.571,-73.5 194.571,-55.5 135.773,-55.5"/>
<text text-anchor="middle" x="165.172" y="-61.5" font-family="Helvetica,sans-Serif" font-size="10.00">irrKlang.h</text>
</g>
<!-- Node1&#45;&gt;Node4 -->
<g id="edge4" class="edge"><title>Node1&#45;&gt;Node4</title>
<path fill="none" stroke="midnightblue" d="M103.259,-110.45C114.515,-102.279 132.17,-89.4604 145.752,-79.5996"/>
<polygon fill="midnightblue" stroke="midnightblue" points="147.945,-82.3327 153.981,-73.6253 143.832,-76.6682 147.945,-82.3327"/>
</g>
<!-- Node5&#45;&gt;Node1 -->
<g id="edge24" class="edge"><title>Node5&#45;&gt;Node1</title>
<path fill="none" stroke="midnightblue" d="M182.921,-165.45C165.56,-156.851 137.808,-143.105 117.561,-133.075"/>
<polygon fill="midnightblue" stroke="midnightblue" points="119.091,-129.928 108.576,-128.625 115.984,-136.2 119.091,-129.928"/>
</g>
<!-- Node5&#45;&gt;Node2 -->
<g id="edge6" class="edge"><title>Node5&#45;&gt;Node2</title>
<path fill="none" stroke="midnightblue" d="M152.541,-169.906C120.713,-165.163 79.5195,-154.214 52.1724,-129 39.3883,-117.213 33.0456,-98.0701 29.9604,-83.8797"/>
<polygon fill="midnightblue" stroke="midnightblue" points="33.3591,-83.0071 28.1237,-73.7962 26.4724,-84.2616 33.3591,-83.0071"/>
</g>
<!-- Node5&#45;&gt;Node3 -->
<g id="edge7" class="edge"><title>Node5&#45;&gt;Node3</title>
<path fill="none" stroke="midnightblue" d="M191.355,-165.382C174.115,-147.479 132.58,-104.347 110.147,-81.0507"/>
<polygon fill="midnightblue" stroke="midnightblue" points="112.538,-78.4872 103.08,-73.7118 107.495,-83.3427 112.538,-78.4872"/>
</g>
<!-- Node5&#45;&gt;Node4 -->
<g id="edge8" class="edge"><title>Node5&#45;&gt;Node4</title>
<path fill="none" stroke="midnightblue" d="M214.65,-165.48C234.677,-153.987 265.511,-131.804 252.172,-110 241.715,-92.9047 222.384,-82.1111 204.596,-75.4436"/>
<polygon fill="midnightblue" stroke="midnightblue" points="205.533,-72.0652 194.939,-72.1501 203.274,-78.6906 205.533,-72.0652"/>
</g>
<!-- Node6 -->
<g id="node7" class="node"><title>Node6</title>
<g id="a_node7"><a xlink:href="_transform_8hpp.html" target="_top" xlink:title="Transform.hpp">
<polygon fill="none" stroke="black" points="325.843,-110.5 325.843,-128.5 406.501,-128.5 406.501,-110.5 325.843,-110.5"/>
<text text-anchor="middle" x="366.172" y="-116.5" font-family="Helvetica,sans-Serif" font-size="10.00">Transform.hpp</text>
</a>
</g>
</g>
<!-- Node5&#45;&gt;Node6 -->
<g id="edge9" class="edge"><title>Node5&#45;&gt;Node6</title>
<path fill="none" stroke="midnightblue" d="M224.536,-165.45C252.942,-156.436 299.167,-141.765 331.041,-131.65"/>
<polygon fill="midnightblue" stroke="midnightblue" points="332.371,-134.899 340.844,-128.538 330.254,-128.227 332.371,-134.899"/>
</g>
<!-- Node12 -->
<g id="node13" class="node"><title>Node12</title>
<polygon fill="none" stroke="#bfbfbf" points="179.269,-110.5 179.269,-128.5 243.076,-128.5 243.076,-110.5 179.269,-110.5"/>
<text text-anchor="middle" x="211.172" y="-116.5" font-family="Helvetica,sans-Serif" font-size="10.00">ik_vec3d.h</text>
</g>
<!-- Node5&#45;&gt;Node12 -->
<g id="edge16" class="edge"><title>Node5&#45;&gt;Node12</title>
<path fill="none" stroke="midnightblue" d="M201.047,-165.219C202.659,-158.099 205.042,-147.577 207.09,-138.529"/>
<polygon fill="midnightblue" stroke="midnightblue" points="210.555,-139.076 209.35,-128.55 203.728,-137.53 210.555,-139.076"/>
</g>
<!-- Node13 -->
<g id="node14" class="node"><title>Node13</title>
<g id="a_node14"><a xlink:href="_game_object_8hpp.html" target="_top" xlink:title="GameObject.hpp">
<polygon fill="none" stroke="black" points="446.375,-110.5 446.375,-128.5 537.97,-128.5 537.97,-110.5 446.375,-110.5"/>
<text text-anchor="middle" x="492.172" y="-116.5" font-family="Helvetica,sans-Serif" font-size="10.00">GameObject.hpp</text>
</a>
</g>
</g>
<!-- Node5&#45;&gt;Node13 -->
<g id="edge17" class="edge"><title>Node5&#45;&gt;Node13</title>
<path fill="none" stroke="midnightblue" d="M243.673,-165.45C295.667,-156.045 381.692,-140.485 437.65,-130.362"/>
<polygon fill="midnightblue" stroke="midnightblue" points="438.517,-133.762 447.734,-128.538 437.271,-126.874 438.517,-133.762"/>
</g>
<!-- Node7 -->
<g id="node8" class="node"><title>Node7</title>
<g id="a_node8"><a xlink:href="_component_8hpp.html" target="_top" xlink:title="Component.hpp">
<polygon fill="none" stroke="black" points="351.591,-55.5 351.591,-73.5 438.753,-73.5 438.753,-55.5 351.591,-55.5"/>
<text text-anchor="middle" x="395.172" y="-61.5" font-family="Helvetica,sans-Serif" font-size="10.00">Component.hpp</text>
</a>
</g>
</g>
<!-- Node6&#45;&gt;Node7 -->
<g id="edge10" class="edge"><title>Node6&#45;&gt;Node7</title>
<path fill="none" stroke="midnightblue" d="M370.704,-110.219C374.771,-102.786 380.866,-91.646 385.955,-82.3446"/>
<polygon fill="midnightblue" stroke="midnightblue" points="389.038,-84.0023 390.768,-73.5496 382.897,-80.6421 389.038,-84.0023"/>
</g>
<!-- Node8 -->
<g id="node9" class="node"><title>Node8</title>
<polygon fill="none" stroke="#bfbfbf" points="374.946,-0.5 374.946,-18.5 415.399,-18.5 415.399,-0.5 374.946,-0.5"/>
<text text-anchor="middle" x="395.172" y="-6.5" font-family="Helvetica,sans-Serif" font-size="10.00">string</text>
</g>
<!-- Node6&#45;&gt;Node8 -->
<g id="edge14" class="edge"><title>Node6&#45;&gt;Node8</title>
<path fill="none" stroke="midnightblue" d="M325.708,-113.15C280.333,-105.424 216.157,-88.2673 241.172,-55 256.02,-35.2542 324.346,-21.4931 364.83,-14.9131"/>
<polygon fill="midnightblue" stroke="midnightblue" points="365.381,-18.3696 374.716,-13.3588 364.293,-11.4545 365.381,-18.3696"/>
</g>
<!-- Node9 -->
<g id="node10" class="node"><title>Node9</title>
<polygon fill="none" stroke="#bfbfbf" points="250.544,-55.5 250.544,-73.5 333.8,-73.5 333.8,-55.5 250.544,-55.5"/>
<text text-anchor="middle" x="292.172" y="-61.5" font-family="Helvetica,sans-Serif" font-size="10.00">SRE/Mesh.hpp</text>
</g>
<!-- Node6&#45;&gt;Node9 -->
<g id="edge12" class="edge"><title>Node6&#45;&gt;Node9</title>
<path fill="none" stroke="midnightblue" d="M354.933,-110.45C343.524,-102.279 325.627,-89.4604 311.859,-79.5996"/>
<polygon fill="midnightblue" stroke="midnightblue" points="313.685,-76.6027 303.517,-73.6253 309.609,-82.2936 313.685,-76.6027"/>
</g>
<!-- Node10 -->
<g id="node11" class="node"><title>Node10</title>
<polygon fill="none" stroke="#bfbfbf" points="456.938,-55.5 456.938,-73.5 527.406,-73.5 527.406,-55.5 456.938,-55.5"/>
<text text-anchor="middle" x="492.172" y="-61.5" font-family="Helvetica,sans-Serif" font-size="10.00">glm/glm.hpp</text>
</g>
<!-- Node6&#45;&gt;Node10 -->
<g id="edge13" class="edge"><title>Node6&#45;&gt;Node10</title>
<path fill="none" stroke="midnightblue" d="M385.309,-110.45C406.124,-101.695 439.62,-87.6055 463.562,-77.5346"/>
<polygon fill="midnightblue" stroke="midnightblue" points="464.995,-80.7289 472.856,-73.6253 462.281,-74.2765 464.995,-80.7289"/>
</g>
<!-- Node11 -->
<g id="node12" class="node"><title>Node11</title>
<polygon fill="none" stroke="#bfbfbf" points="545.557,-55.5 545.557,-73.5 588.788,-73.5 588.788,-55.5 545.557,-55.5"/>
<text text-anchor="middle" x="567.172" y="-61.5" font-family="Helvetica,sans-Serif" font-size="10.00">vector</text>
</g>
<!-- Node6&#45;&gt;Node11 -->
<g id="edge15" class="edge"><title>Node6&#45;&gt;Node11</title>
<path fill="none" stroke="midnightblue" d="M397.222,-110.488C429.394,-102.16 481.382,-88.6332 535.696,-74.1036"/>
<polygon fill="midnightblue" stroke="midnightblue" points="536.747,-77.4455 545.501,-71.4766 534.936,-70.684 536.747,-77.4455"/>
</g>
<!-- Node7&#45;&gt;Node8 -->
<g id="edge11" class="edge"><title>Node7&#45;&gt;Node8</title>
<path fill="none" stroke="midnightblue" d="M395.172,-55.2188C395.172,-48.1769 395.172,-37.8083 395.172,-28.8277"/>
<polygon fill="midnightblue" stroke="midnightblue" points="398.672,-28.5495 395.172,-18.5496 391.672,-28.5496 398.672,-28.5495"/>
</g>
<!-- Node13&#45;&gt;Node7 -->
<g id="edge22" class="edge"><title>Node13&#45;&gt;Node7</title>
<path fill="none" stroke="midnightblue" d="M477.44,-110.45C461.915,-101.968 437.225,-88.477 418.939,-78.486"/>
<polygon fill="midnightblue" stroke="midnightblue" points="420.497,-75.3488 410.043,-73.6253 417.141,-81.4917 420.497,-75.3488"/>
</g>
<!-- Node13&#45;&gt;Node8 -->
<g id="edge20" class="edge"><title>Node13&#45;&gt;Node8</title>
<path fill="none" stroke="midnightblue" d="M531.595,-110.5C570.217,-100.874 620.293,-82.4951 598.172,-55 576.847,-28.4929 476.778,-16.8905 425.553,-12.618"/>
<polygon fill="midnightblue" stroke="midnightblue" points="425.655,-9.11513 415.41,-11.8148 425.102,-16.0933 425.655,-9.11513"/>
</g>
<!-- Node13&#45;&gt;Node9 -->
<g id="edge18" class="edge"><title>Node13&#45;&gt;Node9</title>
<path fill="none" stroke="midnightblue" d="M461.797,-110.45C427.189,-101.279 370.495,-86.2555 332.279,-76.1283"/>
<polygon fill="midnightblue" stroke="midnightblue" points="333.069,-72.7167 322.506,-73.5383 331.275,-79.4832 333.069,-72.7167"/>
</g>
<!-- Node13&#45;&gt;Node10 -->
<g id="edge19" class="edge"><title>Node13&#45;&gt;Node10</title>
<path fill="none" stroke="midnightblue" d="M492.172,-110.219C492.172,-103.177 492.172,-92.8083 492.172,-83.8277"/>
<polygon fill="midnightblue" stroke="midnightblue" points="495.672,-83.5495 492.172,-73.5496 488.672,-83.5496 495.672,-83.5495"/>
</g>
<!-- Node13&#45;&gt;Node11 -->
<g id="edge21" class="edge"><title>Node13&#45;&gt;Node11</title>
<path fill="none" stroke="midnightblue" d="M503.563,-110.45C515.127,-102.279 533.266,-89.4604 547.22,-79.5996"/>
<polygon fill="midnightblue" stroke="midnightblue" points="549.528,-82.2548 555.674,-73.6253 545.488,-76.5381 549.528,-82.2548"/>
</g>
<!-- Node14 -->
<g id="node15" class="node"><title>Node14</title>
<polygon fill="none" stroke="#bfbfbf" points="645.116,-55.5 645.116,-73.5 697.229,-73.5 697.229,-55.5 645.116,-55.5"/>
<text text-anchor="middle" x="671.172" y="-61.5" font-family="Helvetica,sans-Serif" font-size="10.00">memory</text>
</g>
<!-- Node13&#45;&gt;Node14 -->
<g id="edge23" class="edge"><title>Node13&#45;&gt;Node14</title>
<path fill="none" stroke="midnightblue" d="M519.359,-110.45C550.336,-101.278 601.085,-86.2522 635.288,-76.1249"/>
<polygon fill="midnightblue" stroke="midnightblue" points="636.304,-79.4745 644.899,-73.2794 634.316,-72.7626 636.304,-79.4745"/>
</g>
</g>
</svg>
