<?xml version="1.0" encoding="UTF-8" standalone="no"?>
<!DOCTYPE svg PUBLIC "-//W3C//DTD SVG 1.1//EN"
 "http://www.w3.org/Graphics/SVG/1.1/DTD/svg11.dtd">
<!-- Generated by graphviz version 2.38.0 (20140413.2041)
 -->
<!-- Title: Audio.hpp Pages: 1 -->
<svg width="262pt" height="137pt"
 viewBox="0.00 0.00 262.32 137.00" xmlns="http://www.w3.org/2000/svg" xmlns:xlink="http://www.w3.org/1999/xlink">
<g id="graph0" class="graph" transform="scale(1 1) rotate(0) translate(4 133)">
<title>Audio.hpp</title>
<!-- Node4 -->
<g id="node1" class="node"><title>Node4</title>
<polygon fill="#bfbfbf" stroke="black" points="80.7192,-110.5 80.7192,-128.5 141.758,-128.5 141.758,-110.5 80.7192,-110.5"/>
<text text-anchor="middle" x="111.239" y="-116.5" font-family="Helvetica,sans-Serif" font-size="10.00">Audio.hpp</text>
</g>
<!-- Node5 -->
<g id="node2" class="node"><title>Node5</title>
<g id="a_node2"><a xlink:href="_audio_8cpp.html" target="_top" xlink:title="Audio.cpp">
<polygon fill="none" stroke="black" points="0,-0.5 0,-18.5 60.4775,-18.5 60.4775,-0.5 0,-0.5"/>
<text text-anchor="middle" x="30.2388" y="-6.5" font-family="Helvetica,sans-Serif" font-size="10.00">Audio.cpp</text>
</a>
</g>
</g>
<!-- Node4&#45;&gt;Node5 -->
<g id="edge1" class="edge"><title>Node4&#45;&gt;Node5</title>
<path fill="none" stroke="midnightblue" d="M89.4552,-104.78C78.3248,-96.8842 65.2628,-86.1308 56.2388,-74 43.1561,-56.4132 35.4481,-31.3032 32.1472,-18.57"/>
<polygon fill="midnightblue" stroke="midnightblue" points="87.6118,-107.759 97.8534,-110.472 91.5389,-101.964 87.6118,-107.759"/>
</g>
<!-- Node6 -->
<g id="node3" class="node"><title>Node6</title>
<g id="a_node3"><a xlink:href="_audio_source_8hpp.html" target="_top" xlink:title="AudioSource.hpp">
<polygon fill="none" stroke="black" points="64.877,-55.5 64.877,-73.5 157.601,-73.5 157.601,-55.5 64.877,-55.5"/>
<text text-anchor="middle" x="111.239" y="-61.5" font-family="Helvetica,sans-Serif" font-size="10.00">AudioSource.hpp</text>
</a>
</g>
</g>
<!-- Node4&#45;&gt;Node6 -->
<g id="edge2" class="edge"><title>Node4&#45;&gt;Node6</title>
<path fill="none" stroke="midnightblue" d="M111.239,-100.175C111.239,-91.0945 111.239,-80.5949 111.239,-73.5496"/>
<polygon fill="midnightblue" stroke="midnightblue" points="107.739,-100.219 111.239,-110.219 114.739,-100.219 107.739,-100.219"/>
</g>
<!-- Node7 -->
<g id="node4" class="node"><title>Node7</title>
<g id="a_node4"><a xlink:href="_audio_source_8cpp.html" target="_top" xlink:title="AudioSource.cpp">
<polygon fill="none" stroke="black" points="162.158,-0.5 162.158,-18.5 254.32,-18.5 254.32,-0.5 162.158,-0.5"/>
<text text-anchor="middle" x="208.239" y="-6.5" font-family="Helvetica,sans-Serif" font-size="10.00">AudioSource.cpp</text>
</a>
</g>
</g>
<!-- Node4&#45;&gt;Node7 -->
<g id="edge6" class="edge"><title>Node4&#45;&gt;Node7</title>
<path fill="none" stroke="midnightblue" d="M131.682,-104.331C142.63,-96.1832 155.942,-85.3344 166.239,-74 182.414,-56.1941 196.818,-31.611 203.794,-18.8867"/>
<polygon fill="midnightblue" stroke="midnightblue" points="129.56,-101.546 123.511,-110.244 133.664,-107.217 129.56,-101.546"/>
</g>
<!-- Node6&#45;&gt;Node5 -->
<g id="edge3" class="edge"><title>Node6&#45;&gt;Node5</title>
<path fill="none" stroke="midnightblue" d="M90.2582,-49.7719C75.1613,-39.8937 55.3085,-26.9036 42.6567,-18.6253"/>
<polygon fill="midnightblue" stroke="midnightblue" points="88.6524,-52.9039 98.9366,-55.4504 92.4851,-47.0464 88.6524,-52.9039"/>
</g>
<!-- Node6&#45;&gt;Node7 -->
<g id="edge4" class="edge"><title>Node6&#45;&gt;Node7</title>
<path fill="none" stroke="midnightblue" d="M134.843,-50.603C153.09,-40.6328 177.788,-27.1379 193.368,-18.6253"/>
<polygon fill="midnightblue" stroke="midnightblue" points="133.068,-47.5841 125.971,-55.4504 136.425,-53.727 133.068,-47.5841"/>
</g>
<!-- Node8 -->
<g id="node5" class="node"><title>Node8</title>
<g id="a_node5"><a xlink:href="_engine_8cpp.html" target="_top" xlink:title="Engine.cpp">
<polygon fill="none" stroke="black" points="78.2192,-0.5 78.2192,-18.5 144.258,-18.5 144.258,-0.5 78.2192,-0.5"/>
<text text-anchor="middle" x="111.239" y="-6.5" font-family="Helvetica,sans-Serif" font-size="10.00">Engine.cpp</text>
</a>
</g>
</g>
<!-- Node6&#45;&gt;Node8 -->
<g id="edge5" class="edge"><title>Node6&#45;&gt;Node8</title>
<path fill="none" stroke="midnightblue" d="M111.239,-45.1746C111.239,-36.0945 111.239,-25.5949 111.239,-18.5496"/>
<polygon fill="midnightblue" stroke="midnightblue" points="107.739,-45.2187 111.239,-55.2188 114.739,-45.2188 107.739,-45.2187"/>
</g>
</g>
</svg>
