<?xml version="1.0" encoding="UTF-8" standalone="no"?>
<!DOCTYPE svg PUBLIC "-//W3C//DTD SVG 1.1//EN"
 "http://www.w3.org/Graphics/SVG/1.1/DTD/svg11.dtd">
<!-- Generated by graphviz version 2.38.0 (20140413.2041)
 -->
<!-- Title: AudioSource.hpp Pages: 1 -->
<svg width="262pt" height="82pt"
 viewBox="0.00 0.00 262.26 82.00" xmlns="http://www.w3.org/2000/svg" xmlns:xlink="http://www.w3.org/1999/xlink">
<g id="graph0" class="graph" transform="scale(1 1) rotate(0) translate(4 78)">
<title>AudioSource.hpp</title>
<!-- Node14 -->
<g id="node1" class="node"><title>Node14</title>
<polygon fill="#bfbfbf" stroke="black" points="77.877,-55.5 77.877,-73.5 170.601,-73.5 170.601,-55.5 77.877,-55.5"/>
<text text-anchor="middle" x="124.239" y="-61.5" font-family="Helvetica,sans-Serif" font-size="10.00">AudioSource.hpp</text>
</g>
<!-- Node15 -->
<g id="node2" class="node"><title>Node15</title>
<g id="a_node2"><a xlink:href="_audio_8cpp.html" target="_top" xlink:title="Audio.cpp">
<polygon fill="none" stroke="black" points="0,-0.5 0,-18.5 60.4775,-18.5 60.4775,-0.5 0,-0.5"/>
<text text-anchor="middle" x="30.2388" y="-6.5" font-family="Helvetica,sans-Serif" font-size="10.00">Audio.cpp</text>
</a>
</g>
</g>
<!-- Node14&#45;&gt;Node15 -->
<g id="edge1" class="edge"><title>Node14&#45;&gt;Node15</title>
<path fill="none" stroke="midnightblue" d="M100.877,-50.3277C83.2434,-40.3856 59.609,-27.0598 44.6497,-18.6253"/>
<polygon fill="midnightblue" stroke="midnightblue" points="99.5324,-53.5878 109.962,-55.4504 102.97,-47.4902 99.5324,-53.5878"/>
</g>
<!-- Node16 -->
<g id="node3" class="node"><title>Node16</title>
<g id="a_node3"><a xlink:href="_audio_source_8cpp.html" target="_top" xlink:title="AudioSource.cpp">
<polygon fill="none" stroke="black" points="78.1577,-0.5 78.1577,-18.5 170.32,-18.5 170.32,-0.5 78.1577,-0.5"/>
<text text-anchor="middle" x="124.239" y="-6.5" font-family="Helvetica,sans-Serif" font-size="10.00">AudioSource.cpp</text>
</a>
</g>
</g>
<!-- Node14&#45;&gt;Node16 -->
<g id="edge2" class="edge"><title>Node14&#45;&gt;Node16</title>
<path fill="none" stroke="midnightblue" d="M124.239,-45.1746C124.239,-36.0945 124.239,-25.5949 124.239,-18.5496"/>
<polygon fill="midnightblue" stroke="midnightblue" points="120.739,-45.2187 124.239,-55.2188 127.739,-45.2188 120.739,-45.2187"/>
</g>
<!-- Node17 -->
<g id="node4" class="node"><title>Node17</title>
<g id="a_node4"><a xlink:href="_engine_8cpp.html" target="_top" xlink:title="Engine.cpp">
<polygon fill="none" stroke="black" points="188.219,-0.5 188.219,-18.5 254.258,-18.5 254.258,-0.5 188.219,-0.5"/>
<text text-anchor="middle" x="221.239" y="-6.5" font-family="Helvetica,sans-Serif" font-size="10.00">Engine.cpp</text>
</a>
</g>
</g>
<!-- Node14&#45;&gt;Node17 -->
<g id="edge3" class="edge"><title>Node14&#45;&gt;Node17</title>
<path fill="none" stroke="midnightblue" d="M147.843,-50.603C166.09,-40.6328 190.788,-27.1379 206.368,-18.6253"/>
<polygon fill="midnightblue" stroke="midnightblue" points="146.068,-47.5841 138.971,-55.4504 149.425,-53.727 146.068,-47.5841"/>
</g>
</g>
</svg>
