<?xml version="1.0" encoding="UTF-8" standalone="no"?>
<!DOCTYPE svg PUBLIC "-//W3C//DTD SVG 1.1//EN"
 "http://www.w3.org/Graphics/SVG/1.1/DTD/svg11.dtd">
<!-- Generated by graphviz version 2.38.0 (20140413.2041)
 -->
<!-- Title: Audio.hpp Pages: 1 -->
<svg width="203pt" height="82pt"
 viewBox="0.00 0.00 202.57 82.00" xmlns="http://www.w3.org/2000/svg" xmlns:xlink="http://www.w3.org/1999/xlink">
<g id="graph0" class="graph" transform="scale(1 1) rotate(0) translate(4 78)">
<title>Audio.hpp</title>
<!-- Node0 -->
<g id="node1" class="node"><title>Node0</title>
<polygon fill="#bfbfbf" stroke="black" points="64.6528,-55.5 64.6528,-73.5 125.692,-73.5 125.692,-55.5 64.6528,-55.5"/>
<text text-anchor="middle" x="95.1724" y="-61.5" font-family="Helvetica,sans-Serif" font-size="10.00">Audio.hpp</text>
</g>
<!-- Node1 -->
<g id="node2" class="node"><title>Node1</title>
<polygon fill="none" stroke="#bfbfbf" points="0,-0.5 0,-18.5 54.3447,-18.5 54.3447,-0.5 0,-0.5"/>
<text text-anchor="middle" x="27.1724" y="-6.5" font-family="Helvetica,sans-Serif" font-size="10.00">iostream</text>
</g>
<!-- Node0&#45;&gt;Node1 -->
<g id="edge1" class="edge"><title>Node0&#45;&gt;Node1</title>
<path fill="none" stroke="midnightblue" d="M84.8446,-55.4504C74.4601,-47.3566 58.2268,-34.7042 45.6249,-24.8822"/>
<polygon fill="midnightblue" stroke="midnightblue" points="47.6362,-22.0122 37.5973,-18.6253 43.333,-27.5333 47.6362,-22.0122"/>
</g>
<!-- Node2 -->
<g id="node3" class="node"><title>Node2</title>
<polygon fill="none" stroke="#bfbfbf" points="72.4409,-0.5 72.4409,-18.5 117.904,-18.5 117.904,-0.5 72.4409,-0.5"/>
<text text-anchor="middle" x="95.1724" y="-6.5" font-family="Helvetica,sans-Serif" font-size="10.00">stdio.h</text>
</g>
<!-- Node0&#45;&gt;Node2 -->
<g id="edge2" class="edge"><title>Node0&#45;&gt;Node2</title>
<path fill="none" stroke="midnightblue" d="M95.1724,-55.2188C95.1724,-48.1769 95.1724,-37.8083 95.1724,-28.8277"/>
<polygon fill="midnightblue" stroke="midnightblue" points="98.6725,-28.5495 95.1724,-18.5496 91.6725,-28.5496 98.6725,-28.5495"/>
</g>
<!-- Node3 -->
<g id="node4" class="node"><title>Node3</title>
<polygon fill="none" stroke="#bfbfbf" points="135.773,-0.5 135.773,-18.5 194.571,-18.5 194.571,-0.5 135.773,-0.5"/>
<text text-anchor="middle" x="165.172" y="-6.5" font-family="Helvetica,sans-Serif" font-size="10.00">irrKlang.h</text>
</g>
<!-- Node0&#45;&gt;Node3 -->
<g id="edge3" class="edge"><title>Node0&#45;&gt;Node3</title>
<path fill="none" stroke="midnightblue" d="M105.804,-55.4504C116.494,-47.3566 133.205,-34.7042 146.177,-24.8822"/>
<polygon fill="midnightblue" stroke="midnightblue" points="148.581,-27.4521 154.441,-18.6253 144.355,-21.8713 148.581,-27.4521"/>
</g>
</g>
</svg>
