<?xml version="1.0" encoding="UTF-8" standalone="no"?>
<!DOCTYPE svg PUBLIC "-//W3C//DTD SVG 1.1//EN"
 "http://www.w3.org/Graphics/SVG/1.1/DTD/svg11.dtd">
<!-- Generated by graphviz version 2.38.0 (20140413.2041)
 -->
<!-- Title: AudioSource.cpp Pages: 1 -->
<svg width="685pt" height="247pt"
 viewBox="0.00 0.00 685.08 247.00" xmlns="http://www.w3.org/2000/svg" xmlns:xlink="http://www.w3.org/1999/xlink">
<g id="graph0" class="graph" transform="scale(1 1) rotate(0) translate(4 243)">
<title>AudioSource.cpp</title>
<!-- Node0 -->
<g id="node1" class="node"><title>Node0</title>
<polygon fill="#bfbfbf" stroke="black" points="107.318,-220.5 107.318,-238.5 199.48,-238.5 199.48,-220.5 107.318,-220.5"/>
<text text-anchor="middle" x="153.399" y="-226.5" font-family="Helvetica,sans-Serif" font-size="10.00">AudioSource.cpp</text>
</g>
<!-- Node1 -->
<g id="node2" class="node"><title>Node1</title>
<g id="a_node2"><a xlink:href="_audio_source_8hpp.html" target="_top" xlink:title="AudioSource.hpp">
<polygon fill="none" stroke="black" points="155.037,-165.5 155.037,-183.5 247.761,-183.5 247.761,-165.5 155.037,-165.5"/>
<text text-anchor="middle" x="201.399" y="-171.5" font-family="Helvetica,sans-Serif" font-size="10.00">AudioSource.hpp</text>
</a>
</g>
</g>
<!-- Node0&#45;&gt;Node1 -->
<g id="edge1" class="edge"><title>Node0&#45;&gt;Node1</title>
<path fill="none" stroke="midnightblue" d="M160.899,-220.219C167.914,-212.473 178.575,-200.701 187.198,-191.18"/>
<polygon fill="midnightblue" stroke="midnightblue" points="189.99,-193.311 194.109,-183.55 184.802,-188.612 189.99,-193.311"/>
</g>
<!-- Node4 -->
<g id="node5" class="node"><title>Node4</title>
<polygon fill="none" stroke="#bfbfbf" points="0,-55.5 0,-73.5 58.7979,-73.5 58.7979,-55.5 0,-55.5"/>
<text text-anchor="middle" x="29.3989" y="-61.5" font-family="Helvetica,sans-Serif" font-size="10.00">irrKlang.h</text>
</g>
<!-- Node0&#45;&gt;Node4 -->
<g id="edge25" class="edge"><title>Node0&#45;&gt;Node4</title>
<path fill="none" stroke="midnightblue" d="M138.397,-220.393C113.041,-205.812 62.1583,-172.578 38.3989,-129 30.8961,-115.239 28.9232,-97.412 28.6673,-84.1512"/>
<polygon fill="midnightblue" stroke="midnightblue" points="32.1701,-83.9309 28.7886,-73.8902 25.1705,-83.8481 32.1701,-83.9309"/>
</g>
<!-- Node5 -->
<g id="node6" class="node"><title>Node5</title>
<g id="a_node6"><a xlink:href="_transform_8hpp.html" target="_top" xlink:title="Transform.hpp">
<polygon fill="none" stroke="black" points="411.07,-110.5 411.07,-128.5 491.728,-128.5 491.728,-110.5 411.07,-110.5"/>
<text text-anchor="middle" x="451.399" y="-116.5" font-family="Helvetica,sans-Serif" font-size="10.00">Transform.hpp</text>
</a>
</g>
</g>
<!-- Node0&#45;&gt;Node5 -->
<g id="edge24" class="edge"><title>Node0&#45;&gt;Node5</title>
<path fill="none" stroke="midnightblue" d="M175.797,-220.382C228.239,-201.377 359.124,-153.942 419.708,-131.985"/>
<polygon fill="midnightblue" stroke="midnightblue" points="420.938,-135.262 429.147,-128.564 418.553,-128.681 420.938,-135.262"/>
</g>
<!-- Node14 -->
<g id="node15" class="node"><title>Node14</title>
<g id="a_node15"><a xlink:href="_audio_8hpp.html" target="_top" xlink:title="Audio.hpp">
<polygon fill="none" stroke="black" points="63.8794,-110.5 63.8794,-128.5 124.918,-128.5 124.918,-110.5 63.8794,-110.5"/>
<text text-anchor="middle" x="94.3989" y="-116.5" font-family="Helvetica,sans-Serif" font-size="10.00">Audio.hpp</text>
</a>
</g>
</g>
<!-- Node0&#45;&gt;Node14 -->
<g id="edge26" class="edge"><title>Node0&#45;&gt;Node14</title>
<path fill="none" stroke="midnightblue" d="M148.964,-220.382C139.397,-202.869 116.643,-161.218 103.743,-137.605"/>
<polygon fill="midnightblue" stroke="midnightblue" points="106.751,-135.81 98.885,-128.712 100.608,-139.166 106.751,-135.81"/>
</g>
<!-- Node2 -->
<g id="node3" class="node"><title>Node2</title>
<polygon fill="none" stroke="#bfbfbf" points="140.227,-55.5 140.227,-73.5 194.571,-73.5 194.571,-55.5 140.227,-55.5"/>
<text text-anchor="middle" x="167.399" y="-61.5" font-family="Helvetica,sans-Serif" font-size="10.00">iostream</text>
</g>
<!-- Node1&#45;&gt;Node2 -->
<g id="edge2" class="edge"><title>Node1&#45;&gt;Node2</title>
<path fill="none" stroke="midnightblue" d="M216.876,-165.48C236.904,-153.987 267.737,-131.804 254.399,-110 243.443,-92.0895 222.747,-81.0961 204.29,-74.5177"/>
<polygon fill="midnightblue" stroke="midnightblue" points="205.216,-71.1388 194.624,-71.3841 203.057,-77.7976 205.216,-71.1388"/>
</g>
<!-- Node3 -->
<g id="node4" class="node"><title>Node3</title>
<polygon fill="none" stroke="#bfbfbf" points="76.6675,-55.5 76.6675,-73.5 122.13,-73.5 122.13,-55.5 76.6675,-55.5"/>
<text text-anchor="middle" x="99.3989" y="-61.5" font-family="Helvetica,sans-Serif" font-size="10.00">stdio.h</text>
</g>
<!-- Node1&#45;&gt;Node3 -->
<g id="edge3" class="edge"><title>Node1&#45;&gt;Node3</title>
<path fill="none" stroke="midnightblue" d="M193.732,-165.382C176.823,-147.479 136.087,-104.347 114.086,-81.0507"/>
<polygon fill="midnightblue" stroke="midnightblue" points="116.565,-78.5787 107.154,-73.7118 111.476,-83.3851 116.565,-78.5787"/>
</g>
<!-- Node1&#45;&gt;Node4 -->
<g id="edge4" class="edge"><title>Node1&#45;&gt;Node4</title>
<path fill="none" stroke="midnightblue" d="M154.768,-169.906C122.939,-165.163 81.746,-154.214 54.3989,-129 41.6149,-117.213 35.2722,-98.0701 32.187,-83.8797"/>
<polygon fill="midnightblue" stroke="midnightblue" points="35.5857,-83.0071 30.3502,-73.7962 28.699,-84.2616 35.5857,-83.0071"/>
</g>
<!-- Node1&#45;&gt;Node5 -->
<g id="edge5" class="edge"><title>Node1&#45;&gt;Node5</title>
<path fill="none" stroke="midnightblue" d="M239.369,-165.45C283.364,-156.123 355.916,-140.742 403.684,-130.615"/>
<polygon fill="midnightblue" stroke="midnightblue" points="404.426,-134.036 413.482,-128.538 402.974,-127.188 404.426,-134.036"/>
</g>
<!-- Node11 -->
<g id="node12" class="node"><title>Node11</title>
<polygon fill="none" stroke="#bfbfbf" points="181.495,-110.5 181.495,-128.5 245.303,-128.5 245.303,-110.5 181.495,-110.5"/>
<text text-anchor="middle" x="213.399" y="-116.5" font-family="Helvetica,sans-Serif" font-size="10.00">ik_vec3d.h</text>
</g>
<!-- Node1&#45;&gt;Node11 -->
<g id="edge12" class="edge"><title>Node1&#45;&gt;Node11</title>
<path fill="none" stroke="midnightblue" d="M203.274,-165.219C204.886,-158.099 207.268,-147.577 209.317,-138.529"/>
<polygon fill="midnightblue" stroke="midnightblue" points="212.782,-139.076 211.576,-128.55 205.954,-137.53 212.782,-139.076"/>
</g>
<!-- Node12 -->
<g id="node13" class="node"><title>Node12</title>
<g id="a_node13"><a xlink:href="_game_object_8hpp.html" target="_top" xlink:title="GameObject.hpp">
<polygon fill="none" stroke="black" points="301.601,-110.5 301.601,-128.5 393.197,-128.5 393.197,-110.5 301.601,-110.5"/>
<text text-anchor="middle" x="347.399" y="-116.5" font-family="Helvetica,sans-Serif" font-size="10.00">GameObject.hpp</text>
</a>
</g>
</g>
<!-- Node1&#45;&gt;Node12 -->
<g id="edge13" class="edge"><title>Node1&#45;&gt;Node12</title>
<path fill="none" stroke="midnightblue" d="M223.573,-165.45C248.013,-156.578 287.542,-142.229 315.351,-132.134"/>
<polygon fill="midnightblue" stroke="midnightblue" points="316.81,-135.328 325.016,-128.625 314.422,-128.748 316.81,-135.328"/>
</g>
<!-- Node1&#45;&gt;Node14 -->
<g id="edge20" class="edge"><title>Node1&#45;&gt;Node14</title>
<path fill="none" stroke="midnightblue" d="M185.148,-165.45C167.786,-156.851 140.035,-143.105 119.787,-133.075"/>
<polygon fill="midnightblue" stroke="midnightblue" points="121.317,-129.928 110.803,-128.625 118.21,-136.2 121.317,-129.928"/>
</g>
<!-- Node6 -->
<g id="node7" class="node"><title>Node6</title>
<g id="a_node7"><a xlink:href="_component_8hpp.html" target="_top" xlink:title="Component.hpp">
<polygon fill="none" stroke="black" points="381.818,-55.5 381.818,-73.5 468.98,-73.5 468.98,-55.5 381.818,-55.5"/>
<text text-anchor="middle" x="425.399" y="-61.5" font-family="Helvetica,sans-Serif" font-size="10.00">Component.hpp</text>
</a>
</g>
</g>
<!-- Node5&#45;&gt;Node6 -->
<g id="edge6" class="edge"><title>Node5&#45;&gt;Node6</title>
<path fill="none" stroke="midnightblue" d="M447.336,-110.219C443.728,-102.864 438.34,-91.8801 433.807,-82.639"/>
<polygon fill="midnightblue" stroke="midnightblue" points="436.894,-80.986 429.348,-73.5496 430.61,-84.069 436.894,-80.986"/>
</g>
<!-- Node7 -->
<g id="node8" class="node"><title>Node7</title>
<polygon fill="none" stroke="#bfbfbf" points="405.172,-0.5 405.172,-18.5 445.625,-18.5 445.625,-0.5 405.172,-0.5"/>
<text text-anchor="middle" x="425.399" y="-6.5" font-family="Helvetica,sans-Serif" font-size="10.00">string</text>
</g>
<!-- Node5&#45;&gt;Node7 -->
<g id="edge10" class="edge"><title>Node5&#45;&gt;Node7</title>
<path fill="none" stroke="midnightblue" d="M491.81,-119.383C566.861,-119.689 715.928,-113.266 667.399,-55 640.826,-23.0946 515.061,-13.9846 456.075,-11.4477"/>
<polygon fill="midnightblue" stroke="midnightblue" points="456.007,-7.94244 445.877,-11.0465 455.732,-14.937 456.007,-7.94244"/>
</g>
<!-- Node8 -->
<g id="node9" class="node"><title>Node8</title>
<polygon fill="none" stroke="#bfbfbf" points="486.771,-55.5 486.771,-73.5 570.027,-73.5 570.027,-55.5 486.771,-55.5"/>
<text text-anchor="middle" x="528.399" y="-61.5" font-family="Helvetica,sans-Serif" font-size="10.00">SRE/Mesh.hpp</text>
</g>
<!-- Node5&#45;&gt;Node8 -->
<g id="edge8" class="edge"><title>Node5&#45;&gt;Node8</title>
<path fill="none" stroke="midnightblue" d="M463.094,-110.45C475.079,-102.201 493.944,-89.2158 508.323,-79.3187"/>
<polygon fill="midnightblue" stroke="midnightblue" points="510.341,-82.1782 516.594,-73.6253 506.372,-76.4121 510.341,-82.1782"/>
</g>
<!-- Node9 -->
<g id="node10" class="node"><title>Node9</title>
<polygon fill="none" stroke="#bfbfbf" points="588.165,-55.5 588.165,-73.5 658.633,-73.5 658.633,-55.5 588.165,-55.5"/>
<text text-anchor="middle" x="623.399" y="-61.5" font-family="Helvetica,sans-Serif" font-size="10.00">glm/glm.hpp</text>
</g>
<!-- Node5&#45;&gt;Node9 -->
<g id="edge9" class="edge"><title>Node5&#45;&gt;Node9</title>
<path fill="none" stroke="midnightblue" d="M477.522,-110.45C506.905,-101.396 554.8,-86.6382 587.641,-76.5185"/>
<polygon fill="midnightblue" stroke="midnightblue" points="588.786,-79.8279 597.312,-73.5383 586.725,-73.1383 588.786,-79.8279"/>
</g>
<!-- Node10 -->
<g id="node11" class="node"><title>Node10</title>
<polygon fill="none" stroke="#bfbfbf" points="320.783,-55.5 320.783,-73.5 364.015,-73.5 364.015,-55.5 320.783,-55.5"/>
<text text-anchor="middle" x="342.399" y="-61.5" font-family="Helvetica,sans-Serif" font-size="10.00">vector</text>
</g>
<!-- Node5&#45;&gt;Node10 -->
<g id="edge11" class="edge"><title>Node5&#45;&gt;Node10</title>
<path fill="none" stroke="midnightblue" d="M434.844,-110.45C417.158,-101.851 388.888,-88.1048 368.262,-78.0755"/>
<polygon fill="midnightblue" stroke="midnightblue" points="369.633,-74.8506 359.109,-73.6253 366.572,-81.1459 369.633,-74.8506"/>
</g>
<!-- Node6&#45;&gt;Node7 -->
<g id="edge7" class="edge"><title>Node6&#45;&gt;Node7</title>
<path fill="none" stroke="midnightblue" d="M425.399,-55.2188C425.399,-48.1769 425.399,-37.8083 425.399,-28.8277"/>
<polygon fill="midnightblue" stroke="midnightblue" points="428.899,-28.5495 425.399,-18.5496 421.899,-28.5496 428.899,-28.5495"/>
</g>
<!-- Node12&#45;&gt;Node6 -->
<g id="edge18" class="edge"><title>Node12&#45;&gt;Node6</title>
<path fill="none" stroke="midnightblue" d="M359.245,-110.45C371.386,-102.201 390.496,-89.2158 405.062,-79.3187"/>
<polygon fill="midnightblue" stroke="midnightblue" points="407.137,-82.1405 413.441,-73.6253 403.203,-76.3506 407.137,-82.1405"/>
</g>
<!-- Node12&#45;&gt;Node7 -->
<g id="edge16" class="edge"><title>Node12&#45;&gt;Node7</title>
<path fill="none" stroke="midnightblue" d="M336.853,-110.424C322.073,-98.1052 298.389,-74.0447 311.399,-55 330.02,-27.742 368.031,-17.1792 395.037,-13.0868"/>
<polygon fill="midnightblue" stroke="midnightblue" points="395.672,-16.5338 405.138,-11.7753 394.771,-9.5921 395.672,-16.5338"/>
</g>
<!-- Node12&#45;&gt;Node8 -->
<g id="edge14" class="edge"><title>Node12&#45;&gt;Node8</title>
<path fill="none" stroke="midnightblue" d="M374.889,-110.45C405.942,-101.357 456.645,-86.5108 491.216,-76.3879"/>
<polygon fill="midnightblue" stroke="midnightblue" points="492.334,-79.7075 500.947,-73.5383 490.367,-72.9896 492.334,-79.7075"/>
</g>
<!-- Node12&#45;&gt;Node9 -->
<g id="edge15" class="edge"><title>Node12&#45;&gt;Node9</title>
<path fill="none" stroke="midnightblue" d="M389.314,-110.478C433.692,-101.98 506.078,-88.1081 577.752,-74.3152"/>
<polygon fill="midnightblue" stroke="midnightblue" points="578.7,-77.6971 587.858,-72.37 577.377,-70.8233 578.7,-77.6971"/>
</g>
<!-- Node12&#45;&gt;Node10 -->
<g id="edge17" class="edge"><title>Node12&#45;&gt;Node10</title>
<path fill="none" stroke="midnightblue" d="M346.618,-110.219C345.946,-103.099 344.953,-92.5775 344.1,-83.5289"/>
<polygon fill="midnightblue" stroke="midnightblue" points="347.582,-83.1766 343.158,-73.5496 340.613,-83.8341 347.582,-83.1766"/>
</g>
<!-- Node13 -->
<g id="node14" class="node"><title>Node13</title>
<polygon fill="none" stroke="#bfbfbf" points="212.342,-55.5 212.342,-73.5 264.456,-73.5 264.456,-55.5 212.342,-55.5"/>
<text text-anchor="middle" x="238.399" y="-61.5" font-family="Helvetica,sans-Serif" font-size="10.00">memory</text>
</g>
<!-- Node12&#45;&gt;Node13 -->
<g id="edge19" class="edge"><title>Node12&#45;&gt;Node13</title>
<path fill="none" stroke="midnightblue" d="M330.844,-110.45C313.158,-101.851 284.888,-88.1048 264.262,-78.0755"/>
<polygon fill="midnightblue" stroke="midnightblue" points="265.633,-74.8506 255.109,-73.6253 262.572,-81.1459 265.633,-74.8506"/>
</g>
<!-- Node14&#45;&gt;Node2 -->
<g id="edge21" class="edge"><title>Node14&#45;&gt;Node2</title>
<path fill="none" stroke="midnightblue" d="M105.486,-110.45C116.741,-102.279 134.397,-89.4604 147.979,-79.5996"/>
<polygon fill="midnightblue" stroke="midnightblue" points="150.172,-82.3327 156.207,-73.6253 146.059,-76.6682 150.172,-82.3327"/>
</g>
<!-- Node14&#45;&gt;Node3 -->
<g id="edge22" class="edge"><title>Node14&#45;&gt;Node3</title>
<path fill="none" stroke="midnightblue" d="M95.1802,-110.219C95.8519,-103.099 96.8444,-92.5775 97.6981,-83.5289"/>
<polygon fill="midnightblue" stroke="midnightblue" points="101.185,-83.8341 98.6395,-73.5496 94.2157,-83.1766 101.185,-83.8341"/>
</g>
<!-- Node14&#45;&gt;Node4 -->
<g id="edge23" class="edge"><title>Node14&#45;&gt;Node4</title>
<path fill="none" stroke="midnightblue" d="M84.5268,-110.45C74.6959,-102.434 59.3812,-89.9471 47.3858,-80.1663"/>
<polygon fill="midnightblue" stroke="midnightblue" points="49.3259,-77.2322 39.3639,-73.6253 44.9023,-82.6573 49.3259,-77.2322"/>
</g>
</g>
</svg>
