<?xml version="1.0" encoding="UTF-8" standalone="no"?>
<!DOCTYPE svg PUBLIC "-//W3C//DTD SVG 1.1//EN"
 "http://www.w3.org/Graphics/SVG/1.1/DTD/svg11.dtd">
<!-- Generated by graphviz version 2.38.0 (20140413.2041)
 -->
<!-- Title: AudioSource.hpp Pages: 1 -->
<svg width="684pt" height="192pt"
 viewBox="0.00 0.00 684.49 192.00" xmlns="http://www.w3.org/2000/svg" xmlns:xlink="http://www.w3.org/1999/xlink">
<g id="graph0" class="graph" transform="scale(1 1) rotate(0) translate(4 188)">
<title>AudioSource.hpp</title>
<!-- Node0 -->
<g id="node1" class="node"><title>Node0</title>
<polygon fill="#bfbfbf" stroke="black" points="166.811,-165.5 166.811,-183.5 259.534,-183.5 259.534,-165.5 166.811,-165.5"/>
<text text-anchor="middle" x="213.172" y="-171.5" font-family="Helvetica,sans-Serif" font-size="10.00">AudioSource.hpp</text>
</g>
<!-- Node1 -->
<g id="node2" class="node"><title>Node1</title>
<polygon fill="none" stroke="#bfbfbf" points="0,-55.5 0,-73.5 54.3447,-73.5 54.3447,-55.5 0,-55.5"/>
<text text-anchor="middle" x="27.1724" y="-61.5" font-family="Helvetica,sans-Serif" font-size="10.00">iostream</text>
</g>
<!-- Node0&#45;&gt;Node1 -->
<g id="edge1" class="edge"><title>Node0&#45;&gt;Node1</title>
<path fill="none" stroke="midnightblue" d="M185.001,-165.37C161.357,-157.868 127.208,-145.41 100.172,-129 77.8458,-115.448 55.7111,-94.9338 41.7711,-80.9134"/>
<polygon fill="midnightblue" stroke="midnightblue" points="44.0522,-78.2388 34.5709,-73.5106 39.0342,-83.1194 44.0522,-78.2388"/>
</g>
<!-- Node2 -->
<g id="node3" class="node"><title>Node2</title>
<polygon fill="none" stroke="#bfbfbf" points="72.4409,-55.5 72.4409,-73.5 117.904,-73.5 117.904,-55.5 72.4409,-55.5"/>
<text text-anchor="middle" x="95.1724" y="-61.5" font-family="Helvetica,sans-Serif" font-size="10.00">stdio.h</text>
</g>
<!-- Node0&#45;&gt;Node2 -->
<g id="edge2" class="edge"><title>Node0&#45;&gt;Node2</title>
<path fill="none" stroke="midnightblue" d="M177.53,-165.46C156.374,-158.954 130.566,-147.708 114.172,-129 103.152,-116.424 98.5209,-97.665 96.5762,-83.7946"/>
<polygon fill="midnightblue" stroke="midnightblue" points="100.024,-83.1134 95.4933,-73.5361 93.0625,-83.8483 100.024,-83.1134"/>
</g>
<!-- Node3 -->
<g id="node4" class="node"><title>Node3</title>
<polygon fill="none" stroke="#bfbfbf" points="135.773,-55.5 135.773,-73.5 194.571,-73.5 194.571,-55.5 135.773,-55.5"/>
<text text-anchor="middle" x="165.172" y="-61.5" font-family="Helvetica,sans-Serif" font-size="10.00">irrKlang.h</text>
</g>
<!-- Node0&#45;&gt;Node3 -->
<g id="edge3" class="edge"><title>Node0&#45;&gt;Node3</title>
<path fill="none" stroke="midnightblue" d="M211.536,-165.413C208.869,-153.079 202.982,-129 194.172,-110 189.607,-100.153 183.109,-89.9538 177.421,-81.8078"/>
<polygon fill="midnightblue" stroke="midnightblue" points="180.187,-79.6605 171.489,-73.6114 174.517,-83.7645 180.187,-79.6605"/>
</g>
<!-- Node4 -->
<g id="node5" class="node"><title>Node4</title>
<g id="a_node5"><a xlink:href="_transform_8hpp.html" target="_top" xlink:title="Transform.hpp">
<polygon fill="none" stroke="black" points="258.843,-110.5 258.843,-128.5 339.501,-128.5 339.501,-110.5 258.843,-110.5"/>
<text text-anchor="middle" x="299.172" y="-116.5" font-family="Helvetica,sans-Serif" font-size="10.00">Transform.hpp</text>
</a>
</g>
</g>
<!-- Node0&#45;&gt;Node4 -->
<g id="edge4" class="edge"><title>Node0&#45;&gt;Node4</title>
<path fill="none" stroke="midnightblue" d="M226.234,-165.45C239.746,-157.123 261.088,-143.97 277.203,-134.039"/>
<polygon fill="midnightblue" stroke="midnightblue" points="279.311,-136.851 285.988,-128.625 275.638,-130.892 279.311,-136.851"/>
</g>
<!-- Node10 -->
<g id="node11" class="node"><title>Node10</title>
<polygon fill="none" stroke="#bfbfbf" points="502.269,-110.5 502.269,-128.5 566.076,-128.5 566.076,-110.5 502.269,-110.5"/>
<text text-anchor="middle" x="534.172" y="-116.5" font-family="Helvetica,sans-Serif" font-size="10.00">ik_vec3d.h</text>
</g>
<!-- Node0&#45;&gt;Node10 -->
<g id="edge11" class="edge"><title>Node0&#45;&gt;Node10</title>
<path fill="none" stroke="midnightblue" d="M259.856,-166.764C313.52,-158.868 404.476,-145.022 492.13,-129.121"/>
<polygon fill="midnightblue" stroke="midnightblue" points="492.762,-132.563 501.971,-127.324 491.505,-125.677 492.762,-132.563"/>
</g>
<!-- Node11 -->
<g id="node12" class="node"><title>Node11</title>
<g id="a_node12"><a xlink:href="_game_object_8hpp.html" target="_top" xlink:title="GameObject.hpp">
<polygon fill="none" stroke="black" points="392.375,-110.5 392.375,-128.5 483.97,-128.5 483.97,-110.5 392.375,-110.5"/>
<text text-anchor="middle" x="438.172" y="-116.5" font-family="Helvetica,sans-Serif" font-size="10.00">GameObject.hpp</text>
</a>
</g>
</g>
<!-- Node0&#45;&gt;Node11 -->
<g id="edge12" class="edge"><title>Node0&#45;&gt;Node11</title>
<path fill="none" stroke="midnightblue" d="M247.345,-165.45C286.61,-156.201 351.147,-140.999 394.145,-130.871"/>
<polygon fill="midnightblue" stroke="midnightblue" points="395.116,-134.238 404.047,-128.538 393.511,-127.424 395.116,-134.238"/>
</g>
<!-- Node13 -->
<g id="node14" class="node"><title>Node13</title>
<g id="a_node14"><a xlink:href="_audio_8hpp.html" target="_top" xlink:title="Audio.hpp">
<polygon fill="none" stroke="black" points="123.653,-110.5 123.653,-128.5 184.692,-128.5 184.692,-110.5 123.653,-110.5"/>
<text text-anchor="middle" x="154.172" y="-116.5" font-family="Helvetica,sans-Serif" font-size="10.00">Audio.hpp</text>
</a>
</g>
</g>
<!-- Node0&#45;&gt;Node13 -->
<g id="edge19" class="edge"><title>Node0&#45;&gt;Node13</title>
<path fill="none" stroke="midnightblue" d="M204.212,-165.45C195.375,-157.512 181.656,-145.189 170.817,-135.452"/>
<polygon fill="midnightblue" stroke="midnightblue" points="172.996,-132.704 163.218,-128.625 168.318,-137.912 172.996,-132.704"/>
</g>
<!-- Node5 -->
<g id="node6" class="node"><title>Node5</title>
<g id="a_node6"><a xlink:href="_component_8hpp.html" target="_top" xlink:title="Component.hpp">
<polygon fill="none" stroke="black" points="412.591,-55.5 412.591,-73.5 499.753,-73.5 499.753,-55.5 412.591,-55.5"/>
<text text-anchor="middle" x="456.172" y="-61.5" font-family="Helvetica,sans-Serif" font-size="10.00">Component.hpp</text>
</a>
</g>
</g>
<!-- Node4&#45;&gt;Node5 -->
<g id="edge5" class="edge"><title>Node4&#45;&gt;Node5</title>
<path fill="none" stroke="midnightblue" d="M323.017,-110.45C349.606,-101.475 392.803,-86.8922 422.754,-76.7813"/>
<polygon fill="midnightblue" stroke="midnightblue" points="424.006,-80.053 432.361,-73.5383 421.767,-73.4207 424.006,-80.053"/>
</g>
<!-- Node6 -->
<g id="node7" class="node"><title>Node6</title>
<polygon fill="none" stroke="#bfbfbf" points="435.946,-0.5 435.946,-18.5 476.399,-18.5 476.399,-0.5 435.946,-0.5"/>
<text text-anchor="middle" x="456.172" y="-6.5" font-family="Helvetica,sans-Serif" font-size="10.00">string</text>
</g>
<!-- Node4&#45;&gt;Node6 -->
<g id="edge9" class="edge"><title>Node4&#45;&gt;Node6</title>
<path fill="none" stroke="midnightblue" d="M282.007,-110.346C259.378,-98.513 224.298,-75.7251 241.172,-55 264.082,-26.8625 371.827,-15.9644 425.554,-12.2262"/>
<polygon fill="midnightblue" stroke="midnightblue" points="426.094,-15.6984 435.844,-11.5523 425.637,-8.71341 426.094,-15.6984"/>
</g>
<!-- Node7 -->
<g id="node8" class="node"><title>Node7</title>
<polygon fill="none" stroke="#bfbfbf" points="311.544,-55.5 311.544,-73.5 394.8,-73.5 394.8,-55.5 311.544,-55.5"/>
<text text-anchor="middle" x="353.172" y="-61.5" font-family="Helvetica,sans-Serif" font-size="10.00">SRE/Mesh.hpp</text>
</g>
<!-- Node4&#45;&gt;Node7 -->
<g id="edge7" class="edge"><title>Node4&#45;&gt;Node7</title>
<path fill="none" stroke="midnightblue" d="M307.61,-110.219C315.662,-102.316 327.982,-90.2241 337.782,-80.6057"/>
<polygon fill="midnightblue" stroke="midnightblue" points="340.286,-83.0522 344.971,-73.5496 335.382,-78.0564 340.286,-83.0522"/>
</g>
<!-- Node8 -->
<g id="node9" class="node"><title>Node8</title>
<polygon fill="none" stroke="#bfbfbf" points="517.938,-55.5 517.938,-73.5 588.406,-73.5 588.406,-55.5 517.938,-55.5"/>
<text text-anchor="middle" x="553.172" y="-61.5" font-family="Helvetica,sans-Serif" font-size="10.00">glm/glm.hpp</text>
</g>
<!-- Node4&#45;&gt;Node8 -->
<g id="edge8" class="edge"><title>Node4&#45;&gt;Node8</title>
<path fill="none" stroke="midnightblue" d="M337.749,-110.45C383.486,-100.907 459.596,-85.0258 508.029,-74.9196"/>
<polygon fill="midnightblue" stroke="midnightblue" points="508.849,-78.324 517.924,-72.8551 507.419,-71.4716 508.849,-78.324"/>
</g>
<!-- Node9 -->
<g id="node10" class="node"><title>Node9</title>
<polygon fill="none" stroke="#bfbfbf" points="250.557,-55.5 250.557,-73.5 293.788,-73.5 293.788,-55.5 250.557,-55.5"/>
<text text-anchor="middle" x="272.172" y="-61.5" font-family="Helvetica,sans-Serif" font-size="10.00">vector</text>
</g>
<!-- Node4&#45;&gt;Node9 -->
<g id="edge10" class="edge"><title>Node4&#45;&gt;Node9</title>
<path fill="none" stroke="midnightblue" d="M294.954,-110.219C291.207,-102.864 285.611,-91.8801 280.904,-82.639"/>
<polygon fill="midnightblue" stroke="midnightblue" points="283.931,-80.8712 276.273,-73.5496 277.694,-84.0487 283.931,-80.8712"/>
</g>
<!-- Node5&#45;&gt;Node6 -->
<g id="edge6" class="edge"><title>Node5&#45;&gt;Node6</title>
<path fill="none" stroke="midnightblue" d="M456.172,-55.2188C456.172,-48.1769 456.172,-37.8083 456.172,-28.8277"/>
<polygon fill="midnightblue" stroke="midnightblue" points="459.672,-28.5495 456.172,-18.5496 452.672,-28.5496 459.672,-28.5495"/>
</g>
<!-- Node11&#45;&gt;Node5 -->
<g id="edge17" class="edge"><title>Node11&#45;&gt;Node5</title>
<path fill="none" stroke="midnightblue" d="M440.985,-110.219C443.43,-103.02 447.055,-92.3458 450.15,-83.2311"/>
<polygon fill="midnightblue" stroke="midnightblue" points="453.537,-84.1439 453.439,-73.5496 446.909,-81.8928 453.537,-84.1439"/>
</g>
<!-- Node11&#45;&gt;Node6 -->
<g id="edge15" class="edge"><title>Node11&#45;&gt;Node6</title>
<path fill="none" stroke="midnightblue" d="M484.12,-111.1C549.282,-100.388 661.344,-81.0704 667.172,-74 716.372,-14.32 556.246,-9.29986 486.749,-9.82659"/>
<polygon fill="midnightblue" stroke="midnightblue" points="486.376,-6.33074 476.419,-9.95124 486.46,-13.3302 486.376,-6.33074"/>
</g>
<!-- Node11&#45;&gt;Node7 -->
<g id="edge13" class="edge"><title>Node11&#45;&gt;Node7</title>
<path fill="none" stroke="midnightblue" d="M425.263,-110.45C411.908,-102.123 390.814,-88.9704 374.887,-79.0394"/>
<polygon fill="midnightblue" stroke="midnightblue" points="376.541,-75.9464 366.204,-73.6253 372.837,-81.8863 376.541,-75.9464"/>
</g>
<!-- Node11&#45;&gt;Node8 -->
<g id="edge14" class="edge"><title>Node11&#45;&gt;Node8</title>
<path fill="none" stroke="midnightblue" d="M455.638,-110.45C474.382,-101.812 504.394,-87.9803 526.181,-77.9396"/>
<polygon fill="midnightblue" stroke="midnightblue" points="527.925,-80.9896 535.542,-73.6253 524.995,-74.6323 527.925,-80.9896"/>
</g>
<!-- Node11&#45;&gt;Node9 -->
<g id="edge16" class="edge"><title>Node11&#45;&gt;Node9</title>
<path fill="none" stroke="midnightblue" d="M412.961,-110.45C383.661,-101.096 335.289,-85.6517 303.575,-75.5261"/>
<polygon fill="midnightblue" stroke="midnightblue" points="304.499,-72.1473 293.909,-72.4399 302.37,-78.8156 304.499,-72.1473"/>
</g>
<!-- Node12 -->
<g id="node13" class="node"><title>Node12</title>
<polygon fill="none" stroke="#bfbfbf" points="606.116,-55.5 606.116,-73.5 658.229,-73.5 658.229,-55.5 606.116,-55.5"/>
<text text-anchor="middle" x="632.172" y="-61.5" font-family="Helvetica,sans-Serif" font-size="10.00">memory</text>
</g>
<!-- Node11&#45;&gt;Node12 -->
<g id="edge18" class="edge"><title>Node11&#45;&gt;Node12</title>
<path fill="none" stroke="midnightblue" d="M467.637,-110.45C502.032,-101.054 558.919,-85.5126 595.972,-75.3897"/>
<polygon fill="midnightblue" stroke="midnightblue" points="597.138,-78.6996 605.862,-72.6879 595.293,-71.9471 597.138,-78.6996"/>
</g>
<!-- Node13&#45;&gt;Node1 -->
<g id="edge20" class="edge"><title>Node13&#45;&gt;Node1</title>
<path fill="none" stroke="midnightblue" d="M134.884,-110.45C113.904,-101.695 80.1422,-87.6055 56.0101,-77.5346"/>
<polygon fill="midnightblue" stroke="midnightblue" points="57.2191,-74.2467 46.6425,-73.6253 54.5231,-80.7067 57.2191,-74.2467"/>
</g>
<!-- Node13&#45;&gt;Node2 -->
<g id="edge21" class="edge"><title>Node13&#45;&gt;Node2</title>
<path fill="none" stroke="midnightblue" d="M145.212,-110.45C136.375,-102.512 122.656,-90.1891 111.817,-80.4519"/>
<polygon fill="midnightblue" stroke="midnightblue" points="113.996,-77.7043 104.218,-73.6253 109.318,-82.9118 113.996,-77.7043"/>
</g>
<!-- Node13&#45;&gt;Node3 -->
<g id="edge22" class="edge"><title>Node13&#45;&gt;Node3</title>
<path fill="none" stroke="midnightblue" d="M155.891,-110.219C157.369,-103.099 159.553,-92.5775 161.431,-83.5289"/>
<polygon fill="midnightblue" stroke="midnightblue" points="164.896,-84.0522 163.502,-73.5496 158.042,-82.6296 164.896,-84.0522"/>
</g>
</g>
</svg>
