<?xml version="1.0" encoding="UTF-8" standalone="no"?>
<!DOCTYPE svg PUBLIC "-//W3C//DTD SVG 1.1//EN"
 "http://www.w3.org/Graphics/SVG/1.1/DTD/svg11.dtd">
<!-- Generated by graphviz version 2.38.0 (20140413.2041)
 -->
<!-- Title: CameraHandler.cpp Pages: 1 -->
<svg width="499pt" height="192pt"
 viewBox="0.00 0.00 498.89 192.00" xmlns="http://www.w3.org/2000/svg" xmlns:xlink="http://www.w3.org/1999/xlink">
<g id="graph0" class="graph" transform="scale(1 1) rotate(0) translate(4 188)">
<title>CameraHandler.cpp</title>
<!-- Node0 -->
<g id="node1" class="node"><title>Node0</title>
<polygon fill="#bfbfbf" stroke="black" points="169.764,-165.5 169.764,-183.5 274.704,-183.5 274.704,-165.5 169.764,-165.5"/>
<text text-anchor="middle" x="222.234" y="-171.5" font-family="Helvetica,sans-Serif" font-size="10.00">CameraHandler.cpp</text>
</g>
<!-- Node1 -->
<g id="node2" class="node"><title>Node1</title>
<g id="a_node2"><a xlink:href="_camera_handler_8hpp.html" target="_top" xlink:title="CameraHandler.hpp">
<polygon fill="none" stroke="black" points="6.48291,-110.5 6.48291,-128.5 111.985,-128.5 111.985,-110.5 6.48291,-110.5"/>
<text text-anchor="middle" x="59.2339" y="-116.5" font-family="Helvetica,sans-Serif" font-size="10.00">CameraHandler.hpp</text>
</a>
</g>
</g>
<!-- Node0&#45;&gt;Node1 -->
<g id="edge1" class="edge"><title>Node0&#45;&gt;Node1</title>
<path fill="none" stroke="midnightblue" d="M197.478,-165.45C169.753,-156.436 124.635,-141.765 93.5243,-131.65"/>
<polygon fill="midnightblue" stroke="midnightblue" points="94.5477,-128.302 83.9555,-128.538 92.3831,-134.959 94.5477,-128.302"/>
</g>
<!-- Node5 -->
<g id="node6" class="node"><title>Node5</title>
<g id="a_node6"><a xlink:href="_game_object_8hpp.html" target="_top" xlink:title="GameObject.hpp">
<polygon fill="none" stroke="black" points="228.436,-110.5 228.436,-128.5 320.032,-128.5 320.032,-110.5 228.436,-110.5"/>
<text text-anchor="middle" x="274.234" y="-116.5" font-family="Helvetica,sans-Serif" font-size="10.00">GameObject.hpp</text>
</a>
</g>
</g>
<!-- Node0&#45;&gt;Node5 -->
<g id="edge5" class="edge"><title>Node0&#45;&gt;Node5</title>
<path fill="none" stroke="midnightblue" d="M230.359,-165.219C238.036,-157.394 249.742,-145.463 259.132,-135.892"/>
<polygon fill="midnightblue" stroke="midnightblue" points="261.831,-138.139 266.336,-128.55 256.834,-133.236 261.831,-138.139"/>
</g>
<!-- Node9 -->
<g id="node10" class="node"><title>Node9</title>
<g id="a_node10"><a xlink:href="_transform_8hpp.html" target="_top" xlink:title="Transform.hpp">
<polygon fill="none" stroke="black" points="129.905,-110.5 129.905,-128.5 210.563,-128.5 210.563,-110.5 129.905,-110.5"/>
<text text-anchor="middle" x="170.234" y="-116.5" font-family="Helvetica,sans-Serif" font-size="10.00">Transform.hpp</text>
</a>
</g>
</g>
<!-- Node0&#45;&gt;Node9 -->
<g id="edge12" class="edge"><title>Node0&#45;&gt;Node9</title>
<path fill="none" stroke="midnightblue" d="M214.109,-165.219C206.432,-157.394 194.726,-145.463 185.336,-135.892"/>
<polygon fill="midnightblue" stroke="midnightblue" points="187.633,-133.236 178.132,-128.55 182.637,-138.139 187.633,-133.236"/>
</g>
<!-- Node10 -->
<g id="node11" class="node"><title>Node10</title>
<polygon fill="none" stroke="#bfbfbf" points="337.582,-110.5 337.582,-128.5 490.886,-128.5 490.886,-110.5 337.582,-110.5"/>
<text text-anchor="middle" x="414.234" y="-116.5" font-family="Helvetica,sans-Serif" font-size="10.00">SRE/SimpleRenderEngine.hpp</text>
</g>
<!-- Node0&#45;&gt;Node10 -->
<g id="edge18" class="edge"><title>Node0&#45;&gt;Node10</title>
<path fill="none" stroke="midnightblue" d="M251.395,-165.45C284.477,-156.318 338.581,-141.383 375.262,-131.258"/>
<polygon fill="midnightblue" stroke="midnightblue" points="376.406,-134.573 385.114,-128.538 374.543,-127.825 376.406,-134.573"/>
</g>
<!-- Node2 -->
<g id="node3" class="node"><title>Node2</title>
<g id="a_node3"><a xlink:href="_component_8hpp.html" target="_top" xlink:title="Component.hpp">
<polygon fill="none" stroke="black" points="126.653,-55.5 126.653,-73.5 213.815,-73.5 213.815,-55.5 126.653,-55.5"/>
<text text-anchor="middle" x="170.234" y="-61.5" font-family="Helvetica,sans-Serif" font-size="10.00">Component.hpp</text>
</a>
</g>
</g>
<!-- Node1&#45;&gt;Node2 -->
<g id="edge2" class="edge"><title>Node1&#45;&gt;Node2</title>
<path fill="none" stroke="midnightblue" d="M76.0924,-110.45C94.1845,-101.812 123.153,-87.9803 144.181,-77.9396"/>
<polygon fill="midnightblue" stroke="midnightblue" points="145.701,-81.0926 153.217,-73.6253 142.685,-74.7757 145.701,-81.0926"/>
</g>
<!-- Node4 -->
<g id="node5" class="node"><title>Node4</title>
<polygon fill="none" stroke="#bfbfbf" points="0,-55.5 0,-73.5 70.4678,-73.5 70.4678,-55.5 0,-55.5"/>
<text text-anchor="middle" x="35.2339" y="-61.5" font-family="Helvetica,sans-Serif" font-size="10.00">glm/glm.hpp</text>
</g>
<!-- Node1&#45;&gt;Node4 -->
<g id="edge4" class="edge"><title>Node1&#45;&gt;Node4</title>
<path fill="none" stroke="midnightblue" d="M55.4839,-110.219C52.1888,-102.942 47.2852,-92.1134 43.1287,-82.9345"/>
<polygon fill="midnightblue" stroke="midnightblue" points="46.1924,-81.2153 38.879,-73.5496 39.8158,-84.1029 46.1924,-81.2153"/>
</g>
<!-- Node3 -->
<g id="node4" class="node"><title>Node3</title>
<polygon fill="none" stroke="#bfbfbf" points="150.007,-0.5 150.007,-18.5 190.46,-18.5 190.46,-0.5 150.007,-0.5"/>
<text text-anchor="middle" x="170.234" y="-6.5" font-family="Helvetica,sans-Serif" font-size="10.00">string</text>
</g>
<!-- Node2&#45;&gt;Node3 -->
<g id="edge3" class="edge"><title>Node2&#45;&gt;Node3</title>
<path fill="none" stroke="midnightblue" d="M170.234,-55.2188C170.234,-48.1769 170.234,-37.8083 170.234,-28.8277"/>
<polygon fill="midnightblue" stroke="midnightblue" points="173.734,-28.5495 170.234,-18.5496 166.734,-28.5496 173.734,-28.5495"/>
</g>
<!-- Node5&#45;&gt;Node2 -->
<g id="edge10" class="edge"><title>Node5&#45;&gt;Node2</title>
<path fill="none" stroke="midnightblue" d="M258.439,-110.45C241.64,-101.89 214.834,-88.2291 195.178,-78.2119"/>
<polygon fill="midnightblue" stroke="midnightblue" points="196.677,-75.0475 186.178,-73.6253 193.498,-81.2843 196.677,-75.0475"/>
</g>
<!-- Node5&#45;&gt;Node3 -->
<g id="edge8" class="edge"><title>Node5&#45;&gt;Node3</title>
<path fill="none" stroke="midnightblue" d="M318.917,-110.473C369.716,-100.896 446.749,-84.8234 455.234,-74 460.444,-67.3542 460.725,-61.4152 455.234,-55 422.766,-17.0698 267.97,-11.2298 201.107,-10.5016"/>
<polygon fill="midnightblue" stroke="midnightblue" points="200.821,-6.99936 190.794,-10.4228 200.767,-13.9992 200.821,-6.99936"/>
</g>
<!-- Node5&#45;&gt;Node4 -->
<g id="edge7" class="edge"><title>Node5&#45;&gt;Node4</title>
<path fill="none" stroke="midnightblue" d="M237.935,-110.45C195.808,-101.108 126.295,-85.6935 80.6314,-75.5672"/>
<polygon fill="midnightblue" stroke="midnightblue" points="81.2228,-72.1134 70.7022,-73.3654 79.7072,-78.9474 81.2228,-72.1134"/>
</g>
<!-- Node6 -->
<g id="node7" class="node"><title>Node6</title>
<polygon fill="none" stroke="#bfbfbf" points="292.606,-55.5 292.606,-73.5 375.862,-73.5 375.862,-55.5 292.606,-55.5"/>
<text text-anchor="middle" x="334.234" y="-61.5" font-family="Helvetica,sans-Serif" font-size="10.00">SRE/Mesh.hpp</text>
</g>
<!-- Node5&#45;&gt;Node6 -->
<g id="edge6" class="edge"><title>Node5&#45;&gt;Node6</title>
<path fill="none" stroke="midnightblue" d="M283.347,-110.45C292.333,-102.512 306.284,-90.1891 317.307,-80.4519"/>
<polygon fill="midnightblue" stroke="midnightblue" points="319.858,-82.8689 325.035,-73.6253 315.224,-77.6225 319.858,-82.8689"/>
</g>
<!-- Node7 -->
<g id="node8" class="node"><title>Node7</title>
<polygon fill="none" stroke="#bfbfbf" points="231.618,-55.5 231.618,-73.5 274.85,-73.5 274.85,-55.5 231.618,-55.5"/>
<text text-anchor="middle" x="253.234" y="-61.5" font-family="Helvetica,sans-Serif" font-size="10.00">vector</text>
</g>
<!-- Node5&#45;&gt;Node7 -->
<g id="edge9" class="edge"><title>Node5&#45;&gt;Node7</title>
<path fill="none" stroke="midnightblue" d="M270.953,-110.219C268.069,-102.942 263.779,-92.1134 260.142,-82.9345"/>
<polygon fill="midnightblue" stroke="midnightblue" points="263.361,-81.5571 256.423,-73.5496 256.853,-84.1357 263.361,-81.5571"/>
</g>
<!-- Node8 -->
<g id="node9" class="node"><title>Node8</title>
<polygon fill="none" stroke="#bfbfbf" points="394.177,-55.5 394.177,-73.5 446.291,-73.5 446.291,-55.5 394.177,-55.5"/>
<text text-anchor="middle" x="420.234" y="-61.5" font-family="Helvetica,sans-Serif" font-size="10.00">memory</text>
</g>
<!-- Node5&#45;&gt;Node8 -->
<g id="edge11" class="edge"><title>Node5&#45;&gt;Node8</title>
<path fill="none" stroke="midnightblue" d="M296.408,-110.45C320.848,-101.578 360.377,-87.2288 388.186,-77.134"/>
<polygon fill="midnightblue" stroke="midnightblue" points="389.645,-80.3276 397.851,-73.6253 387.257,-73.7477 389.645,-80.3276"/>
</g>
<!-- Node9&#45;&gt;Node2 -->
<g id="edge13" class="edge"><title>Node9&#45;&gt;Node2</title>
<path fill="none" stroke="midnightblue" d="M170.234,-110.219C170.234,-103.177 170.234,-92.8083 170.234,-83.8277"/>
<polygon fill="midnightblue" stroke="midnightblue" points="173.734,-83.5495 170.234,-73.5496 166.734,-83.5496 173.734,-83.5495"/>
</g>
<!-- Node9&#45;&gt;Node3 -->
<g id="edge16" class="edge"><title>Node9&#45;&gt;Node3</title>
<path fill="none" stroke="midnightblue" d="M154.668,-110.481C141.961,-102.971 124.899,-90.4435 117.234,-74 108.058,-54.3145 128.225,-35.7243 146.266,-23.8068"/>
<polygon fill="midnightblue" stroke="midnightblue" points="148.152,-26.7556 154.813,-18.5168 144.468,-20.8033 148.152,-26.7556"/>
</g>
<!-- Node9&#45;&gt;Node4 -->
<g id="edge15" class="edge"><title>Node9&#45;&gt;Node4</title>
<path fill="none" stroke="midnightblue" d="M149.73,-110.45C127.33,-101.656 91.2211,-87.4802 65.5467,-77.4006"/>
<polygon fill="midnightblue" stroke="midnightblue" points="66.5179,-74.0218 55.9304,-73.6253 63.9597,-80.5377 66.5179,-74.0218"/>
</g>
<!-- Node9&#45;&gt;Node6 -->
<g id="edge14" class="edge"><title>Node9&#45;&gt;Node6</title>
<path fill="none" stroke="midnightblue" d="M195.142,-110.45C223.037,-101.436 268.432,-86.7653 299.733,-76.6496"/>
<polygon fill="midnightblue" stroke="midnightblue" points="300.921,-79.9439 309.361,-73.5383 298.769,-73.2831 300.921,-79.9439"/>
</g>
<!-- Node9&#45;&gt;Node7 -->
<g id="edge17" class="edge"><title>Node9&#45;&gt;Node7</title>
<path fill="none" stroke="midnightblue" d="M182.84,-110.45C195.881,-102.123 216.478,-88.9704 232.031,-79.0394"/>
<polygon fill="midnightblue" stroke="midnightblue" points="233.965,-81.9571 240.509,-73.6253 230.197,-76.0574 233.965,-81.9571"/>
</g>
</g>
</svg>
