<?xml version="1.0" encoding="UTF-8" standalone="no"?>
<!DOCTYPE svg PUBLIC "-//W3C//DTD SVG 1.1//EN"
 "http://www.w3.org/Graphics/SVG/1.1/DTD/svg11.dtd">
<!-- Generated by graphviz version 2.38.0 (20140413.2041)
 -->
<!-- Title: CameraHandler.hpp Pages: 1 -->
<svg width="184pt" height="137pt"
 viewBox="0.00 0.00 183.81 137.00" xmlns="http://www.w3.org/2000/svg" xmlns:xlink="http://www.w3.org/1999/xlink">
<g id="graph0" class="graph" transform="scale(1 1) rotate(0) translate(4 133)">
<title>CameraHandler.hpp</title>
<!-- Node0 -->
<g id="node1" class="node"><title>Node0</title>
<polygon fill="#bfbfbf" stroke="black" points="38.8301,-110.5 38.8301,-128.5 144.332,-128.5 144.332,-110.5 38.8301,-110.5"/>
<text text-anchor="middle" x="91.5811" y="-116.5" font-family="Helvetica,sans-Serif" font-size="10.00">CameraHandler.hpp</text>
</g>
<!-- Node1 -->
<g id="node2" class="node"><title>Node1</title>
<g id="a_node2"><a xlink:href="_component_8hpp.html" target="_top" xlink:title="Component.hpp">
<polygon fill="none" stroke="black" points="0,-55.5 0,-73.5 87.1621,-73.5 87.1621,-55.5 0,-55.5"/>
<text text-anchor="middle" x="43.5811" y="-61.5" font-family="Helvetica,sans-Serif" font-size="10.00">Component.hpp</text>
</a>
</g>
</g>
<!-- Node0&#45;&gt;Node1 -->
<g id="edge1" class="edge"><title>Node0&#45;&gt;Node1</title>
<path fill="none" stroke="midnightblue" d="M84.0811,-110.219C77.0657,-102.473 66.4049,-90.7013 57.7817,-81.1799"/>
<polygon fill="midnightblue" stroke="midnightblue" points="60.1783,-78.6121 50.8712,-73.5496 54.9898,-83.3111 60.1783,-78.6121"/>
</g>
<!-- Node3 -->
<g id="node4" class="node"><title>Node3</title>
<polygon fill="none" stroke="#bfbfbf" points="105.347,-55.5 105.347,-73.5 175.815,-73.5 175.815,-55.5 105.347,-55.5"/>
<text text-anchor="middle" x="140.581" y="-61.5" font-family="Helvetica,sans-Serif" font-size="10.00">glm/glm.hpp</text>
</g>
<!-- Node0&#45;&gt;Node3 -->
<g id="edge3" class="edge"><title>Node0&#45;&gt;Node3</title>
<path fill="none" stroke="midnightblue" d="M99.2373,-110.219C106.399,-102.473 117.282,-90.7013 126.085,-81.1799"/>
<polygon fill="midnightblue" stroke="midnightblue" points="128.92,-83.2683 133.139,-73.5496 123.78,-78.5163 128.92,-83.2683"/>
</g>
<!-- Node2 -->
<g id="node3" class="node"><title>Node2</title>
<polygon fill="none" stroke="#bfbfbf" points="23.3545,-0.5 23.3545,-18.5 63.8076,-18.5 63.8076,-0.5 23.3545,-0.5"/>
<text text-anchor="middle" x="43.5811" y="-6.5" font-family="Helvetica,sans-Serif" font-size="10.00">string</text>
</g>
<!-- Node1&#45;&gt;Node2 -->
<g id="edge2" class="edge"><title>Node1&#45;&gt;Node2</title>
<path fill="none" stroke="midnightblue" d="M43.5811,-55.2188C43.5811,-48.1769 43.5811,-37.8083 43.5811,-28.8277"/>
<polygon fill="midnightblue" stroke="midnightblue" points="47.0812,-28.5495 43.5811,-18.5496 40.0812,-28.5496 47.0812,-28.5495"/>
</g>
</g>
</svg>
