<?xml version="1.0" encoding="UTF-8" standalone="no"?>
<!DOCTYPE svg PUBLIC "-//W3C//DTD SVG 1.1//EN"
 "http://www.w3.org/Graphics/SVG/1.1/DTD/svg11.dtd">
<!-- Generated by graphviz version 2.38.0 (20140413.2041)
 -->
<!-- Title: CameraHandler.hpp Pages: 1 -->
<svg width="196pt" height="82pt"
 viewBox="0.00 0.00 196.49 82.00" xmlns="http://www.w3.org/2000/svg" xmlns:xlink="http://www.w3.org/1999/xlink">
<g id="graph0" class="graph" transform="scale(1 1) rotate(0) translate(4 78)">
<title>CameraHandler.hpp</title>
<!-- Node4 -->
<g id="node1" class="node"><title>Node4</title>
<polygon fill="#bfbfbf" stroke="black" points="50.7192,-55.5 50.7192,-73.5 156.221,-73.5 156.221,-55.5 50.7192,-55.5"/>
<text text-anchor="middle" x="103.47" y="-61.5" font-family="Helvetica,sans-Serif" font-size="10.00">CameraHandler.hpp</text>
</g>
<!-- Node5 -->
<g id="node2" class="node"><title>Node5</title>
<g id="a_node2"><a xlink:href="_camera_handler_8cpp.html" target="_top" xlink:title="CameraHandler.cpp">
<polygon fill="none" stroke="black" points="0,-0.5 0,-18.5 104.94,-18.5 104.94,-0.5 0,-0.5"/>
<text text-anchor="middle" x="52.4702" y="-6.5" font-family="Helvetica,sans-Serif" font-size="10.00">CameraHandler.cpp</text>
</a>
</g>
</g>
<!-- Node4&#45;&gt;Node5 -->
<g id="edge1" class="edge"><title>Node4&#45;&gt;Node5</title>
<path fill="none" stroke="midnightblue" d="M88.3841,-47.8223C79.1298,-38.2051 67.666,-26.2917 60.216,-18.5496"/>
<polygon fill="midnightblue" stroke="midnightblue" points="86.0456,-50.4398 95.5015,-55.2188 91.0896,-45.5862 86.0456,-50.4398"/>
</g>
<!-- Node6 -->
<g id="node3" class="node"><title>Node6</title>
<g id="a_node3"><a xlink:href="_engine_8cpp.html" target="_top" xlink:title="Engine.cpp">
<polygon fill="none" stroke="black" points="122.451,-0.5 122.451,-18.5 188.49,-18.5 188.49,-0.5 122.451,-0.5"/>
<text text-anchor="middle" x="155.47" y="-6.5" font-family="Helvetica,sans-Serif" font-size="10.00">Engine.cpp</text>
</a>
</g>
</g>
<!-- Node4&#45;&gt;Node6 -->
<g id="edge2" class="edge"><title>Node4&#45;&gt;Node6</title>
<path fill="none" stroke="midnightblue" d="M118.852,-47.8223C128.288,-38.2051 139.976,-26.2917 147.573,-18.5496"/>
<polygon fill="midnightblue" stroke="midnightblue" points="116.1,-45.6294 111.595,-55.2188 121.097,-50.5318 116.1,-45.6294"/>
</g>
</g>
</svg>
