<?xml version="1.0" encoding="UTF-8" standalone="no"?>
<!DOCTYPE svg PUBLIC "-//W3C//DTD SVG 1.1//EN"
 "http://www.w3.org/Graphics/SVG/1.1/DTD/svg11.dtd">
<!-- Generated by graphviz version 2.38.0 (20140413.2041)
 -->
<!-- Title: Component.hpp Pages: 1 -->
<svg width="1568pt" height="192pt"
 viewBox="0.00 0.00 1567.73 192.00" xmlns="http://www.w3.org/2000/svg" xmlns:xlink="http://www.w3.org/1999/xlink">
<g id="graph0" class="graph" transform="scale(1 1) rotate(0) translate(4 188)">
<title>Component.hpp</title>
<!-- Node2 -->
<g id="node1" class="node"><title>Node2</title>
<polygon fill="#bfbfbf" stroke="black" points="938.467,-165.5 938.467,-183.5 1025.63,-183.5 1025.63,-165.5 938.467,-165.5"/>
<text text-anchor="middle" x="982.048" y="-171.5" font-family="Helvetica,sans-Serif" font-size="10.00">Component.hpp</text>
</g>
<!-- Node3 -->
<g id="node2" class="node"><title>Node3</title>
<g id="a_node2"><a xlink:href="_transform_8hpp.html" target="_top" xlink:title="Transform.hpp">
<polygon fill="none" stroke="black" points="381.719,-110.5 381.719,-128.5 462.377,-128.5 462.377,-110.5 381.719,-110.5"/>
<text text-anchor="middle" x="422.048" y="-116.5" font-family="Helvetica,sans-Serif" font-size="10.00">Transform.hpp</text>
</a>
</g>
</g>
<!-- Node2&#45;&gt;Node3 -->
<g id="edge1" class="edge"><title>Node2&#45;&gt;Node3</title>
<path fill="none" stroke="midnightblue" d="M928.07,-168.391C816.356,-157.818 561.965,-133.742 462.745,-124.352"/>
<polygon fill="midnightblue" stroke="midnightblue" points="927.821,-171.883 938.106,-169.341 928.48,-164.914 927.821,-171.883"/>
</g>
<!-- Node16 -->
<g id="node15" class="node"><title>Node16</title>
<g id="a_node15"><a xlink:href="_game_object_8hpp.html" target="_top" xlink:title="GameObject.hpp">
<polygon fill="none" stroke="black" points="825.25,-110.5 825.25,-128.5 916.846,-128.5 916.846,-110.5 825.25,-110.5"/>
<text text-anchor="middle" x="871.048" y="-116.5" font-family="Helvetica,sans-Serif" font-size="10.00">GameObject.hpp</text>
</a>
</g>
</g>
<!-- Node2&#45;&gt;Node16 -->
<g id="edge18" class="edge"><title>Node2&#45;&gt;Node16</title>
<path fill="none" stroke="midnightblue" d="M955.895,-161.013C934.937,-151.005 906.139,-137.255 888.066,-128.625"/>
<polygon fill="midnightblue" stroke="midnightblue" points="954.658,-164.3 965.19,-165.45 957.674,-157.983 954.658,-164.3"/>
</g>
<!-- Node22 -->
<g id="node21" class="node"><title>Node22</title>
<g id="a_node21"><a xlink:href="_camera_handler_8hpp.html" target="_top" xlink:title="CameraHandler.hpp">
<polygon fill="none" stroke="black" points="523.297,-110.5 523.297,-128.5 628.799,-128.5 628.799,-110.5 523.297,-110.5"/>
<text text-anchor="middle" x="576.048" y="-116.5" font-family="Helvetica,sans-Serif" font-size="10.00">CameraHandler.hpp</text>
</a>
</g>
</g>
<!-- Node2&#45;&gt;Node22 -->
<g id="edge33" class="edge"><title>Node2&#45;&gt;Node22</title>
<path fill="none" stroke="midnightblue" d="M928.106,-166.458C850.038,-156.267 706.45,-137.523 628.962,-127.407"/>
<polygon fill="midnightblue" stroke="midnightblue" points="927.845,-169.954 938.213,-167.778 928.751,-163.013 927.845,-169.954"/>
</g>
<!-- Node23 -->
<g id="node22" class="node"><title>Node23</title>
<g id="a_node22"><a xlink:href="_component_8cpp.html" target="_top" xlink:title="Component.cpp">
<polygon fill="none" stroke="black" points="1349.75,-110.5 1349.75,-128.5 1436.35,-128.5 1436.35,-110.5 1349.75,-110.5"/>
<text text-anchor="middle" x="1393.05" y="-116.5" font-family="Helvetica,sans-Serif" font-size="10.00">Component.cpp</text>
</a>
</g>
</g>
<!-- Node2&#45;&gt;Node23 -->
<g id="edge36" class="edge"><title>Node2&#45;&gt;Node23</title>
<path fill="none" stroke="midnightblue" d="M1035.72,-167.503C1105.98,-159.503 1232.91,-144.534 1341.05,-129 1343.86,-128.597 1346.74,-128.167 1349.66,-127.722"/>
<polygon fill="midnightblue" stroke="midnightblue" points="1035.32,-164.026 1025.78,-168.632 1036.11,-170.982 1035.32,-164.026"/>
</g>
<!-- Node24 -->
<g id="node23" class="node"><title>Node24</title>
<g id="a_node23"><a xlink:href="_scriptable_8hpp.html" target="_top" xlink:title="Scriptable.hpp">
<polygon fill="none" stroke="black" points="1252.08,-110.5 1252.08,-128.5 1332.01,-128.5 1332.01,-110.5 1252.08,-110.5"/>
<text text-anchor="middle" x="1292.05" y="-116.5" font-family="Helvetica,sans-Serif" font-size="10.00">Scriptable.hpp</text>
</a>
</g>
</g>
<!-- Node2&#45;&gt;Node24 -->
<g id="edge37" class="edge"><title>Node2&#45;&gt;Node24</title>
<path fill="none" stroke="midnightblue" d="M1035.72,-164.324C1097.27,-153.8 1196.77,-136.789 1251.96,-127.354"/>
<polygon fill="midnightblue" stroke="midnightblue" points="1035.07,-160.884 1025.81,-166.019 1036.25,-167.783 1035.07,-160.884"/>
</g>
<!-- Node28 -->
<g id="node27" class="node"><title>Node28</title>
<g id="a_node27"><a xlink:href="_rigidbody_8hpp.html" target="_top" xlink:title="Rigidbody.hpp">
<polygon fill="none" stroke="black" points="1054.45,-110.5 1054.45,-128.5 1133.65,-128.5 1133.65,-110.5 1054.45,-110.5"/>
<text text-anchor="middle" x="1094.05" y="-116.5" font-family="Helvetica,sans-Serif" font-size="10.00">Rigidbody.hpp</text>
</a>
</g>
</g>
<!-- Node2&#45;&gt;Node28 -->
<g id="edge44" class="edge"><title>Node2&#45;&gt;Node28</title>
<path fill="none" stroke="midnightblue" d="M1008.15,-161.148C1029.32,-151.13 1058.56,-137.294 1076.88,-128.625"/>
<polygon fill="midnightblue" stroke="midnightblue" points="1006.6,-158.009 999.059,-165.45 1009.59,-164.337 1006.6,-158.009"/>
</g>
<!-- Node4 -->
<g id="node3" class="node"><title>Node4</title>
<g id="a_node3"><a xlink:href="_audio_source_8hpp.html" target="_top" xlink:title="AudioSource.hpp">
<polygon fill="none" stroke="black" points="135.687,-55.5 135.687,-73.5 228.41,-73.5 228.41,-55.5 135.687,-55.5"/>
<text text-anchor="middle" x="182.048" y="-61.5" font-family="Helvetica,sans-Serif" font-size="10.00">AudioSource.hpp</text>
</a>
</g>
</g>
<!-- Node3&#45;&gt;Node4 -->
<g id="edge2" class="edge"><title>Node3&#45;&gt;Node4</title>
<path fill="none" stroke="midnightblue" d="M375.61,-108.245C329.728,-98.1126 260.486,-82.8216 218.448,-73.5383"/>
<polygon fill="midnightblue" stroke="midnightblue" points="375.078,-111.712 385.598,-110.45 376.588,-104.876 375.078,-111.712"/>
</g>
<!-- Node6 -->
<g id="node5" class="node"><title>Node6</title>
<g id="a_node5"><a xlink:href="_audio_source_8cpp.html" target="_top" xlink:title="AudioSource.cpp">
<polygon fill="none" stroke="black" points="61.9673,-0.5 61.9673,-18.5 154.129,-18.5 154.129,-0.5 61.9673,-0.5"/>
<text text-anchor="middle" x="108.048" y="-6.5" font-family="Helvetica,sans-Serif" font-size="10.00">AudioSource.cpp</text>
</a>
</g>
</g>
<!-- Node3&#45;&gt;Node6 -->
<g id="edge6" class="edge"><title>Node3&#45;&gt;Node6</title>
<path fill="none" stroke="midnightblue" d="M371.495,-117.248C296.995,-114.373 162.677,-104.928 127.048,-74 110.711,-59.8184 108.123,-32.2201 107.9,-18.559"/>
<polygon fill="midnightblue" stroke="midnightblue" points="371.475,-120.75 381.594,-117.612 371.727,-113.754 371.475,-120.75"/>
</g>
<!-- Node7 -->
<g id="node6" class="node"><title>Node7</title>
<g id="a_node6"><a xlink:href="_engine_8cpp.html" target="_top" xlink:title="Engine.cpp">
<polygon fill="none" stroke="black" points="882.029,-0.5 882.029,-18.5 948.068,-18.5 948.068,-0.5 882.029,-0.5"/>
<text text-anchor="middle" x="915.048" y="-6.5" font-family="Helvetica,sans-Serif" font-size="10.00">Engine.cpp</text>
</a>
</g>
</g>
<!-- Node3&#45;&gt;Node7 -->
<g id="edge8" class="edge"><title>Node3&#45;&gt;Node7</title>
<path fill="none" stroke="midnightblue" d="M437.346,-102.99C453.247,-87.9294 479.609,-65.8047 507.048,-55 575.253,-28.1428 797.372,-15.7116 881.943,-11.8662"/>
<polygon fill="midnightblue" stroke="midnightblue" points="434.747,-100.636 430.034,-110.125 439.636,-105.646 434.747,-100.636"/>
</g>
<!-- Node8 -->
<g id="node7" class="node"><title>Node8</title>
<g id="a_node7"><a xlink:href="_camera_handler_8cpp.html" target="_top" xlink:title="CameraHandler.cpp">
<polygon fill="none" stroke="black" points="523.578,-55.5 523.578,-73.5 628.519,-73.5 628.519,-55.5 523.578,-55.5"/>
<text text-anchor="middle" x="576.048" y="-61.5" font-family="Helvetica,sans-Serif" font-size="10.00">CameraHandler.cpp</text>
</a>
</g>
</g>
<!-- Node3&#45;&gt;Node8 -->
<g id="edge7" class="edge"><title>Node3&#45;&gt;Node8</title>
<path fill="none" stroke="midnightblue" d="M455.249,-107.074C484.623,-96.9647 526.738,-82.4705 552.692,-73.5383"/>
<polygon fill="midnightblue" stroke="midnightblue" points="453.754,-103.887 445.438,-110.45 456.032,-110.506 453.754,-103.887"/>
</g>
<!-- Node9 -->
<g id="node8" class="node"><title>Node9</title>
<g id="a_node8"><a xlink:href="_renderer_8hpp.html" target="_top" xlink:title="Renderer.hpp">
<polygon fill="none" stroke="black" points="246.746,-55.5 246.746,-73.5 323.351,-73.5 323.351,-55.5 246.746,-55.5"/>
<text text-anchor="middle" x="285.048" y="-61.5" font-family="Helvetica,sans-Serif" font-size="10.00">Renderer.hpp</text>
</a>
</g>
</g>
<!-- Node3&#45;&gt;Node9 -->
<g id="edge9" class="edge"><title>Node3&#45;&gt;Node9</title>
<path fill="none" stroke="midnightblue" d="M391.855,-106.819C365.841,-96.7556 328.964,-82.4894 306.052,-73.6253"/>
<polygon fill="midnightblue" stroke="midnightblue" points="390.652,-110.107 401.241,-110.45 393.177,-103.578 390.652,-110.107"/>
</g>
<!-- Node11 -->
<g id="node10" class="node"><title>Node11</title>
<g id="a_node10"><a xlink:href="_light_source_8hpp.html" target="_top" xlink:title="LightSource.hpp">
<polygon fill="none" stroke="black" points="341.632,-55.5 341.632,-73.5 430.464,-73.5 430.464,-55.5 341.632,-55.5"/>
<text text-anchor="middle" x="386.048" y="-61.5" font-family="Helvetica,sans-Serif" font-size="10.00">LightSource.hpp</text>
</a>
</g>
</g>
<!-- Node3&#45;&gt;Node11 -->
<g id="edge12" class="edge"><title>Node3&#45;&gt;Node11</title>
<path fill="none" stroke="midnightblue" d="M410.608,-101.658C404.224,-92.2587 396.564,-80.9821 391.516,-73.5496"/>
<polygon fill="midnightblue" stroke="midnightblue" points="407.909,-103.913 416.423,-110.219 413.7,-99.98 407.909,-103.913"/>
</g>
<!-- Node13 -->
<g id="node12" class="node"><title>Node13</title>
<g id="a_node12"><a xlink:href="_game_object_8cpp.html" target="_top" xlink:title="GameObject.cpp">
<polygon fill="none" stroke="black" points="646.531,-55.5 646.531,-73.5 737.565,-73.5 737.565,-55.5 646.531,-55.5"/>
<text text-anchor="middle" x="692.048" y="-61.5" font-family="Helvetica,sans-Serif" font-size="10.00">GameObject.cpp</text>
</a>
</g>
</g>
<!-- Node3&#45;&gt;Node13 -->
<g id="edge15" class="edge"><title>Node3&#45;&gt;Node13</title>
<path fill="none" stroke="midnightblue" d="M472.389,-108.618C523.909,-98.5051 603.011,-82.9778 650.907,-73.5759"/>
<polygon fill="midnightblue" stroke="midnightblue" points="471.609,-105.205 462.47,-110.565 472.957,-112.074 471.609,-105.205"/>
</g>
<!-- Node14 -->
<g id="node13" class="node"><title>Node14</title>
<g id="a_node13"><a xlink:href="_rigidbody_8cpp.html" target="_top" xlink:title="Rigidbody.cpp">
<polygon fill="none" stroke="black" points="831.73,-55.5 831.73,-73.5 910.367,-73.5 910.367,-55.5 831.73,-55.5"/>
<text text-anchor="middle" x="871.048" y="-61.5" font-family="Helvetica,sans-Serif" font-size="10.00">Rigidbody.cpp</text>
</a>
</g>
</g>
<!-- Node3&#45;&gt;Node14 -->
<g id="edge16" class="edge"><title>Node3&#45;&gt;Node14</title>
<path fill="none" stroke="midnightblue" d="M472.681,-112.523C562.949,-101.868 749.85,-79.8063 831.469,-70.172"/>
<polygon fill="midnightblue" stroke="midnightblue" points="472.207,-109.055 462.686,-113.703 473.027,-116.007 472.207,-109.055"/>
</g>
<!-- Node15 -->
<g id="node14" class="node"><title>Node15</title>
<g id="a_node14"><a xlink:href="_transform_8cpp.html" target="_top" xlink:title="Transform.cpp">
<polygon fill="none" stroke="black" points="0,-55.5 0,-73.5 80.0967,-73.5 80.0967,-55.5 0,-55.5"/>
<text text-anchor="middle" x="40.0483" y="-61.5" font-family="Helvetica,sans-Serif" font-size="10.00">Transform.cpp</text>
</a>
</g>
</g>
<!-- Node3&#45;&gt;Node15 -->
<g id="edge17" class="edge"><title>Node3&#45;&gt;Node15</title>
<path fill="none" stroke="midnightblue" d="M371.321,-111.958C306.828,-103.563 192.075,-88.363 94.0483,-74 89.5411,-73.3396 84.8256,-72.628 80.1384,-71.9076"/>
<polygon fill="midnightblue" stroke="midnightblue" points="371.245,-115.478 381.613,-113.296 372.147,-108.536 371.245,-115.478"/>
</g>
<!-- Node5 -->
<g id="node4" class="node"><title>Node5</title>
<g id="a_node4"><a xlink:href="_audio_8cpp.html" target="_top" xlink:title="Audio.cpp">
<polygon fill="none" stroke="black" points="171.81,-0.5 171.81,-18.5 232.287,-18.5 232.287,-0.5 171.81,-0.5"/>
<text text-anchor="middle" x="202.048" y="-6.5" font-family="Helvetica,sans-Serif" font-size="10.00">Audio.cpp</text>
</a>
</g>
</g>
<!-- Node4&#45;&gt;Node5 -->
<g id="edge3" class="edge"><title>Node4&#45;&gt;Node5</title>
<path fill="none" stroke="midnightblue" d="M188.738,-45.7712C192.215,-36.5577 196.294,-25.7498 199.011,-18.5496"/>
<polygon fill="midnightblue" stroke="midnightblue" points="185.429,-44.627 185.173,-55.2188 191.979,-47.0984 185.429,-44.627"/>
</g>
<!-- Node4&#45;&gt;Node6 -->
<g id="edge4" class="edge"><title>Node4&#45;&gt;Node6</title>
<path fill="none" stroke="midnightblue" d="M162.489,-49.4916C148.747,-39.6491 130.842,-26.8255 119.393,-18.6253"/>
<polygon fill="midnightblue" stroke="midnightblue" points="160.641,-52.4731 170.809,-55.4504 164.717,-46.7822 160.641,-52.4731"/>
</g>
<!-- Node4&#45;&gt;Node7 -->
<g id="edge5" class="edge"><title>Node4&#45;&gt;Node7</title>
<path fill="none" stroke="midnightblue" d="M238.5,-55.0818C383.791,-40.149 766.878,-18.62 881.953,-12.3009"/>
<polygon fill="midnightblue" stroke="midnightblue" points="238.032,-51.6116 228.457,-56.1453 238.77,-58.5727 238.032,-51.6116"/>
</g>
<!-- Node9&#45;&gt;Node7 -->
<g id="edge10" class="edge"><title>Node9&#45;&gt;Node7</title>
<path fill="none" stroke="midnightblue" d="M333.595,-55.1024C458.74,-40.2072 777.964,-19.2532 881.879,-12.6019"/>
<polygon fill="midnightblue" stroke="midnightblue" points="333.007,-51.6483 323.51,-56.3438 333.862,-58.5958 333.007,-51.6483"/>
</g>
<!-- Node10 -->
<g id="node9" class="node"><title>Node10</title>
<g id="a_node9"><a xlink:href="_renderer_8cpp.html" target="_top" xlink:title="Renderer.cpp">
<polygon fill="none" stroke="black" points="354.026,-0.5 354.026,-18.5 430.07,-18.5 430.07,-0.5 354.026,-0.5"/>
<text text-anchor="middle" x="392.048" y="-6.5" font-family="Helvetica,sans-Serif" font-size="10.00">Renderer.cpp</text>
</a>
</g>
</g>
<!-- Node9&#45;&gt;Node10 -->
<g id="edge11" class="edge"><title>Node9&#45;&gt;Node10</title>
<path fill="none" stroke="midnightblue" d="M310.533,-50.8765C330.713,-40.8808 358.301,-27.216 375.644,-18.6253"/>
<polygon fill="midnightblue" stroke="midnightblue" points="308.707,-47.8754 301.299,-55.4504 311.814,-54.1481 308.707,-47.8754"/>
</g>
<!-- Node11&#45;&gt;Node7 -->
<g id="edge13" class="edge"><title>Node11&#45;&gt;Node7</title>
<path fill="none" stroke="midnightblue" d="M440.759,-55.4039C441.865,-55.2656 442.962,-55.1308 444.048,-55 607.955,-35.2598 804.835,-19.085 881.866,-13.046"/>
<polygon fill="midnightblue" stroke="midnightblue" points="440.127,-51.9568 430.666,-56.7256 441.035,-58.8975 440.127,-51.9568"/>
</g>
<!-- Node12 -->
<g id="node11" class="node"><title>Node12</title>
<g id="a_node11"><a xlink:href="_light_source_8cpp.html" target="_top" xlink:title="LightSource.cpp">
<polygon fill="none" stroke="black" points="655.913,-0.5 655.913,-18.5 744.184,-18.5 744.184,-0.5 655.913,-0.5"/>
<text text-anchor="middle" x="700.048" y="-6.5" font-family="Helvetica,sans-Serif" font-size="10.00">LightSource.cpp</text>
</a>
</g>
</g>
<!-- Node11&#45;&gt;Node12 -->
<g id="edge14" class="edge"><title>Node11&#45;&gt;Node12</title>
<path fill="none" stroke="midnightblue" d="M440.919,-54.2385C501.969,-43.9338 599.418,-27.4854 655.801,-17.9686"/>
<polygon fill="midnightblue" stroke="midnightblue" points="439.981,-50.8471 430.703,-55.9627 441.146,-57.7494 439.981,-50.8471"/>
</g>
<!-- Node16&#45;&gt;Node4 -->
<g id="edge19" class="edge"><title>Node16&#45;&gt;Node4</title>
<path fill="none" stroke="midnightblue" d="M814.598,-116.058C703.805,-110.928 450.197,-97.5191 238.048,-74 234.921,-73.6533 231.7,-73.2604 228.458,-72.8384"/>
<polygon fill="midnightblue" stroke="midnightblue" points="814.718,-119.567 824.868,-116.529 815.038,-112.574 814.718,-119.567"/>
</g>
<!-- Node16&#45;&gt;Node7 -->
<g id="edge27" class="edge"><title>Node16&#45;&gt;Node7</title>
<path fill="none" stroke="midnightblue" d="M893.288,-104.276C903.145,-96.6265 913.703,-86.2435 919.048,-74 927.092,-55.5751 921.677,-31.2532 917.874,-18.7316"/>
<polygon fill="midnightblue" stroke="midnightblue" points="891.028,-101.59 884.956,-110.272 895.117,-107.272 891.028,-101.59"/>
</g>
<!-- Node16&#45;&gt;Node8 -->
<g id="edge20" class="edge"><title>Node16&#45;&gt;Node8</title>
<path fill="none" stroke="midnightblue" d="M816.087,-108.626C759.722,-98.499 673.112,-82.9386 620.79,-73.5383"/>
<polygon fill="midnightblue" stroke="midnightblue" points="815.783,-112.127 826.244,-110.45 817.021,-105.237 815.783,-112.127"/>
</g>
<!-- Node16&#45;&gt;Node10 -->
<g id="edge31" class="edge"><title>Node16&#45;&gt;Node10</title>
<path fill="none" stroke="midnightblue" d="M844.595,-106.145C826.307,-97.4625 801.504,-85.4059 780.048,-74 765.105,-66.0559 763.094,-60.3807 747.048,-55 636.186,-17.8236 496.406,-11.2596 430.185,-10.3891"/>
<polygon fill="midnightblue" stroke="midnightblue" points="843.23,-109.371 853.767,-110.476 846.219,-103.041 843.23,-109.371"/>
</g>
<!-- Node16&#45;&gt;Node12 -->
<g id="edge29" class="edge"><title>Node16&#45;&gt;Node12</title>
<path fill="none" stroke="midnightblue" d="M851.551,-104.031C833.385,-90.7591 805.37,-70.8203 780.048,-55 758.213,-41.3578 731.977,-27.1614 715.654,-18.5753"/>
<polygon fill="midnightblue" stroke="midnightblue" points="849.957,-107.203 860.087,-110.307 854.103,-101.563 849.957,-107.203"/>
</g>
<!-- Node16&#45;&gt;Node13 -->
<g id="edge28" class="edge"><title>Node16&#45;&gt;Node13</title>
<path fill="none" stroke="midnightblue" d="M834.234,-107.6C800.032,-97.4728 749.891,-82.6265 719.197,-73.5383"/>
<polygon fill="midnightblue" stroke="midnightblue" points="833.28,-110.967 843.862,-110.45 835.267,-104.255 833.28,-110.967"/>
</g>
<!-- Node16&#45;&gt;Node14 -->
<g id="edge32" class="edge"><title>Node16&#45;&gt;Node14</title>
<path fill="none" stroke="midnightblue" d="M871.048,-100.175C871.048,-91.0945 871.048,-80.5949 871.048,-73.5496"/>
<polygon fill="midnightblue" stroke="midnightblue" points="867.548,-100.219 871.048,-110.219 874.548,-100.219 867.548,-100.219"/>
</g>
<!-- Node17 -->
<g id="node16" class="node"><title>Node17</title>
<g id="a_node16"><a xlink:href="_scene_8hpp.html" target="_top" xlink:title="Scene.hpp">
<polygon fill="none" stroke="black" points="966.14,-55.5 966.14,-73.5 1029.96,-73.5 1029.96,-55.5 966.14,-55.5"/>
<text text-anchor="middle" x="998.048" y="-61.5" font-family="Helvetica,sans-Serif" font-size="10.00">Scene.hpp</text>
</a>
</g>
</g>
<!-- Node16&#45;&gt;Node17 -->
<g id="edge21" class="edge"><title>Node16&#45;&gt;Node17</title>
<path fill="none" stroke="midnightblue" d="M899.678,-106.552C923.754,-96.5046 957.525,-82.4113 978.578,-73.6253"/>
<polygon fill="midnightblue" stroke="midnightblue" points="898.218,-103.369 890.337,-110.45 900.914,-109.829 898.218,-103.369"/>
</g>
<!-- Node19 -->
<g id="node18" class="node"><title>Node19</title>
<g id="a_node18"><a xlink:href="_scene_parser_8hpp.html" target="_top" xlink:title="SceneParser.hpp">
<polygon fill="none" stroke="black" points="1047.69,-55.5 1047.69,-73.5 1140.41,-73.5 1140.41,-55.5 1047.69,-55.5"/>
<text text-anchor="middle" x="1094.05" y="-61.5" font-family="Helvetica,sans-Serif" font-size="10.00">SceneParser.hpp</text>
</a>
</g>
</g>
<!-- Node16&#45;&gt;Node19 -->
<g id="edge24" class="edge"><title>Node16&#45;&gt;Node19</title>
<path fill="none" stroke="midnightblue" d="M914.736,-108.117C957.37,-97.9842 1021.33,-82.7826 1060.23,-73.5383"/>
<polygon fill="midnightblue" stroke="midnightblue" points="913.837,-104.733 904.917,-110.45 915.456,-111.543 913.837,-104.733"/>
</g>
<!-- Node21 -->
<g id="node20" class="node"><title>Node21</title>
<g id="a_node20"><a xlink:href="_physics_manager_8cpp.html" target="_top" xlink:title="PhysicsManager.cpp">
<polygon fill="none" stroke="black" points="1157.91,-55.5 1157.91,-73.5 1266.19,-73.5 1266.19,-55.5 1157.91,-55.5"/>
<text text-anchor="middle" x="1212.05" y="-61.5" font-family="Helvetica,sans-Serif" font-size="10.00">PhysicsManager.cpp</text>
</a>
</g>
</g>
<!-- Node16&#45;&gt;Node21 -->
<g id="edge30" class="edge"><title>Node16&#45;&gt;Node21</title>
<path fill="none" stroke="midnightblue" d="M927.066,-109.793C991.826,-99.7281 1097.54,-83.2971 1160.39,-73.5286"/>
<polygon fill="midnightblue" stroke="midnightblue" points="926.381,-106.358 917.037,-111.352 927.456,-113.275 926.381,-106.358"/>
</g>
<!-- Node17&#45;&gt;Node7 -->
<g id="edge22" class="edge"><title>Node17&#45;&gt;Node7</title>
<path fill="none" stroke="midnightblue" d="M976.986,-50.0507C961.465,-40.1393 940.859,-26.9817 927.773,-18.6253"/>
<polygon fill="midnightblue" stroke="midnightblue" points="975.13,-53.0184 985.442,-55.4504 978.898,-47.1186 975.13,-53.0184"/>
</g>
<!-- Node18 -->
<g id="node17" class="node"><title>Node18</title>
<g id="a_node17"><a xlink:href="_scene_8cpp.html" target="_top" xlink:title="Scene.cpp">
<polygon fill="none" stroke="black" points="966.42,-0.5 966.42,-18.5 1029.68,-18.5 1029.68,-0.5 966.42,-0.5"/>
<text text-anchor="middle" x="998.048" y="-6.5" font-family="Helvetica,sans-Serif" font-size="10.00">Scene.cpp</text>
</a>
</g>
</g>
<!-- Node17&#45;&gt;Node18 -->
<g id="edge23" class="edge"><title>Node17&#45;&gt;Node18</title>
<path fill="none" stroke="midnightblue" d="M998.048,-45.1746C998.048,-36.0945 998.048,-25.5949 998.048,-18.5496"/>
<polygon fill="midnightblue" stroke="midnightblue" points="994.548,-45.2187 998.048,-55.2188 1001.55,-45.2188 994.548,-45.2187"/>
</g>
<!-- Node19&#45;&gt;Node7 -->
<g id="edge25" class="edge"><title>Node19&#45;&gt;Node7</title>
<path fill="none" stroke="midnightblue" d="M1057.23,-52.5996C1023.03,-42.4728 972.891,-27.6265 942.197,-18.5383"/>
<polygon fill="midnightblue" stroke="midnightblue" points="1056.28,-55.9673 1066.86,-55.4504 1058.27,-49.2553 1056.28,-55.9673"/>
</g>
<!-- Node20 -->
<g id="node19" class="node"><title>Node20</title>
<g id="a_node19"><a xlink:href="_scene_parser_8cpp.html" target="_top" xlink:title="SceneParser.cpp">
<polygon fill="none" stroke="black" points="1047.97,-0.5 1047.97,-18.5 1140.13,-18.5 1140.13,-0.5 1047.97,-0.5"/>
<text text-anchor="middle" x="1094.05" y="-6.5" font-family="Helvetica,sans-Serif" font-size="10.00">SceneParser.cpp</text>
</a>
</g>
</g>
<!-- Node19&#45;&gt;Node20 -->
<g id="edge26" class="edge"><title>Node19&#45;&gt;Node20</title>
<path fill="none" stroke="midnightblue" d="M1094.05,-45.1746C1094.05,-36.0945 1094.05,-25.5949 1094.05,-18.5496"/>
<polygon fill="midnightblue" stroke="midnightblue" points="1090.55,-45.2187 1094.05,-55.2188 1097.55,-45.2188 1090.55,-45.2187"/>
</g>
<!-- Node22&#45;&gt;Node7 -->
<g id="edge35" class="edge"><title>Node22&#45;&gt;Node7</title>
<path fill="none" stroke="midnightblue" d="M549.389,-105.837C526.264,-93.1976 498.849,-73.1016 515.048,-55 527.265,-41.3486 787.987,-20.194 881.795,-12.9958"/>
<polygon fill="midnightblue" stroke="midnightblue" points="547.774,-108.942 558.26,-110.455 551.006,-102.733 547.774,-108.942"/>
</g>
<!-- Node22&#45;&gt;Node8 -->
<g id="edge34" class="edge"><title>Node22&#45;&gt;Node8</title>
<path fill="none" stroke="midnightblue" d="M576.048,-100.175C576.048,-91.0945 576.048,-80.5949 576.048,-73.5496"/>
<polygon fill="midnightblue" stroke="midnightblue" points="572.548,-100.219 576.048,-110.219 579.548,-100.219 572.548,-100.219"/>
</g>
<!-- Node24&#45;&gt;Node7 -->
<g id="edge38" class="edge"><title>Node24&#45;&gt;Node7</title>
<path fill="none" stroke="midnightblue" d="M1342.13,-109.177C1378.07,-101.349 1422.02,-89.0445 1433.05,-74 1438.04,-67.1893 1438.79,-61.1922 1433.05,-55 1396.99,-16.1066 1009.59,-26.2745 957.048,-19 954.248,-18.6123 951.354,-18.1524 948.455,-17.6502"/>
<polygon fill="midnightblue" stroke="midnightblue" points="1341.3,-105.774 1332.24,-111.264 1342.75,-112.623 1341.3,-105.774"/>
</g>
<!-- Node24&#45;&gt;Node21 -->
<g id="edge42" class="edge"><title>Node24&#45;&gt;Node21</title>
<path fill="none" stroke="midnightblue" d="M1271.33,-104.772C1256.42,-94.8937 1236.81,-81.9036 1224.31,-73.6253"/>
<polygon fill="midnightblue" stroke="midnightblue" points="1269.63,-107.845 1279.9,-110.45 1273.49,-102.01 1269.63,-107.845"/>
</g>
<!-- Node25 -->
<g id="node24" class="node"><title>Node25</title>
<g id="a_node24"><a xlink:href="_particle_system_8hpp.html" target="_top" xlink:title="ParticleSystem.hpp">
<polygon fill="none" stroke="black" points="1321.97,-55.5 1321.97,-73.5 1424.12,-73.5 1424.12,-55.5 1321.97,-55.5"/>
<text text-anchor="middle" x="1373.05" y="-61.5" font-family="Helvetica,sans-Serif" font-size="10.00">ParticleSystem.hpp</text>
</a>
</g>
</g>
<!-- Node24&#45;&gt;Node25 -->
<g id="edge39" class="edge"><title>Node24&#45;&gt;Node25</title>
<path fill="none" stroke="midnightblue" d="M1313.03,-104.772C1328.13,-94.8937 1347.98,-81.9036 1360.63,-73.6253"/>
<polygon fill="midnightblue" stroke="midnightblue" points="1310.8,-102.046 1304.35,-110.45 1314.63,-107.904 1310.8,-102.046"/>
</g>
<!-- Node27 -->
<g id="node26" class="node"><title>Node27</title>
<g id="a_node26"><a xlink:href="_scriptable_8cpp.html" target="_top" xlink:title="Scriptable.cpp">
<polygon fill="none" stroke="black" points="1480.36,-55.5 1480.36,-73.5 1559.73,-73.5 1559.73,-55.5 1480.36,-55.5"/>
<text text-anchor="middle" x="1520.05" y="-61.5" font-family="Helvetica,sans-Serif" font-size="10.00">Scriptable.cpp</text>
</a>
</g>
</g>
<!-- Node24&#45;&gt;Node27 -->
<g id="edge43" class="edge"><title>Node24&#45;&gt;Node27</title>
<path fill="none" stroke="midnightblue" d="M1336.44,-108.181C1380.03,-98.0484 1445.62,-82.8021 1485.47,-73.5383"/>
<polygon fill="midnightblue" stroke="midnightblue" points="1335.62,-104.777 1326.68,-110.45 1337.21,-111.595 1335.62,-104.777"/>
</g>
<!-- Node25&#45;&gt;Node7 -->
<g id="edge40" class="edge"><title>Node25&#45;&gt;Node7</title>
<path fill="none" stroke="midnightblue" d="M1311.9,-55.4546C1310.61,-55.3001 1309.32,-55.1483 1308.05,-55 1152.29,-36.8313 1112.08,-42.5812 957.048,-19 954.253,-18.5749 951.363,-18.0887 948.467,-17.5689"/>
<polygon fill="midnightblue" stroke="midnightblue" points="1311.62,-58.9461 1321.97,-56.6842 1312.47,-51.9977 1311.62,-58.9461"/>
</g>
<!-- Node26 -->
<g id="node25" class="node"><title>Node26</title>
<g id="a_node25"><a xlink:href="_particle_system_8cpp.html" target="_top" xlink:title="ParticleSystem.cpp">
<polygon fill="none" stroke="black" points="1322.26,-0.5 1322.26,-18.5 1423.84,-18.5 1423.84,-0.5 1322.26,-0.5"/>
<text text-anchor="middle" x="1373.05" y="-6.5" font-family="Helvetica,sans-Serif" font-size="10.00">ParticleSystem.cpp</text>
</a>
</g>
</g>
<!-- Node25&#45;&gt;Node26 -->
<g id="edge41" class="edge"><title>Node25&#45;&gt;Node26</title>
<path fill="none" stroke="midnightblue" d="M1373.05,-45.1746C1373.05,-36.0945 1373.05,-25.5949 1373.05,-18.5496"/>
<polygon fill="midnightblue" stroke="midnightblue" points="1369.55,-45.2187 1373.05,-55.2188 1376.55,-45.2188 1369.55,-45.2187"/>
</g>
<!-- Node28&#45;&gt;Node7 -->
<g id="edge47" class="edge"><title>Node28&#45;&gt;Node7</title>
<path fill="none" stroke="midnightblue" d="M1144.18,-116.783C1210.53,-112.779 1314.74,-99.4398 1275.05,-55 1227.67,-1.95887 1027.3,-30.0639 957.048,-19 954.256,-18.5602 951.367,-18.0637 948.472,-17.537"/>
<polygon fill="midnightblue" stroke="midnightblue" points="1143.68,-113.305 1133.88,-117.349 1144.06,-120.294 1143.68,-113.305"/>
</g>
<!-- Node28&#45;&gt;Node14 -->
<g id="edge48" class="edge"><title>Node28&#45;&gt;Node14</title>
<path fill="none" stroke="midnightblue" d="M1050.36,-108.117C1007.73,-97.9842 943.766,-82.7826 904.87,-73.5383"/>
<polygon fill="midnightblue" stroke="midnightblue" points="1049.64,-111.543 1060.18,-110.45 1051.26,-104.733 1049.64,-111.543"/>
</g>
<!-- Node28&#45;&gt;Node19 -->
<g id="edge45" class="edge"><title>Node28&#45;&gt;Node19</title>
<path fill="none" stroke="midnightblue" d="M1094.05,-100.175C1094.05,-91.0945 1094.05,-80.5949 1094.05,-73.5496"/>
<polygon fill="midnightblue" stroke="midnightblue" points="1090.55,-100.219 1094.05,-110.219 1097.55,-100.219 1090.55,-100.219"/>
</g>
<!-- Node28&#45;&gt;Node25 -->
<g id="edge46" class="edge"><title>Node28&#45;&gt;Node25</title>
<path fill="none" stroke="midnightblue" d="M1143.62,-109.083C1196.86,-98.9704 1280.54,-83.0739 1330.77,-73.5317"/>
<polygon fill="midnightblue" stroke="midnightblue" points="1142.9,-105.658 1133.73,-110.963 1144.2,-112.535 1142.9,-105.658"/>
</g>
</g>
</svg>
