<?xml version="1.0" encoding="UTF-8" standalone="no"?>
<!DOCTYPE svg PUBLIC "-//W3C//DTD SVG 1.1//EN"
 "http://www.w3.org/Graphics/SVG/1.1/DTD/svg11.dtd">
<!-- Generated by graphviz version 2.38.0 (20140413.2041)
 -->
<!-- Title: Component.hpp Pages: 1 -->
<svg width="1566pt" height="192pt"
 viewBox="0.00 0.00 1566.15 192.00" xmlns="http://www.w3.org/2000/svg" xmlns:xlink="http://www.w3.org/1999/xlink">
<g id="graph0" class="graph" transform="scale(1 1) rotate(0) translate(4 188)">
<title>Component.hpp</title>
<!-- Node2 -->
<g id="node1" class="node"><title>Node2</title>
<polygon fill="#bfbfbf" stroke="black" points="993.5,-165.5 993.5,-183.5 1080.66,-183.5 1080.66,-165.5 993.5,-165.5"/>
<text text-anchor="middle" x="1037.08" y="-171.5" font-family="Helvetica,sans-Serif" font-size="10.00">Component.hpp</text>
</g>
<!-- Node3 -->
<g id="node2" class="node"><title>Node3</title>
<g id="a_node2"><a xlink:href="_transform_8hpp.html" target="_top" xlink:title="Transform.hpp">
<polygon fill="none" stroke="black" points="381.752,-110.5 381.752,-128.5 462.41,-128.5 462.41,-110.5 381.752,-110.5"/>
<text text-anchor="middle" x="422.081" y="-116.5" font-family="Helvetica,sans-Serif" font-size="10.00">Transform.hpp</text>
</a>
</g>
</g>
<!-- Node2&#45;&gt;Node3 -->
<g id="edge1" class="edge"><title>Node2&#45;&gt;Node3</title>
<path fill="none" stroke="midnightblue" d="M983.194,-168.856C862.024,-158.414 570.278,-133.271 462.76,-124.006"/>
<polygon fill="midnightblue" stroke="midnightblue" points="983.081,-172.359 993.345,-169.731 983.682,-165.385 983.081,-172.359"/>
</g>
<!-- Node16 -->
<g id="node15" class="node"><title>Node16</title>
<g id="a_node15"><a xlink:href="_game_object_8hpp.html" target="_top" xlink:title="GameObject.hpp">
<polygon fill="none" stroke="black" points="715.283,-110.5 715.283,-128.5 806.879,-128.5 806.879,-110.5 715.283,-110.5"/>
<text text-anchor="middle" x="761.081" y="-116.5" font-family="Helvetica,sans-Serif" font-size="10.00">GameObject.hpp</text>
</a>
</g>
</g>
<!-- Node2&#45;&gt;Node16 -->
<g id="edge18" class="edge"><title>Node2&#45;&gt;Node16</title>
<path fill="none" stroke="midnightblue" d="M985.331,-163.562C932.589,-153.434 851.792,-137.919 802.941,-128.538"/>
<polygon fill="midnightblue" stroke="midnightblue" points="984.682,-167.002 995.163,-165.45 986.002,-160.127 984.682,-167.002"/>
</g>
<!-- Node22 -->
<g id="node21" class="node"><title>Node22</title>
<g id="a_node21"><a xlink:href="_camera_handler_8hpp.html" target="_top" xlink:title="CameraHandler.hpp">
<polygon fill="none" stroke="black" points="929.33,-110.5 929.33,-128.5 1034.83,-128.5 1034.83,-110.5 929.33,-110.5"/>
<text text-anchor="middle" x="982.081" y="-116.5" font-family="Helvetica,sans-Serif" font-size="10.00">CameraHandler.hpp</text>
</a>
</g>
</g>
<!-- Node2&#45;&gt;Node22 -->
<g id="edge33" class="edge"><title>Node2&#45;&gt;Node22</title>
<path fill="none" stroke="midnightblue" d="M1021.11,-158.11C1011.08,-148.444 998.549,-136.369 990.434,-128.55"/>
<polygon fill="midnightblue" stroke="midnightblue" points="1018.86,-160.8 1028.49,-165.219 1023.72,-155.76 1018.86,-160.8"/>
</g>
<!-- Node23 -->
<g id="node22" class="node"><title>Node23</title>
<g id="a_node22"><a xlink:href="_component_8cpp.html" target="_top" xlink:title="Component.cpp">
<polygon fill="none" stroke="black" points="1346.78,-110.5 1346.78,-128.5 1433.38,-128.5 1433.38,-110.5 1346.78,-110.5"/>
<text text-anchor="middle" x="1390.08" y="-116.5" font-family="Helvetica,sans-Serif" font-size="10.00">Component.cpp</text>
</a>
</g>
</g>
<!-- Node2&#45;&gt;Node23 -->
<g id="edge36" class="edge"><title>Node2&#45;&gt;Node23</title>
<path fill="none" stroke="midnightblue" d="M1090.77,-165.815C1151,-157.134 1251.61,-142.459 1338.08,-129 1340.88,-128.564 1343.77,-128.109 1346.68,-127.646"/>
<polygon fill="midnightblue" stroke="midnightblue" points="1090.13,-162.371 1080.73,-167.26 1091.13,-169.299 1090.13,-162.371"/>
</g>
<!-- Node24 -->
<g id="node23" class="node"><title>Node24</title>
<g id="a_node23"><a xlink:href="_scriptable_8hpp.html" target="_top" xlink:title="Scriptable.hpp">
<polygon fill="none" stroke="black" points="1249.12,-110.5 1249.12,-128.5 1329.05,-128.5 1329.05,-110.5 1249.12,-110.5"/>
<text text-anchor="middle" x="1289.08" y="-116.5" font-family="Helvetica,sans-Serif" font-size="10.00">Scriptable.hpp</text>
</a>
</g>
</g>
<!-- Node2&#45;&gt;Node24 -->
<g id="edge37" class="edge"><title>Node2&#45;&gt;Node24</title>
<path fill="none" stroke="midnightblue" d="M1085.24,-163.372C1133.41,-153.241 1206.54,-137.861 1250.86,-128.538"/>
<polygon fill="midnightblue" stroke="midnightblue" points="1084.42,-159.967 1075.35,-165.45 1085.86,-166.817 1084.42,-159.967"/>
</g>
<!-- Node28 -->
<g id="node27" class="node"><title>Node28</title>
<g id="a_node27"><a xlink:href="_rigidbody_8hpp.html" target="_top" xlink:title="Rigidbody.hpp">
<polygon fill="none" stroke="black" points="1052.48,-110.5 1052.48,-128.5 1131.68,-128.5 1131.68,-110.5 1052.48,-110.5"/>
<text text-anchor="middle" x="1092.08" y="-116.5" font-family="Helvetica,sans-Serif" font-size="10.00">Rigidbody.hpp</text>
</a>
</g>
</g>
<!-- Node2&#45;&gt;Node28 -->
<g id="edge44" class="edge"><title>Node2&#45;&gt;Node28</title>
<path fill="none" stroke="midnightblue" d="M1053.05,-158.11C1063.08,-148.444 1075.61,-136.369 1083.73,-128.55"/>
<polygon fill="midnightblue" stroke="midnightblue" points="1050.45,-155.76 1045.67,-165.219 1055.3,-160.8 1050.45,-155.76"/>
</g>
<!-- Node4 -->
<g id="node3" class="node"><title>Node4</title>
<g id="a_node3"><a xlink:href="_audio_source_8hpp.html" target="_top" xlink:title="AudioSource.hpp">
<polygon fill="none" stroke="black" points="132.719,-55.5 132.719,-73.5 225.443,-73.5 225.443,-55.5 132.719,-55.5"/>
<text text-anchor="middle" x="179.081" y="-61.5" font-family="Helvetica,sans-Serif" font-size="10.00">AudioSource.hpp</text>
</a>
</g>
</g>
<!-- Node3&#45;&gt;Node4 -->
<g id="edge2" class="edge"><title>Node3&#45;&gt;Node4</title>
<path fill="none" stroke="midnightblue" d="M375.355,-108.309C328.901,-98.1769 258.588,-82.8411 215.936,-73.5383"/>
<polygon fill="midnightblue" stroke="midnightblue" points="374.658,-111.739 385.175,-110.45 376.15,-104.9 374.658,-111.739"/>
</g>
<!-- Node6 -->
<g id="node5" class="node"><title>Node6</title>
<g id="a_node5"><a xlink:href="_audio_source_8cpp.html" target="_top" xlink:title="AudioSource.cpp">
<polygon fill="none" stroke="black" points="0,-0.5 0,-18.5 92.1621,-18.5 92.1621,-0.5 0,-0.5"/>
<text text-anchor="middle" x="46.0811" y="-6.5" font-family="Helvetica,sans-Serif" font-size="10.00">AudioSource.cpp</text>
</a>
</g>
</g>
<!-- Node3&#45;&gt;Node6 -->
<g id="edge6" class="edge"><title>Node3&#45;&gt;Node6</title>
<path fill="none" stroke="midnightblue" d="M371.522,-116.512C269.927,-111.997 48.7314,-99.3382 26.0811,-74 11.7534,-57.9721 28.8035,-31.7136 39.199,-18.5518"/>
<polygon fill="midnightblue" stroke="midnightblue" points="371.411,-120.011 381.554,-116.949 371.715,-113.017 371.411,-120.011"/>
</g>
<!-- Node7 -->
<g id="node6" class="node"><title>Node7</title>
<g id="a_node6"><a xlink:href="_engine_8cpp.html" target="_top" xlink:title="Engine.cpp">
<polygon fill="none" stroke="black" points="739.062,-0.5 739.062,-18.5 805.101,-18.5 805.101,-0.5 739.062,-0.5"/>
<text text-anchor="middle" x="772.081" y="-6.5" font-family="Helvetica,sans-Serif" font-size="10.00">Engine.cpp</text>
</a>
</g>
</g>
<!-- Node3&#45;&gt;Node7 -->
<g id="edge8" class="edge"><title>Node3&#45;&gt;Node7</title>
<path fill="none" stroke="midnightblue" d="M431.121,-101.476C439.979,-86.6079 454.926,-65.7692 474.081,-55 574.235,1.30805 616.834,-38.4042 730.081,-19 732.867,-18.5226 735.752,-17.9996 738.644,-17.4551"/>
<polygon fill="midnightblue" stroke="midnightblue" points="428.055,-99.7874 426.196,-110.218 434.154,-103.223 428.055,-99.7874"/>
</g>
<!-- Node8 -->
<g id="node7" class="node"><title>Node8</title>
<g id="a_node7"><a xlink:href="_camera_handler_8cpp.html" target="_top" xlink:title="CameraHandler.cpp">
<polygon fill="none" stroke="black" points="788.611,-55.5 788.611,-73.5 893.551,-73.5 893.551,-55.5 788.611,-55.5"/>
<text text-anchor="middle" x="841.081" y="-61.5" font-family="Helvetica,sans-Serif" font-size="10.00">CameraHandler.cpp</text>
</a>
</g>
</g>
<!-- Node3&#45;&gt;Node8 -->
<g id="edge7" class="edge"><title>Node3&#45;&gt;Node8</title>
<path fill="none" stroke="midnightblue" d="M472.949,-112.066C552.951,-101.946 707.393,-82.4105 788.464,-72.1556"/>
<polygon fill="midnightblue" stroke="midnightblue" points="472.119,-108.643 462.637,-113.37 472.997,-115.587 472.119,-108.643"/>
</g>
<!-- Node9 -->
<g id="node8" class="node"><title>Node9</title>
<g id="a_node8"><a xlink:href="_renderer_8hpp.html" target="_top" xlink:title="Renderer.hpp">
<polygon fill="none" stroke="black" points="350.778,-55.5 350.778,-73.5 427.384,-73.5 427.384,-55.5 350.778,-55.5"/>
<text text-anchor="middle" x="389.081" y="-61.5" font-family="Helvetica,sans-Serif" font-size="10.00">Renderer.hpp</text>
</a>
</g>
</g>
<!-- Node3&#45;&gt;Node9 -->
<g id="edge9" class="edge"><title>Node3&#45;&gt;Node9</title>
<path fill="none" stroke="midnightblue" d="M411.594,-101.658C405.742,-92.2587 398.721,-80.9821 394.093,-73.5496"/>
<polygon fill="midnightblue" stroke="midnightblue" points="408.668,-103.58 416.925,-110.219 414.61,-99.8798 408.668,-103.58"/>
</g>
<!-- Node11 -->
<g id="node10" class="node"><title>Node11</title>
<g id="a_node10"><a xlink:href="_light_source_8hpp.html" target="_top" xlink:title="LightSource.hpp">
<polygon fill="none" stroke="black" points="243.665,-55.5 243.665,-73.5 332.497,-73.5 332.497,-55.5 243.665,-55.5"/>
<text text-anchor="middle" x="288.081" y="-61.5" font-family="Helvetica,sans-Serif" font-size="10.00">LightSource.hpp</text>
</a>
</g>
</g>
<!-- Node3&#45;&gt;Node11 -->
<g id="edge12" class="edge"><title>Node3&#45;&gt;Node11</title>
<path fill="none" stroke="midnightblue" d="M392.212,-106.686C366.787,-96.63 330.937,-82.4503 308.624,-73.6253"/>
<polygon fill="midnightblue" stroke="midnightblue" points="391.143,-110.027 401.729,-110.45 393.718,-103.518 391.143,-110.027"/>
</g>
<!-- Node13 -->
<g id="node12" class="node"><title>Node13</title>
<g id="a_node12"><a xlink:href="_game_object_8cpp.html" target="_top" xlink:title="GameObject.cpp">
<polygon fill="none" stroke="black" points="483.564,-55.5 483.564,-73.5 574.598,-73.5 574.598,-55.5 483.564,-55.5"/>
<text text-anchor="middle" x="529.081" y="-61.5" font-family="Helvetica,sans-Serif" font-size="10.00">GameObject.cpp</text>
</a>
</g>
</g>
<!-- Node3&#45;&gt;Node13 -->
<g id="edge15" class="edge"><title>Node3&#45;&gt;Node13</title>
<path fill="none" stroke="midnightblue" d="M447.566,-105.877C467.746,-95.8808 495.334,-82.216 512.677,-73.6253"/>
<polygon fill="midnightblue" stroke="midnightblue" points="445.739,-102.875 438.332,-110.45 448.847,-109.148 445.739,-102.875"/>
</g>
<!-- Node14 -->
<g id="node13" class="node"><title>Node14</title>
<g id="a_node13"><a xlink:href="_rigidbody_8cpp.html" target="_top" xlink:title="Rigidbody.cpp">
<polygon fill="none" stroke="black" points="911.763,-55.5 911.763,-73.5 990.399,-73.5 990.399,-55.5 911.763,-55.5"/>
<text text-anchor="middle" x="951.081" y="-61.5" font-family="Helvetica,sans-Serif" font-size="10.00">Rigidbody.cpp</text>
</a>
</g>
</g>
<!-- Node3&#45;&gt;Node14 -->
<g id="edge16" class="edge"><title>Node3&#45;&gt;Node14</title>
<path fill="none" stroke="midnightblue" d="M472.868,-115.122C560.626,-108.988 746.227,-94.7093 902.081,-74 905.162,-73.5906 908.346,-73.1282 911.542,-72.6359"/>
<polygon fill="midnightblue" stroke="midnightblue" points="472.394,-111.646 462.66,-115.83 472.878,-118.63 472.394,-111.646"/>
</g>
<!-- Node15 -->
<g id="node14" class="node"><title>Node15</title>
<g id="a_node14"><a xlink:href="_transform_8cpp.html" target="_top" xlink:title="Transform.cpp">
<polygon fill="none" stroke="black" points="35.0327,-55.5 35.0327,-73.5 115.129,-73.5 115.129,-55.5 35.0327,-55.5"/>
<text text-anchor="middle" x="75.0811" y="-61.5" font-family="Helvetica,sans-Serif" font-size="10.00">Transform.cpp</text>
</a>
</g>
</g>
<!-- Node3&#45;&gt;Node15 -->
<g id="edge17" class="edge"><title>Node3&#45;&gt;Node15</title>
<path fill="none" stroke="midnightblue" d="M371.319,-111.291C311.966,-102.776 210.797,-87.9938 124.081,-74 121.183,-73.5323 118.19,-73.0389 115.18,-72.5349"/>
<polygon fill="midnightblue" stroke="midnightblue" points="371.151,-114.802 381.546,-112.755 372.143,-107.873 371.151,-114.802"/>
</g>
<!-- Node5 -->
<g id="node4" class="node"><title>Node5</title>
<g id="a_node4"><a xlink:href="_audio_8cpp.html" target="_top" xlink:title="Audio.cpp">
<polygon fill="none" stroke="black" points="148.842,-0.5 148.842,-18.5 209.32,-18.5 209.32,-0.5 148.842,-0.5"/>
<text text-anchor="middle" x="179.081" y="-6.5" font-family="Helvetica,sans-Serif" font-size="10.00">Audio.cpp</text>
</a>
</g>
</g>
<!-- Node4&#45;&gt;Node5 -->
<g id="edge3" class="edge"><title>Node4&#45;&gt;Node5</title>
<path fill="none" stroke="midnightblue" d="M179.081,-45.1746C179.081,-36.0945 179.081,-25.5949 179.081,-18.5496"/>
<polygon fill="midnightblue" stroke="midnightblue" points="175.581,-45.2187 179.081,-55.2188 182.581,-45.2188 175.581,-45.2187"/>
</g>
<!-- Node4&#45;&gt;Node6 -->
<g id="edge4" class="edge"><title>Node4&#45;&gt;Node6</title>
<path fill="none" stroke="midnightblue" d="M149.435,-51.686C124.2,-41.63 88.6168,-27.4503 66.471,-18.6253"/>
<polygon fill="midnightblue" stroke="midnightblue" points="148.296,-54.9999 158.881,-55.4504 150.887,-48.4972 148.296,-54.9999"/>
</g>
<!-- Node4&#45;&gt;Node7 -->
<g id="edge5" class="edge"><title>Node4&#45;&gt;Node7</title>
<path fill="none" stroke="midnightblue" d="M235.437,-55.0673C456.001,-30.9622 514.742,-48.4991 730.081,-19 732.882,-18.6163 735.777,-18.1592 738.676,-17.659"/>
<polygon fill="midnightblue" stroke="midnightblue" points="235.045,-51.5893 225.492,-56.1703 235.817,-58.5466 235.045,-51.5893"/>
</g>
<!-- Node9&#45;&gt;Node7 -->
<g id="edge10" class="edge"><title>Node9&#45;&gt;Node7</title>
<path fill="none" stroke="midnightblue" d="M437.294,-55.5537C438.569,-55.3646 439.833,-55.1796 441.081,-55 569.197,-36.5562 602.335,-39.8525 730.081,-19 732.871,-18.5446 735.758,-18.0371 738.652,-17.503"/>
<polygon fill="midnightblue" stroke="midnightblue" points="436.749,-52.0963 427.393,-57.0678 437.807,-59.0158 436.749,-52.0963"/>
</g>
<!-- Node10 -->
<g id="node9" class="node"><title>Node10</title>
<g id="a_node9"><a xlink:href="_renderer_8cpp.html" target="_top" xlink:title="Renderer.cpp">
<polygon fill="none" stroke="black" points="451.059,-0.5 451.059,-18.5 527.103,-18.5 527.103,-0.5 451.059,-0.5"/>
<text text-anchor="middle" x="489.081" y="-6.5" font-family="Helvetica,sans-Serif" font-size="10.00">Renderer.cpp</text>
</a>
</g>
</g>
<!-- Node9&#45;&gt;Node10 -->
<g id="edge11" class="edge"><title>Node9&#45;&gt;Node10</title>
<path fill="none" stroke="midnightblue" d="M413.157,-50.74C431.993,-40.7567 457.615,-27.177 473.75,-18.6253"/>
<polygon fill="midnightblue" stroke="midnightblue" points="411.466,-47.6749 404.269,-55.4504 414.744,-53.86 411.466,-47.6749"/>
</g>
<!-- Node11&#45;&gt;Node7 -->
<g id="edge13" class="edge"><title>Node11&#45;&gt;Node7</title>
<path fill="none" stroke="midnightblue" d="M342.503,-55.0393C515.636,-33.9089 561.92,-43.7448 730.081,-19 732.878,-18.5884 735.77,-18.1118 738.667,-17.5984"/>
<polygon fill="midnightblue" stroke="midnightblue" points="342.041,-51.5698 332.546,-56.2714 342.9,-58.5168 342.041,-51.5698"/>
</g>
<!-- Node12 -->
<g id="node11" class="node"><title>Node12</title>
<g id="a_node11"><a xlink:href="_light_source_8cpp.html" target="_top" xlink:title="LightSource.cpp">
<polygon fill="none" stroke="black" points="243.946,-0.5 243.946,-18.5 332.216,-18.5 332.216,-0.5 243.946,-0.5"/>
<text text-anchor="middle" x="288.081" y="-6.5" font-family="Helvetica,sans-Serif" font-size="10.00">LightSource.cpp</text>
</a>
</g>
</g>
<!-- Node11&#45;&gt;Node12 -->
<g id="edge14" class="edge"><title>Node11&#45;&gt;Node12</title>
<path fill="none" stroke="midnightblue" d="M288.081,-45.1746C288.081,-36.0945 288.081,-25.5949 288.081,-18.5496"/>
<polygon fill="midnightblue" stroke="midnightblue" points="284.581,-45.2187 288.081,-55.2188 291.581,-45.2188 284.581,-45.2187"/>
</g>
<!-- Node16&#45;&gt;Node4 -->
<g id="edge19" class="edge"><title>Node16&#45;&gt;Node4</title>
<path fill="none" stroke="midnightblue" d="M705.158,-114.991C608.925,-108.679 405.879,-94.1647 235.081,-74 231.956,-73.6311 228.737,-73.2215 225.497,-72.7873"/>
<polygon fill="midnightblue" stroke="midnightblue" points="705.039,-118.49 715.245,-115.648 705.494,-111.505 705.039,-118.49"/>
</g>
<!-- Node16&#45;&gt;Node7 -->
<g id="edge27" class="edge"><title>Node16&#45;&gt;Node7</title>
<path fill="none" stroke="midnightblue" d="M762.941,-100.243C765.36,-76.4928 769.484,-35.9967 771.245,-18.7118"/>
<polygon fill="midnightblue" stroke="midnightblue" points="759.439,-100.079 761.908,-110.382 766.403,-100.789 759.439,-100.079"/>
</g>
<!-- Node16&#45;&gt;Node8 -->
<g id="edge20" class="edge"><title>Node16&#45;&gt;Node8</title>
<path fill="none" stroke="midnightblue" d="M781.803,-104.772C796.713,-94.8937 816.321,-81.9036 828.816,-73.6253"/>
<polygon fill="midnightblue" stroke="midnightblue" points="779.635,-102.01 773.231,-110.45 783.501,-107.845 779.635,-102.01"/>
</g>
<!-- Node16&#45;&gt;Node10 -->
<g id="edge31" class="edge"><title>Node16&#45;&gt;Node10</title>
<path fill="none" stroke="midnightblue" d="M733.555,-106.382C713.246,-97.4383 684.939,-84.968 660.081,-74 640.965,-65.5657 636.52,-62.6591 617.081,-55 581.84,-41.1148 540.298,-27.0938 514.32,-18.5997"/>
<polygon fill="midnightblue" stroke="midnightblue" points="732.27,-109.64 742.833,-110.467 735.091,-103.234 732.27,-109.64"/>
</g>
<!-- Node16&#45;&gt;Node12 -->
<g id="edge29" class="edge"><title>Node16&#45;&gt;Node12</title>
<path fill="none" stroke="midnightblue" d="M717.878,-107.855C688.795,-100.038 649.91,-88.31 617.081,-74 601.567,-67.2375 600.06,-60.577 584.081,-55 498.22,-25.0316 391.426,-15.2408 332.441,-12.0452"/>
<polygon fill="midnightblue" stroke="midnightblue" points="717.167,-111.287 727.73,-110.455 718.953,-104.519 717.167,-111.287"/>
</g>
<!-- Node16&#45;&gt;Node13 -->
<g id="edge28" class="edge"><title>Node16&#45;&gt;Node13</title>
<path fill="none" stroke="midnightblue" d="M715.911,-108.181C671.557,-98.0484 604.818,-82.8021 564.268,-73.5383"/>
<polygon fill="midnightblue" stroke="midnightblue" points="715.317,-111.635 725.845,-110.45 716.876,-104.811 715.317,-111.635"/>
</g>
<!-- Node16&#45;&gt;Node14 -->
<g id="edge32" class="edge"><title>Node16&#45;&gt;Node14</title>
<path fill="none" stroke="midnightblue" d="M799.692,-107.73C836.005,-97.6003 889.544,-82.6655 922.264,-73.5383"/>
<polygon fill="midnightblue" stroke="midnightblue" points="798.63,-104.392 789.938,-110.45 800.511,-111.135 798.63,-104.392"/>
</g>
<!-- Node17 -->
<g id="node16" class="node"><title>Node17</title>
<g id="a_node16"><a xlink:href="_scene_8hpp.html" target="_top" xlink:title="Scene.hpp">
<polygon fill="none" stroke="black" points="669.172,-55.5 669.172,-73.5 732.99,-73.5 732.99,-55.5 669.172,-55.5"/>
<text text-anchor="middle" x="701.081" y="-61.5" font-family="Helvetica,sans-Serif" font-size="10.00">Scene.hpp</text>
</a>
</g>
</g>
<!-- Node16&#45;&gt;Node17 -->
<g id="edge21" class="edge"><title>Node16&#45;&gt;Node17</title>
<path fill="none" stroke="midnightblue" d="M744.259,-103.641C733.255,-93.9201 719.298,-81.5913 710.28,-73.6253"/>
<polygon fill="midnightblue" stroke="midnightblue" points="742.156,-106.453 751.968,-110.45 746.791,-101.207 742.156,-106.453"/>
</g>
<!-- Node19 -->
<g id="node18" class="node"><title>Node19</title>
<g id="a_node18"><a xlink:href="_scene_parser_8hpp.html" target="_top" xlink:title="SceneParser.hpp">
<polygon fill="none" stroke="black" points="1045.72,-55.5 1045.72,-73.5 1138.44,-73.5 1138.44,-55.5 1045.72,-55.5"/>
<text text-anchor="middle" x="1092.08" y="-61.5" font-family="Helvetica,sans-Serif" font-size="10.00">SceneParser.hpp</text>
</a>
</g>
</g>
<!-- Node16&#45;&gt;Node19 -->
<g id="edge24" class="edge"><title>Node16&#45;&gt;Node19</title>
<path fill="none" stroke="midnightblue" d="M817.068,-109.535C881.365,-99.2401 985.672,-82.5383 1045.65,-72.9348"/>
<polygon fill="midnightblue" stroke="midnightblue" points="816.426,-106.093 807.105,-111.131 817.533,-113.005 816.426,-106.093"/>
</g>
<!-- Node21 -->
<g id="node20" class="node"><title>Node21</title>
<g id="a_node20"><a xlink:href="_physics_manager_8cpp.html" target="_top" xlink:title="PhysicsManager.cpp">
<polygon fill="none" stroke="black" points="1193.94,-55.5 1193.94,-73.5 1302.22,-73.5 1302.22,-55.5 1193.94,-55.5"/>
<text text-anchor="middle" x="1248.08" y="-61.5" font-family="Helvetica,sans-Serif" font-size="10.00">PhysicsManager.cpp</text>
</a>
</g>
</g>
<!-- Node16&#45;&gt;Node21 -->
<g id="edge30" class="edge"><title>Node16&#45;&gt;Node21</title>
<path fill="none" stroke="midnightblue" d="M817.097,-112.404C911.447,-102.136 1100.85,-81.5227 1193.93,-71.393"/>
<polygon fill="midnightblue" stroke="midnightblue" points="816.459,-108.952 806.897,-113.514 817.217,-115.911 816.459,-108.952"/>
</g>
<!-- Node17&#45;&gt;Node7 -->
<g id="edge22" class="edge"><title>Node17&#45;&gt;Node7</title>
<path fill="none" stroke="midnightblue" d="M720.225,-49.2095C733.359,-39.4052 750.316,-26.7474 761.196,-18.6253"/>
<polygon fill="midnightblue" stroke="midnightblue" points="717.784,-46.6637 711.864,-55.4504 721.972,-52.2732 717.784,-46.6637"/>
</g>
<!-- Node18 -->
<g id="node17" class="node"><title>Node18</title>
<g id="a_node17"><a xlink:href="_scene_8cpp.html" target="_top" xlink:title="Scene.cpp">
<polygon fill="none" stroke="black" points="657.453,-0.5 657.453,-18.5 720.709,-18.5 720.709,-0.5 657.453,-0.5"/>
<text text-anchor="middle" x="689.081" y="-6.5" font-family="Helvetica,sans-Serif" font-size="10.00">Scene.cpp</text>
</a>
</g>
</g>
<!-- Node17&#45;&gt;Node18 -->
<g id="edge23" class="edge"><title>Node17&#45;&gt;Node18</title>
<path fill="none" stroke="midnightblue" d="M696.932,-45.1746C694.876,-36.0945 692.499,-25.5949 690.904,-18.5496"/>
<polygon fill="midnightblue" stroke="midnightblue" points="693.584,-46.2385 699.206,-55.2188 700.411,-44.6927 693.584,-46.2385"/>
</g>
<!-- Node19&#45;&gt;Node7 -->
<g id="edge25" class="edge"><title>Node19&#45;&gt;Node7</title>
<path fill="none" stroke="midnightblue" d="M1035.62,-54.1484C968.88,-43.0949 860.018,-25.0646 805.462,-16.0287"/>
<polygon fill="midnightblue" stroke="midnightblue" points="1035.11,-57.6122 1045.55,-55.7933 1036.26,-50.7063 1035.11,-57.6122"/>
</g>
<!-- Node20 -->
<g id="node19" class="node"><title>Node20</title>
<g id="a_node19"><a xlink:href="_scene_parser_8cpp.html" target="_top" xlink:title="SceneParser.cpp">
<polygon fill="none" stroke="black" points="1046,-0.5 1046,-18.5 1138.16,-18.5 1138.16,-0.5 1046,-0.5"/>
<text text-anchor="middle" x="1092.08" y="-6.5" font-family="Helvetica,sans-Serif" font-size="10.00">SceneParser.cpp</text>
</a>
</g>
</g>
<!-- Node19&#45;&gt;Node20 -->
<g id="edge26" class="edge"><title>Node19&#45;&gt;Node20</title>
<path fill="none" stroke="midnightblue" d="M1092.08,-45.1746C1092.08,-36.0945 1092.08,-25.5949 1092.08,-18.5496"/>
<polygon fill="midnightblue" stroke="midnightblue" points="1088.58,-45.2187 1092.08,-55.2188 1095.58,-45.2188 1088.58,-45.2187"/>
</g>
<!-- Node22&#45;&gt;Node7 -->
<g id="edge35" class="edge"><title>Node22&#45;&gt;Node7</title>
<path fill="none" stroke="midnightblue" d="M994.089,-101.514C1002.3,-87.617 1009.92,-68.1739 999.081,-55 974.901,-25.6193 862.135,-15.3522 805.181,-12.0006"/>
<polygon fill="midnightblue" stroke="midnightblue" points="991.024,-99.8082 988.525,-110.104 996.899,-103.613 991.024,-99.8082"/>
</g>
<!-- Node22&#45;&gt;Node8 -->
<g id="edge34" class="edge"><title>Node22&#45;&gt;Node8</title>
<path fill="none" stroke="midnightblue" d="M951.006,-106.819C924.233,-96.7556 886.279,-82.4894 862.697,-73.6253"/>
<polygon fill="midnightblue" stroke="midnightblue" points="950.074,-110.208 960.666,-110.45 952.537,-103.656 950.074,-110.208"/>
</g>
<!-- Node24&#45;&gt;Node7 -->
<g id="edge38" class="edge"><title>Node24&#45;&gt;Node7</title>
<path fill="none" stroke="midnightblue" d="M1302.86,-102.194C1313.01,-88.1376 1323.14,-68.0952 1311.08,-55 1293.87,-36.3076 920.269,-17.4046 805.388,-12.0163"/>
<polygon fill="midnightblue" stroke="midnightblue" points="1299.82,-100.4 1296.41,-110.434 1305.33,-104.712 1299.82,-100.4"/>
</g>
<!-- Node24&#45;&gt;Node21 -->
<g id="edge42" class="edge"><title>Node24&#45;&gt;Node21</title>
<path fill="none" stroke="midnightblue" d="M1276.5,-102.243C1269.15,-92.7302 1260.18,-81.1369 1254.31,-73.5496"/>
<polygon fill="midnightblue" stroke="midnightblue" points="1273.79,-104.451 1282.67,-110.219 1279.32,-100.168 1273.79,-104.451"/>
</g>
<!-- Node25 -->
<g id="node24" class="node"><title>Node25</title>
<g id="a_node24"><a xlink:href="_particle_system_8hpp.html" target="_top" xlink:title="ParticleSystem.hpp">
<polygon fill="none" stroke="black" points="1456.01,-55.5 1456.01,-73.5 1558.15,-73.5 1558.15,-55.5 1456.01,-55.5"/>
<text text-anchor="middle" x="1507.08" y="-61.5" font-family="Helvetica,sans-Serif" font-size="10.00">ParticleSystem.hpp</text>
</a>
</g>
</g>
<!-- Node24&#45;&gt;Node25 -->
<g id="edge39" class="edge"><title>Node24&#45;&gt;Node25</title>
<path fill="none" stroke="midnightblue" d="M1332.05,-108.053C1373.73,-97.9201 1436.07,-82.7631 1474.02,-73.5383"/>
<polygon fill="midnightblue" stroke="midnightblue" points="1331.08,-104.687 1322.19,-110.45 1332.73,-111.489 1331.08,-104.687"/>
</g>
<!-- Node27 -->
<g id="node26" class="node"><title>Node27</title>
<g id="a_node26"><a xlink:href="_scriptable_8cpp.html" target="_top" xlink:title="Scriptable.cpp">
<polygon fill="none" stroke="black" points="1358.4,-55.5 1358.4,-73.5 1437.77,-73.5 1437.77,-55.5 1358.4,-55.5"/>
<text text-anchor="middle" x="1398.08" y="-61.5" font-family="Helvetica,sans-Serif" font-size="10.00">Scriptable.cpp</text>
</a>
</g>
</g>
<!-- Node24&#45;&gt;Node27 -->
<g id="edge43" class="edge"><title>Node24&#45;&gt;Node27</title>
<path fill="none" stroke="midnightblue" d="M1314.76,-106.013C1335.34,-96.0052 1363.62,-82.2551 1381.37,-73.6253"/>
<polygon fill="midnightblue" stroke="midnightblue" points="1313.1,-102.93 1305.64,-110.45 1316.16,-109.225 1313.1,-102.93"/>
</g>
<!-- Node25&#45;&gt;Node7 -->
<g id="edge40" class="edge"><title>Node25&#45;&gt;Node7</title>
<path fill="none" stroke="midnightblue" d="M1445.64,-54.9271C1193.36,-29.1544 901.997,-15.7993 805.167,-11.8021"/>
<polygon fill="midnightblue" stroke="midnightblue" points="1445.42,-58.4232 1455.73,-55.9667 1446.14,-51.4601 1445.42,-58.4232"/>
</g>
<!-- Node26 -->
<g id="node25" class="node"><title>Node26</title>
<g id="a_node25"><a xlink:href="_particle_system_8cpp.html" target="_top" xlink:title="ParticleSystem.cpp">
<polygon fill="none" stroke="black" points="1456.29,-0.5 1456.29,-18.5 1557.87,-18.5 1557.87,-0.5 1456.29,-0.5"/>
<text text-anchor="middle" x="1507.08" y="-6.5" font-family="Helvetica,sans-Serif" font-size="10.00">ParticleSystem.cpp</text>
</a>
</g>
</g>
<!-- Node25&#45;&gt;Node26 -->
<g id="edge41" class="edge"><title>Node25&#45;&gt;Node26</title>
<path fill="none" stroke="midnightblue" d="M1507.08,-45.1746C1507.08,-36.0945 1507.08,-25.5949 1507.08,-18.5496"/>
<polygon fill="midnightblue" stroke="midnightblue" points="1503.58,-45.2187 1507.08,-55.2188 1510.58,-45.2188 1503.58,-45.2187"/>
</g>
<!-- Node28&#45;&gt;Node7 -->
<g id="edge46" class="edge"><title>Node28&#45;&gt;Node7</title>
<path fill="none" stroke="midnightblue" d="M1116.67,-105.373C1137.73,-92.4741 1162.42,-72.2686 1147.08,-55 1124.52,-29.6046 892.712,-16.1625 805.244,-11.9638"/>
<polygon fill="midnightblue" stroke="midnightblue" points="1114.87,-102.369 1107.99,-110.424 1118.39,-108.418 1114.87,-102.369"/>
</g>
<!-- Node28&#45;&gt;Node14 -->
<g id="edge47" class="edge"><title>Node28&#45;&gt;Node14</title>
<path fill="none" stroke="midnightblue" d="M1061.01,-106.819C1034.23,-96.7556 996.279,-82.4894 972.697,-73.6253"/>
<polygon fill="midnightblue" stroke="midnightblue" points="1060.07,-110.208 1070.67,-110.45 1062.54,-103.656 1060.07,-110.208"/>
</g>
<!-- Node28&#45;&gt;Node19 -->
<g id="edge45" class="edge"><title>Node28&#45;&gt;Node19</title>
<path fill="none" stroke="midnightblue" d="M1092.08,-100.175C1092.08,-91.0945 1092.08,-80.5949 1092.08,-73.5496"/>
<polygon fill="midnightblue" stroke="midnightblue" points="1088.58,-100.219 1092.08,-110.219 1095.58,-100.219 1088.58,-100.219"/>
</g>
</g>
</svg>
