<?xml version="1.0" encoding="UTF-8" standalone="no"?>
<!DOCTYPE svg PUBLIC "-//W3C//DTD SVG 1.1//EN"
 "http://www.w3.org/Graphics/SVG/1.1/DTD/svg11.dtd">
<!-- Generated by graphviz version 2.38.0 (20140413.2041)
 -->
<!-- Title: Component.hpp Pages: 1 -->
<svg width="1857pt" height="192pt"
 viewBox="0.00 0.00 1856.89 192.00" xmlns="http://www.w3.org/2000/svg" xmlns:xlink="http://www.w3.org/1999/xlink">
<g id="graph0" class="graph" transform="scale(1 1) rotate(0) translate(4 188)">
<title>Component.hpp</title>
<!-- Node2 -->
<g id="node1" class="node"><title>Node2</title>
<polygon fill="#bfbfbf" stroke="black" points="1055.5,-165.5 1055.5,-183.5 1142.66,-183.5 1142.66,-165.5 1055.5,-165.5"/>
<text text-anchor="middle" x="1099.08" y="-171.5" font-family="Helvetica,sans-Serif" font-size="10.00">Component.hpp</text>
</g>
<!-- Node3 -->
<g id="node2" class="node"><title>Node3</title>
<g id="a_node2"><a xlink:href="_transform_8hpp.html" target="_top" xlink:title="Transform.hpp">
<polygon fill="none" stroke="black" points="414.752,-110.5 414.752,-128.5 495.41,-128.5 495.41,-110.5 414.752,-110.5"/>
<text text-anchor="middle" x="455.081" y="-116.5" font-family="Helvetica,sans-Serif" font-size="10.00">Transform.hpp</text>
</a>
</g>
</g>
<!-- Node2&#45;&gt;Node3 -->
<g id="edge1" class="edge"><title>Node2&#45;&gt;Node3</title>
<path fill="none" stroke="midnightblue" d="M1045.13,-169.06C919.009,-158.68 607.106,-133.011 495.558,-123.831"/>
<polygon fill="midnightblue" stroke="midnightblue" points="1045.07,-172.567 1055.32,-169.899 1045.64,-165.59 1045.07,-172.567"/>
</g>
<!-- Node17 -->
<g id="node16" class="node"><title>Node17</title>
<g id="a_node16"><a xlink:href="_game_object_8hpp.html" target="_top" xlink:title="GameObject.hpp">
<polygon fill="none" stroke="black" points="890.283,-110.5 890.283,-128.5 981.879,-128.5 981.879,-110.5 890.283,-110.5"/>
<text text-anchor="middle" x="936.081" y="-116.5" font-family="Helvetica,sans-Serif" font-size="10.00">GameObject.hpp</text>
</a>
</g>
</g>
<!-- Node2&#45;&gt;Node17 -->
<g id="edge19" class="edge"><title>Node2&#45;&gt;Node17</title>
<path fill="none" stroke="midnightblue" d="M1064.75,-162.338C1033.63,-152.218 988.513,-137.549 960.803,-128.538"/>
<polygon fill="midnightblue" stroke="midnightblue" points="1063.73,-165.687 1074.32,-165.45 1065.9,-159.03 1063.73,-165.687"/>
</g>
<!-- Node23 -->
<g id="node22" class="node"><title>Node23</title>
<g id="a_node22"><a xlink:href="_camera_handler_8hpp.html" target="_top" xlink:title="CameraHandler.hpp">
<polygon fill="none" stroke="black" points="600.33,-110.5 600.33,-128.5 705.832,-128.5 705.832,-110.5 600.33,-110.5"/>
<text text-anchor="middle" x="653.081" y="-116.5" font-family="Helvetica,sans-Serif" font-size="10.00">CameraHandler.hpp</text>
</a>
</g>
</g>
<!-- Node2&#45;&gt;Node23 -->
<g id="edge35" class="edge"><title>Node2&#45;&gt;Node23</title>
<path fill="none" stroke="midnightblue" d="M1045,-167.073C958.827,-156.833 791.39,-136.936 705.971,-126.785"/>
<polygon fill="midnightblue" stroke="midnightblue" points="1044.75,-170.569 1055.1,-168.273 1045.58,-163.617 1044.75,-170.569"/>
</g>
<!-- Node24 -->
<g id="node23" class="node"><title>Node24</title>
<g id="a_node23"><a xlink:href="_scriptable_8hpp.html" target="_top" xlink:title="Scriptable.hpp">
<polygon fill="none" stroke="black" points="1444.12,-110.5 1444.12,-128.5 1524.05,-128.5 1524.05,-110.5 1444.12,-110.5"/>
<text text-anchor="middle" x="1484.08" y="-116.5" font-family="Helvetica,sans-Serif" font-size="10.00">Scriptable.hpp</text>
</a>
</g>
</g>
<!-- Node2&#45;&gt;Node24 -->
<g id="edge38" class="edge"><title>Node2&#45;&gt;Node24</title>
<path fill="none" stroke="midnightblue" d="M1153.01,-166.076C1231.27,-155.302 1374.56,-135.577 1444.11,-126.003"/>
<polygon fill="midnightblue" stroke="midnightblue" points="1152.3,-162.641 1142.87,-167.472 1153.25,-169.575 1152.3,-162.641"/>
</g>
<!-- Node30 -->
<g id="node29" class="node"><title>Node30</title>
<g id="a_node29"><a xlink:href="_collider_8hpp.html" target="_top" xlink:title="Collider.hpp">
<polygon fill="none" stroke="black" points="1156.67,-110.5 1156.67,-128.5 1225.49,-128.5 1225.49,-110.5 1156.67,-110.5"/>
<text text-anchor="middle" x="1191.08" y="-116.5" font-family="Helvetica,sans-Serif" font-size="10.00">Collider.hpp</text>
</a>
</g>
</g>
<!-- Node2&#45;&gt;Node30 -->
<g id="edge49" class="edge"><title>Node2&#45;&gt;Node30</title>
<path fill="none" stroke="midnightblue" d="M1121.95,-160.328C1139.2,-150.386 1162.34,-137.06 1176.98,-128.625"/>
<polygon fill="midnightblue" stroke="midnightblue" points="1119.97,-157.426 1113.05,-165.45 1123.47,-163.491 1119.97,-157.426"/>
</g>
<!-- Node31 -->
<g id="node30" class="node"><title>Node31</title>
<g id="a_node30"><a xlink:href="_component_8cpp.html" target="_top" xlink:title="Component.cpp">
<polygon fill="none" stroke="black" points="1243.78,-110.5 1243.78,-128.5 1330.38,-128.5 1330.38,-110.5 1243.78,-110.5"/>
<text text-anchor="middle" x="1287.08" y="-116.5" font-family="Helvetica,sans-Serif" font-size="10.00">Component.cpp</text>
</a>
</g>
</g>
<!-- Node2&#45;&gt;Node31 -->
<g id="edge50" class="edge"><title>Node2&#45;&gt;Node31</title>
<path fill="none" stroke="midnightblue" d="M1137.29,-162.73C1173.22,-152.6 1226.19,-137.666 1258.57,-128.538"/>
<polygon fill="midnightblue" stroke="midnightblue" points="1136.31,-159.368 1127.63,-165.45 1138.21,-166.106 1136.31,-159.368"/>
</g>
<!-- Node32 -->
<g id="node31" class="node"><title>Node32</title>
<g id="a_node31"><a xlink:href="_rigidbody_8hpp.html" target="_top" xlink:title="Rigidbody.hpp">
<polygon fill="none" stroke="black" points="1059.48,-110.5 1059.48,-128.5 1138.68,-128.5 1138.68,-110.5 1059.48,-110.5"/>
<text text-anchor="middle" x="1099.08" y="-116.5" font-family="Helvetica,sans-Serif" font-size="10.00">Rigidbody.hpp</text>
</a>
</g>
</g>
<!-- Node2&#45;&gt;Node32 -->
<g id="edge51" class="edge"><title>Node2&#45;&gt;Node32</title>
<path fill="none" stroke="midnightblue" d="M1099.08,-155.175C1099.08,-146.094 1099.08,-135.595 1099.08,-128.55"/>
<polygon fill="midnightblue" stroke="midnightblue" points="1095.58,-155.219 1099.08,-165.219 1102.58,-155.219 1095.58,-155.219"/>
</g>
<!-- Node4 -->
<g id="node3" class="node"><title>Node4</title>
<g id="a_node3"><a xlink:href="_audio_source_8hpp.html" target="_top" xlink:title="AudioSource.hpp">
<polygon fill="none" stroke="black" points="132.719,-55.5 132.719,-73.5 225.443,-73.5 225.443,-55.5 132.719,-55.5"/>
<text text-anchor="middle" x="179.081" y="-61.5" font-family="Helvetica,sans-Serif" font-size="10.00">AudioSource.hpp</text>
</a>
</g>
</g>
<!-- Node3&#45;&gt;Node4 -->
<g id="edge2" class="edge"><title>Node3&#45;&gt;Node4</title>
<path fill="none" stroke="midnightblue" d="M404.517,-108.79C351.819,-98.6707 270.197,-82.9969 220.975,-73.5448"/>
<polygon fill="midnightblue" stroke="midnightblue" points="404.172,-112.288 414.653,-110.737 405.492,-105.413 404.172,-112.288"/>
</g>
<!-- Node6 -->
<g id="node5" class="node"><title>Node6</title>
<g id="a_node5"><a xlink:href="_audio_source_8cpp.html" target="_top" xlink:title="AudioSource.cpp">
<polygon fill="none" stroke="black" points="0,-0.5 0,-18.5 92.1621,-18.5 92.1621,-0.5 0,-0.5"/>
<text text-anchor="middle" x="46.0811" y="-6.5" font-family="Helvetica,sans-Serif" font-size="10.00">AudioSource.cpp</text>
</a>
</g>
</g>
<!-- Node3&#45;&gt;Node6 -->
<g id="edge6" class="edge"><title>Node3&#45;&gt;Node6</title>
<path fill="none" stroke="midnightblue" d="M404.585,-116.983C296.611,-113.219 51.0362,-101.678 26.0811,-74 11.6851,-58.0335 28.7661,-31.7471 39.1837,-18.5655"/>
<polygon fill="midnightblue" stroke="midnightblue" points="404.479,-120.482 414.593,-117.324 404.717,-113.486 404.479,-120.482"/>
</g>
<!-- Node7 -->
<g id="node6" class="node"><title>Node7</title>
<g id="a_node6"><a xlink:href="_engine_8cpp.html" target="_top" xlink:title="Engine.cpp">
<polygon fill="none" stroke="black" points="917.062,-0.5 917.062,-18.5 983.101,-18.5 983.101,-0.5 917.062,-0.5"/>
<text text-anchor="middle" x="950.081" y="-6.5" font-family="Helvetica,sans-Serif" font-size="10.00">Engine.cpp</text>
</a>
</g>
</g>
<!-- Node3&#45;&gt;Node7 -->
<g id="edge8" class="edge"><title>Node3&#45;&gt;Node7</title>
<path fill="none" stroke="midnightblue" d="M456.798,-100.316C459.218,-85.6321 465.045,-65.7108 479.081,-55 513.769,-28.53 815.403,-15.3425 916.909,-11.6251"/>
<polygon fill="midnightblue" stroke="midnightblue" points="453.32,-99.9231 455.533,-110.284 460.264,-100.804 453.32,-99.9231"/>
</g>
<!-- Node8 -->
<g id="node7" class="node"><title>Node8</title>
<g id="a_node7"><a xlink:href="_camera_handler_8cpp.html" target="_top" xlink:title="CameraHandler.cpp">
<polygon fill="none" stroke="black" points="520.611,-55.5 520.611,-73.5 625.551,-73.5 625.551,-55.5 520.611,-55.5"/>
<text text-anchor="middle" x="573.081" y="-61.5" font-family="Helvetica,sans-Serif" font-size="10.00">CameraHandler.cpp</text>
</a>
</g>
</g>
<!-- Node3&#45;&gt;Node8 -->
<g id="edge7" class="edge"><title>Node3&#45;&gt;Node8</title>
<path fill="none" stroke="midnightblue" d="M482.28,-106.283C504.609,-96.2545 535.603,-82.3332 554.991,-73.6253"/>
<polygon fill="midnightblue" stroke="midnightblue" points="480.691,-103.16 473.003,-110.45 483.559,-109.546 480.691,-103.16"/>
</g>
<!-- Node9 -->
<g id="node8" class="node"><title>Node9</title>
<g id="a_node8"><a xlink:href="_renderer_8hpp.html" target="_top" xlink:title="Renderer.hpp">
<polygon fill="none" stroke="black" points="350.778,-55.5 350.778,-73.5 427.384,-73.5 427.384,-55.5 350.778,-55.5"/>
<text text-anchor="middle" x="389.081" y="-61.5" font-family="Helvetica,sans-Serif" font-size="10.00">Renderer.hpp</text>
</a>
</g>
</g>
<!-- Node3&#45;&gt;Node9 -->
<g id="edge9" class="edge"><title>Node3&#45;&gt;Node9</title>
<path fill="none" stroke="midnightblue" d="M436.932,-103.926C424.774,-94.1622 409.216,-81.6693 399.199,-73.6253"/>
<polygon fill="midnightblue" stroke="midnightblue" points="435.068,-106.918 445.057,-110.45 439.451,-101.46 435.068,-106.918"/>
</g>
<!-- Node11 -->
<g id="node10" class="node"><title>Node11</title>
<g id="a_node10"><a xlink:href="_light_source_8hpp.html" target="_top" xlink:title="LightSource.hpp">
<polygon fill="none" stroke="black" points="243.665,-55.5 243.665,-73.5 332.497,-73.5 332.497,-55.5 243.665,-55.5"/>
<text text-anchor="middle" x="288.081" y="-61.5" font-family="Helvetica,sans-Serif" font-size="10.00">LightSource.hpp</text>
</a>
</g>
</g>
<!-- Node3&#45;&gt;Node11 -->
<g id="edge12" class="edge"><title>Node3&#45;&gt;Node11</title>
<path fill="none" stroke="midnightblue" d="M419.909,-107.338C388.024,-97.2183 341.8,-82.5485 313.409,-73.5383"/>
<polygon fill="midnightblue" stroke="midnightblue" points="419.127,-110.761 429.717,-110.45 421.245,-104.089 419.127,-110.761"/>
</g>
<!-- Node13 -->
<g id="node12" class="node"><title>Node13</title>
<g id="a_node12"><a xlink:href="_game_object_8cpp.html" target="_top" xlink:title="GameObject.cpp">
<polygon fill="none" stroke="black" points="681.564,-55.5 681.564,-73.5 772.598,-73.5 772.598,-55.5 681.564,-55.5"/>
<text text-anchor="middle" x="727.081" y="-61.5" font-family="Helvetica,sans-Serif" font-size="10.00">GameObject.cpp</text>
</a>
</g>
</g>
<!-- Node3&#45;&gt;Node13 -->
<g id="edge15" class="edge"><title>Node3&#45;&gt;Node13</title>
<path fill="none" stroke="midnightblue" d="M505.52,-108.672C557.541,-98.5355 637.686,-82.9189 685.986,-73.5075"/>
<polygon fill="midnightblue" stroke="midnightblue" points="504.654,-105.275 495.508,-110.623 505.993,-112.145 504.654,-105.275"/>
</g>
<!-- Node14 -->
<g id="node13" class="node"><title>Node14</title>
<g id="a_node13"><a xlink:href="_particle_controller_8cpp.html" target="_top" xlink:title="ParticleController.cpp">
<polygon fill="none" stroke="black" points="1249.56,-0.5 1249.56,-18.5 1360.61,-18.5 1360.61,-0.5 1249.56,-0.5"/>
<text text-anchor="middle" x="1305.08" y="-6.5" font-family="Helvetica,sans-Serif" font-size="10.00">ParticleController.cpp</text>
</a>
</g>
</g>
<!-- Node3&#45;&gt;Node14 -->
<g id="edge16" class="edge"><title>Node3&#45;&gt;Node14</title>
<path fill="none" stroke="midnightblue" d="M464.863,-101.528C474.659,-86.3361 491.254,-64.9683 512.081,-55 579.527,-22.7183 1109.45,-23.6201 1184.08,-19 1205.41,-17.6793 1228.85,-16.0697 1249.37,-14.6079"/>
<polygon fill="midnightblue" stroke="midnightblue" points="461.648,-100.077 459.431,-110.437 467.625,-103.721 461.648,-100.077"/>
</g>
<!-- Node15 -->
<g id="node14" class="node"><title>Node15</title>
<g id="a_node14"><a xlink:href="_rigidbody_8cpp.html" target="_top" xlink:title="Rigidbody.cpp">
<polygon fill="none" stroke="black" points="866.763,-55.5 866.763,-73.5 945.399,-73.5 945.399,-55.5 866.763,-55.5"/>
<text text-anchor="middle" x="906.081" y="-61.5" font-family="Helvetica,sans-Serif" font-size="10.00">Rigidbody.cpp</text>
</a>
</g>
</g>
<!-- Node3&#45;&gt;Node15 -->
<g id="edge17" class="edge"><title>Node3&#45;&gt;Node15</title>
<path fill="none" stroke="midnightblue" d="M505.528,-112.572C596.127,-101.925 784.575,-79.7789 866.558,-70.1446"/>
<polygon fill="midnightblue" stroke="midnightblue" points="505.024,-109.107 495.501,-113.75 505.841,-116.059 505.024,-109.107"/>
</g>
<!-- Node16 -->
<g id="node15" class="node"><title>Node16</title>
<g id="a_node15"><a xlink:href="_transform_8cpp.html" target="_top" xlink:title="Transform.cpp">
<polygon fill="none" stroke="black" points="35.0327,-55.5 35.0327,-73.5 115.129,-73.5 115.129,-55.5 35.0327,-55.5"/>
<text text-anchor="middle" x="75.0811" y="-61.5" font-family="Helvetica,sans-Serif" font-size="10.00">Transform.cpp</text>
</a>
</g>
</g>
<!-- Node3&#45;&gt;Node16 -->
<g id="edge18" class="edge"><title>Node3&#45;&gt;Node16</title>
<path fill="none" stroke="midnightblue" d="M404.52,-112.311C339.523,-104.215 223.22,-89.2573 124.081,-74 121.18,-73.5535 118.185,-73.0756 115.172,-72.5827"/>
<polygon fill="midnightblue" stroke="midnightblue" points="404.146,-115.791 414.501,-113.55 405.008,-108.845 404.146,-115.791"/>
</g>
<!-- Node5 -->
<g id="node4" class="node"><title>Node5</title>
<g id="a_node4"><a xlink:href="_audio_8cpp.html" target="_top" xlink:title="Audio.cpp">
<polygon fill="none" stroke="black" points="148.842,-0.5 148.842,-18.5 209.32,-18.5 209.32,-0.5 148.842,-0.5"/>
<text text-anchor="middle" x="179.081" y="-6.5" font-family="Helvetica,sans-Serif" font-size="10.00">Audio.cpp</text>
</a>
</g>
</g>
<!-- Node4&#45;&gt;Node5 -->
<g id="edge3" class="edge"><title>Node4&#45;&gt;Node5</title>
<path fill="none" stroke="midnightblue" d="M179.081,-45.1746C179.081,-36.0945 179.081,-25.5949 179.081,-18.5496"/>
<polygon fill="midnightblue" stroke="midnightblue" points="175.581,-45.2187 179.081,-55.2188 182.581,-45.2188 175.581,-45.2187"/>
</g>
<!-- Node4&#45;&gt;Node6 -->
<g id="edge4" class="edge"><title>Node4&#45;&gt;Node6</title>
<path fill="none" stroke="midnightblue" d="M149.435,-51.686C124.2,-41.63 88.6168,-27.4503 66.471,-18.6253"/>
<polygon fill="midnightblue" stroke="midnightblue" points="148.296,-54.9999 158.881,-55.4504 150.887,-48.4972 148.296,-54.9999"/>
</g>
<!-- Node4&#45;&gt;Node7 -->
<g id="edge5" class="edge"><title>Node4&#45;&gt;Node7</title>
<path fill="none" stroke="midnightblue" d="M235.449,-55.0747C504.678,-26.7372 816.04,-14.8447 916.851,-11.5222"/>
<polygon fill="midnightblue" stroke="midnightblue" points="235.062,-51.596 225.488,-56.1328 235.802,-58.5568 235.062,-51.596"/>
</g>
<!-- Node9&#45;&gt;Node7 -->
<g id="edge10" class="edge"><title>Node9&#45;&gt;Node7</title>
<path fill="none" stroke="midnightblue" d="M437.781,-55.4261C438.891,-55.2788 439.992,-55.1364 441.081,-55 619.976,-32.5906 835.653,-17.7143 916.94,-12.5352"/>
<polygon fill="midnightblue" stroke="midnightblue" points="437.062,-51.993 427.654,-56.8653 438.047,-58.9234 437.062,-51.993"/>
</g>
<!-- Node10 -->
<g id="node9" class="node"><title>Node10</title>
<g id="a_node9"><a xlink:href="_renderer_8cpp.html" target="_top" xlink:title="Renderer.cpp">
<polygon fill="none" stroke="black" points="576.059,-0.5 576.059,-18.5 652.103,-18.5 652.103,-0.5 576.059,-0.5"/>
<text text-anchor="middle" x="614.081" y="-6.5" font-family="Helvetica,sans-Serif" font-size="10.00">Renderer.cpp</text>
</a>
</g>
</g>
<!-- Node9&#45;&gt;Node10 -->
<g id="edge11" class="edge"><title>Node9&#45;&gt;Node10</title>
<path fill="none" stroke="midnightblue" d="M433.16,-53.1169C476.176,-42.9842 540.712,-27.7826 579.956,-18.5383"/>
<polygon fill="midnightblue" stroke="midnightblue" points="432.185,-49.7508 423.254,-55.4504 433.79,-56.5643 432.185,-49.7508"/>
</g>
<!-- Node11&#45;&gt;Node7 -->
<g id="edge13" class="edge"><title>Node11&#45;&gt;Node7</title>
<path fill="none" stroke="midnightblue" d="M342.591,-55.0517C568.497,-29.4305 826.81,-16.1217 917.038,-11.9519"/>
<polygon fill="midnightblue" stroke="midnightblue" points="342.075,-51.5878 332.538,-56.2025 342.871,-58.5424 342.075,-51.5878"/>
</g>
<!-- Node12 -->
<g id="node11" class="node"><title>Node12</title>
<g id="a_node11"><a xlink:href="_light_source_8cpp.html" target="_top" xlink:title="LightSource.cpp">
<polygon fill="none" stroke="black" points="243.946,-0.5 243.946,-18.5 332.216,-18.5 332.216,-0.5 243.946,-0.5"/>
<text text-anchor="middle" x="288.081" y="-6.5" font-family="Helvetica,sans-Serif" font-size="10.00">LightSource.cpp</text>
</a>
</g>
</g>
<!-- Node11&#45;&gt;Node12 -->
<g id="edge14" class="edge"><title>Node11&#45;&gt;Node12</title>
<path fill="none" stroke="midnightblue" d="M288.081,-45.1746C288.081,-36.0945 288.081,-25.5949 288.081,-18.5496"/>
<polygon fill="midnightblue" stroke="midnightblue" points="284.581,-45.2187 288.081,-55.2188 291.581,-45.2188 284.581,-45.2187"/>
</g>
<!-- Node17&#45;&gt;Node4 -->
<g id="edge20" class="edge"><title>Node17&#45;&gt;Node4</title>
<path fill="none" stroke="midnightblue" d="M879.699,-116.591C760.451,-112.186 474.005,-99.6667 235.081,-74 231.952,-73.6639 228.731,-73.279 225.488,-72.8628"/>
<polygon fill="midnightblue" stroke="midnightblue" points="879.912,-120.101 890.033,-116.968 880.167,-113.106 879.912,-120.101"/>
</g>
<!-- Node17&#45;&gt;Node7 -->
<g id="edge28" class="edge"><title>Node17&#45;&gt;Node7</title>
<path fill="none" stroke="midnightblue" d="M944.886,-101.202C948.505,-93.1539 952.268,-83.3179 954.081,-74 957.879,-54.483 954.358,-31.0183 951.934,-18.8063"/>
<polygon fill="midnightblue" stroke="midnightblue" points="941.707,-99.737 940.536,-110.267 948.018,-102.765 941.707,-99.737"/>
</g>
<!-- Node17&#45;&gt;Node8 -->
<g id="edge21" class="edge"><title>Node17&#45;&gt;Node8</title>
<path fill="none" stroke="midnightblue" d="M879.811,-110.284C810.426,-100.154 693.399,-83.0671 625.725,-73.1863"/>
<polygon fill="midnightblue" stroke="midnightblue" points="879.706,-113.806 890.107,-111.788 880.717,-106.879 879.706,-113.806"/>
</g>
<!-- Node17&#45;&gt;Node10 -->
<g id="edge33" class="edge"><title>Node17&#45;&gt;Node10</title>
<path fill="none" stroke="midnightblue" d="M912.834,-105.353C883.484,-88.9235 834.482,-62.0948 815.081,-55 760.199,-34.9304 693.432,-22.345 652.348,-15.8702"/>
<polygon fill="midnightblue" stroke="midnightblue" points="911.178,-108.437 921.61,-110.284 914.606,-102.335 911.178,-108.437"/>
</g>
<!-- Node17&#45;&gt;Node12 -->
<g id="edge30" class="edge"><title>Node17&#45;&gt;Node12</title>
<path fill="none" stroke="midnightblue" d="M900.484,-107.19C876.031,-98.9909 843.059,-87.0828 815.081,-74 799.75,-66.8311 798.218,-60.1002 782.081,-55 698.844,-28.6925 437.591,-16.143 332.507,-12.0604"/>
<polygon fill="midnightblue" stroke="midnightblue" points="899.478,-110.543 910.071,-110.361 901.676,-103.897 899.478,-110.543"/>
</g>
<!-- Node17&#45;&gt;Node13 -->
<g id="edge29" class="edge"><title>Node17&#45;&gt;Node13</title>
<path fill="none" stroke="midnightblue" d="M894.629,-107.988C854.674,-97.856 795.079,-82.7436 758.779,-73.5383"/>
<polygon fill="midnightblue" stroke="midnightblue" points="893.785,-111.385 904.338,-110.45 895.506,-104.6 893.785,-111.385"/>
</g>
<!-- Node17&#45;&gt;Node14 -->
<g id="edge31" class="edge"><title>Node17&#45;&gt;Node14</title>
<path fill="none" stroke="midnightblue" d="M992.109,-113.386C1043.19,-107.575 1120.21,-95.9073 1184.08,-74 1226.05,-59.6068 1271.27,-32.3585 1292.59,-18.7156"/>
<polygon fill="midnightblue" stroke="midnightblue" points="991.49,-109.933 981.933,-114.505 992.255,-116.891 991.49,-109.933"/>
</g>
<!-- Node17&#45;&gt;Node15 -->
<g id="edge34" class="edge"><title>Node17&#45;&gt;Node15</title>
<path fill="none" stroke="midnightblue" d="M926.381,-101.363C921.095,-92.0242 914.801,-80.9046 910.637,-73.5496"/>
<polygon fill="midnightblue" stroke="midnightblue" points="923.422,-103.24 931.394,-110.219 929.513,-99.7921 923.422,-103.24"/>
</g>
<!-- Node18 -->
<g id="node17" class="node"><title>Node18</title>
<g id="a_node17"><a xlink:href="_scene_8hpp.html" target="_top" xlink:title="Scene.hpp">
<polygon fill="none" stroke="black" points="1001.17,-55.5 1001.17,-73.5 1064.99,-73.5 1064.99,-55.5 1001.17,-55.5"/>
<text text-anchor="middle" x="1033.08" y="-61.5" font-family="Helvetica,sans-Serif" font-size="10.00">Scene.hpp</text>
</a>
</g>
</g>
<!-- Node17&#45;&gt;Node18 -->
<g id="edge22" class="edge"><title>Node17&#45;&gt;Node18</title>
<path fill="none" stroke="midnightblue" d="M959.685,-105.603C977.932,-95.6328 1002.63,-82.1379 1018.21,-73.6253"/>
<polygon fill="midnightblue" stroke="midnightblue" points="957.911,-102.584 950.813,-110.45 961.267,-108.727 957.911,-102.584"/>
</g>
<!-- Node20 -->
<g id="node19" class="node"><title>Node20</title>
<g id="a_node19"><a xlink:href="_scene_parser_8hpp.html" target="_top" xlink:title="SceneParser.hpp">
<polygon fill="none" stroke="black" points="1082.72,-55.5 1082.72,-73.5 1175.44,-73.5 1175.44,-55.5 1082.72,-55.5"/>
<text text-anchor="middle" x="1129.08" y="-61.5" font-family="Helvetica,sans-Serif" font-size="10.00">SceneParser.hpp</text>
</a>
</g>
</g>
<!-- Node17&#45;&gt;Node20 -->
<g id="edge25" class="edge"><title>Node17&#45;&gt;Node20</title>
<path fill="none" stroke="midnightblue" d="M975.301,-107.73C1012.19,-97.6003 1066.57,-82.6655 1099.81,-73.5383"/>
<polygon fill="midnightblue" stroke="midnightblue" points="974.11,-104.427 965.394,-110.45 975.963,-111.177 974.11,-104.427"/>
</g>
<!-- Node22 -->
<g id="node21" class="node"><title>Node22</title>
<g id="a_node21"><a xlink:href="_physics_manager_8cpp.html" target="_top" xlink:title="PhysicsManager.cpp">
<polygon fill="none" stroke="black" points="1268.94,-55.5 1268.94,-73.5 1377.22,-73.5 1377.22,-55.5 1268.94,-55.5"/>
<text text-anchor="middle" x="1323.08" y="-61.5" font-family="Helvetica,sans-Serif" font-size="10.00">PhysicsManager.cpp</text>
</a>
</g>
</g>
<!-- Node17&#45;&gt;Node22 -->
<g id="edge32" class="edge"><title>Node17&#45;&gt;Node22</title>
<path fill="none" stroke="midnightblue" d="M992.06,-110.834C1066.09,-100.695 1195.7,-82.945 1268.85,-72.9276"/>
<polygon fill="midnightblue" stroke="midnightblue" points="991.427,-107.388 981.995,-112.212 992.377,-114.323 991.427,-107.388"/>
</g>
<!-- Node18&#45;&gt;Node7 -->
<g id="edge23" class="edge"><title>Node18&#45;&gt;Node7</title>
<path fill="none" stroke="midnightblue" d="M1012.02,-50.0507C996.497,-40.1393 975.892,-26.9817 962.806,-18.6253"/>
<polygon fill="midnightblue" stroke="midnightblue" points="1010.16,-53.0184 1020.48,-55.4504 1013.93,-47.1186 1010.16,-53.0184"/>
</g>
<!-- Node19 -->
<g id="node18" class="node"><title>Node19</title>
<g id="a_node18"><a xlink:href="_scene_8cpp.html" target="_top" xlink:title="Scene.cpp">
<polygon fill="none" stroke="black" points="1001.45,-0.5 1001.45,-18.5 1064.71,-18.5 1064.71,-0.5 1001.45,-0.5"/>
<text text-anchor="middle" x="1033.08" y="-6.5" font-family="Helvetica,sans-Serif" font-size="10.00">Scene.cpp</text>
</a>
</g>
</g>
<!-- Node18&#45;&gt;Node19 -->
<g id="edge24" class="edge"><title>Node18&#45;&gt;Node19</title>
<path fill="none" stroke="midnightblue" d="M1033.08,-45.1746C1033.08,-36.0945 1033.08,-25.5949 1033.08,-18.5496"/>
<polygon fill="midnightblue" stroke="midnightblue" points="1029.58,-45.2187 1033.08,-55.2188 1036.58,-45.2188 1029.58,-45.2187"/>
</g>
<!-- Node20&#45;&gt;Node7 -->
<g id="edge26" class="edge"><title>Node20&#45;&gt;Node7</title>
<path fill="none" stroke="midnightblue" d="M1092.27,-52.5996C1058.06,-42.4728 1007.92,-27.6265 977.229,-18.5383"/>
<polygon fill="midnightblue" stroke="midnightblue" points="1091.31,-55.9673 1101.89,-55.4504 1093.3,-49.2553 1091.31,-55.9673"/>
</g>
<!-- Node21 -->
<g id="node20" class="node"><title>Node21</title>
<g id="a_node20"><a xlink:href="_scene_parser_8cpp.html" target="_top" xlink:title="SceneParser.cpp">
<polygon fill="none" stroke="black" points="1083,-0.5 1083,-18.5 1175.16,-18.5 1175.16,-0.5 1083,-0.5"/>
<text text-anchor="middle" x="1129.08" y="-6.5" font-family="Helvetica,sans-Serif" font-size="10.00">SceneParser.cpp</text>
</a>
</g>
</g>
<!-- Node20&#45;&gt;Node21 -->
<g id="edge27" class="edge"><title>Node20&#45;&gt;Node21</title>
<path fill="none" stroke="midnightblue" d="M1129.08,-45.1746C1129.08,-36.0945 1129.08,-25.5949 1129.08,-18.5496"/>
<polygon fill="midnightblue" stroke="midnightblue" points="1125.58,-45.2187 1129.08,-55.2188 1132.58,-45.2188 1125.58,-45.2187"/>
</g>
<!-- Node23&#45;&gt;Node7 -->
<g id="edge37" class="edge"><title>Node23&#45;&gt;Node7</title>
<path fill="none" stroke="midnightblue" d="M653.523,-100.223C654.902,-85.7826 659.241,-66.2481 672.081,-55 708.02,-23.5173 851.196,-14.1674 916.862,-11.5064"/>
<polygon fill="midnightblue" stroke="midnightblue" points="650.015,-100.275 652.946,-110.456 657.003,-100.669 650.015,-100.275"/>
</g>
<!-- Node23&#45;&gt;Node8 -->
<g id="edge36" class="edge"><title>Node23&#45;&gt;Node8</title>
<path fill="none" stroke="midnightblue" d="M632.359,-104.772C617.449,-94.8937 597.841,-81.9036 585.346,-73.6253"/>
<polygon fill="midnightblue" stroke="midnightblue" points="630.661,-107.845 640.931,-110.45 634.527,-102.01 630.661,-107.845"/>
</g>
<!-- Node24&#45;&gt;Node7 -->
<g id="edge40" class="edge"><title>Node24&#45;&gt;Node7</title>
<path fill="none" stroke="midnightblue" d="M1464.68,-104.324C1441.14,-87.4126 1402.56,-60.7004 1386.08,-55 1219.9,2.48342 1166.07,-44.4774 992.081,-19 989.284,-18.5904 986.392,-18.1151 983.494,-17.6027"/>
<polygon fill="midnightblue" stroke="midnightblue" points="1462.74,-107.236 1472.89,-110.262 1466.84,-101.565 1462.74,-107.236"/>
</g>
<!-- Node24&#45;&gt;Node22 -->
<g id="edge47" class="edge"><title>Node24&#45;&gt;Node22</title>
<path fill="none" stroke="midnightblue" d="M1449.77,-107.206C1419.05,-97.0914 1374.75,-82.5095 1347.5,-73.5383"/>
<polygon fill="midnightblue" stroke="midnightblue" points="1449.04,-110.648 1459.63,-110.45 1451.22,-103.999 1449.04,-110.648"/>
</g>
<!-- Node25 -->
<g id="node24" class="node"><title>Node25</title>
<g id="a_node24"><a xlink:href="_collider_8cpp.html" target="_top" xlink:title="Collider.cpp">
<polygon fill="none" stroke="black" points="1650.95,-55.5 1650.95,-73.5 1719.21,-73.5 1719.21,-55.5 1650.95,-55.5"/>
<text text-anchor="middle" x="1685.08" y="-61.5" font-family="Helvetica,sans-Serif" font-size="10.00">Collider.cpp</text>
</a>
</g>
</g>
<!-- Node24&#45;&gt;Node25 -->
<g id="edge39" class="edge"><title>Node24&#45;&gt;Node25</title>
<path fill="none" stroke="midnightblue" d="M1524.44,-107.859C1562.86,-97.728 1619.83,-82.7046 1654.6,-73.5383"/>
<polygon fill="midnightblue" stroke="midnightblue" points="1523.39,-104.516 1514.61,-110.45 1525.17,-111.285 1523.39,-104.516"/>
</g>
<!-- Node26 -->
<g id="node25" class="node"><title>Node26</title>
<g id="a_node25"><a xlink:href="_particle_system_8hpp.html" target="_top" xlink:title="ParticleSystem.hpp">
<polygon fill="none" stroke="black" points="1433.01,-55.5 1433.01,-73.5 1535.15,-73.5 1535.15,-55.5 1433.01,-55.5"/>
<text text-anchor="middle" x="1484.08" y="-61.5" font-family="Helvetica,sans-Serif" font-size="10.00">ParticleSystem.hpp</text>
</a>
</g>
</g>
<!-- Node24&#45;&gt;Node26 -->
<g id="edge41" class="edge"><title>Node24&#45;&gt;Node26</title>
<path fill="none" stroke="midnightblue" d="M1484.08,-100.175C1484.08,-91.0945 1484.08,-80.5949 1484.08,-73.5496"/>
<polygon fill="midnightblue" stroke="midnightblue" points="1480.58,-100.219 1484.08,-110.219 1487.58,-100.219 1480.58,-100.219"/>
</g>
<!-- Node28 -->
<g id="node27" class="node"><title>Node28</title>
<g id="a_node27"><a xlink:href="_particle_controller_8hpp.html" target="_top" xlink:title="ParticleController.hpp">
<polygon fill="none" stroke="black" points="1737.28,-55.5 1737.28,-73.5 1848.89,-73.5 1848.89,-55.5 1737.28,-55.5"/>
<text text-anchor="middle" x="1793.08" y="-61.5" font-family="Helvetica,sans-Serif" font-size="10.00">ParticleController.hpp</text>
</a>
</g>
</g>
<!-- Node24&#45;&gt;Node28 -->
<g id="edge45" class="edge"><title>Node24&#45;&gt;Node28</title>
<path fill="none" stroke="midnightblue" d="M1534.3,-109.887C1592.93,-99.8309 1689.13,-83.3305 1746.26,-73.5314"/>
<polygon fill="midnightblue" stroke="midnightblue" points="1533.42,-106.485 1524.16,-111.626 1534.61,-113.385 1533.42,-106.485"/>
</g>
<!-- Node29 -->
<g id="node28" class="node"><title>Node29</title>
<g id="a_node28"><a xlink:href="_scriptable_8cpp.html" target="_top" xlink:title="Scriptable.cpp">
<polygon fill="none" stroke="black" points="1553.4,-55.5 1553.4,-73.5 1632.77,-73.5 1632.77,-55.5 1553.4,-55.5"/>
<text text-anchor="middle" x="1593.08" y="-61.5" font-family="Helvetica,sans-Serif" font-size="10.00">Scriptable.cpp</text>
</a>
</g>
</g>
<!-- Node24&#45;&gt;Node29 -->
<g id="edge48" class="edge"><title>Node24&#45;&gt;Node29</title>
<path fill="none" stroke="midnightblue" d="M1509.76,-106.013C1530.34,-96.0052 1558.62,-82.2551 1576.37,-73.6253"/>
<polygon fill="midnightblue" stroke="midnightblue" points="1508.1,-102.93 1500.64,-110.45 1511.16,-109.225 1508.1,-102.93"/>
</g>
<!-- Node26&#45;&gt;Node7 -->
<g id="edge42" class="edge"><title>Node26&#45;&gt;Node7</title>
<path fill="none" stroke="midnightblue" d="M1422.42,-55.3652C1421.3,-55.2405 1420.18,-55.1186 1419.08,-55 1229.72,-34.6472 1180.62,-45.9338 992.081,-19 989.282,-18.6002 986.389,-18.1318 983.491,-17.624"/>
<polygon fill="midnightblue" stroke="midnightblue" points="1422.32,-58.8775 1432.66,-56.5542 1423.13,-51.9242 1422.32,-58.8775"/>
</g>
<!-- Node26&#45;&gt;Node14 -->
<g id="edge43" class="edge"><title>Node26&#45;&gt;Node14</title>
<path fill="none" stroke="midnightblue" d="M1447.27,-52.5996C1413.06,-42.4728 1362.92,-27.6265 1332.23,-18.5383"/>
<polygon fill="midnightblue" stroke="midnightblue" points="1446.31,-55.9673 1456.89,-55.4504 1448.3,-49.2553 1446.31,-55.9673"/>
</g>
<!-- Node27 -->
<g id="node26" class="node"><title>Node27</title>
<g id="a_node26"><a xlink:href="_particle_system_8cpp.html" target="_top" xlink:title="ParticleSystem.cpp">
<polygon fill="none" stroke="black" points="1433.29,-0.5 1433.29,-18.5 1534.87,-18.5 1534.87,-0.5 1433.29,-0.5"/>
<text text-anchor="middle" x="1484.08" y="-6.5" font-family="Helvetica,sans-Serif" font-size="10.00">ParticleSystem.cpp</text>
</a>
</g>
</g>
<!-- Node26&#45;&gt;Node27 -->
<g id="edge44" class="edge"><title>Node26&#45;&gt;Node27</title>
<path fill="none" stroke="midnightblue" d="M1484.08,-45.1746C1484.08,-36.0945 1484.08,-25.5949 1484.08,-18.5496"/>
<polygon fill="midnightblue" stroke="midnightblue" points="1480.58,-45.2187 1484.08,-55.2188 1487.58,-45.2188 1480.58,-45.2187"/>
</g>
<!-- Node28&#45;&gt;Node14 -->
<g id="edge46" class="edge"><title>Node28&#45;&gt;Node14</title>
<path fill="none" stroke="midnightblue" d="M1726.76,-54.8713C1589.12,-38.7356 1439.9,-23.6903 1360.9,-15.9197"/>
<polygon fill="midnightblue" stroke="midnightblue" points="1726.73,-58.3919 1737.07,-56.0847 1727.55,-51.4399 1726.73,-58.3919"/>
</g>
<!-- Node32&#45;&gt;Node7 -->
<g id="edge54" class="edge"><title>Node32&#45;&gt;Node7</title>
<path fill="none" stroke="midnightblue" d="M1136.46,-107.049C1167.01,-95.772 1202.39,-77.0632 1184.08,-55 1156.36,-21.5955 1034.69,-27.3056 992.081,-19 989.306,-18.4591 986.43,-17.8915 983.543,-17.3171"/>
<polygon fill="midnightblue" stroke="midnightblue" points="1135.06,-103.83 1126.79,-110.444 1137.38,-110.435 1135.06,-103.83"/>
</g>
<!-- Node32&#45;&gt;Node15 -->
<g id="edge55" class="edge"><title>Node32&#45;&gt;Node15</title>
<path fill="none" stroke="midnightblue" d="M1059.86,-107.73C1022.97,-97.6003 968.59,-82.6655 935.353,-73.5383"/>
<polygon fill="midnightblue" stroke="midnightblue" points="1059.2,-111.177 1069.77,-110.45 1061.05,-104.427 1059.2,-111.177"/>
</g>
<!-- Node32&#45;&gt;Node20 -->
<g id="edge52" class="edge"><title>Node32&#45;&gt;Node20</title>
<path fill="none" stroke="midnightblue" d="M1108.78,-101.363C1114.07,-92.0242 1120.36,-80.9046 1124.52,-73.5496"/>
<polygon fill="midnightblue" stroke="midnightblue" points="1105.65,-99.7921 1103.77,-110.219 1111.74,-103.24 1105.65,-99.7921"/>
</g>
<!-- Node32&#45;&gt;Node26 -->
<g id="edge53" class="edge"><title>Node32&#45;&gt;Node26</title>
<path fill="none" stroke="midnightblue" d="M1148.9,-109.93C1255.81,-93.718 1368.77,-79.4575 1432.76,-71.6482"/>
<polygon fill="midnightblue" stroke="midnightblue" points="1148.26,-106.487 1138.91,-111.454 1149.32,-113.407 1148.26,-106.487"/>
</g>
</g>
</svg>
