<?xml version="1.0" encoding="UTF-8" standalone="no"?>
<!DOCTYPE svg PUBLIC "-//W3C//DTD SVG 1.1//EN"
 "http://www.w3.org/Graphics/SVG/1.1/DTD/svg11.dtd">
<!-- Generated by graphviz version 2.38.0 (20140413.2041)
 -->
<!-- Title: DebugDraw.hpp Pages: 1 -->
<svg width="505pt" height="247pt"
 viewBox="0.00 0.00 505.16 247.00" xmlns="http://www.w3.org/2000/svg" xmlns:xlink="http://www.w3.org/1999/xlink">
<g id="graph0" class="graph" transform="scale(1 1) rotate(0) translate(4 243)">
<title>DebugDraw.hpp</title>
<!-- Node11 -->
<g id="node1" class="node"><title>Node11</title>
<polygon fill="#bfbfbf" stroke="black" points="162.16,-220.5 162.16,-238.5 249.879,-238.5 249.879,-220.5 162.16,-220.5"/>
<text text-anchor="middle" x="206.02" y="-226.5" font-family="Helvetica,sans-Serif" font-size="10.00">DebugDraw.hpp</text>
</g>
<!-- Node12 -->
<g id="node2" class="node"><title>Node12</title>
<g id="a_node2"><a xlink:href="_debug_draw_8cpp.html" target="_top" xlink:title="DebugDraw.cpp">
<polygon fill="none" stroke="black" points="104.441,-165.5 104.441,-183.5 191.598,-183.5 191.598,-165.5 104.441,-165.5"/>
<text text-anchor="middle" x="148.02" y="-171.5" font-family="Helvetica,sans-Serif" font-size="10.00">DebugDraw.cpp</text>
</a>
</g>
</g>
<!-- Node11&#45;&gt;Node12 -->
<g id="edge1" class="edge"><title>Node11&#45;&gt;Node12</title>
<path fill="none" stroke="midnightblue" d="M189.491,-213.397C178.862,-203.683 165.471,-191.447 156.828,-183.55"/>
<polygon fill="midnightblue" stroke="midnightblue" points="187.214,-216.057 196.957,-220.219 191.936,-210.889 187.214,-216.057"/>
</g>
<!-- Node13 -->
<g id="node3" class="node"><title>Node13</title>
<g id="a_node3"><a xlink:href="_physics_manager_8hpp.html" target="_top" xlink:title="PhysicsManager.hpp">
<polygon fill="none" stroke="black" points="209.601,-165.5 209.601,-183.5 318.438,-183.5 318.438,-165.5 209.601,-165.5"/>
<text text-anchor="middle" x="264.02" y="-171.5" font-family="Helvetica,sans-Serif" font-size="10.00">PhysicsManager.hpp</text>
</a>
</g>
</g>
<!-- Node11&#45;&gt;Node13 -->
<g id="edge2" class="edge"><title>Node11&#45;&gt;Node13</title>
<path fill="none" stroke="midnightblue" d="M222.548,-213.397C233.177,-203.683 246.569,-191.447 255.211,-183.55"/>
<polygon fill="midnightblue" stroke="midnightblue" points="220.103,-210.889 215.082,-220.219 224.825,-216.057 220.103,-210.889"/>
</g>
<!-- Node14 -->
<g id="node4" class="node"><title>Node14</title>
<g id="a_node4"><a xlink:href="_rigidbody_8hpp.html" target="_top" xlink:title="Rigidbody.hpp">
<polygon fill="none" stroke="black" points="127.42,-110.5 127.42,-128.5 206.619,-128.5 206.619,-110.5 127.42,-110.5"/>
<text text-anchor="middle" x="167.02" y="-116.5" font-family="Helvetica,sans-Serif" font-size="10.00">Rigidbody.hpp</text>
</a>
</g>
</g>
<!-- Node13&#45;&gt;Node14 -->
<g id="edge3" class="edge"><title>Node13&#45;&gt;Node14</title>
<path fill="none" stroke="midnightblue" d="M240.416,-160.603C222.168,-150.633 197.47,-137.138 181.89,-128.625"/>
<polygon fill="midnightblue" stroke="midnightblue" points="238.834,-163.727 249.287,-165.45 242.19,-157.584 238.834,-163.727"/>
</g>
<!-- Node16 -->
<g id="node6" class="node"><title>Node16</title>
<g id="a_node6"><a xlink:href="_engine_8cpp.html" target="_top" xlink:title="Engine.cpp">
<polygon fill="none" stroke="black" points="0,-0.5 0,-18.5 66.0391,-18.5 66.0391,-0.5 0,-0.5"/>
<text text-anchor="middle" x="33.0195" y="-6.5" font-family="Helvetica,sans-Serif" font-size="10.00">Engine.cpp</text>
</a>
</g>
</g>
<!-- Node13&#45;&gt;Node16 -->
<g id="edge12" class="edge"><title>Node13&#45;&gt;Node16</title>
<path fill="none" stroke="midnightblue" d="M219.249,-163.01C151.961,-146.188 30.1451,-111.267 7.01953,-74 -4.4121,-55.5777 13.5519,-31.2547 24.8925,-18.7322"/>
<polygon fill="midnightblue" stroke="midnightblue" points="218.612,-166.457 229.159,-165.455 220.289,-159.661 218.612,-166.457"/>
</g>
<!-- Node19 -->
<g id="node9" class="node"><title>Node19</title>
<g id="a_node9"><a xlink:href="_particle_system_8cpp.html" target="_top" xlink:title="ParticleSystem.cpp">
<polygon fill="none" stroke="black" points="270.227,-0.5 270.227,-18.5 371.812,-18.5 371.812,-0.5 270.227,-0.5"/>
<text text-anchor="middle" x="321.02" y="-6.5" font-family="Helvetica,sans-Serif" font-size="10.00">ParticleSystem.cpp</text>
</a>
</g>
</g>
<!-- Node13&#45;&gt;Node19 -->
<g id="edge13" class="edge"><title>Node13&#45;&gt;Node19</title>
<path fill="none" stroke="midnightblue" d="M281.067,-158.667C300.154,-140.815 329.986,-108.856 342.02,-74 348.84,-54.2435 335.687,-30.8762 327.277,-18.743"/>
<polygon fill="midnightblue" stroke="midnightblue" points="278.679,-156.109 273.628,-165.422 283.385,-161.291 278.679,-156.109"/>
</g>
<!-- Node21 -->
<g id="node11" class="node"><title>Node21</title>
<g id="a_node11"><a xlink:href="_physics_manager_8cpp.html" target="_top" xlink:title="PhysicsManager.cpp">
<polygon fill="none" stroke="black" points="388.882,-110.5 388.882,-128.5 497.157,-128.5 497.157,-110.5 388.882,-110.5"/>
<text text-anchor="middle" x="443.02" y="-116.5" font-family="Helvetica,sans-Serif" font-size="10.00">PhysicsManager.cpp</text>
</a>
</g>
</g>
<!-- Node13&#45;&gt;Node21 -->
<g id="edge14" class="edge"><title>Node13&#45;&gt;Node21</title>
<path fill="none" stroke="midnightblue" d="M300.834,-162.6C335.036,-152.473 385.177,-137.627 415.871,-128.538"/>
<polygon fill="midnightblue" stroke="midnightblue" points="299.801,-159.255 291.206,-165.45 301.788,-165.967 299.801,-159.255"/>
</g>
<!-- Node15 -->
<g id="node5" class="node"><title>Node15</title>
<g id="a_node5"><a xlink:href="_scene_parser_8hpp.html" target="_top" xlink:title="SceneParser.hpp">
<polygon fill="none" stroke="black" points="120.658,-55.5 120.658,-73.5 213.381,-73.5 213.381,-55.5 120.658,-55.5"/>
<text text-anchor="middle" x="167.02" y="-61.5" font-family="Helvetica,sans-Serif" font-size="10.00">SceneParser.hpp</text>
</a>
</g>
</g>
<!-- Node14&#45;&gt;Node15 -->
<g id="edge4" class="edge"><title>Node14&#45;&gt;Node15</title>
<path fill="none" stroke="midnightblue" d="M167.02,-100.175C167.02,-91.0945 167.02,-80.5949 167.02,-73.5496"/>
<polygon fill="midnightblue" stroke="midnightblue" points="163.52,-100.219 167.02,-110.219 170.52,-100.219 163.52,-100.219"/>
</g>
<!-- Node14&#45;&gt;Node16 -->
<g id="edge10" class="edge"><title>Node14&#45;&gt;Node16</title>
<path fill="none" stroke="midnightblue" d="M117.1,-110.479C77.7165,-103.013 27.4182,-90.549 15.0195,-74 2.37769,-57.1265 17.2073,-31.7044 26.549,-18.7393"/>
<polygon fill="midnightblue" stroke="midnightblue" points="116.638,-113.953 127.105,-112.315 117.901,-107.068 116.638,-113.953"/>
</g>
<!-- Node18 -->
<g id="node8" class="node"><title>Node18</title>
<g id="a_node8"><a xlink:href="_particle_system_8hpp.html" target="_top" xlink:title="ParticleSystem.hpp">
<polygon fill="none" stroke="black" points="230.946,-55.5 230.946,-73.5 333.093,-73.5 333.093,-55.5 230.946,-55.5"/>
<text text-anchor="middle" x="282.02" y="-61.5" font-family="Helvetica,sans-Serif" font-size="10.00">ParticleSystem.hpp</text>
</a>
</g>
</g>
<!-- Node14&#45;&gt;Node18 -->
<g id="edge7" class="edge"><title>Node14&#45;&gt;Node18</title>
<path fill="none" stroke="midnightblue" d="M193.821,-106.148C215.559,-96.1297 245.579,-82.2941 264.389,-73.6253"/>
<polygon fill="midnightblue" stroke="midnightblue" points="192.102,-103.086 184.486,-110.45 195.032,-109.443 192.102,-103.086"/>
</g>
<!-- Node20 -->
<g id="node10" class="node"><title>Node20</title>
<g id="a_node10"><a xlink:href="_rigidbody_8cpp.html" target="_top" xlink:title="Rigidbody.cpp">
<polygon fill="none" stroke="black" points="23.7012,-55.5 23.7012,-73.5 102.338,-73.5 102.338,-55.5 23.7012,-55.5"/>
<text text-anchor="middle" x="63.0195" y="-61.5" font-family="Helvetica,sans-Serif" font-size="10.00">Rigidbody.cpp</text>
</a>
</g>
</g>
<!-- Node14&#45;&gt;Node20 -->
<g id="edge11" class="edge"><title>Node14&#45;&gt;Node20</title>
<path fill="none" stroke="midnightblue" d="M142.249,-105.877C122.635,-95.8808 95.8208,-82.216 78.9635,-73.6253"/>
<polygon fill="midnightblue" stroke="midnightblue" points="140.725,-109.028 151.224,-110.45 143.904,-102.791 140.725,-109.028"/>
</g>
<!-- Node15&#45;&gt;Node16 -->
<g id="edge5" class="edge"><title>Node15&#45;&gt;Node16</title>
<path fill="none" stroke="midnightblue" d="M137.15,-51.686C111.725,-41.63 75.8751,-27.4503 53.5628,-18.6253"/>
<polygon fill="midnightblue" stroke="midnightblue" points="136.081,-55.0271 146.668,-55.4504 138.656,-48.5177 136.081,-55.0271"/>
</g>
<!-- Node17 -->
<g id="node7" class="node"><title>Node17</title>
<g id="a_node7"><a xlink:href="_scene_parser_8cpp.html" target="_top" xlink:title="SceneParser.cpp">
<polygon fill="none" stroke="black" points="120.938,-0.5 120.938,-18.5 213.101,-18.5 213.101,-0.5 120.938,-0.5"/>
<text text-anchor="middle" x="167.02" y="-6.5" font-family="Helvetica,sans-Serif" font-size="10.00">SceneParser.cpp</text>
</a>
</g>
</g>
<!-- Node15&#45;&gt;Node17 -->
<g id="edge6" class="edge"><title>Node15&#45;&gt;Node17</title>
<path fill="none" stroke="midnightblue" d="M167.02,-45.1746C167.02,-36.0945 167.02,-25.5949 167.02,-18.5496"/>
<polygon fill="midnightblue" stroke="midnightblue" points="163.52,-45.2187 167.02,-55.2188 170.52,-45.2188 163.52,-45.2187"/>
</g>
<!-- Node18&#45;&gt;Node16 -->
<g id="edge8" class="edge"><title>Node18&#45;&gt;Node16</title>
<path fill="none" stroke="midnightblue" d="M234.114,-53.3033C184.884,-42.8246 109.522,-26.7837 66.3989,-17.6048"/>
<polygon fill="midnightblue" stroke="midnightblue" points="233.692,-56.7918 244.202,-55.4504 235.15,-49.9452 233.692,-56.7918"/>
</g>
<!-- Node18&#45;&gt;Node19 -->
<g id="edge9" class="edge"><title>Node18&#45;&gt;Node19</title>
<path fill="none" stroke="midnightblue" d="M294.197,-46.9507C301.156,-37.4941 309.57,-26.0595 315.096,-18.5496"/>
<polygon fill="midnightblue" stroke="midnightblue" points="291.221,-45.09 288.113,-55.2188 296.859,-49.2388 291.221,-45.09"/>
</g>
</g>
</svg>
