<?xml version="1.0" encoding="UTF-8" standalone="no"?>
<!DOCTYPE svg PUBLIC "-//W3C//DTD SVG 1.1//EN"
 "http://www.w3.org/Graphics/SVG/1.1/DTD/svg11.dtd">
<!-- Generated by graphviz version 2.38.0 (20140413.2041)
 -->
<!-- Title: Engine.hpp Pages: 1 -->
<svg width="520pt" height="137pt"
 viewBox="0.00 0.00 520.30 137.00" xmlns="http://www.w3.org/2000/svg" xmlns:xlink="http://www.w3.org/1999/xlink">
<g id="graph0" class="graph" transform="scale(1 1) rotate(0) translate(4 133)">
<title>Engine.hpp</title>
<!-- Node0 -->
<g id="node1" class="node"><title>Node0</title>
<polygon fill="#bfbfbf" stroke="black" points="225.934,-110.5 225.934,-128.5 292.534,-128.5 292.534,-110.5 225.934,-110.5"/>
<text text-anchor="middle" x="259.234" y="-116.5" font-family="Helvetica,sans-Serif" font-size="10.00">Engine.hpp</text>
</g>
<!-- Node1 -->
<g id="node2" class="node"><title>Node1</title>
<polygon fill="none" stroke="#bfbfbf" points="0,-0.5 0,-18.5 70.4678,-18.5 70.4678,-0.5 0,-0.5"/>
<text text-anchor="middle" x="35.2339" y="-6.5" font-family="Helvetica,sans-Serif" font-size="10.00">glm/glm.hpp</text>
</g>
<!-- Node0&#45;&gt;Node1 -->
<g id="edge1" class="edge"><title>Node0&#45;&gt;Node1</title>
<path fill="none" stroke="midnightblue" d="M242.397,-110.382C203.547,-91.6509 107.422,-45.3051 61.0596,-22.9517"/>
<polygon fill="midnightblue" stroke="midnightblue" points="62.4879,-19.7548 51.9601,-18.5644 59.4477,-26.0602 62.4879,-19.7548"/>
</g>
<!-- Node2 -->
<g id="node3" class="node"><title>Node2</title>
<polygon fill="none" stroke="#bfbfbf" points="88.5815,-0.5 88.5815,-18.5 241.886,-18.5 241.886,-0.5 88.5815,-0.5"/>
<text text-anchor="middle" x="165.234" y="-6.5" font-family="Helvetica,sans-Serif" font-size="10.00">SRE/SimpleRenderEngine.hpp</text>
</g>
<!-- Node0&#45;&gt;Node2 -->
<g id="edge2" class="edge"><title>Node0&#45;&gt;Node2</title>
<path fill="none" stroke="midnightblue" d="M236.782,-110.415C220.013,-103.281 197.746,-91.3024 184.234,-74 174.053,-60.9629 169.315,-42.5449 167.117,-28.8998"/>
<polygon fill="midnightblue" stroke="midnightblue" points="170.562,-28.2501 165.805,-18.7834 163.62,-29.1506 170.562,-28.2501"/>
</g>
<!-- Node3 -->
<g id="node4" class="node"><title>Node3</title>
<polygon fill="none" stroke="#bfbfbf" points="273.337,-55.5 273.337,-73.5 317.13,-73.5 317.13,-55.5 273.337,-55.5"/>
<text text-anchor="middle" x="295.234" y="-61.5" font-family="Helvetica,sans-Serif" font-size="10.00">SDL.h</text>
</g>
<!-- Node0&#45;&gt;Node3 -->
<g id="edge3" class="edge"><title>Node0&#45;&gt;Node3</title>
<path fill="none" stroke="midnightblue" d="M264.859,-110.219C269.961,-102.707 277.634,-91.411 283.991,-82.0515"/>
<polygon fill="midnightblue" stroke="midnightblue" points="287.043,-83.7883 289.766,-73.5496 281.252,-79.8551 287.043,-83.7883"/>
</g>
<!-- Node4 -->
<g id="node5" class="node"><title>Node4</title>
<polygon fill="none" stroke="#bfbfbf" points="335.062,-55.5 335.062,-73.5 389.406,-73.5 389.406,-55.5 335.062,-55.5"/>
<text text-anchor="middle" x="362.234" y="-61.5" font-family="Helvetica,sans-Serif" font-size="10.00">iostream</text>
</g>
<!-- Node0&#45;&gt;Node4 -->
<g id="edge4" class="edge"><title>Node0&#45;&gt;Node4</title>
<path fill="none" stroke="midnightblue" d="M274.877,-110.45C291.514,-101.89 318.062,-88.2291 337.53,-78.2119"/>
<polygon fill="midnightblue" stroke="midnightblue" points="339.153,-81.313 346.443,-73.6253 335.95,-75.0886 339.153,-81.313"/>
</g>
<!-- Node5 -->
<g id="node6" class="node"><title>Node5</title>
<g id="a_node6"><a xlink:href="_sprite_8hpp.html" target="_top" xlink:title="Sprite.hpp">
<polygon fill="none" stroke="black" points="193.441,-55.5 193.441,-73.5 255.027,-73.5 255.027,-55.5 193.441,-55.5"/>
<text text-anchor="middle" x="224.234" y="-61.5" font-family="Helvetica,sans-Serif" font-size="10.00">Sprite.hpp</text>
</a>
</g>
</g>
<!-- Node0&#45;&gt;Node5 -->
<g id="edge5" class="edge"><title>Node0&#45;&gt;Node5</title>
<path fill="none" stroke="midnightblue" d="M253.765,-110.219C248.805,-102.707 241.345,-91.411 235.164,-82.0515"/>
<polygon fill="midnightblue" stroke="midnightblue" points="237.981,-79.9655 229.55,-73.5496 232.14,-83.823 237.981,-79.9655"/>
</g>
<!-- Node9 -->
<g id="node10" class="node"><title>Node9</title>
<polygon fill="none" stroke="#bfbfbf" points="407.842,-55.5 407.842,-73.5 446.625,-73.5 446.625,-55.5 407.842,-55.5"/>
<text text-anchor="middle" x="427.234" y="-61.5" font-family="Helvetica,sans-Serif" font-size="10.00">array</text>
</g>
<!-- Node0&#45;&gt;Node9 -->
<g id="edge11" class="edge"><title>Node0&#45;&gt;Node9</title>
<path fill="none" stroke="midnightblue" d="M284.749,-110.45C315.23,-100.835 366.107,-84.7841 398.103,-74.6903"/>
<polygon fill="midnightblue" stroke="midnightblue" points="399.294,-77.9845 407.777,-71.638 397.188,-71.3089 399.294,-77.9845"/>
</g>
<!-- Node5&#45;&gt;Node1 -->
<g id="edge6" class="edge"><title>Node5&#45;&gt;Node1</title>
<path fill="none" stroke="midnightblue" d="M195.529,-55.4504C162.964,-46.3184 109.704,-31.3833 73.5967,-21.2578"/>
<polygon fill="midnightblue" stroke="midnightblue" points="74.4724,-17.8685 63.8988,-18.5383 72.5823,-24.6085 74.4724,-17.8685"/>
</g>
<!-- Node5&#45;&gt;Node2 -->
<g id="edge9" class="edge"><title>Node5&#45;&gt;Node2</title>
<path fill="none" stroke="midnightblue" d="M215.273,-55.4504C206.436,-47.5123 192.718,-35.1891 181.878,-25.4519"/>
<polygon fill="midnightblue" stroke="midnightblue" points="184.057,-22.7043 174.279,-18.6253 179.379,-27.9118 184.057,-22.7043"/>
</g>
<!-- Node6 -->
<g id="node7" class="node"><title>Node6</title>
<polygon fill="none" stroke="#bfbfbf" points="259.606,-0.5 259.606,-18.5 342.862,-18.5 342.862,-0.5 259.606,-0.5"/>
<text text-anchor="middle" x="301.234" y="-6.5" font-family="Helvetica,sans-Serif" font-size="10.00">SRE/Mesh.hpp</text>
</g>
<!-- Node5&#45;&gt;Node6 -->
<g id="edge7" class="edge"><title>Node5&#45;&gt;Node6</title>
<path fill="none" stroke="midnightblue" d="M235.929,-55.4504C247.914,-47.201 266.779,-34.2158 281.158,-24.3187"/>
<polygon fill="midnightblue" stroke="midnightblue" points="283.176,-27.1782 289.429,-18.6253 279.207,-21.4121 283.176,-27.1782"/>
</g>
<!-- Node7 -->
<g id="node8" class="node"><title>Node7</title>
<polygon fill="none" stroke="#bfbfbf" points="360.436,-0.5 360.436,-18.5 452.032,-18.5 452.032,-0.5 360.436,-0.5"/>
<text text-anchor="middle" x="406.234" y="-6.5" font-family="Helvetica,sans-Serif" font-size="10.00">SRE/Texture.hpp</text>
</g>
<!-- Node5&#45;&gt;Node7 -->
<g id="edge8" class="edge"><title>Node5&#45;&gt;Node7</title>
<path fill="none" stroke="midnightblue" d="M251.876,-55.4504C283.101,-46.3575 334.084,-31.5108 368.845,-21.3879"/>
<polygon fill="midnightblue" stroke="midnightblue" points="370.008,-24.6947 378.631,-18.5383 368.051,-17.9739 370.008,-24.6947"/>
</g>
<!-- Node8 -->
<g id="node9" class="node"><title>Node8</title>
<polygon fill="none" stroke="#bfbfbf" points="470.172,-0.5 470.172,-18.5 512.295,-18.5 512.295,-0.5 470.172,-0.5"/>
<text text-anchor="middle" x="491.234" y="-6.5" font-family="Helvetica,sans-Serif" font-size="10.00">String</text>
</g>
<!-- Node5&#45;&gt;Node8 -->
<g id="edge10" class="edge"><title>Node5&#45;&gt;Node8</title>
<path fill="none" stroke="midnightblue" d="M255.225,-56.8229C258.267,-56.1951 261.309,-55.578 264.234,-55 348.482,-38.3545 372.844,-39.0786 460.189,-19.0611"/>
<polygon fill="midnightblue" stroke="midnightblue" points="461.042,-22.4563 469.994,-16.7885 459.462,-15.637 461.042,-22.4563"/>
</g>
</g>
</svg>
