<?xml version="1.0" encoding="UTF-8" standalone="no"?>
<!DOCTYPE svg PUBLIC "-//W3C//DTD SVG 1.1//EN"
 "http://www.w3.org/Graphics/SVG/1.1/DTD/svg11.dtd">
<!-- Generated by graphviz version 2.38.0 (20140413.2041)
 -->
<!-- Title: Engine.hpp Pages: 1 -->
<svg width="520pt" height="192pt"
 viewBox="0.00 0.00 520.30 192.00" xmlns="http://www.w3.org/2000/svg" xmlns:xlink="http://www.w3.org/1999/xlink">
<g id="graph0" class="graph" transform="scale(1 1) rotate(0) translate(4 188)">
<title>Engine.hpp</title>
<!-- Node0 -->
<g id="node1" class="node"><title>Node0</title>
<polygon fill="#bfbfbf" stroke="black" points="264.934,-165.5 264.934,-183.5 331.534,-183.5 331.534,-165.5 264.934,-165.5"/>
<text text-anchor="middle" x="298.234" y="-171.5" font-family="Helvetica,sans-Serif" font-size="10.00">Engine.hpp</text>
</g>
<!-- Node1 -->
<g id="node2" class="node"><title>Node1</title>
<polygon fill="none" stroke="#bfbfbf" points="0,-0.5 0,-18.5 70.4678,-18.5 70.4678,-0.5 0,-0.5"/>
<text text-anchor="middle" x="35.2339" y="-6.5" font-family="Helvetica,sans-Serif" font-size="10.00">glm/glm.hpp</text>
</g>
<!-- Node0&#45;&gt;Node1 -->
<g id="edge1" class="edge"><title>Node0&#45;&gt;Node1</title>
<path fill="none" stroke="midnightblue" d="M264.904,-165.708C238.144,-158.58 200.219,-146.468 170.234,-129 120.361,-99.9464 72.0396,-50.9653 49.0936,-26.0558"/>
<polygon fill="midnightblue" stroke="midnightblue" points="51.6325,-23.6455 42.3191,-18.5947 46.45,-28.351 51.6325,-23.6455"/>
</g>
<!-- Node2 -->
<g id="node3" class="node"><title>Node2</title>
<polygon fill="none" stroke="#bfbfbf" points="88.5815,-0.5 88.5815,-18.5 241.886,-18.5 241.886,-0.5 88.5815,-0.5"/>
<text text-anchor="middle" x="165.234" y="-6.5" font-family="Helvetica,sans-Serif" font-size="10.00">SRE/SimpleRenderEngine.hpp</text>
</g>
<!-- Node0&#45;&gt;Node2 -->
<g id="edge2" class="edge"><title>Node0&#45;&gt;Node2</title>
<path fill="none" stroke="midnightblue" d="M264.762,-169.439C238.757,-164.448 203.91,-153.391 184.234,-129 160.977,-100.171 160.858,-54.237 162.957,-28.8567"/>
<polygon fill="midnightblue" stroke="midnightblue" points="166.452,-29.0847 164.003,-18.777 159.49,-28.3626 166.452,-29.0847"/>
</g>
<!-- Node3 -->
<g id="node4" class="node"><title>Node3</title>
<polygon fill="none" stroke="#bfbfbf" points="325.337,-110.5 325.337,-128.5 369.13,-128.5 369.13,-110.5 325.337,-110.5"/>
<text text-anchor="middle" x="347.234" y="-116.5" font-family="Helvetica,sans-Serif" font-size="10.00">SDL.h</text>
</g>
<!-- Node0&#45;&gt;Node3 -->
<g id="edge3" class="edge"><title>Node0&#45;&gt;Node3</title>
<path fill="none" stroke="midnightblue" d="M305.89,-165.219C313.052,-157.473 323.935,-145.701 332.737,-136.18"/>
<polygon fill="midnightblue" stroke="midnightblue" points="335.573,-138.268 339.792,-128.55 330.433,-133.516 335.573,-138.268"/>
</g>
<!-- Node4 -->
<g id="node5" class="node"><title>Node4</title>
<polygon fill="none" stroke="#bfbfbf" points="387.062,-110.5 387.062,-128.5 441.406,-128.5 441.406,-110.5 387.062,-110.5"/>
<text text-anchor="middle" x="414.234" y="-116.5" font-family="Helvetica,sans-Serif" font-size="10.00">iostream</text>
</g>
<!-- Node0&#45;&gt;Node4 -->
<g id="edge4" class="edge"><title>Node0&#45;&gt;Node4</title>
<path fill="none" stroke="midnightblue" d="M315.852,-165.45C334.844,-156.773 365.305,-142.856 387.304,-132.804"/>
<polygon fill="midnightblue" stroke="midnightblue" points="388.809,-135.965 396.45,-128.625 385.9,-129.598 388.809,-135.965"/>
</g>
<!-- Node5 -->
<g id="node6" class="node"><title>Node5</title>
<polygon fill="none" stroke="#bfbfbf" points="459.842,-110.5 459.842,-128.5 498.625,-128.5 498.625,-110.5 459.842,-110.5"/>
<text text-anchor="middle" x="479.234" y="-116.5" font-family="Helvetica,sans-Serif" font-size="10.00">array</text>
</g>
<!-- Node0&#45;&gt;Node5 -->
<g id="edge5" class="edge"><title>Node0&#45;&gt;Node5</title>
<path fill="none" stroke="midnightblue" d="M325.724,-165.45C359.153,-155.662 415.354,-139.205 449.687,-129.152"/>
<polygon fill="midnightblue" stroke="midnightblue" points="450.977,-132.421 459.591,-126.252 449.01,-125.703 450.977,-132.421"/>
</g>
<!-- Node6 -->
<g id="node7" class="node"><title>Node6</title>
<g id="a_node7"><a xlink:href="_sprite_and_position_8hpp.html" target="_top" xlink:title="SpriteAndPosition.hpp">
<polygon fill="none" stroke="black" points="192.756,-110.5 192.756,-128.5 307.711,-128.5 307.711,-110.5 192.756,-110.5"/>
<text text-anchor="middle" x="250.234" y="-116.5" font-family="Helvetica,sans-Serif" font-size="10.00">SpriteAndPosition.hpp</text>
</a>
</g>
</g>
<!-- Node0&#45;&gt;Node6 -->
<g id="edge6" class="edge"><title>Node0&#45;&gt;Node6</title>
<path fill="none" stroke="midnightblue" d="M290.734,-165.219C283.719,-157.473 273.058,-145.701 264.435,-136.18"/>
<polygon fill="midnightblue" stroke="midnightblue" points="266.831,-133.612 257.524,-128.55 261.643,-138.311 266.831,-133.612"/>
</g>
<!-- Node6&#45;&gt;Node1 -->
<g id="edge13" class="edge"><title>Node6&#45;&gt;Node1</title>
<path fill="none" stroke="midnightblue" d="M234.074,-110.382C196.862,-91.6901 104.908,-45.4989 60.3018,-23.0923"/>
<polygon fill="midnightblue" stroke="midnightblue" points="61.7951,-19.9256 51.2881,-18.5644 58.6529,-26.1808 61.7951,-19.9256"/>
</g>
<!-- Node7 -->
<g id="node8" class="node"><title>Node7</title>
<g id="a_node8"><a xlink:href="_sprite_8hpp.html" target="_top" xlink:title="Sprite.hpp">
<polygon fill="none" stroke="black" points="263.441,-55.5 263.441,-73.5 325.027,-73.5 325.027,-55.5 263.441,-55.5"/>
<text text-anchor="middle" x="294.234" y="-61.5" font-family="Helvetica,sans-Serif" font-size="10.00">Sprite.hpp</text>
</a>
</g>
</g>
<!-- Node6&#45;&gt;Node7 -->
<g id="edge7" class="edge"><title>Node6&#45;&gt;Node7</title>
<path fill="none" stroke="midnightblue" d="M257.109,-110.219C263.475,-102.551 273.115,-90.9387 280.976,-81.4691"/>
<polygon fill="midnightblue" stroke="midnightblue" points="283.857,-83.4793 287.551,-73.5496 278.471,-79.008 283.857,-83.4793"/>
</g>
<!-- Node10 -->
<g id="node11" class="node"><title>Node10</title>
<polygon fill="none" stroke="#bfbfbf" points="470.172,-0.5 470.172,-18.5 512.295,-18.5 512.295,-0.5 470.172,-0.5"/>
<text text-anchor="middle" x="491.234" y="-6.5" font-family="Helvetica,sans-Serif" font-size="10.00">String</text>
</g>
<!-- Node6&#45;&gt;Node10 -->
<g id="edge14" class="edge"><title>Node6&#45;&gt;Node10</title>
<path fill="none" stroke="midnightblue" d="M268.348,-110.382C310.322,-91.5726 414.433,-44.9168 464.072,-22.6723"/>
<polygon fill="midnightblue" stroke="midnightblue" points="465.544,-25.8479 473.238,-18.5644 462.681,-19.46 465.544,-25.8479"/>
</g>
<!-- Node7&#45;&gt;Node1 -->
<g id="edge8" class="edge"><title>Node7&#45;&gt;Node1</title>
<path fill="none" stroke="midnightblue" d="M263.25,-57.1596C217.933,-47.8863 133.283,-30.5641 80.8462,-19.8338"/>
<polygon fill="midnightblue" stroke="midnightblue" points="81.3082,-16.3559 70.8095,-17.7799 79.9048,-23.2138 81.3082,-16.3559"/>
</g>
<!-- Node7&#45;&gt;Node2 -->
<g id="edge11" class="edge"><title>Node7&#45;&gt;Node2</title>
<path fill="none" stroke="midnightblue" d="M274.642,-55.4504C253.331,-46.6951 219.038,-32.6055 194.526,-22.5346"/>
<polygon fill="midnightblue" stroke="midnightblue" points="195.59,-19.1882 185.011,-18.6253 192.93,-25.6631 195.59,-19.1882"/>
</g>
<!-- Node8 -->
<g id="node9" class="node"><title>Node8</title>
<polygon fill="none" stroke="#bfbfbf" points="368.606,-0.5 368.606,-18.5 451.862,-18.5 451.862,-0.5 368.606,-0.5"/>
<text text-anchor="middle" x="410.234" y="-6.5" font-family="Helvetica,sans-Serif" font-size="10.00">SRE/Mesh.hpp</text>
</g>
<!-- Node7&#45;&gt;Node8 -->
<g id="edge9" class="edge"><title>Node7&#45;&gt;Node8</title>
<path fill="none" stroke="midnightblue" d="M311.852,-55.4504C330.844,-46.7729 361.305,-32.8556 383.304,-22.8041"/>
<polygon fill="midnightblue" stroke="midnightblue" points="384.809,-25.9646 392.45,-18.6253 381.9,-19.5977 384.809,-25.9646"/>
</g>
<!-- Node9 -->
<g id="node10" class="node"><title>Node9</title>
<polygon fill="none" stroke="#bfbfbf" points="259.436,-0.5 259.436,-18.5 351.032,-18.5 351.032,-0.5 259.436,-0.5"/>
<text text-anchor="middle" x="305.234" y="-6.5" font-family="Helvetica,sans-Serif" font-size="10.00">SRE/Texture.hpp</text>
</g>
<!-- Node7&#45;&gt;Node9 -->
<g id="edge10" class="edge"><title>Node7&#45;&gt;Node9</title>
<path fill="none" stroke="midnightblue" d="M295.953,-55.2188C297.43,-48.0986 299.614,-37.5775 301.492,-28.5289"/>
<polygon fill="midnightblue" stroke="midnightblue" points="304.958,-29.0522 303.563,-18.5496 298.104,-27.6296 304.958,-29.0522"/>
</g>
<!-- Node7&#45;&gt;Node10 -->
<g id="edge12" class="edge"><title>Node7&#45;&gt;Node10</title>
<path fill="none" stroke="midnightblue" d="M325.052,-55.4426C356.629,-47.1531 407.393,-33.733 460.083,-19.2862"/>
<polygon fill="midnightblue" stroke="midnightblue" points="461.225,-22.6023 469.94,-16.5777 459.37,-15.8525 461.225,-22.6023"/>
</g>
</g>
</svg>
