<?xml version="1.0" encoding="UTF-8" standalone="no"?>
<!DOCTYPE svg PUBLIC "-//W3C//DTD SVG 1.1//EN"
 "http://www.w3.org/Graphics/SVG/1.1/DTD/svg11.dtd">
<!-- Generated by graphviz version 2.38.0 (20140413.2041)
 -->
<!-- Title: FooDraw2.hpp Pages: 1 -->
<svg width="553pt" height="247pt"
 viewBox="0.00 0.00 553.16 247.00" xmlns="http://www.w3.org/2000/svg" xmlns:xlink="http://www.w3.org/1999/xlink">
<g id="graph0" class="graph" transform="scale(1 1) rotate(0) translate(4 243)">
<title>FooDraw2.hpp</title>
<!-- Node11 -->
<g id="node1" class="node"><title>Node11</title>
<polygon fill="#bfbfbf" stroke="black" points="336.224,-220.5 336.224,-238.5 417.815,-238.5 417.815,-220.5 336.224,-220.5"/>
<text text-anchor="middle" x="377.02" y="-226.5" font-family="Helvetica,sans-Serif" font-size="10.00">FooDraw2.hpp</text>
</g>
<!-- Node12 -->
<g id="node2" class="node"><title>Node12</title>
<g id="a_node2"><a xlink:href="_physics_manager_8hpp.html" target="_top" xlink:title="PhysicsManager.hpp">
<polygon fill="none" stroke="black" points="266.601,-165.5 266.601,-183.5 375.438,-183.5 375.438,-165.5 266.601,-165.5"/>
<text text-anchor="middle" x="321.02" y="-171.5" font-family="Helvetica,sans-Serif" font-size="10.00">PhysicsManager.hpp</text>
</a>
</g>
</g>
<!-- Node11&#45;&gt;Node12 -->
<g id="edge1" class="edge"><title>Node11&#45;&gt;Node12</title>
<path fill="none" stroke="midnightblue" d="M360.759,-213.11C350.545,-203.444 337.787,-191.369 329.525,-183.55"/>
<polygon fill="midnightblue" stroke="midnightblue" points="358.601,-215.887 368.27,-220.219 363.412,-210.803 358.601,-215.887"/>
</g>
<!-- Node22 -->
<g id="node12" class="node"><title>Node22</title>
<g id="a_node12"><a xlink:href="_foo_draw2_8cpp.html" target="_top" xlink:title="FooDraw2.cpp">
<polygon fill="none" stroke="black" points="393.505,-165.5 393.505,-183.5 474.534,-183.5 474.534,-165.5 393.505,-165.5"/>
<text text-anchor="middle" x="434.02" y="-171.5" font-family="Helvetica,sans-Serif" font-size="10.00">FooDraw2.cpp</text>
</a>
</g>
</g>
<!-- Node11&#45;&gt;Node22 -->
<g id="edge15" class="edge"><title>Node11&#45;&gt;Node22</title>
<path fill="none" stroke="midnightblue" d="M393.263,-213.397C403.709,-203.683 416.869,-191.447 425.362,-183.55"/>
<polygon fill="midnightblue" stroke="midnightblue" points="390.866,-210.846 385.926,-220.219 395.632,-215.972 390.866,-210.846"/>
</g>
<!-- Node13 -->
<g id="node3" class="node"><title>Node13</title>
<g id="a_node3"><a xlink:href="_rigidbody_8hpp.html" target="_top" xlink:title="Rigidbody.hpp">
<polygon fill="none" stroke="black" points="194.42,-110.5 194.42,-128.5 273.619,-128.5 273.619,-110.5 194.42,-110.5"/>
<text text-anchor="middle" x="234.02" y="-116.5" font-family="Helvetica,sans-Serif" font-size="10.00">Rigidbody.hpp</text>
</a>
</g>
</g>
<!-- Node12&#45;&gt;Node13 -->
<g id="edge2" class="edge"><title>Node12&#45;&gt;Node13</title>
<path fill="none" stroke="midnightblue" d="M298.942,-160.051C282.673,-150.139 261.074,-136.982 247.357,-128.625"/>
<polygon fill="midnightblue" stroke="midnightblue" points="297.445,-163.237 307.806,-165.45 301.087,-157.259 297.445,-163.237"/>
</g>
<!-- Node15 -->
<g id="node5" class="node"><title>Node15</title>
<g id="a_node5"><a xlink:href="_engine_8cpp.html" target="_top" xlink:title="Engine.cpp">
<polygon fill="none" stroke="black" points="0,-0.5 0,-18.5 66.0391,-18.5 66.0391,-0.5 0,-0.5"/>
<text text-anchor="middle" x="33.0195" y="-6.5" font-family="Helvetica,sans-Serif" font-size="10.00">Engine.cpp</text>
</a>
</g>
</g>
<!-- Node12&#45;&gt;Node15 -->
<g id="edge12" class="edge"><title>Node12&#45;&gt;Node15</title>
<path fill="none" stroke="midnightblue" d="M256.137,-168.289C192.701,-159.571 98.2555,-136.272 46.0195,-74 32.5682,-57.9642 31.8007,-31.7092 32.3867,-18.55"/>
<polygon fill="midnightblue" stroke="midnightblue" points="256.066,-171.808 266.431,-169.613 256.959,-164.865 256.066,-171.808"/>
</g>
<!-- Node19 -->
<g id="node9" class="node"><title>Node19</title>
<g id="a_node9"><a xlink:href="_particle_system_8cpp.html" target="_top" xlink:title="ParticleSystem.cpp">
<polygon fill="none" stroke="black" points="346.227,-0.5 346.227,-18.5 447.812,-18.5 447.812,-0.5 346.227,-0.5"/>
<text text-anchor="middle" x="397.02" y="-6.5" font-family="Helvetica,sans-Serif" font-size="10.00">ParticleSystem.cpp</text>
</a>
</g>
</g>
<!-- Node12&#45;&gt;Node19 -->
<g id="edge13" class="edge"><title>Node12&#45;&gt;Node19</title>
<path fill="none" stroke="midnightblue" d="M335.926,-157.539C352.255,-139.01 377.753,-106.781 390.02,-74 397.094,-55.0944 397.647,-30.9753 397.376,-18.6111"/>
<polygon fill="midnightblue" stroke="midnightblue" points="333.255,-155.274 329.149,-165.041 338.449,-159.967 333.255,-155.274"/>
</g>
<!-- Node21 -->
<g id="node11" class="node"><title>Node21</title>
<g id="a_node11"><a xlink:href="_physics_manager_8cpp.html" target="_top" xlink:title="PhysicsManager.cpp">
<polygon fill="none" stroke="black" points="436.882,-110.5 436.882,-128.5 545.157,-128.5 545.157,-110.5 436.882,-110.5"/>
<text text-anchor="middle" x="491.02" y="-116.5" font-family="Helvetica,sans-Serif" font-size="10.00">PhysicsManager.cpp</text>
</a>
</g>
</g>
<!-- Node12&#45;&gt;Node21 -->
<g id="edge14" class="edge"><title>Node12&#45;&gt;Node21</title>
<path fill="none" stroke="midnightblue" d="M356.402,-162.469C388.874,-152.345 436.21,-137.588 465.236,-128.538"/>
<polygon fill="midnightblue" stroke="midnightblue" points="355.344,-159.133 346.839,-165.45 357.427,-165.815 355.344,-159.133"/>
</g>
<!-- Node14 -->
<g id="node4" class="node"><title>Node14</title>
<g id="a_node4"><a xlink:href="_scene_parser_8hpp.html" target="_top" xlink:title="SceneParser.hpp">
<polygon fill="none" stroke="black" points="72.6577,-55.5 72.6577,-73.5 165.381,-73.5 165.381,-55.5 72.6577,-55.5"/>
<text text-anchor="middle" x="119.02" y="-61.5" font-family="Helvetica,sans-Serif" font-size="10.00">SceneParser.hpp</text>
</a>
</g>
</g>
<!-- Node13&#45;&gt;Node14 -->
<g id="edge3" class="edge"><title>Node13&#45;&gt;Node14</title>
<path fill="none" stroke="midnightblue" d="M207.218,-106.148C185.48,-96.1297 155.46,-82.2941 136.65,-73.6253"/>
<polygon fill="midnightblue" stroke="midnightblue" points="206.007,-109.443 216.554,-110.45 208.937,-103.086 206.007,-109.443"/>
</g>
<!-- Node13&#45;&gt;Node15 -->
<g id="edge10" class="edge"><title>Node13&#45;&gt;Node15</title>
<path fill="none" stroke="midnightblue" d="M184.362,-116.383C147.521,-112.435 97.9959,-101.833 64.0195,-74 46.3679,-59.54 38.0016,-32.571 34.7461,-18.9034"/>
<polygon fill="midnightblue" stroke="midnightblue" points="184.108,-119.875 194.393,-117.329 184.766,-112.906 184.108,-119.875"/>
</g>
<!-- Node17 -->
<g id="node7" class="node"><title>Node17</title>
<g id="a_node7"><a xlink:href="_particle_system_8hpp.html" target="_top" xlink:title="ParticleSystem.hpp">
<polygon fill="none" stroke="black" points="182.946,-55.5 182.946,-73.5 285.093,-73.5 285.093,-55.5 182.946,-55.5"/>
<text text-anchor="middle" x="234.02" y="-61.5" font-family="Helvetica,sans-Serif" font-size="10.00">ParticleSystem.hpp</text>
</a>
</g>
</g>
<!-- Node13&#45;&gt;Node17 -->
<g id="edge6" class="edge"><title>Node13&#45;&gt;Node17</title>
<path fill="none" stroke="midnightblue" d="M234.02,-100.175C234.02,-91.0945 234.02,-80.5949 234.02,-73.5496"/>
<polygon fill="midnightblue" stroke="midnightblue" points="230.52,-100.219 234.02,-110.219 237.52,-100.219 230.52,-100.219"/>
</g>
<!-- Node20 -->
<g id="node10" class="node"><title>Node20</title>
<g id="a_node10"><a xlink:href="_rigidbody_8cpp.html" target="_top" xlink:title="Rigidbody.cpp">
<polygon fill="none" stroke="black" points="302.701,-55.5 302.701,-73.5 381.338,-73.5 381.338,-55.5 302.701,-55.5"/>
<text text-anchor="middle" x="342.02" y="-61.5" font-family="Helvetica,sans-Serif" font-size="10.00">Rigidbody.cpp</text>
</a>
</g>
</g>
<!-- Node13&#45;&gt;Node20 -->
<g id="edge11" class="edge"><title>Node13&#45;&gt;Node20</title>
<path fill="none" stroke="midnightblue" d="M259.466,-106.013C279.858,-96.0052 307.877,-82.2551 325.462,-73.6253"/>
<polygon fill="midnightblue" stroke="midnightblue" points="257.858,-102.903 250.422,-110.45 260.942,-109.187 257.858,-102.903"/>
</g>
<!-- Node14&#45;&gt;Node15 -->
<g id="edge4" class="edge"><title>Node14&#45;&gt;Node15</title>
<path fill="none" stroke="midnightblue" d="M97.1961,-50.0507C81.1134,-40.1393 59.7635,-26.9817 46.204,-18.6253"/>
<polygon fill="midnightblue" stroke="midnightblue" points="95.6085,-53.1835 105.958,-55.4504 99.2811,-47.2243 95.6085,-53.1835"/>
</g>
<!-- Node16 -->
<g id="node6" class="node"><title>Node16</title>
<g id="a_node6"><a xlink:href="_scene_parser_8cpp.html" target="_top" xlink:title="SceneParser.cpp">
<polygon fill="none" stroke="black" points="83.9385,-0.5 83.9385,-18.5 176.101,-18.5 176.101,-0.5 83.9385,-0.5"/>
<text text-anchor="middle" x="130.02" y="-6.5" font-family="Helvetica,sans-Serif" font-size="10.00">SceneParser.cpp</text>
</a>
</g>
</g>
<!-- Node14&#45;&gt;Node16 -->
<g id="edge5" class="edge"><title>Node14&#45;&gt;Node16</title>
<path fill="none" stroke="midnightblue" d="M122.823,-45.1746C124.707,-36.0945 126.887,-25.5949 128.349,-18.5496"/>
<polygon fill="midnightblue" stroke="midnightblue" points="119.344,-44.7161 120.738,-55.2188 126.197,-46.1387 119.344,-44.7161"/>
</g>
<!-- Node17&#45;&gt;Node15 -->
<g id="edge7" class="edge"><title>Node17&#45;&gt;Node15</title>
<path fill="none" stroke="midnightblue" d="M193.665,-52.8593C155.243,-42.728 98.267,-27.7046 63.5044,-18.5383"/>
<polygon fill="midnightblue" stroke="midnightblue" points="192.93,-56.285 203.492,-55.4504 194.715,-49.5164 192.93,-56.285"/>
</g>
<!-- Node18 -->
<g id="node8" class="node"><title>Node18</title>
<g id="a_node8"><a xlink:href="_particle_controller_8cpp.html" target="_top" xlink:title="ParticleController.cpp">
<polygon fill="none" stroke="black" points="194.495,-0.5 194.495,-18.5 305.544,-18.5 305.544,-0.5 194.495,-0.5"/>
<text text-anchor="middle" x="250.02" y="-6.5" font-family="Helvetica,sans-Serif" font-size="10.00">ParticleController.cpp</text>
</a>
</g>
</g>
<!-- Node17&#45;&gt;Node18 -->
<g id="edge8" class="edge"><title>Node17&#45;&gt;Node18</title>
<path fill="none" stroke="midnightblue" d="M239.462,-45.4734C242.223,-36.3257 245.439,-25.6724 247.589,-18.5496"/>
<polygon fill="midnightblue" stroke="midnightblue" points="236.059,-44.6339 236.52,-55.2188 242.76,-46.657 236.059,-44.6339"/>
</g>
<!-- Node17&#45;&gt;Node19 -->
<g id="edge9" class="edge"><title>Node17&#45;&gt;Node19</title>
<path fill="none" stroke="midnightblue" d="M268.349,-52.3377C299.471,-42.2183 344.587,-27.5485 372.298,-18.5383"/>
<polygon fill="midnightblue" stroke="midnightblue" points="267.203,-49.0297 258.776,-55.4504 269.368,-55.6867 267.203,-49.0297"/>
</g>
</g>
</svg>
