<?xml version="1.0" encoding="UTF-8" standalone="no"?>
<!DOCTYPE svg PUBLIC "-//W3C//DTD SVG 1.1//EN"
 "http://www.w3.org/Graphics/SVG/1.1/DTD/svg11.dtd">
<!-- Generated by graphviz version 2.38.0 (20140413.2041)
 -->
<!-- Title: FooDraw2.hpp Pages: 1 -->
<svg width="989pt" height="82pt"
 viewBox="0.00 0.00 989.31 82.00" xmlns="http://www.w3.org/2000/svg" xmlns:xlink="http://www.w3.org/1999/xlink">
<g id="graph0" class="graph" transform="scale(1 1) rotate(0) translate(4 78)">
<title>FooDraw2.hpp</title>
<!-- Node0 -->
<g id="node1" class="node"><title>Node0</title>
<polygon fill="#bfbfbf" stroke="black" points="454.936,-55.5 454.936,-73.5 536.527,-73.5 536.527,-55.5 454.936,-55.5"/>
<text text-anchor="middle" x="495.731" y="-61.5" font-family="Helvetica,sans-Serif" font-size="10.00">FooDraw2.hpp</text>
</g>
<!-- Node1 -->
<g id="node2" class="node"><title>Node1</title>
<polygon fill="none" stroke="#bfbfbf" points="0,-0.5 0,-18.5 45.4629,-18.5 45.4629,-0.5 0,-0.5"/>
<text text-anchor="middle" x="22.7314" y="-6.5" font-family="Helvetica,sans-Serif" font-size="10.00">stdio.h</text>
</g>
<!-- Node0&#45;&gt;Node1 -->
<g id="edge1" class="edge"><title>Node0&#45;&gt;Node1</title>
<path fill="none" stroke="midnightblue" d="M454.692,-61.5421C378.068,-57.4158 207.981,-46.0373 55.7077,-18.8819"/>
<polygon fill="midnightblue" stroke="midnightblue" points="56.1684,-15.4085 45.7047,-17.0704 54.9209,-22.2965 56.1684,-15.4085"/>
</g>
<!-- Node2 -->
<g id="node3" class="node"><title>Node2</title>
<polygon fill="none" stroke="#bfbfbf" points="63.4805,-0.5 63.4805,-18.5 153.982,-18.5 153.982,-0.5 63.4805,-0.5"/>
<text text-anchor="middle" x="108.731" y="-6.5" font-family="Helvetica,sans-Serif" font-size="10.00">SRE/Shader.hpp</text>
</g>
<!-- Node0&#45;&gt;Node2 -->
<g id="edge2" class="edge"><title>Node0&#45;&gt;Node2</title>
<path fill="none" stroke="midnightblue" d="M454.935,-58.3591C393.952,-50.6062 275.148,-35.24 164.123,-19.175"/>
<polygon fill="midnightblue" stroke="midnightblue" points="164.492,-15.692 154.093,-17.7187 163.486,-22.6194 164.492,-15.692"/>
</g>
<!-- Node3 -->
<g id="node4" class="node"><title>Node3</title>
<polygon fill="none" stroke="#bfbfbf" points="171.835,-0.5 171.835,-18.5 215.628,-18.5 215.628,-0.5 171.835,-0.5"/>
<text text-anchor="middle" x="193.731" y="-6.5" font-family="Helvetica,sans-Serif" font-size="10.00">SDL.h</text>
</g>
<!-- Node0&#45;&gt;Node3 -->
<g id="edge3" class="edge"><title>Node0&#45;&gt;Node3</title>
<path fill="none" stroke="midnightblue" d="M454.616,-58.1174C403.275,-51.0953 312.594,-37.7052 225.703,-19.0083"/>
<polygon fill="midnightblue" stroke="midnightblue" points="226.192,-15.5328 215.676,-16.823 224.702,-22.3723 226.192,-15.5328"/>
</g>
<!-- Node4 -->
<g id="node5" class="node"><title>Node4</title>
<polygon fill="none" stroke="#bfbfbf" points="233.988,-0.5 233.988,-18.5 379.475,-18.5 379.475,-0.5 233.988,-0.5"/>
<text text-anchor="middle" x="306.731" y="-6.5" font-family="Helvetica,sans-Serif" font-size="10.00">glm/gtc/matrix_transform.hpp</text>
</g>
<!-- Node0&#45;&gt;Node4 -->
<g id="edge4" class="edge"><title>Node0&#45;&gt;Node4</title>
<path fill="none" stroke="midnightblue" d="M467.026,-55.4504C434.461,-46.3184 381.202,-31.3833 345.094,-21.2578"/>
<polygon fill="midnightblue" stroke="midnightblue" points="345.97,-17.8685 335.396,-18.5383 344.08,-24.6085 345.97,-17.8685"/>
</g>
<!-- Node5 -->
<g id="node6" class="node"><title>Node5</title>
<polygon fill="none" stroke="#bfbfbf" points="397.596,-0.5 397.596,-18.5 485.867,-18.5 485.867,-0.5 397.596,-0.5"/>
<text text-anchor="middle" x="441.731" y="-6.5" font-family="Helvetica,sans-Serif" font-size="10.00">SRE/Debug.hpp</text>
</g>
<!-- Node0&#45;&gt;Node5 -->
<g id="edge5" class="edge"><title>Node0&#45;&gt;Node5</title>
<path fill="none" stroke="midnightblue" d="M487.294,-55.2188C479.242,-47.3162 466.922,-35.2241 457.122,-25.6057"/>
<polygon fill="midnightblue" stroke="midnightblue" points="459.521,-23.0564 449.933,-18.5496 454.618,-28.0522 459.521,-23.0564"/>
</g>
<!-- Node6 -->
<g id="node7" class="node"><title>Node6</title>
<polygon fill="none" stroke="#bfbfbf" points="503.934,-0.5 503.934,-18.5 595.529,-18.5 595.529,-0.5 503.934,-0.5"/>
<text text-anchor="middle" x="549.731" y="-6.5" font-family="Helvetica,sans-Serif" font-size="10.00">SRE/Texture.hpp</text>
</g>
<!-- Node0&#45;&gt;Node6 -->
<g id="edge6" class="edge"><title>Node0&#45;&gt;Node6</title>
<path fill="none" stroke="midnightblue" d="M504.169,-55.2188C512.221,-47.3162 524.541,-35.2241 534.341,-25.6057"/>
<polygon fill="midnightblue" stroke="midnightblue" points="536.845,-28.0522 541.53,-18.5496 531.941,-23.0564 536.845,-28.0522"/>
</g>
<!-- Node7 -->
<g id="node8" class="node"><title>Node7</title>
<polygon fill="none" stroke="#bfbfbf" points="613.559,-0.5 613.559,-18.5 667.904,-18.5 667.904,-0.5 613.559,-0.5"/>
<text text-anchor="middle" x="640.731" y="-6.5" font-family="Helvetica,sans-Serif" font-size="10.00">iostream</text>
</g>
<!-- Node0&#45;&gt;Node7 -->
<g id="edge7" class="edge"><title>Node0&#45;&gt;Node7</title>
<path fill="none" stroke="midnightblue" d="M517.754,-55.4504C542.026,-46.5784 581.285,-32.2288 608.903,-22.134"/>
<polygon fill="midnightblue" stroke="midnightblue" points="610.311,-25.3457 618.502,-18.6253 607.908,-18.7711 610.311,-25.3457"/>
</g>
<!-- Node8 -->
<g id="node9" class="node"><title>Node8</title>
<polygon fill="none" stroke="#bfbfbf" points="686.311,-0.5 686.311,-18.5 815.152,-18.5 815.152,-0.5 686.311,-0.5"/>
<text text-anchor="middle" x="750.731" y="-6.5" font-family="Helvetica,sans-Serif" font-size="10.00">glm/gtx/closest_point.hpp</text>
</g>
<!-- Node0&#45;&gt;Node8 -->
<g id="edge8" class="edge"><title>Node0&#45;&gt;Node8</title>
<path fill="none" stroke="midnightblue" d="M534.46,-55.4504C579.336,-46.1233 653.339,-30.7424 702.063,-20.6155"/>
<polygon fill="midnightblue" stroke="midnightblue" points="702.978,-24.0001 712.057,-18.5383 701.554,-17.1466 702.978,-24.0001"/>
</g>
<!-- Node9 -->
<g id="node10" class="node"><title>Node9</title>
<polygon fill="none" stroke="#bfbfbf" points="833.116,-0.5 833.116,-18.5 876.347,-18.5 876.347,-0.5 833.116,-0.5"/>
<text text-anchor="middle" x="854.731" y="-6.5" font-family="Helvetica,sans-Serif" font-size="10.00">time.h</text>
</g>
<!-- Node0&#45;&gt;Node9 -->
<g id="edge9" class="edge"><title>Node0&#45;&gt;Node9</title>
<path fill="none" stroke="midnightblue" d="M536.676,-59.7096C597.214,-53.7205 714.277,-40.6702 822.985,-18.8953"/>
<polygon fill="midnightblue" stroke="midnightblue" points="823.7,-22.3215 832.803,-16.8999 822.306,-15.4618 823.7,-22.3215"/>
</g>
<!-- Node10 -->
<g id="node11" class="node"><title>Node10</title>
<polygon fill="none" stroke="#bfbfbf" points="894.158,-0.5 894.158,-18.5 981.305,-18.5 981.305,-0.5 894.158,-0.5"/>
<text text-anchor="middle" x="937.731" y="-6.5" font-family="Helvetica,sans-Serif" font-size="10.00">Box2D/Box2D.h</text>
</g>
<!-- Node0&#45;&gt;Node10 -->
<g id="edge10" class="edge"><title>Node0&#45;&gt;Node10</title>
<path fill="none" stroke="midnightblue" d="M536.803,-59.4744C606.247,-52.5238 751.511,-37.3651 884.131,-19.1675"/>
<polygon fill="midnightblue" stroke="midnightblue" points="884.635,-22.6312 894.062,-17.7957 883.677,-15.697 884.635,-22.6312"/>
</g>
</g>
</svg>
