<?xml version="1.0" encoding="UTF-8" standalone="no"?>
<!DOCTYPE svg PUBLIC "-//W3C//DTD SVG 1.1//EN"
 "http://www.w3.org/Graphics/SVG/1.1/DTD/svg11.dtd">
<!-- Generated by graphviz version 2.38.0 (20140413.2041)
 -->
<!-- Title: GameObject.hpp Pages: 1 -->
<svg width="455pt" height="137pt"
 viewBox="0.00 0.00 454.68 137.00" xmlns="http://www.w3.org/2000/svg" xmlns:xlink="http://www.w3.org/1999/xlink">
<g id="graph0" class="graph" transform="scale(1 1) rotate(0) translate(4 133)">
<title>GameObject.hpp</title>
<!-- Node0 -->
<g id="node1" class="node"><title>Node0</title>
<polygon fill="#bfbfbf" stroke="black" points="178.83,-110.5 178.83,-128.5 270.426,-128.5 270.426,-110.5 178.83,-110.5"/>
<text text-anchor="middle" x="224.628" y="-116.5" font-family="Helvetica,sans-Serif" font-size="10.00">GameObject.hpp</text>
</g>
<!-- Node1 -->
<g id="node2" class="node"><title>Node1</title>
<polygon fill="none" stroke="#bfbfbf" points="0,-55.5 0,-73.5 83.2559,-73.5 83.2559,-55.5 0,-55.5"/>
<text text-anchor="middle" x="41.6279" y="-61.5" font-family="Helvetica,sans-Serif" font-size="10.00">SRE/Mesh.hpp</text>
</g>
<!-- Node0&#45;&gt;Node1 -->
<g id="edge1" class="edge"><title>Node0&#45;&gt;Node1</title>
<path fill="none" stroke="midnightblue" d="M196.834,-110.45C165.438,-101.357 114.175,-86.5108 79.2221,-76.3879"/>
<polygon fill="midnightblue" stroke="midnightblue" points="79.9618,-72.9584 69.3828,-73.5383 78.0144,-79.6821 79.9618,-72.9584"/>
</g>
<!-- Node2 -->
<g id="node3" class="node"><title>Node2</title>
<polygon fill="none" stroke="#bfbfbf" points="101.394,-55.5 101.394,-73.5 171.862,-73.5 171.862,-55.5 101.394,-55.5"/>
<text text-anchor="middle" x="136.628" y="-61.5" font-family="Helvetica,sans-Serif" font-size="10.00">glm/glm.hpp</text>
</g>
<!-- Node0&#45;&gt;Node2 -->
<g id="edge2" class="edge"><title>Node0&#45;&gt;Node2</title>
<path fill="none" stroke="midnightblue" d="M211.263,-110.45C197.436,-102.123 175.598,-88.9704 159.108,-79.0394"/>
<polygon fill="midnightblue" stroke="midnightblue" points="160.491,-75.7864 150.119,-73.6253 156.88,-81.7828 160.491,-75.7864"/>
</g>
<!-- Node3 -->
<g id="node4" class="node"><title>Node3</title>
<polygon fill="none" stroke="#bfbfbf" points="245.401,-0.5 245.401,-18.5 285.854,-18.5 285.854,-0.5 245.401,-0.5"/>
<text text-anchor="middle" x="265.628" y="-6.5" font-family="Helvetica,sans-Serif" font-size="10.00">string</text>
</g>
<!-- Node0&#45;&gt;Node3 -->
<g id="edge3" class="edge"><title>Node0&#45;&gt;Node3</title>
<path fill="none" stroke="midnightblue" d="M221.417,-110.29C217.055,-97.7974 210.662,-73.5124 218.628,-55 223.85,-42.8654 234.187,-32.4913 243.841,-24.8198"/>
<polygon fill="midnightblue" stroke="midnightblue" points="246.034,-27.5512 252.002,-18.7975 241.878,-21.9186 246.034,-27.5512"/>
</g>
<!-- Node4 -->
<g id="node5" class="node"><title>Node4</title>
<polygon fill="none" stroke="#bfbfbf" points="228.012,-55.5 228.012,-73.5 271.244,-73.5 271.244,-55.5 228.012,-55.5"/>
<text text-anchor="middle" x="249.628" y="-61.5" font-family="Helvetica,sans-Serif" font-size="10.00">vector</text>
</g>
<!-- Node0&#45;&gt;Node4 -->
<g id="edge4" class="edge"><title>Node0&#45;&gt;Node4</title>
<path fill="none" stroke="midnightblue" d="M228.534,-110.219C232.003,-102.864 237.185,-91.8801 241.544,-82.639"/>
<polygon fill="midnightblue" stroke="midnightblue" points="244.73,-84.0871 245.831,-73.5496 238.399,-81.1007 244.73,-84.0871"/>
</g>
<!-- Node5 -->
<g id="node6" class="node"><title>Node5</title>
<g id="a_node6"><a xlink:href="_component_8hpp.html" target="_top" xlink:title="Component.hpp">
<polygon fill="none" stroke="black" points="289.047,-55.5 289.047,-73.5 376.209,-73.5 376.209,-55.5 289.047,-55.5"/>
<text text-anchor="middle" x="332.628" y="-61.5" font-family="Helvetica,sans-Serif" font-size="10.00">Component.hpp</text>
</a>
</g>
</g>
<!-- Node0&#45;&gt;Node5 -->
<g id="edge5" class="edge"><title>Node0&#45;&gt;Node5</title>
<path fill="none" stroke="midnightblue" d="M241.031,-110.45C258.555,-101.851 286.565,-88.1048 307.002,-78.0755"/>
<polygon fill="midnightblue" stroke="midnightblue" points="308.635,-81.1729 316.071,-73.6253 305.551,-74.8888 308.635,-81.1729"/>
</g>
<!-- Node6 -->
<g id="node7" class="node"><title>Node6</title>
<polygon fill="none" stroke="#bfbfbf" points="394.571,-55.5 394.571,-73.5 446.685,-73.5 446.685,-55.5 394.571,-55.5"/>
<text text-anchor="middle" x="420.628" y="-61.5" font-family="Helvetica,sans-Serif" font-size="10.00">memory</text>
</g>
<!-- Node0&#45;&gt;Node6 -->
<g id="edge7" class="edge"><title>Node0&#45;&gt;Node6</title>
<path fill="none" stroke="midnightblue" d="M254.396,-110.45C289.244,-101.027 346.943,-85.425 384.37,-75.3043"/>
<polygon fill="midnightblue" stroke="midnightblue" points="385.614,-78.5939 394.353,-72.6048 383.786,-71.8366 385.614,-78.5939"/>
</g>
<!-- Node5&#45;&gt;Node3 -->
<g id="edge6" class="edge"><title>Node5&#45;&gt;Node3</title>
<path fill="none" stroke="midnightblue" d="M322.452,-55.4504C312.22,-47.3566 296.226,-34.7042 283.809,-24.8822"/>
<polygon fill="midnightblue" stroke="midnightblue" points="285.914,-22.0844 275.9,-18.6253 281.571,-27.5744 285.914,-22.0844"/>
</g>
</g>
</svg>
