<?xml version="1.0" encoding="UTF-8" standalone="no"?>
<!DOCTYPE svg PUBLIC "-//W3C//DTD SVG 1.1//EN"
 "http://www.w3.org/Graphics/SVG/1.1/DTD/svg11.dtd">
<!-- Generated by graphviz version 2.38.0 (20140413.2041)
 -->
<!-- Title: GameObject.hpp Pages: 1 -->
<svg width="1214pt" height="137pt"
 viewBox="0.00 0.00 1214.40 137.00" xmlns="http://www.w3.org/2000/svg" xmlns:xlink="http://www.w3.org/1999/xlink">
<g id="graph0" class="graph" transform="scale(1 1) rotate(0) translate(4 133)">
<title>GameObject.hpp</title>
<!-- Node7 -->
<g id="node1" class="node"><title>Node7</title>
<polygon fill="#bfbfbf" stroke="black" points="562.283,-110.5 562.283,-128.5 653.879,-128.5 653.879,-110.5 562.283,-110.5"/>
<text text-anchor="middle" x="608.081" y="-116.5" font-family="Helvetica,sans-Serif" font-size="10.00">GameObject.hpp</text>
</g>
<!-- Node8 -->
<g id="node2" class="node"><title>Node8</title>
<g id="a_node2"><a xlink:href="_audio_source_8hpp.html" target="_top" xlink:title="AudioSource.hpp">
<polygon fill="none" stroke="black" points="95.7192,-55.5 95.7192,-73.5 188.443,-73.5 188.443,-55.5 95.7192,-55.5"/>
<text text-anchor="middle" x="142.081" y="-61.5" font-family="Helvetica,sans-Serif" font-size="10.00">AudioSource.hpp</text>
</a>
</g>
</g>
<!-- Node7&#45;&gt;Node8 -->
<g id="edge1" class="edge"><title>Node7&#45;&gt;Node8</title>
<path fill="none" stroke="midnightblue" d="M552.031,-112.743C474.14,-104.643 328.781,-89.1722 205.081,-74 199.713,-73.3416 194.092,-72.6239 188.512,-71.8936"/>
<polygon fill="midnightblue" stroke="midnightblue" points="551.798,-116.237 562.106,-113.788 552.521,-109.275 551.798,-116.237"/>
</g>
<!-- Node11 -->
<g id="node5" class="node"><title>Node11</title>
<g id="a_node5"><a xlink:href="_engine_8cpp.html" target="_top" xlink:title="Engine.cpp">
<polygon fill="none" stroke="black" points="188.062,-0.5 188.062,-18.5 254.101,-18.5 254.101,-0.5 188.062,-0.5"/>
<text text-anchor="middle" x="221.081" y="-6.5" font-family="Helvetica,sans-Serif" font-size="10.00">Engine.cpp</text>
</a>
</g>
</g>
<!-- Node7&#45;&gt;Node11 -->
<g id="edge12" class="edge"><title>Node7&#45;&gt;Node11</title>
<path fill="none" stroke="midnightblue" d="M551.953,-119.183C460.221,-119.113 283.791,-113.645 238.081,-74 221.872,-59.9422 220.302,-32.2858 220.611,-18.5852"/>
<polygon fill="midnightblue" stroke="midnightblue" points="552.175,-122.682 562.17,-119.168 552.165,-115.682 552.175,-122.682"/>
</g>
<!-- Node12 -->
<g id="node6" class="node"><title>Node12</title>
<g id="a_node6"><a xlink:href="_camera_handler_8cpp.html" target="_top" xlink:title="CameraHandler.cpp">
<polygon fill="none" stroke="black" points="439.611,-55.5 439.611,-73.5 544.551,-73.5 544.551,-55.5 439.611,-55.5"/>
<text text-anchor="middle" x="492.081" y="-61.5" font-family="Helvetica,sans-Serif" font-size="10.00">CameraHandler.cpp</text>
</a>
</g>
</g>
<!-- Node7&#45;&gt;Node12 -->
<g id="edge5" class="edge"><title>Node7&#45;&gt;Node12</title>
<path fill="none" stroke="midnightblue" d="M581.343,-106.283C559.393,-96.2545 528.923,-82.3332 509.865,-73.6253"/>
<polygon fill="midnightblue" stroke="midnightblue" points="579.913,-109.478 590.463,-110.45 582.822,-103.111 579.913,-109.478"/>
</g>
<!-- Node13 -->
<g id="node7" class="node"><title>Node13</title>
<g id="a_node7"><a xlink:href="_scene_8hpp.html" target="_top" xlink:title="Scene.hpp">
<polygon fill="none" stroke="black" points="247.172,-55.5 247.172,-73.5 310.99,-73.5 310.99,-55.5 247.172,-55.5"/>
<text text-anchor="middle" x="279.081" y="-61.5" font-family="Helvetica,sans-Serif" font-size="10.00">Scene.hpp</text>
</a>
</g>
</g>
<!-- Node7&#45;&gt;Node13 -->
<g id="edge6" class="edge"><title>Node7&#45;&gt;Node13</title>
<path fill="none" stroke="midnightblue" d="M551.99,-110.699C493.847,-102.41 400.393,-88.52 320.081,-74 317.22,-73.4827 314.252,-72.9195 311.28,-72.3374"/>
<polygon fill="midnightblue" stroke="midnightblue" points="551.678,-114.19 562.071,-112.131 552.662,-107.26 551.678,-114.19"/>
</g>
<!-- Node15 -->
<g id="node9" class="node"><title>Node15</title>
<g id="a_node9"><a xlink:href="_scene_parser_8hpp.html" target="_top" xlink:title="SceneParser.hpp">
<polygon fill="none" stroke="black" points="328.719,-55.5 328.719,-73.5 421.443,-73.5 421.443,-55.5 328.719,-55.5"/>
<text text-anchor="middle" x="375.081" y="-61.5" font-family="Helvetica,sans-Serif" font-size="10.00">SceneParser.hpp</text>
</a>
</g>
</g>
<!-- Node7&#45;&gt;Node15 -->
<g id="edge9" class="edge"><title>Node7&#45;&gt;Node15</title>
<path fill="none" stroke="midnightblue" d="M562.716,-108.181C518.171,-98.0484 451.145,-82.8021 410.419,-73.5383"/>
<polygon fill="midnightblue" stroke="midnightblue" points="562.166,-111.645 572.693,-110.45 563.719,-104.82 562.166,-111.645"/>
</g>
<!-- Node17 -->
<g id="node11" class="node"><title>Node17</title>
<g id="a_node11"><a xlink:href="_game_object_8cpp.html" target="_top" xlink:title="GameObject.cpp">
<polygon fill="none" stroke="black" points="562.564,-55.5 562.564,-73.5 653.598,-73.5 653.598,-55.5 562.564,-55.5"/>
<text text-anchor="middle" x="608.081" y="-61.5" font-family="Helvetica,sans-Serif" font-size="10.00">GameObject.cpp</text>
</a>
</g>
</g>
<!-- Node7&#45;&gt;Node17 -->
<g id="edge13" class="edge"><title>Node7&#45;&gt;Node17</title>
<path fill="none" stroke="midnightblue" d="M608.081,-100.175C608.081,-91.0945 608.081,-80.5949 608.081,-73.5496"/>
<polygon fill="midnightblue" stroke="midnightblue" points="604.581,-100.219 608.081,-110.219 611.581,-100.219 604.581,-100.219"/>
</g>
<!-- Node18 -->
<g id="node12" class="node"><title>Node18</title>
<g id="a_node12"><a xlink:href="_light_source_8cpp.html" target="_top" xlink:title="LightSource.cpp">
<polygon fill="none" stroke="black" points="671.946,-55.5 671.946,-73.5 760.216,-73.5 760.216,-55.5 671.946,-55.5"/>
<text text-anchor="middle" x="716.081" y="-61.5" font-family="Helvetica,sans-Serif" font-size="10.00">LightSource.cpp</text>
</a>
</g>
</g>
<!-- Node7&#45;&gt;Node18 -->
<g id="edge14" class="edge"><title>Node7&#45;&gt;Node18</title>
<path fill="none" stroke="midnightblue" d="M633.527,-106.013C653.92,-96.0052 681.939,-82.2551 699.524,-73.6253"/>
<polygon fill="midnightblue" stroke="midnightblue" points="631.919,-102.903 624.484,-110.45 635.003,-109.187 631.919,-102.903"/>
</g>
<!-- Node19 -->
<g id="node13" class="node"><title>Node19</title>
<g id="a_node13"><a xlink:href="_particle_controller_8cpp.html" target="_top" xlink:title="ParticleController.cpp">
<polygon fill="none" stroke="black" points="778.557,-55.5 778.557,-73.5 889.605,-73.5 889.605,-55.5 778.557,-55.5"/>
<text text-anchor="middle" x="834.081" y="-61.5" font-family="Helvetica,sans-Serif" font-size="10.00">ParticleController.cpp</text>
</a>
</g>
</g>
<!-- Node7&#45;&gt;Node19 -->
<g id="edge15" class="edge"><title>Node7&#45;&gt;Node19</title>
<path fill="none" stroke="midnightblue" d="M652.356,-108.117C695.564,-97.9842 760.386,-82.7826 799.804,-73.5383"/>
<polygon fill="midnightblue" stroke="midnightblue" points="651.342,-104.76 642.406,-110.45 652.941,-111.575 651.342,-104.76"/>
</g>
<!-- Node20 -->
<g id="node14" class="node"><title>Node20</title>
<g id="a_node14"><a xlink:href="_physics_manager_8cpp.html" target="_top" xlink:title="PhysicsManager.cpp">
<polygon fill="none" stroke="black" points="907.943,-55.5 907.943,-73.5 1016.22,-73.5 1016.22,-55.5 907.943,-55.5"/>
<text text-anchor="middle" x="962.081" y="-61.5" font-family="Helvetica,sans-Serif" font-size="10.00">PhysicsManager.cpp</text>
</a>
</g>
</g>
<!-- Node7&#45;&gt;Node20 -->
<g id="edge16" class="edge"><title>Node7&#45;&gt;Node20</title>
<path fill="none" stroke="midnightblue" d="M663.951,-110.135C730.948,-100.105 842.445,-83.4116 908.437,-73.5314"/>
<polygon fill="midnightblue" stroke="midnightblue" points="663.369,-106.683 653.997,-111.626 664.405,-113.606 663.369,-106.683"/>
</g>
<!-- Node21 -->
<g id="node15" class="node"><title>Node21</title>
<g id="a_node15"><a xlink:href="_renderer_8cpp.html" target="_top" xlink:title="Renderer.cpp">
<polygon fill="none" stroke="black" points="1034.06,-55.5 1034.06,-73.5 1110.1,-73.5 1110.1,-55.5 1034.06,-55.5"/>
<text text-anchor="middle" x="1072.08" y="-61.5" font-family="Helvetica,sans-Serif" font-size="10.00">Renderer.cpp</text>
</a>
</g>
</g>
<!-- Node7&#45;&gt;Node21 -->
<g id="edge17" class="edge"><title>Node7&#45;&gt;Node21</title>
<path fill="none" stroke="midnightblue" d="M664.566,-113.783C744.887,-106.778 896.622,-92.4453 1025.08,-74 1027.95,-73.5875 1030.92,-73.1289 1033.9,-72.6445"/>
<polygon fill="midnightblue" stroke="midnightblue" points="663.848,-110.332 654.188,-114.682 664.452,-117.306 663.848,-110.332"/>
</g>
<!-- Node22 -->
<g id="node16" class="node"><title>Node22</title>
<g id="a_node16"><a xlink:href="_rigidbody_8cpp.html" target="_top" xlink:title="Rigidbody.cpp">
<polygon fill="none" stroke="black" points="1127.76,-55.5 1127.76,-73.5 1206.4,-73.5 1206.4,-55.5 1127.76,-55.5"/>
<text text-anchor="middle" x="1167.08" y="-61.5" font-family="Helvetica,sans-Serif" font-size="10.00">Rigidbody.cpp</text>
</a>
</g>
</g>
<!-- Node7&#45;&gt;Node22 -->
<g id="edge18" class="edge"><title>Node7&#45;&gt;Node22</title>
<path fill="none" stroke="midnightblue" d="M664.199,-115.241C758.455,-109.404 954.418,-95.7061 1119.08,-74 1121.85,-73.635 1124.7,-73.2229 1127.57,-72.7818"/>
<polygon fill="midnightblue" stroke="midnightblue" points="663.802,-111.759 654.035,-115.865 664.231,-118.746 663.802,-111.759"/>
</g>
<!-- Node9 -->
<g id="node3" class="node"><title>Node9</title>
<g id="a_node3"><a xlink:href="_audio_8cpp.html" target="_top" xlink:title="Audio.cpp">
<polygon fill="none" stroke="black" points="109.842,-0.5 109.842,-18.5 170.32,-18.5 170.32,-0.5 109.842,-0.5"/>
<text text-anchor="middle" x="140.081" y="-6.5" font-family="Helvetica,sans-Serif" font-size="10.00">Audio.cpp</text>
</a>
</g>
</g>
<!-- Node8&#45;&gt;Node9 -->
<g id="edge2" class="edge"><title>Node8&#45;&gt;Node9</title>
<path fill="none" stroke="midnightblue" d="M141.39,-45.1746C141.047,-36.0945 140.651,-25.5949 140.385,-18.5496"/>
<polygon fill="midnightblue" stroke="midnightblue" points="137.894,-45.3579 141.769,-55.2188 144.889,-45.0938 137.894,-45.3579"/>
</g>
<!-- Node10 -->
<g id="node4" class="node"><title>Node10</title>
<g id="a_node4"><a xlink:href="_audio_source_8cpp.html" target="_top" xlink:title="AudioSource.cpp">
<polygon fill="none" stroke="black" points="0,-0.5 0,-18.5 92.1621,-18.5 92.1621,-0.5 0,-0.5"/>
<text text-anchor="middle" x="46.0811" y="-6.5" font-family="Helvetica,sans-Serif" font-size="10.00">AudioSource.cpp</text>
</a>
</g>
</g>
<!-- Node8&#45;&gt;Node10 -->
<g id="edge3" class="edge"><title>Node8&#45;&gt;Node10</title>
<path fill="none" stroke="midnightblue" d="M118.72,-50.603C100.661,-40.6328 76.2177,-27.1379 60.7986,-18.6253"/>
<polygon fill="midnightblue" stroke="midnightblue" points="117.055,-53.6813 127.501,-55.4504 120.438,-47.5531 117.055,-53.6813"/>
</g>
<!-- Node8&#45;&gt;Node11 -->
<g id="edge4" class="edge"><title>Node8&#45;&gt;Node11</title>
<path fill="none" stroke="midnightblue" d="M162.544,-49.7719C177.268,-39.8937 196.63,-26.9036 208.97,-18.6253"/>
<polygon fill="midnightblue" stroke="midnightblue" points="160.434,-46.9727 154.079,-55.4504 164.334,-52.7857 160.434,-46.9727"/>
</g>
<!-- Node13&#45;&gt;Node11 -->
<g id="edge7" class="edge"><title>Node13&#45;&gt;Node11</title>
<path fill="none" stroke="midnightblue" d="M262.553,-48.3965C251.923,-38.6833 238.532,-26.4466 229.89,-18.5496"/>
<polygon fill="midnightblue" stroke="midnightblue" points="260.275,-51.0568 270.019,-55.2188 264.997,-45.8893 260.275,-51.0568"/>
</g>
<!-- Node14 -->
<g id="node8" class="node"><title>Node14</title>
<g id="a_node8"><a xlink:href="_scene_8cpp.html" target="_top" xlink:title="Scene.cpp">
<polygon fill="none" stroke="black" points="272.453,-0.5 272.453,-18.5 335.709,-18.5 335.709,-0.5 272.453,-0.5"/>
<text text-anchor="middle" x="304.081" y="-6.5" font-family="Helvetica,sans-Serif" font-size="10.00">Scene.cpp</text>
</a>
</g>
</g>
<!-- Node13&#45;&gt;Node14 -->
<g id="edge8" class="edge"><title>Node13&#45;&gt;Node14</title>
<path fill="none" stroke="midnightblue" d="M287.304,-46.0678C291.68,-36.7905 296.851,-25.8272 300.284,-18.5496"/>
<polygon fill="midnightblue" stroke="midnightblue" points="284.088,-44.6812 282.987,-55.2188 290.419,-47.6676 284.088,-44.6812"/>
</g>
<!-- Node15&#45;&gt;Node11 -->
<g id="edge10" class="edge"><title>Node15&#45;&gt;Node11</title>
<path fill="none" stroke="midnightblue" d="M341.881,-52.0739C312.507,-41.9647 270.392,-27.4705 244.438,-18.5383"/>
<polygon fill="midnightblue" stroke="midnightblue" points="341.097,-55.5056 351.692,-55.4504 343.375,-48.8867 341.097,-55.5056"/>
</g>
<!-- Node16 -->
<g id="node10" class="node"><title>Node16</title>
<g id="a_node10"><a xlink:href="_scene_parser_8cpp.html" target="_top" xlink:title="SceneParser.cpp">
<polygon fill="none" stroke="black" points="354,-0.5 354,-18.5 446.162,-18.5 446.162,-0.5 354,-0.5"/>
<text text-anchor="middle" x="400.081" y="-6.5" font-family="Helvetica,sans-Serif" font-size="10.00">SceneParser.cpp</text>
</a>
</g>
</g>
<!-- Node15&#45;&gt;Node16 -->
<g id="edge11" class="edge"><title>Node15&#45;&gt;Node16</title>
<path fill="none" stroke="midnightblue" d="M383.304,-46.0678C387.68,-36.7905 392.851,-25.8272 396.284,-18.5496"/>
<polygon fill="midnightblue" stroke="midnightblue" points="380.088,-44.6812 378.987,-55.2188 386.419,-47.6676 380.088,-44.6812"/>
</g>
</g>
</svg>
