<?xml version="1.0" encoding="UTF-8" standalone="no"?>
<!DOCTYPE svg PUBLIC "-//W3C//DTD SVG 1.1//EN"
 "http://www.w3.org/Graphics/SVG/1.1/DTD/svg11.dtd">
<!-- Generated by graphviz version 2.38.0 (20140413.2041)
 -->
<!-- Title: GameObject.hpp Pages: 1 -->
<svg width="1084pt" height="137pt"
 viewBox="0.00 0.00 1084.40 137.00" xmlns="http://www.w3.org/2000/svg" xmlns:xlink="http://www.w3.org/1999/xlink">
<g id="graph0" class="graph" transform="scale(1 1) rotate(0) translate(4 133)">
<title>GameObject.hpp</title>
<!-- Node7 -->
<g id="node1" class="node"><title>Node7</title>
<polygon fill="#bfbfbf" stroke="black" points="504.283,-110.5 504.283,-128.5 595.879,-128.5 595.879,-110.5 504.283,-110.5"/>
<text text-anchor="middle" x="550.081" y="-116.5" font-family="Helvetica,sans-Serif" font-size="10.00">GameObject.hpp</text>
</g>
<!-- Node8 -->
<g id="node2" class="node"><title>Node8</title>
<g id="a_node2"><a xlink:href="_audio_source_8hpp.html" target="_top" xlink:title="AudioSource.hpp">
<polygon fill="none" stroke="black" points="95.7192,-55.5 95.7192,-73.5 188.443,-73.5 188.443,-55.5 95.7192,-55.5"/>
<text text-anchor="middle" x="142.081" y="-61.5" font-family="Helvetica,sans-Serif" font-size="10.00">AudioSource.hpp</text>
</a>
</g>
</g>
<!-- Node7&#45;&gt;Node8 -->
<g id="edge1" class="edge"><title>Node7&#45;&gt;Node8</title>
<path fill="none" stroke="midnightblue" d="M493.923,-111.359C425.636,-102.651 306.878,-87.4324 205.081,-74 199.72,-73.2925 194.102,-72.5445 188.524,-71.7973"/>
<polygon fill="midnightblue" stroke="midnightblue" points="493.669,-114.854 504.032,-112.647 494.554,-107.911 493.669,-114.854"/>
</g>
<!-- Node11 -->
<g id="node5" class="node"><title>Node11</title>
<g id="a_node5"><a xlink:href="_engine_8cpp.html" target="_top" xlink:title="Engine.cpp">
<polygon fill="none" stroke="black" points="188.062,-0.5 188.062,-18.5 254.101,-18.5 254.101,-0.5 188.062,-0.5"/>
<text text-anchor="middle" x="221.081" y="-6.5" font-family="Helvetica,sans-Serif" font-size="10.00">Engine.cpp</text>
</a>
</g>
</g>
<!-- Node7&#45;&gt;Node11 -->
<g id="edge12" class="edge"><title>Node7&#45;&gt;Node11</title>
<path fill="none" stroke="midnightblue" d="M493.869,-117.707C414.455,-115.414 274.958,-106.701 238.081,-74 222.028,-59.7649 220.385,-32.1916 220.644,-18.5477"/>
<polygon fill="midnightblue" stroke="midnightblue" points="494.099,-121.214 504.187,-117.979 494.283,-114.217 494.099,-121.214"/>
</g>
<!-- Node12 -->
<g id="node6" class="node"><title>Node12</title>
<g id="a_node6"><a xlink:href="_camera_handler_8cpp.html" target="_top" xlink:title="CameraHandler.cpp">
<polygon fill="none" stroke="black" points="439.611,-55.5 439.611,-73.5 544.551,-73.5 544.551,-55.5 439.611,-55.5"/>
<text text-anchor="middle" x="492.081" y="-61.5" font-family="Helvetica,sans-Serif" font-size="10.00">CameraHandler.cpp</text>
</a>
</g>
</g>
<!-- Node7&#45;&gt;Node12 -->
<g id="edge5" class="edge"><title>Node7&#45;&gt;Node12</title>
<path fill="none" stroke="midnightblue" d="M533.553,-103.397C522.923,-93.6833 509.532,-81.4466 500.89,-73.5496"/>
<polygon fill="midnightblue" stroke="midnightblue" points="531.275,-106.057 541.019,-110.219 535.997,-100.889 531.275,-106.057"/>
</g>
<!-- Node13 -->
<g id="node7" class="node"><title>Node13</title>
<g id="a_node7"><a xlink:href="_scene_8hpp.html" target="_top" xlink:title="Scene.hpp">
<polygon fill="none" stroke="black" points="247.172,-55.5 247.172,-73.5 310.99,-73.5 310.99,-55.5 247.172,-55.5"/>
<text text-anchor="middle" x="279.081" y="-61.5" font-family="Helvetica,sans-Serif" font-size="10.00">Scene.hpp</text>
</a>
</g>
</g>
<!-- Node7&#45;&gt;Node13 -->
<g id="edge6" class="edge"><title>Node7&#45;&gt;Node13</title>
<path fill="none" stroke="midnightblue" d="M497.782,-108.587C451.139,-99.6963 381.011,-86.2096 320.081,-74 317.23,-73.4287 314.269,-72.8284 311.302,-72.2221"/>
<polygon fill="midnightblue" stroke="midnightblue" points="497.179,-112.035 507.657,-110.467 498.488,-105.158 497.179,-112.035"/>
</g>
<!-- Node15 -->
<g id="node9" class="node"><title>Node15</title>
<g id="a_node9"><a xlink:href="_scene_parser_8hpp.html" target="_top" xlink:title="SceneParser.hpp">
<polygon fill="none" stroke="black" points="328.719,-55.5 328.719,-73.5 421.443,-73.5 421.443,-55.5 328.719,-55.5"/>
<text text-anchor="middle" x="375.081" y="-61.5" font-family="Helvetica,sans-Serif" font-size="10.00">SceneParser.hpp</text>
</a>
</g>
</g>
<!-- Node7&#45;&gt;Node15 -->
<g id="edge9" class="edge"><title>Node7&#45;&gt;Node15</title>
<path fill="none" stroke="midnightblue" d="M513.658,-107.469C480.231,-97.3454 431.502,-82.5875 401.623,-73.5383"/>
<polygon fill="midnightblue" stroke="midnightblue" points="512.917,-110.902 523.502,-110.45 514.946,-104.202 512.917,-110.902"/>
</g>
<!-- Node17 -->
<g id="node11" class="node"><title>Node17</title>
<g id="a_node11"><a xlink:href="_game_object_8cpp.html" target="_top" xlink:title="GameObject.cpp">
<polygon fill="none" stroke="black" points="562.564,-55.5 562.564,-73.5 653.598,-73.5 653.598,-55.5 562.564,-55.5"/>
<text text-anchor="middle" x="608.081" y="-61.5" font-family="Helvetica,sans-Serif" font-size="10.00">GameObject.cpp</text>
</a>
</g>
</g>
<!-- Node7&#45;&gt;Node17 -->
<g id="edge13" class="edge"><title>Node7&#45;&gt;Node17</title>
<path fill="none" stroke="midnightblue" d="M566.609,-103.397C577.239,-93.6833 590.63,-81.4466 599.272,-73.5496"/>
<polygon fill="midnightblue" stroke="midnightblue" points="564.165,-100.889 559.144,-110.219 568.887,-106.057 564.165,-100.889"/>
</g>
<!-- Node18 -->
<g id="node12" class="node"><title>Node18</title>
<g id="a_node12"><a xlink:href="_light_source_8cpp.html" target="_top" xlink:title="LightSource.cpp">
<polygon fill="none" stroke="black" points="671.946,-55.5 671.946,-73.5 760.216,-73.5 760.216,-55.5 671.946,-55.5"/>
<text text-anchor="middle" x="716.081" y="-61.5" font-family="Helvetica,sans-Serif" font-size="10.00">LightSource.cpp</text>
</a>
</g>
</g>
<!-- Node7&#45;&gt;Node18 -->
<g id="edge14" class="edge"><title>Node7&#45;&gt;Node18</title>
<path fill="none" stroke="midnightblue" d="M585.042,-107.338C616.737,-97.2183 662.684,-82.5485 690.904,-73.5383"/>
<polygon fill="midnightblue" stroke="midnightblue" points="583.755,-104.075 575.293,-110.45 585.884,-110.743 583.755,-104.075"/>
</g>
<!-- Node19 -->
<g id="node13" class="node"><title>Node19</title>
<g id="a_node13"><a xlink:href="_physics_manager_8cpp.html" target="_top" xlink:title="PhysicsManager.cpp">
<polygon fill="none" stroke="black" points="777.943,-55.5 777.943,-73.5 886.219,-73.5 886.219,-55.5 777.943,-55.5"/>
<text text-anchor="middle" x="832.081" y="-61.5" font-family="Helvetica,sans-Serif" font-size="10.00">PhysicsManager.cpp</text>
</a>
</g>
</g>
<!-- Node7&#45;&gt;Node19 -->
<g id="edge15" class="edge"><title>Node7&#45;&gt;Node19</title>
<path fill="none" stroke="midnightblue" d="M602.956,-108.562C656.845,-98.4345 739.398,-82.9191 789.311,-73.5383"/>
<polygon fill="midnightblue" stroke="midnightblue" points="602.092,-105.163 592.911,-110.45 603.385,-112.043 602.092,-105.163"/>
</g>
<!-- Node20 -->
<g id="node14" class="node"><title>Node20</title>
<g id="a_node14"><a xlink:href="_renderer_8cpp.html" target="_top" xlink:title="Renderer.cpp">
<polygon fill="none" stroke="black" points="904.059,-55.5 904.059,-73.5 980.103,-73.5 980.103,-55.5 904.059,-55.5"/>
<text text-anchor="middle" x="942.081" y="-61.5" font-family="Helvetica,sans-Serif" font-size="10.00">Renderer.cpp</text>
</a>
</g>
</g>
<!-- Node7&#45;&gt;Node20 -->
<g id="edge16" class="edge"><title>Node7&#45;&gt;Node20</title>
<path fill="none" stroke="midnightblue" d="M606.063,-112.162C674.413,-104.221 793.468,-89.7313 895.081,-74 897.949,-73.556 900.911,-73.0745 903.889,-72.5741"/>
<polygon fill="midnightblue" stroke="midnightblue" points="605.478,-108.707 595.947,-113.333 606.283,-115.66 605.478,-108.707"/>
</g>
<!-- Node21 -->
<g id="node15" class="node"><title>Node21</title>
<g id="a_node15"><a xlink:href="_rigidbody_8cpp.html" target="_top" xlink:title="Rigidbody.cpp">
<polygon fill="none" stroke="black" points="997.763,-55.5 997.763,-73.5 1076.4,-73.5 1076.4,-55.5 997.763,-55.5"/>
<text text-anchor="middle" x="1037.08" y="-61.5" font-family="Helvetica,sans-Serif" font-size="10.00">Rigidbody.cpp</text>
</a>
</g>
</g>
<!-- Node7&#45;&gt;Node21 -->
<g id="edge17" class="edge"><title>Node7&#45;&gt;Node21</title>
<path fill="none" stroke="midnightblue" d="M606.077,-114.164C689.674,-107.387 851.963,-93.0634 989.081,-74 991.847,-73.6154 994.698,-73.1887 997.565,-72.7372"/>
<polygon fill="midnightblue" stroke="midnightblue" points="605.722,-110.681 596.036,-114.972 606.284,-117.658 605.722,-110.681"/>
</g>
<!-- Node9 -->
<g id="node3" class="node"><title>Node9</title>
<g id="a_node3"><a xlink:href="_audio_8cpp.html" target="_top" xlink:title="Audio.cpp">
<polygon fill="none" stroke="black" points="109.842,-0.5 109.842,-18.5 170.32,-18.5 170.32,-0.5 109.842,-0.5"/>
<text text-anchor="middle" x="140.081" y="-6.5" font-family="Helvetica,sans-Serif" font-size="10.00">Audio.cpp</text>
</a>
</g>
</g>
<!-- Node8&#45;&gt;Node9 -->
<g id="edge2" class="edge"><title>Node8&#45;&gt;Node9</title>
<path fill="none" stroke="midnightblue" d="M141.39,-45.1746C141.047,-36.0945 140.651,-25.5949 140.385,-18.5496"/>
<polygon fill="midnightblue" stroke="midnightblue" points="137.894,-45.3579 141.769,-55.2188 144.889,-45.0938 137.894,-45.3579"/>
</g>
<!-- Node10 -->
<g id="node4" class="node"><title>Node10</title>
<g id="a_node4"><a xlink:href="_audio_source_8cpp.html" target="_top" xlink:title="AudioSource.cpp">
<polygon fill="none" stroke="black" points="0,-0.5 0,-18.5 92.1621,-18.5 92.1621,-0.5 0,-0.5"/>
<text text-anchor="middle" x="46.0811" y="-6.5" font-family="Helvetica,sans-Serif" font-size="10.00">AudioSource.cpp</text>
</a>
</g>
</g>
<!-- Node8&#45;&gt;Node10 -->
<g id="edge3" class="edge"><title>Node8&#45;&gt;Node10</title>
<path fill="none" stroke="midnightblue" d="M118.72,-50.603C100.661,-40.6328 76.2177,-27.1379 60.7986,-18.6253"/>
<polygon fill="midnightblue" stroke="midnightblue" points="117.055,-53.6813 127.501,-55.4504 120.438,-47.5531 117.055,-53.6813"/>
</g>
<!-- Node8&#45;&gt;Node11 -->
<g id="edge4" class="edge"><title>Node8&#45;&gt;Node11</title>
<path fill="none" stroke="midnightblue" d="M162.544,-49.7719C177.268,-39.8937 196.63,-26.9036 208.97,-18.6253"/>
<polygon fill="midnightblue" stroke="midnightblue" points="160.434,-46.9727 154.079,-55.4504 164.334,-52.7857 160.434,-46.9727"/>
</g>
<!-- Node13&#45;&gt;Node11 -->
<g id="edge7" class="edge"><title>Node13&#45;&gt;Node11</title>
<path fill="none" stroke="midnightblue" d="M262.553,-48.3965C251.923,-38.6833 238.532,-26.4466 229.89,-18.5496"/>
<polygon fill="midnightblue" stroke="midnightblue" points="260.275,-51.0568 270.019,-55.2188 264.997,-45.8893 260.275,-51.0568"/>
</g>
<!-- Node14 -->
<g id="node8" class="node"><title>Node14</title>
<g id="a_node8"><a xlink:href="_scene_8cpp.html" target="_top" xlink:title="Scene.cpp">
<polygon fill="none" stroke="black" points="272.453,-0.5 272.453,-18.5 335.709,-18.5 335.709,-0.5 272.453,-0.5"/>
<text text-anchor="middle" x="304.081" y="-6.5" font-family="Helvetica,sans-Serif" font-size="10.00">Scene.cpp</text>
</a>
</g>
</g>
<!-- Node13&#45;&gt;Node14 -->
<g id="edge8" class="edge"><title>Node13&#45;&gt;Node14</title>
<path fill="none" stroke="midnightblue" d="M287.304,-46.0678C291.68,-36.7905 296.851,-25.8272 300.284,-18.5496"/>
<polygon fill="midnightblue" stroke="midnightblue" points="284.088,-44.6812 282.987,-55.2188 290.419,-47.6676 284.088,-44.6812"/>
</g>
<!-- Node15&#45;&gt;Node11 -->
<g id="edge10" class="edge"><title>Node15&#45;&gt;Node11</title>
<path fill="none" stroke="midnightblue" d="M341.881,-52.0739C312.507,-41.9647 270.392,-27.4705 244.438,-18.5383"/>
<polygon fill="midnightblue" stroke="midnightblue" points="341.097,-55.5056 351.692,-55.4504 343.375,-48.8867 341.097,-55.5056"/>
</g>
<!-- Node16 -->
<g id="node10" class="node"><title>Node16</title>
<g id="a_node10"><a xlink:href="_scene_parser_8cpp.html" target="_top" xlink:title="SceneParser.cpp">
<polygon fill="none" stroke="black" points="354,-0.5 354,-18.5 446.162,-18.5 446.162,-0.5 354,-0.5"/>
<text text-anchor="middle" x="400.081" y="-6.5" font-family="Helvetica,sans-Serif" font-size="10.00">SceneParser.cpp</text>
</a>
</g>
</g>
<!-- Node15&#45;&gt;Node16 -->
<g id="edge11" class="edge"><title>Node15&#45;&gt;Node16</title>
<path fill="none" stroke="midnightblue" d="M383.304,-46.0678C387.68,-36.7905 392.851,-25.8272 396.284,-18.5496"/>
<polygon fill="midnightblue" stroke="midnightblue" points="380.088,-44.6812 378.987,-55.2188 386.419,-47.6676 380.088,-44.6812"/>
</g>
</g>
</svg>
