<?xml version="1.0" encoding="UTF-8" standalone="no"?>
<!DOCTYPE svg PUBLIC "-//W3C//DTD SVG 1.1//EN"
 "http://www.w3.org/Graphics/SVG/1.1/DTD/svg11.dtd">
<!-- Generated by graphviz version 2.38.0 (20140413.2041)
 -->
<!-- Title: GameObject.cpp Pages: 1 -->
<svg width="900pt" height="192pt"
 viewBox="0.00 0.00 900.12 192.00" xmlns="http://www.w3.org/2000/svg" xmlns:xlink="http://www.w3.org/1999/xlink">
<g id="graph0" class="graph" transform="scale(1 1) rotate(0) translate(4 188)">
<title>GameObject.cpp</title>
<!-- Node0 -->
<g id="node1" class="node"><title>Node0</title>
<polygon fill="#bfbfbf" stroke="black" points="421.857,-165.5 421.857,-183.5 512.892,-183.5 512.892,-165.5 421.857,-165.5"/>
<text text-anchor="middle" x="467.374" y="-171.5" font-family="Helvetica,sans-Serif" font-size="10.00">GameObject.cpp</text>
</g>
<!-- Node1 -->
<g id="node2" class="node"><title>Node1</title>
<g id="a_node2"><a xlink:href="_game_object_8hpp.html" target="_top" xlink:title="GameObject.hpp">
<polygon fill="none" stroke="black" points="211.577,-110.5 211.577,-128.5 303.172,-128.5 303.172,-110.5 211.577,-110.5"/>
<text text-anchor="middle" x="257.374" y="-116.5" font-family="Helvetica,sans-Serif" font-size="10.00">GameObject.hpp</text>
</a>
</g>
</g>
<!-- Node0&#45;&gt;Node1 -->
<g id="edge1" class="edge"><title>Node0&#45;&gt;Node1</title>
<path fill="none" stroke="midnightblue" d="M435.48,-165.45C398.987,-156.24 339.106,-141.128 298.975,-130.999"/>
<polygon fill="midnightblue" stroke="midnightblue" points="299.777,-127.592 289.224,-128.538 298.064,-134.379 299.777,-127.592"/>
</g>
<!-- Node8 -->
<g id="node9" class="node"><title>Node8</title>
<polygon fill="none" stroke="#bfbfbf" points="320.722,-110.5 320.722,-128.5 474.027,-128.5 474.027,-110.5 320.722,-110.5"/>
<text text-anchor="middle" x="397.374" y="-116.5" font-family="Helvetica,sans-Serif" font-size="10.00">SRE/SimpleRenderEngine.hpp</text>
</g>
<!-- Node0&#45;&gt;Node8 -->
<g id="edge9" class="edge"><title>Node0&#45;&gt;Node8</title>
<path fill="none" stroke="midnightblue" d="M456.743,-165.45C446.053,-157.357 429.342,-144.704 416.37,-134.882"/>
<polygon fill="midnightblue" stroke="midnightblue" points="418.191,-131.871 408.106,-128.625 413.966,-137.452 418.191,-131.871"/>
</g>
<!-- Node9 -->
<g id="node10" class="node"><title>Node9</title>
<polygon fill="none" stroke="#bfbfbf" points="492.123,-110.5 492.123,-128.5 582.625,-128.5 582.625,-110.5 492.123,-110.5"/>
<text text-anchor="middle" x="537.374" y="-116.5" font-family="Helvetica,sans-Serif" font-size="10.00">SRE/Shader.hpp</text>
</g>
<!-- Node0&#45;&gt;Node9 -->
<g id="edge10" class="edge"><title>Node0&#45;&gt;Node9</title>
<path fill="none" stroke="midnightblue" d="M478.006,-165.45C488.696,-157.357 505.407,-144.704 518.379,-134.882"/>
<polygon fill="midnightblue" stroke="midnightblue" points="520.783,-137.452 526.643,-128.625 516.558,-131.871 520.783,-137.452"/>
</g>
<!-- Node10 -->
<g id="node11" class="node"><title>Node10</title>
<polygon fill="none" stroke="#bfbfbf" points="600.505,-110.5 600.505,-128.5 728.244,-128.5 728.244,-110.5 600.505,-110.5"/>
<text text-anchor="middle" x="664.374" y="-116.5" font-family="Helvetica,sans-Serif" font-size="10.00">glm/gtx/euler_angles.hpp</text>
</g>
<!-- Node0&#45;&gt;Node10 -->
<g id="edge11" class="edge"><title>Node0&#45;&gt;Node10</title>
<path fill="none" stroke="midnightblue" d="M497.294,-165.45C531.238,-156.318 586.752,-141.383 624.388,-131.258"/>
<polygon fill="midnightblue" stroke="midnightblue" points="625.749,-134.516 634.496,-128.538 623.93,-127.757 625.749,-134.516"/>
</g>
<!-- Node11 -->
<g id="node12" class="node"><title>Node11</title>
<polygon fill="none" stroke="#bfbfbf" points="746.631,-110.5 746.631,-128.5 892.118,-128.5 892.118,-110.5 746.631,-110.5"/>
<text text-anchor="middle" x="819.374" y="-116.5" font-family="Helvetica,sans-Serif" font-size="10.00">glm/gtc/matrix_transform.hpp</text>
</g>
<!-- Node0&#45;&gt;Node11 -->
<g id="edge12" class="edge"><title>Node0&#45;&gt;Node11</title>
<path fill="none" stroke="midnightblue" d="M513.031,-166.626C574.998,-157.295 686.008,-140.581 756.013,-130.04"/>
<polygon fill="midnightblue" stroke="midnightblue" points="756.666,-133.481 766.034,-128.531 755.624,-126.559 756.666,-133.481"/>
</g>
<!-- Node12 -->
<g id="node13" class="node"><title>Node12</title>
<g id="a_node13"><a xlink:href="_transform_8hpp.html" target="_top" xlink:title="Transform.hpp">
<polygon fill="none" stroke="black" points="113.045,-110.5 113.045,-128.5 193.704,-128.5 193.704,-110.5 113.045,-110.5"/>
<text text-anchor="middle" x="153.374" y="-116.5" font-family="Helvetica,sans-Serif" font-size="10.00">Transform.hpp</text>
</a>
</g>
</g>
<!-- Node0&#45;&gt;Node12 -->
<g id="edge13" class="edge"><title>Node0&#45;&gt;Node12</title>
<path fill="none" stroke="midnightblue" d="M421.403,-165.857C370.608,-157.396 286.097,-143.267 203.774,-129.232"/>
<polygon fill="midnightblue" stroke="midnightblue" points="204.194,-125.753 193.748,-127.521 203.017,-132.654 204.194,-125.753"/>
</g>
<!-- Node2 -->
<g id="node3" class="node"><title>Node2</title>
<polygon fill="none" stroke="#bfbfbf" points="16.7465,-55.5 16.7465,-73.5 100.002,-73.5 100.002,-55.5 16.7465,-55.5"/>
<text text-anchor="middle" x="58.3744" y="-61.5" font-family="Helvetica,sans-Serif" font-size="10.00">SRE/Mesh.hpp</text>
</g>
<!-- Node1&#45;&gt;Node2 -->
<g id="edge2" class="edge"><title>Node1&#45;&gt;Node2</title>
<path fill="none" stroke="midnightblue" d="M227.151,-110.45C192.716,-101.279 136.306,-86.2555 98.2806,-76.1283"/>
<polygon fill="midnightblue" stroke="midnightblue" points="99.1199,-72.7299 88.556,-73.5383 97.3184,-79.4941 99.1199,-72.7299"/>
</g>
<!-- Node3 -->
<g id="node4" class="node"><title>Node3</title>
<polygon fill="none" stroke="#bfbfbf" points="118.141,-55.5 118.141,-73.5 188.608,-73.5 188.608,-55.5 118.141,-55.5"/>
<text text-anchor="middle" x="153.374" y="-61.5" font-family="Helvetica,sans-Serif" font-size="10.00">glm/glm.hpp</text>
</g>
<!-- Node1&#45;&gt;Node3 -->
<g id="edge3" class="edge"><title>Node1&#45;&gt;Node3</title>
<path fill="none" stroke="midnightblue" d="M241.579,-110.45C224.781,-101.89 197.975,-88.2291 178.318,-78.2119"/>
<polygon fill="midnightblue" stroke="midnightblue" points="179.817,-75.0475 169.318,-73.6253 176.639,-81.2843 179.817,-75.0475"/>
</g>
<!-- Node4 -->
<g id="node5" class="node"><title>Node4</title>
<polygon fill="none" stroke="#bfbfbf" points="230.148,-0.5 230.148,-18.5 270.601,-18.5 270.601,-0.5 230.148,-0.5"/>
<text text-anchor="middle" x="250.374" y="-6.5" font-family="Helvetica,sans-Serif" font-size="10.00">string</text>
</g>
<!-- Node1&#45;&gt;Node4 -->
<g id="edge4" class="edge"><title>Node1&#45;&gt;Node4</title>
<path fill="none" stroke="midnightblue" d="M299.455,-110.448C337.199,-101.209 383.87,-83.5387 364.374,-55 345.754,-27.742 307.742,-17.1792 280.737,-13.0868"/>
<polygon fill="midnightblue" stroke="midnightblue" points="281.003,-9.5921 270.635,-11.7753 280.101,-16.5338 281.003,-9.5921"/>
</g>
<!-- Node5 -->
<g id="node6" class="node"><title>Node5</title>
<polygon fill="none" stroke="#bfbfbf" points="311.759,-55.5 311.759,-73.5 354.99,-73.5 354.99,-55.5 311.759,-55.5"/>
<text text-anchor="middle" x="333.374" y="-61.5" font-family="Helvetica,sans-Serif" font-size="10.00">vector</text>
</g>
<!-- Node1&#45;&gt;Node5 -->
<g id="edge5" class="edge"><title>Node1&#45;&gt;Node5</title>
<path fill="none" stroke="midnightblue" d="M268.917,-110.45C280.635,-102.279 299.016,-89.4604 313.156,-79.5996"/>
<polygon fill="midnightblue" stroke="midnightblue" points="315.523,-82.2163 321.723,-73.6253 311.519,-76.4746 315.523,-82.2163"/>
</g>
<!-- Node6 -->
<g id="node7" class="node"><title>Node6</title>
<g id="a_node7"><a xlink:href="_component_8hpp.html" target="_top" xlink:title="Component.hpp">
<polygon fill="none" stroke="black" points="206.793,-55.5 206.793,-73.5 293.955,-73.5 293.955,-55.5 206.793,-55.5"/>
<text text-anchor="middle" x="250.374" y="-61.5" font-family="Helvetica,sans-Serif" font-size="10.00">Component.hpp</text>
</a>
</g>
</g>
<!-- Node1&#45;&gt;Node6 -->
<g id="edge6" class="edge"><title>Node1&#45;&gt;Node6</title>
<path fill="none" stroke="midnightblue" d="M256.281,-110.219C255.34,-103.099 253.951,-92.5775 252.756,-83.5289"/>
<polygon fill="midnightblue" stroke="midnightblue" points="256.217,-83.0052 251.438,-73.5496 249.277,-83.9218 256.217,-83.0052"/>
</g>
<!-- Node7 -->
<g id="node8" class="node"><title>Node7</title>
<polygon fill="none" stroke="#bfbfbf" points="411.318,-55.5 411.318,-73.5 463.431,-73.5 463.431,-55.5 411.318,-55.5"/>
<text text-anchor="middle" x="437.374" y="-61.5" font-family="Helvetica,sans-Serif" font-size="10.00">memory</text>
</g>
<!-- Node1&#45;&gt;Node7 -->
<g id="edge8" class="edge"><title>Node1&#45;&gt;Node7</title>
<path fill="none" stroke="midnightblue" d="M284.713,-110.45C315.952,-101.252 367.189,-86.1658 401.586,-76.0377"/>
<polygon fill="midnightblue" stroke="midnightblue" points="402.64,-79.3759 411.244,-73.1938 400.663,-72.661 402.64,-79.3759"/>
</g>
<!-- Node6&#45;&gt;Node4 -->
<g id="edge7" class="edge"><title>Node6&#45;&gt;Node4</title>
<path fill="none" stroke="midnightblue" d="M250.374,-55.2188C250.374,-48.1769 250.374,-37.8083 250.374,-28.8277"/>
<polygon fill="midnightblue" stroke="midnightblue" points="253.875,-28.5495 250.374,-18.5496 246.875,-28.5496 253.875,-28.5495"/>
</g>
<!-- Node12&#45;&gt;Node2 -->
<g id="edge15" class="edge"><title>Node12&#45;&gt;Node2</title>
<path fill="none" stroke="midnightblue" d="M138.946,-110.45C123.88,-102.045 100.003,-88.7241 82.1456,-78.7618"/>
<polygon fill="midnightblue" stroke="midnightblue" points="83.3768,-75.4409 72.9387,-73.6253 79.9663,-81.5539 83.3768,-75.4409"/>
</g>
<!-- Node12&#45;&gt;Node3 -->
<g id="edge16" class="edge"><title>Node12&#45;&gt;Node3</title>
<path fill="none" stroke="midnightblue" d="M153.374,-110.219C153.374,-103.177 153.374,-92.8083 153.374,-83.8277"/>
<polygon fill="midnightblue" stroke="midnightblue" points="156.875,-83.5495 153.374,-73.5496 149.875,-83.5496 156.875,-83.5495"/>
</g>
<!-- Node12&#45;&gt;Node4 -->
<g id="edge17" class="edge"><title>Node12&#45;&gt;Node4</title>
<path fill="none" stroke="midnightblue" d="M112.649,-114.985C59.23,-108.82 -24.2154,-92.9001 7.37442,-55 34.0658,-22.9769 160.346,-13.9279 219.573,-11.4273"/>
<polygon fill="midnightblue" stroke="midnightblue" points="219.955,-14.9152 229.812,-11.0325 219.685,-7.92044 219.955,-14.9152"/>
</g>
<!-- Node12&#45;&gt;Node5 -->
<g id="edge18" class="edge"><title>Node12&#45;&gt;Node5</title>
<path fill="none" stroke="midnightblue" d="M180.713,-110.45C213.244,-100.872 267.461,-84.9079 301.765,-74.8074"/>
<polygon fill="midnightblue" stroke="midnightblue" points="303.121,-78.0566 311.725,-71.8745 301.144,-71.3416 303.121,-78.0566"/>
</g>
<!-- Node12&#45;&gt;Node6 -->
<g id="edge14" class="edge"><title>Node12&#45;&gt;Node6</title>
<path fill="none" stroke="midnightblue" d="M168.107,-110.45C183.632,-101.968 208.322,-88.477 226.608,-78.486"/>
<polygon fill="midnightblue" stroke="midnightblue" points="228.406,-81.4917 235.504,-73.6253 225.05,-75.3488 228.406,-81.4917"/>
</g>
</g>
</svg>
