<?xml version="1.0" encoding="UTF-8" standalone="no"?>
<!DOCTYPE svg PUBLIC "-//W3C//DTD SVG 1.1//EN"
 "http://www.w3.org/Graphics/SVG/1.1/DTD/svg11.dtd">
<!-- Generated by graphviz version 2.38.0 (20140413.2041)
 -->
<!-- Title: InputManager.hpp Pages: 1 -->
<svg width="188pt" height="82pt"
 viewBox="0.00 0.00 187.90 82.00" xmlns="http://www.w3.org/2000/svg" xmlns:xlink="http://www.w3.org/1999/xlink">
<g id="graph0" class="graph" transform="scale(1 1) rotate(0) translate(4 78)">
<title>InputManager.hpp</title>
<!-- Node0 -->
<g id="node1" class="node"><title>Node0</title>
<polygon fill="#bfbfbf" stroke="black" points="37.4189,-55.5 37.4189,-73.5 134.044,-73.5 134.044,-55.5 37.4189,-55.5"/>
<text text-anchor="middle" x="85.7314" y="-61.5" font-family="Helvetica,sans-Serif" font-size="10.00">InputManager.hpp</text>
</g>
<!-- Node1 -->
<g id="node2" class="node"><title>Node1</title>
<polygon fill="none" stroke="#bfbfbf" points="0,-0.5 0,-18.5 45.4629,-18.5 45.4629,-0.5 0,-0.5"/>
<text text-anchor="middle" x="22.7314" y="-6.5" font-family="Helvetica,sans-Serif" font-size="10.00">stdio.h</text>
</g>
<!-- Node0&#45;&gt;Node1 -->
<g id="edge1" class="edge"><title>Node0&#45;&gt;Node1</title>
<path fill="none" stroke="midnightblue" d="M76.1631,-55.4504C66.6347,-47.4345 51.7911,-34.9471 40.1649,-25.1663"/>
<polygon fill="midnightblue" stroke="midnightblue" points="42.2953,-22.3847 32.3898,-18.6253 37.7889,-27.7413 42.2953,-22.3847"/>
</g>
<!-- Node2 -->
<g id="node3" class="node"><title>Node2</title>
<polygon fill="none" stroke="#bfbfbf" points="63.835,-0.5 63.835,-18.5 107.628,-18.5 107.628,-0.5 63.835,-0.5"/>
<text text-anchor="middle" x="85.7314" y="-6.5" font-family="Helvetica,sans-Serif" font-size="10.00">SDL.h</text>
</g>
<!-- Node0&#45;&gt;Node2 -->
<g id="edge2" class="edge"><title>Node0&#45;&gt;Node2</title>
<path fill="none" stroke="midnightblue" d="M85.7314,-55.2188C85.7314,-48.1769 85.7314,-37.8083 85.7314,-28.8277"/>
<polygon fill="midnightblue" stroke="midnightblue" points="89.2315,-28.5495 85.7314,-18.5496 82.2315,-28.5496 89.2315,-28.5495"/>
</g>
<!-- Node3 -->
<g id="node4" class="node"><title>Node3</title>
<polygon fill="none" stroke="#bfbfbf" points="125.559,-0.5 125.559,-18.5 179.904,-18.5 179.904,-0.5 125.559,-0.5"/>
<text text-anchor="middle" x="152.731" y="-6.5" font-family="Helvetica,sans-Serif" font-size="10.00">iostream</text>
</g>
<!-- Node0&#45;&gt;Node3 -->
<g id="edge3" class="edge"><title>Node0&#45;&gt;Node3</title>
<path fill="none" stroke="midnightblue" d="M95.9073,-55.4504C106.139,-47.3566 122.134,-34.7042 134.55,-24.8822"/>
<polygon fill="midnightblue" stroke="midnightblue" points="136.788,-27.5744 142.46,-18.6253 132.446,-22.0844 136.788,-27.5744"/>
</g>
</g>
</svg>
