<?xml version="1.0" encoding="UTF-8" standalone="no"?>
<!DOCTYPE svg PUBLIC "-//W3C//DTD SVG 1.1//EN"
 "http://www.w3.org/Graphics/SVG/1.1/DTD/svg11.dtd">
<!-- Generated by graphviz version 2.38.0 (20140413.2041)
 -->
<!-- Title: InputManager.hpp Pages: 1 -->
<svg width="188pt" height="82pt"
 viewBox="0.00 0.00 188.05 82.00" xmlns="http://www.w3.org/2000/svg" xmlns:xlink="http://www.w3.org/1999/xlink">
<g id="graph0" class="graph" transform="scale(1 1) rotate(0) translate(4 78)">
<title>InputManager.hpp</title>
<!-- Node4 -->
<g id="node1" class="node"><title>Node4</title>
<polygon fill="#bfbfbf" stroke="black" points="33.707,-55.5 33.707,-73.5 130.332,-73.5 130.332,-55.5 33.707,-55.5"/>
<text text-anchor="middle" x="82.0195" y="-61.5" font-family="Helvetica,sans-Serif" font-size="10.00">InputManager.hpp</text>
</g>
<!-- Node5 -->
<g id="node2" class="node"><title>Node5</title>
<g id="a_node2"><a xlink:href="_engine_8cpp.html" target="_top" xlink:title="Engine.cpp">
<polygon fill="none" stroke="black" points="0,-0.5 0,-18.5 66.0391,-18.5 66.0391,-0.5 0,-0.5"/>
<text text-anchor="middle" x="33.0195" y="-6.5" font-family="Helvetica,sans-Serif" font-size="10.00">Engine.cpp</text>
</a>
</g>
</g>
<!-- Node4&#45;&gt;Node5 -->
<g id="edge1" class="edge"><title>Node4&#45;&gt;Node5</title>
<path fill="none" stroke="midnightblue" d="M67.5251,-47.8223C58.6337,-38.2051 47.6194,-26.2917 40.4616,-18.5496"/>
<polygon fill="midnightblue" stroke="midnightblue" points="65.0047,-50.252 74.3633,-55.2188 70.1447,-45.5 65.0047,-50.252"/>
</g>
<!-- Node6 -->
<g id="node3" class="node"><title>Node6</title>
<g id="a_node3"><a xlink:href="_input_manager_8cpp.html" target="_top" xlink:title="InputManager.cpp">
<polygon fill="none" stroke="black" points="83.9878,-0.5 83.9878,-18.5 180.051,-18.5 180.051,-0.5 83.9878,-0.5"/>
<text text-anchor="middle" x="132.02" y="-6.5" font-family="Helvetica,sans-Serif" font-size="10.00">InputManager.cpp</text>
</a>
</g>
</g>
<!-- Node4&#45;&gt;Node6 -->
<g id="edge2" class="edge"><title>Node4&#45;&gt;Node6</title>
<path fill="none" stroke="midnightblue" d="M96.8098,-47.8223C105.883,-38.2051 117.122,-26.2917 124.426,-18.5496"/>
<polygon fill="midnightblue" stroke="midnightblue" points="94.1484,-45.543 89.832,-55.2188 99.2402,-50.3466 94.1484,-45.543"/>
</g>
</g>
</svg>
