<?xml version="1.0" encoding="UTF-8" standalone="no"?>
<!DOCTYPE svg PUBLIC "-//W3C//DTD SVG 1.1//EN"
 "http://www.w3.org/Graphics/SVG/1.1/DTD/svg11.dtd">
<!-- Generated by graphviz version 2.38.0 (20140413.2041)
 -->
<!-- Title: InputManager.cpp Pages: 1 -->
<svg width="190pt" height="137pt"
 viewBox="0.00 0.00 189.90 137.00" xmlns="http://www.w3.org/2000/svg" xmlns:xlink="http://www.w3.org/1999/xlink">
<g id="graph0" class="graph" transform="scale(1 1) rotate(0) translate(4 133)">
<title>InputManager.cpp</title>
<!-- Node0 -->
<g id="node1" class="node"><title>Node0</title>
<polygon fill="#bfbfbf" stroke="black" points="72.6997,-110.5 72.6997,-128.5 168.763,-128.5 168.763,-110.5 72.6997,-110.5"/>
<text text-anchor="middle" x="120.731" y="-116.5" font-family="Helvetica,sans-Serif" font-size="10.00">InputManager.cpp</text>
</g>
<!-- Node1 -->
<g id="node2" class="node"><title>Node1</title>
<g id="a_node2"><a xlink:href="_input_manager_8hpp.html" target="_top" xlink:title="InputManager.hpp">
<polygon fill="none" stroke="black" points="34.4189,-55.5 34.4189,-73.5 131.044,-73.5 131.044,-55.5 34.4189,-55.5"/>
<text text-anchor="middle" x="82.7314" y="-61.5" font-family="Helvetica,sans-Serif" font-size="10.00">InputManager.hpp</text>
</a>
</g>
</g>
<!-- Node0&#45;&gt;Node1 -->
<g id="edge1" class="edge"><title>Node0&#45;&gt;Node1</title>
<path fill="none" stroke="midnightblue" d="M114.794,-110.219C109.352,-102.629 101.14,-91.1753 94.3893,-81.7597"/>
<polygon fill="midnightblue" stroke="midnightblue" points="97.1742,-79.6371 88.5028,-73.5496 91.4853,-83.716 97.1742,-79.6371"/>
</g>
<!-- Node4 -->
<g id="node5" class="node"><title>Node4</title>
<polygon fill="none" stroke="#bfbfbf" points="127.559,-0.5 127.559,-18.5 181.904,-18.5 181.904,-0.5 127.559,-0.5"/>
<text text-anchor="middle" x="154.731" y="-6.5" font-family="Helvetica,sans-Serif" font-size="10.00">iostream</text>
</g>
<!-- Node0&#45;&gt;Node4 -->
<g id="edge5" class="edge"><title>Node0&#45;&gt;Node4</title>
<path fill="none" stroke="midnightblue" d="M124.662,-110.46C128.84,-101.669 135.427,-87.087 139.731,-74 144.659,-59.0192 148.663,-41.5525 151.291,-28.7341"/>
<polygon fill="midnightblue" stroke="midnightblue" points="154.74,-29.3328 153.235,-18.8454 147.872,-27.9826 154.74,-29.3328"/>
</g>
<!-- Node2 -->
<g id="node3" class="node"><title>Node2</title>
<polygon fill="none" stroke="#bfbfbf" points="0,-0.5 0,-18.5 45.4629,-18.5 45.4629,-0.5 0,-0.5"/>
<text text-anchor="middle" x="22.7314" y="-6.5" font-family="Helvetica,sans-Serif" font-size="10.00">stdio.h</text>
</g>
<!-- Node1&#45;&gt;Node2 -->
<g id="edge2" class="edge"><title>Node1&#45;&gt;Node2</title>
<path fill="none" stroke="midnightblue" d="M73.6187,-55.4504C64.6321,-47.5123 50.6814,-35.1891 39.6581,-25.4519"/>
<polygon fill="midnightblue" stroke="midnightblue" points="41.7418,-22.6225 31.9299,-18.6253 37.1075,-27.8689 41.7418,-22.6225"/>
</g>
<!-- Node3 -->
<g id="node4" class="node"><title>Node3</title>
<polygon fill="none" stroke="#bfbfbf" points="63.835,-0.5 63.835,-18.5 107.628,-18.5 107.628,-0.5 63.835,-0.5"/>
<text text-anchor="middle" x="85.7314" y="-6.5" font-family="Helvetica,sans-Serif" font-size="10.00">SDL.h</text>
</g>
<!-- Node1&#45;&gt;Node3 -->
<g id="edge3" class="edge"><title>Node1&#45;&gt;Node3</title>
<path fill="none" stroke="midnightblue" d="M83.2002,-55.2188C83.5988,-48.1769 84.1857,-37.8083 84.694,-28.8277"/>
<polygon fill="midnightblue" stroke="midnightblue" points="88.205,-28.7314 85.2758,-18.5496 81.2162,-28.3357 88.205,-28.7314"/>
</g>
<!-- Node1&#45;&gt;Node4 -->
<g id="edge4" class="edge"><title>Node1&#45;&gt;Node4</title>
<path fill="none" stroke="midnightblue" d="M93.6667,-55.4504C104.768,-47.2788 122.181,-34.4604 135.577,-24.5996"/>
<polygon fill="midnightblue" stroke="midnightblue" points="137.715,-27.3722 143.693,-18.6253 133.565,-21.7348 137.715,-27.3722"/>
</g>
</g>
</svg>
