<?xml version="1.0" encoding="UTF-8" standalone="no"?>
<!DOCTYPE svg PUBLIC "-//W3C//DTD SVG 1.1//EN"
 "http://www.w3.org/Graphics/SVG/1.1/DTD/svg11.dtd">
<!-- Generated by graphviz version 2.38.0 (20140413.2041)
 -->
<!-- Title: LeakDetection.hpp Pages: 1 -->
<svg width="190pt" height="82pt"
 viewBox="0.00 0.00 190.44 82.00" xmlns="http://www.w3.org/2000/svg" xmlns:xlink="http://www.w3.org/1999/xlink">
<g id="graph0" class="graph" transform="scale(1 1) rotate(0) translate(4 78)">
<title>LeakDetection.hpp</title>
<!-- Node1 -->
<g id="node1" class="node"><title>Node1</title>
<polygon fill="#bfbfbf" stroke="black" points="33.3228,-55.5 33.3228,-73.5 132.716,-73.5 132.716,-55.5 33.3228,-55.5"/>
<text text-anchor="middle" x="83.0195" y="-61.5" font-family="Helvetica,sans-Serif" font-size="10.00">LeakDetection.hpp</text>
</g>
<!-- Node2 -->
<g id="node2" class="node"><title>Node2</title>
<g id="a_node2"><a xlink:href="_engine_8cpp.html" target="_top" xlink:title="Engine.cpp">
<polygon fill="none" stroke="black" points="0,-0.5 0,-18.5 66.0391,-18.5 66.0391,-0.5 0,-0.5"/>
<text text-anchor="middle" x="33.0195" y="-6.5" font-family="Helvetica,sans-Serif" font-size="10.00">Engine.cpp</text>
</a>
</g>
</g>
<!-- Node1&#45;&gt;Node2 -->
<g id="edge1" class="edge"><title>Node1&#45;&gt;Node2</title>
<path fill="none" stroke="midnightblue" d="M68.2293,-47.8223C59.1564,-38.2051 47.9174,-26.2917 40.6135,-18.5496"/>
<polygon fill="midnightblue" stroke="midnightblue" points="65.7989,-50.3466 75.207,-55.2188 70.8907,-45.543 65.7989,-50.3466"/>
</g>
<!-- Node3 -->
<g id="node3" class="node"><title>Node3</title>
<g id="a_node3"><a xlink:href="_leak_detection_8cpp.html" target="_top" xlink:title="LeakDetection.cpp">
<polygon fill="none" stroke="black" points="83.6035,-0.5 83.6035,-18.5 182.436,-18.5 182.436,-0.5 83.6035,-0.5"/>
<text text-anchor="middle" x="133.02" y="-6.5" font-family="Helvetica,sans-Serif" font-size="10.00">LeakDetection.cpp</text>
</a>
</g>
</g>
<!-- Node1&#45;&gt;Node3 -->
<g id="edge2" class="edge"><title>Node1&#45;&gt;Node3</title>
<path fill="none" stroke="midnightblue" d="M97.8098,-47.8223C106.883,-38.2051 118.122,-26.2917 125.426,-18.5496"/>
<polygon fill="midnightblue" stroke="midnightblue" points="95.1484,-45.543 90.832,-55.2188 100.24,-50.3466 95.1484,-45.543"/>
</g>
</g>
</svg>
