<?xml version="1.0" encoding="UTF-8" standalone="no"?>
<!DOCTYPE svg PUBLIC "-//W3C//DTD SVG 1.1//EN"
 "http://www.w3.org/Graphics/SVG/1.1/DTD/svg11.dtd">
<!-- Generated by graphviz version 2.38.0 (20140413.2041)
 -->
<!-- Title: LightSource.hpp Pages: 1 -->
<svg width="180pt" height="82pt"
 viewBox="0.00 0.00 180.15 82.00" xmlns="http://www.w3.org/2000/svg" xmlns:xlink="http://www.w3.org/1999/xlink">
<g id="graph0" class="graph" transform="scale(1 1) rotate(0) translate(4 78)">
<title>LightSource.hpp</title>
<!-- Node9 -->
<g id="node1" class="node"><title>Node9</title>
<polygon fill="#bfbfbf" stroke="black" points="35.6035,-55.5 35.6035,-73.5 124.436,-73.5 124.436,-55.5 35.6035,-55.5"/>
<text text-anchor="middle" x="80.0195" y="-61.5" font-family="Helvetica,sans-Serif" font-size="10.00">LightSource.hpp</text>
</g>
<!-- Node10 -->
<g id="node2" class="node"><title>Node10</title>
<g id="a_node2"><a xlink:href="_engine_8cpp.html" target="_top" xlink:title="Engine.cpp">
<polygon fill="none" stroke="black" points="0,-0.5 0,-18.5 66.0391,-18.5 66.0391,-0.5 0,-0.5"/>
<text text-anchor="middle" x="33.0195" y="-6.5" font-family="Helvetica,sans-Serif" font-size="10.00">Engine.cpp</text>
</a>
</g>
</g>
<!-- Node9&#45;&gt;Node10 -->
<g id="edge1" class="edge"><title>Node9&#45;&gt;Node10</title>
<path fill="none" stroke="midnightblue" d="M65.8602,-47.5331C57.3773,-37.9673 46.9549,-26.2143 40.1578,-18.5496"/>
<polygon fill="midnightblue" stroke="midnightblue" points="63.4222,-50.0591 72.6758,-55.2188 68.6595,-45.4146 63.4222,-50.0591"/>
</g>
<!-- Node11 -->
<g id="node3" class="node"><title>Node11</title>
<g id="a_node3"><a xlink:href="_light_source_8cpp.html" target="_top" xlink:title="LightSource.cpp">
<polygon fill="none" stroke="black" points="83.8843,-0.5 83.8843,-18.5 172.155,-18.5 172.155,-0.5 83.8843,-0.5"/>
<text text-anchor="middle" x="128.02" y="-6.5" font-family="Helvetica,sans-Serif" font-size="10.00">LightSource.cpp</text>
</a>
</g>
</g>
<!-- Node9&#45;&gt;Node11 -->
<g id="edge2" class="edge"><title>Node9&#45;&gt;Node11</title>
<path fill="none" stroke="midnightblue" d="M94.4801,-47.5331C103.144,-37.9673 113.788,-26.2143 120.729,-18.5496"/>
<polygon fill="midnightblue" stroke="midnightblue" points="91.6381,-45.4572 87.5195,-55.2188 96.8266,-50.1562 91.6381,-45.4572"/>
</g>
</g>
</svg>
