<?xml version="1.0" encoding="UTF-8" standalone="no"?>
<!DOCTYPE svg PUBLIC "-//W3C//DTD SVG 1.1//EN"
 "http://www.w3.org/Graphics/SVG/1.1/DTD/svg11.dtd">
<!-- Generated by graphviz version 2.38.0 (20140413.2041)
 -->
<!-- Title: LightSource.cpp Pages: 1 -->
<svg width="632pt" height="247pt"
 viewBox="0.00 0.00 632.30 247.00" xmlns="http://www.w3.org/2000/svg" xmlns:xlink="http://www.w3.org/1999/xlink">
<g id="graph0" class="graph" transform="scale(1 1) rotate(0) translate(4 243)">
<title>LightSource.cpp</title>
<!-- Node0 -->
<g id="node1" class="node"><title>Node0</title>
<polygon fill="#bfbfbf" stroke="black" points="409.921,-220.5 409.921,-238.5 498.192,-238.5 498.192,-220.5 409.921,-220.5"/>
<text text-anchor="middle" x="454.057" y="-226.5" font-family="Helvetica,sans-Serif" font-size="10.00">LightSource.cpp</text>
</g>
<!-- Node1 -->
<g id="node2" class="node"><title>Node1</title>
<g id="a_node2"><a xlink:href="_light_source_8hpp.html" target="_top" xlink:title="LightSource.hpp">
<polygon fill="none" stroke="black" points="364.641,-165.5 364.641,-183.5 453.473,-183.5 453.473,-165.5 364.641,-165.5"/>
<text text-anchor="middle" x="409.057" y="-171.5" font-family="Helvetica,sans-Serif" font-size="10.00">LightSource.hpp</text>
</a>
</g>
</g>
<!-- Node0&#45;&gt;Node1 -->
<g id="edge1" class="edge"><title>Node0&#45;&gt;Node1</title>
<path fill="none" stroke="midnightblue" d="M447.025,-220.219C440.449,-212.473 430.454,-200.701 422.37,-191.18"/>
<polygon fill="midnightblue" stroke="midnightblue" points="425.032,-188.907 415.891,-183.55 419.695,-193.438 425.032,-188.907"/>
</g>
<!-- Node10 -->
<g id="node11" class="node"><title>Node10</title>
<polygon fill="none" stroke="#bfbfbf" points="471.884,-165.5 471.884,-183.5 526.229,-183.5 526.229,-165.5 471.884,-165.5"/>
<text text-anchor="middle" x="499.057" y="-171.5" font-family="Helvetica,sans-Serif" font-size="10.00">iostream</text>
</g>
<!-- Node0&#45;&gt;Node10 -->
<g id="edge11" class="edge"><title>Node0&#45;&gt;Node10</title>
<path fill="none" stroke="midnightblue" d="M461.088,-220.219C467.665,-212.473 477.659,-200.701 485.744,-191.18"/>
<polygon fill="midnightblue" stroke="midnightblue" points="488.418,-193.438 492.222,-183.55 483.082,-188.907 488.418,-193.438"/>
</g>
<!-- Node11 -->
<g id="node12" class="node"><title>Node11</title>
<g id="a_node12"><a xlink:href="_game_object_8hpp.html" target="_top" xlink:title="GameObject.hpp">
<polygon fill="none" stroke="black" points="192.259,-110.5 192.259,-128.5 283.854,-128.5 283.854,-110.5 192.259,-110.5"/>
<text text-anchor="middle" x="238.057" y="-116.5" font-family="Helvetica,sans-Serif" font-size="10.00">GameObject.hpp</text>
</a>
</g>
</g>
<!-- Node0&#45;&gt;Node11 -->
<g id="edge12" class="edge"><title>Node0&#45;&gt;Node11</title>
<path fill="none" stroke="midnightblue" d="M435.092,-220.342C415.221,-211.688 383.181,-197.438 356.057,-184 322.711,-167.48 284.966,-146.813 261.339,-133.631"/>
<polygon fill="midnightblue" stroke="midnightblue" points="262.86,-130.471 252.425,-128.639 259.44,-136.579 262.86,-130.471"/>
</g>
<!-- Node13 -->
<g id="node14" class="node"><title>Node13</title>
<polygon fill="none" stroke="#bfbfbf" points="543.813,-165.5 543.813,-183.5 624.3,-183.5 624.3,-165.5 543.813,-165.5"/>
<text text-anchor="middle" x="584.057" y="-171.5" font-family="Helvetica,sans-Serif" font-size="10.00">SRE/Light.hpp</text>
</g>
<!-- Node0&#45;&gt;Node13 -->
<g id="edge19" class="edge"><title>Node0&#45;&gt;Node13</title>
<path fill="none" stroke="midnightblue" d="M473.801,-220.45C495.372,-211.656 530.143,-197.48 554.867,-187.401"/>
<polygon fill="midnightblue" stroke="midnightblue" points="556.188,-190.642 564.127,-183.625 553.545,-184.16 556.188,-190.642"/>
</g>
<!-- Node2 -->
<g id="node3" class="node"><title>Node2</title>
<polygon fill="none" stroke="#bfbfbf" points="571.325,-110.5 571.325,-128.5 616.788,-128.5 616.788,-110.5 571.325,-110.5"/>
<text text-anchor="middle" x="594.057" y="-116.5" font-family="Helvetica,sans-Serif" font-size="10.00">stdio.h</text>
</g>
<!-- Node1&#45;&gt;Node2 -->
<g id="edge2" class="edge"><title>Node1&#45;&gt;Node2</title>
<path fill="none" stroke="midnightblue" d="M437.154,-165.45C470.55,-155.883 526.179,-139.946 561.442,-129.844"/>
<polygon fill="midnightblue" stroke="midnightblue" points="562.6,-133.153 571.249,-127.034 560.672,-126.424 562.6,-133.153"/>
</g>
<!-- Node3 -->
<g id="node4" class="node"><title>Node3</title>
<g id="a_node4"><a xlink:href="_transform_8hpp.html" target="_top" xlink:title="Transform.hpp">
<polygon fill="none" stroke="black" points="301.728,-110.5 301.728,-128.5 382.386,-128.5 382.386,-110.5 301.728,-110.5"/>
<text text-anchor="middle" x="342.057" y="-116.5" font-family="Helvetica,sans-Serif" font-size="10.00">Transform.hpp</text>
</a>
</g>
</g>
<!-- Node1&#45;&gt;Node3 -->
<g id="edge3" class="edge"><title>Node1&#45;&gt;Node3</title>
<path fill="none" stroke="midnightblue" d="M398.881,-165.45C388.649,-157.357 372.654,-144.704 360.238,-134.882"/>
<polygon fill="midnightblue" stroke="midnightblue" points="362.343,-132.084 352.328,-128.625 358,-137.574 362.343,-132.084"/>
</g>
<!-- Node9 -->
<g id="node10" class="node"><title>Node9</title>
<polygon fill="none" stroke="#bfbfbf" points="400.404,-110.5 400.404,-128.5 553.709,-128.5 553.709,-110.5 400.404,-110.5"/>
<text text-anchor="middle" x="477.057" y="-116.5" font-family="Helvetica,sans-Serif" font-size="10.00">SRE/SimpleRenderEngine.hpp</text>
</g>
<!-- Node1&#45;&gt;Node9 -->
<g id="edge10" class="edge"><title>Node1&#45;&gt;Node9</title>
<path fill="none" stroke="midnightblue" d="M419.384,-165.45C429.769,-157.357 446.002,-144.704 458.604,-134.882"/>
<polygon fill="midnightblue" stroke="midnightblue" points="460.896,-137.533 466.632,-128.625 456.593,-132.012 460.896,-137.533"/>
</g>
<!-- Node4 -->
<g id="node5" class="node"><title>Node4</title>
<g id="a_node5"><a xlink:href="_component_8hpp.html" target="_top" xlink:title="Component.hpp">
<polygon fill="none" stroke="black" points="298.476,-55.5 298.476,-73.5 385.638,-73.5 385.638,-55.5 298.476,-55.5"/>
<text text-anchor="middle" x="342.057" y="-61.5" font-family="Helvetica,sans-Serif" font-size="10.00">Component.hpp</text>
</a>
</g>
</g>
<!-- Node3&#45;&gt;Node4 -->
<g id="edge4" class="edge"><title>Node3&#45;&gt;Node4</title>
<path fill="none" stroke="midnightblue" d="M342.057,-110.219C342.057,-103.177 342.057,-92.8083 342.057,-83.8277"/>
<polygon fill="midnightblue" stroke="midnightblue" points="345.557,-83.5495 342.057,-73.5496 338.557,-83.5496 345.557,-83.5495"/>
</g>
<!-- Node5 -->
<g id="node6" class="node"><title>Node5</title>
<polygon fill="none" stroke="#bfbfbf" points="321.83,-0.5 321.83,-18.5 362.283,-18.5 362.283,-0.5 321.83,-0.5"/>
<text text-anchor="middle" x="342.057" y="-6.5" font-family="Helvetica,sans-Serif" font-size="10.00">string</text>
</g>
<!-- Node3&#45;&gt;Node5 -->
<g id="edge8" class="edge"><title>Node3&#45;&gt;Node5</title>
<path fill="none" stroke="midnightblue" d="M373.516,-110.498C403.807,-102.082 446.409,-88.1224 456.057,-74 479.039,-40.3571 413.468,-22.6444 372.421,-15.0833"/>
<polygon fill="midnightblue" stroke="midnightblue" points="372.785,-11.5942 362.334,-13.3357 371.59,-18.4915 372.785,-11.5942"/>
</g>
<!-- Node6 -->
<g id="node7" class="node"><title>Node6</title>
<polygon fill="none" stroke="#bfbfbf" points="108.429,-55.5 108.429,-73.5 191.685,-73.5 191.685,-55.5 108.429,-55.5"/>
<text text-anchor="middle" x="150.057" y="-61.5" font-family="Helvetica,sans-Serif" font-size="10.00">SRE/Mesh.hpp</text>
</g>
<!-- Node3&#45;&gt;Node6 -->
<g id="edge6" class="edge"><title>Node3&#45;&gt;Node6</title>
<path fill="none" stroke="midnightblue" d="M312.896,-110.45C279.814,-101.318 225.709,-86.3833 189.028,-76.2578"/>
<polygon fill="midnightblue" stroke="midnightblue" points="189.747,-72.8255 179.177,-73.5383 187.885,-79.5731 189.747,-72.8255"/>
</g>
<!-- Node7 -->
<g id="node8" class="node"><title>Node7</title>
<polygon fill="none" stroke="#bfbfbf" points="209.823,-55.5 209.823,-73.5 280.291,-73.5 280.291,-55.5 209.823,-55.5"/>
<text text-anchor="middle" x="245.057" y="-61.5" font-family="Helvetica,sans-Serif" font-size="10.00">glm/glm.hpp</text>
</g>
<!-- Node3&#45;&gt;Node7 -->
<g id="edge7" class="edge"><title>Node3&#45;&gt;Node7</title>
<path fill="none" stroke="midnightblue" d="M327.324,-110.45C311.799,-101.968 287.109,-88.477 268.823,-78.486"/>
<polygon fill="midnightblue" stroke="midnightblue" points="270.381,-75.3488 259.927,-73.6253 267.025,-81.4917 270.381,-75.3488"/>
</g>
<!-- Node8 -->
<g id="node9" class="node"><title>Node8</title>
<polygon fill="none" stroke="#bfbfbf" points="403.441,-55.5 403.441,-73.5 446.672,-73.5 446.672,-55.5 403.441,-55.5"/>
<text text-anchor="middle" x="425.057" y="-61.5" font-family="Helvetica,sans-Serif" font-size="10.00">vector</text>
</g>
<!-- Node3&#45;&gt;Node8 -->
<g id="edge9" class="edge"><title>Node3&#45;&gt;Node8</title>
<path fill="none" stroke="midnightblue" d="M354.663,-110.45C367.703,-102.123 388.301,-88.9704 403.853,-79.0394"/>
<polygon fill="midnightblue" stroke="midnightblue" points="405.788,-81.9571 412.332,-73.6253 402.02,-76.0574 405.788,-81.9571"/>
</g>
<!-- Node4&#45;&gt;Node5 -->
<g id="edge5" class="edge"><title>Node4&#45;&gt;Node5</title>
<path fill="none" stroke="midnightblue" d="M342.057,-55.2188C342.057,-48.1769 342.057,-37.8083 342.057,-28.8277"/>
<polygon fill="midnightblue" stroke="midnightblue" points="345.557,-28.5495 342.057,-18.5496 338.557,-28.5496 345.557,-28.5495"/>
</g>
<!-- Node11&#45;&gt;Node4 -->
<g id="edge17" class="edge"><title>Node11&#45;&gt;Node4</title>
<path fill="none" stroke="midnightblue" d="M253.852,-110.45C270.65,-101.89 297.456,-88.2291 317.113,-78.2119"/>
<polygon fill="midnightblue" stroke="midnightblue" points="318.792,-81.2843 326.113,-73.6253 315.614,-75.0475 318.792,-81.2843"/>
</g>
<!-- Node11&#45;&gt;Node5 -->
<g id="edge15" class="edge"><title>Node11&#45;&gt;Node5</title>
<path fill="none" stroke="midnightblue" d="M192.207,-113.61C141.368,-106.377 70.0944,-89.7477 99.0566,-55 125.748,-22.9769 252.028,-13.9279 311.255,-11.4273"/>
<polygon fill="midnightblue" stroke="midnightblue" points="311.637,-14.9152 321.494,-11.0325 311.367,-7.92044 311.637,-14.9152"/>
</g>
<!-- Node11&#45;&gt;Node6 -->
<g id="edge13" class="edge"><title>Node11&#45;&gt;Node6</title>
<path fill="none" stroke="midnightblue" d="M224.691,-110.45C210.865,-102.123 189.026,-88.9704 172.537,-79.0394"/>
<polygon fill="midnightblue" stroke="midnightblue" points="173.92,-75.7864 163.548,-73.6253 170.308,-81.7828 173.92,-75.7864"/>
</g>
<!-- Node11&#45;&gt;Node7 -->
<g id="edge14" class="edge"><title>Node11&#45;&gt;Node7</title>
<path fill="none" stroke="midnightblue" d="M239.15,-110.219C240.091,-103.099 241.48,-92.5775 242.675,-83.5289"/>
<polygon fill="midnightblue" stroke="midnightblue" points="246.154,-83.9218 243.993,-73.5496 239.214,-83.0052 246.154,-83.9218"/>
</g>
<!-- Node11&#45;&gt;Node8 -->
<g id="edge16" class="edge"><title>Node11&#45;&gt;Node8</title>
<path fill="none" stroke="midnightblue" d="M266.458,-110.45C300.68,-100.751 357.999,-84.5057 393.551,-74.4294"/>
<polygon fill="midnightblue" stroke="midnightblue" points="394.733,-77.7323 403.4,-71.638 392.824,-70.9976 394.733,-77.7323"/>
</g>
<!-- Node12 -->
<g id="node13" class="node"><title>Node12</title>
<polygon fill="none" stroke="#bfbfbf" points="0,-55.5 0,-73.5 52.1133,-73.5 52.1133,-55.5 0,-55.5"/>
<text text-anchor="middle" x="26.0566" y="-61.5" font-family="Helvetica,sans-Serif" font-size="10.00">memory</text>
</g>
<!-- Node11&#45;&gt;Node12 -->
<g id="edge18" class="edge"><title>Node11&#45;&gt;Node12</title>
<path fill="none" stroke="midnightblue" d="M205.858,-110.45C167.178,-100.78 102.469,-84.6032 62.1381,-74.5204"/>
<polygon fill="midnightblue" stroke="midnightblue" points="62.7435,-71.0641 52.1931,-72.0341 61.0457,-77.8551 62.7435,-71.0641"/>
</g>
</g>
</svg>
