<?xml version="1.0" encoding="UTF-8" standalone="no"?>
<!DOCTYPE svg PUBLIC "-//W3C//DTD SVG 1.1//EN"
 "http://www.w3.org/Graphics/SVG/1.1/DTD/svg11.dtd">
<!-- Generated by graphviz version 2.38.0 (20140413.2041)
 -->
<!-- Title: ParticleSystem.cpp Pages: 1 -->
<svg width="1576pt" height="302pt"
 viewBox="0.00 0.00 1575.77 302.00" xmlns="http://www.w3.org/2000/svg" xmlns:xlink="http://www.w3.org/1999/xlink">
<g id="graph0" class="graph" transform="scale(1 1) rotate(0) translate(4 298)">
<title>ParticleSystem.cpp</title>
<!-- Node0 -->
<g id="node1" class="node"><title>Node0</title>
<polygon fill="#bfbfbf" stroke="black" points="1109.06,-275.5 1109.06,-293.5 1210.64,-293.5 1210.64,-275.5 1109.06,-275.5"/>
<text text-anchor="middle" x="1159.85" y="-281.5" font-family="Helvetica,sans-Serif" font-size="10.00">ParticleSystem.cpp</text>
</g>
<!-- Node1 -->
<g id="node2" class="node"><title>Node1</title>
<g id="a_node2"><a xlink:href="_particle_system_8hpp.html" target="_top" xlink:title="ParticleSystem.hpp">
<polygon fill="none" stroke="black" points="478.775,-220.5 478.775,-238.5 580.923,-238.5 580.923,-220.5 478.775,-220.5"/>
<text text-anchor="middle" x="529.849" y="-226.5" font-family="Helvetica,sans-Serif" font-size="10.00">ParticleSystem.hpp</text>
</a>
</g>
</g>
<!-- Node0&#45;&gt;Node1 -->
<g id="edge1" class="edge"><title>Node0&#45;&gt;Node1</title>
<path fill="none" stroke="midnightblue" d="M1108.83,-279.208C994.004,-269.548 715.642,-246.13 591.449,-235.682"/>
<polygon fill="midnightblue" stroke="midnightblue" points="591.606,-232.183 581.347,-234.832 591.019,-239.158 591.606,-232.183"/>
</g>
<!-- Node14 -->
<g id="node15" class="node"><title>Node14</title>
<polygon fill="none" stroke="#bfbfbf" points="1006.28,-0.5 1006.28,-18.5 1093.42,-18.5 1093.42,-0.5 1006.28,-0.5"/>
<text text-anchor="middle" x="1049.85" y="-6.5" font-family="Helvetica,sans-Serif" font-size="10.00">Box2D/Box2D.h</text>
</g>
<!-- Node0&#45;&gt;Node14 -->
<g id="edge47" class="edge"><title>Node0&#45;&gt;Node14</title>
<path fill="none" stroke="midnightblue" d="M1152.32,-275.225C1144.91,-266.702 1133.74,-252.759 1126.85,-239 1113.65,-212.662 1107.85,-204.958 1107.85,-175.5 1107.85,-175.5 1107.85,-175.5 1107.85,-118.5 1107.85,-82.0001 1081.82,-45.9344 1064.64,-26.1022"/>
<polygon fill="midnightblue" stroke="midnightblue" points="1067.21,-23.729 1057.91,-18.6426 1062.01,-28.4147 1067.21,-23.729"/>
</g>
<!-- Node15 -->
<g id="node16" class="node"><title>Node15</title>
<g id="a_node16"><a xlink:href="_physics_manager_8hpp.html" target="_top" xlink:title="PhysicsManager.hpp">
<polygon fill="none" stroke="black" points="481.431,-110.5 481.431,-128.5 590.268,-128.5 590.268,-110.5 481.431,-110.5"/>
<text text-anchor="middle" x="535.849" y="-116.5" font-family="Helvetica,sans-Serif" font-size="10.00">PhysicsManager.hpp</text>
</a>
</g>
</g>
<!-- Node0&#45;&gt;Node15 -->
<g id="edge46" class="edge"><title>Node0&#45;&gt;Node15</title>
<path fill="none" stroke="midnightblue" d="M1109.03,-284.126C956.955,-285.472 513.313,-285.358 469.849,-239 459.374,-227.827 459.089,-196.99 477.849,-165 485.524,-151.914 498.676,-141.346 510.518,-133.799"/>
<polygon fill="midnightblue" stroke="midnightblue" points="512.405,-136.748 519.206,-128.624 508.823,-130.734 512.405,-136.748"/>
</g>
<!-- Node17 -->
<g id="node18" class="node"><title>Node17</title>
<polygon fill="none" stroke="#bfbfbf" points="933.677,-0.5 933.677,-18.5 988.022,-18.5 988.022,-0.5 933.677,-0.5"/>
<text text-anchor="middle" x="960.849" y="-6.5" font-family="Helvetica,sans-Serif" font-size="10.00">iostream</text>
</g>
<!-- Node0&#45;&gt;Node17 -->
<g id="edge42" class="edge"><title>Node0&#45;&gt;Node17</title>
<path fill="none" stroke="midnightblue" d="M1145.79,-275.412C1120.47,-259.681 1069.85,-222.361 1069.85,-175.5 1069.85,-175.5 1069.85,-175.5 1069.85,-118.5 1069.85,-72.9172 1021.15,-40.0198 988.857,-23.2143"/>
<polygon fill="midnightblue" stroke="midnightblue" points="990.346,-20.0456 979.836,-18.7112 987.22,-26.3088 990.346,-20.0456"/>
</g>
<!-- Node25 -->
<g id="node26" class="node"><title>Node25</title>
<polygon fill="none" stroke="#bfbfbf" points="1136.2,-220.5 1136.2,-238.5 1289.5,-238.5 1289.5,-220.5 1136.2,-220.5"/>
<text text-anchor="middle" x="1212.85" y="-226.5" font-family="Helvetica,sans-Serif" font-size="10.00">SRE/SimpleRenderEngine.hpp</text>
</g>
<!-- Node0&#45;&gt;Node25 -->
<g id="edge41" class="edge"><title>Node0&#45;&gt;Node25</title>
<path fill="none" stroke="midnightblue" d="M1168.13,-275.219C1175.95,-267.394 1187.89,-255.463 1197.46,-245.892"/>
<polygon fill="midnightblue" stroke="midnightblue" points="1200.2,-248.096 1204.8,-238.55 1195.25,-243.146 1200.2,-248.096"/>
</g>
<!-- Node26 -->
<g id="node27" class="node"><title>Node26</title>
<polygon fill="none" stroke="#bfbfbf" points="1307.9,-220.5 1307.9,-238.5 1347.8,-238.5 1347.8,-220.5 1307.9,-220.5"/>
<text text-anchor="middle" x="1327.85" y="-226.5" font-family="Helvetica,sans-Serif" font-size="10.00">ctime</text>
</g>
<!-- Node0&#45;&gt;Node26 -->
<g id="edge43" class="edge"><title>Node0&#45;&gt;Node26</title>
<path fill="none" stroke="midnightblue" d="M1185.36,-275.45C1215.68,-265.887 1266.17,-249.958 1298.19,-239.855"/>
<polygon fill="midnightblue" stroke="midnightblue" points="1299.41,-243.142 1307.89,-236.795 1297.3,-236.466 1299.41,-243.142"/>
</g>
<!-- Node27 -->
<g id="node28" class="node"><title>Node27</title>
<polygon fill="none" stroke="#bfbfbf" points="1365.9,-220.5 1365.9,-238.5 1415.8,-238.5 1415.8,-220.5 1365.9,-220.5"/>
<text text-anchor="middle" x="1390.85" y="-226.5" font-family="Helvetica,sans-Serif" font-size="10.00">random</text>
</g>
<!-- Node0&#45;&gt;Node27 -->
<g id="edge44" class="edge"><title>Node0&#45;&gt;Node27</title>
<path fill="none" stroke="midnightblue" d="M1196.58,-275.466C1234.18,-267.183 1294.55,-253.724 1355.78,-239.214"/>
<polygon fill="midnightblue" stroke="midnightblue" points="1356.69,-242.595 1365.61,-236.877 1355.08,-235.785 1356.69,-242.595"/>
</g>
<!-- Node28 -->
<g id="node29" class="node"><title>Node28</title>
<polygon fill="none" stroke="#bfbfbf" points="1433.93,-220.5 1433.93,-238.5 1567.77,-238.5 1567.77,-220.5 1433.93,-220.5"/>
<text text-anchor="middle" x="1500.85" y="-226.5" font-family="Helvetica,sans-Serif" font-size="10.00">Box2D/Common/b2Math.h</text>
</g>
<!-- Node0&#45;&gt;Node28 -->
<g id="edge45" class="edge"><title>Node0&#45;&gt;Node28</title>
<path fill="none" stroke="midnightblue" d="M1210.9,-275.565C1271.83,-266.095 1373.67,-250.267 1439.01,-240.112"/>
<polygon fill="midnightblue" stroke="midnightblue" points="1439.83,-243.527 1449.17,-238.532 1438.75,-236.61 1439.83,-243.527"/>
</g>
<!-- Node2 -->
<g id="node3" class="node"><title>Node2</title>
<polygon fill="none" stroke="#bfbfbf" points="220.118,-0.5 220.118,-18.5 265.581,-18.5 265.581,-0.5 220.118,-0.5"/>
<text text-anchor="middle" x="242.849" y="-6.5" font-family="Helvetica,sans-Serif" font-size="10.00">stdio.h</text>
</g>
<!-- Node1&#45;&gt;Node2 -->
<g id="edge2" class="edge"><title>Node1&#45;&gt;Node2</title>
<path fill="none" stroke="midnightblue" d="M518.106,-220.27C506.858,-211.994 489.867,-198.423 477.849,-184 453.499,-154.777 462.388,-136.24 434.849,-110 387.768,-65.1385 316.497,-35.4323 275.326,-20.9112"/>
<polygon fill="midnightblue" stroke="midnightblue" points="276.381,-17.573 265.786,-17.6291 274.104,-24.1921 276.381,-17.573"/>
</g>
<!-- Node3 -->
<g id="node4" class="node"><title>Node3</title>
<polygon fill="none" stroke="#bfbfbf" points="17.5489,-110.5 17.5489,-128.5 134.15,-128.5 134.15,-110.5 17.5489,-110.5"/>
<text text-anchor="middle" x="75.8492" y="-116.5" font-family="Helvetica,sans-Serif" font-size="10.00">SRE/ParticleMesh.hpp</text>
</g>
<!-- Node1&#45;&gt;Node3 -->
<g id="edge3" class="edge"><title>Node1&#45;&gt;Node3</title>
<path fill="none" stroke="midnightblue" d="M478.699,-221.803C426.517,-214.467 343.415,-201.391 272.849,-184 213.277,-169.318 145.536,-145.974 107.023,-132.053"/>
<polygon fill="midnightblue" stroke="midnightblue" points="108.02,-128.691 97.4256,-128.559 105.625,-135.269 108.02,-128.691"/>
</g>
<!-- Node4 -->
<g id="node5" class="node"><title>Node4</title>
<polygon fill="none" stroke="#bfbfbf" points="645.615,-110.5 645.615,-128.5 716.083,-128.5 716.083,-110.5 645.615,-110.5"/>
<text text-anchor="middle" x="680.849" y="-116.5" font-family="Helvetica,sans-Serif" font-size="10.00">glm/glm.hpp</text>
</g>
<!-- Node1&#45;&gt;Node4 -->
<g id="edge4" class="edge"><title>Node1&#45;&gt;Node4</title>
<path fill="none" stroke="midnightblue" d="M529.998,-220.306C530.686,-206.939 533.977,-180.393 548.849,-165 561.108,-152.312 602.272,-139.631 635.41,-131.072"/>
<polygon fill="midnightblue" stroke="midnightblue" points="636.556,-134.392 645.396,-128.552 634.843,-127.605 636.556,-134.392"/>
</g>
<!-- Node5 -->
<g id="node6" class="node"><title>Node5</title>
<g id="a_node6"><a xlink:href="_particle_8hpp.html" target="_top" xlink:title="Particle.hpp">
<polygon fill="none" stroke="black" points="281.445,-165.5 281.445,-183.5 350.253,-183.5 350.253,-165.5 281.445,-165.5"/>
<text text-anchor="middle" x="315.849" y="-171.5" font-family="Helvetica,sans-Serif" font-size="10.00">Particle.hpp</text>
</a>
</g>
</g>
<!-- Node1&#45;&gt;Node5 -->
<g id="edge5" class="edge"><title>Node1&#45;&gt;Node5</title>
<path fill="none" stroke="midnightblue" d="M497.347,-220.45C460.159,-211.24 399.138,-196.128 358.243,-185.999"/>
<polygon fill="midnightblue" stroke="midnightblue" points="358.854,-182.545 348.306,-183.538 357.171,-189.34 358.854,-182.545"/>
</g>
<!-- Node6 -->
<g id="node7" class="node"><title>Node6</title>
<polygon fill="none" stroke="#bfbfbf" points="382.233,-110.5 382.233,-128.5 425.465,-128.5 425.465,-110.5 382.233,-110.5"/>
<text text-anchor="middle" x="403.849" y="-116.5" font-family="Helvetica,sans-Serif" font-size="10.00">vector</text>
</g>
<!-- Node1&#45;&gt;Node6 -->
<g id="edge12" class="edge"><title>Node1&#45;&gt;Node6</title>
<path fill="none" stroke="midnightblue" d="M504.122,-220.447C484.653,-213.33 458.219,-201.359 439.849,-184 426.197,-171.099 416.286,-151.851 410.36,-137.929"/>
<polygon fill="midnightblue" stroke="midnightblue" points="413.562,-136.51 406.609,-128.516 407.059,-139.101 413.562,-136.51"/>
</g>
<!-- Node7 -->
<g id="node8" class="node"><title>Node7</title>
<polygon fill="none" stroke="#bfbfbf" points="111.598,-0.5 111.598,-18.5 202.1,-18.5 202.1,-0.5 111.598,-0.5"/>
<text text-anchor="middle" x="156.849" y="-6.5" font-family="Helvetica,sans-Serif" font-size="10.00">SRE/Shader.hpp</text>
</g>
<!-- Node1&#45;&gt;Node7 -->
<g id="edge13" class="edge"><title>Node1&#45;&gt;Node7</title>
<path fill="none" stroke="midnightblue" d="M478.47,-227.02C358.362,-222.33 65.1223,-203.341 8.84921,-129 -27.7136,-80.6981 64.7898,-40.5999 119.679,-21.8748"/>
<polygon fill="midnightblue" stroke="midnightblue" points="121.063,-25.1031 129.451,-18.63 118.857,-18.4598 121.063,-25.1031"/>
</g>
<!-- Node9 -->
<g id="node10" class="node"><title>Node9</title>
<g id="a_node10"><a xlink:href="_scriptable_8hpp.html" target="_top" xlink:title="Scriptable.hpp">
<polygon fill="none" stroke="black" points="923.884,-165.5 923.884,-183.5 1003.81,-183.5 1003.81,-165.5 923.884,-165.5"/>
<text text-anchor="middle" x="963.849" y="-171.5" font-family="Helvetica,sans-Serif" font-size="10.00">Scriptable.hpp</text>
</a>
</g>
</g>
<!-- Node1&#45;&gt;Node9 -->
<g id="edge14" class="edge"><title>Node1&#45;&gt;Node9</title>
<path fill="none" stroke="midnightblue" d="M581.036,-223.516C652.963,-216.307 788.27,-201.994 913.608,-184.105"/>
<polygon fill="midnightblue" stroke="midnightblue" points="914.367,-187.532 923.767,-182.643 913.371,-180.603 914.367,-187.532"/>
</g>
<!-- Node12 -->
<g id="node13" class="node"><title>Node12</title>
<polygon fill="none" stroke="#bfbfbf" points="824.051,-0.5 824.051,-18.5 915.647,-18.5 915.647,-0.5 824.051,-0.5"/>
<text text-anchor="middle" x="869.849" y="-6.5" font-family="Helvetica,sans-Serif" font-size="10.00">SRE/Texture.hpp</text>
</g>
<!-- Node1&#45;&gt;Node12 -->
<g id="edge17" class="edge"><title>Node1&#45;&gt;Node12</title>
<path fill="none" stroke="midnightblue" d="M528.011,-220.313C525.598,-207.419 522.853,-182.094 533.849,-165 537.359,-159.544 631,-112.804 636.849,-110 708.57,-75.6174 795.221,-40.1639 839.927,-22.3066"/>
<polygon fill="midnightblue" stroke="midnightblue" points="841.329,-25.5155 849.326,-18.565 838.74,-19.0118 841.329,-25.5155"/>
</g>
<!-- Node13 -->
<g id="node14" class="node"><title>Node13</title>
<g id="a_node14"><a xlink:href="_rigidbody_8hpp.html" target="_top" xlink:title="Rigidbody.hpp">
<polygon fill="none" stroke="black" points="558.25,-165.5 558.25,-183.5 637.448,-183.5 637.448,-165.5 558.25,-165.5"/>
<text text-anchor="middle" x="597.849" y="-171.5" font-family="Helvetica,sans-Serif" font-size="10.00">Rigidbody.hpp</text>
</a>
</g>
</g>
<!-- Node1&#45;&gt;Node13 -->
<g id="edge18" class="edge"><title>Node1&#45;&gt;Node13</title>
<path fill="none" stroke="midnightblue" d="M540.177,-220.45C550.561,-212.357 566.795,-199.704 579.397,-189.882"/>
<polygon fill="midnightblue" stroke="midnightblue" points="581.689,-192.533 587.424,-183.625 577.385,-187.012 581.689,-192.533"/>
</g>
<!-- Node1&#45;&gt;Node14 -->
<g id="edge38" class="edge"><title>Node1&#45;&gt;Node14</title>
<path fill="none" stroke="midnightblue" d="M581.011,-227.165C698.711,-223.621 981.055,-212.241 1012.85,-184 1057.73,-144.135 1055.72,-64.4021 1052.2,-28.6163"/>
<polygon fill="midnightblue" stroke="midnightblue" points="1055.68,-28.1869 1051.06,-18.648 1048.72,-28.9803 1055.68,-28.1869"/>
</g>
<!-- Node23 -->
<g id="node24" class="node"><title>Node23</title>
<polygon fill="none" stroke="#bfbfbf" points="655.66,-165.5 655.66,-183.5 760.039,-183.5 760.039,-165.5 655.66,-165.5"/>
<text text-anchor="middle" x="707.849" y="-171.5" font-family="Helvetica,sans-Serif" font-size="10.00">glm/gtc/random.hpp</text>
</g>
<!-- Node1&#45;&gt;Node23 -->
<g id="edge39" class="edge"><title>Node1&#45;&gt;Node23</title>
<path fill="none" stroke="midnightblue" d="M556.884,-220.45C587.291,-211.396 636.857,-196.638 670.844,-186.519"/>
<polygon fill="midnightblue" stroke="midnightblue" points="672.267,-189.747 680.853,-183.538 670.27,-183.038 672.267,-189.747"/>
</g>
<!-- Node24 -->
<g id="node25" class="node"><title>Node24</title>
<polygon fill="none" stroke="#bfbfbf" points="777.98,-165.5 777.98,-183.5 905.718,-183.5 905.718,-165.5 777.98,-165.5"/>
<text text-anchor="middle" x="841.849" y="-171.5" font-family="Helvetica,sans-Serif" font-size="10.00">glm/gtx/euler_angles.hpp</text>
</g>
<!-- Node1&#45;&gt;Node24 -->
<g id="edge40" class="edge"><title>Node1&#45;&gt;Node24</title>
<path fill="none" stroke="midnightblue" d="M577.235,-220.45C632.831,-211.006 724.965,-195.355 784.532,-185.237"/>
<polygon fill="midnightblue" stroke="midnightblue" points="785.257,-188.664 794.529,-183.538 784.084,-181.763 785.257,-188.664"/>
</g>
<!-- Node5&#45;&gt;Node2 -->
<g id="edge6" class="edge"><title>Node5&#45;&gt;Node2</title>
<path fill="none" stroke="midnightblue" d="M321.875,-165.133C329.939,-152.846 342.4,-129.288 334.849,-110 320.464,-73.2527 285.434,-41.9443 262.988,-24.7233"/>
<polygon fill="midnightblue" stroke="midnightblue" points="264.905,-21.7877 254.792,-18.6302 260.729,-27.4054 264.905,-21.7877"/>
</g>
<!-- Node5&#45;&gt;Node3 -->
<g id="edge7" class="edge"><title>Node5&#45;&gt;Node3</title>
<path fill="none" stroke="midnightblue" d="M281.207,-165.85C239.363,-156.609 168.809,-141.029 122.281,-130.754"/>
<polygon fill="midnightblue" stroke="midnightblue" points="122.967,-127.321 112.448,-128.582 121.458,-134.156 122.967,-127.321"/>
</g>
<!-- Node5&#45;&gt;Node4 -->
<g id="edge8" class="edge"><title>Node5&#45;&gt;Node4</title>
<path fill="none" stroke="midnightblue" d="M350.517,-168.466C416.884,-158.829 561.843,-137.78 635.68,-127.059"/>
<polygon fill="midnightblue" stroke="midnightblue" points="636.218,-130.518 645.611,-125.617 635.212,-123.59 636.218,-130.518"/>
</g>
<!-- Node5&#45;&gt;Node6 -->
<g id="edge9" class="edge"><title>Node5&#45;&gt;Node6</title>
<path fill="none" stroke="midnightblue" d="M329.215,-165.45C343.041,-157.123 364.879,-143.97 381.369,-134.039"/>
<polygon fill="midnightblue" stroke="midnightblue" points="383.598,-136.783 390.358,-128.625 379.986,-130.786 383.598,-136.783"/>
</g>
<!-- Node5&#45;&gt;Node7 -->
<g id="edge10" class="edge"><title>Node5&#45;&gt;Node7</title>
<path fill="none" stroke="midnightblue" d="M281.281,-166.252C245.91,-158.139 194.285,-144.132 180.849,-129 155.952,-100.96 154.115,-54.3507 155.279,-28.7416"/>
<polygon fill="midnightblue" stroke="midnightblue" points="158.782,-28.8051 155.953,-18.5951 151.798,-28.3413 158.782,-28.8051"/>
</g>
<!-- Node8 -->
<g id="node9" class="node"><title>Node8</title>
<polygon fill="none" stroke="#bfbfbf" points="189.356,-110.5 189.356,-128.5 326.342,-128.5 326.342,-110.5 189.356,-110.5"/>
<text text-anchor="middle" x="257.849" y="-116.5" font-family="Helvetica,sans-Serif" font-size="10.00">Box2D/Dynamics/b2Body.h</text>
</g>
<!-- Node5&#45;&gt;Node8 -->
<g id="edge11" class="edge"><title>Node5&#45;&gt;Node8</title>
<path fill="none" stroke="midnightblue" d="M306.787,-165.219C298.053,-157.238 284.643,-144.984 274.068,-135.321"/>
<polygon fill="midnightblue" stroke="midnightblue" points="276.401,-132.712 266.658,-128.55 271.679,-137.879 276.401,-132.712"/>
</g>
<!-- Node10 -->
<g id="node11" class="node"><title>Node10</title>
<g id="a_node11"><a xlink:href="_component_8hpp.html" target="_top" xlink:title="Component.hpp">
<polygon fill="none" stroke="black" points="880.268,-110.5 880.268,-128.5 967.43,-128.5 967.43,-110.5 880.268,-110.5"/>
<text text-anchor="middle" x="923.849" y="-116.5" font-family="Helvetica,sans-Serif" font-size="10.00">Component.hpp</text>
</a>
</g>
</g>
<!-- Node9&#45;&gt;Node10 -->
<g id="edge15" class="edge"><title>Node9&#45;&gt;Node10</title>
<path fill="none" stroke="midnightblue" d="M957.599,-165.219C951.871,-157.629 943.227,-146.175 936.121,-136.76"/>
<polygon fill="midnightblue" stroke="midnightblue" points="938.742,-134.423 929.924,-128.55 933.155,-138.64 938.742,-134.423"/>
</g>
<!-- Node11 -->
<g id="node12" class="node"><title>Node11</title>
<polygon fill="none" stroke="#bfbfbf" points="903.623,-55.5 903.623,-73.5 944.076,-73.5 944.076,-55.5 903.623,-55.5"/>
<text text-anchor="middle" x="923.849" y="-61.5" font-family="Helvetica,sans-Serif" font-size="10.00">string</text>
</g>
<!-- Node10&#45;&gt;Node11 -->
<g id="edge16" class="edge"><title>Node10&#45;&gt;Node11</title>
<path fill="none" stroke="midnightblue" d="M923.849,-110.219C923.849,-103.177 923.849,-92.8083 923.849,-83.8277"/>
<polygon fill="midnightblue" stroke="midnightblue" points="927.349,-83.5495 923.849,-73.5496 920.349,-83.5496 927.349,-83.5495"/>
</g>
<!-- Node13&#45;&gt;Node4 -->
<g id="edge37" class="edge"><title>Node13&#45;&gt;Node4</title>
<path fill="none" stroke="midnightblue" d="M610.455,-165.45C623.496,-157.123 644.094,-143.97 659.646,-134.039"/>
<polygon fill="midnightblue" stroke="midnightblue" points="661.58,-136.957 668.125,-128.625 657.813,-131.057 661.58,-136.957"/>
</g>
<!-- Node13&#45;&gt;Node10 -->
<g id="edge19" class="edge"><title>Node13&#45;&gt;Node10</title>
<path fill="none" stroke="midnightblue" d="M637.688,-166.546C640.787,-166.019 643.869,-165.498 646.849,-165 724.412,-152.043 814.317,-137.729 870.146,-128.924"/>
<polygon fill="midnightblue" stroke="midnightblue" points="870.83,-132.36 880.163,-127.346 869.741,-125.445 870.83,-132.36"/>
</g>
<!-- Node13&#45;&gt;Node14 -->
<g id="edge20" class="edge"><title>Node13&#45;&gt;Node14</title>
<path fill="none" stroke="midnightblue" d="M622.392,-165.497C648.116,-156.969 689.615,-142.82 724.849,-129 801.563,-98.9106 817.303,-82.8738 894.849,-55 932.293,-41.541 975.933,-29.311 1007.35,-21.0933"/>
<polygon fill="midnightblue" stroke="midnightblue" points="1008.29,-24.4645 1017.1,-18.5698 1006.54,-17.6879 1008.29,-24.4645"/>
</g>
<!-- Node13&#45;&gt;Node15 -->
<g id="edge21" class="edge"><title>Node13&#45;&gt;Node15</title>
<path fill="none" stroke="midnightblue" d="M588.433,-165.45C579.056,-157.434 564.448,-144.947 553.006,-135.166"/>
<polygon fill="midnightblue" stroke="midnightblue" points="555.23,-132.463 545.354,-128.625 550.681,-137.784 555.23,-132.463"/>
</g>
<!-- Node15&#45;&gt;Node2 -->
<g id="edge22" class="edge"><title>Node15&#45;&gt;Node2</title>
<path fill="none" stroke="midnightblue" d="M522.358,-110.302C497.02,-95.0095 443.054,-62.9597 422.849,-55 362.694,-31.3013 342.287,-35.2571 275.628,-19.1041"/>
<polygon fill="midnightblue" stroke="midnightblue" points="276.455,-15.7033 265.906,-16.6864 274.766,-22.4964 276.455,-15.7033"/>
</g>
<!-- Node15&#45;&gt;Node14 -->
<g id="edge25" class="edge"><title>Node15&#45;&gt;Node14</title>
<path fill="none" stroke="midnightblue" d="M566.114,-110.437C599.053,-101.627 653.253,-87.0279 699.849,-74 729.246,-65.7808 736.043,-61.5854 765.849,-55 864.237,-33.2619 892.521,-35.0899 996.24,-19.0729"/>
<polygon fill="midnightblue" stroke="midnightblue" points="996.839,-22.5218 1006.18,-17.5194 995.758,-15.6058 996.839,-22.5218"/>
</g>
<!-- Node16 -->
<g id="node17" class="node"><title>Node16</title>
<polygon fill="none" stroke="#bfbfbf" points="283.953,-0.5 283.953,-18.5 327.746,-18.5 327.746,-0.5 283.953,-0.5"/>
<text text-anchor="middle" x="305.849" y="-6.5" font-family="Helvetica,sans-Serif" font-size="10.00">SDL.h</text>
</g>
<!-- Node15&#45;&gt;Node16 -->
<g id="edge23" class="edge"><title>Node15&#45;&gt;Node16</title>
<path fill="none" stroke="midnightblue" d="M528.37,-110.21C515.745,-96.7049 488.833,-69.9644 460.849,-55 455.321,-52.0437 381.632,-31.4347 337.881,-19.326"/>
<polygon fill="midnightblue" stroke="midnightblue" points="338.558,-15.8818 327.986,-16.5911 336.693,-22.6288 338.558,-15.8818"/>
</g>
<!-- Node15&#45;&gt;Node17 -->
<g id="edge24" class="edge"><title>Node15&#45;&gt;Node17</title>
<path fill="none" stroke="midnightblue" d="M555.222,-110.446C587.845,-97.1616 656.044,-70.5809 715.849,-55 803.944,-32.049 830.679,-37.4228 923.285,-19.1971"/>
<polygon fill="midnightblue" stroke="midnightblue" points="924.255,-22.5722 933.37,-17.1711 922.877,-15.7093 924.255,-22.5722"/>
</g>
<!-- Node18 -->
<g id="node19" class="node"><title>Node18</title>
<g id="a_node19"><a xlink:href="_foo_draw2_8hpp.html" target="_top" xlink:title="FooDraw2.hpp">
<polygon fill="none" stroke="black" points="513.054,-55.5 513.054,-73.5 594.645,-73.5 594.645,-55.5 513.054,-55.5"/>
<text text-anchor="middle" x="553.849" y="-61.5" font-family="Helvetica,sans-Serif" font-size="10.00">FooDraw2.hpp</text>
</a>
</g>
</g>
<!-- Node15&#45;&gt;Node18 -->
<g id="edge26" class="edge"><title>Node15&#45;&gt;Node18</title>
<path fill="none" stroke="midnightblue" d="M538.662,-110.219C541.106,-103.02 544.732,-92.3458 547.827,-83.2311"/>
<polygon fill="midnightblue" stroke="midnightblue" points="551.214,-84.1439 551.115,-73.5496 544.585,-81.8928 551.214,-84.1439"/>
</g>
<!-- Node18&#45;&gt;Node2 -->
<g id="edge27" class="edge"><title>Node18&#45;&gt;Node2</title>
<path fill="none" stroke="midnightblue" d="M512.95,-58.3005C460.283,-51.3142 365.764,-37.7949 275.681,-18.9865"/>
<polygon fill="midnightblue" stroke="midnightblue" points="276.362,-15.553 265.854,-16.9095 274.914,-22.4017 276.362,-15.553"/>
</g>
<!-- Node18&#45;&gt;Node7 -->
<g id="edge28" class="edge"><title>Node18&#45;&gt;Node7</title>
<path fill="none" stroke="midnightblue" d="M512.881,-58.5493C450.331,-50.9107 327.01,-35.5378 212.222,-19.1653"/>
<polygon fill="midnightblue" stroke="midnightblue" points="212.604,-15.6843 202.209,-17.7313 211.612,-22.6136 212.604,-15.6843"/>
</g>
<!-- Node18&#45;&gt;Node12 -->
<g id="edge32" class="edge"><title>Node18&#45;&gt;Node12</title>
<path fill="none" stroke="midnightblue" d="M594.837,-56.6255C650.678,-47.2598 750.882,-30.4534 813.684,-19.9201"/>
<polygon fill="midnightblue" stroke="midnightblue" points="814.528,-23.3276 823.811,-18.2216 813.37,-16.424 814.528,-23.3276"/>
</g>
<!-- Node18&#45;&gt;Node14 -->
<g id="edge36" class="edge"><title>Node18&#45;&gt;Node14</title>
<path fill="none" stroke="midnightblue" d="M594.862,-60.1931C671.482,-53.839 841.777,-38.8863 996.068,-19.0235"/>
<polygon fill="midnightblue" stroke="midnightblue" points="996.74,-22.4658 1006.21,-17.7082 995.839,-15.524 996.74,-22.4658"/>
</g>
<!-- Node18&#45;&gt;Node16 -->
<g id="edge29" class="edge"><title>Node18&#45;&gt;Node16</title>
<path fill="none" stroke="midnightblue" d="M512.879,-55.9259C471.169,-48.0313 404.437,-34.8969 337.668,-19.0691"/>
<polygon fill="midnightblue" stroke="midnightblue" points="338.359,-15.6358 327.819,-16.7146 336.731,-22.444 338.359,-15.6358"/>
</g>
<!-- Node18&#45;&gt;Node17 -->
<g id="edge33" class="edge"><title>Node18&#45;&gt;Node17</title>
<path fill="none" stroke="midnightblue" d="M594.695,-60.1153C661.458,-54.2539 798.264,-40.8689 923.27,-19.104"/>
<polygon fill="midnightblue" stroke="midnightblue" points="924.158,-22.5014 933.398,-17.3173 922.942,-15.6079 924.158,-22.5014"/>
</g>
<!-- Node19 -->
<g id="node20" class="node"><title>Node19</title>
<polygon fill="none" stroke="#bfbfbf" points="346.106,-0.5 346.106,-18.5 491.593,-18.5 491.593,-0.5 346.106,-0.5"/>
<text text-anchor="middle" x="418.849" y="-6.5" font-family="Helvetica,sans-Serif" font-size="10.00">glm/gtc/matrix_transform.hpp</text>
</g>
<!-- Node18&#45;&gt;Node19 -->
<g id="edge30" class="edge"><title>Node18&#45;&gt;Node19</title>
<path fill="none" stroke="midnightblue" d="M533.346,-55.4504C510.945,-46.6562 474.836,-32.4802 449.162,-22.4006"/>
<polygon fill="midnightblue" stroke="midnightblue" points="450.133,-19.0218 439.546,-18.6253 447.575,-25.5377 450.133,-19.0218"/>
</g>
<!-- Node20 -->
<g id="node21" class="node"><title>Node20</title>
<polygon fill="none" stroke="#bfbfbf" points="509.714,-0.5 509.714,-18.5 597.984,-18.5 597.984,-0.5 509.714,-0.5"/>
<text text-anchor="middle" x="553.849" y="-6.5" font-family="Helvetica,sans-Serif" font-size="10.00">SRE/Debug.hpp</text>
</g>
<!-- Node18&#45;&gt;Node20 -->
<g id="edge31" class="edge"><title>Node18&#45;&gt;Node20</title>
<path fill="none" stroke="midnightblue" d="M553.849,-55.2188C553.849,-48.1769 553.849,-37.8083 553.849,-28.8277"/>
<polygon fill="midnightblue" stroke="midnightblue" points="557.349,-28.5495 553.849,-18.5496 550.349,-28.5496 557.349,-28.5495"/>
</g>
<!-- Node21 -->
<g id="node22" class="node"><title>Node21</title>
<polygon fill="none" stroke="#bfbfbf" points="616.428,-0.5 616.428,-18.5 745.27,-18.5 745.27,-0.5 616.428,-0.5"/>
<text text-anchor="middle" x="680.849" y="-6.5" font-family="Helvetica,sans-Serif" font-size="10.00">glm/gtx/closest_point.hpp</text>
</g>
<!-- Node18&#45;&gt;Node21 -->
<g id="edge34" class="edge"><title>Node18&#45;&gt;Node21</title>
<path fill="none" stroke="midnightblue" d="M573.138,-55.4504C594.118,-46.6951 627.879,-32.6055 652.012,-22.5346"/>
<polygon fill="midnightblue" stroke="midnightblue" points="653.498,-25.7067 661.379,-18.6253 650.803,-19.2467 653.498,-25.7067"/>
</g>
<!-- Node22 -->
<g id="node23" class="node"><title>Node22</title>
<polygon fill="none" stroke="#bfbfbf" points="763.233,-0.5 763.233,-18.5 806.465,-18.5 806.465,-0.5 763.233,-0.5"/>
<text text-anchor="middle" x="784.849" y="-6.5" font-family="Helvetica,sans-Serif" font-size="10.00">time.h</text>
</g>
<!-- Node18&#45;&gt;Node22 -->
<g id="edge35" class="edge"><title>Node18&#45;&gt;Node22</title>
<path fill="none" stroke="midnightblue" d="M592.695,-55.4424C631.038,-47.3591 691.555,-34.2546 753.289,-19.039"/>
<polygon fill="midnightblue" stroke="midnightblue" points="754.341,-22.3842 763.204,-16.5793 752.656,-15.5901 754.341,-22.3842"/>
</g>
</g>
</svg>
