<?xml version="1.0" encoding="UTF-8" standalone="no"?>
<!DOCTYPE svg PUBLIC "-//W3C//DTD SVG 1.1//EN"
 "http://www.w3.org/Graphics/SVG/1.1/DTD/svg11.dtd">
<!-- Generated by graphviz version 2.38.0 (20140413.2041)
 -->
<!-- Title: ParticleSystem.hpp Pages: 1 -->
<svg width="1252pt" height="247pt"
 viewBox="0.00 0.00 1251.86 247.00" xmlns="http://www.w3.org/2000/svg" xmlns:xlink="http://www.w3.org/1999/xlink">
<g id="graph0" class="graph" transform="scale(1 1) rotate(0) translate(4 243)">
<title>ParticleSystem.hpp</title>
<!-- Node0 -->
<g id="node1" class="node"><title>Node0</title>
<polygon fill="#bfbfbf" stroke="black" points="509.918,-220.5 509.918,-238.5 612.066,-238.5 612.066,-220.5 509.918,-220.5"/>
<text text-anchor="middle" x="560.992" y="-226.5" font-family="Helvetica,sans-Serif" font-size="10.00">ParticleSystem.hpp</text>
</g>
<!-- Node1 -->
<g id="node2" class="node"><title>Node1</title>
<polygon fill="none" stroke="#bfbfbf" points="151.261,-0.5 151.261,-18.5 196.724,-18.5 196.724,-0.5 151.261,-0.5"/>
<text text-anchor="middle" x="173.992" y="-6.5" font-family="Helvetica,sans-Serif" font-size="10.00">stdio.h</text>
</g>
<!-- Node0&#45;&gt;Node1 -->
<g id="edge1" class="edge"><title>Node0&#45;&gt;Node1</title>
<path fill="none" stroke="midnightblue" d="M509.701,-227.74C384.32,-224.638 68.2137,-208.891 8.99217,-129 -31.4259,-74.4754 82.1673,-34.9616 141.06,-18.7027"/>
<polygon fill="midnightblue" stroke="midnightblue" points="142.28,-21.9993 151.031,-16.0273 140.466,-15.2384 142.28,-21.9993"/>
</g>
<!-- Node2 -->
<g id="node3" class="node"><title>Node2</title>
<polygon fill="none" stroke="#bfbfbf" points="17.6919,-110.5 17.6919,-128.5 134.292,-128.5 134.292,-110.5 17.6919,-110.5"/>
<text text-anchor="middle" x="75.9922" y="-116.5" font-family="Helvetica,sans-Serif" font-size="10.00">SRE/ParticleMesh.hpp</text>
</g>
<!-- Node0&#45;&gt;Node2 -->
<g id="edge2" class="edge"><title>Node0&#45;&gt;Node2</title>
<path fill="none" stroke="midnightblue" d="M509.699,-224.268C448.069,-218.457 341.857,-206.121 252.992,-184 198.929,-170.542 138.289,-146.809 103.866,-132.48"/>
<polygon fill="midnightblue" stroke="midnightblue" points="105.045,-129.179 94.47,-128.53 102.333,-135.632 105.045,-129.179"/>
</g>
<!-- Node3 -->
<g id="node4" class="node"><title>Node3</title>
<polygon fill="none" stroke="#bfbfbf" points="443.758,-110.5 443.758,-128.5 514.226,-128.5 514.226,-110.5 443.758,-110.5"/>
<text text-anchor="middle" x="478.992" y="-116.5" font-family="Helvetica,sans-Serif" font-size="10.00">glm/glm.hpp</text>
</g>
<!-- Node0&#45;&gt;Node3 -->
<g id="edge3" class="edge"><title>Node0&#45;&gt;Node3</title>
<path fill="none" stroke="midnightblue" d="M554.829,-220.382C541.413,-202.713 509.342,-160.472 491.502,-136.976"/>
<polygon fill="midnightblue" stroke="midnightblue" points="494.062,-134.56 485.227,-128.712 488.487,-138.793 494.062,-134.56"/>
</g>
<!-- Node4 -->
<g id="node5" class="node"><title>Node4</title>
<g id="a_node5"><a xlink:href="_particle_8hpp.html" target="_top" xlink:title="Particle.hpp">
<polygon fill="none" stroke="black" points="261.588,-165.5 261.588,-183.5 330.396,-183.5 330.396,-165.5 261.588,-165.5"/>
<text text-anchor="middle" x="295.992" y="-171.5" font-family="Helvetica,sans-Serif" font-size="10.00">Particle.hpp</text>
</a>
</g>
</g>
<!-- Node0&#45;&gt;Node4 -->
<g id="edge4" class="edge"><title>Node0&#45;&gt;Node4</title>
<path fill="none" stroke="midnightblue" d="M520.744,-220.45C472.25,-210.752 391.026,-194.507 340.645,-184.43"/>
<polygon fill="midnightblue" stroke="midnightblue" points="341.184,-180.969 330.692,-182.44 339.811,-187.833 341.184,-180.969"/>
</g>
<!-- Node5 -->
<g id="node6" class="node"><title>Node5</title>
<polygon fill="none" stroke="#bfbfbf" points="382.376,-110.5 382.376,-128.5 425.608,-128.5 425.608,-110.5 382.376,-110.5"/>
<text text-anchor="middle" x="403.992" y="-116.5" font-family="Helvetica,sans-Serif" font-size="10.00">vector</text>
</g>
<!-- Node0&#45;&gt;Node5 -->
<g id="edge11" class="edge"><title>Node0&#45;&gt;Node5</title>
<path fill="none" stroke="midnightblue" d="M549.192,-220.382C522.596,-202.088 457.708,-157.451 424.422,-134.554"/>
<polygon fill="midnightblue" stroke="midnightblue" points="426.152,-131.496 415.93,-128.712 422.185,-137.263 426.152,-131.496"/>
</g>
<!-- Node6 -->
<g id="node7" class="node"><title>Node6</title>
<polygon fill="none" stroke="#bfbfbf" points="227.741,-0.5 227.741,-18.5 318.243,-18.5 318.243,-0.5 227.741,-0.5"/>
<text text-anchor="middle" x="272.992" y="-6.5" font-family="Helvetica,sans-Serif" font-size="10.00">SRE/Shader.hpp</text>
</g>
<!-- Node0&#45;&gt;Node6 -->
<g id="edge12" class="edge"><title>Node0&#45;&gt;Node6</title>
<path fill="none" stroke="midnightblue" d="M560.686,-220.427C559.463,-199.438 553.367,-142.529 522.992,-110 493.245,-78.1426 374.024,-39.8589 311.58,-21.4459"/>
<polygon fill="midnightblue" stroke="midnightblue" points="312.284,-18.0055 301.704,-18.56 310.321,-24.7245 312.284,-18.0055"/>
</g>
<!-- Node8 -->
<g id="node9" class="node"><title>Node8</title>
<g id="a_node9"><a xlink:href="_scriptable_8hpp.html" target="_top" xlink:title="Scriptable.hpp">
<polygon fill="none" stroke="black" points="608.027,-165.5 608.027,-183.5 687.958,-183.5 687.958,-165.5 608.027,-165.5"/>
<text text-anchor="middle" x="647.992" y="-171.5" font-family="Helvetica,sans-Serif" font-size="10.00">Scriptable.hpp</text>
</a>
</g>
</g>
<!-- Node0&#45;&gt;Node8 -->
<g id="edge13" class="edge"><title>Node0&#45;&gt;Node8</title>
<path fill="none" stroke="midnightblue" d="M574.206,-220.45C587.875,-212.123 609.465,-198.97 625.767,-189.039"/>
<polygon fill="midnightblue" stroke="midnightblue" points="627.935,-191.817 634.654,-183.625 624.293,-185.839 627.935,-191.817"/>
</g>
<!-- Node11 -->
<g id="node12" class="node"><title>Node11</title>
<polygon fill="none" stroke="#bfbfbf" points="336.194,-0.5 336.194,-18.5 427.79,-18.5 427.79,-0.5 336.194,-0.5"/>
<text text-anchor="middle" x="381.992" y="-6.5" font-family="Helvetica,sans-Serif" font-size="10.00">SRE/Texture.hpp</text>
</g>
<!-- Node0&#45;&gt;Node11 -->
<g id="edge16" class="edge"><title>Node0&#45;&gt;Node11</title>
<path fill="none" stroke="midnightblue" d="M563.762,-220.468C572.481,-193.583 596.459,-105.596 555.992,-55 548.219,-45.2815 482.474,-30.3784 434.083,-20.5366"/>
<polygon fill="midnightblue" stroke="midnightblue" points="434.542,-17.0588 424.048,-18.517 433.161,-23.9212 434.542,-17.0588"/>
</g>
<!-- Node12 -->
<g id="node13" class="node"><title>Node12</title>
<g id="a_node13"><a xlink:href="_rigidbody_8hpp.html" target="_top" xlink:title="Rigidbody.hpp">
<polygon fill="none" stroke="black" points="706.393,-165.5 706.393,-183.5 785.591,-183.5 785.591,-165.5 706.393,-165.5"/>
<text text-anchor="middle" x="745.992" y="-171.5" font-family="Helvetica,sans-Serif" font-size="10.00">Rigidbody.hpp</text>
</a>
</g>
</g>
<!-- Node0&#45;&gt;Node12 -->
<g id="edge17" class="edge"><title>Node0&#45;&gt;Node12</title>
<path fill="none" stroke="midnightblue" d="M589.09,-220.45C620.829,-211.357 672.653,-196.511 707.987,-186.388"/>
<polygon fill="midnightblue" stroke="midnightblue" points="709.285,-189.657 717.934,-183.538 707.357,-182.928 709.285,-189.657"/>
</g>
<!-- Node13 -->
<g id="node14" class="node"><title>Node13</title>
<polygon fill="none" stroke="#bfbfbf" points="1058.42,-0.5 1058.42,-18.5 1145.57,-18.5 1145.57,-0.5 1058.42,-0.5"/>
<text text-anchor="middle" x="1101.99" y="-6.5" font-family="Helvetica,sans-Serif" font-size="10.00">Box2D/Box2D.h</text>
</g>
<!-- Node0&#45;&gt;Node13 -->
<g id="edge37" class="edge"><title>Node0&#45;&gt;Node13</title>
<path fill="none" stroke="midnightblue" d="M612.485,-223.593C660.776,-217.861 734.418,-206.191 794.992,-184 911.4,-141.355 1035.74,-57.6156 1082.62,-24.4778"/>
<polygon fill="midnightblue" stroke="midnightblue" points="1084.83,-27.2046 1090.94,-18.5521 1080.77,-21.5031 1084.83,-27.2046"/>
</g>
<!-- Node22 -->
<g id="node23" class="node"><title>Node22</title>
<polygon fill="none" stroke="#bfbfbf" points="993.803,-165.5 993.803,-183.5 1098.18,-183.5 1098.18,-165.5 993.803,-165.5"/>
<text text-anchor="middle" x="1045.99" y="-171.5" font-family="Helvetica,sans-Serif" font-size="10.00">glm/gtc/random.hpp</text>
</g>
<!-- Node0&#45;&gt;Node22 -->
<g id="edge38" class="edge"><title>Node0&#45;&gt;Node22</title>
<path fill="none" stroke="midnightblue" d="M612.312,-223.421C691.343,-215.516 847.583,-199.556 979.992,-184 981.251,-183.852 982.523,-183.701 983.804,-183.548"/>
<polygon fill="midnightblue" stroke="midnightblue" points="984.263,-187.018 993.767,-182.335 983.417,-180.07 984.263,-187.018"/>
</g>
<!-- Node23 -->
<g id="node24" class="node"><title>Node23</title>
<polygon fill="none" stroke="#bfbfbf" points="1116.12,-165.5 1116.12,-183.5 1243.86,-183.5 1243.86,-165.5 1116.12,-165.5"/>
<text text-anchor="middle" x="1179.99" y="-171.5" font-family="Helvetica,sans-Serif" font-size="10.00">glm/gtx/euler_angles.hpp</text>
</g>
<!-- Node0&#45;&gt;Node23 -->
<g id="edge39" class="edge"><title>Node0&#45;&gt;Node23</title>
<path fill="none" stroke="midnightblue" d="M612.233,-224.918C707.308,-218.142 917.71,-202.54 1105.84,-184.082"/>
<polygon fill="midnightblue" stroke="midnightblue" points="1106.3,-187.553 1115.91,-183.088 1105.62,-180.587 1106.3,-187.553"/>
</g>
<!-- Node4&#45;&gt;Node1 -->
<g id="edge5" class="edge"><title>Node4&#45;&gt;Node1</title>
<path fill="none" stroke="midnightblue" d="M267.888,-165.366C249.01,-158.536 224.94,-146.961 209.992,-129 185.54,-99.6205 177.688,-53.9007 175.173,-28.7025"/>
<polygon fill="midnightblue" stroke="midnightblue" points="178.658,-28.3817 174.352,-18.7015 171.682,-28.9543 178.658,-28.3817"/>
</g>
<!-- Node4&#45;&gt;Node2 -->
<g id="edge6" class="edge"><title>Node4&#45;&gt;Node2</title>
<path fill="none" stroke="midnightblue" d="M262.579,-165.45C224.267,-156.221 161.35,-141.063 119.307,-130.935"/>
<polygon fill="midnightblue" stroke="midnightblue" points="119.9,-127.478 109.359,-128.538 118.261,-134.283 119.9,-127.478"/>
</g>
<!-- Node4&#45;&gt;Node3 -->
<g id="edge7" class="edge"><title>Node4&#45;&gt;Node3</title>
<path fill="none" stroke="midnightblue" d="M323.786,-165.45C355.182,-156.357 406.445,-141.511 441.398,-131.388"/>
<polygon fill="midnightblue" stroke="midnightblue" points="442.606,-134.682 451.237,-128.538 440.658,-127.958 442.606,-134.682"/>
</g>
<!-- Node4&#45;&gt;Node5 -->
<g id="edge8" class="edge"><title>Node4&#45;&gt;Node5</title>
<path fill="none" stroke="midnightblue" d="M312.395,-165.45C329.919,-156.851 357.93,-143.105 378.367,-133.075"/>
<polygon fill="midnightblue" stroke="midnightblue" points="380,-136.173 387.435,-128.625 376.916,-129.889 380,-136.173"/>
</g>
<!-- Node4&#45;&gt;Node6 -->
<g id="edge9" class="edge"><title>Node4&#45;&gt;Node6</title>
<path fill="none" stroke="midnightblue" d="M268.399,-165.469C250.873,-158.777 229.565,-147.321 218.992,-129 198.473,-93.4415 234.234,-48.7047 256.757,-25.7021"/>
<polygon fill="midnightblue" stroke="midnightblue" points="259.381,-28.0301 264.057,-18.5229 254.473,-23.039 259.381,-28.0301"/>
</g>
<!-- Node7 -->
<g id="node8" class="node"><title>Node7</title>
<polygon fill="none" stroke="#bfbfbf" points="227.499,-110.5 227.499,-128.5 364.485,-128.5 364.485,-110.5 227.499,-110.5"/>
<text text-anchor="middle" x="295.992" y="-116.5" font-family="Helvetica,sans-Serif" font-size="10.00">Box2D/Dynamics/b2Body.h</text>
</g>
<!-- Node4&#45;&gt;Node7 -->
<g id="edge10" class="edge"><title>Node4&#45;&gt;Node7</title>
<path fill="none" stroke="midnightblue" d="M295.992,-165.219C295.992,-158.177 295.992,-147.808 295.992,-138.828"/>
<polygon fill="midnightblue" stroke="midnightblue" points="299.492,-138.55 295.992,-128.55 292.492,-138.55 299.492,-138.55"/>
</g>
<!-- Node9 -->
<g id="node10" class="node"><title>Node9</title>
<g id="a_node10"><a xlink:href="_component_8hpp.html" target="_top" xlink:title="Component.hpp">
<polygon fill="none" stroke="black" points="608.411,-110.5 608.411,-128.5 695.573,-128.5 695.573,-110.5 608.411,-110.5"/>
<text text-anchor="middle" x="651.992" y="-116.5" font-family="Helvetica,sans-Serif" font-size="10.00">Component.hpp</text>
</a>
</g>
</g>
<!-- Node8&#45;&gt;Node9 -->
<g id="edge14" class="edge"><title>Node8&#45;&gt;Node9</title>
<path fill="none" stroke="midnightblue" d="M648.617,-165.219C649.155,-158.099 649.949,-147.577 650.631,-138.529"/>
<polygon fill="midnightblue" stroke="midnightblue" points="654.122,-138.785 651.385,-128.55 647.142,-138.258 654.122,-138.785"/>
</g>
<!-- Node10 -->
<g id="node11" class="node"><title>Node10</title>
<polygon fill="none" stroke="#bfbfbf" points="607.766,-55.5 607.766,-73.5 648.219,-73.5 648.219,-55.5 607.766,-55.5"/>
<text text-anchor="middle" x="627.992" y="-61.5" font-family="Helvetica,sans-Serif" font-size="10.00">string</text>
</g>
<!-- Node9&#45;&gt;Node10 -->
<g id="edge15" class="edge"><title>Node9&#45;&gt;Node10</title>
<path fill="none" stroke="midnightblue" d="M648.242,-110.219C644.947,-102.942 640.043,-92.1134 635.887,-82.9345"/>
<polygon fill="midnightblue" stroke="midnightblue" points="638.951,-81.2153 631.637,-73.5496 632.574,-84.1029 638.951,-81.2153"/>
</g>
<!-- Node12&#45;&gt;Node3 -->
<g id="edge36" class="edge"><title>Node12&#45;&gt;Node3</title>
<path fill="none" stroke="midnightblue" d="M706.308,-165.623C657.789,-155.992 575.841,-139.725 524.724,-129.578"/>
<polygon fill="midnightblue" stroke="midnightblue" points="525.109,-126.086 514.619,-127.572 523.746,-132.952 525.109,-126.086"/>
</g>
<!-- Node12&#45;&gt;Node9 -->
<g id="edge18" class="edge"><title>Node12&#45;&gt;Node9</title>
<path fill="none" stroke="midnightblue" d="M731.716,-165.45C716.808,-157.045 693.182,-143.724 675.513,-133.762"/>
<polygon fill="midnightblue" stroke="midnightblue" points="676.833,-130.488 666.403,-128.625 673.395,-136.586 676.833,-130.488"/>
</g>
<!-- Node12&#45;&gt;Node13 -->
<g id="edge19" class="edge"><title>Node12&#45;&gt;Node13</title>
<path fill="none" stroke="midnightblue" d="M764.892,-165.35C783.951,-156.925 814.041,-143.057 838.992,-129 891.296,-99.534 897.527,-80.2491 951.992,-55 984.761,-39.8088 1023.96,-28.3931 1054.06,-20.9291"/>
<polygon fill="midnightblue" stroke="midnightblue" points="1055,-24.3023 1063.9,-18.5496 1053.36,-17.4984 1055,-24.3023"/>
</g>
<!-- Node14 -->
<g id="node15" class="node"><title>Node14</title>
<g id="a_node15"><a xlink:href="_physics_manager_8hpp.html" target="_top" xlink:title="PhysicsManager.hpp">
<polygon fill="none" stroke="black" points="721.574,-110.5 721.574,-128.5 830.411,-128.5 830.411,-110.5 721.574,-110.5"/>
<text text-anchor="middle" x="775.992" y="-116.5" font-family="Helvetica,sans-Serif" font-size="10.00">PhysicsManager.hpp</text>
</a>
</g>
</g>
<!-- Node12&#45;&gt;Node14 -->
<g id="edge20" class="edge"><title>Node12&#45;&gt;Node14</title>
<path fill="none" stroke="midnightblue" d="M750.68,-165.219C754.887,-157.786 761.193,-146.646 766.457,-137.345"/>
<polygon fill="midnightblue" stroke="midnightblue" points="769.556,-138.976 771.436,-128.55 763.464,-135.528 769.556,-138.976"/>
</g>
<!-- Node14&#45;&gt;Node1 -->
<g id="edge21" class="edge"><title>Node14&#45;&gt;Node1</title>
<path fill="none" stroke="midnightblue" d="M759.71,-110.349C742.33,-101.585 714.04,-87.136 689.992,-74 675.14,-65.8869 673.149,-60.037 656.992,-55 470.521,3.13331 412.555,-45.1625 218.992,-19 215.028,-18.4642 210.884,-17.8107 206.784,-17.1064"/>
<polygon fill="midnightblue" stroke="midnightblue" points="207.275,-13.6384 196.809,-15.2894 206.02,-20.525 207.275,-13.6384"/>
</g>
<!-- Node14&#45;&gt;Node13 -->
<g id="edge24" class="edge"><title>Node14&#45;&gt;Node13</title>
<path fill="none" stroke="midnightblue" d="M793.283,-110.49C829.633,-93.657 910.899,-56.0659 913.992,-55 958.384,-39.7032 1010.44,-27.8292 1048.51,-20.2089"/>
<polygon fill="midnightblue" stroke="midnightblue" points="1049.23,-23.6346 1058.36,-18.2685 1047.88,-16.7665 1049.23,-23.6346"/>
</g>
<!-- Node15 -->
<g id="node16" class="node"><title>Node15</title>
<polygon fill="none" stroke="#bfbfbf" points="446.096,-0.5 446.096,-18.5 489.889,-18.5 489.889,-0.5 446.096,-0.5"/>
<text text-anchor="middle" x="467.992" y="-6.5" font-family="Helvetica,sans-Serif" font-size="10.00">SDL.h</text>
</g>
<!-- Node14&#45;&gt;Node15 -->
<g id="edge22" class="edge"><title>Node14&#45;&gt;Node15</title>
<path fill="none" stroke="midnightblue" d="M767.782,-110.391C753.364,-96.6544 721.976,-68.9453 689.992,-55 613.669,-21.7226 585.226,-37.2079 499.804,-18.9574"/>
<polygon fill="midnightblue" stroke="midnightblue" points="500.474,-15.5209 489.952,-16.7584 498.949,-22.3528 500.474,-15.5209"/>
</g>
<!-- Node16 -->
<g id="node17" class="node"><title>Node16</title>
<polygon fill="none" stroke="#bfbfbf" points="985.82,-0.5 985.82,-18.5 1040.16,-18.5 1040.16,-0.5 985.82,-0.5"/>
<text text-anchor="middle" x="1012.99" y="-6.5" font-family="Helvetica,sans-Serif" font-size="10.00">iostream</text>
</g>
<!-- Node14&#45;&gt;Node16 -->
<g id="edge23" class="edge"><title>Node14&#45;&gt;Node16</title>
<path fill="none" stroke="midnightblue" d="M786.858,-110.295C804.674,-97.149 841.568,-71.2024 875.992,-55 908.538,-39.6816 947.76,-27.5288 975.882,-19.8201"/>
<polygon fill="midnightblue" stroke="midnightblue" points="976.957,-23.1557 985.708,-17.1835 975.143,-16.3948 976.957,-23.1557"/>
</g>
<!-- Node17 -->
<g id="node18" class="node"><title>Node17</title>
<g id="a_node18"><a xlink:href="_foo_draw2_8hpp.html" target="_top" xlink:title="FooDraw2.hpp">
<polygon fill="none" stroke="black" points="742.197,-55.5 742.197,-73.5 823.788,-73.5 823.788,-55.5 742.197,-55.5"/>
<text text-anchor="middle" x="782.992" y="-61.5" font-family="Helvetica,sans-Serif" font-size="10.00">FooDraw2.hpp</text>
</a>
</g>
</g>
<!-- Node14&#45;&gt;Node17 -->
<g id="edge25" class="edge"><title>Node14&#45;&gt;Node17</title>
<path fill="none" stroke="midnightblue" d="M777.086,-110.219C778.026,-103.099 779.416,-92.5775 780.611,-83.5289"/>
<polygon fill="midnightblue" stroke="midnightblue" points="784.089,-83.9218 781.929,-73.5496 777.15,-83.0052 784.089,-83.9218"/>
</g>
<!-- Node17&#45;&gt;Node1 -->
<g id="edge26" class="edge"><title>Node17&#45;&gt;Node1</title>
<path fill="none" stroke="midnightblue" d="M741.8,-59.6026C725.65,-58.1092 706.956,-56.4235 689.992,-55 480.783,-37.4451 427.124,-46.5254 218.992,-19 215.027,-18.4755 210.882,-17.8289 206.781,-17.1284"/>
<polygon fill="midnightblue" stroke="midnightblue" points="207.271,-13.6602 196.806,-15.315 206.019,-20.5473 207.271,-13.6602"/>
</g>
<!-- Node17&#45;&gt;Node6 -->
<g id="edge27" class="edge"><title>Node17&#45;&gt;Node6</title>
<path fill="none" stroke="midnightblue" d="M741.873,-59.627C643.188,-50.3133 396.604,-26.9235 328.333,-19.0424"/>
<polygon fill="midnightblue" stroke="midnightblue" points="328.685,-15.5595 318.338,-17.836 327.846,-22.5091 328.685,-15.5595"/>
</g>
<!-- Node17&#45;&gt;Node11 -->
<g id="edge31" class="edge"><title>Node17&#45;&gt;Node11</title>
<path fill="none" stroke="midnightblue" d="M741.935,-58.5622C678.929,-50.9097 554.345,-35.4824 438.042,-19.1166"/>
<polygon fill="midnightblue" stroke="midnightblue" points="438.287,-15.6165 427.895,-17.6834 437.307,-22.5477 438.287,-15.6165"/>
</g>
<!-- Node17&#45;&gt;Node13 -->
<g id="edge35" class="edge"><title>Node17&#45;&gt;Node13</title>
<path fill="none" stroke="midnightblue" d="M824.043,-56.6797C881.188,-47.1853 984.806,-29.9699 1048.11,-19.4525"/>
<polygon fill="midnightblue" stroke="midnightblue" points="1049,-22.8525 1058.29,-17.7608 1047.85,-15.9472 1049,-22.8525"/>
</g>
<!-- Node17&#45;&gt;Node15 -->
<g id="edge28" class="edge"><title>Node17&#45;&gt;Node15</title>
<path fill="none" stroke="midnightblue" d="M742.128,-57.1574C673.545,-46.5053 539.516,-25.6546 500.014,-18.7388"/>
<polygon fill="midnightblue" stroke="midnightblue" points="500.407,-15.2515 489.933,-16.8432 499.114,-22.131 500.407,-15.2515"/>
</g>
<!-- Node17&#45;&gt;Node16 -->
<g id="edge32" class="edge"><title>Node17&#45;&gt;Node16</title>
<path fill="none" stroke="midnightblue" d="M818.408,-55.4475C855.26,-47.0528 914.916,-33.4197 975.378,-19.3655"/>
<polygon fill="midnightblue" stroke="midnightblue" points="976.532,-22.6904 985.479,-17.0152 974.946,-15.8725 976.532,-22.6904"/>
</g>
<!-- Node18 -->
<g id="node19" class="node"><title>Node18</title>
<polygon fill="none" stroke="#bfbfbf" points="822.249,-0.5 822.249,-18.5 967.736,-18.5 967.736,-0.5 822.249,-0.5"/>
<text text-anchor="middle" x="894.992" y="-6.5" font-family="Helvetica,sans-Serif" font-size="10.00">glm/gtc/matrix_transform.hpp</text>
</g>
<!-- Node17&#45;&gt;Node18 -->
<g id="edge29" class="edge"><title>Node17&#45;&gt;Node18</title>
<path fill="none" stroke="midnightblue" d="M800.003,-55.4504C818.258,-46.8119 847.487,-32.9803 868.705,-22.9396"/>
<polygon fill="midnightblue" stroke="midnightblue" points="870.28,-26.0664 877.822,-18.6253 867.286,-19.7391 870.28,-26.0664"/>
</g>
<!-- Node19 -->
<g id="node20" class="node"><title>Node19</title>
<polygon fill="none" stroke="#bfbfbf" points="507.857,-0.5 507.857,-18.5 596.127,-18.5 596.127,-0.5 507.857,-0.5"/>
<text text-anchor="middle" x="551.992" y="-6.5" font-family="Helvetica,sans-Serif" font-size="10.00">SRE/Debug.hpp</text>
</g>
<!-- Node17&#45;&gt;Node19 -->
<g id="edge30" class="edge"><title>Node17&#45;&gt;Node19</title>
<path fill="none" stroke="midnightblue" d="M747.908,-55.4504C707.511,-46.1818 641.059,-30.9352 596.914,-20.8068"/>
<polygon fill="midnightblue" stroke="midnightblue" points="597.557,-17.3633 587.027,-18.5383 595.991,-24.186 597.557,-17.3633"/>
</g>
<!-- Node20 -->
<g id="node21" class="node"><title>Node20</title>
<polygon fill="none" stroke="#bfbfbf" points="614.571,-0.5 614.571,-18.5 743.413,-18.5 743.413,-0.5 614.571,-0.5"/>
<text text-anchor="middle" x="678.992" y="-6.5" font-family="Helvetica,sans-Serif" font-size="10.00">glm/gtx/closest_point.hpp</text>
</g>
<!-- Node17&#45;&gt;Node20 -->
<g id="edge33" class="edge"><title>Node17&#45;&gt;Node20</title>
<path fill="none" stroke="midnightblue" d="M767.197,-55.4504C750.398,-46.8897 723.593,-33.2291 703.936,-23.2119"/>
<polygon fill="midnightblue" stroke="midnightblue" points="705.435,-20.0475 694.936,-18.6253 702.257,-26.2843 705.435,-20.0475"/>
</g>
<!-- Node21 -->
<g id="node22" class="node"><title>Node21</title>
<polygon fill="none" stroke="#bfbfbf" points="761.376,-0.5 761.376,-18.5 804.608,-18.5 804.608,-0.5 761.376,-0.5"/>
<text text-anchor="middle" x="782.992" y="-6.5" font-family="Helvetica,sans-Serif" font-size="10.00">time.h</text>
</g>
<!-- Node17&#45;&gt;Node21 -->
<g id="edge34" class="edge"><title>Node17&#45;&gt;Node21</title>
<path fill="none" stroke="midnightblue" d="M782.992,-55.2188C782.992,-48.1769 782.992,-37.8083 782.992,-28.8277"/>
<polygon fill="midnightblue" stroke="midnightblue" points="786.492,-28.5495 782.992,-18.5496 779.492,-28.5496 786.492,-28.5495"/>
</g>
</g>
</svg>
