<?xml version="1.0" encoding="UTF-8" standalone="no"?>
<!DOCTYPE svg PUBLIC "-//W3C//DTD SVG 1.1//EN"
 "http://www.w3.org/Graphics/SVG/1.1/DTD/svg11.dtd">
<!-- Generated by graphviz version 2.38.0 (20140413.2041)
 -->
<!-- Title: ParticleSystem.cpp Pages: 1 -->
<svg width="853pt" height="247pt"
 viewBox="0.00 0.00 852.60 247.00" xmlns="http://www.w3.org/2000/svg" xmlns:xlink="http://www.w3.org/1999/xlink">
<g id="graph0" class="graph" transform="scale(1 1) rotate(0) translate(4 243)">
<title>ParticleSystem.cpp</title>
<!-- Node0 -->
<g id="node1" class="node"><title>Node0</title>
<polygon fill="#bfbfbf" stroke="black" points="453.938,-220.5 453.938,-238.5 555.524,-238.5 555.524,-220.5 453.938,-220.5"/>
<text text-anchor="middle" x="504.731" y="-226.5" font-family="Helvetica,sans-Serif" font-size="10.00">ParticleSystem.cpp</text>
</g>
<!-- Node1 -->
<g id="node2" class="node"><title>Node1</title>
<g id="a_node2"><a xlink:href="_particle_system_8hpp.html" target="_top" xlink:title="ParticleSystem.hpp">
<polygon fill="none" stroke="black" points="250.658,-165.5 250.658,-183.5 352.805,-183.5 352.805,-165.5 250.658,-165.5"/>
<text text-anchor="middle" x="301.731" y="-171.5" font-family="Helvetica,sans-Serif" font-size="10.00">ParticleSystem.hpp</text>
</a>
</g>
</g>
<!-- Node0&#45;&gt;Node1 -->
<g id="edge1" class="edge"><title>Node0&#45;&gt;Node1</title>
<path fill="none" stroke="midnightblue" d="M473.9,-220.45C438.773,-211.279 381.229,-196.256 342.44,-186.128"/>
<polygon fill="midnightblue" stroke="midnightblue" points="343.08,-182.678 332.52,-183.538 341.311,-189.451 343.08,-182.678"/>
</g>
<!-- Node14 -->
<g id="node15" class="node"><title>Node14</title>
<polygon fill="none" stroke="#bfbfbf" points="371.079,-165.5 371.079,-183.5 524.384,-183.5 524.384,-165.5 371.079,-165.5"/>
<text text-anchor="middle" x="447.731" y="-171.5" font-family="Helvetica,sans-Serif" font-size="10.00">SRE/SimpleRenderEngine.hpp</text>
</g>
<!-- Node0&#45;&gt;Node14 -->
<g id="edge18" class="edge"><title>Node0&#45;&gt;Node14</title>
<path fill="none" stroke="midnightblue" d="M495.825,-220.219C487.326,-212.316 474.321,-200.224 463.977,-190.606"/>
<polygon fill="midnightblue" stroke="midnightblue" points="466.095,-187.796 456.389,-183.55 461.329,-192.922 466.095,-187.796"/>
</g>
<!-- Node15 -->
<g id="node16" class="node"><title>Node15</title>
<polygon fill="none" stroke="#bfbfbf" points="542.786,-165.5 542.786,-183.5 582.677,-183.5 582.677,-165.5 542.786,-165.5"/>
<text text-anchor="middle" x="562.731" y="-171.5" font-family="Helvetica,sans-Serif" font-size="10.00">ctime</text>
</g>
<!-- Node0&#45;&gt;Node15 -->
<g id="edge19" class="edge"><title>Node0&#45;&gt;Node15</title>
<path fill="none" stroke="midnightblue" d="M513.794,-220.219C522.528,-212.238 535.937,-199.984 546.513,-190.321"/>
<polygon fill="midnightblue" stroke="midnightblue" points="548.901,-192.879 553.922,-183.55 544.179,-187.712 548.901,-192.879"/>
</g>
<!-- Node16 -->
<g id="node17" class="node"><title>Node16</title>
<polygon fill="none" stroke="#bfbfbf" points="600.778,-165.5 600.778,-183.5 650.685,-183.5 650.685,-165.5 600.778,-165.5"/>
<text text-anchor="middle" x="625.731" y="-171.5" font-family="Helvetica,sans-Serif" font-size="10.00">random</text>
</g>
<!-- Node0&#45;&gt;Node16 -->
<g id="edge20" class="edge"><title>Node0&#45;&gt;Node16</title>
<path fill="none" stroke="midnightblue" d="M523.109,-220.45C543.008,-211.734 574.978,-197.731 597.949,-187.669"/>
<polygon fill="midnightblue" stroke="midnightblue" points="599.426,-190.843 607.181,-183.625 596.617,-184.432 599.426,-190.843"/>
</g>
<!-- Node2 -->
<g id="node3" class="node"><title>Node2</title>
<polygon fill="none" stroke="#bfbfbf" points="0,-55.5 0,-73.5 45.4629,-73.5 45.4629,-55.5 0,-55.5"/>
<text text-anchor="middle" x="22.7314" y="-61.5" font-family="Helvetica,sans-Serif" font-size="10.00">stdio.h</text>
</g>
<!-- Node1&#45;&gt;Node2 -->
<g id="edge2" class="edge"><title>Node1&#45;&gt;Node2</title>
<path fill="none" stroke="midnightblue" d="M250.38,-166.383C212.093,-159.861 159.144,-148.229 115.731,-129 87.0049,-116.276 57.6962,-94.5038 39.8564,-80.0574"/>
<polygon fill="midnightblue" stroke="midnightblue" points="42.0111,-77.2975 32.0728,-73.6257 37.5522,-82.6936 42.0111,-77.2975"/>
</g>
<!-- Node3 -->
<g id="node4" class="node"><title>Node3</title>
<polygon fill="none" stroke="#bfbfbf" points="63.4312,-55.5 63.4312,-73.5 180.032,-73.5 180.032,-55.5 63.4312,-55.5"/>
<text text-anchor="middle" x="121.731" y="-61.5" font-family="Helvetica,sans-Serif" font-size="10.00">SRE/ParticleMesh.hpp</text>
</g>
<!-- Node1&#45;&gt;Node3 -->
<g id="edge3" class="edge"><title>Node1&#45;&gt;Node3</title>
<path fill="none" stroke="midnightblue" d="M250.493,-166.963C205.083,-160.047 143.586,-147.546 127.731,-129 117.171,-116.647 116.747,-97.5868 118.308,-83.5704"/>
<polygon fill="midnightblue" stroke="midnightblue" points="121.776,-84.0499 119.83,-73.6352 114.856,-82.99 121.776,-84.0499"/>
</g>
<!-- Node4 -->
<g id="node5" class="node"><title>Node4</title>
<polygon fill="none" stroke="#bfbfbf" points="298.498,-110.5 298.498,-128.5 368.965,-128.5 368.965,-110.5 298.498,-110.5"/>
<text text-anchor="middle" x="333.731" y="-116.5" font-family="Helvetica,sans-Serif" font-size="10.00">glm/glm.hpp</text>
</g>
<!-- Node1&#45;&gt;Node4 -->
<g id="edge4" class="edge"><title>Node1&#45;&gt;Node4</title>
<path fill="none" stroke="midnightblue" d="M306.731,-165.219C311.219,-157.786 317.945,-146.646 323.561,-137.345"/>
<polygon fill="midnightblue" stroke="midnightblue" points="326.699,-138.919 328.871,-128.55 320.706,-135.301 326.699,-138.919"/>
</g>
<!-- Node5 -->
<g id="node6" class="node"><title>Node5</title>
<g id="a_node6"><a xlink:href="_particle_8hpp.html" target="_top" xlink:title="Particle.hpp">
<polygon fill="none" stroke="black" points="136.328,-110.5 136.328,-128.5 205.135,-128.5 205.135,-110.5 136.328,-110.5"/>
<text text-anchor="middle" x="170.731" y="-116.5" font-family="Helvetica,sans-Serif" font-size="10.00">Particle.hpp</text>
</a>
</g>
</g>
<!-- Node1&#45;&gt;Node5 -->
<g id="edge5" class="edge"><title>Node1&#45;&gt;Node5</title>
<path fill="none" stroke="midnightblue" d="M281.835,-165.45C260.099,-156.656 225.06,-142.48 200.146,-132.401"/>
<polygon fill="midnightblue" stroke="midnightblue" points="201.398,-129.131 190.815,-128.625 198.772,-135.62 201.398,-129.131"/>
</g>
<!-- Node6 -->
<g id="node7" class="node"><title>Node6</title>
<polygon fill="none" stroke="#bfbfbf" points="198.116,-55.5 198.116,-73.5 241.347,-73.5 241.347,-55.5 198.116,-55.5"/>
<text text-anchor="middle" x="219.731" y="-61.5" font-family="Helvetica,sans-Serif" font-size="10.00">vector</text>
</g>
<!-- Node1&#45;&gt;Node6 -->
<g id="edge10" class="edge"><title>Node1&#45;&gt;Node6</title>
<path fill="none" stroke="midnightblue" d="M295.568,-165.382C282.153,-147.713 250.081,-105.472 232.241,-81.9764"/>
<polygon fill="midnightblue" stroke="midnightblue" points="234.801,-79.5597 225.966,-73.7118 229.226,-83.7927 234.801,-79.5597"/>
</g>
<!-- Node7 -->
<g id="node8" class="node"><title>Node7</title>
<polygon fill="none" stroke="#bfbfbf" points="259.48,-55.5 259.48,-73.5 349.982,-73.5 349.982,-55.5 259.48,-55.5"/>
<text text-anchor="middle" x="304.731" y="-61.5" font-family="Helvetica,sans-Serif" font-size="10.00">SRE/Shader.hpp</text>
</g>
<!-- Node1&#45;&gt;Node7 -->
<g id="edge11" class="edge"><title>Node1&#45;&gt;Node7</title>
<path fill="none" stroke="midnightblue" d="M298.322,-165.303C293.723,-153.226 286.463,-129.929 289.731,-110 291.218,-100.938 294.3,-91.235 297.286,-83.2099"/>
<polygon fill="midnightblue" stroke="midnightblue" points="300.577,-84.4073 301.014,-73.8215 294.071,-81.824 300.577,-84.4073"/>
</g>
<!-- Node8 -->
<g id="node9" class="node"><title>Node8</title>
<g id="a_node9"><a xlink:href="_scriptable_8hpp.html" target="_top" xlink:title="Scriptable.hpp">
<polygon fill="none" stroke="black" points="386.766,-110.5 386.766,-128.5 466.697,-128.5 466.697,-110.5 386.766,-110.5"/>
<text text-anchor="middle" x="426.731" y="-116.5" font-family="Helvetica,sans-Serif" font-size="10.00">Scriptable.hpp</text>
</a>
</g>
</g>
<!-- Node1&#45;&gt;Node8 -->
<g id="edge12" class="edge"><title>Node1&#45;&gt;Node8</title>
<path fill="none" stroke="midnightblue" d="M320.716,-165.45C341.366,-156.695 374.596,-142.606 398.348,-132.535"/>
<polygon fill="midnightblue" stroke="midnightblue" points="399.728,-135.751 407.568,-128.625 396.995,-129.307 399.728,-135.751"/>
</g>
<!-- Node11 -->
<g id="node12" class="node"><title>Node11</title>
<polygon fill="none" stroke="#bfbfbf" points="484.934,-110.5 484.934,-128.5 576.529,-128.5 576.529,-110.5 484.934,-110.5"/>
<text text-anchor="middle" x="530.731" y="-116.5" font-family="Helvetica,sans-Serif" font-size="10.00">SRE/Texture.hpp</text>
</g>
<!-- Node1&#45;&gt;Node11 -->
<g id="edge15" class="edge"><title>Node1&#45;&gt;Node11</title>
<path fill="none" stroke="midnightblue" d="M336.512,-165.45C376.559,-156.182 442.436,-140.935 486.198,-130.807"/>
<polygon fill="midnightblue" stroke="midnightblue" points="487.047,-134.203 496,-128.538 485.468,-127.383 487.047,-134.203"/>
</g>
<!-- Node12 -->
<g id="node13" class="node"><title>Node12</title>
<polygon fill="none" stroke="#bfbfbf" points="594.542,-110.5 594.542,-128.5 698.921,-128.5 698.921,-110.5 594.542,-110.5"/>
<text text-anchor="middle" x="646.731" y="-116.5" font-family="Helvetica,sans-Serif" font-size="10.00">glm/gtc/random.hpp</text>
</g>
<!-- Node1&#45;&gt;Node12 -->
<g id="edge16" class="edge"><title>Node1&#45;&gt;Node12</title>
<path fill="none" stroke="midnightblue" d="M353.009,-165.623C414.785,-156.132 518.501,-140.199 584.717,-130.027"/>
<polygon fill="midnightblue" stroke="midnightblue" points="585.254,-133.485 594.607,-128.508 584.192,-126.567 585.254,-133.485"/>
</g>
<!-- Node13 -->
<g id="node14" class="node"><title>Node13</title>
<polygon fill="none" stroke="#bfbfbf" points="716.862,-110.5 716.862,-128.5 844.601,-128.5 844.601,-110.5 716.862,-110.5"/>
<text text-anchor="middle" x="780.731" y="-116.5" font-family="Helvetica,sans-Serif" font-size="10.00">glm/gtx/euler_angles.hpp</text>
</g>
<!-- Node1&#45;&gt;Node13 -->
<g id="edge17" class="edge"><title>Node1&#45;&gt;Node13</title>
<path fill="none" stroke="midnightblue" d="M353.102,-166.095C356.02,-165.714 358.912,-165.346 361.731,-165 511.89,-146.559 552.331,-145.959 706.332,-129.139"/>
<polygon fill="midnightblue" stroke="midnightblue" points="707.084,-132.578 716.642,-128.007 706.32,-125.619 707.084,-132.578"/>
</g>
<!-- Node5&#45;&gt;Node2 -->
<g id="edge6" class="edge"><title>Node5&#45;&gt;Node2</title>
<path fill="none" stroke="midnightblue" d="M148.253,-110.45C123.37,-101.539 83.0564,-87.1029 54.8485,-77.0014"/>
<polygon fill="midnightblue" stroke="midnightblue" points="56.0156,-73.7017 45.421,-73.6253 53.6555,-80.2919 56.0156,-73.7017"/>
</g>
<!-- Node5&#45;&gt;Node3 -->
<g id="edge7" class="edge"><title>Node5&#45;&gt;Node3</title>
<path fill="none" stroke="midnightblue" d="M163.075,-110.219C155.914,-102.473 145.031,-90.7013 136.228,-81.1799"/>
<polygon fill="midnightblue" stroke="midnightblue" points="138.532,-78.5163 129.173,-73.5496 133.392,-83.2683 138.532,-78.5163"/>
</g>
<!-- Node5&#45;&gt;Node6 -->
<g id="edge8" class="edge"><title>Node5&#45;&gt;Node6</title>
<path fill="none" stroke="midnightblue" d="M178.388,-110.219C185.549,-102.473 196.432,-90.7013 205.235,-81.1799"/>
<polygon fill="midnightblue" stroke="midnightblue" points="208.071,-83.2683 212.289,-73.5496 202.931,-78.5163 208.071,-83.2683"/>
</g>
<!-- Node5&#45;&gt;Node7 -->
<g id="edge9" class="edge"><title>Node5&#45;&gt;Node7</title>
<path fill="none" stroke="midnightblue" d="M191.083,-110.45C213.318,-101.656 249.159,-87.4802 274.643,-77.4006"/>
<polygon fill="midnightblue" stroke="midnightblue" points="276.176,-80.558 284.188,-73.6253 273.602,-74.0487 276.176,-80.558"/>
</g>
<!-- Node9 -->
<g id="node10" class="node"><title>Node9</title>
<g id="a_node10"><a xlink:href="_component_8hpp.html" target="_top" xlink:title="Component.hpp">
<polygon fill="none" stroke="black" points="383.15,-55.5 383.15,-73.5 470.312,-73.5 470.312,-55.5 383.15,-55.5"/>
<text text-anchor="middle" x="426.731" y="-61.5" font-family="Helvetica,sans-Serif" font-size="10.00">Component.hpp</text>
</a>
</g>
</g>
<!-- Node8&#45;&gt;Node9 -->
<g id="edge13" class="edge"><title>Node8&#45;&gt;Node9</title>
<path fill="none" stroke="midnightblue" d="M426.731,-110.219C426.731,-103.177 426.731,-92.8083 426.731,-83.8277"/>
<polygon fill="midnightblue" stroke="midnightblue" points="430.232,-83.5495 426.731,-73.5496 423.232,-83.5496 430.232,-83.5495"/>
</g>
<!-- Node10 -->
<g id="node11" class="node"><title>Node10</title>
<polygon fill="none" stroke="#bfbfbf" points="406.505,-0.5 406.505,-18.5 446.958,-18.5 446.958,-0.5 406.505,-0.5"/>
<text text-anchor="middle" x="426.731" y="-6.5" font-family="Helvetica,sans-Serif" font-size="10.00">string</text>
</g>
<!-- Node9&#45;&gt;Node10 -->
<g id="edge14" class="edge"><title>Node9&#45;&gt;Node10</title>
<path fill="none" stroke="midnightblue" d="M426.731,-55.2188C426.731,-48.1769 426.731,-37.8083 426.731,-28.8277"/>
<polygon fill="midnightblue" stroke="midnightblue" points="430.232,-28.5495 426.731,-18.5496 423.232,-28.5496 430.232,-28.5495"/>
</g>
</g>
</svg>
