<?xml version="1.0" encoding="UTF-8" standalone="no"?>
<!DOCTYPE svg PUBLIC "-//W3C//DTD SVG 1.1//EN"
 "http://www.w3.org/Graphics/SVG/1.1/DTD/svg11.dtd">
<!-- Generated by graphviz version 2.38.0 (20140413.2041)
 -->
<!-- Title: Particle.hpp Pages: 1 -->
<svg width="323pt" height="137pt"
 viewBox="0.00 0.00 322.81 137.00" xmlns="http://www.w3.org/2000/svg" xmlns:xlink="http://www.w3.org/1999/xlink">
<g id="graph0" class="graph" transform="scale(1 1) rotate(0) translate(4 133)">
<title>Particle.hpp</title>
<!-- Node7 -->
<g id="node1" class="node"><title>Node7</title>
<polygon fill="#bfbfbf" stroke="black" points="156.616,-110.5 156.616,-128.5 225.423,-128.5 225.423,-110.5 156.616,-110.5"/>
<text text-anchor="middle" x="191.02" y="-116.5" font-family="Helvetica,sans-Serif" font-size="10.00">Particle.hpp</text>
</g>
<!-- Node8 -->
<g id="node2" class="node"><title>Node8</title>
<g id="a_node2"><a xlink:href="_particle_system_8hpp.html" target="_top" xlink:title="ParticleSystem.hpp">
<polygon fill="none" stroke="black" points="88.9458,-55.5 88.9458,-73.5 191.093,-73.5 191.093,-55.5 88.9458,-55.5"/>
<text text-anchor="middle" x="140.02" y="-61.5" font-family="Helvetica,sans-Serif" font-size="10.00">ParticleSystem.hpp</text>
</a>
</g>
</g>
<!-- Node7&#45;&gt;Node8 -->
<g id="edge1" class="edge"><title>Node7&#45;&gt;Node8</title>
<path fill="none" stroke="midnightblue" d="M175.933,-102.822C166.679,-93.2051 155.215,-81.2917 147.765,-73.5496"/>
<polygon fill="midnightblue" stroke="midnightblue" points="173.595,-105.44 183.051,-110.219 178.639,-100.586 173.595,-105.44"/>
</g>
<!-- Node12 -->
<g id="node6" class="node"><title>Node12</title>
<g id="a_node6"><a xlink:href="_particle_8cpp.html" target="_top" xlink:title="Particle.cpp">
<polygon fill="none" stroke="black" points="208.896,-55.5 208.896,-73.5 277.143,-73.5 277.143,-55.5 208.896,-55.5"/>
<text text-anchor="middle" x="243.02" y="-61.5" font-family="Helvetica,sans-Serif" font-size="10.00">Particle.cpp</text>
</a>
</g>
</g>
<!-- Node7&#45;&gt;Node12 -->
<g id="edge5" class="edge"><title>Node7&#45;&gt;Node12</title>
<path fill="none" stroke="midnightblue" d="M206.401,-102.822C215.837,-93.2051 227.526,-81.2917 235.122,-73.5496"/>
<polygon fill="midnightblue" stroke="midnightblue" points="203.65,-100.629 199.145,-110.219 208.646,-105.532 203.65,-100.629"/>
</g>
<!-- Node9 -->
<g id="node3" class="node"><title>Node9</title>
<g id="a_node3"><a xlink:href="_engine_8cpp.html" target="_top" xlink:title="Engine.cpp">
<polygon fill="none" stroke="black" points="0,-0.5 0,-18.5 66.0391,-18.5 66.0391,-0.5 0,-0.5"/>
<text text-anchor="middle" x="33.0195" y="-6.5" font-family="Helvetica,sans-Serif" font-size="10.00">Engine.cpp</text>
</a>
</g>
</g>
<!-- Node8&#45;&gt;Node9 -->
<g id="edge2" class="edge"><title>Node8&#45;&gt;Node9</title>
<path fill="none" stroke="midnightblue" d="M114.534,-50.8765C94.3544,-40.8808 66.767,-27.216 49.4235,-18.6253"/>
<polygon fill="midnightblue" stroke="midnightblue" points="113.254,-54.1481 123.769,-55.4504 116.361,-47.8754 113.254,-54.1481"/>
</g>
<!-- Node10 -->
<g id="node4" class="node"><title>Node10</title>
<g id="a_node4"><a xlink:href="_particle_controller_8cpp.html" target="_top" xlink:title="ParticleController.cpp">
<polygon fill="none" stroke="black" points="84.4951,-0.5 84.4951,-18.5 195.544,-18.5 195.544,-0.5 84.4951,-0.5"/>
<text text-anchor="middle" x="140.02" y="-6.5" font-family="Helvetica,sans-Serif" font-size="10.00">ParticleController.cpp</text>
</a>
</g>
</g>
<!-- Node8&#45;&gt;Node10 -->
<g id="edge3" class="edge"><title>Node8&#45;&gt;Node10</title>
<path fill="none" stroke="midnightblue" d="M140.02,-45.1746C140.02,-36.0945 140.02,-25.5949 140.02,-18.5496"/>
<polygon fill="midnightblue" stroke="midnightblue" points="136.52,-45.2187 140.02,-55.2188 143.52,-45.2188 136.52,-45.2187"/>
</g>
<!-- Node11 -->
<g id="node5" class="node"><title>Node11</title>
<g id="a_node5"><a xlink:href="_particle_system_8cpp.html" target="_top" xlink:title="ParticleSystem.cpp">
<polygon fill="none" stroke="black" points="213.227,-0.5 213.227,-18.5 314.812,-18.5 314.812,-0.5 213.227,-0.5"/>
<text text-anchor="middle" x="264.02" y="-6.5" font-family="Helvetica,sans-Serif" font-size="10.00">ParticleSystem.cpp</text>
</a>
</g>
</g>
<!-- Node8&#45;&gt;Node11 -->
<g id="edge4" class="edge"><title>Node8&#45;&gt;Node11</title>
<path fill="none" stroke="midnightblue" d="M168.287,-51.4181C191.773,-41.3794 224.545,-27.3722 245.009,-18.6253"/>
<polygon fill="midnightblue" stroke="midnightblue" points="166.672,-48.3018 158.852,-55.4504 169.423,-54.7385 166.672,-48.3018"/>
</g>
</g>
</svg>
