<?xml version="1.0" encoding="UTF-8" standalone="no"?>
<!DOCTYPE svg PUBLIC "-//W3C//DTD SVG 1.1//EN"
 "http://www.w3.org/Graphics/SVG/1.1/DTD/svg11.dtd">
<!-- Generated by graphviz version 2.38.0 (20140413.2041)
 -->
<!-- Title: ParticleController.hpp Pages: 1 -->
<svg width="201pt" height="192pt"
 viewBox="0.00 0.00 201.38 192.00" xmlns="http://www.w3.org/2000/svg" xmlns:xlink="http://www.w3.org/1999/xlink">
<g id="graph0" class="graph" transform="scale(1 1) rotate(0) translate(4 188)">
<title>ParticleController.hpp</title>
<!-- Node0 -->
<g id="node1" class="node"><title>Node0</title>
<polygon fill="#bfbfbf" stroke="black" points="39.7759,-165.5 39.7759,-183.5 151.386,-183.5 151.386,-165.5 39.7759,-165.5"/>
<text text-anchor="middle" x="95.5811" y="-171.5" font-family="Helvetica,sans-Serif" font-size="10.00">ParticleController.hpp</text>
</g>
<!-- Node1 -->
<g id="node2" class="node"><title>Node1</title>
<g id="a_node2"><a xlink:href="_scriptable_8hpp.html" target="_top" xlink:title="Scriptable.hpp">
<polygon fill="none" stroke="black" points="3.61572,-110.5 3.61572,-128.5 83.5464,-128.5 83.5464,-110.5 3.61572,-110.5"/>
<text text-anchor="middle" x="43.5811" y="-116.5" font-family="Helvetica,sans-Serif" font-size="10.00">Scriptable.hpp</text>
</a>
</g>
</g>
<!-- Node0&#45;&gt;Node1 -->
<g id="edge1" class="edge"><title>Node0&#45;&gt;Node1</title>
<path fill="none" stroke="midnightblue" d="M87.4561,-165.219C79.7794,-157.394 68.0731,-145.463 58.6827,-135.892"/>
<polygon fill="midnightblue" stroke="midnightblue" points="60.9805,-133.236 51.4787,-128.55 55.9838,-138.139 60.9805,-133.236"/>
</g>
<!-- Node4 -->
<g id="node5" class="node"><title>Node4</title>
<polygon fill="none" stroke="#bfbfbf" points="101.783,-110.5 101.783,-128.5 193.379,-128.5 193.379,-110.5 101.783,-110.5"/>
<text text-anchor="middle" x="147.581" y="-116.5" font-family="Helvetica,sans-Serif" font-size="10.00">SRE/Texture.hpp</text>
</g>
<!-- Node0&#45;&gt;Node4 -->
<g id="edge4" class="edge"><title>Node0&#45;&gt;Node4</title>
<path fill="none" stroke="midnightblue" d="M103.706,-165.219C111.383,-157.394 123.089,-145.463 132.479,-135.892"/>
<polygon fill="midnightblue" stroke="midnightblue" points="135.178,-138.139 139.683,-128.55 130.182,-133.236 135.178,-138.139"/>
</g>
<!-- Node2 -->
<g id="node3" class="node"><title>Node2</title>
<g id="a_node3"><a xlink:href="_component_8hpp.html" target="_top" xlink:title="Component.hpp">
<polygon fill="none" stroke="black" points="0,-55.5 0,-73.5 87.1621,-73.5 87.1621,-55.5 0,-55.5"/>
<text text-anchor="middle" x="43.5811" y="-61.5" font-family="Helvetica,sans-Serif" font-size="10.00">Component.hpp</text>
</a>
</g>
</g>
<!-- Node1&#45;&gt;Node2 -->
<g id="edge2" class="edge"><title>Node1&#45;&gt;Node2</title>
<path fill="none" stroke="midnightblue" d="M43.5811,-110.219C43.5811,-103.177 43.5811,-92.8083 43.5811,-83.8277"/>
<polygon fill="midnightblue" stroke="midnightblue" points="47.0812,-83.5495 43.5811,-73.5496 40.0812,-83.5496 47.0812,-83.5495"/>
</g>
<!-- Node3 -->
<g id="node4" class="node"><title>Node3</title>
<polygon fill="none" stroke="#bfbfbf" points="23.3545,-0.5 23.3545,-18.5 63.8076,-18.5 63.8076,-0.5 23.3545,-0.5"/>
<text text-anchor="middle" x="43.5811" y="-6.5" font-family="Helvetica,sans-Serif" font-size="10.00">string</text>
</g>
<!-- Node2&#45;&gt;Node3 -->
<g id="edge3" class="edge"><title>Node2&#45;&gt;Node3</title>
<path fill="none" stroke="midnightblue" d="M43.5811,-55.2188C43.5811,-48.1769 43.5811,-37.8083 43.5811,-28.8277"/>
<polygon fill="midnightblue" stroke="midnightblue" points="47.0812,-28.5495 43.5811,-18.5496 40.0812,-28.5496 47.0812,-28.5495"/>
</g>
</g>
</svg>
