<?xml version="1.0" encoding="UTF-8" standalone="no"?>
<!DOCTYPE svg PUBLIC "-//W3C//DTD SVG 1.1//EN"
 "http://www.w3.org/Graphics/SVG/1.1/DTD/svg11.dtd">
<!-- Generated by graphviz version 2.38.0 (20140413.2041)
 -->
<!-- Title: Particle.cpp Pages: 1 -->
<svg width="602pt" height="137pt"
 viewBox="0.00 0.00 602.22 137.00" xmlns="http://www.w3.org/2000/svg" xmlns:xlink="http://www.w3.org/1999/xlink">
<g id="graph0" class="graph" transform="scale(1 1) rotate(0) translate(4 133)">
<title>Particle.cpp</title>
<!-- Node0 -->
<g id="node1" class="node"><title>Node0</title>
<polygon fill="#bfbfbf" stroke="black" points="236.608,-110.5 236.608,-128.5 304.854,-128.5 304.854,-110.5 236.608,-110.5"/>
<text text-anchor="middle" x="270.731" y="-116.5" font-family="Helvetica,sans-Serif" font-size="10.00">Particle.cpp</text>
</g>
<!-- Node1 -->
<g id="node2" class="node"><title>Node1</title>
<g id="a_node2"><a xlink:href="_particle_8hpp.html" target="_top" xlink:title="Particle.hpp">
<polygon fill="none" stroke="black" points="236.328,-55.5 236.328,-73.5 305.135,-73.5 305.135,-55.5 236.328,-55.5"/>
<text text-anchor="middle" x="270.731" y="-61.5" font-family="Helvetica,sans-Serif" font-size="10.00">Particle.hpp</text>
</a>
</g>
</g>
<!-- Node0&#45;&gt;Node1 -->
<g id="edge1" class="edge"><title>Node0&#45;&gt;Node1</title>
<path fill="none" stroke="midnightblue" d="M270.731,-110.219C270.731,-103.177 270.731,-92.8083 270.731,-83.8277"/>
<polygon fill="midnightblue" stroke="midnightblue" points="274.232,-83.5495 270.731,-73.5496 267.232,-83.5496 274.232,-83.5495"/>
</g>
<!-- Node2 -->
<g id="node3" class="node"><title>Node2</title>
<polygon fill="none" stroke="#bfbfbf" points="0,-0.5 0,-18.5 45.4629,-18.5 45.4629,-0.5 0,-0.5"/>
<text text-anchor="middle" x="22.7314" y="-6.5" font-family="Helvetica,sans-Serif" font-size="10.00">stdio.h</text>
</g>
<!-- Node1&#45;&gt;Node2 -->
<g id="edge2" class="edge"><title>Node1&#45;&gt;Node2</title>
<path fill="none" stroke="midnightblue" d="M236.183,-57.0063C195.346,-49.1938 125.128,-35.3328 55.5716,-19.0915"/>
<polygon fill="midnightblue" stroke="midnightblue" points="56.3002,-15.6674 45.7644,-16.7844 54.6972,-22.4814 56.3002,-15.6674"/>
</g>
<!-- Node3 -->
<g id="node4" class="node"><title>Node3</title>
<polygon fill="none" stroke="#bfbfbf" points="63.4312,-0.5 63.4312,-18.5 180.032,-18.5 180.032,-0.5 63.4312,-0.5"/>
<text text-anchor="middle" x="121.731" y="-6.5" font-family="Helvetica,sans-Serif" font-size="10.00">SRE/ParticleMesh.hpp</text>
</g>
<!-- Node1&#45;&gt;Node3 -->
<g id="edge3" class="edge"><title>Node1&#45;&gt;Node3</title>
<path fill="none" stroke="midnightblue" d="M248.102,-55.4504C223.05,-46.5395 182.464,-32.1029 154.065,-22.0014"/>
<polygon fill="midnightblue" stroke="midnightblue" points="155.169,-18.6791 144.574,-18.6253 152.823,-25.2743 155.169,-18.6791"/>
</g>
<!-- Node4 -->
<g id="node5" class="node"><title>Node4</title>
<polygon fill="none" stroke="#bfbfbf" points="198.498,-0.5 198.498,-18.5 268.965,-18.5 268.965,-0.5 198.498,-0.5"/>
<text text-anchor="middle" x="233.731" y="-6.5" font-family="Helvetica,sans-Serif" font-size="10.00">glm/glm.hpp</text>
</g>
<!-- Node1&#45;&gt;Node4 -->
<g id="edge4" class="edge"><title>Node1&#45;&gt;Node4</title>
<path fill="none" stroke="midnightblue" d="M264.95,-55.2188C259.652,-47.6292 251.656,-36.1753 245.083,-26.7597"/>
<polygon fill="midnightblue" stroke="midnightblue" points="247.945,-24.7457 239.351,-18.5496 242.205,-28.7527 247.945,-24.7457"/>
</g>
<!-- Node5 -->
<g id="node6" class="node"><title>Node5</title>
<polygon fill="none" stroke="#bfbfbf" points="287.116,-0.5 287.116,-18.5 330.347,-18.5 330.347,-0.5 287.116,-0.5"/>
<text text-anchor="middle" x="308.731" y="-6.5" font-family="Helvetica,sans-Serif" font-size="10.00">vector</text>
</g>
<!-- Node1&#45;&gt;Node5 -->
<g id="edge5" class="edge"><title>Node1&#45;&gt;Node5</title>
<path fill="none" stroke="midnightblue" d="M276.669,-55.2188C282.111,-47.6292 290.323,-36.1753 297.074,-26.7597"/>
<polygon fill="midnightblue" stroke="midnightblue" points="299.978,-28.716 302.96,-18.5496 294.289,-24.6371 299.978,-28.716"/>
</g>
<!-- Node6 -->
<g id="node7" class="node"><title>Node6</title>
<polygon fill="none" stroke="#bfbfbf" points="348.48,-0.5 348.48,-18.5 438.982,-18.5 438.982,-0.5 348.48,-0.5"/>
<text text-anchor="middle" x="393.731" y="-6.5" font-family="Helvetica,sans-Serif" font-size="10.00">SRE/Shader.hpp</text>
</g>
<!-- Node1&#45;&gt;Node6 -->
<g id="edge6" class="edge"><title>Node1&#45;&gt;Node6</title>
<path fill="none" stroke="midnightblue" d="M289.412,-55.4504C309.641,-46.734 342.14,-32.7306 365.49,-22.6691"/>
<polygon fill="midnightblue" stroke="midnightblue" points="367.076,-25.7969 374.875,-18.6253 364.306,-19.3683 367.076,-25.7969"/>
</g>
<!-- Node7 -->
<g id="node8" class="node"><title>Node7</title>
<polygon fill="none" stroke="#bfbfbf" points="457.238,-0.5 457.238,-18.5 594.225,-18.5 594.225,-0.5 457.238,-0.5"/>
<text text-anchor="middle" x="525.731" y="-6.5" font-family="Helvetica,sans-Serif" font-size="10.00">Box2D/Dynamics/b2Body.h</text>
</g>
<!-- Node1&#45;&gt;Node7 -->
<g id="edge7" class="edge"><title>Node1&#45;&gt;Node7</title>
<path fill="none" stroke="midnightblue" d="M305.387,-56.297C349.722,-47.0824 426.768,-31.0688 476.998,-20.6288"/>
<polygon fill="midnightblue" stroke="midnightblue" points="477.9,-24.0163 486.979,-18.5545 476.476,-17.1628 477.9,-24.0163"/>
</g>
</g>
</svg>
