<?xml version="1.0" encoding="UTF-8" standalone="no"?>
<!DOCTYPE svg PUBLIC "-//W3C//DTD SVG 1.1//EN"
 "http://www.w3.org/Graphics/SVG/1.1/DTD/svg11.dtd">
<!-- Generated by graphviz version 2.38.0 (20140413.2041)
 -->
<!-- Title: ParticleSystem.hpp Pages: 1 -->
<svg width="1258pt" height="247pt"
 viewBox="0.00 0.00 1257.90 247.00" xmlns="http://www.w3.org/2000/svg" xmlns:xlink="http://www.w3.org/1999/xlink">
<g id="graph0" class="graph" transform="scale(1 1) rotate(0) translate(4 243)">
<title>ParticleSystem.hpp</title>
<!-- Node0 -->
<g id="node1" class="node"><title>Node0</title>
<polygon fill="#bfbfbf" stroke="black" points="509.956,-220.5 509.956,-238.5 612.103,-238.5 612.103,-220.5 509.956,-220.5"/>
<text text-anchor="middle" x="561.03" y="-226.5" font-family="Helvetica,sans-Serif" font-size="10.00">ParticleSystem.hpp</text>
</g>
<!-- Node1 -->
<g id="node2" class="node"><title>Node1</title>
<polygon fill="none" stroke="#bfbfbf" points="153.298,-0.5 153.298,-18.5 198.761,-18.5 198.761,-0.5 153.298,-0.5"/>
<text text-anchor="middle" x="176.03" y="-6.5" font-family="Helvetica,sans-Serif" font-size="10.00">stdio.h</text>
</g>
<!-- Node0&#45;&gt;Node1 -->
<g id="edge1" class="edge"><title>Node0&#45;&gt;Node1</title>
<path fill="none" stroke="midnightblue" d="M509.739,-227.74C384.358,-224.638 68.2512,-208.891 9.02968,-129 -31.8966,-73.7898 84.2175,-34.3893 143.534,-18.4044"/>
<polygon fill="midnightblue" stroke="midnightblue" points="144.431,-21.7876 153.217,-15.8667 142.656,-15.0163 144.431,-21.7876"/>
</g>
<!-- Node2 -->
<g id="node3" class="node"><title>Node2</title>
<polygon fill="none" stroke="#bfbfbf" points="17.7294,-110.5 17.7294,-128.5 134.33,-128.5 134.33,-110.5 17.7294,-110.5"/>
<text text-anchor="middle" x="76.0297" y="-116.5" font-family="Helvetica,sans-Serif" font-size="10.00">SRE/ParticleMesh.hpp</text>
</g>
<!-- Node0&#45;&gt;Node2 -->
<g id="edge2" class="edge"><title>Node0&#45;&gt;Node2</title>
<path fill="none" stroke="midnightblue" d="M509.737,-224.268C448.106,-218.457 341.894,-206.121 253.03,-184 198.966,-170.542 138.327,-146.809 103.904,-132.48"/>
<polygon fill="midnightblue" stroke="midnightblue" points="105.082,-129.179 94.5075,-128.53 102.37,-135.632 105.082,-129.179"/>
</g>
<!-- Node3 -->
<g id="node4" class="node"><title>Node3</title>
<polygon fill="none" stroke="#bfbfbf" points="443.796,-110.5 443.796,-128.5 514.264,-128.5 514.264,-110.5 443.796,-110.5"/>
<text text-anchor="middle" x="479.03" y="-116.5" font-family="Helvetica,sans-Serif" font-size="10.00">glm/glm.hpp</text>
</g>
<!-- Node0&#45;&gt;Node3 -->
<g id="edge3" class="edge"><title>Node0&#45;&gt;Node3</title>
<path fill="none" stroke="midnightblue" d="M554.866,-220.382C541.451,-202.713 509.379,-160.472 491.54,-136.976"/>
<polygon fill="midnightblue" stroke="midnightblue" points="494.099,-134.56 485.265,-128.712 488.524,-138.793 494.099,-134.56"/>
</g>
<!-- Node4 -->
<g id="node5" class="node"><title>Node4</title>
<g id="a_node5"><a xlink:href="_particle_8hpp.html" target="_top" xlink:title="Particle.hpp">
<polygon fill="none" stroke="black" points="261.626,-165.5 261.626,-183.5 330.433,-183.5 330.433,-165.5 261.626,-165.5"/>
<text text-anchor="middle" x="296.03" y="-171.5" font-family="Helvetica,sans-Serif" font-size="10.00">Particle.hpp</text>
</a>
</g>
</g>
<!-- Node0&#45;&gt;Node4 -->
<g id="edge4" class="edge"><title>Node0&#45;&gt;Node4</title>
<path fill="none" stroke="midnightblue" d="M520.782,-220.45C472.288,-210.752 391.064,-194.507 340.682,-184.43"/>
<polygon fill="midnightblue" stroke="midnightblue" points="341.221,-180.969 330.729,-182.44 339.848,-187.833 341.221,-180.969"/>
</g>
<!-- Node5 -->
<g id="node6" class="node"><title>Node5</title>
<polygon fill="none" stroke="#bfbfbf" points="382.414,-110.5 382.414,-128.5 425.645,-128.5 425.645,-110.5 382.414,-110.5"/>
<text text-anchor="middle" x="404.03" y="-116.5" font-family="Helvetica,sans-Serif" font-size="10.00">vector</text>
</g>
<!-- Node0&#45;&gt;Node5 -->
<g id="edge11" class="edge"><title>Node0&#45;&gt;Node5</title>
<path fill="none" stroke="midnightblue" d="M549.229,-220.382C522.634,-202.088 457.746,-157.451 424.459,-134.554"/>
<polygon fill="midnightblue" stroke="midnightblue" points="426.19,-131.496 415.967,-128.712 422.222,-137.263 426.19,-131.496"/>
</g>
<!-- Node6 -->
<g id="node7" class="node"><title>Node6</title>
<polygon fill="none" stroke="#bfbfbf" points="230.779,-0.5 230.779,-18.5 321.281,-18.5 321.281,-0.5 230.779,-0.5"/>
<text text-anchor="middle" x="276.03" y="-6.5" font-family="Helvetica,sans-Serif" font-size="10.00">SRE/Shader.hpp</text>
</g>
<!-- Node0&#45;&gt;Node6 -->
<g id="edge12" class="edge"><title>Node0&#45;&gt;Node6</title>
<path fill="none" stroke="midnightblue" d="M560.716,-220.434C559.474,-199.463 553.337,-142.592 523.03,-110 493.656,-78.4111 375.858,-40.0045 314.158,-21.5051"/>
<polygon fill="midnightblue" stroke="midnightblue" points="314.983,-18.0989 304.4,-18.6052 312.989,-24.8089 314.983,-18.0989"/>
</g>
<!-- Node8 -->
<g id="node9" class="node"><title>Node8</title>
<g id="a_node9"><a xlink:href="_scriptable_8hpp.html" target="_top" xlink:title="Scriptable.hpp">
<polygon fill="none" stroke="black" points="608.064,-165.5 608.064,-183.5 687.995,-183.5 687.995,-165.5 608.064,-165.5"/>
<text text-anchor="middle" x="648.03" y="-171.5" font-family="Helvetica,sans-Serif" font-size="10.00">Scriptable.hpp</text>
</a>
</g>
</g>
<!-- Node0&#45;&gt;Node8 -->
<g id="edge13" class="edge"><title>Node0&#45;&gt;Node8</title>
<path fill="none" stroke="midnightblue" d="M574.243,-220.45C587.912,-212.123 609.503,-198.97 625.805,-189.039"/>
<polygon fill="midnightblue" stroke="midnightblue" points="627.973,-191.817 634.692,-183.625 624.331,-185.839 627.973,-191.817"/>
</g>
<!-- Node11 -->
<g id="node12" class="node"><title>Node11</title>
<polygon fill="none" stroke="#bfbfbf" points="339.232,-0.5 339.232,-18.5 430.828,-18.5 430.828,-0.5 339.232,-0.5"/>
<text text-anchor="middle" x="385.03" y="-6.5" font-family="Helvetica,sans-Serif" font-size="10.00">SRE/Texture.hpp</text>
</g>
<!-- Node0&#45;&gt;Node11 -->
<g id="edge16" class="edge"><title>Node0&#45;&gt;Node11</title>
<path fill="none" stroke="midnightblue" d="M563.792,-220.475C572.484,-193.61 596.39,-105.681 556.03,-55 548.403,-45.4226 483.788,-30.4847 436.228,-20.5966"/>
<polygon fill="midnightblue" stroke="midnightblue" points="436.865,-17.1544 426.365,-18.567 435.454,-24.0107 436.865,-17.1544"/>
</g>
<!-- Node12 -->
<g id="node13" class="node"><title>Node12</title>
<g id="a_node13"><a xlink:href="_rigidbody_8hpp.html" target="_top" xlink:title="Rigidbody.hpp">
<polygon fill="none" stroke="black" points="706.431,-165.5 706.431,-183.5 785.629,-183.5 785.629,-165.5 706.431,-165.5"/>
<text text-anchor="middle" x="746.03" y="-171.5" font-family="Helvetica,sans-Serif" font-size="10.00">Rigidbody.hpp</text>
</a>
</g>
</g>
<!-- Node0&#45;&gt;Node12 -->
<g id="edge17" class="edge"><title>Node0&#45;&gt;Node12</title>
<path fill="none" stroke="midnightblue" d="M589.127,-220.45C620.867,-211.357 672.69,-196.511 708.025,-186.388"/>
<polygon fill="midnightblue" stroke="midnightblue" points="709.322,-189.657 717.971,-183.538 707.394,-182.928 709.322,-189.657"/>
</g>
<!-- Node13 -->
<g id="node14" class="node"><title>Node13</title>
<polygon fill="none" stroke="#bfbfbf" points="1061.46,-0.5 1061.46,-18.5 1148.6,-18.5 1148.6,-0.5 1061.46,-0.5"/>
<text text-anchor="middle" x="1105.03" y="-6.5" font-family="Helvetica,sans-Serif" font-size="10.00">Box2D/Box2D.h</text>
</g>
<!-- Node0&#45;&gt;Node13 -->
<g id="edge37" class="edge"><title>Node0&#45;&gt;Node13</title>
<path fill="none" stroke="midnightblue" d="M612.502,-223.535C660.777,-217.763 734.41,-206.065 795.03,-184 912.389,-141.282 1038.05,-57.5853 1085.45,-24.4683"/>
<polygon fill="midnightblue" stroke="midnightblue" points="1087.7,-27.1655 1093.86,-18.5465 1083.67,-21.442 1087.7,-27.1655"/>
</g>
<!-- Node22 -->
<g id="node23" class="node"><title>Node22</title>
<polygon fill="none" stroke="#bfbfbf" points="999.84,-165.5 999.84,-183.5 1104.22,-183.5 1104.22,-165.5 999.84,-165.5"/>
<text text-anchor="middle" x="1052.03" y="-171.5" font-family="Helvetica,sans-Serif" font-size="10.00">glm/gtc/random.hpp</text>
</g>
<!-- Node0&#45;&gt;Node22 -->
<g id="edge38" class="edge"><title>Node0&#45;&gt;Node22</title>
<path fill="none" stroke="midnightblue" d="M612.428,-223.516C692.383,-215.673 851.365,-199.719 986.03,-184 987.288,-183.853 988.56,-183.703 989.842,-183.551"/>
<polygon fill="midnightblue" stroke="midnightblue" points="990.299,-187.021 999.805,-182.342 989.456,-180.072 990.299,-187.021"/>
</g>
<!-- Node23 -->
<g id="node24" class="node"><title>Node23</title>
<polygon fill="none" stroke="#bfbfbf" points="1122.16,-165.5 1122.16,-183.5 1249.9,-183.5 1249.9,-165.5 1122.16,-165.5"/>
<text text-anchor="middle" x="1186.03" y="-171.5" font-family="Helvetica,sans-Serif" font-size="10.00">glm/gtx/euler_angles.hpp</text>
</g>
<!-- Node0&#45;&gt;Node23 -->
<g id="edge39" class="edge"><title>Node0&#45;&gt;Node23</title>
<path fill="none" stroke="midnightblue" d="M612.453,-224.966C708.39,-218.24 921.422,-202.678 1111.76,-184.092"/>
<polygon fill="midnightblue" stroke="midnightblue" points="1112.34,-187.552 1121.95,-183.092 1111.66,-180.585 1112.34,-187.552"/>
</g>
<!-- Node4&#45;&gt;Node1 -->
<g id="edge5" class="edge"><title>Node4&#45;&gt;Node1</title>
<path fill="none" stroke="midnightblue" d="M267.838,-165.438C248.919,-158.642 224.838,-147.076 210.03,-129 185.917,-99.5669 178.898,-53.8679 176.859,-28.6875"/>
<polygon fill="midnightblue" stroke="midnightblue" points="180.352,-28.4542 176.23,-18.6941 173.365,-28.8944 180.352,-28.4542"/>
</g>
<!-- Node4&#45;&gt;Node2 -->
<g id="edge6" class="edge"><title>Node4&#45;&gt;Node2</title>
<path fill="none" stroke="midnightblue" d="M262.616,-165.45C224.305,-156.221 161.388,-141.063 119.345,-130.935"/>
<polygon fill="midnightblue" stroke="midnightblue" points="119.938,-127.478 109.396,-128.538 118.298,-134.283 119.938,-127.478"/>
</g>
<!-- Node4&#45;&gt;Node3 -->
<g id="edge7" class="edge"><title>Node4&#45;&gt;Node3</title>
<path fill="none" stroke="midnightblue" d="M323.823,-165.45C355.22,-156.357 406.483,-141.511 441.436,-131.388"/>
<polygon fill="midnightblue" stroke="midnightblue" points="442.643,-134.682 451.275,-128.538 440.696,-127.958 442.643,-134.682"/>
</g>
<!-- Node4&#45;&gt;Node5 -->
<g id="edge8" class="edge"><title>Node4&#45;&gt;Node5</title>
<path fill="none" stroke="midnightblue" d="M312.433,-165.45C329.956,-156.851 357.967,-143.105 378.404,-133.075"/>
<polygon fill="midnightblue" stroke="midnightblue" points="380.037,-136.173 387.472,-128.625 376.953,-129.889 380.037,-136.173"/>
</g>
<!-- Node4&#45;&gt;Node6 -->
<g id="edge9" class="edge"><title>Node4&#45;&gt;Node6</title>
<path fill="none" stroke="midnightblue" d="M268.437,-165.469C250.911,-158.777 229.602,-147.321 219.03,-129 198.322,-93.1149 235.621,-48.5545 259.09,-25.654"/>
<polygon fill="midnightblue" stroke="midnightblue" points="261.53,-28.1636 266.414,-18.7619 256.733,-23.0655 261.53,-28.1636"/>
</g>
<!-- Node7 -->
<g id="node8" class="node"><title>Node7</title>
<polygon fill="none" stroke="#bfbfbf" points="227.537,-110.5 227.537,-128.5 364.523,-128.5 364.523,-110.5 227.537,-110.5"/>
<text text-anchor="middle" x="296.03" y="-116.5" font-family="Helvetica,sans-Serif" font-size="10.00">Box2D/Dynamics/b2Body.h</text>
</g>
<!-- Node4&#45;&gt;Node7 -->
<g id="edge10" class="edge"><title>Node4&#45;&gt;Node7</title>
<path fill="none" stroke="midnightblue" d="M296.03,-165.219C296.03,-158.177 296.03,-147.808 296.03,-138.828"/>
<polygon fill="midnightblue" stroke="midnightblue" points="299.53,-138.55 296.03,-128.55 292.53,-138.55 299.53,-138.55"/>
</g>
<!-- Node9 -->
<g id="node10" class="node"><title>Node9</title>
<g id="a_node10"><a xlink:href="_component_8hpp.html" target="_top" xlink:title="Component.hpp">
<polygon fill="none" stroke="black" points="608.449,-110.5 608.449,-128.5 695.611,-128.5 695.611,-110.5 608.449,-110.5"/>
<text text-anchor="middle" x="652.03" y="-116.5" font-family="Helvetica,sans-Serif" font-size="10.00">Component.hpp</text>
</a>
</g>
</g>
<!-- Node8&#45;&gt;Node9 -->
<g id="edge14" class="edge"><title>Node8&#45;&gt;Node9</title>
<path fill="none" stroke="midnightblue" d="M648.655,-165.219C649.192,-158.099 649.986,-147.577 650.669,-138.529"/>
<polygon fill="midnightblue" stroke="midnightblue" points="654.16,-138.785 651.422,-128.55 647.179,-138.258 654.16,-138.785"/>
</g>
<!-- Node10 -->
<g id="node11" class="node"><title>Node10</title>
<polygon fill="none" stroke="#bfbfbf" points="607.803,-55.5 607.803,-73.5 648.256,-73.5 648.256,-55.5 607.803,-55.5"/>
<text text-anchor="middle" x="628.03" y="-61.5" font-family="Helvetica,sans-Serif" font-size="10.00">string</text>
</g>
<!-- Node9&#45;&gt;Node10 -->
<g id="edge15" class="edge"><title>Node9&#45;&gt;Node10</title>
<path fill="none" stroke="midnightblue" d="M648.28,-110.219C644.985,-102.942 640.081,-92.1134 635.925,-82.9345"/>
<polygon fill="midnightblue" stroke="midnightblue" points="638.988,-81.2153 631.675,-73.5496 632.612,-84.1029 638.988,-81.2153"/>
</g>
<!-- Node12&#45;&gt;Node3 -->
<g id="edge36" class="edge"><title>Node12&#45;&gt;Node3</title>
<path fill="none" stroke="midnightblue" d="M706.345,-165.623C657.827,-155.992 575.879,-139.725 524.761,-129.578"/>
<polygon fill="midnightblue" stroke="midnightblue" points="525.146,-126.086 514.656,-127.572 523.783,-132.952 525.146,-126.086"/>
</g>
<!-- Node12&#45;&gt;Node9 -->
<g id="edge18" class="edge"><title>Node12&#45;&gt;Node9</title>
<path fill="none" stroke="midnightblue" d="M731.753,-165.45C716.846,-157.045 693.22,-143.724 675.551,-133.762"/>
<polygon fill="midnightblue" stroke="midnightblue" points="676.87,-130.488 666.441,-128.625 673.432,-136.586 676.87,-130.488"/>
</g>
<!-- Node12&#45;&gt;Node13 -->
<g id="edge19" class="edge"><title>Node12&#45;&gt;Node13</title>
<path fill="none" stroke="midnightblue" d="M764.724,-165.434C783.928,-156.966 814.534,-142.966 840.03,-129 894.322,-99.2601 901.685,-80.6391 958.03,-55 990.595,-40.1815 1029.41,-28.6717 1058.97,-21.0733"/>
<polygon fill="midnightblue" stroke="midnightblue" points="1060.17,-24.3806 1069.02,-18.5497 1058.47,-17.5915 1060.17,-24.3806"/>
</g>
<!-- Node14 -->
<g id="node15" class="node"><title>Node14</title>
<g id="a_node15"><a xlink:href="_physics_manager_8hpp.html" target="_top" xlink:title="PhysicsManager.hpp">
<polygon fill="none" stroke="black" points="722.611,-110.5 722.611,-128.5 831.448,-128.5 831.448,-110.5 722.611,-110.5"/>
<text text-anchor="middle" x="777.03" y="-116.5" font-family="Helvetica,sans-Serif" font-size="10.00">PhysicsManager.hpp</text>
</a>
</g>
</g>
<!-- Node12&#45;&gt;Node14 -->
<g id="edge20" class="edge"><title>Node12&#45;&gt;Node14</title>
<path fill="none" stroke="midnightblue" d="M750.873,-165.219C755.221,-157.786 761.737,-146.646 767.177,-137.345"/>
<polygon fill="midnightblue" stroke="midnightblue" points="770.294,-138.949 772.321,-128.55 764.251,-135.414 770.294,-138.949"/>
</g>
<!-- Node14&#45;&gt;Node1 -->
<g id="edge21" class="edge"><title>Node14&#45;&gt;Node1</title>
<path fill="none" stroke="midnightblue" d="M760.548,-110.374C742.956,-101.631 714.33,-87.1996 690.03,-74 675.158,-65.9219 673.185,-60.0416 657.03,-55 471.843,2.78995 414.32,-44.6572 222.03,-19 217.773,-18.4321 213.313,-17.7361 208.914,-16.9893"/>
<polygon fill="midnightblue" stroke="midnightblue" points="209.349,-13.5114 198.888,-15.1906 208.112,-20.4014 209.349,-13.5114"/>
</g>
<!-- Node14&#45;&gt;Node13 -->
<g id="edge24" class="edge"><title>Node14&#45;&gt;Node13</title>
<path fill="none" stroke="midnightblue" d="M795.669,-110.353C815.955,-101.471 849.335,-86.8113 878.03,-74 896.738,-65.6474 900.65,-61.6476 920.03,-55 963.301,-40.1572 1013.89,-28.3511 1051.22,-20.6396"/>
<polygon fill="midnightblue" stroke="midnightblue" points="1052.28,-23.9962 1061.38,-18.574 1050.88,-17.1365 1052.28,-23.9962"/>
</g>
<!-- Node15 -->
<g id="node16" class="node"><title>Node15</title>
<polygon fill="none" stroke="#bfbfbf" points="449.133,-0.5 449.133,-18.5 492.926,-18.5 492.926,-0.5 449.133,-0.5"/>
<text text-anchor="middle" x="471.03" y="-6.5" font-family="Helvetica,sans-Serif" font-size="10.00">SDL.h</text>
</g>
<!-- Node14&#45;&gt;Node15 -->
<g id="edge22" class="edge"><title>Node14&#45;&gt;Node15</title>
<path fill="none" stroke="midnightblue" d="M768.7,-110.404C754.079,-96.6879 722.273,-69.0083 690.03,-55 614.897,-22.3585 586.976,-37.0595 502.961,-18.9902"/>
<polygon fill="midnightblue" stroke="midnightblue" points="503.515,-15.5276 492.991,-16.7504 501.981,-22.3573 503.515,-15.5276"/>
</g>
<!-- Node16 -->
<g id="node17" class="node"><title>Node16</title>
<polygon fill="none" stroke="#bfbfbf" points="988.857,-0.5 988.857,-18.5 1043.2,-18.5 1043.2,-0.5 988.857,-0.5"/>
<text text-anchor="middle" x="1016.03" y="-6.5" font-family="Helvetica,sans-Serif" font-size="10.00">iostream</text>
</g>
<!-- Node14&#45;&gt;Node16 -->
<g id="edge23" class="edge"><title>Node14&#45;&gt;Node16</title>
<path fill="none" stroke="midnightblue" d="M788.521,-110.366C807.345,-97.3201 846.243,-71.5108 882.03,-55 913.609,-40.4303 951.342,-28.342 978.709,-20.4597"/>
<polygon fill="midnightblue" stroke="midnightblue" points="979.985,-23.7363 988.656,-17.6482 978.081,-17.0002 979.985,-23.7363"/>
</g>
<!-- Node17 -->
<g id="node18" class="node"><title>Node17</title>
<g id="a_node18"><a xlink:href="_debug_draw_8hpp.html" target="_top" xlink:title="DebugDraw.hpp">
<polygon fill="none" stroke="black" points="742.17,-55.5 742.17,-73.5 829.889,-73.5 829.889,-55.5 742.17,-55.5"/>
<text text-anchor="middle" x="786.03" y="-61.5" font-family="Helvetica,sans-Serif" font-size="10.00">DebugDraw.hpp</text>
</a>
</g>
</g>
<!-- Node14&#45;&gt;Node17 -->
<g id="edge25" class="edge"><title>Node14&#45;&gt;Node17</title>
<path fill="none" stroke="midnightblue" d="M778.436,-110.219C779.645,-103.099 781.432,-92.5775 782.968,-83.5289"/>
<polygon fill="midnightblue" stroke="midnightblue" points="786.439,-83.9944 784.663,-73.5496 779.538,-82.8224 786.439,-83.9944"/>
</g>
<!-- Node17&#45;&gt;Node1 -->
<g id="edge26" class="edge"><title>Node17&#45;&gt;Node1</title>
<path fill="none" stroke="midnightblue" d="M742.071,-59.5005C725.733,-58.0423 707.038,-56.4071 690.03,-55 482.125,-37.8002 428.891,-45.9912 222.03,-19 217.772,-18.4444 213.31,-17.7557 208.911,-17.0126"/>
<polygon fill="midnightblue" stroke="midnightblue" points="209.345,-13.5346 198.884,-15.2169 208.111,-20.425 209.345,-13.5346"/>
</g>
<!-- Node17&#45;&gt;Node6 -->
<g id="edge27" class="edge"><title>Node17&#45;&gt;Node6</title>
<path fill="none" stroke="midnightblue" d="M741.811,-59.5198C647.01,-50.9338 425.796,-30.6046 331.439,-19.0924"/>
<polygon fill="midnightblue" stroke="midnightblue" points="331.732,-15.6019 321.375,-17.836 330.865,-22.548 331.732,-15.6019"/>
</g>
<!-- Node17&#45;&gt;Node11 -->
<g id="edge31" class="edge"><title>Node17&#45;&gt;Node11</title>
<path fill="none" stroke="midnightblue" d="M742.014,-58.2026C678.099,-50.4304 555.609,-35.2352 440.938,-19.0967"/>
<polygon fill="midnightblue" stroke="midnightblue" points="441.324,-15.6166 430.933,-17.6834 440.345,-22.5478 441.324,-15.6166"/>
</g>
<!-- Node17&#45;&gt;Node13 -->
<g id="edge35" class="edge"><title>Node17&#45;&gt;Node13</title>
<path fill="none" stroke="midnightblue" d="M830.05,-56.1862C887.769,-46.5965 988.974,-29.782 1051.19,-19.445"/>
<polygon fill="midnightblue" stroke="midnightblue" points="1051.91,-22.8729 1061.21,-17.7812 1050.77,-15.9676 1051.91,-22.8729"/>
</g>
<!-- Node17&#45;&gt;Node15 -->
<g id="edge28" class="edge"><title>Node17&#45;&gt;Node15</title>
<path fill="none" stroke="midnightblue" d="M742.004,-56.88C674.194,-46.6454 548.037,-27.4415 503.001,-18.8718"/>
<polygon fill="midnightblue" stroke="midnightblue" points="503.466,-15.395 492.97,-16.8432 502.078,-22.2561 503.466,-15.395"/>
</g>
<!-- Node17&#45;&gt;Node16 -->
<g id="edge32" class="edge"><title>Node17&#45;&gt;Node16</title>
<path fill="none" stroke="midnightblue" d="M821.446,-55.4475C858.298,-47.0528 917.953,-33.4197 978.415,-19.3655"/>
<polygon fill="midnightblue" stroke="midnightblue" points="979.57,-22.6904 988.517,-17.0152 977.984,-15.8725 979.57,-22.6904"/>
</g>
<!-- Node18 -->
<g id="node19" class="node"><title>Node18</title>
<polygon fill="none" stroke="#bfbfbf" points="825.286,-0.5 825.286,-18.5 970.773,-18.5 970.773,-0.5 825.286,-0.5"/>
<text text-anchor="middle" x="898.03" y="-6.5" font-family="Helvetica,sans-Serif" font-size="10.00">glm/gtc/matrix_transform.hpp</text>
</g>
<!-- Node17&#45;&gt;Node18 -->
<g id="edge29" class="edge"><title>Node17&#45;&gt;Node18</title>
<path fill="none" stroke="midnightblue" d="M803.04,-55.4504C821.295,-46.8119 850.524,-32.9803 871.742,-22.9396"/>
<polygon fill="midnightblue" stroke="midnightblue" points="873.317,-26.0664 880.859,-18.6253 870.323,-19.7391 873.317,-26.0664"/>
</g>
<!-- Node19 -->
<g id="node20" class="node"><title>Node19</title>
<polygon fill="none" stroke="#bfbfbf" points="510.894,-0.5 510.894,-18.5 599.165,-18.5 599.165,-0.5 510.894,-0.5"/>
<text text-anchor="middle" x="555.03" y="-6.5" font-family="Helvetica,sans-Serif" font-size="10.00">SRE/Debug.hpp</text>
</g>
<!-- Node17&#45;&gt;Node19 -->
<g id="edge30" class="edge"><title>Node17&#45;&gt;Node19</title>
<path fill="none" stroke="midnightblue" d="M750.946,-55.4504C710.549,-46.1818 644.096,-30.9352 599.952,-20.8068"/>
<polygon fill="midnightblue" stroke="midnightblue" points="600.594,-17.3633 590.065,-18.5383 599.029,-24.186 600.594,-17.3633"/>
</g>
<!-- Node20 -->
<g id="node21" class="node"><title>Node20</title>
<polygon fill="none" stroke="#bfbfbf" points="617.609,-0.5 617.609,-18.5 746.451,-18.5 746.451,-0.5 617.609,-0.5"/>
<text text-anchor="middle" x="682.03" y="-6.5" font-family="Helvetica,sans-Serif" font-size="10.00">glm/gtx/closest_point.hpp</text>
</g>
<!-- Node17&#45;&gt;Node20 -->
<g id="edge33" class="edge"><title>Node17&#45;&gt;Node20</title>
<path fill="none" stroke="midnightblue" d="M770.234,-55.4504C753.436,-46.8897 726.63,-33.2291 706.974,-23.2119"/>
<polygon fill="midnightblue" stroke="midnightblue" points="708.473,-20.0475 697.974,-18.6253 705.294,-26.2843 708.473,-20.0475"/>
</g>
<!-- Node21 -->
<g id="node22" class="node"><title>Node21</title>
<polygon fill="none" stroke="#bfbfbf" points="764.414,-0.5 764.414,-18.5 807.645,-18.5 807.645,-0.5 764.414,-0.5"/>
<text text-anchor="middle" x="786.03" y="-6.5" font-family="Helvetica,sans-Serif" font-size="10.00">time.h</text>
</g>
<!-- Node17&#45;&gt;Node21 -->
<g id="edge34" class="edge"><title>Node17&#45;&gt;Node21</title>
<path fill="none" stroke="midnightblue" d="M786.03,-55.2188C786.03,-48.1769 786.03,-37.8083 786.03,-28.8277"/>
<polygon fill="midnightblue" stroke="midnightblue" points="789.53,-28.5495 786.03,-18.5496 782.53,-28.5496 789.53,-28.5495"/>
</g>
</g>
</svg>
