<?xml version="1.0" encoding="UTF-8" standalone="no"?>
<!DOCTYPE svg PUBLIC "-//W3C//DTD SVG 1.1//EN"
 "http://www.w3.org/Graphics/SVG/1.1/DTD/svg11.dtd">
<!-- Generated by graphviz version 2.38.0 (20140413.2041)
 -->
<!-- Title: Particle.cpp Pages: 1 -->
<svg width="358pt" height="137pt"
 viewBox="0.00 0.00 357.98 137.00" xmlns="http://www.w3.org/2000/svg" xmlns:xlink="http://www.w3.org/1999/xlink">
<g id="graph0" class="graph" transform="scale(1 1) rotate(0) translate(4 133)">
<title>Particle.cpp</title>
<!-- Node0 -->
<g id="node1" class="node"><title>Node0</title>
<polygon fill="#bfbfbf" stroke="black" points="136.608,-110.5 136.608,-128.5 204.854,-128.5 204.854,-110.5 136.608,-110.5"/>
<text text-anchor="middle" x="170.731" y="-116.5" font-family="Helvetica,sans-Serif" font-size="10.00">Particle.cpp</text>
</g>
<!-- Node1 -->
<g id="node2" class="node"><title>Node1</title>
<g id="a_node2"><a xlink:href="_particle_8hpp.html" target="_top" xlink:title="Particle.hpp">
<polygon fill="none" stroke="black" points="136.328,-55.5 136.328,-73.5 205.135,-73.5 205.135,-55.5 136.328,-55.5"/>
<text text-anchor="middle" x="170.731" y="-61.5" font-family="Helvetica,sans-Serif" font-size="10.00">Particle.hpp</text>
</a>
</g>
</g>
<!-- Node0&#45;&gt;Node1 -->
<g id="edge1" class="edge"><title>Node0&#45;&gt;Node1</title>
<path fill="none" stroke="midnightblue" d="M170.731,-110.219C170.731,-103.177 170.731,-92.8083 170.731,-83.8277"/>
<polygon fill="midnightblue" stroke="midnightblue" points="174.232,-83.5495 170.731,-73.5496 167.232,-83.5496 174.232,-83.5495"/>
</g>
<!-- Node2 -->
<g id="node3" class="node"><title>Node2</title>
<polygon fill="none" stroke="#bfbfbf" points="0,-0.5 0,-18.5 45.4629,-18.5 45.4629,-0.5 0,-0.5"/>
<text text-anchor="middle" x="22.7314" y="-6.5" font-family="Helvetica,sans-Serif" font-size="10.00">stdio.h</text>
</g>
<!-- Node1&#45;&gt;Node2 -->
<g id="edge2" class="edge"><title>Node1&#45;&gt;Node2</title>
<path fill="none" stroke="midnightblue" d="M148.253,-55.4504C123.37,-46.5395 83.0564,-32.1029 54.8485,-22.0014"/>
<polygon fill="midnightblue" stroke="midnightblue" points="56.0156,-18.7017 45.421,-18.6253 53.6555,-25.2919 56.0156,-18.7017"/>
</g>
<!-- Node3 -->
<g id="node4" class="node"><title>Node3</title>
<polygon fill="none" stroke="#bfbfbf" points="63.4312,-0.5 63.4312,-18.5 180.032,-18.5 180.032,-0.5 63.4312,-0.5"/>
<text text-anchor="middle" x="121.731" y="-6.5" font-family="Helvetica,sans-Serif" font-size="10.00">SRE/ParticleMesh.hpp</text>
</g>
<!-- Node1&#45;&gt;Node3 -->
<g id="edge3" class="edge"><title>Node1&#45;&gt;Node3</title>
<path fill="none" stroke="midnightblue" d="M163.075,-55.2188C155.914,-47.4727 145.031,-35.7013 136.228,-26.1799"/>
<polygon fill="midnightblue" stroke="midnightblue" points="138.532,-23.5163 129.173,-18.5496 133.392,-28.2683 138.532,-23.5163"/>
</g>
<!-- Node4 -->
<g id="node5" class="node"><title>Node4</title>
<polygon fill="none" stroke="#bfbfbf" points="198.116,-0.5 198.116,-18.5 241.347,-18.5 241.347,-0.5 198.116,-0.5"/>
<text text-anchor="middle" x="219.731" y="-6.5" font-family="Helvetica,sans-Serif" font-size="10.00">vector</text>
</g>
<!-- Node1&#45;&gt;Node4 -->
<g id="edge4" class="edge"><title>Node1&#45;&gt;Node4</title>
<path fill="none" stroke="midnightblue" d="M178.388,-55.2188C185.549,-47.4727 196.432,-35.7013 205.235,-26.1799"/>
<polygon fill="midnightblue" stroke="midnightblue" points="208.071,-28.2683 212.289,-18.5496 202.931,-23.5163 208.071,-28.2683"/>
</g>
<!-- Node5 -->
<g id="node6" class="node"><title>Node5</title>
<polygon fill="none" stroke="#bfbfbf" points="259.48,-0.5 259.48,-18.5 349.982,-18.5 349.982,-0.5 259.48,-0.5"/>
<text text-anchor="middle" x="304.731" y="-6.5" font-family="Helvetica,sans-Serif" font-size="10.00">SRE/Shader.hpp</text>
</g>
<!-- Node1&#45;&gt;Node5 -->
<g id="edge5" class="edge"><title>Node1&#45;&gt;Node5</title>
<path fill="none" stroke="midnightblue" d="M191.083,-55.4504C213.318,-46.6562 249.159,-32.4802 274.643,-22.4006"/>
<polygon fill="midnightblue" stroke="midnightblue" points="276.176,-25.558 284.188,-18.6253 273.602,-19.0487 276.176,-25.558"/>
</g>
</g>
</svg>
