<?xml version="1.0" encoding="UTF-8" standalone="no"?>
<!DOCTYPE svg PUBLIC "-//W3C//DTD SVG 1.1//EN"
 "http://www.w3.org/Graphics/SVG/1.1/DTD/svg11.dtd">
<!-- Generated by graphviz version 2.38.0 (20140413.2041)
 -->
<!-- Title: ParticleSystem.cpp Pages: 1 -->
<svg width="1576pt" height="302pt"
 viewBox="0.00 0.00 1575.72 302.00" xmlns="http://www.w3.org/2000/svg" xmlns:xlink="http://www.w3.org/1999/xlink">
<g id="graph0" class="graph" transform="scale(1 1) rotate(0) translate(4 298)">
<title>ParticleSystem.cpp</title>
<!-- Node0 -->
<g id="node1" class="node"><title>Node0</title>
<polygon fill="#bfbfbf" stroke="black" points="1109.01,-275.5 1109.01,-293.5 1210.6,-293.5 1210.6,-275.5 1109.01,-275.5"/>
<text text-anchor="middle" x="1159.81" y="-281.5" font-family="Helvetica,sans-Serif" font-size="10.00">ParticleSystem.cpp</text>
</g>
<!-- Node1 -->
<g id="node2" class="node"><title>Node1</title>
<g id="a_node2"><a xlink:href="_particle_system_8hpp.html" target="_top" xlink:title="ParticleSystem.hpp">
<polygon fill="none" stroke="black" points="478.732,-220.5 478.732,-238.5 580.88,-238.5 580.88,-220.5 478.732,-220.5"/>
<text text-anchor="middle" x="529.806" y="-226.5" font-family="Helvetica,sans-Serif" font-size="10.00">ParticleSystem.hpp</text>
</a>
</g>
</g>
<!-- Node0&#45;&gt;Node1 -->
<g id="edge1" class="edge"><title>Node0&#45;&gt;Node1</title>
<path fill="none" stroke="midnightblue" d="M1108.78,-279.208C993.961,-269.548 715.599,-246.13 591.406,-235.682"/>
<polygon fill="midnightblue" stroke="midnightblue" points="591.563,-232.183 581.304,-234.832 590.976,-239.158 591.563,-232.183"/>
</g>
<!-- Node14 -->
<g id="node15" class="node"><title>Node14</title>
<polygon fill="none" stroke="#bfbfbf" points="1004.23,-0.5 1004.23,-18.5 1091.38,-18.5 1091.38,-0.5 1004.23,-0.5"/>
<text text-anchor="middle" x="1047.81" y="-6.5" font-family="Helvetica,sans-Serif" font-size="10.00">Box2D/Box2D.h</text>
</g>
<!-- Node0&#45;&gt;Node14 -->
<g id="edge47" class="edge"><title>Node0&#45;&gt;Node14</title>
<path fill="none" stroke="midnightblue" d="M1152.27,-275.225C1144.87,-266.702 1133.7,-252.759 1126.81,-239 1113.61,-212.662 1107.81,-204.958 1107.81,-175.5 1107.81,-175.5 1107.81,-175.5 1107.81,-118.5 1107.81,-81.7146 1080.88,-45.746 1063.1,-26.0089"/>
<polygon fill="midnightblue" stroke="midnightblue" points="1065.54,-23.4927 1056.15,-18.5889 1060.43,-28.2791 1065.54,-23.4927"/>
</g>
<!-- Node15 -->
<g id="node16" class="node"><title>Node15</title>
<g id="a_node16"><a xlink:href="_physics_manager_8hpp.html" target="_top" xlink:title="PhysicsManager.hpp">
<polygon fill="none" stroke="black" points="481.388,-110.5 481.388,-128.5 590.225,-128.5 590.225,-110.5 481.388,-110.5"/>
<text text-anchor="middle" x="535.806" y="-116.5" font-family="Helvetica,sans-Serif" font-size="10.00">PhysicsManager.hpp</text>
</a>
</g>
</g>
<!-- Node0&#45;&gt;Node15 -->
<g id="edge46" class="edge"><title>Node0&#45;&gt;Node15</title>
<path fill="none" stroke="midnightblue" d="M1108.98,-284.126C956.912,-285.472 513.27,-285.358 469.806,-239 459.331,-227.827 459.046,-196.99 477.806,-165 485.481,-151.914 498.633,-141.346 510.475,-133.799"/>
<polygon fill="midnightblue" stroke="midnightblue" points="512.362,-136.748 519.163,-128.624 508.78,-130.734 512.362,-136.748"/>
</g>
<!-- Node17 -->
<g id="node18" class="node"><title>Node17</title>
<polygon fill="none" stroke="#bfbfbf" points="931.634,-0.5 931.634,-18.5 985.979,-18.5 985.979,-0.5 931.634,-0.5"/>
<text text-anchor="middle" x="958.806" y="-6.5" font-family="Helvetica,sans-Serif" font-size="10.00">iostream</text>
</g>
<!-- Node0&#45;&gt;Node17 -->
<g id="edge42" class="edge"><title>Node0&#45;&gt;Node17</title>
<path fill="none" stroke="midnightblue" d="M1145.74,-275.412C1120.43,-259.681 1069.81,-222.361 1069.81,-175.5 1069.81,-175.5 1069.81,-175.5 1069.81,-118.5 1069.81,-72.4933 1020.22,-39.7386 987.328,-23.0744"/>
<polygon fill="midnightblue" stroke="midnightblue" points="988.665,-19.8328 978.141,-18.6126 985.607,-26.1296 988.665,-19.8328"/>
</g>
<!-- Node25 -->
<g id="node26" class="node"><title>Node25</title>
<polygon fill="none" stroke="#bfbfbf" points="1136.15,-220.5 1136.15,-238.5 1289.46,-238.5 1289.46,-220.5 1136.15,-220.5"/>
<text text-anchor="middle" x="1212.81" y="-226.5" font-family="Helvetica,sans-Serif" font-size="10.00">SRE/SimpleRenderEngine.hpp</text>
</g>
<!-- Node0&#45;&gt;Node25 -->
<g id="edge41" class="edge"><title>Node0&#45;&gt;Node25</title>
<path fill="none" stroke="midnightblue" d="M1168.09,-275.219C1175.91,-267.394 1187.84,-255.463 1197.41,-245.892"/>
<polygon fill="midnightblue" stroke="midnightblue" points="1200.16,-248.096 1204.76,-238.55 1195.21,-243.146 1200.16,-248.096"/>
</g>
<!-- Node26 -->
<g id="node27" class="node"><title>Node26</title>
<polygon fill="none" stroke="#bfbfbf" points="1307.86,-220.5 1307.86,-238.5 1347.75,-238.5 1347.75,-220.5 1307.86,-220.5"/>
<text text-anchor="middle" x="1327.81" y="-226.5" font-family="Helvetica,sans-Serif" font-size="10.00">ctime</text>
</g>
<!-- Node0&#45;&gt;Node26 -->
<g id="edge43" class="edge"><title>Node0&#45;&gt;Node26</title>
<path fill="none" stroke="midnightblue" d="M1185.32,-275.45C1215.64,-265.887 1266.13,-249.958 1298.15,-239.855"/>
<polygon fill="midnightblue" stroke="midnightblue" points="1299.37,-243.142 1307.85,-236.795 1297.26,-236.466 1299.37,-243.142"/>
</g>
<!-- Node27 -->
<g id="node28" class="node"><title>Node27</title>
<polygon fill="none" stroke="#bfbfbf" points="1365.85,-220.5 1365.85,-238.5 1415.76,-238.5 1415.76,-220.5 1365.85,-220.5"/>
<text text-anchor="middle" x="1390.81" y="-226.5" font-family="Helvetica,sans-Serif" font-size="10.00">random</text>
</g>
<!-- Node0&#45;&gt;Node27 -->
<g id="edge44" class="edge"><title>Node0&#45;&gt;Node27</title>
<path fill="none" stroke="midnightblue" d="M1196.54,-275.466C1234.13,-267.183 1294.51,-253.724 1355.74,-239.214"/>
<polygon fill="midnightblue" stroke="midnightblue" points="1356.65,-242.595 1365.57,-236.877 1355.03,-235.785 1356.65,-242.595"/>
</g>
<!-- Node28 -->
<g id="node29" class="node"><title>Node28</title>
<polygon fill="none" stroke="#bfbfbf" points="1433.89,-220.5 1433.89,-238.5 1567.72,-238.5 1567.72,-220.5 1433.89,-220.5"/>
<text text-anchor="middle" x="1500.81" y="-226.5" font-family="Helvetica,sans-Serif" font-size="10.00">Box2D/Common/b2Math.h</text>
</g>
<!-- Node0&#45;&gt;Node28 -->
<g id="edge45" class="edge"><title>Node0&#45;&gt;Node28</title>
<path fill="none" stroke="midnightblue" d="M1210.86,-275.565C1271.79,-266.095 1373.63,-250.267 1438.97,-240.112"/>
<polygon fill="midnightblue" stroke="midnightblue" points="1439.78,-243.527 1449.13,-238.532 1438.71,-236.61 1439.78,-243.527"/>
</g>
<!-- Node2 -->
<g id="node3" class="node"><title>Node2</title>
<polygon fill="none" stroke="#bfbfbf" points="218.075,-0.5 218.075,-18.5 263.538,-18.5 263.538,-0.5 218.075,-0.5"/>
<text text-anchor="middle" x="240.806" y="-6.5" font-family="Helvetica,sans-Serif" font-size="10.00">stdio.h</text>
</g>
<!-- Node1&#45;&gt;Node2 -->
<g id="edge2" class="edge"><title>Node1&#45;&gt;Node2</title>
<path fill="none" stroke="midnightblue" d="M518.063,-220.27C506.815,-211.994 489.824,-198.423 477.806,-184 453.456,-154.777 462.4,-136.182 434.806,-110 387.116,-64.7497 314.842,-35.1008 273.292,-20.7119"/>
<polygon fill="midnightblue" stroke="midnightblue" points="274.266,-17.3467 263.672,-17.4637 272.026,-23.9789 274.266,-17.3467"/>
</g>
<!-- Node3 -->
<g id="node4" class="node"><title>Node3</title>
<polygon fill="none" stroke="#bfbfbf" points="17.5059,-110.5 17.5059,-128.5 134.106,-128.5 134.106,-110.5 17.5059,-110.5"/>
<text text-anchor="middle" x="75.8062" y="-116.5" font-family="Helvetica,sans-Serif" font-size="10.00">SRE/ParticleMesh.hpp</text>
</g>
<!-- Node1&#45;&gt;Node3 -->
<g id="edge3" class="edge"><title>Node1&#45;&gt;Node3</title>
<path fill="none" stroke="midnightblue" d="M478.656,-221.803C426.474,-214.467 343.372,-201.391 272.806,-184 213.234,-169.318 145.493,-145.974 106.98,-132.053"/>
<polygon fill="midnightblue" stroke="midnightblue" points="107.977,-128.691 97.3826,-128.559 105.582,-135.269 107.977,-128.691"/>
</g>
<!-- Node4 -->
<g id="node5" class="node"><title>Node4</title>
<polygon fill="none" stroke="#bfbfbf" points="645.572,-110.5 645.572,-128.5 716.04,-128.5 716.04,-110.5 645.572,-110.5"/>
<text text-anchor="middle" x="680.806" y="-116.5" font-family="Helvetica,sans-Serif" font-size="10.00">glm/glm.hpp</text>
</g>
<!-- Node1&#45;&gt;Node4 -->
<g id="edge4" class="edge"><title>Node1&#45;&gt;Node4</title>
<path fill="none" stroke="midnightblue" d="M529.955,-220.306C530.643,-206.939 533.934,-180.393 548.806,-165 561.065,-152.312 602.229,-139.631 635.367,-131.072"/>
<polygon fill="midnightblue" stroke="midnightblue" points="636.513,-134.392 645.353,-128.552 634.8,-127.605 636.513,-134.392"/>
</g>
<!-- Node5 -->
<g id="node6" class="node"><title>Node5</title>
<g id="a_node6"><a xlink:href="_particle_8hpp.html" target="_top" xlink:title="Particle.hpp">
<polygon fill="none" stroke="black" points="281.402,-165.5 281.402,-183.5 350.21,-183.5 350.21,-165.5 281.402,-165.5"/>
<text text-anchor="middle" x="315.806" y="-171.5" font-family="Helvetica,sans-Serif" font-size="10.00">Particle.hpp</text>
</a>
</g>
</g>
<!-- Node1&#45;&gt;Node5 -->
<g id="edge5" class="edge"><title>Node1&#45;&gt;Node5</title>
<path fill="none" stroke="midnightblue" d="M497.304,-220.45C460.116,-211.24 399.095,-196.128 358.199,-185.999"/>
<polygon fill="midnightblue" stroke="midnightblue" points="358.811,-182.545 348.263,-183.538 357.128,-189.34 358.811,-182.545"/>
</g>
<!-- Node6 -->
<g id="node7" class="node"><title>Node6</title>
<polygon fill="none" stroke="#bfbfbf" points="382.19,-110.5 382.19,-128.5 425.422,-128.5 425.422,-110.5 382.19,-110.5"/>
<text text-anchor="middle" x="403.806" y="-116.5" font-family="Helvetica,sans-Serif" font-size="10.00">vector</text>
</g>
<!-- Node1&#45;&gt;Node6 -->
<g id="edge12" class="edge"><title>Node1&#45;&gt;Node6</title>
<path fill="none" stroke="midnightblue" d="M504.079,-220.447C484.61,-213.33 458.176,-201.359 439.806,-184 426.154,-171.099 416.243,-151.851 410.317,-137.929"/>
<polygon fill="midnightblue" stroke="midnightblue" points="413.519,-136.51 406.566,-128.516 407.016,-139.101 413.519,-136.51"/>
</g>
<!-- Node7 -->
<g id="node8" class="node"><title>Node7</title>
<polygon fill="none" stroke="#bfbfbf" points="109.555,-0.5 109.555,-18.5 200.057,-18.5 200.057,-0.5 109.555,-0.5"/>
<text text-anchor="middle" x="154.806" y="-6.5" font-family="Helvetica,sans-Serif" font-size="10.00">SRE/Shader.hpp</text>
</g>
<!-- Node1&#45;&gt;Node7 -->
<g id="edge13" class="edge"><title>Node1&#45;&gt;Node7</title>
<path fill="none" stroke="midnightblue" d="M478.427,-227.02C358.319,-222.33 65.0793,-203.341 8.8062,-129 -27.5491,-80.9722 64.3499,-40.617 118.508,-21.8246"/>
<polygon fill="midnightblue" stroke="midnightblue" points="119.788,-25.0864 128.141,-18.5696 117.547,-18.4548 119.788,-25.0864"/>
</g>
<!-- Node9 -->
<g id="node10" class="node"><title>Node9</title>
<g id="a_node10"><a xlink:href="_scriptable_8hpp.html" target="_top" xlink:title="Scriptable.hpp">
<polygon fill="none" stroke="black" points="923.841,-165.5 923.841,-183.5 1003.77,-183.5 1003.77,-165.5 923.841,-165.5"/>
<text text-anchor="middle" x="963.806" y="-171.5" font-family="Helvetica,sans-Serif" font-size="10.00">Scriptable.hpp</text>
</a>
</g>
</g>
<!-- Node1&#45;&gt;Node9 -->
<g id="edge14" class="edge"><title>Node1&#45;&gt;Node9</title>
<path fill="none" stroke="midnightblue" d="M580.992,-223.516C652.92,-216.307 788.227,-201.994 913.565,-184.105"/>
<polygon fill="midnightblue" stroke="midnightblue" points="914.324,-187.532 923.724,-182.643 913.328,-180.603 914.324,-187.532"/>
</g>
<!-- Node12 -->
<g id="node13" class="node"><title>Node12</title>
<polygon fill="none" stroke="#bfbfbf" points="822.008,-0.5 822.008,-18.5 913.604,-18.5 913.604,-0.5 822.008,-0.5"/>
<text text-anchor="middle" x="867.806" y="-6.5" font-family="Helvetica,sans-Serif" font-size="10.00">SRE/Texture.hpp</text>
</g>
<!-- Node1&#45;&gt;Node12 -->
<g id="edge17" class="edge"><title>Node1&#45;&gt;Node12</title>
<path fill="none" stroke="midnightblue" d="M527.968,-220.313C525.555,-207.419 522.81,-182.094 533.806,-165 537.316,-159.544 630.961,-112.813 636.806,-110 707.953,-75.7557 793.843,-40.2452 838.151,-22.3424"/>
<polygon fill="midnightblue" stroke="midnightblue" points="839.498,-25.5732 847.467,-18.5908 836.883,-19.08 839.498,-25.5732"/>
</g>
<!-- Node13 -->
<g id="node14" class="node"><title>Node13</title>
<g id="a_node14"><a xlink:href="_rigidbody_8hpp.html" target="_top" xlink:title="Rigidbody.hpp">
<polygon fill="none" stroke="black" points="558.207,-165.5 558.207,-183.5 637.405,-183.5 637.405,-165.5 558.207,-165.5"/>
<text text-anchor="middle" x="597.806" y="-171.5" font-family="Helvetica,sans-Serif" font-size="10.00">Rigidbody.hpp</text>
</a>
</g>
</g>
<!-- Node1&#45;&gt;Node13 -->
<g id="edge18" class="edge"><title>Node1&#45;&gt;Node13</title>
<path fill="none" stroke="midnightblue" d="M540.134,-220.45C550.518,-212.357 566.752,-199.704 579.354,-189.882"/>
<polygon fill="midnightblue" stroke="midnightblue" points="581.646,-192.533 587.381,-183.625 577.342,-187.012 581.646,-192.533"/>
</g>
<!-- Node1&#45;&gt;Node14 -->
<g id="edge38" class="edge"><title>Node1&#45;&gt;Node14</title>
<path fill="none" stroke="midnightblue" d="M580.989,-227.188C698.734,-223.695 981.168,-212.416 1012.81,-184 1057.36,-143.98 1054.36,-64.3279 1050.39,-28.5898"/>
<polygon fill="midnightblue" stroke="midnightblue" points="1053.86,-28.1148 1049.13,-18.6354 1046.91,-28.9967 1053.86,-28.1148"/>
</g>
<!-- Node23 -->
<g id="node24" class="node"><title>Node23</title>
<polygon fill="none" stroke="#bfbfbf" points="655.617,-165.5 655.617,-183.5 759.996,-183.5 759.996,-165.5 655.617,-165.5"/>
<text text-anchor="middle" x="707.806" y="-171.5" font-family="Helvetica,sans-Serif" font-size="10.00">glm/gtc/random.hpp</text>
</g>
<!-- Node1&#45;&gt;Node23 -->
<g id="edge39" class="edge"><title>Node1&#45;&gt;Node23</title>
<path fill="none" stroke="midnightblue" d="M556.841,-220.45C587.248,-211.396 636.814,-196.638 670.801,-186.519"/>
<polygon fill="midnightblue" stroke="midnightblue" points="672.224,-189.747 680.81,-183.538 670.227,-183.038 672.224,-189.747"/>
</g>
<!-- Node24 -->
<g id="node25" class="node"><title>Node24</title>
<polygon fill="none" stroke="#bfbfbf" points="777.937,-165.5 777.937,-183.5 905.675,-183.5 905.675,-165.5 777.937,-165.5"/>
<text text-anchor="middle" x="841.806" y="-171.5" font-family="Helvetica,sans-Serif" font-size="10.00">glm/gtx/euler_angles.hpp</text>
</g>
<!-- Node1&#45;&gt;Node24 -->
<g id="edge40" class="edge"><title>Node1&#45;&gt;Node24</title>
<path fill="none" stroke="midnightblue" d="M577.192,-220.45C632.788,-211.006 724.922,-195.355 784.489,-185.237"/>
<polygon fill="midnightblue" stroke="midnightblue" points="785.214,-188.664 794.486,-183.538 784.041,-181.763 785.214,-188.664"/>
</g>
<!-- Node5&#45;&gt;Node2 -->
<g id="edge6" class="edge"><title>Node5&#45;&gt;Node2</title>
<path fill="none" stroke="midnightblue" d="M321.859,-165.122C329.957,-152.821 342.46,-129.247 334.806,-110 320.077,-72.9608 284.295,-41.743 261.371,-24.6192"/>
<polygon fill="midnightblue" stroke="midnightblue" points="263.155,-21.5899 253.002,-18.5643 259.052,-27.2614 263.155,-21.5899"/>
</g>
<!-- Node5&#45;&gt;Node3 -->
<g id="edge7" class="edge"><title>Node5&#45;&gt;Node3</title>
<path fill="none" stroke="midnightblue" d="M281.164,-165.85C239.32,-156.609 168.766,-141.029 122.238,-130.754"/>
<polygon fill="midnightblue" stroke="midnightblue" points="122.924,-127.321 112.405,-128.582 121.415,-134.156 122.924,-127.321"/>
</g>
<!-- Node5&#45;&gt;Node4 -->
<g id="edge8" class="edge"><title>Node5&#45;&gt;Node4</title>
<path fill="none" stroke="midnightblue" d="M350.474,-168.466C416.841,-158.829 561.8,-137.78 635.637,-127.059"/>
<polygon fill="midnightblue" stroke="midnightblue" points="636.175,-130.518 645.568,-125.617 635.169,-123.59 636.175,-130.518"/>
</g>
<!-- Node5&#45;&gt;Node6 -->
<g id="edge9" class="edge"><title>Node5&#45;&gt;Node6</title>
<path fill="none" stroke="midnightblue" d="M329.172,-165.45C342.998,-157.123 364.836,-143.97 381.326,-134.039"/>
<polygon fill="midnightblue" stroke="midnightblue" points="383.555,-136.783 390.315,-128.625 379.943,-130.786 383.555,-136.783"/>
</g>
<!-- Node5&#45;&gt;Node7 -->
<g id="edge10" class="edge"><title>Node5&#45;&gt;Node7</title>
<path fill="none" stroke="midnightblue" d="M281.285,-166.21C245.955,-158.06 194.364,-144.023 180.806,-129 155.598,-101.067 152.91,-54.4153 153.588,-28.7709"/>
<polygon fill="midnightblue" stroke="midnightblue" points="157.092,-28.7631 154.068,-18.6093 150.1,-28.4332 157.092,-28.7631"/>
</g>
<!-- Node8 -->
<g id="node9" class="node"><title>Node8</title>
<polygon fill="none" stroke="#bfbfbf" points="189.313,-110.5 189.313,-128.5 326.299,-128.5 326.299,-110.5 189.313,-110.5"/>
<text text-anchor="middle" x="257.806" y="-116.5" font-family="Helvetica,sans-Serif" font-size="10.00">Box2D/Dynamics/b2Body.h</text>
</g>
<!-- Node5&#45;&gt;Node8 -->
<g id="edge11" class="edge"><title>Node5&#45;&gt;Node8</title>
<path fill="none" stroke="midnightblue" d="M306.744,-165.219C298.01,-157.238 284.6,-144.984 274.025,-135.321"/>
<polygon fill="midnightblue" stroke="midnightblue" points="276.358,-132.712 266.615,-128.55 271.636,-137.879 276.358,-132.712"/>
</g>
<!-- Node10 -->
<g id="node11" class="node"><title>Node10</title>
<g id="a_node11"><a xlink:href="_component_8hpp.html" target="_top" xlink:title="Component.hpp">
<polygon fill="none" stroke="black" points="880.225,-110.5 880.225,-128.5 967.387,-128.5 967.387,-110.5 880.225,-110.5"/>
<text text-anchor="middle" x="923.806" y="-116.5" font-family="Helvetica,sans-Serif" font-size="10.00">Component.hpp</text>
</a>
</g>
</g>
<!-- Node9&#45;&gt;Node10 -->
<g id="edge15" class="edge"><title>Node9&#45;&gt;Node10</title>
<path fill="none" stroke="midnightblue" d="M957.556,-165.219C951.828,-157.629 943.184,-146.175 936.078,-136.76"/>
<polygon fill="midnightblue" stroke="midnightblue" points="938.699,-134.423 929.881,-128.55 933.112,-138.64 938.699,-134.423"/>
</g>
<!-- Node11 -->
<g id="node12" class="node"><title>Node11</title>
<polygon fill="none" stroke="#bfbfbf" points="903.58,-55.5 903.58,-73.5 944.033,-73.5 944.033,-55.5 903.58,-55.5"/>
<text text-anchor="middle" x="923.806" y="-61.5" font-family="Helvetica,sans-Serif" font-size="10.00">string</text>
</g>
<!-- Node10&#45;&gt;Node11 -->
<g id="edge16" class="edge"><title>Node10&#45;&gt;Node11</title>
<path fill="none" stroke="midnightblue" d="M923.806,-110.219C923.806,-103.177 923.806,-92.8083 923.806,-83.8277"/>
<polygon fill="midnightblue" stroke="midnightblue" points="927.306,-83.5495 923.806,-73.5496 920.306,-83.5496 927.306,-83.5495"/>
</g>
<!-- Node13&#45;&gt;Node4 -->
<g id="edge37" class="edge"><title>Node13&#45;&gt;Node4</title>
<path fill="none" stroke="midnightblue" d="M610.412,-165.45C623.453,-157.123 644.051,-143.97 659.603,-134.039"/>
<polygon fill="midnightblue" stroke="midnightblue" points="661.537,-136.957 668.082,-128.625 657.77,-131.057 661.537,-136.957"/>
</g>
<!-- Node13&#45;&gt;Node10 -->
<g id="edge19" class="edge"><title>Node13&#45;&gt;Node10</title>
<path fill="none" stroke="midnightblue" d="M637.645,-166.546C640.744,-166.019 643.826,-165.498 646.806,-165 724.369,-152.043 814.274,-137.729 870.103,-128.924"/>
<polygon fill="midnightblue" stroke="midnightblue" points="870.787,-132.36 880.12,-127.346 869.698,-125.445 870.787,-132.36"/>
</g>
<!-- Node13&#45;&gt;Node14 -->
<g id="edge20" class="edge"><title>Node13&#45;&gt;Node14</title>
<path fill="none" stroke="midnightblue" d="M622.349,-165.497C648.073,-156.969 689.572,-142.82 724.806,-129 801.52,-98.9106 817.309,-83.008 894.806,-55 931.737,-41.653 974.755,-29.4253 1005.75,-21.1794"/>
<polygon fill="midnightblue" stroke="midnightblue" points="1007,-24.4706 1015.78,-18.5398 1005.22,-17.7013 1007,-24.4706"/>
</g>
<!-- Node13&#45;&gt;Node15 -->
<g id="edge21" class="edge"><title>Node13&#45;&gt;Node15</title>
<path fill="none" stroke="midnightblue" d="M588.39,-165.45C579.013,-157.434 564.405,-144.947 552.963,-135.166"/>
<polygon fill="midnightblue" stroke="midnightblue" points="555.187,-132.463 545.311,-128.625 550.638,-137.784 555.187,-132.463"/>
</g>
<!-- Node15&#45;&gt;Node2 -->
<g id="edge22" class="edge"><title>Node15&#45;&gt;Node2</title>
<path fill="none" stroke="midnightblue" d="M521.151,-110.347C491.96,-94.1474 428.44,-59.1065 417.806,-55 358.767,-32.2012 338.971,-35.1696 273.818,-19.176"/>
<polygon fill="midnightblue" stroke="midnightblue" points="274.418,-15.7179 263.867,-16.6733 272.711,-22.5065 274.418,-15.7179"/>
</g>
<!-- Node15&#45;&gt;Node14 -->
<g id="edge25" class="edge"><title>Node15&#45;&gt;Node14</title>
<path fill="none" stroke="midnightblue" d="M566.071,-110.437C599.01,-101.627 653.21,-87.0279 699.806,-74 729.203,-65.7808 736.005,-61.6052 765.806,-55 863.25,-33.4026 891.315,-35.0284 993.964,-19.1113"/>
<polygon fill="midnightblue" stroke="midnightblue" points="994.799,-22.5232 1004.14,-17.5148 993.713,-15.6078 994.799,-22.5232"/>
</g>
<!-- Node16 -->
<g id="node17" class="node"><title>Node16</title>
<polygon fill="none" stroke="#bfbfbf" points="281.91,-0.5 281.91,-18.5 325.703,-18.5 325.703,-0.5 281.91,-0.5"/>
<text text-anchor="middle" x="303.806" y="-6.5" font-family="Helvetica,sans-Serif" font-size="10.00">SDL.h</text>
</g>
<!-- Node15&#45;&gt;Node16 -->
<g id="edge23" class="edge"><title>Node15&#45;&gt;Node16</title>
<path fill="none" stroke="midnightblue" d="M527.702,-110.255C514.054,-96.8161 485.094,-70.1679 455.806,-55 450.353,-52.1758 378.467,-31.6163 335.539,-19.4541"/>
<polygon fill="midnightblue" stroke="midnightblue" points="336.397,-16.0595 325.822,-16.7043 334.491,-22.795 336.397,-16.0595"/>
</g>
<!-- Node15&#45;&gt;Node17 -->
<g id="edge24" class="edge"><title>Node15&#45;&gt;Node17</title>
<path fill="none" stroke="midnightblue" d="M555.182,-110.456C587.808,-97.1878 656.014,-70.6292 715.806,-55 803.064,-32.1918 829.528,-37.3382 921.329,-19.1838"/>
<polygon fill="midnightblue" stroke="midnightblue" points="922.216,-22.5754 931.326,-17.1665 920.831,-15.7137 922.216,-22.5754"/>
</g>
<!-- Node18 -->
<g id="node19" class="node"><title>Node18</title>
<g id="a_node19"><a xlink:href="_debug_draw_8hpp.html" target="_top" xlink:title="DebugDraw.hpp">
<polygon fill="none" stroke="black" points="507.947,-55.5 507.947,-73.5 595.666,-73.5 595.666,-55.5 507.947,-55.5"/>
<text text-anchor="middle" x="551.806" y="-61.5" font-family="Helvetica,sans-Serif" font-size="10.00">DebugDraw.hpp</text>
</a>
</g>
</g>
<!-- Node15&#45;&gt;Node18 -->
<g id="edge26" class="edge"><title>Node15&#45;&gt;Node18</title>
<path fill="none" stroke="midnightblue" d="M538.306,-110.219C540.479,-103.02 543.702,-92.3458 546.453,-83.2311"/>
<polygon fill="midnightblue" stroke="midnightblue" points="549.837,-84.1344 549.376,-73.5496 543.135,-82.1113 549.837,-84.1344"/>
</g>
<!-- Node18&#45;&gt;Node2 -->
<g id="edge27" class="edge"><title>Node18&#45;&gt;Node2</title>
<path fill="none" stroke="midnightblue" d="M507.578,-57.8576C454.341,-50.7541 362.071,-37.4511 273.728,-19.0055"/>
<polygon fill="midnightblue" stroke="midnightblue" points="274.319,-15.5532 263.811,-16.9095 272.871,-22.4019 274.319,-15.5532"/>
</g>
<!-- Node18&#45;&gt;Node7 -->
<g id="edge28" class="edge"><title>Node18&#45;&gt;Node7</title>
<path fill="none" stroke="midnightblue" d="M507.897,-58.1899C444.519,-50.4403 323.453,-35.3199 210.38,-19.194"/>
<polygon fill="midnightblue" stroke="midnightblue" points="210.561,-15.6843 200.166,-17.7313 209.569,-22.6136 210.561,-15.6843"/>
</g>
<!-- Node18&#45;&gt;Node12 -->
<g id="edge32" class="edge"><title>Node18&#45;&gt;Node12</title>
<path fill="none" stroke="midnightblue" d="M595.745,-56.1306C652.211,-46.66 750.294,-30.2093 811.985,-19.8624"/>
<polygon fill="midnightblue" stroke="midnightblue" points="812.653,-23.2994 821.936,-18.1934 811.495,-16.3958 812.653,-23.2994"/>
</g>
<!-- Node18&#45;&gt;Node14 -->
<g id="edge36" class="edge"><title>Node18&#45;&gt;Node14</title>
<path fill="none" stroke="midnightblue" d="M595.919,-59.9356C673.977,-53.4395 841.762,-38.6302 994.149,-19.0076"/>
<polygon fill="midnightblue" stroke="midnightblue" points="994.697,-22.466 1004.16,-17.7082 993.796,-15.5242 994.697,-22.466"/>
</g>
<!-- Node18&#45;&gt;Node16 -->
<g id="edge29" class="edge"><title>Node18&#45;&gt;Node16</title>
<path fill="none" stroke="midnightblue" d="M508.392,-55.4628C466.599,-47.5327 401.403,-34.6586 335.868,-19.1272"/>
<polygon fill="midnightblue" stroke="midnightblue" points="336.316,-15.6357 325.776,-16.7146 334.688,-22.4438 336.316,-15.6357"/>
</g>
<!-- Node18&#45;&gt;Node17 -->
<g id="edge33" class="edge"><title>Node18&#45;&gt;Node17</title>
<path fill="none" stroke="midnightblue" d="M595.733,-59.8438C663.581,-53.8445 798.104,-40.552 921.367,-19.0798"/>
<polygon fill="midnightblue" stroke="midnightblue" points="922.115,-22.5019 931.355,-17.3173 920.899,-15.6084 922.115,-22.5019"/>
</g>
<!-- Node19 -->
<g id="node20" class="node"><title>Node19</title>
<polygon fill="none" stroke="#bfbfbf" points="344.063,-0.5 344.063,-18.5 489.55,-18.5 489.55,-0.5 344.063,-0.5"/>
<text text-anchor="middle" x="416.806" y="-6.5" font-family="Helvetica,sans-Serif" font-size="10.00">glm/gtc/matrix_transform.hpp</text>
</g>
<!-- Node18&#45;&gt;Node19 -->
<g id="edge30" class="edge"><title>Node18&#45;&gt;Node19</title>
<path fill="none" stroke="midnightblue" d="M531.303,-55.4504C508.902,-46.6562 472.793,-32.4802 447.119,-22.4006"/>
<polygon fill="midnightblue" stroke="midnightblue" points="448.09,-19.0218 437.503,-18.6253 445.532,-25.5377 448.09,-19.0218"/>
</g>
<!-- Node20 -->
<g id="node21" class="node"><title>Node20</title>
<polygon fill="none" stroke="#bfbfbf" points="507.671,-0.5 507.671,-18.5 595.941,-18.5 595.941,-0.5 507.671,-0.5"/>
<text text-anchor="middle" x="551.806" y="-6.5" font-family="Helvetica,sans-Serif" font-size="10.00">SRE/Debug.hpp</text>
</g>
<!-- Node18&#45;&gt;Node20 -->
<g id="edge31" class="edge"><title>Node18&#45;&gt;Node20</title>
<path fill="none" stroke="midnightblue" d="M551.806,-55.2188C551.806,-48.1769 551.806,-37.8083 551.806,-28.8277"/>
<polygon fill="midnightblue" stroke="midnightblue" points="555.306,-28.5495 551.806,-18.5496 548.306,-28.5496 555.306,-28.5495"/>
</g>
<!-- Node21 -->
<g id="node22" class="node"><title>Node21</title>
<polygon fill="none" stroke="#bfbfbf" points="614.385,-0.5 614.385,-18.5 743.227,-18.5 743.227,-0.5 614.385,-0.5"/>
<text text-anchor="middle" x="678.806" y="-6.5" font-family="Helvetica,sans-Serif" font-size="10.00">glm/gtx/closest_point.hpp</text>
</g>
<!-- Node18&#45;&gt;Node21 -->
<g id="edge34" class="edge"><title>Node18&#45;&gt;Node21</title>
<path fill="none" stroke="midnightblue" d="M571.095,-55.4504C592.075,-46.6951 625.836,-32.6055 649.969,-22.5346"/>
<polygon fill="midnightblue" stroke="midnightblue" points="651.455,-25.7067 659.336,-18.6253 648.76,-19.2467 651.455,-25.7067"/>
</g>
<!-- Node22 -->
<g id="node23" class="node"><title>Node22</title>
<polygon fill="none" stroke="#bfbfbf" points="761.19,-0.5 761.19,-18.5 804.422,-18.5 804.422,-0.5 761.19,-0.5"/>
<text text-anchor="middle" x="782.806" y="-6.5" font-family="Helvetica,sans-Serif" font-size="10.00">time.h</text>
</g>
<!-- Node18&#45;&gt;Node22 -->
<g id="edge35" class="edge"><title>Node18&#45;&gt;Node22</title>
<path fill="none" stroke="midnightblue" d="M590.652,-55.4424C628.995,-47.3591 689.512,-34.2546 751.246,-19.039"/>
<polygon fill="midnightblue" stroke="midnightblue" points="752.298,-22.3842 761.161,-16.5793 750.613,-15.5901 752.298,-22.3842"/>
</g>
</g>
</svg>
