<?xml version="1.0" encoding="UTF-8" standalone="no"?>
<!DOCTYPE svg PUBLIC "-//W3C//DTD SVG 1.1//EN"
 "http://www.w3.org/Graphics/SVG/1.1/DTD/svg11.dtd">
<!-- Generated by graphviz version 2.38.0 (20140413.2041)
 -->
<!-- Title: ParticleSystem.hpp Pages: 1 -->
<svg width="323pt" height="82pt"
 viewBox="0.00 0.00 322.81 82.00" xmlns="http://www.w3.org/2000/svg" xmlns:xlink="http://www.w3.org/1999/xlink">
<g id="graph0" class="graph" transform="scale(1 1) rotate(0) translate(4 78)">
<title>ParticleSystem.hpp</title>
<!-- Node24 -->
<g id="node1" class="node"><title>Node24</title>
<polygon fill="#bfbfbf" stroke="black" points="88.9458,-55.5 88.9458,-73.5 191.093,-73.5 191.093,-55.5 88.9458,-55.5"/>
<text text-anchor="middle" x="140.02" y="-61.5" font-family="Helvetica,sans-Serif" font-size="10.00">ParticleSystem.hpp</text>
</g>
<!-- Node25 -->
<g id="node2" class="node"><title>Node25</title>
<g id="a_node2"><a xlink:href="_engine_8cpp.html" target="_top" xlink:title="Engine.cpp">
<polygon fill="none" stroke="black" points="0,-0.5 0,-18.5 66.0391,-18.5 66.0391,-0.5 0,-0.5"/>
<text text-anchor="middle" x="33.0195" y="-6.5" font-family="Helvetica,sans-Serif" font-size="10.00">Engine.cpp</text>
</a>
</g>
</g>
<!-- Node24&#45;&gt;Node25 -->
<g id="edge1" class="edge"><title>Node24&#45;&gt;Node25</title>
<path fill="none" stroke="midnightblue" d="M114.534,-50.8765C94.3544,-40.8808 66.767,-27.216 49.4235,-18.6253"/>
<polygon fill="midnightblue" stroke="midnightblue" points="113.254,-54.1481 123.769,-55.4504 116.361,-47.8754 113.254,-54.1481"/>
</g>
<!-- Node26 -->
<g id="node3" class="node"><title>Node26</title>
<g id="a_node3"><a xlink:href="_particle_controller_8cpp.html" target="_top" xlink:title="ParticleController.cpp">
<polygon fill="none" stroke="black" points="84.4951,-0.5 84.4951,-18.5 195.544,-18.5 195.544,-0.5 84.4951,-0.5"/>
<text text-anchor="middle" x="140.02" y="-6.5" font-family="Helvetica,sans-Serif" font-size="10.00">ParticleController.cpp</text>
</a>
</g>
</g>
<!-- Node24&#45;&gt;Node26 -->
<g id="edge2" class="edge"><title>Node24&#45;&gt;Node26</title>
<path fill="none" stroke="midnightblue" d="M140.02,-45.1746C140.02,-36.0945 140.02,-25.5949 140.02,-18.5496"/>
<polygon fill="midnightblue" stroke="midnightblue" points="136.52,-45.2187 140.02,-55.2188 143.52,-45.2188 136.52,-45.2187"/>
</g>
<!-- Node27 -->
<g id="node4" class="node"><title>Node27</title>
<g id="a_node4"><a xlink:href="_particle_system_8cpp.html" target="_top" xlink:title="ParticleSystem.cpp">
<polygon fill="none" stroke="black" points="213.227,-0.5 213.227,-18.5 314.812,-18.5 314.812,-0.5 213.227,-0.5"/>
<text text-anchor="middle" x="264.02" y="-6.5" font-family="Helvetica,sans-Serif" font-size="10.00">ParticleSystem.cpp</text>
</a>
</g>
</g>
<!-- Node24&#45;&gt;Node27 -->
<g id="edge3" class="edge"><title>Node24&#45;&gt;Node27</title>
<path fill="none" stroke="midnightblue" d="M168.287,-51.4181C191.773,-41.3794 224.545,-27.3722 245.009,-18.6253"/>
<polygon fill="midnightblue" stroke="midnightblue" points="166.672,-48.3018 158.852,-55.4504 169.423,-54.7385 166.672,-48.3018"/>
</g>
</g>
</svg>
