<?xml version="1.0" encoding="UTF-8" standalone="no"?>
<!DOCTYPE svg PUBLIC "-//W3C//DTD SVG 1.1//EN"
 "http://www.w3.org/Graphics/SVG/1.1/DTD/svg11.dtd">
<!-- Generated by graphviz version 2.38.0 (20140413.2041)
 -->
<!-- Title: ParticleController.cpp Pages: 1 -->
<svg width="1290pt" height="302pt"
 viewBox="0.00 0.00 1289.89 302.00" xmlns="http://www.w3.org/2000/svg" xmlns:xlink="http://www.w3.org/1999/xlink">
<g id="graph0" class="graph" transform="scale(1 1) rotate(0) translate(4 298)">
<title>ParticleController.cpp</title>
<!-- Node0 -->
<g id="node1" class="node"><title>Node0</title>
<polygon fill="#bfbfbf" stroke="black" points="492.565,-275.5 492.565,-293.5 603.613,-293.5 603.613,-275.5 492.565,-275.5"/>
<text text-anchor="middle" x="548.089" y="-281.5" font-family="Helvetica,sans-Serif" font-size="10.00">ParticleController.cpp</text>
</g>
<!-- Node1 -->
<g id="node2" class="node"><title>Node1</title>
<g id="a_node2"><a xlink:href="_particle_controller_8hpp.html" target="_top" xlink:title="ParticleController.hpp">
<polygon fill="none" stroke="black" points="430.284,-220.5 430.284,-238.5 541.894,-238.5 541.894,-220.5 430.284,-220.5"/>
<text text-anchor="middle" x="486.089" y="-226.5" font-family="Helvetica,sans-Serif" font-size="10.00">ParticleController.hpp</text>
</a>
</g>
</g>
<!-- Node0&#45;&gt;Node1 -->
<g id="edge1" class="edge"><title>Node0&#45;&gt;Node1</title>
<path fill="none" stroke="midnightblue" d="M538.673,-275.45C529.295,-267.434 514.687,-254.947 503.246,-245.166"/>
<polygon fill="midnightblue" stroke="midnightblue" points="505.47,-242.463 495.594,-238.625 500.921,-247.784 505.47,-242.463"/>
</g>
<!-- Node6 -->
<g id="node7" class="node"><title>Node6</title>
<g id="a_node7"><a xlink:href="_game_object_8hpp.html" target="_top" xlink:title="GameObject.hpp">
<polygon fill="none" stroke="black" points="148.291,-165.5 148.291,-183.5 239.887,-183.5 239.887,-165.5 148.291,-165.5"/>
<text text-anchor="middle" x="194.089" y="-171.5" font-family="Helvetica,sans-Serif" font-size="10.00">GameObject.hpp</text>
</a>
</g>
</g>
<!-- Node0&#45;&gt;Node6 -->
<g id="edge6" class="edge"><title>Node0&#45;&gt;Node6</title>
<path fill="none" stroke="midnightblue" d="M521.771,-275.471C459.307,-256.414 302.002,-208.423 230.488,-186.605"/>
<polygon fill="midnightblue" stroke="midnightblue" points="231.167,-183.153 220.581,-183.582 229.124,-189.848 231.167,-183.153"/>
</g>
<!-- Node11 -->
<g id="node12" class="node"><title>Node11</title>
<g id="a_node12"><a xlink:href="_transform_8hpp.html" target="_top" xlink:title="Transform.hpp">
<polygon fill="none" stroke="black" points="49.7599,-165.5 49.7599,-183.5 130.418,-183.5 130.418,-165.5 49.7599,-165.5"/>
<text text-anchor="middle" x="90.089" y="-171.5" font-family="Helvetica,sans-Serif" font-size="10.00">Transform.hpp</text>
</a>
</g>
</g>
<!-- Node0&#45;&gt;Node11 -->
<g id="edge13" class="edge"><title>Node0&#45;&gt;Node11</title>
<path fill="none" stroke="midnightblue" d="M510.047,-275.432C469.391,-266.736 403.082,-252.344 346.089,-239 270.173,-221.226 181.994,-199.004 131.448,-186.114"/>
<polygon fill="midnightblue" stroke="midnightblue" points="132.109,-182.671 121.554,-183.588 130.377,-189.453 132.109,-182.671"/>
</g>
<!-- Node12 -->
<g id="node13" class="node"><title>Node12</title>
<polygon fill="none" stroke="#bfbfbf" points="1053.92,-0.5 1053.92,-18.5 1108.26,-18.5 1108.26,-0.5 1053.92,-0.5"/>
<text text-anchor="middle" x="1081.09" y="-6.5" font-family="Helvetica,sans-Serif" font-size="10.00">iostream</text>
</g>
<!-- Node0&#45;&gt;Node12 -->
<g id="edge19" class="edge"><title>Node0&#45;&gt;Node12</title>
<path fill="none" stroke="midnightblue" d="M603.81,-282.808C697.047,-279.367 887.936,-262.404 1025.09,-184 1053.77,-167.605 1062.4,-159.502 1075.09,-129 1088.89,-95.8201 1086.67,-52.832 1083.85,-28.8117"/>
<polygon fill="midnightblue" stroke="midnightblue" points="1087.29,-28.1145 1082.49,-18.6697 1080.35,-29.0468 1087.29,-28.1145"/>
</g>
<!-- Node13 -->
<g id="node14" class="node"><title>Node13</title>
<g id="a_node14"><a xlink:href="_particle_system_8hpp.html" target="_top" xlink:title="ParticleSystem.hpp">
<polygon fill="none" stroke="black" points="560.015,-220.5 560.015,-238.5 662.163,-238.5 662.163,-220.5 560.015,-220.5"/>
<text text-anchor="middle" x="611.089" y="-226.5" font-family="Helvetica,sans-Serif" font-size="10.00">ParticleSystem.hpp</text>
</a>
</g>
</g>
<!-- Node0&#45;&gt;Node13 -->
<g id="edge20" class="edge"><title>Node0&#45;&gt;Node13</title>
<path fill="none" stroke="midnightblue" d="M557.657,-275.45C567.186,-267.434 582.029,-254.947 593.656,-245.166"/>
<polygon fill="midnightblue" stroke="midnightblue" points="596.032,-247.741 601.431,-238.625 591.525,-242.385 596.032,-247.741"/>
</g>
<!-- Node30 -->
<g id="node31" class="node"><title>Node30</title>
<polygon fill="none" stroke="#bfbfbf" points="1121.8,-220.5 1121.8,-238.5 1168.37,-238.5 1168.37,-220.5 1121.8,-220.5"/>
<text text-anchor="middle" x="1145.09" y="-226.5" font-family="Helvetica,sans-Serif" font-size="10.00">math.h</text>
</g>
<!-- Node0&#45;&gt;Node30 -->
<g id="edge58" class="edge"><title>Node0&#45;&gt;Node30</title>
<path fill="none" stroke="midnightblue" d="M603.642,-281.782C704.601,-278.061 924.696,-267.197 1108.09,-239 1109.33,-238.808 1110.6,-238.598 1111.88,-238.373"/>
<polygon fill="midnightblue" stroke="midnightblue" points="1112.58,-241.802 1121.7,-236.417 1111.21,-234.937 1112.58,-241.802"/>
</g>
<!-- Node2 -->
<g id="node3" class="node"><title>Node2</title>
<g id="a_node3"><a xlink:href="_scriptable_8hpp.html" target="_top" xlink:title="Scriptable.hpp">
<polygon fill="none" stroke="black" points="258.124,-165.5 258.124,-183.5 338.054,-183.5 338.054,-165.5 258.124,-165.5"/>
<text text-anchor="middle" x="298.089" y="-171.5" font-family="Helvetica,sans-Serif" font-size="10.00">Scriptable.hpp</text>
</a>
</g>
</g>
<!-- Node1&#45;&gt;Node2 -->
<g id="edge2" class="edge"><title>Node1&#45;&gt;Node2</title>
<path fill="none" stroke="midnightblue" d="M457.536,-220.45C425.143,-211.318 372.166,-196.383 336.249,-186.258"/>
<polygon fill="midnightblue" stroke="midnightblue" points="337.177,-182.883 326.602,-183.538 335.277,-189.62 337.177,-182.883"/>
</g>
<!-- Node5 -->
<g id="node6" class="node"><title>Node5</title>
<polygon fill="none" stroke="#bfbfbf" points="1190.29,-0.5 1190.29,-18.5 1281.89,-18.5 1281.89,-0.5 1190.29,-0.5"/>
<text text-anchor="middle" x="1236.09" y="-6.5" font-family="Helvetica,sans-Serif" font-size="10.00">SRE/Texture.hpp</text>
</g>
<!-- Node1&#45;&gt;Node5 -->
<g id="edge5" class="edge"><title>Node1&#45;&gt;Node5</title>
<path fill="none" stroke="midnightblue" d="M542.13,-220.911C585.934,-214.016 647.933,-202.118 700.089,-184 717.926,-177.804 719.969,-170.31 738.089,-165 882.641,-122.644 934.678,-183.535 1075.09,-129 1136.07,-105.315 1194.54,-52.2615 1221.13,-25.9309"/>
<polygon fill="midnightblue" stroke="midnightblue" points="1223.77,-28.2426 1228.33,-18.6793 1218.8,-23.3115 1223.77,-28.2426"/>
</g>
<!-- Node3 -->
<g id="node4" class="node"><title>Node3</title>
<g id="a_node4"><a xlink:href="_component_8hpp.html" target="_top" xlink:title="Component.hpp">
<polygon fill="none" stroke="black" points="224.508,-110.5 224.508,-128.5 311.67,-128.5 311.67,-110.5 224.508,-110.5"/>
<text text-anchor="middle" x="268.089" y="-116.5" font-family="Helvetica,sans-Serif" font-size="10.00">Component.hpp</text>
</a>
</g>
</g>
<!-- Node2&#45;&gt;Node3 -->
<g id="edge3" class="edge"><title>Node2&#45;&gt;Node3</title>
<path fill="none" stroke="midnightblue" d="M293.402,-165.219C289.194,-157.786 282.889,-146.646 277.624,-137.345"/>
<polygon fill="midnightblue" stroke="midnightblue" points="280.617,-135.528 272.645,-128.55 274.526,-138.976 280.617,-135.528"/>
</g>
<!-- Node4 -->
<g id="node5" class="node"><title>Node4</title>
<polygon fill="none" stroke="#bfbfbf" points="175.862,-55.5 175.862,-73.5 216.316,-73.5 216.316,-55.5 175.862,-55.5"/>
<text text-anchor="middle" x="196.089" y="-61.5" font-family="Helvetica,sans-Serif" font-size="10.00">string</text>
</g>
<!-- Node3&#45;&gt;Node4 -->
<g id="edge4" class="edge"><title>Node3&#45;&gt;Node4</title>
<path fill="none" stroke="midnightblue" d="M257.154,-110.45C246.053,-102.279 228.639,-89.4604 215.243,-79.5996"/>
<polygon fill="midnightblue" stroke="midnightblue" points="217.255,-76.7348 207.127,-73.6253 213.106,-82.3722 217.255,-76.7348"/>
</g>
<!-- Node6&#45;&gt;Node3 -->
<g id="edge11" class="edge"><title>Node6&#45;&gt;Node3</title>
<path fill="none" stroke="midnightblue" d="M205.328,-165.45C216.737,-157.279 234.635,-144.46 248.403,-134.6"/>
<polygon fill="midnightblue" stroke="midnightblue" points="250.652,-137.294 256.744,-128.625 246.576,-131.603 250.652,-137.294"/>
</g>
<!-- Node6&#45;&gt;Node4 -->
<g id="edge9" class="edge"><title>Node6&#45;&gt;Node4</title>
<path fill="none" stroke="midnightblue" d="M194.239,-165.382C194.558,-148.182 195.308,-107.698 195.749,-83.8866"/>
<polygon fill="midnightblue" stroke="midnightblue" points="199.251,-83.7749 195.937,-73.7118 192.252,-83.6452 199.251,-83.7749"/>
</g>
<!-- Node7 -->
<g id="node8" class="node"><title>Node7</title>
<polygon fill="none" stroke="#bfbfbf" points="14.4611,-110.5 14.4611,-128.5 97.717,-128.5 97.717,-110.5 14.4611,-110.5"/>
<text text-anchor="middle" x="56.089" y="-116.5" font-family="Helvetica,sans-Serif" font-size="10.00">SRE/Mesh.hpp</text>
</g>
<!-- Node6&#45;&gt;Node7 -->
<g id="edge7" class="edge"><title>Node6&#45;&gt;Node7</title>
<path fill="none" stroke="midnightblue" d="M173.13,-165.45C150.13,-156.617 112.993,-142.355 86.7277,-132.267"/>
<polygon fill="midnightblue" stroke="midnightblue" points="87.8356,-128.943 77.2455,-128.625 85.3259,-135.478 87.8356,-128.943"/>
</g>
<!-- Node8 -->
<g id="node9" class="node"><title>Node8</title>
<polygon fill="none" stroke="#bfbfbf" points="466.855,-110.5 466.855,-128.5 537.323,-128.5 537.323,-110.5 466.855,-110.5"/>
<text text-anchor="middle" x="502.089" y="-116.5" font-family="Helvetica,sans-Serif" font-size="10.00">glm/glm.hpp</text>
</g>
<!-- Node6&#45;&gt;Node8 -->
<g id="edge8" class="edge"><title>Node6&#45;&gt;Node8</title>
<path fill="none" stroke="midnightblue" d="M240.2,-165.565C298.616,-155.513 398.656,-138.299 456.718,-128.307"/>
<polygon fill="midnightblue" stroke="midnightblue" points="457.443,-131.734 466.705,-126.589 456.256,-124.835 457.443,-131.734"/>
</g>
<!-- Node9 -->
<g id="node10" class="node"><title>Node9</title>
<polygon fill="none" stroke="#bfbfbf" points="329.473,-110.5 329.473,-128.5 372.705,-128.5 372.705,-110.5 329.473,-110.5"/>
<text text-anchor="middle" x="351.089" y="-116.5" font-family="Helvetica,sans-Serif" font-size="10.00">vector</text>
</g>
<!-- Node6&#45;&gt;Node9 -->
<g id="edge10" class="edge"><title>Node6&#45;&gt;Node9</title>
<path fill="none" stroke="midnightblue" d="M217.934,-165.45C245.062,-156.292 289.479,-141.298 319.477,-131.171"/>
<polygon fill="midnightblue" stroke="midnightblue" points="320.697,-134.454 329.052,-127.939 318.458,-127.822 320.697,-134.454"/>
</g>
<!-- Node10 -->
<g id="node11" class="node"><title>Node10</title>
<polygon fill="none" stroke="#bfbfbf" points="116.032,-110.5 116.032,-128.5 168.146,-128.5 168.146,-110.5 116.032,-110.5"/>
<text text-anchor="middle" x="142.089" y="-116.5" font-family="Helvetica,sans-Serif" font-size="10.00">memory</text>
</g>
<!-- Node6&#45;&gt;Node10 -->
<g id="edge12" class="edge"><title>Node6&#45;&gt;Node10</title>
<path fill="none" stroke="midnightblue" d="M185.964,-165.219C178.287,-157.394 166.581,-145.463 157.191,-135.892"/>
<polygon fill="midnightblue" stroke="midnightblue" points="159.488,-133.236 149.987,-128.55 154.492,-138.139 159.488,-133.236"/>
</g>
<!-- Node11&#45;&gt;Node3 -->
<g id="edge14" class="edge"><title>Node11&#45;&gt;Node3</title>
<path fill="none" stroke="midnightblue" d="M117.123,-165.45C147.531,-156.396 197.097,-141.638 231.083,-131.519"/>
<polygon fill="midnightblue" stroke="midnightblue" points="232.507,-134.747 241.092,-128.538 230.509,-128.038 232.507,-134.747"/>
</g>
<!-- Node11&#45;&gt;Node4 -->
<g id="edge17" class="edge"><title>Node11&#45;&gt;Node4</title>
<path fill="none" stroke="midnightblue" d="M62.2775,-165.491C30.5326,-154.95 -14.609,-134.815 5.08903,-110 24.8105,-85.1556 117.007,-72.9027 165.73,-68.0735"/>
<polygon fill="midnightblue" stroke="midnightblue" points="166.082,-71.5559 175.708,-67.1283 165.422,-64.5871 166.082,-71.5559"/>
</g>
<!-- Node11&#45;&gt;Node7 -->
<g id="edge15" class="edge"><title>Node11&#45;&gt;Node7</title>
<path fill="none" stroke="midnightblue" d="M84.7765,-165.219C79.9579,-157.707 72.7112,-146.411 66.707,-137.052"/>
<polygon fill="midnightblue" stroke="midnightblue" points="69.5984,-135.077 61.2529,-128.55 63.7066,-138.856 69.5984,-135.077"/>
</g>
<!-- Node11&#45;&gt;Node8 -->
<g id="edge16" class="edge"><title>Node11&#45;&gt;Node8</title>
<path fill="none" stroke="midnightblue" d="M130.44,-166.336C133.364,-165.868 136.27,-165.417 139.089,-165 253.047,-148.142 387.81,-132.827 456.645,-125.336"/>
<polygon fill="midnightblue" stroke="midnightblue" points="457.149,-128.802 466.713,-124.245 456.395,-121.843 457.149,-128.802"/>
</g>
<!-- Node11&#45;&gt;Node9 -->
<g id="edge18" class="edge"><title>Node11&#45;&gt;Node9</title>
<path fill="none" stroke="midnightblue" d="M130.56,-166.137C182.806,-156.562 271.847,-139.993 319.197,-129.267"/>
<polygon fill="midnightblue" stroke="midnightblue" points="320.246,-132.616 329.191,-126.939 318.657,-125.799 320.246,-132.616"/>
</g>
<!-- Node13&#45;&gt;Node2 -->
<g id="edge33" class="edge"><title>Node13&#45;&gt;Node2</title>
<path fill="none" stroke="midnightblue" d="M563.551,-220.45C505.352,-210.596 407.241,-193.983 347.987,-183.949"/>
<polygon fill="midnightblue" stroke="midnightblue" points="348.552,-180.495 338.108,-182.276 347.384,-187.397 348.552,-180.495"/>
</g>
<!-- Node13&#45;&gt;Node5 -->
<g id="edge34" class="edge"><title>Node13&#45;&gt;Node5</title>
<path fill="none" stroke="midnightblue" d="M662.41,-226.585C763.042,-222.301 982.601,-210.19 1053.09,-184 1132.95,-154.326 1156.91,-140.562 1210.09,-74 1220.78,-60.6216 1227.66,-42.2457 1231.64,-28.703"/>
<polygon fill="midnightblue" stroke="midnightblue" points="1235.12,-29.2446 1234.32,-18.6798 1228.36,-27.4357 1235.12,-29.2446"/>
</g>
<!-- Node13&#45;&gt;Node8 -->
<g id="edge23" class="edge"><title>Node13&#45;&gt;Node8</title>
<path fill="none" stroke="midnightblue" d="M575.921,-220.356C555.523,-213.845 530.996,-202.629 516.089,-184 505.95,-171.329 502.783,-152.866 501.955,-139.111"/>
<polygon fill="midnightblue" stroke="midnightblue" points="505.449,-138.807 501.709,-128.895 498.451,-138.976 505.449,-138.807"/>
</g>
<!-- Node13&#45;&gt;Node9 -->
<g id="edge31" class="edge"><title>Node13&#45;&gt;Node9</title>
<path fill="none" stroke="midnightblue" d="M560.309,-220.469C499.462,-210.507 403.929,-193.66 390.089,-184 374.04,-172.798 363.34,-152.661 357.271,-138.06"/>
<polygon fill="midnightblue" stroke="midnightblue" points="360.5,-136.706 353.661,-128.614 353.962,-139.205 360.5,-136.706"/>
</g>
<!-- Node14 -->
<g id="node15" class="node"><title>Node14</title>
<polygon fill="none" stroke="#bfbfbf" points="1126.36,-0.5 1126.36,-18.5 1171.82,-18.5 1171.82,-0.5 1126.36,-0.5"/>
<text text-anchor="middle" x="1149.09" y="-6.5" font-family="Helvetica,sans-Serif" font-size="10.00">stdio.h</text>
</g>
<!-- Node13&#45;&gt;Node14 -->
<g id="edge21" class="edge"><title>Node13&#45;&gt;Node14</title>
<path fill="none" stroke="midnightblue" d="M662.292,-227.492C758.643,-224.867 962.815,-215.636 1025.09,-184 1090.28,-150.882 1128.69,-65.5956 1142.84,-28.3491"/>
<polygon fill="midnightblue" stroke="midnightblue" points="1146.17,-29.4135 1146.32,-18.8197 1139.6,-27.0105 1146.17,-29.4135"/>
</g>
<!-- Node15 -->
<g id="node16" class="node"><title>Node15</title>
<polygon fill="none" stroke="#bfbfbf" points="949.789,-110.5 949.789,-128.5 1066.39,-128.5 1066.39,-110.5 949.789,-110.5"/>
<text text-anchor="middle" x="1008.09" y="-116.5" font-family="Helvetica,sans-Serif" font-size="10.00">SRE/ParticleMesh.hpp</text>
</g>
<!-- Node13&#45;&gt;Node15 -->
<g id="edge22" class="edge"><title>Node13&#45;&gt;Node15</title>
<path fill="none" stroke="midnightblue" d="M662.234,-226.409C763.8,-221.736 983.162,-208.856 1006.09,-184 1017.06,-172.101 1016.11,-152.974 1013.3,-138.819"/>
<polygon fill="midnightblue" stroke="midnightblue" points="1016.62,-137.646 1010.84,-128.764 1009.82,-139.31 1016.62,-137.646"/>
</g>
<!-- Node16 -->
<g id="node17" class="node"><title>Node16</title>
<g id="a_node17"><a xlink:href="_particle_8hpp.html" target="_top" xlink:title="Particle.hpp">
<polygon fill="none" stroke="black" points="622.685,-165.5 622.685,-183.5 691.493,-183.5 691.493,-165.5 622.685,-165.5"/>
<text text-anchor="middle" x="657.089" y="-171.5" font-family="Helvetica,sans-Serif" font-size="10.00">Particle.hpp</text>
</a>
</g>
</g>
<!-- Node13&#45;&gt;Node16 -->
<g id="edge24" class="edge"><title>Node13&#45;&gt;Node16</title>
<path fill="none" stroke="midnightblue" d="M618.277,-220.219C625,-212.473 635.216,-200.701 643.48,-191.18"/>
<polygon fill="midnightblue" stroke="midnightblue" points="646.191,-193.396 650.103,-183.55 640.905,-188.808 646.191,-193.396"/>
</g>
<!-- Node17 -->
<g id="node18" class="node"><title>Node17</title>
<polygon fill="none" stroke="#bfbfbf" points="299.838,-0.5 299.838,-18.5 390.34,-18.5 390.34,-0.5 299.838,-0.5"/>
<text text-anchor="middle" x="345.089" y="-6.5" font-family="Helvetica,sans-Serif" font-size="10.00">SRE/Shader.hpp</text>
</g>
<!-- Node13&#45;&gt;Node17 -->
<g id="edge32" class="edge"><title>Node13&#45;&gt;Node17</title>
<path fill="none" stroke="midnightblue" d="M564.764,-220.491C537.111,-214.028 502.377,-202.817 476.089,-184 416.289,-141.196 371.631,-63.0429 353.707,-28.1454"/>
<polygon fill="midnightblue" stroke="midnightblue" points="356.627,-26.1606 349.016,-18.7909 350.37,-29.2988 356.627,-26.1606"/>
</g>
<!-- Node19 -->
<g id="node20" class="node"><title>Node19</title>
<g id="a_node20"><a xlink:href="_rigidbody_8hpp.html" target="_top" xlink:title="Rigidbody.hpp">
<polygon fill="none" stroke="black" points="525.49,-165.5 525.49,-183.5 604.688,-183.5 604.688,-165.5 525.49,-165.5"/>
<text text-anchor="middle" x="565.089" y="-171.5" font-family="Helvetica,sans-Serif" font-size="10.00">Rigidbody.hpp</text>
</a>
</g>
</g>
<!-- Node13&#45;&gt;Node19 -->
<g id="edge35" class="edge"><title>Node13&#45;&gt;Node19</title>
<path fill="none" stroke="midnightblue" d="M603.902,-220.219C597.179,-212.473 586.962,-200.701 578.698,-191.18"/>
<polygon fill="midnightblue" stroke="midnightblue" points="581.273,-188.808 572.075,-183.55 575.987,-193.396 581.273,-188.808"/>
</g>
<!-- Node20 -->
<g id="node21" class="node"><title>Node20</title>
<polygon fill="none" stroke="#bfbfbf" points="408.515,-0.5 408.515,-18.5 495.663,-18.5 495.663,-0.5 408.515,-0.5"/>
<text text-anchor="middle" x="452.089" y="-6.5" font-family="Helvetica,sans-Serif" font-size="10.00">Box2D/Box2D.h</text>
</g>
<!-- Node13&#45;&gt;Node20 -->
<g id="edge55" class="edge"><title>Node13&#45;&gt;Node20</title>
<path fill="none" stroke="midnightblue" d="M580.632,-220.387C557.787,-213.298 526.548,-201.391 503.089,-184 477.717,-165.19 469.456,-158.467 458.089,-129 445.156,-95.472 447.063,-52.6102 449.591,-28.7058"/>
<polygon fill="midnightblue" stroke="midnightblue" points="453.085,-28.9674 450.819,-18.6176 446.136,-28.1213 453.085,-28.9674"/>
</g>
<!-- Node28 -->
<g id="node29" class="node"><title>Node28</title>
<polygon fill="none" stroke="#bfbfbf" points="746.9,-165.5 746.9,-183.5 851.278,-183.5 851.278,-165.5 746.9,-165.5"/>
<text text-anchor="middle" x="799.089" y="-171.5" font-family="Helvetica,sans-Serif" font-size="10.00">glm/gtc/random.hpp</text>
</g>
<!-- Node13&#45;&gt;Node28 -->
<g id="edge56" class="edge"><title>Node13&#45;&gt;Node28</title>
<path fill="none" stroke="midnightblue" d="M639.642,-220.45C672.035,-211.318 725.013,-196.383 760.929,-186.258"/>
<polygon fill="midnightblue" stroke="midnightblue" points="761.901,-189.62 770.576,-183.538 760.001,-182.883 761.901,-189.62"/>
</g>
<!-- Node29 -->
<g id="node30" class="node"><title>Node29</title>
<polygon fill="none" stroke="#bfbfbf" points="869.22,-165.5 869.22,-183.5 996.958,-183.5 996.958,-165.5 869.22,-165.5"/>
<text text-anchor="middle" x="933.089" y="-171.5" font-family="Helvetica,sans-Serif" font-size="10.00">glm/gtx/euler_angles.hpp</text>
</g>
<!-- Node13&#45;&gt;Node29 -->
<g id="edge57" class="edge"><title>Node13&#45;&gt;Node29</title>
<path fill="none" stroke="midnightblue" d="M659.994,-220.45C717.49,-210.987 812.852,-195.291 874.315,-185.174"/>
<polygon fill="midnightblue" stroke="midnightblue" points="874.954,-188.616 884.253,-183.538 873.817,-181.709 874.954,-188.616"/>
</g>
<!-- Node16&#45;&gt;Node8 -->
<g id="edge27" class="edge"><title>Node16&#45;&gt;Node8</title>
<path fill="none" stroke="midnightblue" d="M633.548,-165.45C607.298,-156.475 564.651,-141.892 535.081,-131.781"/>
<polygon fill="midnightblue" stroke="midnightblue" points="536.192,-128.462 525.597,-128.538 533.927,-135.086 536.192,-128.462"/>
</g>
<!-- Node16&#45;&gt;Node9 -->
<g id="edge28" class="edge"><title>Node16&#45;&gt;Node9</title>
<path fill="none" stroke="midnightblue" d="M622.371,-166.552C619.571,-166.017 616.784,-165.494 614.089,-165 530.916,-149.746 432.587,-133.612 383.039,-125.615"/>
<polygon fill="midnightblue" stroke="midnightblue" points="383.375,-122.124 372.946,-123.989 382.262,-129.035 383.375,-122.124"/>
</g>
<!-- Node16&#45;&gt;Node14 -->
<g id="edge25" class="edge"><title>Node16&#45;&gt;Node14</title>
<path fill="none" stroke="midnightblue" d="M691.736,-167.363C758.323,-155.552 898.077,-130.668 903.089,-129 921.005,-123.037 924.127,-118.297 941.089,-110 1006.23,-78.1381 1083.33,-41.5469 1122.85,-22.8731"/>
<polygon fill="midnightblue" stroke="midnightblue" points="1124.51,-25.9603 1132.05,-18.5253 1121.52,-19.6305 1124.51,-25.9603"/>
</g>
<!-- Node16&#45;&gt;Node15 -->
<g id="edge26" class="edge"><title>Node16&#45;&gt;Node15</title>
<path fill="none" stroke="midnightblue" d="M691.676,-167.25C696.185,-166.472 700.745,-165.703 705.089,-165 785.631,-151.957 878.489,-138.561 939.957,-129.922"/>
<polygon fill="midnightblue" stroke="midnightblue" points="940.507,-133.379 949.924,-128.524 939.534,-126.447 940.507,-133.379"/>
</g>
<!-- Node16&#45;&gt;Node17 -->
<g id="edge29" class="edge"><title>Node16&#45;&gt;Node17</title>
<path fill="none" stroke="midnightblue" d="M643.565,-165.414C622.807,-153.081 581.748,-129.004 546.089,-110 484.422,-77.1354 410.436,-41.4506 371.709,-23.0506"/>
<polygon fill="midnightblue" stroke="midnightblue" points="372.741,-19.6665 362.205,-18.5462 369.743,-25.992 372.741,-19.6665"/>
</g>
<!-- Node18 -->
<g id="node19" class="node"><title>Node18</title>
<polygon fill="none" stroke="#bfbfbf" points="757.596,-110.5 757.596,-128.5 894.582,-128.5 894.582,-110.5 757.596,-110.5"/>
<text text-anchor="middle" x="826.089" y="-116.5" font-family="Helvetica,sans-Serif" font-size="10.00">Box2D/Dynamics/b2Body.h</text>
</g>
<!-- Node16&#45;&gt;Node18 -->
<g id="edge30" class="edge"><title>Node16&#45;&gt;Node18</title>
<path fill="none" stroke="midnightblue" d="M682.756,-165.45C711.502,-156.436 758.281,-141.765 790.536,-131.65"/>
<polygon fill="midnightblue" stroke="midnightblue" points="791.963,-134.87 800.457,-128.538 789.868,-128.191 791.963,-134.87"/>
</g>
<!-- Node19&#45;&gt;Node3 -->
<g id="edge36" class="edge"><title>Node19&#45;&gt;Node3</title>
<path fill="none" stroke="midnightblue" d="M525.342,-166.407C473.004,-157.067 380.767,-140.608 322.128,-130.143"/>
<polygon fill="midnightblue" stroke="midnightblue" points="322.405,-126.638 311.945,-128.326 321.175,-133.529 322.405,-126.638"/>
</g>
<!-- Node19&#45;&gt;Node8 -->
<g id="edge54" class="edge"><title>Node19&#45;&gt;Node8</title>
<path fill="none" stroke="midnightblue" d="M555.521,-165.45C545.992,-157.434 531.149,-144.947 519.523,-135.166"/>
<polygon fill="midnightblue" stroke="midnightblue" points="521.653,-132.385 511.747,-128.625 517.147,-137.741 521.653,-132.385"/>
</g>
<!-- Node19&#45;&gt;Node20 -->
<g id="edge37" class="edge"><title>Node19&#45;&gt;Node20</title>
<path fill="none" stroke="midnightblue" d="M563.87,-165.196C561.749,-152.579 556.565,-128.135 546.089,-110 526.029,-75.2761 491.571,-43.0963 470.413,-25.1946"/>
<polygon fill="midnightblue" stroke="midnightblue" points="472.431,-22.322 462.497,-18.6391 467.966,-27.7132 472.431,-22.322"/>
</g>
<!-- Node21 -->
<g id="node22" class="node"><title>Node21</title>
<g id="a_node22"><a xlink:href="_physics_manager_8hpp.html" target="_top" xlink:title="PhysicsManager.hpp">
<polygon fill="none" stroke="black" points="630.671,-110.5 630.671,-128.5 739.507,-128.5 739.507,-110.5 630.671,-110.5"/>
<text text-anchor="middle" x="685.089" y="-116.5" font-family="Helvetica,sans-Serif" font-size="10.00">PhysicsManager.hpp</text>
</a>
</g>
</g>
<!-- Node19&#45;&gt;Node21 -->
<g id="edge38" class="edge"><title>Node19&#45;&gt;Node21</title>
<path fill="none" stroke="midnightblue" d="M583.314,-165.45C603.05,-156.734 634.755,-142.731 657.536,-132.669"/>
<polygon fill="midnightblue" stroke="midnightblue" points="658.959,-135.867 666.692,-128.625 656.13,-129.464 658.959,-135.867"/>
</g>
<!-- Node21&#45;&gt;Node12 -->
<g id="edge41" class="edge"><title>Node21&#45;&gt;Node12</title>
<path fill="none" stroke="midnightblue" d="M714.53,-110.471C785.463,-91.1252 965.727,-41.9623 1043.94,-20.6316"/>
<polygon fill="midnightblue" stroke="midnightblue" points="1045.11,-23.9399 1053.84,-17.932 1043.27,-17.1866 1045.11,-23.9399"/>
</g>
<!-- Node21&#45;&gt;Node14 -->
<g id="edge39" class="edge"><title>Node21&#45;&gt;Node14</title>
<path fill="none" stroke="midnightblue" d="M725.832,-110.427C768.589,-101.843 837.713,-87.6485 897.089,-74 992.245,-52.127 1017.91,-44.6288 1116.28,-19.188"/>
<polygon fill="midnightblue" stroke="midnightblue" points="1117.22,-22.559 1126.03,-16.6689 1115.47,-15.7815 1117.22,-22.559"/>
</g>
<!-- Node21&#45;&gt;Node20 -->
<g id="edge42" class="edge"><title>Node21&#45;&gt;Node20</title>
<path fill="none" stroke="midnightblue" d="M673.443,-110.443C654.378,-97.5059 615.023,-71.8457 579.089,-55 550.05,-41.3864 515.635,-29.577 489.961,-21.5515"/>
<polygon fill="midnightblue" stroke="midnightblue" points="490.818,-18.1535 480.231,-18.5601 488.761,-24.8444 490.818,-18.1535"/>
</g>
<!-- Node22 -->
<g id="node23" class="node"><title>Node22</title>
<polygon fill="none" stroke="#bfbfbf" points="513.193,-0.5 513.193,-18.5 556.986,-18.5 556.986,-0.5 513.193,-0.5"/>
<text text-anchor="middle" x="535.089" y="-6.5" font-family="Helvetica,sans-Serif" font-size="10.00">SDL.h</text>
</g>
<!-- Node21&#45;&gt;Node22 -->
<g id="edge40" class="edge"><title>Node21&#45;&gt;Node22</title>
<path fill="none" stroke="midnightblue" d="M679.276,-110.134C669.808,-96.9952 649.907,-71.3395 628.089,-55 609.301,-40.9296 585.357,-29.5972 566.47,-21.89"/>
<polygon fill="midnightblue" stroke="midnightblue" points="567.695,-18.6108 557.108,-18.1947 565.125,-25.1219 567.695,-18.6108"/>
</g>
<!-- Node23 -->
<g id="node24" class="node"><title>Node23</title>
<g id="a_node24"><a xlink:href="_foo_draw2_8hpp.html" target="_top" xlink:title="FooDraw2.hpp">
<polygon fill="none" stroke="black" points="742.294,-55.5 742.294,-73.5 823.884,-73.5 823.884,-55.5 742.294,-55.5"/>
<text text-anchor="middle" x="783.089" y="-61.5" font-family="Helvetica,sans-Serif" font-size="10.00">FooDraw2.hpp</text>
</a>
</g>
</g>
<!-- Node21&#45;&gt;Node23 -->
<g id="edge43" class="edge"><title>Node21&#45;&gt;Node23</title>
<path fill="none" stroke="midnightblue" d="M699.973,-110.45C715.659,-101.968 740.603,-88.477 759.077,-78.486"/>
<polygon fill="midnightblue" stroke="midnightblue" points="760.934,-81.461 768.065,-73.6253 757.604,-75.3038 760.934,-81.461"/>
</g>
<!-- Node23&#45;&gt;Node5 -->
<g id="edge49" class="edge"><title>Node23&#45;&gt;Node5</title>
<path fill="none" stroke="midnightblue" d="M824.124,-59.4858C894.619,-52.4648 1043.5,-37.0914 1179.97,-19.0962"/>
<polygon fill="midnightblue" stroke="midnightblue" points="1180.74,-22.5251 1190.19,-17.7403 1179.82,-15.5858 1180.74,-22.5251"/>
</g>
<!-- Node23&#45;&gt;Node12 -->
<g id="edge50" class="edge"><title>Node23&#45;&gt;Node12</title>
<path fill="none" stroke="midnightblue" d="M824.082,-57.3644C873.81,-49.7389 960.4,-35.8773 1043.73,-19.1749"/>
<polygon fill="midnightblue" stroke="midnightblue" points="1044.5,-22.5897 1053.61,-17.1778 1043.12,-15.7285 1044.5,-22.5897"/>
</g>
<!-- Node23&#45;&gt;Node14 -->
<g id="edge44" class="edge"><title>Node23&#45;&gt;Node14</title>
<path fill="none" stroke="midnightblue" d="M823.981,-59.7444C885.364,-53.738 1005.09,-40.5954 1116.08,-18.9631"/>
<polygon fill="midnightblue" stroke="midnightblue" points="1116.97,-22.3546 1126.1,-16.9812 1115.61,-15.4875 1116.97,-22.3546"/>
</g>
<!-- Node23&#45;&gt;Node17 -->
<g id="edge45" class="edge"><title>Node23&#45;&gt;Node17</title>
<path fill="none" stroke="midnightblue" d="M742.102,-59.3046C673.59,-52.1711 531.235,-36.8344 400.625,-19.1621"/>
<polygon fill="midnightblue" stroke="midnightblue" points="400.823,-15.6569 390.443,-17.7763 399.879,-22.593 400.823,-15.6569"/>
</g>
<!-- Node23&#45;&gt;Node20 -->
<g id="edge53" class="edge"><title>Node23&#45;&gt;Node20</title>
<path fill="none" stroke="midnightblue" d="M741.954,-56.9899C689.49,-48.6756 595.678,-33.7713 505.861,-19.2817"/>
<polygon fill="midnightblue" stroke="midnightblue" points="506.21,-15.7927 495.78,-17.6543 505.094,-22.7033 506.21,-15.7927"/>
</g>
<!-- Node23&#45;&gt;Node22 -->
<g id="edge46" class="edge"><title>Node23&#45;&gt;Node22</title>
<path fill="none" stroke="midnightblue" d="M742.119,-55.9259C700.408,-48.0313 633.677,-34.8969 566.907,-19.0691"/>
<polygon fill="midnightblue" stroke="midnightblue" points="567.599,-15.6358 557.059,-16.7146 565.971,-22.444 567.599,-15.6358"/>
</g>
<!-- Node24 -->
<g id="node25" class="node"><title>Node24</title>
<polygon fill="none" stroke="#bfbfbf" points="575.345,-0.5 575.345,-18.5 720.833,-18.5 720.833,-0.5 575.345,-0.5"/>
<text text-anchor="middle" x="648.089" y="-6.5" font-family="Helvetica,sans-Serif" font-size="10.00">glm/gtc/matrix_transform.hpp</text>
</g>
<!-- Node23&#45;&gt;Node24 -->
<g id="edge47" class="edge"><title>Node23&#45;&gt;Node24</title>
<path fill="none" stroke="midnightblue" d="M762.585,-55.4504C740.185,-46.6562 704.076,-32.4802 678.402,-22.4006"/>
<polygon fill="midnightblue" stroke="midnightblue" points="679.373,-19.0218 668.786,-18.6253 676.815,-25.5377 679.373,-19.0218"/>
</g>
<!-- Node25 -->
<g id="node26" class="node"><title>Node25</title>
<polygon fill="none" stroke="#bfbfbf" points="738.954,-0.5 738.954,-18.5 827.224,-18.5 827.224,-0.5 738.954,-0.5"/>
<text text-anchor="middle" x="783.089" y="-6.5" font-family="Helvetica,sans-Serif" font-size="10.00">SRE/Debug.hpp</text>
</g>
<!-- Node23&#45;&gt;Node25 -->
<g id="edge48" class="edge"><title>Node23&#45;&gt;Node25</title>
<path fill="none" stroke="midnightblue" d="M783.089,-55.2188C783.089,-48.1769 783.089,-37.8083 783.089,-28.8277"/>
<polygon fill="midnightblue" stroke="midnightblue" points="786.589,-28.5495 783.089,-18.5496 779.589,-28.5496 786.589,-28.5495"/>
</g>
<!-- Node26 -->
<g id="node27" class="node"><title>Node26</title>
<polygon fill="none" stroke="#bfbfbf" points="845.668,-0.5 845.668,-18.5 974.51,-18.5 974.51,-0.5 845.668,-0.5"/>
<text text-anchor="middle" x="910.089" y="-6.5" font-family="Helvetica,sans-Serif" font-size="10.00">glm/gtx/closest_point.hpp</text>
</g>
<!-- Node23&#45;&gt;Node26 -->
<g id="edge51" class="edge"><title>Node23&#45;&gt;Node26</title>
<path fill="none" stroke="midnightblue" d="M802.378,-55.4504C823.357,-46.6951 857.119,-32.6055 881.251,-22.5346"/>
<polygon fill="midnightblue" stroke="midnightblue" points="882.738,-25.7067 890.619,-18.6253 880.042,-19.2467 882.738,-25.7067"/>
</g>
<!-- Node27 -->
<g id="node28" class="node"><title>Node27</title>
<polygon fill="none" stroke="#bfbfbf" points="992.473,-0.5 992.473,-18.5 1035.7,-18.5 1035.7,-0.5 992.473,-0.5"/>
<text text-anchor="middle" x="1014.09" y="-6.5" font-family="Helvetica,sans-Serif" font-size="10.00">time.h</text>
</g>
<!-- Node23&#45;&gt;Node27 -->
<g id="edge52" class="edge"><title>Node23&#45;&gt;Node27</title>
<path fill="none" stroke="midnightblue" d="M821.935,-55.4424C860.277,-47.3591 920.794,-34.2546 982.529,-19.039"/>
<polygon fill="midnightblue" stroke="midnightblue" points="983.581,-22.3842 992.444,-16.5793 981.895,-15.5901 983.581,-22.3842"/>
</g>
</g>
</svg>
