<?xml version="1.0" encoding="UTF-8" standalone="no"?>
<!DOCTYPE svg PUBLIC "-//W3C//DTD SVG 1.1//EN"
 "http://www.w3.org/Graphics/SVG/1.1/DTD/svg11.dtd">
<!-- Generated by graphviz version 2.38.0 (20140413.2041)
 -->
<!-- Title: Particle.hpp Pages: 1 -->
<svg width="229pt" height="137pt"
 viewBox="0.00 0.00 229.14 137.00" xmlns="http://www.w3.org/2000/svg" xmlns:xlink="http://www.w3.org/1999/xlink">
<g id="graph0" class="graph" transform="scale(1 1) rotate(0) translate(4 133)">
<title>Particle.hpp</title>
<!-- Node5 -->
<g id="node1" class="node"><title>Node5</title>
<polygon fill="#bfbfbf" stroke="black" points="100.616,-110.5 100.616,-128.5 169.423,-128.5 169.423,-110.5 100.616,-110.5"/>
<text text-anchor="middle" x="135.02" y="-116.5" font-family="Helvetica,sans-Serif" font-size="10.00">Particle.hpp</text>
</g>
<!-- Node6 -->
<g id="node2" class="node"><title>Node6</title>
<g id="a_node2"><a xlink:href="_particle_system_8hpp.html" target="_top" xlink:title="ParticleSystem.hpp">
<polygon fill="none" stroke="black" points="32.9458,-55.5 32.9458,-73.5 135.093,-73.5 135.093,-55.5 32.9458,-55.5"/>
<text text-anchor="middle" x="84.0195" y="-61.5" font-family="Helvetica,sans-Serif" font-size="10.00">ParticleSystem.hpp</text>
</a>
</g>
</g>
<!-- Node5&#45;&gt;Node6 -->
<g id="edge1" class="edge"><title>Node5&#45;&gt;Node6</title>
<path fill="none" stroke="midnightblue" d="M119.933,-102.822C110.679,-93.2051 99.2154,-81.2917 91.7653,-73.5496"/>
<polygon fill="midnightblue" stroke="midnightblue" points="117.595,-105.44 127.051,-110.219 122.639,-100.586 117.595,-105.44"/>
</g>
<!-- Node9 -->
<g id="node5" class="node"><title>Node9</title>
<g id="a_node5"><a xlink:href="_particle_8cpp.html" target="_top" xlink:title="Particle.cpp">
<polygon fill="none" stroke="black" points="152.896,-55.5 152.896,-73.5 221.143,-73.5 221.143,-55.5 152.896,-55.5"/>
<text text-anchor="middle" x="187.02" y="-61.5" font-family="Helvetica,sans-Serif" font-size="10.00">Particle.cpp</text>
</a>
</g>
</g>
<!-- Node5&#45;&gt;Node9 -->
<g id="edge4" class="edge"><title>Node5&#45;&gt;Node9</title>
<path fill="none" stroke="midnightblue" d="M150.401,-102.822C159.837,-93.2051 171.526,-81.2917 179.122,-73.5496"/>
<polygon fill="midnightblue" stroke="midnightblue" points="147.65,-100.629 143.145,-110.219 152.646,-105.532 147.65,-100.629"/>
</g>
<!-- Node7 -->
<g id="node3" class="node"><title>Node7</title>
<g id="a_node3"><a xlink:href="_engine_8cpp.html" target="_top" xlink:title="Engine.cpp">
<polygon fill="none" stroke="black" points="0,-0.5 0,-18.5 66.0391,-18.5 66.0391,-0.5 0,-0.5"/>
<text text-anchor="middle" x="33.0195" y="-6.5" font-family="Helvetica,sans-Serif" font-size="10.00">Engine.cpp</text>
</a>
</g>
</g>
<!-- Node6&#45;&gt;Node7 -->
<g id="edge2" class="edge"><title>Node6&#45;&gt;Node7</title>
<path fill="none" stroke="midnightblue" d="M68.9335,-47.8223C59.6792,-38.2051 48.2154,-26.2917 40.7653,-18.5496"/>
<polygon fill="midnightblue" stroke="midnightblue" points="66.5949,-50.4398 76.0508,-55.2188 71.639,-45.5862 66.5949,-50.4398"/>
</g>
<!-- Node8 -->
<g id="node4" class="node"><title>Node8</title>
<g id="a_node4"><a xlink:href="_particle_system_8cpp.html" target="_top" xlink:title="ParticleSystem.cpp">
<polygon fill="none" stroke="black" points="84.2266,-0.5 84.2266,-18.5 185.812,-18.5 185.812,-0.5 84.2266,-0.5"/>
<text text-anchor="middle" x="135.02" y="-6.5" font-family="Helvetica,sans-Serif" font-size="10.00">ParticleSystem.cpp</text>
</a>
</g>
</g>
<!-- Node6&#45;&gt;Node8 -->
<g id="edge3" class="edge"><title>Node6&#45;&gt;Node8</title>
<path fill="none" stroke="midnightblue" d="M99.1056,-47.8223C108.36,-38.2051 119.824,-26.2917 127.274,-18.5496"/>
<polygon fill="midnightblue" stroke="midnightblue" points="96.4001,-45.5862 91.9883,-55.2188 101.444,-50.4398 96.4001,-45.5862"/>
</g>
</g>
</svg>
