<?xml version="1.0" encoding="UTF-8" standalone="no"?>
<!DOCTYPE svg PUBLIC "-//W3C//DTD SVG 1.1//EN"
 "http://www.w3.org/Graphics/SVG/1.1/DTD/svg11.dtd">
<!-- Generated by graphviz version 2.38.0 (20140413.2041)
 -->
<!-- Title: PhysicsManager.cpp Pages: 1 -->
<svg width="1071pt" height="192pt"
 viewBox="0.00 0.00 1070.75 192.00" xmlns="http://www.w3.org/2000/svg" xmlns:xlink="http://www.w3.org/1999/xlink">
<g id="graph0" class="graph" transform="scale(1 1) rotate(0) translate(4 188)">
<title>PhysicsManager.cpp</title>
<!-- Node0 -->
<g id="node1" class="node"><title>Node0</title>
<polygon fill="#bfbfbf" stroke="black" points="590.035,-165.5 590.035,-183.5 698.31,-183.5 698.31,-165.5 590.035,-165.5"/>
<text text-anchor="middle" x="644.172" y="-171.5" font-family="Helvetica,sans-Serif" font-size="10.00">PhysicsManager.cpp</text>
</g>
<!-- Node1 -->
<g id="node2" class="node"><title>Node1</title>
<g id="a_node2"><a xlink:href="_physics_manager_8hpp.html" target="_top" xlink:title="PhysicsManager.hpp">
<polygon fill="none" stroke="black" points="459.754,-110.5 459.754,-128.5 568.591,-128.5 568.591,-110.5 459.754,-110.5"/>
<text text-anchor="middle" x="514.172" y="-116.5" font-family="Helvetica,sans-Serif" font-size="10.00">PhysicsManager.hpp</text>
</a>
</g>
</g>
<!-- Node0&#45;&gt;Node1 -->
<g id="edge1" class="edge"><title>Node0&#45;&gt;Node1</title>
<path fill="none" stroke="midnightblue" d="M624.428,-165.45C602.857,-156.656 568.086,-142.48 543.362,-132.401"/>
<polygon fill="midnightblue" stroke="midnightblue" points="544.684,-129.16 534.102,-128.625 542.041,-135.642 544.684,-129.16"/>
</g>
<!-- Node4 -->
<g id="node5" class="node"><title>Node4</title>
<polygon fill="none" stroke="#bfbfbf" points="0,-0.5 0,-18.5 54.3447,-18.5 54.3447,-0.5 0,-0.5"/>
<text text-anchor="middle" x="27.1724" y="-6.5" font-family="Helvetica,sans-Serif" font-size="10.00">iostream</text>
</g>
<!-- Node0&#45;&gt;Node4 -->
<g id="edge17" class="edge"><title>Node0&#45;&gt;Node4</title>
<path fill="none" stroke="midnightblue" d="M600.739,-165.45C521.422,-150.354 348.132,-115.539 205.172,-74 152.121,-58.5852 91.8521,-35.9773 56.8107,-22.3071"/>
<polygon fill="midnightblue" stroke="midnightblue" points="57.7897,-18.9315 47.2023,-18.5356 55.232,-25.4475 57.7897,-18.9315"/>
</g>
<!-- Node13 -->
<g id="node14" class="node"><title>Node13</title>
<g id="a_node14"><a xlink:href="_game_object_8hpp.html" target="_top" xlink:title="GameObject.hpp">
<polygon fill="none" stroke="black" points="695.375,-110.5 695.375,-128.5 786.97,-128.5 786.97,-110.5 695.375,-110.5"/>
<text text-anchor="middle" x="741.172" y="-116.5" font-family="Helvetica,sans-Serif" font-size="10.00">GameObject.hpp</text>
</a>
</g>
</g>
<!-- Node0&#45;&gt;Node13 -->
<g id="edge18" class="edge"><title>Node0&#45;&gt;Node13</title>
<path fill="none" stroke="midnightblue" d="M658.905,-165.45C674.43,-156.968 699.12,-143.477 717.406,-133.486"/>
<polygon fill="midnightblue" stroke="midnightblue" points="719.204,-136.492 726.302,-128.625 715.848,-130.349 719.204,-136.492"/>
</g>
<!-- Node20 -->
<g id="node21" class="node"><title>Node20</title>
<g id="a_node21"><a xlink:href="_scriptable_8hpp.html" target="_top" xlink:title="Scriptable.hpp">
<polygon fill="none" stroke="black" points="892.207,-110.5 892.207,-128.5 972.138,-128.5 972.138,-110.5 892.207,-110.5"/>
<text text-anchor="middle" x="932.172" y="-116.5" font-family="Helvetica,sans-Serif" font-size="10.00">Scriptable.hpp</text>
</a>
</g>
</g>
<!-- Node0&#45;&gt;Node20 -->
<g id="edge26" class="edge"><title>Node0&#45;&gt;Node20</title>
<path fill="none" stroke="midnightblue" d="M687.913,-165.45C740.206,-155.827 827.517,-139.76 882.359,-129.667"/>
<polygon fill="midnightblue" stroke="midnightblue" points="883.004,-133.107 892.205,-127.855 881.737,-126.223 883.004,-133.107"/>
</g>
<!-- Node2 -->
<g id="node3" class="node"><title>Node2</title>
<polygon fill="none" stroke="#bfbfbf" points="873.441,-0.5 873.441,-18.5 918.904,-18.5 918.904,-0.5 873.441,-0.5"/>
<text text-anchor="middle" x="896.172" y="-6.5" font-family="Helvetica,sans-Serif" font-size="10.00">stdio.h</text>
</g>
<!-- Node1&#45;&gt;Node2 -->
<g id="edge2" class="edge"><title>Node1&#45;&gt;Node2</title>
<path fill="none" stroke="midnightblue" d="M519.117,-110.165C527.971,-96.0875 547.982,-67.8782 573.172,-55 686.374,2.87355 733.895,-41.5007 863.315,-18.8374"/>
<polygon fill="midnightblue" stroke="midnightblue" points="863.993,-22.2715 873.187,-17.0073 862.717,-15.3887 863.993,-22.2715"/>
</g>
<!-- Node3 -->
<g id="node4" class="node"><title>Node3</title>
<polygon fill="none" stroke="#bfbfbf" points="937.276,-0.5 937.276,-18.5 981.069,-18.5 981.069,-0.5 937.276,-0.5"/>
<text text-anchor="middle" x="959.172" y="-6.5" font-family="Helvetica,sans-Serif" font-size="10.00">SDL.h</text>
</g>
<!-- Node1&#45;&gt;Node3 -->
<g id="edge3" class="edge"><title>Node1&#45;&gt;Node3</title>
<path fill="none" stroke="midnightblue" d="M525.904,-110.475C546.818,-96.6092 592.374,-68.3692 635.172,-55 757.349,-16.8354 797.498,-43.0612 927.332,-18.8489"/>
<polygon fill="midnightblue" stroke="midnightblue" points="928.095,-22.2663 937.251,-16.9346 926.769,-15.3932 928.095,-22.2663"/>
</g>
<!-- Node1&#45;&gt;Node4 -->
<g id="edge4" class="edge"><title>Node1&#45;&gt;Node4</title>
<path fill="none" stroke="midnightblue" d="M470.305,-110.458C424.684,-101.954 351.247,-87.8756 288.172,-74 208.066,-56.3777 114.834,-32.9962 64.3237,-20.0874"/>
<polygon fill="midnightblue" stroke="midnightblue" points="65.0666,-16.6647 54.5108,-17.5738 63.3296,-23.4458 65.0666,-16.6647"/>
</g>
<!-- Node5 -->
<g id="node6" class="node"><title>Node5</title>
<polygon fill="none" stroke="#bfbfbf" points="72.5986,-0.5 72.5986,-18.5 159.746,-18.5 159.746,-0.5 72.5986,-0.5"/>
<text text-anchor="middle" x="116.172" y="-6.5" font-family="Helvetica,sans-Serif" font-size="10.00">Box2D/Box2D.h</text>
</g>
<!-- Node1&#45;&gt;Node5 -->
<g id="edge5" class="edge"><title>Node1&#45;&gt;Node5</title>
<path fill="none" stroke="midnightblue" d="M484.583,-110.471C413.981,-91.3123 235.612,-42.9107 155.819,-21.2584"/>
<polygon fill="midnightblue" stroke="midnightblue" points="156.254,-17.7499 145.686,-18.5088 154.421,-24.5056 156.254,-17.7499"/>
</g>
<!-- Node6 -->
<g id="node7" class="node"><title>Node6</title>
<g id="a_node7"><a xlink:href="_foo_draw2_8hpp.html" target="_top" xlink:title="FooDraw2.hpp">
<polygon fill="none" stroke="black" points="439.377,-55.5 439.377,-73.5 520.968,-73.5 520.968,-55.5 439.377,-55.5"/>
<text text-anchor="middle" x="480.172" y="-61.5" font-family="Helvetica,sans-Serif" font-size="10.00">FooDraw2.hpp</text>
</a>
</g>
</g>
<!-- Node1&#45;&gt;Node6 -->
<g id="edge6" class="edge"><title>Node1&#45;&gt;Node6</title>
<path fill="none" stroke="midnightblue" d="M508.86,-110.219C504.041,-102.707 496.795,-91.411 490.79,-82.0515"/>
<polygon fill="midnightblue" stroke="midnightblue" points="493.682,-80.0767 485.336,-73.5496 487.79,-83.8564 493.682,-80.0767"/>
</g>
<!-- Node6&#45;&gt;Node2 -->
<g id="edge7" class="edge"><title>Node6&#45;&gt;Node2</title>
<path fill="none" stroke="midnightblue" d="M520.991,-56.9857C525.767,-56.2845 530.574,-55.6065 535.172,-55 677.728,-36.1943 717.782,-45.5146 863.015,-18.9365"/>
<polygon fill="midnightblue" stroke="midnightblue" points="864.002,-22.3132 873.195,-17.0468 862.724,-15.4307 864.002,-22.3132"/>
</g>
<!-- Node6&#45;&gt;Node3 -->
<g id="edge9" class="edge"><title>Node6&#45;&gt;Node3</title>
<path fill="none" stroke="midnightblue" d="M521.33,-59.6016C620.592,-50.1759 868.748,-26.463 927.213,-18.547"/>
<polygon fill="midnightblue" stroke="midnightblue" points="927.912,-21.9807 937.263,-16.9989 926.847,-15.0623 927.912,-21.9807"/>
</g>
<!-- Node6&#45;&gt;Node4 -->
<g id="edge13" class="edge"><title>Node6&#45;&gt;Node4</title>
<path fill="none" stroke="midnightblue" d="M439.097,-60.8352C365.805,-55.7085 207.537,-42.957 64.8614,-19.0922"/>
<polygon fill="midnightblue" stroke="midnightblue" points="65.0616,-15.5763 54.6171,-17.3547 63.891,-22.4777 65.0616,-15.5763"/>
</g>
<!-- Node6&#45;&gt;Node5 -->
<g id="edge16" class="edge"><title>Node6&#45;&gt;Node5</title>
<path fill="none" stroke="midnightblue" d="M439.249,-57.9336C381.451,-50.0127 272.348,-34.8427 169.76,-19.2197"/>
<polygon fill="midnightblue" stroke="midnightblue" points="170.269,-15.7568 159.855,-17.7066 169.212,-22.6766 170.269,-15.7568"/>
</g>
<!-- Node7 -->
<g id="node8" class="node"><title>Node7</title>
<polygon fill="none" stroke="#bfbfbf" points="494.921,-0.5 494.921,-18.5 585.423,-18.5 585.423,-0.5 494.921,-0.5"/>
<text text-anchor="middle" x="540.172" y="-6.5" font-family="Helvetica,sans-Serif" font-size="10.00">SRE/Shader.hpp</text>
</g>
<!-- Node6&#45;&gt;Node7 -->
<g id="edge8" class="edge"><title>Node6&#45;&gt;Node7</title>
<path fill="none" stroke="midnightblue" d="M489.285,-55.4504C498.272,-47.5123 512.222,-35.1891 523.246,-25.4519"/>
<polygon fill="midnightblue" stroke="midnightblue" points="525.796,-27.8689 530.974,-18.6253 521.162,-22.6225 525.796,-27.8689"/>
</g>
<!-- Node8 -->
<g id="node9" class="node"><title>Node8</title>
<polygon fill="none" stroke="#bfbfbf" points="603.429,-0.5 603.429,-18.5 748.916,-18.5 748.916,-0.5 603.429,-0.5"/>
<text text-anchor="middle" x="676.172" y="-6.5" font-family="Helvetica,sans-Serif" font-size="10.00">glm/gtc/matrix_transform.hpp</text>
</g>
<!-- Node6&#45;&gt;Node8 -->
<g id="edge10" class="edge"><title>Node6&#45;&gt;Node8</title>
<path fill="none" stroke="midnightblue" d="M509.941,-55.4504C543.712,-46.3184 598.944,-31.3833 636.389,-21.2578"/>
<polygon fill="midnightblue" stroke="midnightblue" points="637.706,-24.5274 646.446,-18.5383 635.879,-17.7701 637.706,-24.5274"/>
</g>
<!-- Node9 -->
<g id="node10" class="node"><title>Node9</title>
<polygon fill="none" stroke="#bfbfbf" points="767.037,-0.5 767.037,-18.5 855.308,-18.5 855.308,-0.5 767.037,-0.5"/>
<text text-anchor="middle" x="811.172" y="-6.5" font-family="Helvetica,sans-Serif" font-size="10.00">SRE/Debug.hpp</text>
</g>
<!-- Node6&#45;&gt;Node9 -->
<g id="edge11" class="edge"><title>Node6&#45;&gt;Node9</title>
<path fill="none" stroke="midnightblue" d="M521.153,-56.9441C573.421,-48.5815 666.888,-33.6245 756.829,-19.215"/>
<polygon fill="midnightblue" stroke="midnightblue" points="757.606,-22.6351 766.926,-17.5971 756.498,-15.7233 757.606,-22.6351"/>
</g>
<!-- Node10 -->
<g id="node11" class="node"><title>Node10</title>
<polygon fill="none" stroke="#bfbfbf" points="177.375,-0.5 177.375,-18.5 268.97,-18.5 268.97,-0.5 177.375,-0.5"/>
<text text-anchor="middle" x="223.172" y="-6.5" font-family="Helvetica,sans-Serif" font-size="10.00">SRE/Texture.hpp</text>
</g>
<!-- Node6&#45;&gt;Node10 -->
<g id="edge12" class="edge"><title>Node6&#45;&gt;Node10</title>
<path fill="none" stroke="midnightblue" d="M441.14,-55.4504C395.912,-46.1233 321.329,-30.7424 272.223,-20.6155"/>
<polygon fill="midnightblue" stroke="midnightblue" points="272.651,-17.1303 262.151,-18.5383 271.238,-23.986 272.651,-17.1303"/>
</g>
<!-- Node11 -->
<g id="node12" class="node"><title>Node11</title>
<polygon fill="none" stroke="#bfbfbf" points="286.751,-0.5 286.751,-18.5 415.593,-18.5 415.593,-0.5 286.751,-0.5"/>
<text text-anchor="middle" x="351.172" y="-6.5" font-family="Helvetica,sans-Serif" font-size="10.00">glm/gtx/closest_point.hpp</text>
</g>
<!-- Node6&#45;&gt;Node11 -->
<g id="edge14" class="edge"><title>Node6&#45;&gt;Node11</title>
<path fill="none" stroke="midnightblue" d="M460.58,-55.4504C439.27,-46.6951 404.976,-32.6055 380.464,-22.5346"/>
<polygon fill="midnightblue" stroke="midnightblue" points="381.529,-19.1882 370.949,-18.6253 378.869,-25.6631 381.529,-19.1882"/>
</g>
<!-- Node12 -->
<g id="node13" class="node"><title>Node12</title>
<polygon fill="none" stroke="#bfbfbf" points="433.557,-0.5 433.557,-18.5 476.788,-18.5 476.788,-0.5 433.557,-0.5"/>
<text text-anchor="middle" x="455.172" y="-6.5" font-family="Helvetica,sans-Serif" font-size="10.00">time.h</text>
</g>
<!-- Node6&#45;&gt;Node12 -->
<g id="edge15" class="edge"><title>Node6&#45;&gt;Node12</title>
<path fill="none" stroke="midnightblue" d="M476.266,-55.2188C472.797,-47.8639 467.616,-36.8801 463.257,-27.639"/>
<polygon fill="midnightblue" stroke="midnightblue" points="466.401,-26.1007 458.969,-18.5496 460.07,-29.0871 466.401,-26.1007"/>
</g>
<!-- Node14 -->
<g id="node15" class="node"><title>Node14</title>
<polygon fill="none" stroke="#bfbfbf" points="785.544,-55.5 785.544,-73.5 868.8,-73.5 868.8,-55.5 785.544,-55.5"/>
<text text-anchor="middle" x="827.172" y="-61.5" font-family="Helvetica,sans-Serif" font-size="10.00">SRE/Mesh.hpp</text>
</g>
<!-- Node13&#45;&gt;Node14 -->
<g id="edge19" class="edge"><title>Node13&#45;&gt;Node14</title>
<path fill="none" stroke="midnightblue" d="M754.234,-110.45C767.746,-102.123 789.088,-88.9704 805.203,-79.0394"/>
<polygon fill="midnightblue" stroke="midnightblue" points="807.311,-81.8515 813.988,-73.6253 803.638,-75.8922 807.311,-81.8515"/>
</g>
<!-- Node15 -->
<g id="node16" class="node"><title>Node15</title>
<polygon fill="none" stroke="#bfbfbf" points="886.938,-55.5 886.938,-73.5 957.406,-73.5 957.406,-55.5 886.938,-55.5"/>
<text text-anchor="middle" x="922.172" y="-61.5" font-family="Helvetica,sans-Serif" font-size="10.00">glm/glm.hpp</text>
</g>
<!-- Node13&#45;&gt;Node15 -->
<g id="edge20" class="edge"><title>Node13&#45;&gt;Node15</title>
<path fill="none" stroke="midnightblue" d="M768.662,-110.45C799.716,-101.357 850.418,-86.5108 884.989,-76.3879"/>
<polygon fill="midnightblue" stroke="midnightblue" points="886.107,-79.7075 894.721,-73.5383 884.14,-72.9896 886.107,-79.7075"/>
</g>
<!-- Node16 -->
<g id="node17" class="node"><title>Node16</title>
<polygon fill="none" stroke="#bfbfbf" points="998.946,-0.5 998.946,-18.5 1039.4,-18.5 1039.4,-0.5 998.946,-0.5"/>
<text text-anchor="middle" x="1019.17" y="-6.5" font-family="Helvetica,sans-Serif" font-size="10.00">string</text>
</g>
<!-- Node13&#45;&gt;Node16 -->
<g id="edge21" class="edge"><title>Node13&#45;&gt;Node16</title>
<path fill="none" stroke="midnightblue" d="M707.931,-110.421C671.555,-100.079 621.263,-80.4165 644.172,-55 694.008,0.290102 898.345,-31.3641 988.76,-18.6749"/>
<polygon fill="midnightblue" stroke="midnightblue" points="989.411,-22.1147 998.691,-17.0027 988.249,-15.2119 989.411,-22.1147"/>
</g>
<!-- Node17 -->
<g id="node18" class="node"><title>Node17</title>
<polygon fill="none" stroke="#bfbfbf" points="653.557,-55.5 653.557,-73.5 696.788,-73.5 696.788,-55.5 653.557,-55.5"/>
<text text-anchor="middle" x="675.172" y="-61.5" font-family="Helvetica,sans-Serif" font-size="10.00">vector</text>
</g>
<!-- Node13&#45;&gt;Node17 -->
<g id="edge22" class="edge"><title>Node13&#45;&gt;Node17</title>
<path fill="none" stroke="midnightblue" d="M731.148,-110.45C721.166,-102.434 705.616,-89.9471 693.436,-80.1663"/>
<polygon fill="midnightblue" stroke="midnightblue" points="695.279,-77.1577 685.291,-73.6253 690.896,-82.6157 695.279,-77.1577"/>
</g>
<!-- Node18 -->
<g id="node19" class="node"><title>Node18</title>
<g id="a_node19"><a xlink:href="_component_8hpp.html" target="_top" xlink:title="Component.hpp">
<polygon fill="none" stroke="black" points="975.591,-55.5 975.591,-73.5 1062.75,-73.5 1062.75,-55.5 975.591,-55.5"/>
<text text-anchor="middle" x="1019.17" y="-61.5" font-family="Helvetica,sans-Serif" font-size="10.00">Component.hpp</text>
</a>
</g>
</g>
<!-- Node13&#45;&gt;Node18 -->
<g id="edge23" class="edge"><title>Node13&#45;&gt;Node18</title>
<path fill="none" stroke="midnightblue" d="M783.395,-110.45C832.625,-101.065 914.009,-85.5491 967.111,-75.4254"/>
<polygon fill="midnightblue" stroke="midnightblue" points="967.842,-78.8492 977.009,-73.5383 966.531,-71.9731 967.842,-78.8492"/>
</g>
<!-- Node19 -->
<g id="node20" class="node"><title>Node19</title>
<polygon fill="none" stroke="#bfbfbf" points="715.116,-55.5 715.116,-73.5 767.229,-73.5 767.229,-55.5 715.116,-55.5"/>
<text text-anchor="middle" x="741.172" y="-61.5" font-family="Helvetica,sans-Serif" font-size="10.00">memory</text>
</g>
<!-- Node13&#45;&gt;Node19 -->
<g id="edge25" class="edge"><title>Node13&#45;&gt;Node19</title>
<path fill="none" stroke="midnightblue" d="M741.172,-110.219C741.172,-103.177 741.172,-92.8083 741.172,-83.8277"/>
<polygon fill="midnightblue" stroke="midnightblue" points="744.672,-83.5495 741.172,-73.5496 737.672,-83.5496 744.672,-83.5495"/>
</g>
<!-- Node18&#45;&gt;Node16 -->
<g id="edge24" class="edge"><title>Node18&#45;&gt;Node16</title>
<path fill="none" stroke="midnightblue" d="M1019.17,-55.2188C1019.17,-48.1769 1019.17,-37.8083 1019.17,-28.8277"/>
<polygon fill="midnightblue" stroke="midnightblue" points="1022.67,-28.5495 1019.17,-18.5496 1015.67,-28.5496 1022.67,-28.5495"/>
</g>
<!-- Node20&#45;&gt;Node18 -->
<g id="edge27" class="edge"><title>Node20&#45;&gt;Node18</title>
<path fill="none" stroke="midnightblue" d="M945.386,-110.45C959.055,-102.123 980.645,-88.9704 996.947,-79.0394"/>
<polygon fill="midnightblue" stroke="midnightblue" points="999.115,-81.817 1005.83,-73.6253 995.474,-75.8389 999.115,-81.817"/>
</g>
</g>
</svg>
