<?xml version="1.0" encoding="UTF-8" standalone="no"?>
<!DOCTYPE svg PUBLIC "-//W3C//DTD SVG 1.1//EN"
 "http://www.w3.org/Graphics/SVG/1.1/DTD/svg11.dtd">
<!-- Generated by graphviz version 2.38.0 (20140413.2041)
 -->
<!-- Title: PhysicsManager.cpp Pages: 1 -->
<svg width="1071pt" height="192pt"
 viewBox="0.00 0.00 1070.75 192.00" xmlns="http://www.w3.org/2000/svg" xmlns:xlink="http://www.w3.org/1999/xlink">
<g id="graph0" class="graph" transform="scale(1 1) rotate(0) translate(4 188)">
<title>PhysicsManager.cpp</title>
<!-- Node0 -->
<g id="node1" class="node"><title>Node0</title>
<polygon fill="#bfbfbf" stroke="black" points="591.035,-165.5 591.035,-183.5 699.31,-183.5 699.31,-165.5 591.035,-165.5"/>
<text text-anchor="middle" x="645.172" y="-171.5" font-family="Helvetica,sans-Serif" font-size="10.00">PhysicsManager.cpp</text>
</g>
<!-- Node1 -->
<g id="node2" class="node"><title>Node1</title>
<g id="a_node2"><a xlink:href="_physics_manager_8hpp.html" target="_top" xlink:title="PhysicsManager.hpp">
<polygon fill="none" stroke="black" points="458.754,-110.5 458.754,-128.5 567.591,-128.5 567.591,-110.5 458.754,-110.5"/>
<text text-anchor="middle" x="513.172" y="-116.5" font-family="Helvetica,sans-Serif" font-size="10.00">PhysicsManager.hpp</text>
</a>
</g>
</g>
<!-- Node0&#45;&gt;Node1 -->
<g id="edge1" class="edge"><title>Node0&#45;&gt;Node1</title>
<path fill="none" stroke="midnightblue" d="M625.124,-165.45C603.222,-156.656 567.915,-142.48 542.812,-132.401"/>
<polygon fill="midnightblue" stroke="midnightblue" points="543.993,-129.103 533.409,-128.625 541.385,-135.599 543.993,-129.103"/>
</g>
<!-- Node4 -->
<g id="node5" class="node"><title>Node4</title>
<polygon fill="none" stroke="#bfbfbf" points="0,-0.5 0,-18.5 54.3447,-18.5 54.3447,-0.5 0,-0.5"/>
<text text-anchor="middle" x="27.1724" y="-6.5" font-family="Helvetica,sans-Serif" font-size="10.00">iostream</text>
</g>
<!-- Node0&#45;&gt;Node4 -->
<g id="edge17" class="edge"><title>Node0&#45;&gt;Node4</title>
<path fill="none" stroke="midnightblue" d="M601.639,-165.461C522.139,-150.382 348.452,-115.594 205.172,-74 152.117,-58.5982 91.8495,-35.9862 56.8093,-22.3117"/>
<polygon fill="midnightblue" stroke="midnightblue" points="57.7887,-18.9361 47.2013,-18.5389 55.2302,-25.4518 57.7887,-18.9361"/>
</g>
<!-- Node13 -->
<g id="node14" class="node"><title>Node13</title>
<g id="a_node14"><a xlink:href="_game_object_8hpp.html" target="_top" xlink:title="GameObject.hpp">
<polygon fill="none" stroke="black" points="695.375,-110.5 695.375,-128.5 786.97,-128.5 786.97,-110.5 695.375,-110.5"/>
<text text-anchor="middle" x="741.172" y="-116.5" font-family="Helvetica,sans-Serif" font-size="10.00">GameObject.hpp</text>
</a>
</g>
</g>
<!-- Node0&#45;&gt;Node13 -->
<g id="edge18" class="edge"><title>Node0&#45;&gt;Node13</title>
<path fill="none" stroke="midnightblue" d="M659.753,-165.45C675.118,-156.968 699.554,-143.477 717.651,-133.486"/>
<polygon fill="midnightblue" stroke="midnightblue" points="719.392,-136.523 726.455,-128.625 716.009,-130.394 719.392,-136.523"/>
</g>
<!-- Node20 -->
<g id="node21" class="node"><title>Node20</title>
<g id="a_node21"><a xlink:href="_scriptable_8hpp.html" target="_top" xlink:title="Scriptable.hpp">
<polygon fill="none" stroke="black" points="892.207,-110.5 892.207,-128.5 972.138,-128.5 972.138,-110.5 892.207,-110.5"/>
<text text-anchor="middle" x="932.172" y="-116.5" font-family="Helvetica,sans-Serif" font-size="10.00">Scriptable.hpp</text>
</a>
</g>
</g>
<!-- Node0&#45;&gt;Node20 -->
<g id="edge26" class="edge"><title>Node0&#45;&gt;Node20</title>
<path fill="none" stroke="midnightblue" d="M688.761,-165.45C740.617,-155.874 827.028,-139.917 881.726,-129.816"/>
<polygon fill="midnightblue" stroke="midnightblue" points="882.69,-133.197 891.888,-127.939 881.419,-126.313 882.69,-133.197"/>
</g>
<!-- Node2 -->
<g id="node3" class="node"><title>Node2</title>
<polygon fill="none" stroke="#bfbfbf" points="873.441,-0.5 873.441,-18.5 918.904,-18.5 918.904,-0.5 873.441,-0.5"/>
<text text-anchor="middle" x="896.172" y="-6.5" font-family="Helvetica,sans-Serif" font-size="10.00">stdio.h</text>
</g>
<!-- Node1&#45;&gt;Node2 -->
<g id="edge2" class="edge"><title>Node1&#45;&gt;Node2</title>
<path fill="none" stroke="midnightblue" d="M518.238,-110.164C527.297,-96.0849 547.729,-67.8732 573.172,-55 686.616,2.3984 733.906,-41.5239 863.315,-18.8382"/>
<polygon fill="midnightblue" stroke="midnightblue" points="863.993,-22.2723 873.187,-17.0073 862.717,-15.3897 863.993,-22.2723"/>
</g>
<!-- Node3 -->
<g id="node4" class="node"><title>Node3</title>
<polygon fill="none" stroke="#bfbfbf" points="937.276,-0.5 937.276,-18.5 981.069,-18.5 981.069,-0.5 937.276,-0.5"/>
<text text-anchor="middle" x="959.172" y="-6.5" font-family="Helvetica,sans-Serif" font-size="10.00">SDL.h</text>
</g>
<!-- Node1&#45;&gt;Node3 -->
<g id="edge3" class="edge"><title>Node1&#45;&gt;Node3</title>
<path fill="none" stroke="midnightblue" d="M525.012,-110.478C546.115,-96.6165 592.073,-68.3831 635.172,-55 757.413,-17.0418 797.501,-43.0713 927.332,-18.8493"/>
<polygon fill="midnightblue" stroke="midnightblue" points="928.095,-22.2667 937.251,-16.9346 926.769,-15.3936 928.095,-22.2667"/>
</g>
<!-- Node1&#45;&gt;Node4 -->
<g id="edge4" class="edge"><title>Node1&#45;&gt;Node4</title>
<path fill="none" stroke="midnightblue" d="M469.303,-110.469C423.679,-101.975 350.241,-87.9034 287.172,-74 207.364,-56.4062 114.492,-33.0141 64.1785,-20.0957"/>
<polygon fill="midnightblue" stroke="midnightblue" points="64.9607,-16.6831 54.404,-17.5802 63.2161,-23.4622 64.9607,-16.6831"/>
</g>
<!-- Node5 -->
<g id="node6" class="node"><title>Node5</title>
<polygon fill="none" stroke="#bfbfbf" points="72.5986,-0.5 72.5986,-18.5 159.746,-18.5 159.746,-0.5 72.5986,-0.5"/>
<text text-anchor="middle" x="116.172" y="-6.5" font-family="Helvetica,sans-Serif" font-size="10.00">Box2D/Box2D.h</text>
</g>
<!-- Node1&#45;&gt;Node5 -->
<g id="edge5" class="edge"><title>Node1&#45;&gt;Node5</title>
<path fill="none" stroke="midnightblue" d="M483.657,-110.471C413.233,-91.3123 235.312,-42.9107 155.719,-21.2584"/>
<polygon fill="midnightblue" stroke="midnightblue" points="156.18,-17.7566 145.612,-18.5088 154.343,-24.5111 156.18,-17.7566"/>
</g>
<!-- Node6 -->
<g id="node7" class="node"><title>Node6</title>
<g id="a_node7"><a xlink:href="_debug_draw_8hpp.html" target="_top" xlink:title="DebugDraw.hpp">
<polygon fill="none" stroke="black" points="433.313,-55.5 433.313,-73.5 521.032,-73.5 521.032,-55.5 433.313,-55.5"/>
<text text-anchor="middle" x="477.172" y="-61.5" font-family="Helvetica,sans-Serif" font-size="10.00">DebugDraw.hpp</text>
</a>
</g>
</g>
<!-- Node1&#45;&gt;Node6 -->
<g id="edge6" class="edge"><title>Node1&#45;&gt;Node6</title>
<path fill="none" stroke="midnightblue" d="M507.547,-110.219C502.445,-102.707 494.772,-91.411 488.415,-82.0515"/>
<polygon fill="midnightblue" stroke="midnightblue" points="491.154,-79.8551 482.64,-73.5496 485.364,-83.7883 491.154,-79.8551"/>
</g>
<!-- Node6&#45;&gt;Node2 -->
<g id="edge7" class="edge"><title>Node6&#45;&gt;Node2</title>
<path fill="none" stroke="midnightblue" d="M521.168,-56.8801C525.892,-56.2207 530.63,-55.5812 535.172,-55 677.801,-36.7516 717.785,-45.5396 863.015,-18.9373"/>
<polygon fill="midnightblue" stroke="midnightblue" points="864.002,-22.3139 873.195,-17.0468 862.724,-15.4316 864.002,-22.3139"/>
</g>
<!-- Node6&#45;&gt;Node3 -->
<g id="edge9" class="edge"><title>Node6&#45;&gt;Node3</title>
<path fill="none" stroke="midnightblue" d="M521.33,-59.572C621.054,-50.6431 859.66,-28.9363 927.045,-18.7128"/>
<polygon fill="midnightblue" stroke="midnightblue" points="927.979,-22.105 937.263,-17.0007 926.822,-15.2013 927.979,-22.105"/>
</g>
<!-- Node6&#45;&gt;Node4 -->
<g id="edge13" class="edge"><title>Node6&#45;&gt;Node4</title>
<path fill="none" stroke="midnightblue" d="M433.111,-60.5788C358.962,-55.2684 204.415,-42.5079 64.6534,-19.0593"/>
<polygon fill="midnightblue" stroke="midnightblue" points="65.0627,-15.5788 54.6174,-17.3525 63.889,-22.4797 65.0627,-15.5788"/>
</g>
<!-- Node6&#45;&gt;Node5 -->
<g id="edge16" class="edge"><title>Node6&#45;&gt;Node5</title>
<path fill="none" stroke="midnightblue" d="M433.127,-57.4251C375.083,-49.3602 269.538,-34.4913 169.798,-19.2281"/>
<polygon fill="midnightblue" stroke="midnightblue" points="170.271,-15.7598 159.856,-17.7023 169.209,-22.6788 170.271,-15.7598"/>
</g>
<!-- Node7 -->
<g id="node8" class="node"><title>Node7</title>
<polygon fill="none" stroke="#bfbfbf" points="494.921,-0.5 494.921,-18.5 585.423,-18.5 585.423,-0.5 494.921,-0.5"/>
<text text-anchor="middle" x="540.172" y="-6.5" font-family="Helvetica,sans-Serif" font-size="10.00">SRE/Shader.hpp</text>
</g>
<!-- Node6&#45;&gt;Node7 -->
<g id="edge8" class="edge"><title>Node6&#45;&gt;Node7</title>
<path fill="none" stroke="midnightblue" d="M486.741,-55.4504C496.269,-47.4345 511.113,-34.9471 522.739,-25.1663"/>
<polygon fill="midnightblue" stroke="midnightblue" points="525.115,-27.7413 530.514,-18.6253 520.609,-22.3847 525.115,-27.7413"/>
</g>
<!-- Node8 -->
<g id="node9" class="node"><title>Node8</title>
<polygon fill="none" stroke="#bfbfbf" points="603.429,-0.5 603.429,-18.5 748.916,-18.5 748.916,-0.5 603.429,-0.5"/>
<text text-anchor="middle" x="676.172" y="-6.5" font-family="Helvetica,sans-Serif" font-size="10.00">glm/gtc/matrix_transform.hpp</text>
</g>
<!-- Node6&#45;&gt;Node8 -->
<g id="edge10" class="edge"><title>Node6&#45;&gt;Node8</title>
<path fill="none" stroke="midnightblue" d="M507.396,-55.4504C541.831,-46.2794 598.241,-31.2555 636.266,-21.1283"/>
<polygon fill="midnightblue" stroke="midnightblue" points="637.228,-24.4941 645.991,-18.5383 635.427,-17.7299 637.228,-24.4941"/>
</g>
<!-- Node9 -->
<g id="node10" class="node"><title>Node9</title>
<polygon fill="none" stroke="#bfbfbf" points="767.037,-0.5 767.037,-18.5 855.308,-18.5 855.308,-0.5 767.037,-0.5"/>
<text text-anchor="middle" x="811.172" y="-6.5" font-family="Helvetica,sans-Serif" font-size="10.00">SRE/Debug.hpp</text>
</g>
<!-- Node6&#45;&gt;Node9 -->
<g id="edge11" class="edge"><title>Node6&#45;&gt;Node9</title>
<path fill="none" stroke="midnightblue" d="M521.465,-56.5132C574.836,-48.0883 667.516,-33.4388 756.892,-19.2017"/>
<polygon fill="midnightblue" stroke="midnightblue" points="757.602,-22.6327 766.927,-17.6026 756.501,-15.7199 757.602,-22.6327"/>
</g>
<!-- Node10 -->
<g id="node11" class="node"><title>Node10</title>
<polygon fill="none" stroke="#bfbfbf" points="177.375,-0.5 177.375,-18.5 268.97,-18.5 268.97,-0.5 177.375,-0.5"/>
<text text-anchor="middle" x="223.172" y="-6.5" font-family="Helvetica,sans-Serif" font-size="10.00">SRE/Texture.hpp</text>
</g>
<!-- Node6&#45;&gt;Node10 -->
<g id="edge12" class="edge"><title>Node6&#45;&gt;Node10</title>
<path fill="none" stroke="midnightblue" d="M438.595,-55.4504C393.895,-46.1233 320.183,-30.7424 271.65,-20.6155"/>
<polygon fill="midnightblue" stroke="midnightblue" points="272.2,-17.1548 261.696,-18.5383 270.77,-24.0072 272.2,-17.1548"/>
</g>
<!-- Node11 -->
<g id="node12" class="node"><title>Node11</title>
<polygon fill="none" stroke="#bfbfbf" points="286.751,-0.5 286.751,-18.5 415.593,-18.5 415.593,-0.5 286.751,-0.5"/>
<text text-anchor="middle" x="351.172" y="-6.5" font-family="Helvetica,sans-Serif" font-size="10.00">glm/gtx/closest_point.hpp</text>
</g>
<!-- Node6&#45;&gt;Node11 -->
<g id="edge14" class="edge"><title>Node6&#45;&gt;Node11</title>
<path fill="none" stroke="midnightblue" d="M458.036,-55.4504C437.221,-46.6951 403.725,-32.6055 379.783,-22.5346"/>
<polygon fill="midnightblue" stroke="midnightblue" points="381.064,-19.2765 370.489,-18.6253 378.35,-25.7289 381.064,-19.2765"/>
</g>
<!-- Node12 -->
<g id="node13" class="node"><title>Node12</title>
<polygon fill="none" stroke="#bfbfbf" points="433.557,-0.5 433.557,-18.5 476.788,-18.5 476.788,-0.5 433.557,-0.5"/>
<text text-anchor="middle" x="455.172" y="-6.5" font-family="Helvetica,sans-Serif" font-size="10.00">time.h</text>
</g>
<!-- Node6&#45;&gt;Node12 -->
<g id="edge15" class="edge"><title>Node6&#45;&gt;Node12</title>
<path fill="none" stroke="midnightblue" d="M473.735,-55.2188C470.714,-47.9421 466.219,-37.1134 462.409,-27.9345"/>
<polygon fill="midnightblue" stroke="midnightblue" points="465.58,-26.4436 458.514,-18.5496 459.115,-29.1273 465.58,-26.4436"/>
</g>
<!-- Node14 -->
<g id="node15" class="node"><title>Node14</title>
<polygon fill="none" stroke="#bfbfbf" points="785.544,-55.5 785.544,-73.5 868.8,-73.5 868.8,-55.5 785.544,-55.5"/>
<text text-anchor="middle" x="827.172" y="-61.5" font-family="Helvetica,sans-Serif" font-size="10.00">SRE/Mesh.hpp</text>
</g>
<!-- Node13&#45;&gt;Node14 -->
<g id="edge19" class="edge"><title>Node13&#45;&gt;Node14</title>
<path fill="none" stroke="midnightblue" d="M754.234,-110.45C767.746,-102.123 789.088,-88.9704 805.203,-79.0394"/>
<polygon fill="midnightblue" stroke="midnightblue" points="807.311,-81.8515 813.988,-73.6253 803.638,-75.8922 807.311,-81.8515"/>
</g>
<!-- Node15 -->
<g id="node16" class="node"><title>Node15</title>
<polygon fill="none" stroke="#bfbfbf" points="886.938,-55.5 886.938,-73.5 957.406,-73.5 957.406,-55.5 886.938,-55.5"/>
<text text-anchor="middle" x="922.172" y="-61.5" font-family="Helvetica,sans-Serif" font-size="10.00">glm/glm.hpp</text>
</g>
<!-- Node13&#45;&gt;Node15 -->
<g id="edge20" class="edge"><title>Node13&#45;&gt;Node15</title>
<path fill="none" stroke="midnightblue" d="M768.662,-110.45C799.716,-101.357 850.418,-86.5108 884.989,-76.3879"/>
<polygon fill="midnightblue" stroke="midnightblue" points="886.107,-79.7075 894.721,-73.5383 884.14,-72.9896 886.107,-79.7075"/>
</g>
<!-- Node16 -->
<g id="node17" class="node"><title>Node16</title>
<polygon fill="none" stroke="#bfbfbf" points="998.946,-0.5 998.946,-18.5 1039.4,-18.5 1039.4,-0.5 998.946,-0.5"/>
<text text-anchor="middle" x="1019.17" y="-6.5" font-family="Helvetica,sans-Serif" font-size="10.00">string</text>
</g>
<!-- Node13&#45;&gt;Node16 -->
<g id="edge21" class="edge"><title>Node13&#45;&gt;Node16</title>
<path fill="none" stroke="midnightblue" d="M707.931,-110.421C671.555,-100.079 621.263,-80.4165 644.172,-55 694.008,0.290102 898.345,-31.3641 988.76,-18.6749"/>
<polygon fill="midnightblue" stroke="midnightblue" points="989.411,-22.1147 998.691,-17.0027 988.249,-15.2119 989.411,-22.1147"/>
</g>
<!-- Node17 -->
<g id="node18" class="node"><title>Node17</title>
<polygon fill="none" stroke="#bfbfbf" points="653.557,-55.5 653.557,-73.5 696.788,-73.5 696.788,-55.5 653.557,-55.5"/>
<text text-anchor="middle" x="675.172" y="-61.5" font-family="Helvetica,sans-Serif" font-size="10.00">vector</text>
</g>
<!-- Node13&#45;&gt;Node17 -->
<g id="edge22" class="edge"><title>Node13&#45;&gt;Node17</title>
<path fill="none" stroke="midnightblue" d="M731.148,-110.45C721.166,-102.434 705.616,-89.9471 693.436,-80.1663"/>
<polygon fill="midnightblue" stroke="midnightblue" points="695.279,-77.1577 685.291,-73.6253 690.896,-82.6157 695.279,-77.1577"/>
</g>
<!-- Node18 -->
<g id="node19" class="node"><title>Node18</title>
<g id="a_node19"><a xlink:href="_component_8hpp.html" target="_top" xlink:title="Component.hpp">
<polygon fill="none" stroke="black" points="975.591,-55.5 975.591,-73.5 1062.75,-73.5 1062.75,-55.5 975.591,-55.5"/>
<text text-anchor="middle" x="1019.17" y="-61.5" font-family="Helvetica,sans-Serif" font-size="10.00">Component.hpp</text>
</a>
</g>
</g>
<!-- Node13&#45;&gt;Node18 -->
<g id="edge23" class="edge"><title>Node13&#45;&gt;Node18</title>
<path fill="none" stroke="midnightblue" d="M783.395,-110.45C832.625,-101.065 914.009,-85.5491 967.111,-75.4254"/>
<polygon fill="midnightblue" stroke="midnightblue" points="967.842,-78.8492 977.009,-73.5383 966.531,-71.9731 967.842,-78.8492"/>
</g>
<!-- Node19 -->
<g id="node20" class="node"><title>Node19</title>
<polygon fill="none" stroke="#bfbfbf" points="715.116,-55.5 715.116,-73.5 767.229,-73.5 767.229,-55.5 715.116,-55.5"/>
<text text-anchor="middle" x="741.172" y="-61.5" font-family="Helvetica,sans-Serif" font-size="10.00">memory</text>
</g>
<!-- Node13&#45;&gt;Node19 -->
<g id="edge25" class="edge"><title>Node13&#45;&gt;Node19</title>
<path fill="none" stroke="midnightblue" d="M741.172,-110.219C741.172,-103.177 741.172,-92.8083 741.172,-83.8277"/>
<polygon fill="midnightblue" stroke="midnightblue" points="744.672,-83.5495 741.172,-73.5496 737.672,-83.5496 744.672,-83.5495"/>
</g>
<!-- Node18&#45;&gt;Node16 -->
<g id="edge24" class="edge"><title>Node18&#45;&gt;Node16</title>
<path fill="none" stroke="midnightblue" d="M1019.17,-55.2188C1019.17,-48.1769 1019.17,-37.8083 1019.17,-28.8277"/>
<polygon fill="midnightblue" stroke="midnightblue" points="1022.67,-28.5495 1019.17,-18.5496 1015.67,-28.5496 1022.67,-28.5495"/>
</g>
<!-- Node20&#45;&gt;Node18 -->
<g id="edge27" class="edge"><title>Node20&#45;&gt;Node18</title>
<path fill="none" stroke="midnightblue" d="M945.386,-110.45C959.055,-102.123 980.645,-88.9704 996.947,-79.0394"/>
<polygon fill="midnightblue" stroke="midnightblue" points="999.115,-81.817 1005.83,-73.6253 995.474,-75.8389 999.115,-81.817"/>
</g>
</g>
</svg>
