<?xml version="1.0" encoding="UTF-8" standalone="no"?>
<!DOCTYPE svg PUBLIC "-//W3C//DTD SVG 1.1//EN"
 "http://www.w3.org/Graphics/SVG/1.1/DTD/svg11.dtd">
<!-- Generated by graphviz version 2.38.0 (20140413.2041)
 -->
<!-- Title: PhysicsManager.hpp Pages: 1 -->
<svg width="399pt" height="192pt"
 viewBox="0.00 0.00 399.50 192.00" xmlns="http://www.w3.org/2000/svg" xmlns:xlink="http://www.w3.org/1999/xlink">
<g id="graph0" class="graph" transform="scale(1 1) rotate(0) translate(4 188)">
<title>PhysicsManager.hpp</title>
<!-- Node12 -->
<g id="node1" class="node"><title>Node12</title>
<polygon fill="#bfbfbf" stroke="black" points="200.943,-165.5 200.943,-183.5 309.78,-183.5 309.78,-165.5 200.943,-165.5"/>
<text text-anchor="middle" x="255.362" y="-171.5" font-family="Helvetica,sans-Serif" font-size="10.00">PhysicsManager.hpp</text>
</g>
<!-- Node13 -->
<g id="node2" class="node"><title>Node13</title>
<g id="a_node2"><a xlink:href="_rigidbody_8hpp.html" target="_top" xlink:title="Rigidbody.hpp">
<polygon fill="none" stroke="black" points="129.763,-110.5 129.763,-128.5 208.961,-128.5 208.961,-110.5 129.763,-110.5"/>
<text text-anchor="middle" x="169.362" y="-116.5" font-family="Helvetica,sans-Serif" font-size="10.00">Rigidbody.hpp</text>
</a>
</g>
</g>
<!-- Node12&#45;&gt;Node13 -->
<g id="edge1" class="edge"><title>Node12&#45;&gt;Node13</title>
<path fill="none" stroke="midnightblue" d="M233.538,-160.051C217.456,-150.139 196.106,-136.982 182.546,-128.625"/>
<polygon fill="midnightblue" stroke="midnightblue" points="231.951,-163.184 242.3,-165.45 235.623,-157.224 231.951,-163.184"/>
</g>
<!-- Node15 -->
<g id="node4" class="node"><title>Node15</title>
<g id="a_node4"><a xlink:href="_engine_8cpp.html" target="_top" xlink:title="Engine.cpp">
<polygon fill="none" stroke="black" points="184.342,-0.5 184.342,-18.5 250.381,-18.5 250.381,-0.5 184.342,-0.5"/>
<text text-anchor="middle" x="217.362" y="-6.5" font-family="Helvetica,sans-Serif" font-size="10.00">Engine.cpp</text>
</a>
</g>
</g>
<!-- Node12&#45;&gt;Node15 -->
<g id="edge7" class="edge"><title>Node12&#45;&gt;Node15</title>
<path fill="none" stroke="midnightblue" d="M251.119,-155.302C242.895,-120.023 225.079,-43.6006 219.249,-18.5971"/>
<polygon fill="midnightblue" stroke="midnightblue" points="247.746,-156.249 253.425,-165.193 254.563,-154.659 247.746,-156.249"/>
</g>
<!-- Node18 -->
<g id="node7" class="node"><title>Node18</title>
<g id="a_node7"><a xlink:href="_physics_manager_8cpp.html" target="_top" xlink:title="PhysicsManager.cpp">
<polygon fill="none" stroke="black" points="283.224,-110.5 283.224,-128.5 391.5,-128.5 391.5,-110.5 283.224,-110.5"/>
<text text-anchor="middle" x="337.362" y="-116.5" font-family="Helvetica,sans-Serif" font-size="10.00">PhysicsManager.cpp</text>
</a>
</g>
</g>
<!-- Node12&#45;&gt;Node18 -->
<g id="edge8" class="edge"><title>Node12&#45;&gt;Node18</title>
<path fill="none" stroke="midnightblue" d="M276.601,-159.772C291.885,-149.894 311.983,-136.904 324.791,-128.625"/>
<polygon fill="midnightblue" stroke="midnightblue" points="274.314,-157.083 267.816,-165.45 278.114,-162.962 274.314,-157.083"/>
</g>
<!-- Node14 -->
<g id="node3" class="node"><title>Node14</title>
<g id="a_node3"><a xlink:href="_scene_parser_8hpp.html" target="_top" xlink:title="SceneParser.hpp">
<polygon fill="none" stroke="black" points="0,-55.5 0,-73.5 92.7236,-73.5 92.7236,-55.5 0,-55.5"/>
<text text-anchor="middle" x="46.3618" y="-61.5" font-family="Helvetica,sans-Serif" font-size="10.00">SceneParser.hpp</text>
</a>
</g>
</g>
<!-- Node13&#45;&gt;Node14 -->
<g id="edge2" class="edge"><title>Node13&#45;&gt;Node14</title>
<path fill="none" stroke="midnightblue" d="M141.323,-106.418C118.025,-96.3794 85.5181,-82.3722 65.2187,-73.6253"/>
<polygon fill="midnightblue" stroke="midnightblue" points="140.112,-109.707 150.681,-110.45 142.882,-103.279 140.112,-109.707"/>
</g>
<!-- Node13&#45;&gt;Node15 -->
<g id="edge5" class="edge"><title>Node13&#45;&gt;Node15</title>
<path fill="none" stroke="midnightblue" d="M181.61,-102.192C187.299,-94.0462 193.796,-83.847 198.362,-74 207.171,-54.9998 213.058,-30.9205 215.725,-18.5874"/>
<polygon fill="midnightblue" stroke="midnightblue" points="178.706,-100.235 175.679,-110.389 184.377,-104.339 178.706,-100.235"/>
</g>
<!-- Node17 -->
<g id="node6" class="node"><title>Node17</title>
<g id="a_node6"><a xlink:href="_rigidbody_8cpp.html" target="_top" xlink:title="Rigidbody.cpp">
<polygon fill="none" stroke="black" points="111.043,-55.5 111.043,-73.5 189.68,-73.5 189.68,-55.5 111.043,-55.5"/>
<text text-anchor="middle" x="150.362" y="-61.5" font-family="Helvetica,sans-Serif" font-size="10.00">Rigidbody.cpp</text>
</a>
</g>
</g>
<!-- Node13&#45;&gt;Node17 -->
<g id="edge6" class="edge"><title>Node13&#45;&gt;Node17</title>
<path fill="none" stroke="midnightblue" d="M163.006,-100.771C159.703,-91.5577 155.829,-80.7498 153.248,-73.5496"/>
<polygon fill="midnightblue" stroke="midnightblue" points="159.724,-101.986 166.393,-110.219 166.313,-99.6242 159.724,-101.986"/>
</g>
<!-- Node14&#45;&gt;Node15 -->
<g id="edge3" class="edge"><title>Node14&#45;&gt;Node15</title>
<path fill="none" stroke="midnightblue" d="M81.9527,-52.4689C114.615,-42.3454 162.23,-27.5875 191.427,-18.5383"/>
<polygon fill="midnightblue" stroke="midnightblue" points="80.8486,-49.1468 72.333,-55.4504 82.921,-55.833 80.8486,-49.1468"/>
</g>
<!-- Node16 -->
<g id="node5" class="node"><title>Node16</title>
<g id="a_node5"><a xlink:href="_scene_parser_8cpp.html" target="_top" xlink:title="SceneParser.cpp">
<polygon fill="none" stroke="black" points="0.280762,-0.5 0.280762,-18.5 92.4429,-18.5 92.4429,-0.5 0.280762,-0.5"/>
<text text-anchor="middle" x="46.3618" y="-6.5" font-family="Helvetica,sans-Serif" font-size="10.00">SceneParser.cpp</text>
</a>
</g>
</g>
<!-- Node14&#45;&gt;Node16 -->
<g id="edge4" class="edge"><title>Node14&#45;&gt;Node16</title>
<path fill="none" stroke="midnightblue" d="M46.3618,-45.1746C46.3618,-36.0945 46.3618,-25.5949 46.3618,-18.5496"/>
<polygon fill="midnightblue" stroke="midnightblue" points="42.8619,-45.2187 46.3618,-55.2188 49.8619,-45.2188 42.8619,-45.2187"/>
</g>
</g>
</svg>
