<?xml version="1.0" encoding="UTF-8" standalone="no"?>
<!DOCTYPE svg PUBLIC "-//W3C//DTD SVG 1.1//EN"
 "http://www.w3.org/Graphics/SVG/1.1/DTD/svg11.dtd">
<!-- Generated by graphviz version 2.38.0 (20140413.2041)
 -->
<!-- Title: PhysicsManager.hpp Pages: 1 -->
<svg width="989pt" height="137pt"
 viewBox="0.00 0.00 989.35 137.00" xmlns="http://www.w3.org/2000/svg" xmlns:xlink="http://www.w3.org/1999/xlink">
<g id="graph0" class="graph" transform="scale(1 1) rotate(0) translate(4 133)">
<title>PhysicsManager.hpp</title>
<!-- Node0 -->
<g id="node1" class="node"><title>Node0</title>
<polygon fill="#bfbfbf" stroke="black" points="98.313,-110.5 98.313,-128.5 207.15,-128.5 207.15,-110.5 98.313,-110.5"/>
<text text-anchor="middle" x="152.731" y="-116.5" font-family="Helvetica,sans-Serif" font-size="10.00">PhysicsManager.hpp</text>
</g>
<!-- Node1 -->
<g id="node2" class="node"><title>Node1</title>
<polygon fill="none" stroke="#bfbfbf" points="0,-0.5 0,-18.5 45.4629,-18.5 45.4629,-0.5 0,-0.5"/>
<text text-anchor="middle" x="22.7314" y="-6.5" font-family="Helvetica,sans-Serif" font-size="10.00">stdio.h</text>
</g>
<!-- Node0&#45;&gt;Node1 -->
<g id="edge1" class="edge"><title>Node0&#45;&gt;Node1</title>
<path fill="none" stroke="midnightblue" d="M142.96,-110.382C121.127,-92.244 68.1258,-48.2122 40.3602,-25.1455"/>
<polygon fill="midnightblue" stroke="midnightblue" points="42.5445,-22.4098 32.616,-18.7118 38.0713,-27.7942 42.5445,-22.4098"/>
</g>
<!-- Node2 -->
<g id="node3" class="node"><title>Node2</title>
<polygon fill="none" stroke="#bfbfbf" points="63.835,-0.5 63.835,-18.5 107.628,-18.5 107.628,-0.5 63.835,-0.5"/>
<text text-anchor="middle" x="85.7314" y="-6.5" font-family="Helvetica,sans-Serif" font-size="10.00">SDL.h</text>
</g>
<!-- Node0&#45;&gt;Node2 -->
<g id="edge2" class="edge"><title>Node0&#45;&gt;Node2</title>
<path fill="none" stroke="midnightblue" d="M147.696,-110.382C136.783,-92.7913 110.761,-50.8457 96.1471,-27.2894"/>
<polygon fill="midnightblue" stroke="midnightblue" points="99.0717,-25.3643 90.8258,-18.7118 93.1233,-29.0545 99.0717,-25.3643"/>
</g>
<!-- Node3 -->
<g id="node4" class="node"><title>Node3</title>
<polygon fill="none" stroke="#bfbfbf" points="125.559,-0.5 125.559,-18.5 179.904,-18.5 179.904,-0.5 125.559,-0.5"/>
<text text-anchor="middle" x="152.731" y="-6.5" font-family="Helvetica,sans-Serif" font-size="10.00">iostream</text>
</g>
<!-- Node0&#45;&gt;Node3 -->
<g id="edge3" class="edge"><title>Node0&#45;&gt;Node3</title>
<path fill="none" stroke="midnightblue" d="M152.731,-110.382C152.731,-93.1822 152.731,-52.698 152.731,-28.8866"/>
<polygon fill="midnightblue" stroke="midnightblue" points="156.232,-28.7117 152.731,-18.7118 149.232,-28.7118 156.232,-28.7117"/>
</g>
<!-- Node4 -->
<g id="node5" class="node"><title>Node4</title>
<polygon fill="none" stroke="#bfbfbf" points="198.158,-0.5 198.158,-18.5 285.305,-18.5 285.305,-0.5 198.158,-0.5"/>
<text text-anchor="middle" x="241.731" y="-6.5" font-family="Helvetica,sans-Serif" font-size="10.00">Box2D/Box2D.h</text>
</g>
<!-- Node0&#45;&gt;Node4 -->
<g id="edge4" class="edge"><title>Node0&#45;&gt;Node4</title>
<path fill="none" stroke="midnightblue" d="M159.421,-110.382C174.046,-92.6349 209.1,-50.0981 228.41,-26.6656"/>
<polygon fill="midnightblue" stroke="midnightblue" points="231.306,-28.6549 234.964,-18.7118 225.904,-24.2031 231.306,-28.6549"/>
</g>
<!-- Node5 -->
<g id="node6" class="node"><title>Node5</title>
<g id="a_node6"><a xlink:href="_debug_draw_8hpp.html" target="_top" xlink:title="DebugDraw.hpp">
<polygon fill="none" stroke="black" points="304.872,-55.5 304.872,-73.5 392.591,-73.5 392.591,-55.5 304.872,-55.5"/>
<text text-anchor="middle" x="348.731" y="-61.5" font-family="Helvetica,sans-Serif" font-size="10.00">DebugDraw.hpp</text>
</a>
</g>
</g>
<!-- Node0&#45;&gt;Node5 -->
<g id="edge5" class="edge"><title>Node0&#45;&gt;Node5</title>
<path fill="none" stroke="midnightblue" d="M182.5,-110.45C216.271,-101.318 271.503,-86.3833 308.948,-76.2578"/>
<polygon fill="midnightblue" stroke="midnightblue" points="310.265,-79.5274 319.005,-73.5383 308.438,-72.7701 310.265,-79.5274"/>
</g>
<!-- Node5&#45;&gt;Node1 -->
<g id="edge6" class="edge"><title>Node5&#45;&gt;Node1</title>
<path fill="none" stroke="midnightblue" d="M304.632,-58.354C248.865,-51.5099 149.746,-38.2269 55.6957,-18.9957"/>
<polygon fill="midnightblue" stroke="midnightblue" points="56.2339,-15.5329 45.7318,-16.9316 54.8139,-22.3874 56.2339,-15.5329"/>
</g>
<!-- Node5&#45;&gt;Node2 -->
<g id="edge8" class="edge"><title>Node5&#45;&gt;Node2</title>
<path fill="none" stroke="midnightblue" d="M304.471,-56.0707C259.731,-48.3248 188.411,-35.3338 117.668,-19.0665"/>
<polygon fill="midnightblue" stroke="midnightblue" points="118.225,-15.6028 107.693,-16.7496 116.642,-22.4213 118.225,-15.6028"/>
</g>
<!-- Node5&#45;&gt;Node3 -->
<g id="edge12" class="edge"><title>Node5&#45;&gt;Node3</title>
<path fill="none" stroke="midnightblue" d="M318.963,-55.4504C284.409,-46.1067 227.387,-30.6875 189.939,-20.5614"/>
<polygon fill="midnightblue" stroke="midnightblue" points="190.498,-17.0868 179.931,-17.8551 188.671,-23.8441 190.498,-17.0868"/>
</g>
<!-- Node5&#45;&gt;Node4 -->
<g id="edge15" class="edge"><title>Node5&#45;&gt;Node4</title>
<path fill="none" stroke="midnightblue" d="M332.48,-55.4504C315.119,-46.8508 287.368,-33.1048 267.12,-23.0755"/>
<polygon fill="midnightblue" stroke="midnightblue" points="268.65,-19.9276 258.135,-18.6253 265.543,-26.2003 268.65,-19.9276"/>
</g>
<!-- Node6 -->
<g id="node7" class="node"><title>Node6</title>
<polygon fill="none" stroke="#bfbfbf" points="303.48,-0.5 303.48,-18.5 393.982,-18.5 393.982,-0.5 303.48,-0.5"/>
<text text-anchor="middle" x="348.731" y="-6.5" font-family="Helvetica,sans-Serif" font-size="10.00">SRE/Shader.hpp</text>
</g>
<!-- Node5&#45;&gt;Node6 -->
<g id="edge7" class="edge"><title>Node5&#45;&gt;Node6</title>
<path fill="none" stroke="midnightblue" d="M348.731,-55.2188C348.731,-48.1769 348.731,-37.8083 348.731,-28.8277"/>
<polygon fill="midnightblue" stroke="midnightblue" points="352.232,-28.5495 348.731,-18.5496 345.232,-28.5496 352.232,-28.5495"/>
</g>
<!-- Node7 -->
<g id="node8" class="node"><title>Node7</title>
<polygon fill="none" stroke="#bfbfbf" points="411.988,-0.5 411.988,-18.5 557.475,-18.5 557.475,-0.5 411.988,-0.5"/>
<text text-anchor="middle" x="484.731" y="-6.5" font-family="Helvetica,sans-Serif" font-size="10.00">glm/gtc/matrix_transform.hpp</text>
</g>
<!-- Node5&#45;&gt;Node7 -->
<g id="edge9" class="edge"><title>Node5&#45;&gt;Node7</title>
<path fill="none" stroke="midnightblue" d="M369.387,-55.4504C392.053,-46.6173 428.652,-32.3546 454.537,-22.267"/>
<polygon fill="midnightblue" stroke="midnightblue" points="455.835,-25.5176 463.882,-18.6253 453.293,-18.9953 455.835,-25.5176"/>
</g>
<!-- Node8 -->
<g id="node9" class="node"><title>Node8</title>
<polygon fill="none" stroke="#bfbfbf" points="575.596,-0.5 575.596,-18.5 663.867,-18.5 663.867,-0.5 575.596,-0.5"/>
<text text-anchor="middle" x="619.731" y="-6.5" font-family="Helvetica,sans-Serif" font-size="10.00">SRE/Debug.hpp</text>
</g>
<!-- Node5&#45;&gt;Node8 -->
<g id="edge10" class="edge"><title>Node5&#45;&gt;Node8</title>
<path fill="none" stroke="midnightblue" d="M389.891,-55.4504C437.782,-46.0843 516.887,-30.6136 568.658,-20.4886"/>
<polygon fill="midnightblue" stroke="midnightblue" points="569.488,-23.8927 578.63,-18.5383 568.144,-17.0228 569.488,-23.8927"/>
</g>
<!-- Node9 -->
<g id="node10" class="node"><title>Node9</title>
<polygon fill="none" stroke="#bfbfbf" points="681.934,-0.5 681.934,-18.5 773.529,-18.5 773.529,-0.5 681.934,-0.5"/>
<text text-anchor="middle" x="727.731" y="-6.5" font-family="Helvetica,sans-Serif" font-size="10.00">SRE/Texture.hpp</text>
</g>
<!-- Node5&#45;&gt;Node9 -->
<g id="edge11" class="edge"><title>Node5&#45;&gt;Node9</title>
<path fill="none" stroke="midnightblue" d="M392.786,-57.6886C453.262,-49.6581 565.658,-34.5449 671.894,-19.1011"/>
<polygon fill="midnightblue" stroke="midnightblue" points="672.433,-22.5596 681.824,-17.6539 671.424,-15.6327 672.433,-22.5596"/>
</g>
<!-- Node10 -->
<g id="node11" class="node"><title>Node10</title>
<polygon fill="none" stroke="#bfbfbf" points="791.311,-0.5 791.311,-18.5 920.152,-18.5 920.152,-0.5 791.311,-0.5"/>
<text text-anchor="middle" x="855.731" y="-6.5" font-family="Helvetica,sans-Serif" font-size="10.00">glm/gtx/closest_point.hpp</text>
</g>
<!-- Node5&#45;&gt;Node10 -->
<g id="edge13" class="edge"><title>Node5&#45;&gt;Node10</title>
<path fill="none" stroke="midnightblue" d="M392.801,-59.1833C469.481,-51.6281 632.695,-35.3526 781.049,-19.1718"/>
<polygon fill="midnightblue" stroke="midnightblue" points="781.69,-22.6227 791.25,-18.0567 780.929,-15.6642 781.69,-22.6227"/>
</g>
<!-- Node11 -->
<g id="node12" class="node"><title>Node11</title>
<polygon fill="none" stroke="#bfbfbf" points="938.116,-0.5 938.116,-18.5 981.347,-18.5 981.347,-0.5 938.116,-0.5"/>
<text text-anchor="middle" x="959.731" y="-6.5" font-family="Helvetica,sans-Serif" font-size="10.00">time.h</text>
</g>
<!-- Node5&#45;&gt;Node11 -->
<g id="edge14" class="edge"><title>Node5&#45;&gt;Node11</title>
<path fill="none" stroke="midnightblue" d="M392.74,-62.9826C488.517,-61.2439 723.011,-53.6654 927.796,-18.7963"/>
<polygon fill="midnightblue" stroke="midnightblue" points="928.576,-22.2135 937.833,-17.061 927.383,-15.3159 928.576,-22.2135"/>
</g>
</g>
</svg>
