<?xml version="1.0" encoding="UTF-8" standalone="no"?>
<!DOCTYPE svg PUBLIC "-//W3C//DTD SVG 1.1//EN"
 "http://www.w3.org/Graphics/SVG/1.1/DTD/svg11.dtd">
<!-- Generated by graphviz version 2.38.0 (20140413.2041)
 -->
<!-- Title: PlayerPrefManager.hpp Pages: 1 -->
<svg width="174pt" height="82pt"
 viewBox="0.00 0.00 174.40 82.00" xmlns="http://www.w3.org/2000/svg" xmlns:xlink="http://www.w3.org/1999/xlink">
<g id="graph0" class="graph" transform="scale(1 1) rotate(0) translate(4 78)">
<title>PlayerPrefManager.hpp</title>
<!-- Node0 -->
<g id="node1" class="node"><title>Node0</title>
<polygon fill="#bfbfbf" stroke="black" points="15.6924,-55.5 15.6924,-73.5 136.761,-73.5 136.761,-55.5 15.6924,-55.5"/>
<text text-anchor="middle" x="76.2266" y="-61.5" font-family="Helvetica,sans-Serif" font-size="10.00">PlayerPrefManager.hpp</text>
</g>
<!-- Node1 -->
<g id="node2" class="node"><title>Node1</title>
<polygon fill="none" stroke="#bfbfbf" points="0,-0.5 0,-18.5 40.4531,-18.5 40.4531,-0.5 0,-0.5"/>
<text text-anchor="middle" x="20.2266" y="-6.5" font-family="Helvetica,sans-Serif" font-size="10.00">string</text>
</g>
<!-- Node0&#45;&gt;Node1 -->
<g id="edge1" class="edge"><title>Node0&#45;&gt;Node1</title>
<path fill="none" stroke="midnightblue" d="M67.4766,-55.2188C59.1267,-47.3162 46.3501,-35.2241 36.1873,-25.6057"/>
<polygon fill="midnightblue" stroke="midnightblue" points="38.4006,-22.8814 28.7318,-18.5496 33.5889,-27.9655 38.4006,-22.8814"/>
</g>
<!-- Node2 -->
<g id="node3" class="node"><title>Node2</title>
<polygon fill="none" stroke="#bfbfbf" points="58.5,-0.5 58.5,-18.5 93.9531,-18.5 93.9531,-0.5 58.5,-0.5"/>
<text text-anchor="middle" x="76.2266" y="-6.5" font-family="Helvetica,sans-Serif" font-size="10.00">map</text>
</g>
<!-- Node0&#45;&gt;Node2 -->
<g id="edge2" class="edge"><title>Node0&#45;&gt;Node2</title>
<path fill="none" stroke="midnightblue" d="M76.2266,-55.2188C76.2266,-48.1769 76.2266,-37.8083 76.2266,-28.8277"/>
<polygon fill="midnightblue" stroke="midnightblue" points="79.7267,-28.5495 76.2266,-18.5496 72.7267,-28.5496 79.7267,-28.5495"/>
</g>
<!-- Node3 -->
<g id="node4" class="node"><title>Node3</title>
<polygon fill="none" stroke="#bfbfbf" points="112.054,-0.5 112.054,-18.5 166.399,-18.5 166.399,-0.5 112.054,-0.5"/>
<text text-anchor="middle" x="139.227" y="-6.5" font-family="Helvetica,sans-Serif" font-size="10.00">iostream</text>
</g>
<!-- Node0&#45;&gt;Node3 -->
<g id="edge3" class="edge"><title>Node0&#45;&gt;Node3</title>
<path fill="none" stroke="midnightblue" d="M85.7949,-55.4504C95.3233,-47.4345 110.167,-34.9471 121.793,-25.1663"/>
<polygon fill="midnightblue" stroke="midnightblue" points="124.169,-27.7413 129.568,-18.6253 119.663,-22.3847 124.169,-27.7413"/>
</g>
</g>
</svg>
