<?xml version="1.0" encoding="UTF-8" standalone="no"?>
<!DOCTYPE svg PUBLIC "-//W3C//DTD SVG 1.1//EN"
 "http://www.w3.org/Graphics/SVG/1.1/DTD/svg11.dtd">
<!-- Generated by graphviz version 2.38.0 (20140413.2041)
 -->
<!-- Title: PlayerPrefManager.cpp Pages: 1 -->
<svg width="954pt" height="137pt"
 viewBox="0.00 0.00 953.84 137.00" xmlns="http://www.w3.org/2000/svg" xmlns:xlink="http://www.w3.org/1999/xlink">
<g id="graph0" class="graph" transform="scale(1 1) rotate(0) translate(4 133)">
<title>PlayerPrefManager.cpp</title>
<!-- Node0 -->
<g id="node1" class="node"><title>Node0</title>
<polygon fill="#bfbfbf" stroke="black" points="307.973,-110.5 307.973,-128.5 428.48,-128.5 428.48,-110.5 307.973,-110.5"/>
<text text-anchor="middle" x="368.227" y="-116.5" font-family="Helvetica,sans-Serif" font-size="10.00">PlayerPrefManager.cpp</text>
</g>
<!-- Node1 -->
<g id="node2" class="node"><title>Node1</title>
<polygon fill="none" stroke="#bfbfbf" points="58.5,-0.5 58.5,-18.5 93.9531,-18.5 93.9531,-0.5 58.5,-0.5"/>
<text text-anchor="middle" x="76.2266" y="-6.5" font-family="Helvetica,sans-Serif" font-size="10.00">map</text>
</g>
<!-- Node0&#45;&gt;Node1 -->
<g id="edge1" class="edge"><title>Node0&#45;&gt;Node1</title>
<path fill="none" stroke="midnightblue" d="M346.279,-110.382C293.854,-90.9922 161.424,-42.0114 103.763,-20.6847"/>
<polygon fill="midnightblue" stroke="midnightblue" points="104.812,-17.3411 94.2189,-17.1547 102.384,-23.9064 104.812,-17.3411"/>
</g>
<!-- Node2 -->
<g id="node3" class="node"><title>Node2</title>
<polygon fill="none" stroke="#bfbfbf" points="0,-0.5 0,-18.5 40.4531,-18.5 40.4531,-0.5 0,-0.5"/>
<text text-anchor="middle" x="20.2266" y="-6.5" font-family="Helvetica,sans-Serif" font-size="10.00">string</text>
</g>
<!-- Node0&#45;&gt;Node2 -->
<g id="edge2" class="edge"><title>Node0&#45;&gt;Node2</title>
<path fill="none" stroke="midnightblue" d="M307.711,-116.344C228.221,-112.441 94.0528,-101.835 54.2266,-74 38.871,-63.2679 29.8439,-43.3502 24.9972,-28.6732"/>
<polygon fill="midnightblue" stroke="midnightblue" points="28.247,-27.318 22.0701,-18.7101 21.5309,-29.2912 28.247,-27.318"/>
</g>
<!-- Node3 -->
<g id="node4" class="node"><title>Node3</title>
<polygon fill="none" stroke="#bfbfbf" points="416.557,-55.5 416.557,-73.5 465.896,-73.5 465.896,-55.5 416.557,-55.5"/>
<text text-anchor="middle" x="441.227" y="-61.5" font-family="Helvetica,sans-Serif" font-size="10.00">fstream</text>
</g>
<!-- Node0&#45;&gt;Node3 -->
<g id="edge3" class="edge"><title>Node0&#45;&gt;Node3</title>
<path fill="none" stroke="midnightblue" d="M379.314,-110.45C390.569,-102.279 408.224,-89.4604 421.806,-79.5996"/>
<polygon fill="midnightblue" stroke="midnightblue" points="423.999,-82.3327 430.035,-73.6253 419.887,-76.6682 423.999,-82.3327"/>
</g>
<!-- Node4 -->
<g id="node5" class="node"><title>Node4</title>
<polygon fill="none" stroke="#bfbfbf" points="483.495,-55.5 483.495,-73.5 528.958,-73.5 528.958,-55.5 483.495,-55.5"/>
<text text-anchor="middle" x="506.227" y="-61.5" font-family="Helvetica,sans-Serif" font-size="10.00">stdio.h</text>
</g>
<!-- Node0&#45;&gt;Node4 -->
<g id="edge4" class="edge"><title>Node0&#45;&gt;Node4</title>
<path fill="none" stroke="midnightblue" d="M389.186,-110.45C412.185,-101.617 449.322,-87.3546 475.588,-77.267"/>
<polygon fill="midnightblue" stroke="midnightblue" points="476.99,-80.478 485.07,-73.6253 474.48,-73.9433 476.99,-80.478"/>
</g>
<!-- Node5 -->
<g id="node6" class="node"><title>Node5</title>
<g id="a_node6"><a xlink:href="picojson_8h.html" target="_top" xlink:title="picojson.h">
<polygon fill="none" stroke="black" points="337.712,-55.5 337.712,-73.5 398.741,-73.5 398.741,-55.5 337.712,-55.5"/>
<text text-anchor="middle" x="368.227" y="-61.5" font-family="Helvetica,sans-Serif" font-size="10.00">picojson.h</text>
</a>
</g>
</g>
<!-- Node0&#45;&gt;Node5 -->
<g id="edge5" class="edge"><title>Node0&#45;&gt;Node5</title>
<path fill="none" stroke="midnightblue" d="M368.227,-110.219C368.227,-103.177 368.227,-92.8083 368.227,-83.8277"/>
<polygon fill="midnightblue" stroke="midnightblue" points="371.727,-83.5495 368.227,-73.5496 364.727,-83.5496 371.727,-83.5495"/>
</g>
<!-- Node19 -->
<g id="node20" class="node"><title>Node19</title>
<polygon fill="none" stroke="#bfbfbf" points="547.323,-55.5 547.323,-73.5 641.13,-73.5 641.13,-55.5 547.323,-55.5"/>
<text text-anchor="middle" x="594.227" y="-61.5" font-family="Helvetica,sans-Serif" font-size="10.00">SDL_filesystem.h</text>
</g>
<!-- Node0&#45;&gt;Node19 -->
<g id="edge21" class="edge"><title>Node0&#45;&gt;Node19</title>
<path fill="none" stroke="midnightblue" d="M402.551,-110.45C441.991,-101.201 506.814,-85.9994 550.004,-75.8708"/>
<polygon fill="midnightblue" stroke="midnightblue" points="551.013,-79.2291 559.95,-73.5383 549.415,-72.414 551.013,-79.2291"/>
</g>
<!-- Node20 -->
<g id="node21" class="node"><title>Node20</title>
<g id="a_node21"><a xlink:href="_player_pref_manager_8hpp.html" target="_top" xlink:title="PlayerPrefManager.hpp">
<polygon fill="none" stroke="black" points="63.6924,-55.5 63.6924,-73.5 184.761,-73.5 184.761,-55.5 63.6924,-55.5"/>
<text text-anchor="middle" x="124.227" y="-61.5" font-family="Helvetica,sans-Serif" font-size="10.00">PlayerPrefManager.hpp</text>
</a>
</g>
</g>
<!-- Node0&#45;&gt;Node20 -->
<g id="edge22" class="edge"><title>Node0&#45;&gt;Node20</title>
<path fill="none" stroke="midnightblue" d="M331.168,-110.45C288.318,-101.143 217.714,-85.8067 171.089,-75.6791"/>
<polygon fill="midnightblue" stroke="midnightblue" points="171.748,-72.2408 161.233,-73.5383 170.262,-79.0813 171.748,-72.2408"/>
</g>
<!-- Node5&#45;&gt;Node1 -->
<g id="edge14" class="edge"><title>Node5&#45;&gt;Node1</title>
<path fill="none" stroke="midnightblue" d="M337.344,-59.7285C289.369,-53.5652 193.936,-40.0899 103.951,-18.8705"/>
<polygon fill="midnightblue" stroke="midnightblue" points="104.679,-15.4459 94.1385,-16.5201 103.048,-22.2533 104.679,-15.4459"/>
</g>
<!-- Node5&#45;&gt;Node2 -->
<g id="edge16" class="edge"><title>Node5&#45;&gt;Node2</title>
<path fill="none" stroke="midnightblue" d="M337.617,-60.7371C282.158,-55.4085 161.272,-42.3149 50.707,-19.0468"/>
<polygon fill="midnightblue" stroke="midnightblue" points="51.2372,-15.5811 40.7263,-16.9122 49.7731,-22.4263 51.2372,-15.5811"/>
</g>
<!-- Node6 -->
<g id="node7" class="node"><title>Node6</title>
<polygon fill="none" stroke="#bfbfbf" points="375.663,-0.5 375.663,-18.5 432.791,-18.5 432.791,-0.5 375.663,-0.5"/>
<text text-anchor="middle" x="404.227" y="-6.5" font-family="Helvetica,sans-Serif" font-size="10.00">algorithm</text>
</g>
<!-- Node5&#45;&gt;Node6 -->
<g id="edge6" class="edge"><title>Node5&#45;&gt;Node6</title>
<path fill="none" stroke="midnightblue" d="M373.852,-55.2188C378.954,-47.7074 386.627,-36.411 392.984,-27.0515"/>
<polygon fill="midnightblue" stroke="midnightblue" points="396.035,-28.7883 398.759,-18.5496 390.245,-24.8551 396.035,-28.7883"/>
</g>
<!-- Node7 -->
<g id="node8" class="node"><title>Node7</title>
<polygon fill="none" stroke="#bfbfbf" points="451.165,-0.5 451.165,-18.5 493.288,-18.5 493.288,-0.5 451.165,-0.5"/>
<text text-anchor="middle" x="472.227" y="-6.5" font-family="Helvetica,sans-Serif" font-size="10.00">cstdio</text>
</g>
<!-- Node5&#45;&gt;Node7 -->
<g id="edge7" class="edge"><title>Node5&#45;&gt;Node7</title>
<path fill="none" stroke="midnightblue" d="M384.022,-55.4504C400.82,-46.8897 427.626,-33.2291 447.283,-23.2119"/>
<polygon fill="midnightblue" stroke="midnightblue" points="448.962,-26.2843 456.283,-18.6253 445.784,-20.0475 448.962,-26.2843"/>
</g>
<!-- Node8 -->
<g id="node9" class="node"><title>Node8</title>
<polygon fill="none" stroke="#bfbfbf" points="511.054,-0.5 511.054,-18.5 555.399,-18.5 555.399,-0.5 511.054,-0.5"/>
<text text-anchor="middle" x="533.227" y="-6.5" font-family="Helvetica,sans-Serif" font-size="10.00">cstdlib</text>
</g>
<!-- Node5&#45;&gt;Node8 -->
<g id="edge8" class="edge"><title>Node5&#45;&gt;Node8</title>
<path fill="none" stroke="midnightblue" d="M393.287,-55.4504C422.165,-46.1742 469.686,-30.9101 501.217,-20.7817"/>
<polygon fill="midnightblue" stroke="midnightblue" points="502.399,-24.0785 510.849,-17.6879 500.258,-17.4139 502.399,-24.0785"/>
</g>
<!-- Node9 -->
<g id="node10" class="node"><title>Node9</title>
<polygon fill="none" stroke="#bfbfbf" points="573.5,-0.5 573.5,-18.5 618.953,-18.5 618.953,-0.5 573.5,-0.5"/>
<text text-anchor="middle" x="596.227" y="-6.5" font-family="Helvetica,sans-Serif" font-size="10.00">cstring</text>
</g>
<!-- Node5&#45;&gt;Node9 -->
<g id="edge9" class="edge"><title>Node5&#45;&gt;Node9</title>
<path fill="none" stroke="midnightblue" d="M399.003,-56.6562C442.341,-46.9963 520.086,-29.5797 563.248,-19.1563"/>
<polygon fill="midnightblue" stroke="midnightblue" points="564.297,-22.5029 573.18,-16.7288 562.635,-15.703 564.297,-22.5029"/>
</g>
<!-- Node10 -->
<g id="node11" class="node"><title>Node10</title>
<polygon fill="none" stroke="#bfbfbf" points="637.106,-0.5 637.106,-18.5 685.347,-18.5 685.347,-0.5 637.106,-0.5"/>
<text text-anchor="middle" x="661.227" y="-6.5" font-family="Helvetica,sans-Serif" font-size="10.00">cstddef</text>
</g>
<!-- Node5&#45;&gt;Node10 -->
<g id="edge10" class="edge"><title>Node5&#45;&gt;Node10</title>
<path fill="none" stroke="midnightblue" d="M398.852,-56.6643C401.679,-56.0819 404.504,-55.5182 407.227,-55 501.839,-36.9969 529.09,-39.2593 626.778,-19.1462"/>
<polygon fill="midnightblue" stroke="midnightblue" points="627.701,-22.5289 636.776,-17.0609 626.272,-15.6764 627.701,-22.5289"/>
</g>
<!-- Node11 -->
<g id="node12" class="node"><title>Node11</title>
<polygon fill="none" stroke="#bfbfbf" points="112.054,-0.5 112.054,-18.5 166.399,-18.5 166.399,-0.5 112.054,-0.5"/>
<text text-anchor="middle" x="139.227" y="-6.5" font-family="Helvetica,sans-Serif" font-size="10.00">iostream</text>
</g>
<!-- Node5&#45;&gt;Node11 -->
<g id="edge11" class="edge"><title>Node5&#45;&gt;Node11</title>
<path fill="none" stroke="midnightblue" d="M337.343,-56.3522C295.549,-46.6794 221.075,-29.4431 176.306,-19.0817"/>
<polygon fill="midnightblue" stroke="midnightblue" points="176.946,-15.6374 166.415,-16.7924 175.368,-22.4572 176.946,-15.6374"/>
</g>
<!-- Node12 -->
<g id="node13" class="node"><title>Node12</title>
<polygon fill="none" stroke="#bfbfbf" points="703.665,-0.5 703.665,-18.5 750.788,-18.5 750.788,-0.5 703.665,-0.5"/>
<text text-anchor="middle" x="727.227" y="-6.5" font-family="Helvetica,sans-Serif" font-size="10.00">iterator</text>
</g>
<!-- Node5&#45;&gt;Node12 -->
<g id="edge12" class="edge"><title>Node5&#45;&gt;Node12</title>
<path fill="none" stroke="midnightblue" d="M398.833,-56.5575C401.664,-55.9975 404.494,-55.4681 407.227,-55 530.718,-33.8415 566.16,-42.6049 693.382,-18.9115"/>
<polygon fill="midnightblue" stroke="midnightblue" points="694.341,-22.2921 703.515,-16.9925 693.038,-15.4144 694.341,-22.2921"/>
</g>
<!-- Node13 -->
<g id="node14" class="node"><title>Node13</title>
<polygon fill="none" stroke="#bfbfbf" points="768.84,-0.5 768.84,-18.5 807.613,-18.5 807.613,-0.5 768.84,-0.5"/>
<text text-anchor="middle" x="788.227" y="-6.5" font-family="Helvetica,sans-Serif" font-size="10.00">limits</text>
</g>
<!-- Node5&#45;&gt;Node13 -->
<g id="edge13" class="edge"><title>Node5&#45;&gt;Node13</title>
<path fill="none" stroke="midnightblue" d="M398.821,-56.4899C401.655,-55.944 404.489,-55.4364 407.227,-55 559.768,-30.6783 603.814,-49.2529 758.879,-18.9036"/>
<polygon fill="midnightblue" stroke="midnightblue" points="759.645,-22.32 768.767,-16.9321 758.276,-15.4551 759.645,-22.32"/>
</g>
<!-- Node14 -->
<g id="node15" class="node"><title>Node14</title>
<polygon fill="none" stroke="#bfbfbf" points="825.825,-0.5 825.825,-18.5 884.628,-18.5 884.628,-0.5 825.825,-0.5"/>
<text text-anchor="middle" x="855.227" y="-6.5" font-family="Helvetica,sans-Serif" font-size="10.00">stdexcept</text>
</g>
<!-- Node5&#45;&gt;Node14 -->
<g id="edge15" class="edge"><title>Node5&#45;&gt;Node14</title>
<path fill="none" stroke="midnightblue" d="M398.815,-56.4494C401.65,-55.912 404.486,-55.4175 407.227,-55 584.366,-28.0117 634.043,-45.8145 815.346,-18.9187"/>
<polygon fill="midnightblue" stroke="midnightblue" points="816.123,-22.3412 825.488,-17.3882 815.078,-15.4195 816.123,-22.3412"/>
</g>
<!-- Node15 -->
<g id="node16" class="node"><title>Node15</title>
<polygon fill="none" stroke="#bfbfbf" points="902.611,-0.5 902.611,-18.5 945.842,-18.5 945.842,-0.5 902.611,-0.5"/>
<text text-anchor="middle" x="924.227" y="-6.5" font-family="Helvetica,sans-Serif" font-size="10.00">vector</text>
</g>
<!-- Node5&#45;&gt;Node15 -->
<g id="edge17" class="edge"><title>Node5&#45;&gt;Node15</title>
<path fill="none" stroke="midnightblue" d="M398.809,-56.4088C401.645,-55.88 404.483,-55.3985 407.227,-55 618.324,-24.3328 677.987,-54.8568 892.336,-18.7794"/>
<polygon fill="midnightblue" stroke="midnightblue" points="893.064,-22.2058 902.33,-17.0683 891.882,-15.3062 893.064,-22.2058"/>
</g>
<!-- Node16 -->
<g id="node17" class="node"><title>Node16</title>
<polygon fill="none" stroke="#bfbfbf" points="184.835,-0.5 184.835,-18.5 223.618,-18.5 223.618,-0.5 184.835,-0.5"/>
<text text-anchor="middle" x="204.227" y="-6.5" font-family="Helvetica,sans-Serif" font-size="10.00">utility</text>
</g>
<!-- Node5&#45;&gt;Node16 -->
<g id="edge18" class="edge"><title>Node5&#45;&gt;Node16</title>
<path fill="none" stroke="midnightblue" d="M343.318,-55.4504C313.853,-45.9282 264.864,-30.0962 233.582,-19.9869"/>
<polygon fill="midnightblue" stroke="midnightblue" points="234.298,-16.5401 223.706,-16.7953 232.145,-23.2009 234.298,-16.5401"/>
</g>
<!-- Node17 -->
<g id="node18" class="node"><title>Node17</title>
<polygon fill="none" stroke="#bfbfbf" points="241.941,-0.5 241.941,-18.5 288.512,-18.5 288.512,-0.5 241.941,-0.5"/>
<text text-anchor="middle" x="265.227" y="-6.5" font-family="Helvetica,sans-Serif" font-size="10.00">math.h</text>
</g>
<!-- Node5&#45;&gt;Node17 -->
<g id="edge19" class="edge"><title>Node5&#45;&gt;Node17</title>
<path fill="none" stroke="midnightblue" d="M352.583,-55.4504C335.946,-46.8897 309.398,-33.2291 289.931,-23.2119"/>
<polygon fill="midnightblue" stroke="midnightblue" points="291.511,-20.0886 281.017,-18.6253 288.308,-26.313 291.511,-20.0886"/>
</g>
<!-- Node18 -->
<g id="node19" class="node"><title>Node18</title>
<polygon fill="none" stroke="#bfbfbf" points="306.993,-0.5 306.993,-18.5 357.46,-18.5 357.46,-0.5 306.993,-0.5"/>
<text text-anchor="middle" x="332.227" y="-6.5" font-family="Helvetica,sans-Serif" font-size="10.00">locale.h</text>
</g>
<!-- Node5&#45;&gt;Node18 -->
<g id="edge20" class="edge"><title>Node5&#45;&gt;Node18</title>
<path fill="none" stroke="midnightblue" d="M362.602,-55.2188C357.5,-47.7074 349.827,-36.411 343.469,-27.0515"/>
<polygon fill="midnightblue" stroke="midnightblue" points="346.208,-24.8551 337.694,-18.5496 340.418,-28.7883 346.208,-24.8551"/>
</g>
<!-- Node20&#45;&gt;Node1 -->
<g id="edge24" class="edge"><title>Node20&#45;&gt;Node1</title>
<path fill="none" stroke="midnightblue" d="M116.727,-55.2188C109.711,-47.4727 99.0504,-35.7013 90.4272,-26.1799"/>
<polygon fill="midnightblue" stroke="midnightblue" points="92.8238,-23.6121 83.5167,-18.5496 87.6353,-28.3111 92.8238,-23.6121"/>
</g>
<!-- Node20&#45;&gt;Node2 -->
<g id="edge23" class="edge"><title>Node20&#45;&gt;Node2</title>
<path fill="none" stroke="midnightblue" d="M108.431,-55.4504C91.6327,-46.8897 64.827,-33.2291 45.1706,-23.2119"/>
<polygon fill="midnightblue" stroke="midnightblue" points="46.6695,-20.0475 36.1706,-18.6253 43.4911,-26.2843 46.6695,-20.0475"/>
</g>
<!-- Node20&#45;&gt;Node11 -->
<g id="edge25" class="edge"><title>Node20&#45;&gt;Node11</title>
<path fill="none" stroke="midnightblue" d="M126.57,-55.2188C128.608,-48.0204 131.629,-37.3458 134.208,-28.2311"/>
<polygon fill="midnightblue" stroke="midnightblue" points="137.593,-29.1248 136.948,-18.5496 130.857,-27.2185 137.593,-29.1248"/>
</g>
</g>
</svg>
