<?xml version="1.0" encoding="UTF-8" standalone="no"?>
<!DOCTYPE svg PUBLIC "-//W3C//DTD SVG 1.1//EN"
 "http://www.w3.org/Graphics/SVG/1.1/DTD/svg11.dtd">
<!-- Generated by graphviz version 2.38.0 (20140413.2041)
 -->
<!-- Title: Renderer.hpp Pages: 1 -->
<svg width="583pt" height="192pt"
 viewBox="0.00 0.00 582.83 192.00" xmlns="http://www.w3.org/2000/svg" xmlns:xlink="http://www.w3.org/1999/xlink">
<g id="graph0" class="graph" transform="scale(1 1) rotate(0) translate(4 188)">
<title>Renderer.hpp</title>
<!-- Node0 -->
<g id="node1" class="node"><title>Node0</title>
<polygon fill="#bfbfbf" stroke="black" points="246.278,-165.5 246.278,-183.5 322.884,-183.5 322.884,-165.5 246.278,-165.5"/>
<text text-anchor="middle" x="284.581" y="-171.5" font-family="Helvetica,sans-Serif" font-size="10.00">Renderer.hpp</text>
</g>
<!-- Node1 -->
<g id="node2" class="node"><title>Node1</title>
<g id="a_node2"><a xlink:href="_transform_8hpp.html" target="_top" xlink:title="Transform.hpp">
<polygon fill="none" stroke="black" points="131.252,-110.5 131.252,-128.5 211.91,-128.5 211.91,-110.5 131.252,-110.5"/>
<text text-anchor="middle" x="171.581" y="-116.5" font-family="Helvetica,sans-Serif" font-size="10.00">Transform.hpp</text>
</a>
</g>
</g>
<!-- Node0&#45;&gt;Node1 -->
<g id="edge1" class="edge"><title>Node0&#45;&gt;Node1</title>
<path fill="none" stroke="midnightblue" d="M267.419,-165.45C249.001,-156.812 219.511,-142.98 198.103,-132.94"/>
<polygon fill="midnightblue" stroke="midnightblue" points="199.445,-129.703 188.905,-128.625 196.472,-136.041 199.445,-129.703"/>
</g>
<!-- Node4 -->
<g id="node5" class="node"><title>Node4</title>
<polygon fill="none" stroke="#bfbfbf" points="204.953,-55.5 204.953,-73.5 288.209,-73.5 288.209,-55.5 204.953,-55.5"/>
<text text-anchor="middle" x="246.581" y="-61.5" font-family="Helvetica,sans-Serif" font-size="10.00">SRE/Mesh.hpp</text>
</g>
<!-- Node0&#45;&gt;Node4 -->
<g id="edge10" class="edge"><title>Node0&#45;&gt;Node4</title>
<path fill="none" stroke="midnightblue" d="M281.725,-165.382C275.618,-148.026 261.169,-106.96 252.823,-83.2413"/>
<polygon fill="midnightblue" stroke="midnightblue" points="256.091,-81.9832 249.47,-73.7118 249.488,-84.3066 256.091,-81.9832"/>
</g>
<!-- Node5 -->
<g id="node6" class="node"><title>Node5</title>
<polygon fill="none" stroke="#bfbfbf" points="306.347,-55.5 306.347,-73.5 376.815,-73.5 376.815,-55.5 306.347,-55.5"/>
<text text-anchor="middle" x="341.581" y="-61.5" font-family="Helvetica,sans-Serif" font-size="10.00">glm/glm.hpp</text>
</g>
<!-- Node0&#45;&gt;Node5 -->
<g id="edge11" class="edge"><title>Node0&#45;&gt;Node5</title>
<path fill="none" stroke="midnightblue" d="M285.915,-165.26C288.186,-152.728 293.563,-128.392 303.581,-110 309.412,-99.2941 318.126,-88.8471 325.739,-80.7687"/>
<polygon fill="midnightblue" stroke="midnightblue" points="328.317,-83.1398 332.838,-73.558 323.328,-78.229 328.317,-83.1398"/>
</g>
<!-- Node7 -->
<g id="node8" class="node"><title>Node7</title>
<polygon fill="none" stroke="#bfbfbf" points="312.929,-110.5 312.929,-128.5 466.233,-128.5 466.233,-110.5 312.929,-110.5"/>
<text text-anchor="middle" x="389.581" y="-116.5" font-family="Helvetica,sans-Serif" font-size="10.00">SRE/SimpleRenderEngine.hpp</text>
</g>
<!-- Node0&#45;&gt;Node7 -->
<g id="edge8" class="edge"><title>Node0&#45;&gt;Node7</title>
<path fill="none" stroke="midnightblue" d="M300.528,-165.45C317.488,-156.89 344.552,-143.229 364.397,-133.212"/>
<polygon fill="midnightblue" stroke="midnightblue" points="366.134,-136.256 373.484,-128.625 362.979,-130.007 366.134,-136.256"/>
</g>
<!-- Node8 -->
<g id="node9" class="node"><title>Node8</title>
<polygon fill="none" stroke="#bfbfbf" points="484.33,-110.5 484.33,-128.5 574.832,-128.5 574.832,-110.5 484.33,-110.5"/>
<text text-anchor="middle" x="529.581" y="-116.5" font-family="Helvetica,sans-Serif" font-size="10.00">SRE/Shader.hpp</text>
</g>
<!-- Node0&#45;&gt;Node8 -->
<g id="edge9" class="edge"><title>Node0&#45;&gt;Node8</title>
<path fill="none" stroke="midnightblue" d="M321.791,-165.45C364.817,-156.143 435.71,-140.807 482.527,-130.679"/>
<polygon fill="midnightblue" stroke="midnightblue" points="483.389,-134.074 492.423,-128.538 481.909,-127.232 483.389,-134.074"/>
</g>
<!-- Node2 -->
<g id="node3" class="node"><title>Node2</title>
<g id="a_node3"><a xlink:href="_component_8hpp.html" target="_top" xlink:title="Component.hpp">
<polygon fill="none" stroke="black" points="0,-55.5 0,-73.5 87.1621,-73.5 87.1621,-55.5 0,-55.5"/>
<text text-anchor="middle" x="43.5811" y="-61.5" font-family="Helvetica,sans-Serif" font-size="10.00">Component.hpp</text>
</a>
</g>
</g>
<!-- Node1&#45;&gt;Node2 -->
<g id="edge2" class="edge"><title>Node1&#45;&gt;Node2</title>
<path fill="none" stroke="midnightblue" d="M152.141,-110.45C130.996,-101.695 96.968,-87.6055 72.6458,-77.5346"/>
<polygon fill="midnightblue" stroke="midnightblue" points="73.7827,-74.2173 63.2045,-73.6253 71.1048,-80.6848 73.7827,-74.2173"/>
</g>
<!-- Node3 -->
<g id="node4" class="node"><title>Node3</title>
<polygon fill="none" stroke="#bfbfbf" points="59.3545,-0.5 59.3545,-18.5 99.8076,-18.5 99.8076,-0.5 59.3545,-0.5"/>
<text text-anchor="middle" x="79.5811" y="-6.5" font-family="Helvetica,sans-Serif" font-size="10.00">string</text>
</g>
<!-- Node1&#45;&gt;Node3 -->
<g id="edge6" class="edge"><title>Node1&#45;&gt;Node3</title>
<path fill="none" stroke="midnightblue" d="M164.666,-110.382C149.481,-92.5567 112.993,-49.7229 93.0889,-26.357"/>
<polygon fill="midnightblue" stroke="midnightblue" points="95.7253,-24.0546 86.5762,-18.7118 90.3966,-28.5939 95.7253,-24.0546"/>
</g>
<!-- Node1&#45;&gt;Node4 -->
<g id="edge4" class="edge"><title>Node1&#45;&gt;Node4</title>
<path fill="none" stroke="midnightblue" d="M182.972,-110.45C194.536,-102.279 212.675,-89.4604 226.629,-79.5996"/>
<polygon fill="midnightblue" stroke="midnightblue" points="228.936,-82.2548 235.083,-73.6253 224.896,-76.5381 228.936,-82.2548"/>
</g>
<!-- Node1&#45;&gt;Node5 -->
<g id="edge5" class="edge"><title>Node1&#45;&gt;Node5</title>
<path fill="none" stroke="midnightblue" d="M197.4,-110.45C226.441,-101.396 273.779,-86.6382 306.239,-76.5185"/>
<polygon fill="midnightblue" stroke="midnightblue" points="307.293,-79.8561 315.798,-73.5383 305.209,-73.1734 307.293,-79.8561"/>
</g>
<!-- Node6 -->
<g id="node7" class="node"><title>Node6</title>
<polygon fill="none" stroke="#bfbfbf" points="143.965,-55.5 143.965,-73.5 187.197,-73.5 187.197,-55.5 143.965,-55.5"/>
<text text-anchor="middle" x="165.581" y="-61.5" font-family="Helvetica,sans-Serif" font-size="10.00">vector</text>
</g>
<!-- Node1&#45;&gt;Node6 -->
<g id="edge7" class="edge"><title>Node1&#45;&gt;Node6</title>
<path fill="none" stroke="midnightblue" d="M170.644,-110.219C169.838,-103.099 168.646,-92.5775 167.622,-83.5289"/>
<polygon fill="midnightblue" stroke="midnightblue" points="171.095,-83.0923 166.492,-73.5496 164.14,-83.8798 171.095,-83.0923"/>
</g>
<!-- Node2&#45;&gt;Node3 -->
<g id="edge3" class="edge"><title>Node2&#45;&gt;Node3</title>
<path fill="none" stroke="midnightblue" d="M49.2061,-55.2188C54.3081,-47.7074 61.9811,-36.411 68.3385,-27.0515"/>
<polygon fill="midnightblue" stroke="midnightblue" points="71.3898,-28.7883 74.1134,-18.5496 65.5993,-24.8551 71.3898,-28.7883"/>
</g>
</g>
</svg>
