<?xml version="1.0" encoding="UTF-8" standalone="no"?>
<!DOCTYPE svg PUBLIC "-//W3C//DTD SVG 1.1//EN"
 "http://www.w3.org/Graphics/SVG/1.1/DTD/svg11.dtd">
<!-- Generated by graphviz version 2.38.0 (20140413.2041)
 -->
<!-- Title: Renderer.hpp Pages: 1 -->
<svg width="168pt" height="82pt"
 viewBox="0.00 0.00 168.04 82.00" xmlns="http://www.w3.org/2000/svg" xmlns:xlink="http://www.w3.org/1999/xlink">
<g id="graph0" class="graph" transform="scale(1 1) rotate(0) translate(4 78)">
<title>Renderer.hpp</title>
<!-- Node9 -->
<g id="node1" class="node"><title>Node9</title>
<polygon fill="#bfbfbf" stroke="black" points="38.7168,-55.5 38.7168,-73.5 115.322,-73.5 115.322,-55.5 38.7168,-55.5"/>
<text text-anchor="middle" x="77.0195" y="-61.5" font-family="Helvetica,sans-Serif" font-size="10.00">Renderer.hpp</text>
</g>
<!-- Node10 -->
<g id="node2" class="node"><title>Node10</title>
<g id="a_node2"><a xlink:href="_engine_8cpp.html" target="_top" xlink:title="Engine.cpp">
<polygon fill="none" stroke="black" points="0,-0.5 0,-18.5 66.0391,-18.5 66.0391,-0.5 0,-0.5"/>
<text text-anchor="middle" x="33.0195" y="-6.5" font-family="Helvetica,sans-Serif" font-size="10.00">Engine.cpp</text>
</a>
</g>
</g>
<!-- Node9&#45;&gt;Node10 -->
<g id="edge1" class="edge"><title>Node9&#45;&gt;Node10</title>
<path fill="none" stroke="midnightblue" d="M63.5228,-47.2426C55.6258,-37.7302 46.0011,-26.1369 39.7022,-18.5496"/>
<polygon fill="midnightblue" stroke="midnightblue" points="61.064,-49.7603 70.1445,-55.2188 66.4499,-45.289 61.064,-49.7603"/>
</g>
<!-- Node11 -->
<g id="node3" class="node"><title>Node11</title>
<g id="a_node3"><a xlink:href="_renderer_8cpp.html" target="_top" xlink:title="Renderer.cpp">
<polygon fill="none" stroke="black" points="83.9976,-0.5 83.9976,-18.5 160.042,-18.5 160.042,-0.5 83.9976,-0.5"/>
<text text-anchor="middle" x="122.02" y="-6.5" font-family="Helvetica,sans-Serif" font-size="10.00">Renderer.cpp</text>
</a>
</g>
</g>
<!-- Node9&#45;&gt;Node11 -->
<g id="edge2" class="edge"><title>Node9&#45;&gt;Node11</title>
<path fill="none" stroke="midnightblue" d="M90.5763,-47.5331C98.6983,-37.9673 108.677,-26.2143 115.185,-18.5496"/>
<polygon fill="midnightblue" stroke="midnightblue" points="87.8551,-45.3305 84.0508,-55.2188 93.1912,-49.8611 87.8551,-45.3305"/>
</g>
</g>
</svg>
