<?xml version="1.0" encoding="UTF-8" standalone="no"?>
<!DOCTYPE svg PUBLIC "-//W3C//DTD SVG 1.1//EN"
 "http://www.w3.org/Graphics/SVG/1.1/DTD/svg11.dtd">
<!-- Generated by graphviz version 2.38.0 (20140413.2041)
 -->
<!-- Title: Renderer.cpp Pages: 1 -->
<svg width="590pt" height="247pt"
 viewBox="0.00 0.00 589.60 247.00" xmlns="http://www.w3.org/2000/svg" xmlns:xlink="http://www.w3.org/1999/xlink">
<g id="graph0" class="graph" transform="scale(1 1) rotate(0) translate(4 243)">
<title>Renderer.cpp</title>
<!-- Node0 -->
<g id="node1" class="node"><title>Node0</title>
<polygon fill="#bfbfbf" stroke="black" points="364.776,-220.5 364.776,-238.5 440.82,-238.5 440.82,-220.5 364.776,-220.5"/>
<text text-anchor="middle" x="402.798" y="-226.5" font-family="Helvetica,sans-Serif" font-size="10.00">Renderer.cpp</text>
</g>
<!-- Node1 -->
<g id="node2" class="node"><title>Node1</title>
<g id="a_node2"><a xlink:href="_renderer_8hpp.html" target="_top" xlink:title="Renderer.hpp">
<polygon fill="none" stroke="black" points="323.495,-165.5 323.495,-183.5 400.101,-183.5 400.101,-165.5 323.495,-165.5"/>
<text text-anchor="middle" x="361.798" y="-171.5" font-family="Helvetica,sans-Serif" font-size="10.00">Renderer.hpp</text>
</a>
</g>
</g>
<!-- Node0&#45;&gt;Node1 -->
<g id="edge1" class="edge"><title>Node0&#45;&gt;Node1</title>
<path fill="none" stroke="midnightblue" d="M396.392,-220.219C390.46,-212.551 381.477,-200.939 374.151,-191.469"/>
<polygon fill="midnightblue" stroke="midnightblue" points="376.912,-189.318 368.025,-183.55 371.375,-193.601 376.912,-189.318"/>
</g>
<!-- Node10 -->
<g id="node11" class="node"><title>Node10</title>
<polygon fill="none" stroke="#bfbfbf" points="417.625,-165.5 417.625,-183.5 471.97,-183.5 471.97,-165.5 417.625,-165.5"/>
<text text-anchor="middle" x="444.798" y="-171.5" font-family="Helvetica,sans-Serif" font-size="10.00">iostream</text>
</g>
<!-- Node0&#45;&gt;Node10 -->
<g id="edge13" class="edge"><title>Node0&#45;&gt;Node10</title>
<path fill="none" stroke="midnightblue" d="M409.36,-220.219C415.437,-212.551 424.639,-200.939 432.143,-191.469"/>
<polygon fill="midnightblue" stroke="midnightblue" points="434.951,-193.561 438.419,-183.55 429.465,-189.213 434.951,-193.561"/>
</g>
<!-- Node11 -->
<g id="node12" class="node"><title>Node11</title>
<g id="a_node12"><a xlink:href="_game_object_8hpp.html" target="_top" xlink:title="GameObject.hpp">
<polygon fill="none" stroke="black" points="0,-110.5 0,-128.5 91.5957,-128.5 91.5957,-110.5 0,-110.5"/>
<text text-anchor="middle" x="45.7979" y="-116.5" font-family="Helvetica,sans-Serif" font-size="10.00">GameObject.hpp</text>
</a>
</g>
</g>
<!-- Node0&#45;&gt;Node11 -->
<g id="edge14" class="edge"><title>Node0&#45;&gt;Node11</title>
<path fill="none" stroke="midnightblue" d="M376.256,-220.471C313.263,-201.414 154.626,-153.423 82.5052,-131.605"/>
<polygon fill="midnightblue" stroke="midnightblue" points="83.099,-128.128 72.5139,-128.582 81.072,-134.828 83.099,-128.128"/>
</g>
<!-- Node13 -->
<g id="node14" class="node"><title>Node13</title>
<polygon fill="none" stroke="#bfbfbf" points="490,-165.5 490,-183.5 581.596,-183.5 581.596,-165.5 490,-165.5"/>
<text text-anchor="middle" x="535.798" y="-171.5" font-family="Helvetica,sans-Serif" font-size="10.00">SRE/Texture.hpp</text>
</g>
<!-- Node0&#45;&gt;Node13 -->
<g id="edge21" class="edge"><title>Node0&#45;&gt;Node13</title>
<path fill="none" stroke="midnightblue" d="M422.998,-220.45C445.066,-211.656 480.64,-197.48 505.934,-187.401"/>
<polygon fill="midnightblue" stroke="midnightblue" points="507.414,-190.579 515.408,-183.625 504.823,-184.076 507.414,-190.579"/>
</g>
<!-- Node2 -->
<g id="node3" class="node"><title>Node2</title>
<g id="a_node3"><a xlink:href="_transform_8hpp.html" target="_top" xlink:title="Transform.hpp">
<polygon fill="none" stroke="black" points="426.469,-110.5 426.469,-128.5 507.127,-128.5 507.127,-110.5 426.469,-110.5"/>
<text text-anchor="middle" x="466.798" y="-116.5" font-family="Helvetica,sans-Serif" font-size="10.00">Transform.hpp</text>
</a>
</g>
</g>
<!-- Node1&#45;&gt;Node2 -->
<g id="edge2" class="edge"><title>Node1&#45;&gt;Node2</title>
<path fill="none" stroke="midnightblue" d="M377.745,-165.45C394.705,-156.89 421.769,-143.229 441.614,-133.212"/>
<polygon fill="midnightblue" stroke="midnightblue" points="443.35,-136.256 450.701,-128.625 440.196,-130.007 443.35,-136.256"/>
</g>
<!-- Node5 -->
<g id="node6" class="node"><title>Node5</title>
<polygon fill="none" stroke="#bfbfbf" points="421.17,-55.5 421.17,-73.5 504.426,-73.5 504.426,-55.5 421.17,-55.5"/>
<text text-anchor="middle" x="462.798" y="-61.5" font-family="Helvetica,sans-Serif" font-size="10.00">SRE/Mesh.hpp</text>
</g>
<!-- Node1&#45;&gt;Node5 -->
<g id="edge11" class="edge"><title>Node1&#45;&gt;Node5</title>
<path fill="none" stroke="midnightblue" d="M397.959,-165.447C441.17,-155.462 508.585,-138.592 515.798,-129 529.269,-111.085 506.608,-91.4088 486.869,-78.7796"/>
<polygon fill="midnightblue" stroke="midnightblue" points="488.513,-75.6841 478.145,-73.5045 484.891,-81.6741 488.513,-75.6841"/>
</g>
<!-- Node6 -->
<g id="node7" class="node"><title>Node6</title>
<polygon fill="none" stroke="#bfbfbf" points="332.564,-55.5 332.564,-73.5 403.032,-73.5 403.032,-55.5 332.564,-55.5"/>
<text text-anchor="middle" x="367.798" y="-61.5" font-family="Helvetica,sans-Serif" font-size="10.00">glm/glm.hpp</text>
</g>
<!-- Node1&#45;&gt;Node6 -->
<g id="edge12" class="edge"><title>Node1&#45;&gt;Node6</title>
<path fill="none" stroke="midnightblue" d="M366.253,-165.267C370.696,-156.552 377.219,-142.252 379.798,-129 382.781,-113.668 378.971,-96.2321 374.874,-83.5149"/>
<polygon fill="midnightblue" stroke="midnightblue" points="378.033,-81.9568 371.363,-73.7254 371.444,-84.3199 378.033,-81.9568"/>
</g>
<!-- Node8 -->
<g id="node9" class="node"><title>Node8</title>
<polygon fill="none" stroke="#bfbfbf" points="109.146,-110.5 109.146,-128.5 262.45,-128.5 262.45,-110.5 109.146,-110.5"/>
<text text-anchor="middle" x="185.798" y="-116.5" font-family="Helvetica,sans-Serif" font-size="10.00">SRE/SimpleRenderEngine.hpp</text>
</g>
<!-- Node1&#45;&gt;Node8 -->
<g id="edge9" class="edge"><title>Node1&#45;&gt;Node8</title>
<path fill="none" stroke="midnightblue" d="M335.067,-165.45C305.001,-156.396 255.992,-141.638 222.388,-131.519"/>
<polygon fill="midnightblue" stroke="midnightblue" points="223.076,-128.07 212.491,-128.538 221.057,-134.773 223.076,-128.07"/>
</g>
<!-- Node9 -->
<g id="node10" class="node"><title>Node9</title>
<polygon fill="none" stroke="#bfbfbf" points="280.547,-110.5 280.547,-128.5 371.049,-128.5 371.049,-110.5 280.547,-110.5"/>
<text text-anchor="middle" x="325.798" y="-116.5" font-family="Helvetica,sans-Serif" font-size="10.00">SRE/Shader.hpp</text>
</g>
<!-- Node1&#45;&gt;Node9 -->
<g id="edge10" class="edge"><title>Node1&#45;&gt;Node9</title>
<path fill="none" stroke="midnightblue" d="M356.173,-165.219C351.071,-157.707 343.398,-146.411 337.04,-137.052"/>
<polygon fill="midnightblue" stroke="midnightblue" points="339.78,-134.855 331.265,-128.55 333.989,-138.788 339.78,-134.855"/>
</g>
<!-- Node3 -->
<g id="node4" class="node"><title>Node3</title>
<g id="a_node4"><a xlink:href="_component_8hpp.html" target="_top" xlink:title="Component.hpp">
<polygon fill="none" stroke="black" points="224.217,-55.5 224.217,-73.5 311.379,-73.5 311.379,-55.5 224.217,-55.5"/>
<text text-anchor="middle" x="267.798" y="-61.5" font-family="Helvetica,sans-Serif" font-size="10.00">Component.hpp</text>
</a>
</g>
</g>
<!-- Node2&#45;&gt;Node3 -->
<g id="edge3" class="edge"><title>Node2&#45;&gt;Node3</title>
<path fill="none" stroke="midnightblue" d="M436.574,-110.45C402.139,-101.279 345.729,-86.2555 307.704,-76.1283"/>
<polygon fill="midnightblue" stroke="midnightblue" points="308.543,-72.7299 297.979,-73.5383 306.742,-79.4941 308.543,-72.7299"/>
</g>
<!-- Node4 -->
<g id="node5" class="node"><title>Node4</title>
<polygon fill="none" stroke="#bfbfbf" points="247.571,-0.5 247.571,-18.5 288.024,-18.5 288.024,-0.5 247.571,-0.5"/>
<text text-anchor="middle" x="267.798" y="-6.5" font-family="Helvetica,sans-Serif" font-size="10.00">string</text>
</g>
<!-- Node2&#45;&gt;Node4 -->
<g id="edge7" class="edge"><title>Node2&#45;&gt;Node4</title>
<path fill="none" stroke="midnightblue" d="M480.321,-110.452C499.294,-98.1705 529.801,-74.1577 513.798,-55 486.687,-22.5451 358.306,-13.7151 298.541,-11.3486"/>
<polygon fill="midnightblue" stroke="midnightblue" points="298.339,-7.83921 288.22,-10.9777 298.088,-14.8347 298.339,-7.83921"/>
</g>
<!-- Node2&#45;&gt;Node5 -->
<g id="edge5" class="edge"><title>Node2&#45;&gt;Node5</title>
<path fill="none" stroke="midnightblue" d="M466.173,-110.219C465.635,-103.099 464.841,-92.5775 464.159,-83.5289"/>
<polygon fill="midnightblue" stroke="midnightblue" points="467.648,-83.2578 463.405,-73.5496 460.668,-83.7846 467.648,-83.2578"/>
</g>
<!-- Node2&#45;&gt;Node6 -->
<g id="edge6" class="edge"><title>Node2&#45;&gt;Node6</title>
<path fill="none" stroke="midnightblue" d="M451.762,-110.45C435.844,-101.929 410.486,-88.3532 391.798,-78.3487"/>
<polygon fill="midnightblue" stroke="midnightblue" points="393.443,-75.2595 382.975,-73.6253 390.14,-81.4308 393.443,-75.2595"/>
</g>
<!-- Node7 -->
<g id="node8" class="node"><title>Node7</title>
<polygon fill="none" stroke="#bfbfbf" points="157.182,-55.5 157.182,-73.5 200.414,-73.5 200.414,-55.5 157.182,-55.5"/>
<text text-anchor="middle" x="178.798" y="-61.5" font-family="Helvetica,sans-Serif" font-size="10.00">vector</text>
</g>
<!-- Node2&#45;&gt;Node7 -->
<g id="edge8" class="edge"><title>Node2&#45;&gt;Node7</title>
<path fill="none" stroke="midnightblue" d="M426.072,-112.043C376.134,-103.956 288.985,-89.2955 214.798,-74 213.343,-73.7001 211.858,-73.3851 210.359,-73.06"/>
<polygon fill="midnightblue" stroke="midnightblue" points="210.981,-69.6124 200.455,-70.8249 209.44,-76.4406 210.981,-69.6124"/>
</g>
<!-- Node3&#45;&gt;Node4 -->
<g id="edge4" class="edge"><title>Node3&#45;&gt;Node4</title>
<path fill="none" stroke="midnightblue" d="M267.798,-55.2188C267.798,-48.1769 267.798,-37.8083 267.798,-28.8277"/>
<polygon fill="midnightblue" stroke="midnightblue" points="271.298,-28.5495 267.798,-18.5496 264.298,-28.5496 271.298,-28.5495"/>
</g>
<!-- Node11&#45;&gt;Node3 -->
<g id="edge19" class="edge"><title>Node11&#45;&gt;Node3</title>
<path fill="none" stroke="midnightblue" d="M79.5149,-110.45C118.256,-101.201 181.933,-85.9994 224.358,-75.8708"/>
<polygon fill="midnightblue" stroke="midnightblue" points="225.214,-79.2648 234.128,-73.5383 223.589,-72.4562 225.214,-79.2648"/>
</g>
<!-- Node11&#45;&gt;Node4 -->
<g id="edge17" class="edge"><title>Node11&#45;&gt;Node4</title>
<path fill="none" stroke="midnightblue" d="M45.7632,-110.118C46.187,-96.482 49.107,-69.557 64.7979,-55 89.615,-31.9762 187.124,-18.7956 237.422,-13.3988"/>
<polygon fill="midnightblue" stroke="midnightblue" points="237.809,-16.8774 247.395,-12.3645 237.087,-9.91476 237.809,-16.8774"/>
</g>
<!-- Node11&#45;&gt;Node5 -->
<g id="edge15" class="edge"><title>Node11&#45;&gt;Node5</title>
<path fill="none" stroke="midnightblue" d="M91.7357,-111.137C94.4619,-110.741 97.1649,-110.359 99.7979,-110 234.863,-91.5856 271.858,-93.3822 410.886,-74.0576"/>
<polygon fill="midnightblue" stroke="midnightblue" points="411.658,-77.4837 421.076,-72.6291 410.687,-70.5515 411.658,-77.4837"/>
</g>
<!-- Node11&#45;&gt;Node6 -->
<g id="edge16" class="edge"><title>Node11&#45;&gt;Node6</title>
<path fill="none" stroke="midnightblue" d="M91.6696,-111.183C158.049,-100.576 277.657,-81.3909 320.798,-74 321.268,-73.9195 321.74,-73.8383 322.215,-73.7565"/>
<polygon fill="midnightblue" stroke="midnightblue" points="323.148,-77.1466 332.395,-71.975 321.941,-70.2514 323.148,-77.1466"/>
</g>
<!-- Node11&#45;&gt;Node7 -->
<g id="edge18" class="edge"><title>Node11&#45;&gt;Node7</title>
<path fill="none" stroke="midnightblue" d="M65.9977,-110.45C88.0662,-101.656 123.64,-87.4802 148.934,-77.4006"/>
<polygon fill="midnightblue" stroke="midnightblue" points="150.414,-80.5786 158.408,-73.6253 147.823,-74.0759 150.414,-80.5786"/>
</g>
<!-- Node12 -->
<g id="node13" class="node"><title>Node12</title>
<polygon fill="none" stroke="#bfbfbf" points="73.7412,-55.5 73.7412,-73.5 125.854,-73.5 125.854,-55.5 73.7412,-55.5"/>
<text text-anchor="middle" x="99.7979" y="-61.5" font-family="Helvetica,sans-Serif" font-size="10.00">memory</text>
</g>
<!-- Node11&#45;&gt;Node12 -->
<g id="edge20" class="edge"><title>Node11&#45;&gt;Node12</title>
<path fill="none" stroke="midnightblue" d="M54.2354,-110.219C62.287,-102.316 74.6073,-90.2241 84.4072,-80.6057"/>
<polygon fill="midnightblue" stroke="midnightblue" points="86.9112,-83.0522 91.5964,-73.5496 82.0079,-78.0564 86.9112,-83.0522"/>
</g>
</g>
</svg>
