<?xml version="1.0" encoding="UTF-8" standalone="no"?>
<!DOCTYPE svg PUBLIC "-//W3C//DTD SVG 1.1//EN"
 "http://www.w3.org/Graphics/SVG/1.1/DTD/svg11.dtd">
<!-- Generated by graphviz version 2.38.0 (20140413.2041)
 -->
<!-- Title: Rigidbody.cpp Pages: 1 -->
<svg width="990pt" height="247pt"
 viewBox="0.00 0.00 989.75 247.00" xmlns="http://www.w3.org/2000/svg" xmlns:xlink="http://www.w3.org/1999/xlink">
<g id="graph0" class="graph" transform="scale(1 1) rotate(0) translate(4 243)">
<title>Rigidbody.cpp</title>
<!-- Node0 -->
<g id="node1" class="node"><title>Node0</title>
<polygon fill="#bfbfbf" stroke="black" points="493.854,-220.5 493.854,-238.5 572.491,-238.5 572.491,-220.5 493.854,-220.5"/>
<text text-anchor="middle" x="533.172" y="-226.5" font-family="Helvetica,sans-Serif" font-size="10.00">Rigidbody.cpp</text>
</g>
<!-- Node1 -->
<g id="node2" class="node"><title>Node1</title>
<g id="a_node2"><a xlink:href="_rigidbody_8hpp.html" target="_top" xlink:title="Rigidbody.hpp">
<polygon fill="none" stroke="black" points="636.573,-165.5 636.573,-183.5 715.771,-183.5 715.771,-165.5 636.573,-165.5"/>
<text text-anchor="middle" x="676.172" y="-171.5" font-family="Helvetica,sans-Serif" font-size="10.00">Rigidbody.hpp</text>
</a>
</g>
</g>
<!-- Node0&#45;&gt;Node1 -->
<g id="edge1" class="edge"><title>Node0&#45;&gt;Node1</title>
<path fill="none" stroke="midnightblue" d="M554.891,-220.45C578.829,-211.578 617.545,-197.229 644.783,-187.134"/>
<polygon fill="midnightblue" stroke="midnightblue" points="646.089,-190.383 654.249,-183.625 643.656,-183.819 646.089,-190.383"/>
</g>
<!-- Node17 -->
<g id="node18" class="node"><title>Node17</title>
<g id="a_node18"><a xlink:href="_game_object_8hpp.html" target="_top" xlink:title="GameObject.hpp">
<polygon fill="none" stroke="black" points="383.375,-165.5 383.375,-183.5 474.97,-183.5 474.97,-165.5 383.375,-165.5"/>
<text text-anchor="middle" x="429.172" y="-171.5" font-family="Helvetica,sans-Serif" font-size="10.00">GameObject.hpp</text>
</a>
</g>
</g>
<!-- Node0&#45;&gt;Node17 -->
<g id="edge22" class="edge"><title>Node0&#45;&gt;Node17</title>
<path fill="none" stroke="midnightblue" d="M517.377,-220.45C500.579,-211.89 473.773,-198.229 454.116,-188.212"/>
<polygon fill="midnightblue" stroke="midnightblue" points="455.615,-185.047 445.116,-183.625 452.437,-191.284 455.615,-185.047"/>
</g>
<!-- Node21 -->
<g id="node22" class="node"><title>Node21</title>
<g id="a_node22"><a xlink:href="_transform_8hpp.html" target="_top" xlink:title="Transform.hpp">
<polygon fill="none" stroke="black" points="492.843,-165.5 492.843,-183.5 573.501,-183.5 573.501,-165.5 492.843,-165.5"/>
<text text-anchor="middle" x="533.172" y="-171.5" font-family="Helvetica,sans-Serif" font-size="10.00">Transform.hpp</text>
</a>
</g>
</g>
<!-- Node0&#45;&gt;Node21 -->
<g id="edge29" class="edge"><title>Node0&#45;&gt;Node21</title>
<path fill="none" stroke="midnightblue" d="M533.172,-220.219C533.172,-213.177 533.172,-202.808 533.172,-193.828"/>
<polygon fill="midnightblue" stroke="midnightblue" points="536.672,-193.55 533.172,-183.55 529.672,-193.55 536.672,-193.55"/>
</g>
<!-- Node2 -->
<g id="node3" class="node"><title>Node2</title>
<g id="a_node3"><a xlink:href="_component_8hpp.html" target="_top" xlink:title="Component.hpp">
<polygon fill="none" stroke="black" points="632.591,-110.5 632.591,-128.5 719.753,-128.5 719.753,-110.5 632.591,-110.5"/>
<text text-anchor="middle" x="676.172" y="-116.5" font-family="Helvetica,sans-Serif" font-size="10.00">Component.hpp</text>
</a>
</g>
</g>
<!-- Node1&#45;&gt;Node2 -->
<g id="edge2" class="edge"><title>Node1&#45;&gt;Node2</title>
<path fill="none" stroke="midnightblue" d="M676.172,-165.219C676.172,-158.177 676.172,-147.808 676.172,-138.828"/>
<polygon fill="midnightblue" stroke="midnightblue" points="679.672,-138.55 676.172,-128.55 672.672,-138.55 679.672,-138.55"/>
</g>
<!-- Node4 -->
<g id="node5" class="node"><title>Node4</title>
<polygon fill="none" stroke="#bfbfbf" points="894.599,-0.5 894.599,-18.5 981.746,-18.5 981.746,-0.5 894.599,-0.5"/>
<text text-anchor="middle" x="938.172" y="-6.5" font-family="Helvetica,sans-Serif" font-size="10.00">Box2D/Box2D.h</text>
</g>
<!-- Node1&#45;&gt;Node4 -->
<g id="edge4" class="edge"><title>Node1&#45;&gt;Node4</title>
<path fill="none" stroke="midnightblue" d="M716.081,-171.555C754.685,-167.943 813.332,-157.731 855.172,-129 892.843,-103.132 918.891,-54.1819 930.809,-28.0223"/>
<polygon fill="midnightblue" stroke="midnightblue" points="934.118,-29.1916 934.925,-18.6275 927.706,-26.3829 934.118,-29.1916"/>
</g>
<!-- Node5 -->
<g id="node6" class="node"><title>Node5</title>
<g id="a_node6"><a xlink:href="_physics_manager_8hpp.html" target="_top" xlink:title="PhysicsManager.hpp">
<polygon fill="none" stroke="black" points="737.754,-110.5 737.754,-128.5 846.591,-128.5 846.591,-110.5 737.754,-110.5"/>
<text text-anchor="middle" x="792.172" y="-116.5" font-family="Helvetica,sans-Serif" font-size="10.00">PhysicsManager.hpp</text>
</a>
</g>
</g>
<!-- Node1&#45;&gt;Node5 -->
<g id="edge5" class="edge"><title>Node1&#45;&gt;Node5</title>
<path fill="none" stroke="midnightblue" d="M693.79,-165.45C712.783,-156.773 743.243,-142.856 765.243,-132.804"/>
<polygon fill="midnightblue" stroke="midnightblue" points="766.748,-135.965 774.389,-128.625 763.839,-129.598 766.748,-135.965"/>
</g>
<!-- Node16 -->
<g id="node17" class="node"><title>Node16</title>
<polygon fill="none" stroke="#bfbfbf" points="543.938,-110.5 543.938,-128.5 614.406,-128.5 614.406,-110.5 543.938,-110.5"/>
<text text-anchor="middle" x="579.172" y="-116.5" font-family="Helvetica,sans-Serif" font-size="10.00">glm/glm.hpp</text>
</g>
<!-- Node1&#45;&gt;Node16 -->
<g id="edge21" class="edge"><title>Node1&#45;&gt;Node16</title>
<path fill="none" stroke="midnightblue" d="M661.44,-165.45C645.915,-156.968 621.225,-143.477 602.939,-133.486"/>
<polygon fill="midnightblue" stroke="midnightblue" points="604.497,-130.349 594.043,-128.625 601.141,-136.492 604.497,-130.349"/>
</g>
<!-- Node3 -->
<g id="node4" class="node"><title>Node3</title>
<polygon fill="none" stroke="#bfbfbf" points="477.946,-55.5 477.946,-73.5 518.399,-73.5 518.399,-55.5 477.946,-55.5"/>
<text text-anchor="middle" x="498.172" y="-61.5" font-family="Helvetica,sans-Serif" font-size="10.00">string</text>
</g>
<!-- Node2&#45;&gt;Node3 -->
<g id="edge3" class="edge"><title>Node2&#45;&gt;Node3</title>
<path fill="none" stroke="midnightblue" d="M649.138,-110.45C616.615,-100.767 562.176,-84.5572 528.323,-74.4774"/>
<polygon fill="midnightblue" stroke="midnightblue" points="529.108,-71.0593 518.525,-71.56 527.11,-77.7682 529.108,-71.0593"/>
</g>
<!-- Node5&#45;&gt;Node4 -->
<g id="edge9" class="edge"><title>Node5&#45;&gt;Node4</title>
<path fill="none" stroke="midnightblue" d="M803.146,-110.382C827.772,-92.1658 887.705,-47.8322 918.776,-24.8483"/>
<polygon fill="midnightblue" stroke="midnightblue" points="921.113,-27.4726 927.071,-18.7118 916.95,-21.845 921.113,-27.4726"/>
</g>
<!-- Node6 -->
<g id="node7" class="node"><title>Node6</title>
<polygon fill="none" stroke="#bfbfbf" points="769.441,-0.5 769.441,-18.5 814.904,-18.5 814.904,-0.5 769.441,-0.5"/>
<text text-anchor="middle" x="792.172" y="-6.5" font-family="Helvetica,sans-Serif" font-size="10.00">stdio.h</text>
</g>
<!-- Node5&#45;&gt;Node6 -->
<g id="edge6" class="edge"><title>Node5&#45;&gt;Node6</title>
<path fill="none" stroke="midnightblue" d="M792.172,-110.382C792.172,-93.1822 792.172,-52.698 792.172,-28.8866"/>
<polygon fill="midnightblue" stroke="midnightblue" points="795.672,-28.7117 792.172,-18.7118 788.672,-28.7118 795.672,-28.7117"/>
</g>
<!-- Node7 -->
<g id="node8" class="node"><title>Node7</title>
<polygon fill="none" stroke="#bfbfbf" points="833.276,-0.5 833.276,-18.5 877.069,-18.5 877.069,-0.5 833.276,-0.5"/>
<text text-anchor="middle" x="855.172" y="-6.5" font-family="Helvetica,sans-Serif" font-size="10.00">SDL.h</text>
</g>
<!-- Node5&#45;&gt;Node7 -->
<g id="edge7" class="edge"><title>Node5&#45;&gt;Node7</title>
<path fill="none" stroke="midnightblue" d="M796.908,-110.382C807.124,-92.8695 831.42,-51.2181 845.195,-27.6045"/>
<polygon fill="midnightblue" stroke="midnightblue" points="848.367,-29.1131 850.382,-18.7118 842.32,-25.586 848.367,-29.1131"/>
</g>
<!-- Node8 -->
<g id="node9" class="node"><title>Node8</title>
<polygon fill="none" stroke="#bfbfbf" points="0,-0.5 0,-18.5 54.3447,-18.5 54.3447,-0.5 0,-0.5"/>
<text text-anchor="middle" x="27.1724" y="-6.5" font-family="Helvetica,sans-Serif" font-size="10.00">iostream</text>
</g>
<!-- Node5&#45;&gt;Node8 -->
<g id="edge8" class="edge"><title>Node5&#45;&gt;Node8</title>
<path fill="none" stroke="midnightblue" d="M743.22,-110.496C686.719,-100.978 597.434,-85.0005 565.172,-74 547.3,-67.9061 545.367,-60.0478 527.172,-55 331.393,-0.685228 270.112,-48.6435 64.4671,-18.7517"/>
<polygon fill="midnightblue" stroke="midnightblue" points="64.9724,-15.2884 54.5643,-17.2687 63.9356,-22.2112 64.9724,-15.2884"/>
</g>
<!-- Node9 -->
<g id="node10" class="node"><title>Node9</title>
<g id="a_node10"><a xlink:href="_foo_draw2_8hpp.html" target="_top" xlink:title="FooDraw2.hpp">
<polygon fill="none" stroke="black" points="574.377,-55.5 574.377,-73.5 655.968,-73.5 655.968,-55.5 574.377,-55.5"/>
<text text-anchor="middle" x="615.172" y="-61.5" font-family="Helvetica,sans-Serif" font-size="10.00">FooDraw2.hpp</text>
</a>
</g>
</g>
<!-- Node5&#45;&gt;Node9 -->
<g id="edge10" class="edge"><title>Node5&#45;&gt;Node9</title>
<path fill="none" stroke="midnightblue" d="M765.29,-110.45C735.053,-101.396 685.766,-86.6382 651.97,-76.5185"/>
<polygon fill="midnightblue" stroke="midnightblue" points="652.601,-73.054 642.017,-73.5383 650.593,-79.7598 652.601,-73.054"/>
</g>
<!-- Node9&#45;&gt;Node4 -->
<g id="edge20" class="edge"><title>Node9&#45;&gt;Node4</title>
<path fill="none" stroke="midnightblue" d="M656.081,-56.7875C714.089,-47.2691 820.323,-29.8375 884.569,-19.2955"/>
<polygon fill="midnightblue" stroke="midnightblue" points="885.205,-22.7381 894.506,-17.665 884.071,-15.8305 885.205,-22.7381"/>
</g>
<!-- Node9&#45;&gt;Node6 -->
<g id="edge11" class="edge"><title>Node9&#45;&gt;Node6</title>
<path fill="none" stroke="midnightblue" d="M642.055,-55.4504C673.519,-46.0291 725.61,-30.431 759.41,-20.3102"/>
<polygon fill="midnightblue" stroke="midnightblue" points="760.694,-23.5795 769.269,-17.358 758.686,-16.8736 760.694,-23.5795"/>
</g>
<!-- Node9&#45;&gt;Node7 -->
<g id="edge13" class="edge"><title>Node9&#45;&gt;Node7</title>
<path fill="none" stroke="midnightblue" d="M656.18,-55.4981C696.372,-47.493 759.587,-34.4722 823.373,-19.0825"/>
<polygon fill="midnightblue" stroke="midnightblue" points="824.308,-22.4573 833.198,-16.6941 822.654,-15.6554 824.308,-22.4573"/>
</g>
<!-- Node9&#45;&gt;Node8 -->
<g id="edge17" class="edge"><title>Node9&#45;&gt;Node8</title>
<path fill="none" stroke="midnightblue" d="M574.374,-56.8191C569.594,-56.1478 564.781,-55.5225 560.172,-55 343.772,-30.4656 284.472,-51.213 64.4807,-18.7673"/>
<polygon fill="midnightblue" stroke="midnightblue" points="64.9694,-15.3015 54.5618,-17.2846 63.9345,-22.2246 64.9694,-15.3015"/>
</g>
<!-- Node10 -->
<g id="node11" class="node"><title>Node10</title>
<polygon fill="none" stroke="#bfbfbf" points="280.921,-0.5 280.921,-18.5 371.423,-18.5 371.423,-0.5 280.921,-0.5"/>
<text text-anchor="middle" x="326.172" y="-6.5" font-family="Helvetica,sans-Serif" font-size="10.00">SRE/Shader.hpp</text>
</g>
<!-- Node9&#45;&gt;Node10 -->
<g id="edge12" class="edge"><title>Node9&#45;&gt;Node10</title>
<path fill="none" stroke="midnightblue" d="M574.073,-55.9627C523.166,-46.6269 436.305,-30.6973 380.092,-20.3883"/>
<polygon fill="midnightblue" stroke="midnightblue" points="380.435,-16.893 369.968,-18.5317 379.172,-23.7782 380.435,-16.893"/>
</g>
<!-- Node11 -->
<g id="node12" class="node"><title>Node11</title>
<polygon fill="none" stroke="#bfbfbf" points="389.429,-0.5 389.429,-18.5 534.916,-18.5 534.916,-0.5 389.429,-0.5"/>
<text text-anchor="middle" x="462.172" y="-6.5" font-family="Helvetica,sans-Serif" font-size="10.00">glm/gtc/matrix_transform.hpp</text>
</g>
<!-- Node9&#45;&gt;Node11 -->
<g id="edge14" class="edge"><title>Node9&#45;&gt;Node11</title>
<path fill="none" stroke="midnightblue" d="M591.935,-55.4504C566.211,-46.5395 524.535,-32.1029 495.374,-22.0014"/>
<polygon fill="midnightblue" stroke="midnightblue" points="496.223,-18.5914 485.628,-18.6253 493.932,-25.2058 496.223,-18.5914"/>
</g>
<!-- Node12 -->
<g id="node13" class="node"><title>Node12</title>
<polygon fill="none" stroke="#bfbfbf" points="553.037,-0.5 553.037,-18.5 641.308,-18.5 641.308,-0.5 553.037,-0.5"/>
<text text-anchor="middle" x="597.172" y="-6.5" font-family="Helvetica,sans-Serif" font-size="10.00">SRE/Debug.hpp</text>
</g>
<!-- Node9&#45;&gt;Node12 -->
<g id="edge15" class="edge"><title>Node9&#45;&gt;Node12</title>
<path fill="none" stroke="midnightblue" d="M612.36,-55.2188C609.915,-48.0204 606.29,-37.3458 603.194,-28.2311"/>
<polygon fill="midnightblue" stroke="midnightblue" points="606.436,-26.8928 599.906,-18.5496 599.808,-29.1439 606.436,-26.8928"/>
</g>
<!-- Node13 -->
<g id="node14" class="node"><title>Node13</title>
<polygon fill="none" stroke="#bfbfbf" points="659.375,-0.5 659.375,-18.5 750.97,-18.5 750.97,-0.5 659.375,-0.5"/>
<text text-anchor="middle" x="705.172" y="-6.5" font-family="Helvetica,sans-Serif" font-size="10.00">SRE/Texture.hpp</text>
</g>
<!-- Node9&#45;&gt;Node13 -->
<g id="edge16" class="edge"><title>Node9&#45;&gt;Node13</title>
<path fill="none" stroke="midnightblue" d="M628.841,-55.4504C643.114,-47.0453 665.735,-33.7241 682.652,-23.7618"/>
<polygon fill="midnightblue" stroke="midnightblue" points="684.534,-26.7157 691.375,-18.6253 680.982,-20.6838 684.534,-26.7157"/>
</g>
<!-- Node14 -->
<g id="node15" class="node"><title>Node14</title>
<polygon fill="none" stroke="#bfbfbf" points="72.7515,-0.5 72.7515,-18.5 201.593,-18.5 201.593,-0.5 72.7515,-0.5"/>
<text text-anchor="middle" x="137.172" y="-6.5" font-family="Helvetica,sans-Serif" font-size="10.00">glm/gtx/closest_point.hpp</text>
</g>
<!-- Node9&#45;&gt;Node14 -->
<g id="edge18" class="edge"><title>Node9&#45;&gt;Node14</title>
<path fill="none" stroke="midnightblue" d="M574.358,-56.9561C569.581,-56.2602 564.772,-55.5916 560.172,-55 408.406,-35.4803 367.366,-36.0104 212.052,-19.1891"/>
<polygon fill="midnightblue" stroke="midnightblue" points="211.974,-15.66 201.654,-18.0556 211.215,-22.6188 211.974,-15.66"/>
</g>
<!-- Node15 -->
<g id="node16" class="node"><title>Node15</title>
<polygon fill="none" stroke="#bfbfbf" points="219.557,-0.5 219.557,-18.5 262.788,-18.5 262.788,-0.5 219.557,-0.5"/>
<text text-anchor="middle" x="241.172" y="-6.5" font-family="Helvetica,sans-Serif" font-size="10.00">time.h</text>
</g>
<!-- Node9&#45;&gt;Node15 -->
<g id="edge19" class="edge"><title>Node9&#45;&gt;Node15</title>
<path fill="none" stroke="midnightblue" d="M574.345,-57.0556C569.57,-56.3418 564.765,-55.6419 560.172,-55 435.661,-37.6005 400.472,-43.7818 273.231,-18.9349"/>
<polygon fill="midnightblue" stroke="midnightblue" points="273.584,-15.4371 263.095,-16.9288 272.225,-22.3039 273.584,-15.4371"/>
</g>
<!-- Node17&#45;&gt;Node2 -->
<g id="edge27" class="edge"><title>Node17&#45;&gt;Node2</title>
<path fill="none" stroke="midnightblue" d="M466.686,-165.45C510.063,-156.143 581.535,-140.807 628.734,-130.679"/>
<polygon fill="midnightblue" stroke="midnightblue" points="629.668,-134.058 638.711,-128.538 628.199,-127.214 629.668,-134.058"/>
</g>
<!-- Node17&#45;&gt;Node3 -->
<g id="edge25" class="edge"><title>Node17&#45;&gt;Node3</title>
<path fill="none" stroke="midnightblue" d="M383.357,-171.169C323.24,-166.427 229.237,-152.205 264.172,-110 289.626,-79.2502 409.768,-69.5714 467.307,-66.6708"/>
<polygon fill="midnightblue" stroke="midnightblue" points="467.784,-70.1525 477.61,-66.1907 467.458,-63.1601 467.784,-70.1525"/>
</g>
<!-- Node17&#45;&gt;Node16 -->
<g id="edge24" class="edge"><title>Node17&#45;&gt;Node16</title>
<path fill="none" stroke="midnightblue" d="M451.954,-165.45C477.174,-156.539 518.032,-142.103 546.621,-132.001"/>
<polygon fill="midnightblue" stroke="midnightblue" points="547.913,-135.257 556.176,-128.625 545.581,-128.657 547.913,-135.257"/>
</g>
<!-- Node18 -->
<g id="node19" class="node"><title>Node18</title>
<polygon fill="none" stroke="#bfbfbf" points="404.544,-110.5 404.544,-128.5 487.8,-128.5 487.8,-110.5 404.544,-110.5"/>
<text text-anchor="middle" x="446.172" y="-116.5" font-family="Helvetica,sans-Serif" font-size="10.00">SRE/Mesh.hpp</text>
</g>
<!-- Node17&#45;&gt;Node18 -->
<g id="edge23" class="edge"><title>Node17&#45;&gt;Node18</title>
<path fill="none" stroke="midnightblue" d="M431.829,-165.219C434.138,-158.02 437.561,-147.346 440.485,-138.231"/>
<polygon fill="midnightblue" stroke="midnightblue" points="443.869,-139.141 443.59,-128.55 437.203,-137.003 443.869,-139.141"/>
</g>
<!-- Node19 -->
<g id="node20" class="node"><title>Node19</title>
<polygon fill="none" stroke="#bfbfbf" points="343.557,-110.5 343.557,-128.5 386.788,-128.5 386.788,-110.5 343.557,-110.5"/>
<text text-anchor="middle" x="365.172" y="-116.5" font-family="Helvetica,sans-Serif" font-size="10.00">vector</text>
</g>
<!-- Node17&#45;&gt;Node19 -->
<g id="edge26" class="edge"><title>Node17&#45;&gt;Node19</title>
<path fill="none" stroke="midnightblue" d="M419.452,-165.45C409.772,-157.434 394.693,-144.947 382.883,-135.166"/>
<polygon fill="midnightblue" stroke="midnightblue" points="384.918,-132.308 374.984,-128.625 380.454,-137.699 384.918,-132.308"/>
</g>
<!-- Node20 -->
<g id="node21" class="node"><title>Node20</title>
<polygon fill="none" stroke="#bfbfbf" points="273.116,-110.5 273.116,-128.5 325.229,-128.5 325.229,-110.5 273.116,-110.5"/>
<text text-anchor="middle" x="299.172" y="-116.5" font-family="Helvetica,sans-Serif" font-size="10.00">memory</text>
</g>
<!-- Node17&#45;&gt;Node20 -->
<g id="edge28" class="edge"><title>Node17&#45;&gt;Node20</title>
<path fill="none" stroke="midnightblue" d="M409.428,-165.45C387.857,-156.656 353.086,-142.48 328.362,-132.401"/>
<polygon fill="midnightblue" stroke="midnightblue" points="329.684,-129.16 319.102,-128.625 327.041,-135.642 329.684,-129.16"/>
</g>
<!-- Node21&#45;&gt;Node2 -->
<g id="edge30" class="edge"><title>Node21&#45;&gt;Node2</title>
<path fill="none" stroke="midnightblue" d="M554.891,-165.45C578.829,-156.578 617.545,-142.229 644.783,-132.134"/>
<polygon fill="midnightblue" stroke="midnightblue" points="646.089,-135.383 654.249,-128.625 643.656,-128.819 646.089,-135.383"/>
</g>
<!-- Node21&#45;&gt;Node3 -->
<g id="edge33" class="edge"><title>Node21&#45;&gt;Node3</title>
<path fill="none" stroke="midnightblue" d="M530.542,-165.382C524.917,-148.026 511.608,-106.96 503.922,-83.2413"/>
<polygon fill="midnightblue" stroke="midnightblue" points="507.246,-82.1456 500.834,-73.7118 500.587,-84.3037 507.246,-82.1456"/>
</g>
<!-- Node21&#45;&gt;Node16 -->
<g id="edge32" class="edge"><title>Node21&#45;&gt;Node16</title>
<path fill="none" stroke="midnightblue" d="M540.36,-165.219C547.083,-157.473 557.3,-145.701 565.563,-136.18"/>
<polygon fill="midnightblue" stroke="midnightblue" points="568.274,-138.396 572.186,-128.55 562.988,-133.808 568.274,-138.396"/>
</g>
<!-- Node21&#45;&gt;Node18 -->
<g id="edge31" class="edge"><title>Node21&#45;&gt;Node18</title>
<path fill="none" stroke="midnightblue" d="M519.959,-165.45C506.29,-157.123 484.699,-143.97 468.397,-134.039"/>
<polygon fill="midnightblue" stroke="midnightblue" points="469.871,-130.839 459.51,-128.625 466.229,-136.817 469.871,-130.839"/>
</g>
<!-- Node21&#45;&gt;Node19 -->
<g id="edge34" class="edge"><title>Node21&#45;&gt;Node19</title>
<path fill="none" stroke="midnightblue" d="M507.657,-165.45C477.922,-156.07 428.776,-140.565 396.685,-130.441"/>
<polygon fill="midnightblue" stroke="midnightblue" points="397.501,-127.029 386.911,-127.358 395.394,-133.704 397.501,-127.029"/>
</g>
</g>
</svg>
