<?xml version="1.0" encoding="UTF-8" standalone="no"?>
<!DOCTYPE svg PUBLIC "-//W3C//DTD SVG 1.1//EN"
 "http://www.w3.org/Graphics/SVG/1.1/DTD/svg11.dtd">
<!-- Generated by graphviz version 2.38.0 (20140413.2041)
 -->
<!-- Title: Rigidbody.hpp Pages: 1 -->
<svg width="377pt" height="137pt"
 viewBox="0.00 0.00 377.40 137.00" xmlns="http://www.w3.org/2000/svg" xmlns:xlink="http://www.w3.org/1999/xlink">
<g id="graph0" class="graph" transform="scale(1 1) rotate(0) translate(4 133)">
<title>Rigidbody.hpp</title>
<!-- Node16 -->
<g id="node1" class="node"><title>Node16</title>
<polygon fill="#bfbfbf" stroke="black" points="142.482,-110.5 142.482,-128.5 221.68,-128.5 221.68,-110.5 142.482,-110.5"/>
<text text-anchor="middle" x="182.081" y="-116.5" font-family="Helvetica,sans-Serif" font-size="10.00">Rigidbody.hpp</text>
</g>
<!-- Node17 -->
<g id="node2" class="node"><title>Node17</title>
<g id="a_node2"><a xlink:href="_scene_parser_8hpp.html" target="_top" xlink:title="SceneParser.hpp">
<polygon fill="none" stroke="black" points="22.7192,-55.5 22.7192,-73.5 115.443,-73.5 115.443,-55.5 22.7192,-55.5"/>
<text text-anchor="middle" x="69.0811" y="-61.5" font-family="Helvetica,sans-Serif" font-size="10.00">SceneParser.hpp</text>
</a>
</g>
</g>
<!-- Node16&#45;&gt;Node17 -->
<g id="edge1" class="edge"><title>Node16&#45;&gt;Node17</title>
<path fill="none" stroke="midnightblue" d="M155.746,-106.148C134.386,-96.1297 104.887,-82.2941 86.4048,-73.6253"/>
<polygon fill="midnightblue" stroke="midnightblue" points="154.379,-109.373 164.919,-110.45 157.351,-103.035 154.379,-109.373"/>
</g>
<!-- Node18 -->
<g id="node3" class="node"><title>Node18</title>
<g id="a_node3"><a xlink:href="_engine_8cpp.html" target="_top" xlink:title="Engine.cpp">
<polygon fill="none" stroke="black" points="110.062,-0.5 110.062,-18.5 176.101,-18.5 176.101,-0.5 110.062,-0.5"/>
<text text-anchor="middle" x="143.081" y="-6.5" font-family="Helvetica,sans-Serif" font-size="10.00">Engine.cpp</text>
</a>
</g>
</g>
<!-- Node16&#45;&gt;Node18 -->
<g id="edge7" class="edge"><title>Node16&#45;&gt;Node18</title>
<path fill="none" stroke="midnightblue" d="M173.688,-101.246C169.886,-93.0889 165.49,-83.1528 162.081,-74 154.851,-54.5898 148.395,-31.0818 145.199,-18.8346"/>
<polygon fill="midnightblue" stroke="midnightblue" points="170.605,-102.912 178.067,-110.433 176.924,-99.8998 170.605,-102.912"/>
</g>
<!-- Node20 -->
<g id="node5" class="node"><title>Node20</title>
<g id="a_node5"><a xlink:href="_particle_system_8hpp.html" target="_top" xlink:title="ParticleSystem.hpp">
<polygon fill="none" stroke="black" points="171.007,-55.5 171.007,-73.5 273.155,-73.5 273.155,-55.5 171.007,-55.5"/>
<text text-anchor="middle" x="222.081" y="-61.5" font-family="Helvetica,sans-Serif" font-size="10.00">ParticleSystem.hpp</text>
</a>
</g>
</g>
<!-- Node16&#45;&gt;Node20 -->
<g id="edge4" class="edge"><title>Node16&#45;&gt;Node20</title>
<path fill="none" stroke="midnightblue" d="M194.571,-101.951C201.708,-92.4941 210.338,-81.0595 216.006,-73.5496"/>
<polygon fill="midnightblue" stroke="midnightblue" points="191.561,-100.128 188.331,-110.219 197.149,-104.345 191.561,-100.128"/>
</g>
<!-- Node22 -->
<g id="node7" class="node"><title>Node22</title>
<g id="a_node7"><a xlink:href="_rigidbody_8cpp.html" target="_top" xlink:title="Rigidbody.cpp">
<polygon fill="none" stroke="black" points="290.763,-55.5 290.763,-73.5 369.399,-73.5 369.399,-55.5 290.763,-55.5"/>
<text text-anchor="middle" x="330.081" y="-61.5" font-family="Helvetica,sans-Serif" font-size="10.00">Rigidbody.cpp</text>
</a>
</g>
</g>
<!-- Node16&#45;&gt;Node22 -->
<g id="edge8" class="edge"><title>Node16&#45;&gt;Node22</title>
<path fill="none" stroke="midnightblue" d="M214.328,-106.952C242.45,-96.8814 282.53,-82.5284 307.392,-73.6253"/>
<polygon fill="midnightblue" stroke="midnightblue" points="212.794,-103.784 204.559,-110.45 215.154,-110.374 212.794,-103.784"/>
</g>
<!-- Node17&#45;&gt;Node18 -->
<g id="edge2" class="edge"><title>Node17&#45;&gt;Node18</title>
<path fill="none" stroke="midnightblue" d="M88.64,-49.4916C102.382,-39.6491 120.287,-26.8255 131.736,-18.6253"/>
<polygon fill="midnightblue" stroke="midnightblue" points="86.412,-46.7822 80.3201,-55.4504 90.488,-52.4731 86.412,-46.7822"/>
</g>
<!-- Node19 -->
<g id="node4" class="node"><title>Node19</title>
<g id="a_node4"><a xlink:href="_scene_parser_8cpp.html" target="_top" xlink:title="SceneParser.cpp">
<polygon fill="none" stroke="black" points="0,-0.5 0,-18.5 92.1621,-18.5 92.1621,-0.5 0,-0.5"/>
<text text-anchor="middle" x="46.0811" y="-6.5" font-family="Helvetica,sans-Serif" font-size="10.00">SceneParser.cpp</text>
</a>
</g>
</g>
<!-- Node17&#45;&gt;Node19 -->
<g id="edge3" class="edge"><title>Node17&#45;&gt;Node19</title>
<path fill="none" stroke="midnightblue" d="M61.3874,-45.7712C57.3891,-36.5577 52.6989,-25.7498 49.5743,-18.5496"/>
<polygon fill="midnightblue" stroke="midnightblue" points="58.2956,-47.4386 65.4873,-55.2188 64.717,-44.6519 58.2956,-47.4386"/>
</g>
<!-- Node20&#45;&gt;Node18 -->
<g id="edge5" class="edge"><title>Node20&#45;&gt;Node18</title>
<path fill="none" stroke="midnightblue" d="M201.618,-49.7719C186.894,-39.8937 167.532,-26.9036 155.192,-18.6253"/>
<polygon fill="midnightblue" stroke="midnightblue" points="199.828,-52.7857 210.083,-55.4504 203.728,-46.9727 199.828,-52.7857"/>
</g>
<!-- Node21 -->
<g id="node6" class="node"><title>Node21</title>
<g id="a_node6"><a xlink:href="_particle_system_8cpp.html" target="_top" xlink:title="ParticleSystem.cpp">
<polygon fill="none" stroke="black" points="194.288,-0.5 194.288,-18.5 295.874,-18.5 295.874,-0.5 194.288,-0.5"/>
<text text-anchor="middle" x="245.081" y="-6.5" font-family="Helvetica,sans-Serif" font-size="10.00">ParticleSystem.cpp</text>
</a>
</g>
</g>
<!-- Node20&#45;&gt;Node21 -->
<g id="edge6" class="edge"><title>Node20&#45;&gt;Node21</title>
<path fill="none" stroke="midnightblue" d="M229.775,-45.7712C233.773,-36.5577 238.463,-25.7498 241.588,-18.5496"/>
<polygon fill="midnightblue" stroke="midnightblue" points="226.445,-44.6519 225.675,-55.2188 232.867,-47.4386 226.445,-44.6519"/>
</g>
</g>
</svg>
