<?xml version="1.0" encoding="UTF-8" standalone="no"?>
<!DOCTYPE svg PUBLIC "-//W3C//DTD SVG 1.1//EN"
 "http://www.w3.org/Graphics/SVG/1.1/DTD/svg11.dtd">
<!-- Generated by graphviz version 2.38.0 (20140413.2041)
 -->
<!-- Title: Rigidbody.cpp Pages: 1 -->
<svg width="990pt" height="247pt"
 viewBox="0.00 0.00 989.75 247.00" xmlns="http://www.w3.org/2000/svg" xmlns:xlink="http://www.w3.org/1999/xlink">
<g id="graph0" class="graph" transform="scale(1 1) rotate(0) translate(4 243)">
<title>Rigidbody.cpp</title>
<!-- Node0 -->
<g id="node1" class="node"><title>Node0</title>
<polygon fill="#bfbfbf" stroke="black" points="493.854,-220.5 493.854,-238.5 572.491,-238.5 572.491,-220.5 493.854,-220.5"/>
<text text-anchor="middle" x="533.172" y="-226.5" font-family="Helvetica,sans-Serif" font-size="10.00">Rigidbody.cpp</text>
</g>
<!-- Node1 -->
<g id="node2" class="node"><title>Node1</title>
<g id="a_node2"><a xlink:href="_rigidbody_8hpp.html" target="_top" xlink:title="Rigidbody.hpp">
<polygon fill="none" stroke="black" points="636.573,-165.5 636.573,-183.5 715.771,-183.5 715.771,-165.5 636.573,-165.5"/>
<text text-anchor="middle" x="676.172" y="-171.5" font-family="Helvetica,sans-Serif" font-size="10.00">Rigidbody.hpp</text>
</a>
</g>
</g>
<!-- Node0&#45;&gt;Node1 -->
<g id="edge1" class="edge"><title>Node0&#45;&gt;Node1</title>
<path fill="none" stroke="midnightblue" d="M554.891,-220.45C578.829,-211.578 617.545,-197.229 644.783,-187.134"/>
<polygon fill="midnightblue" stroke="midnightblue" points="646.089,-190.383 654.249,-183.625 643.656,-183.819 646.089,-190.383"/>
</g>
<!-- Node17 -->
<g id="node18" class="node"><title>Node17</title>
<g id="a_node18"><a xlink:href="_game_object_8hpp.html" target="_top" xlink:title="GameObject.hpp">
<polygon fill="none" stroke="black" points="383.375,-165.5 383.375,-183.5 474.97,-183.5 474.97,-165.5 383.375,-165.5"/>
<text text-anchor="middle" x="429.172" y="-171.5" font-family="Helvetica,sans-Serif" font-size="10.00">GameObject.hpp</text>
</a>
</g>
</g>
<!-- Node0&#45;&gt;Node17 -->
<g id="edge22" class="edge"><title>Node0&#45;&gt;Node17</title>
<path fill="none" stroke="midnightblue" d="M517.377,-220.45C500.579,-211.89 473.773,-198.229 454.116,-188.212"/>
<polygon fill="midnightblue" stroke="midnightblue" points="455.615,-185.047 445.116,-183.625 452.437,-191.284 455.615,-185.047"/>
</g>
<!-- Node21 -->
<g id="node22" class="node"><title>Node21</title>
<g id="a_node22"><a xlink:href="_transform_8hpp.html" target="_top" xlink:title="Transform.hpp">
<polygon fill="none" stroke="black" points="492.843,-165.5 492.843,-183.5 573.501,-183.5 573.501,-165.5 492.843,-165.5"/>
<text text-anchor="middle" x="533.172" y="-171.5" font-family="Helvetica,sans-Serif" font-size="10.00">Transform.hpp</text>
</a>
</g>
</g>
<!-- Node0&#45;&gt;Node21 -->
<g id="edge29" class="edge"><title>Node0&#45;&gt;Node21</title>
<path fill="none" stroke="midnightblue" d="M533.172,-220.219C533.172,-213.177 533.172,-202.808 533.172,-193.828"/>
<polygon fill="midnightblue" stroke="midnightblue" points="536.672,-193.55 533.172,-183.55 529.672,-193.55 536.672,-193.55"/>
</g>
<!-- Node2 -->
<g id="node3" class="node"><title>Node2</title>
<g id="a_node3"><a xlink:href="_component_8hpp.html" target="_top" xlink:title="Component.hpp">
<polygon fill="none" stroke="black" points="632.591,-110.5 632.591,-128.5 719.753,-128.5 719.753,-110.5 632.591,-110.5"/>
<text text-anchor="middle" x="676.172" y="-116.5" font-family="Helvetica,sans-Serif" font-size="10.00">Component.hpp</text>
</a>
</g>
</g>
<!-- Node1&#45;&gt;Node2 -->
<g id="edge2" class="edge"><title>Node1&#45;&gt;Node2</title>
<path fill="none" stroke="midnightblue" d="M676.172,-165.219C676.172,-158.177 676.172,-147.808 676.172,-138.828"/>
<polygon fill="midnightblue" stroke="midnightblue" points="679.672,-138.55 676.172,-128.55 672.672,-138.55 679.672,-138.55"/>
</g>
<!-- Node4 -->
<g id="node5" class="node"><title>Node4</title>
<polygon fill="none" stroke="#bfbfbf" points="894.599,-0.5 894.599,-18.5 981.746,-18.5 981.746,-0.5 894.599,-0.5"/>
<text text-anchor="middle" x="938.172" y="-6.5" font-family="Helvetica,sans-Serif" font-size="10.00">Box2D/Box2D.h</text>
</g>
<!-- Node1&#45;&gt;Node4 -->
<g id="edge4" class="edge"><title>Node1&#45;&gt;Node4</title>
<path fill="none" stroke="midnightblue" d="M716.081,-171.555C754.685,-167.943 813.332,-157.731 855.172,-129 892.843,-103.132 918.891,-54.1819 930.809,-28.0223"/>
<polygon fill="midnightblue" stroke="midnightblue" points="934.118,-29.1916 934.925,-18.6275 927.706,-26.3829 934.118,-29.1916"/>
</g>
<!-- Node5 -->
<g id="node6" class="node"><title>Node5</title>
<g id="a_node6"><a xlink:href="_physics_manager_8hpp.html" target="_top" xlink:title="PhysicsManager.hpp">
<polygon fill="none" stroke="black" points="737.754,-110.5 737.754,-128.5 846.591,-128.5 846.591,-110.5 737.754,-110.5"/>
<text text-anchor="middle" x="792.172" y="-116.5" font-family="Helvetica,sans-Serif" font-size="10.00">PhysicsManager.hpp</text>
</a>
</g>
</g>
<!-- Node1&#45;&gt;Node5 -->
<g id="edge5" class="edge"><title>Node1&#45;&gt;Node5</title>
<path fill="none" stroke="midnightblue" d="M693.79,-165.45C712.783,-156.773 743.243,-142.856 765.243,-132.804"/>
<polygon fill="midnightblue" stroke="midnightblue" points="766.748,-135.965 774.389,-128.625 763.839,-129.598 766.748,-135.965"/>
</g>
<!-- Node16 -->
<g id="node17" class="node"><title>Node16</title>
<polygon fill="none" stroke="#bfbfbf" points="543.938,-110.5 543.938,-128.5 614.406,-128.5 614.406,-110.5 543.938,-110.5"/>
<text text-anchor="middle" x="579.172" y="-116.5" font-family="Helvetica,sans-Serif" font-size="10.00">glm/glm.hpp</text>
</g>
<!-- Node1&#45;&gt;Node16 -->
<g id="edge21" class="edge"><title>Node1&#45;&gt;Node16</title>
<path fill="none" stroke="midnightblue" d="M661.44,-165.45C645.915,-156.968 621.225,-143.477 602.939,-133.486"/>
<polygon fill="midnightblue" stroke="midnightblue" points="604.497,-130.349 594.043,-128.625 601.141,-136.492 604.497,-130.349"/>
</g>
<!-- Node3 -->
<g id="node4" class="node"><title>Node3</title>
<polygon fill="none" stroke="#bfbfbf" points="475.946,-55.5 475.946,-73.5 516.399,-73.5 516.399,-55.5 475.946,-55.5"/>
<text text-anchor="middle" x="496.172" y="-61.5" font-family="Helvetica,sans-Serif" font-size="10.00">string</text>
</g>
<!-- Node2&#45;&gt;Node3 -->
<g id="edge3" class="edge"><title>Node2&#45;&gt;Node3</title>
<path fill="none" stroke="midnightblue" d="M648.834,-110.45C615.857,-100.74 560.596,-84.4693 526.384,-74.3956"/>
<polygon fill="midnightblue" stroke="midnightblue" points="527.071,-70.9495 516.49,-71.4824 525.094,-77.6645 527.071,-70.9495"/>
</g>
<!-- Node5&#45;&gt;Node4 -->
<g id="edge9" class="edge"><title>Node5&#45;&gt;Node4</title>
<path fill="none" stroke="midnightblue" d="M803.146,-110.382C827.772,-92.1658 887.705,-47.8322 918.776,-24.8483"/>
<polygon fill="midnightblue" stroke="midnightblue" points="921.113,-27.4726 927.071,-18.7118 916.95,-21.845 921.113,-27.4726"/>
</g>
<!-- Node6 -->
<g id="node7" class="node"><title>Node6</title>
<polygon fill="none" stroke="#bfbfbf" points="769.441,-0.5 769.441,-18.5 814.904,-18.5 814.904,-0.5 769.441,-0.5"/>
<text text-anchor="middle" x="792.172" y="-6.5" font-family="Helvetica,sans-Serif" font-size="10.00">stdio.h</text>
</g>
<!-- Node5&#45;&gt;Node6 -->
<g id="edge6" class="edge"><title>Node5&#45;&gt;Node6</title>
<path fill="none" stroke="midnightblue" d="M792.172,-110.382C792.172,-93.1822 792.172,-52.698 792.172,-28.8866"/>
<polygon fill="midnightblue" stroke="midnightblue" points="795.672,-28.7117 792.172,-18.7118 788.672,-28.7118 795.672,-28.7117"/>
</g>
<!-- Node7 -->
<g id="node8" class="node"><title>Node7</title>
<polygon fill="none" stroke="#bfbfbf" points="833.276,-0.5 833.276,-18.5 877.069,-18.5 877.069,-0.5 833.276,-0.5"/>
<text text-anchor="middle" x="855.172" y="-6.5" font-family="Helvetica,sans-Serif" font-size="10.00">SDL.h</text>
</g>
<!-- Node5&#45;&gt;Node7 -->
<g id="edge7" class="edge"><title>Node5&#45;&gt;Node7</title>
<path fill="none" stroke="midnightblue" d="M796.908,-110.382C807.124,-92.8695 831.42,-51.2181 845.195,-27.6045"/>
<polygon fill="midnightblue" stroke="midnightblue" points="848.367,-29.1131 850.382,-18.7118 842.32,-25.586 848.367,-29.1131"/>
</g>
<!-- Node8 -->
<g id="node9" class="node"><title>Node8</title>
<polygon fill="none" stroke="#bfbfbf" points="0,-0.5 0,-18.5 54.3447,-18.5 54.3447,-0.5 0,-0.5"/>
<text text-anchor="middle" x="27.1724" y="-6.5" font-family="Helvetica,sans-Serif" font-size="10.00">iostream</text>
</g>
<!-- Node5&#45;&gt;Node8 -->
<g id="edge8" class="edge"><title>Node5&#45;&gt;Node8</title>
<path fill="none" stroke="midnightblue" d="M742.536,-110.477C685.524,-100.976 595.669,-85.0507 563.172,-74 545.295,-67.9208 543.367,-60.0509 525.172,-55 330.339,-0.912599 269.283,-48.5057 64.7311,-18.7906"/>
<polygon fill="midnightblue" stroke="midnightblue" points="64.9726,-15.2878 54.5644,-17.2677 63.9355,-22.2106 64.9726,-15.2878"/>
</g>
<!-- Node9 -->
<g id="node10" class="node"><title>Node9</title>
<g id="a_node10"><a xlink:href="_debug_draw_8hpp.html" target="_top" xlink:title="DebugDraw.hpp">
<polygon fill="none" stroke="black" points="572.313,-55.5 572.313,-73.5 660.032,-73.5 660.032,-55.5 572.313,-55.5"/>
<text text-anchor="middle" x="616.172" y="-61.5" font-family="Helvetica,sans-Serif" font-size="10.00">DebugDraw.hpp</text>
</a>
</g>
</g>
<!-- Node5&#45;&gt;Node9 -->
<g id="edge10" class="edge"><title>Node5&#45;&gt;Node9</title>
<path fill="none" stroke="midnightblue" d="M765.442,-110.45C735.376,-101.396 686.367,-86.6382 652.762,-76.5185"/>
<polygon fill="midnightblue" stroke="midnightblue" points="653.45,-73.0705 642.866,-73.5383 651.432,-79.7732 653.45,-73.0705"/>
</g>
<!-- Node9&#45;&gt;Node4 -->
<g id="edge20" class="edge"><title>Node9&#45;&gt;Node4</title>
<path fill="none" stroke="midnightblue" d="M660.27,-56.2417C718.599,-46.6409 821.344,-29.7295 884.232,-19.3784"/>
<polygon fill="midnightblue" stroke="midnightblue" points="885.051,-22.7907 894.35,-17.713 883.914,-15.8837 885.051,-22.7907"/>
</g>
<!-- Node9&#45;&gt;Node6 -->
<g id="edge11" class="edge"><title>Node9&#45;&gt;Node6</title>
<path fill="none" stroke="midnightblue" d="M642.903,-55.4504C674.189,-46.0291 725.986,-30.431 759.595,-20.3102"/>
<polygon fill="midnightblue" stroke="midnightblue" points="760.833,-23.5928 769.399,-17.358 758.814,-16.8902 760.833,-23.5928"/>
</g>
<!-- Node9&#45;&gt;Node7 -->
<g id="edge13" class="edge"><title>Node9&#45;&gt;Node7</title>
<path fill="none" stroke="midnightblue" d="M656.981,-55.4831C696.98,-47.4666 759.891,-34.4367 823.413,-19.0752"/>
<polygon fill="midnightblue" stroke="midnightblue" points="824.31,-22.4591 833.197,-16.6914 822.653,-15.658 824.31,-22.4591"/>
</g>
<!-- Node9&#45;&gt;Node8 -->
<g id="edge17" class="edge"><title>Node9&#45;&gt;Node8</title>
<path fill="none" stroke="midnightblue" d="M572.197,-56.7121C567.469,-56.0849 562.725,-55.4988 558.172,-55 342.656,-31.3867 283.639,-51.1231 64.7681,-18.8108"/>
<polygon fill="midnightblue" stroke="midnightblue" points="64.9698,-15.3021 54.562,-17.2837 63.9339,-22.2251 64.9698,-15.3021"/>
</g>
<!-- Node10 -->
<g id="node11" class="node"><title>Node10</title>
<polygon fill="none" stroke="#bfbfbf" points="280.921,-0.5 280.921,-18.5 371.423,-18.5 371.423,-0.5 280.921,-0.5"/>
<text text-anchor="middle" x="326.172" y="-6.5" font-family="Helvetica,sans-Serif" font-size="10.00">SRE/Shader.hpp</text>
</g>
<!-- Node9&#45;&gt;Node10 -->
<g id="edge12" class="edge"><title>Node9&#45;&gt;Node10</title>
<path fill="none" stroke="midnightblue" d="M572.128,-55.4504C520.665,-46.0453 435.522,-30.4845 380.136,-20.3623"/>
<polygon fill="midnightblue" stroke="midnightblue" points="380.622,-16.8932 370.156,-18.5383 379.363,-23.7792 380.622,-16.8932"/>
</g>
<!-- Node11 -->
<g id="node12" class="node"><title>Node11</title>
<polygon fill="none" stroke="#bfbfbf" points="389.429,-0.5 389.429,-18.5 534.916,-18.5 534.916,-0.5 389.429,-0.5"/>
<text text-anchor="middle" x="462.172" y="-6.5" font-family="Helvetica,sans-Serif" font-size="10.00">glm/gtc/matrix_transform.hpp</text>
</g>
<!-- Node9&#45;&gt;Node11 -->
<g id="edge14" class="edge"><title>Node9&#45;&gt;Node11</title>
<path fill="none" stroke="midnightblue" d="M592.783,-55.4504C566.816,-46.5136 524.699,-32.0189 495.336,-21.9134"/>
<polygon fill="midnightblue" stroke="midnightblue" points="496.124,-18.4831 485.529,-18.5383 493.846,-25.1021 496.124,-18.4831"/>
</g>
<!-- Node12 -->
<g id="node13" class="node"><title>Node12</title>
<polygon fill="none" stroke="#bfbfbf" points="553.037,-0.5 553.037,-18.5 641.308,-18.5 641.308,-0.5 553.037,-0.5"/>
<text text-anchor="middle" x="597.172" y="-6.5" font-family="Helvetica,sans-Serif" font-size="10.00">SRE/Debug.hpp</text>
</g>
<!-- Node9&#45;&gt;Node12 -->
<g id="edge15" class="edge"><title>Node9&#45;&gt;Node12</title>
<path fill="none" stroke="midnightblue" d="M613.204,-55.2188C610.623,-48.0204 606.796,-37.3458 603.529,-28.2311"/>
<polygon fill="midnightblue" stroke="midnightblue" points="606.727,-26.7818 600.058,-18.5496 600.138,-29.1441 606.727,-26.7818"/>
</g>
<!-- Node13 -->
<g id="node14" class="node"><title>Node13</title>
<polygon fill="none" stroke="#bfbfbf" points="659.375,-0.5 659.375,-18.5 750.97,-18.5 750.97,-0.5 659.375,-0.5"/>
<text text-anchor="middle" x="705.172" y="-6.5" font-family="Helvetica,sans-Serif" font-size="10.00">SRE/Texture.hpp</text>
</g>
<!-- Node9&#45;&gt;Node13 -->
<g id="edge16" class="edge"><title>Node9&#45;&gt;Node13</title>
<path fill="none" stroke="midnightblue" d="M629.69,-55.4504C643.804,-47.0453 666.173,-33.7241 682.903,-23.7618"/>
<polygon fill="midnightblue" stroke="midnightblue" points="684.727,-26.7491 691.528,-18.6253 681.145,-20.7347 684.727,-26.7491"/>
</g>
<!-- Node14 -->
<g id="node15" class="node"><title>Node14</title>
<polygon fill="none" stroke="#bfbfbf" points="72.7515,-0.5 72.7515,-18.5 201.593,-18.5 201.593,-0.5 72.7515,-0.5"/>
<text text-anchor="middle" x="137.172" y="-6.5" font-family="Helvetica,sans-Serif" font-size="10.00">glm/gtx/closest_point.hpp</text>
</g>
<!-- Node9&#45;&gt;Node14 -->
<g id="edge18" class="edge"><title>Node9&#45;&gt;Node14</title>
<path fill="none" stroke="midnightblue" d="M572.18,-56.8527C567.456,-56.1986 562.717,-55.5678 558.172,-55 407.195,-36.1364 366.468,-35.9896 211.996,-19.1849"/>
<polygon fill="midnightblue" stroke="midnightblue" points="211.975,-15.6619 201.654,-18.0536 211.214,-22.6204 211.975,-15.6619"/>
</g>
<!-- Node15 -->
<g id="node16" class="node"><title>Node15</title>
<polygon fill="none" stroke="#bfbfbf" points="219.557,-0.5 219.557,-18.5 262.788,-18.5 262.788,-0.5 219.557,-0.5"/>
<text text-anchor="middle" x="241.172" y="-6.5" font-family="Helvetica,sans-Serif" font-size="10.00">time.h</text>
</g>
<!-- Node9&#45;&gt;Node15 -->
<g id="edge19" class="edge"><title>Node9&#45;&gt;Node15</title>
<path fill="none" stroke="midnightblue" d="M572.167,-56.9552C567.445,-56.2814 562.71,-55.618 558.172,-55 434.453,-38.1496 399.58,-43.6979 273.165,-18.9253"/>
<polygon fill="midnightblue" stroke="midnightblue" points="273.586,-15.4405 263.096,-16.9264 272.223,-22.3065 273.586,-15.4405"/>
</g>
<!-- Node17&#45;&gt;Node2 -->
<g id="edge27" class="edge"><title>Node17&#45;&gt;Node2</title>
<path fill="none" stroke="midnightblue" d="M466.686,-165.45C510.063,-156.143 581.535,-140.807 628.734,-130.679"/>
<polygon fill="midnightblue" stroke="midnightblue" points="629.668,-134.058 638.711,-128.538 628.199,-127.214 629.668,-134.058"/>
</g>
<!-- Node17&#45;&gt;Node3 -->
<g id="edge25" class="edge"><title>Node17&#45;&gt;Node3</title>
<path fill="none" stroke="midnightblue" d="M383.366,-171.176C323.26,-166.443 229.27,-152.233 264.172,-110 289.392,-79.4838 408.515,-69.6863 465.568,-66.7132"/>
<polygon fill="midnightblue" stroke="midnightblue" points="465.965,-70.1982 475.784,-66.2197 465.627,-63.2064 465.965,-70.1982"/>
</g>
<!-- Node17&#45;&gt;Node16 -->
<g id="edge24" class="edge"><title>Node17&#45;&gt;Node16</title>
<path fill="none" stroke="midnightblue" d="M451.954,-165.45C477.174,-156.539 518.032,-142.103 546.621,-132.001"/>
<polygon fill="midnightblue" stroke="midnightblue" points="547.913,-135.257 556.176,-128.625 545.581,-128.657 547.913,-135.257"/>
</g>
<!-- Node18 -->
<g id="node19" class="node"><title>Node18</title>
<polygon fill="none" stroke="#bfbfbf" points="404.544,-110.5 404.544,-128.5 487.8,-128.5 487.8,-110.5 404.544,-110.5"/>
<text text-anchor="middle" x="446.172" y="-116.5" font-family="Helvetica,sans-Serif" font-size="10.00">SRE/Mesh.hpp</text>
</g>
<!-- Node17&#45;&gt;Node18 -->
<g id="edge23" class="edge"><title>Node17&#45;&gt;Node18</title>
<path fill="none" stroke="midnightblue" d="M431.829,-165.219C434.138,-158.02 437.561,-147.346 440.485,-138.231"/>
<polygon fill="midnightblue" stroke="midnightblue" points="443.869,-139.141 443.59,-128.55 437.203,-137.003 443.869,-139.141"/>
</g>
<!-- Node19 -->
<g id="node20" class="node"><title>Node19</title>
<polygon fill="none" stroke="#bfbfbf" points="343.557,-110.5 343.557,-128.5 386.788,-128.5 386.788,-110.5 343.557,-110.5"/>
<text text-anchor="middle" x="365.172" y="-116.5" font-family="Helvetica,sans-Serif" font-size="10.00">vector</text>
</g>
<!-- Node17&#45;&gt;Node19 -->
<g id="edge26" class="edge"><title>Node17&#45;&gt;Node19</title>
<path fill="none" stroke="midnightblue" d="M419.452,-165.45C409.772,-157.434 394.693,-144.947 382.883,-135.166"/>
<polygon fill="midnightblue" stroke="midnightblue" points="384.918,-132.308 374.984,-128.625 380.454,-137.699 384.918,-132.308"/>
</g>
<!-- Node20 -->
<g id="node21" class="node"><title>Node20</title>
<polygon fill="none" stroke="#bfbfbf" points="273.116,-110.5 273.116,-128.5 325.229,-128.5 325.229,-110.5 273.116,-110.5"/>
<text text-anchor="middle" x="299.172" y="-116.5" font-family="Helvetica,sans-Serif" font-size="10.00">memory</text>
</g>
<!-- Node17&#45;&gt;Node20 -->
<g id="edge28" class="edge"><title>Node17&#45;&gt;Node20</title>
<path fill="none" stroke="midnightblue" d="M409.428,-165.45C387.857,-156.656 353.086,-142.48 328.362,-132.401"/>
<polygon fill="midnightblue" stroke="midnightblue" points="329.684,-129.16 319.102,-128.625 327.041,-135.642 329.684,-129.16"/>
</g>
<!-- Node21&#45;&gt;Node2 -->
<g id="edge30" class="edge"><title>Node21&#45;&gt;Node2</title>
<path fill="none" stroke="midnightblue" d="M554.891,-165.45C578.829,-156.578 617.545,-142.229 644.783,-132.134"/>
<polygon fill="midnightblue" stroke="midnightblue" points="646.089,-135.383 654.249,-128.625 643.656,-128.819 646.089,-135.383"/>
</g>
<!-- Node21&#45;&gt;Node3 -->
<g id="edge33" class="edge"><title>Node21&#45;&gt;Node3</title>
<path fill="none" stroke="midnightblue" d="M530.391,-165.382C524.445,-148.026 510.376,-106.96 502.25,-83.2413"/>
<polygon fill="midnightblue" stroke="midnightblue" points="505.538,-82.0376 498.986,-73.7118 498.916,-84.3064 505.538,-82.0376"/>
</g>
<!-- Node21&#45;&gt;Node16 -->
<g id="edge32" class="edge"><title>Node21&#45;&gt;Node16</title>
<path fill="none" stroke="midnightblue" d="M540.36,-165.219C547.083,-157.473 557.3,-145.701 565.563,-136.18"/>
<polygon fill="midnightblue" stroke="midnightblue" points="568.274,-138.396 572.186,-128.55 562.988,-133.808 568.274,-138.396"/>
</g>
<!-- Node21&#45;&gt;Node18 -->
<g id="edge31" class="edge"><title>Node21&#45;&gt;Node18</title>
<path fill="none" stroke="midnightblue" d="M519.959,-165.45C506.29,-157.123 484.699,-143.97 468.397,-134.039"/>
<polygon fill="midnightblue" stroke="midnightblue" points="469.871,-130.839 459.51,-128.625 466.229,-136.817 469.871,-130.839"/>
</g>
<!-- Node21&#45;&gt;Node19 -->
<g id="edge34" class="edge"><title>Node21&#45;&gt;Node19</title>
<path fill="none" stroke="midnightblue" d="M507.657,-165.45C477.922,-156.07 428.776,-140.565 396.685,-130.441"/>
<polygon fill="midnightblue" stroke="midnightblue" points="397.501,-127.029 386.911,-127.358 395.394,-133.704 397.501,-127.029"/>
</g>
</g>
</svg>
