<?xml version="1.0" encoding="UTF-8" standalone="no"?>
<!DOCTYPE svg PUBLIC "-//W3C//DTD SVG 1.1//EN"
 "http://www.w3.org/Graphics/SVG/1.1/DTD/svg11.dtd">
<!-- Generated by graphviz version 2.38.0 (20140413.2041)
 -->
<!-- Title: Rigidbody.hpp Pages: 1 -->
<svg width="433pt" height="137pt"
 viewBox="0.00 0.00 432.87 137.00" xmlns="http://www.w3.org/2000/svg" xmlns:xlink="http://www.w3.org/1999/xlink">
<g id="graph0" class="graph" transform="scale(1 1) rotate(0) translate(4 133)">
<title>Rigidbody.hpp</title>
<!-- Node16 -->
<g id="node1" class="node"><title>Node16</title>
<polygon fill="#bfbfbf" stroke="black" points="156.482,-110.5 156.482,-128.5 235.68,-128.5 235.68,-110.5 156.482,-110.5"/>
<text text-anchor="middle" x="196.081" y="-116.5" font-family="Helvetica,sans-Serif" font-size="10.00">Rigidbody.hpp</text>
</g>
<!-- Node17 -->
<g id="node2" class="node"><title>Node17</title>
<g id="a_node2"><a xlink:href="_scene_parser_8hpp.html" target="_top" xlink:title="SceneParser.hpp">
<polygon fill="none" stroke="black" points="36.7192,-55.5 36.7192,-73.5 129.443,-73.5 129.443,-55.5 36.7192,-55.5"/>
<text text-anchor="middle" x="83.0811" y="-61.5" font-family="Helvetica,sans-Serif" font-size="10.00">SceneParser.hpp</text>
</a>
</g>
</g>
<!-- Node16&#45;&gt;Node17 -->
<g id="edge1" class="edge"><title>Node16&#45;&gt;Node17</title>
<path fill="none" stroke="midnightblue" d="M169.746,-106.148C148.386,-96.1297 118.887,-82.2941 100.405,-73.6253"/>
<polygon fill="midnightblue" stroke="midnightblue" points="168.379,-109.373 178.919,-110.45 171.351,-103.035 168.379,-109.373"/>
</g>
<!-- Node18 -->
<g id="node3" class="node"><title>Node18</title>
<g id="a_node3"><a xlink:href="_engine_8cpp.html" target="_top" xlink:title="Engine.cpp">
<polygon fill="none" stroke="black" points="110.062,-0.5 110.062,-18.5 176.101,-18.5 176.101,-0.5 110.062,-0.5"/>
<text text-anchor="middle" x="143.081" y="-6.5" font-family="Helvetica,sans-Serif" font-size="10.00">Engine.cpp</text>
</a>
</g>
</g>
<!-- Node16&#45;&gt;Node18 -->
<g id="edge8" class="edge"><title>Node16&#45;&gt;Node18</title>
<path fill="none" stroke="midnightblue" d="M187.594,-101.206C176.011,-77.6016 155.709,-36.2324 147.111,-18.7118"/>
<polygon fill="midnightblue" stroke="midnightblue" points="184.55,-102.947 192.097,-110.382 190.834,-99.8632 184.55,-102.947"/>
</g>
<!-- Node20 -->
<g id="node5" class="node"><title>Node20</title>
<g id="a_node5"><a xlink:href="_particle_system_8hpp.html" target="_top" xlink:title="ParticleSystem.hpp">
<polygon fill="none" stroke="black" points="185.007,-55.5 185.007,-73.5 287.155,-73.5 287.155,-55.5 185.007,-55.5"/>
<text text-anchor="middle" x="236.081" y="-61.5" font-family="Helvetica,sans-Serif" font-size="10.00">ParticleSystem.hpp</text>
</a>
</g>
</g>
<!-- Node16&#45;&gt;Node20 -->
<g id="edge4" class="edge"><title>Node16&#45;&gt;Node20</title>
<path fill="none" stroke="midnightblue" d="M208.571,-101.951C215.708,-92.4941 224.338,-81.0595 230.006,-73.5496"/>
<polygon fill="midnightblue" stroke="midnightblue" points="205.561,-100.128 202.331,-110.219 211.149,-104.345 205.561,-100.128"/>
</g>
<!-- Node23 -->
<g id="node8" class="node"><title>Node23</title>
<g id="a_node8"><a xlink:href="_rigidbody_8cpp.html" target="_top" xlink:title="Rigidbody.cpp">
<polygon fill="none" stroke="black" points="304.763,-55.5 304.763,-73.5 383.399,-73.5 383.399,-55.5 304.763,-55.5"/>
<text text-anchor="middle" x="344.081" y="-61.5" font-family="Helvetica,sans-Serif" font-size="10.00">Rigidbody.cpp</text>
</a>
</g>
</g>
<!-- Node16&#45;&gt;Node23 -->
<g id="edge9" class="edge"><title>Node16&#45;&gt;Node23</title>
<path fill="none" stroke="midnightblue" d="M228.328,-106.952C256.45,-96.8814 296.53,-82.5284 321.392,-73.6253"/>
<polygon fill="midnightblue" stroke="midnightblue" points="226.794,-103.784 218.559,-110.45 229.154,-110.374 226.794,-103.784"/>
</g>
<!-- Node17&#45;&gt;Node18 -->
<g id="edge2" class="edge"><title>Node17&#45;&gt;Node18</title>
<path fill="none" stroke="midnightblue" d="M99.9028,-48.6408C110.907,-38.9201 124.865,-26.5913 133.883,-18.6253"/>
<polygon fill="midnightblue" stroke="midnightblue" points="97.3714,-46.2069 92.1938,-55.4504 102.006,-51.4532 97.3714,-46.2069"/>
</g>
<!-- Node19 -->
<g id="node4" class="node"><title>Node19</title>
<g id="a_node4"><a xlink:href="_scene_parser_8cpp.html" target="_top" xlink:title="SceneParser.cpp">
<polygon fill="none" stroke="black" points="0,-0.5 0,-18.5 92.1621,-18.5 92.1621,-0.5 0,-0.5"/>
<text text-anchor="middle" x="46.0811" y="-6.5" font-family="Helvetica,sans-Serif" font-size="10.00">SceneParser.cpp</text>
</a>
</g>
</g>
<!-- Node17&#45;&gt;Node19 -->
<g id="edge3" class="edge"><title>Node17&#45;&gt;Node19</title>
<path fill="none" stroke="midnightblue" d="M71.5278,-46.9507C64.926,-37.4941 56.9433,-26.0595 51.7006,-18.5496"/>
<polygon fill="midnightblue" stroke="midnightblue" points="68.7057,-49.0226 77.2998,-55.2188 74.4454,-45.0157 68.7057,-49.0226"/>
</g>
<!-- Node20&#45;&gt;Node18 -->
<g id="edge5" class="edge"><title>Node20&#45;&gt;Node18</title>
<path fill="none" stroke="midnightblue" d="M212.967,-50.3277C195.522,-40.3856 172.139,-27.0598 157.339,-18.6253"/>
<polygon fill="midnightblue" stroke="midnightblue" points="211.535,-53.5399 221.956,-55.4504 215.001,-47.4582 211.535,-53.5399"/>
</g>
<!-- Node21 -->
<g id="node6" class="node"><title>Node21</title>
<g id="a_node6"><a xlink:href="_particle_controller_8cpp.html" target="_top" xlink:title="ParticleController.cpp">
<polygon fill="none" stroke="black" points="194.557,-0.5 194.557,-18.5 305.605,-18.5 305.605,-0.5 194.557,-0.5"/>
<text text-anchor="middle" x="250.081" y="-6.5" font-family="Helvetica,sans-Serif" font-size="10.00">ParticleController.cpp</text>
</a>
</g>
</g>
<!-- Node20&#45;&gt;Node21 -->
<g id="edge6" class="edge"><title>Node20&#45;&gt;Node21</title>
<path fill="none" stroke="midnightblue" d="M240.843,-45.4734C243.259,-36.3257 246.073,-25.6724 247.955,-18.5496"/>
<polygon fill="midnightblue" stroke="midnightblue" points="237.439,-44.6565 238.269,-55.2188 244.206,-46.4443 237.439,-44.6565"/>
</g>
<!-- Node22 -->
<g id="node7" class="node"><title>Node22</title>
<g id="a_node7"><a xlink:href="_particle_system_8cpp.html" target="_top" xlink:title="ParticleSystem.cpp">
<polygon fill="none" stroke="black" points="323.288,-0.5 323.288,-18.5 424.874,-18.5 424.874,-0.5 323.288,-0.5"/>
<text text-anchor="middle" x="374.081" y="-6.5" font-family="Helvetica,sans-Serif" font-size="10.00">ParticleSystem.cpp</text>
</a>
</g>
</g>
<!-- Node20&#45;&gt;Node22 -->
<g id="edge7" class="edge"><title>Node20&#45;&gt;Node22</title>
<path fill="none" stroke="midnightblue" d="M266.495,-51.8192C292.699,-41.7556 329.845,-27.4894 352.925,-18.6253"/>
<polygon fill="midnightblue" stroke="midnightblue" points="265.121,-48.5978 257.04,-55.4504 267.63,-55.1324 265.121,-48.5978"/>
</g>
</g>
</svg>
