<?xml version="1.0" encoding="UTF-8" standalone="no"?>
<!DOCTYPE svg PUBLIC "-//W3C//DTD SVG 1.1//EN"
 "http://www.w3.org/Graphics/SVG/1.1/DTD/svg11.dtd">
<!-- Generated by graphviz version 2.38.0 (20140413.2041)
 -->
<!-- Title: Rigidbody.hpp Pages: 1 -->
<svg width="258pt" height="137pt"
 viewBox="0.00 0.00 258.34 137.00" xmlns="http://www.w3.org/2000/svg" xmlns:xlink="http://www.w3.org/1999/xlink">
<g id="graph0" class="graph" transform="scale(1 1) rotate(0) translate(4 133)">
<title>Rigidbody.hpp</title>
<!-- Node16 -->
<g id="node1" class="node"><title>Node16</title>
<polygon fill="#bfbfbf" stroke="black" points="67.4204,-110.5 67.4204,-128.5 146.619,-128.5 146.619,-110.5 67.4204,-110.5"/>
<text text-anchor="middle" x="107.02" y="-116.5" font-family="Helvetica,sans-Serif" font-size="10.00">Rigidbody.hpp</text>
</g>
<!-- Node17 -->
<g id="node2" class="node"><title>Node17</title>
<g id="a_node2"><a xlink:href="_scene_parser_8hpp.html" target="_top" xlink:title="SceneParser.hpp">
<polygon fill="none" stroke="black" points="60.6577,-55.5 60.6577,-73.5 153.381,-73.5 153.381,-55.5 60.6577,-55.5"/>
<text text-anchor="middle" x="107.02" y="-61.5" font-family="Helvetica,sans-Serif" font-size="10.00">SceneParser.hpp</text>
</a>
</g>
</g>
<!-- Node16&#45;&gt;Node17 -->
<g id="edge1" class="edge"><title>Node16&#45;&gt;Node17</title>
<path fill="none" stroke="midnightblue" d="M107.02,-100.175C107.02,-91.0945 107.02,-80.5949 107.02,-73.5496"/>
<polygon fill="midnightblue" stroke="midnightblue" points="103.52,-100.219 107.02,-110.219 110.52,-100.219 103.52,-100.219"/>
</g>
<!-- Node18 -->
<g id="node3" class="node"><title>Node18</title>
<g id="a_node3"><a xlink:href="_engine_8cpp.html" target="_top" xlink:title="Engine.cpp">
<polygon fill="none" stroke="black" points="0,-0.5 0,-18.5 66.0391,-18.5 66.0391,-0.5 0,-0.5"/>
<text text-anchor="middle" x="33.0195" y="-6.5" font-family="Helvetica,sans-Serif" font-size="10.00">Engine.cpp</text>
</a>
</g>
</g>
<!-- Node16&#45;&gt;Node18 -->
<g id="edge4" class="edge"><title>Node16&#45;&gt;Node18</title>
<path fill="none" stroke="midnightblue" d="M84.313,-104.824C73.1445,-97.0511 60.3313,-86.3967 52.0195,-74 40.2284,-56.4137 35.5716,-31.3035 33.8848,-18.5701"/>
<polygon fill="midnightblue" stroke="midnightblue" points="82.5244,-107.837 92.7999,-110.418 86.3769,-101.993 82.5244,-107.837"/>
</g>
<!-- Node20 -->
<g id="node5" class="node"><title>Node20</title>
<g id="a_node5"><a xlink:href="_rigidbody_8cpp.html" target="_top" xlink:title="Rigidbody.cpp">
<polygon fill="none" stroke="black" points="171.701,-55.5 171.701,-73.5 250.338,-73.5 250.338,-55.5 171.701,-55.5"/>
<text text-anchor="middle" x="211.02" y="-61.5" font-family="Helvetica,sans-Serif" font-size="10.00">Rigidbody.cpp</text>
</a>
</g>
</g>
<!-- Node16&#45;&gt;Node20 -->
<g id="edge5" class="edge"><title>Node16&#45;&gt;Node20</title>
<path fill="none" stroke="midnightblue" d="M131.79,-105.877C151.404,-95.8808 178.218,-82.216 195.076,-73.6253"/>
<polygon fill="midnightblue" stroke="midnightblue" points="130.135,-102.791 122.815,-110.45 133.314,-109.028 130.135,-102.791"/>
</g>
<!-- Node17&#45;&gt;Node18 -->
<g id="edge2" class="edge"><title>Node17&#45;&gt;Node18</title>
<path fill="none" stroke="midnightblue" d="M87.4606,-49.4916C73.7182,-39.6491 55.8137,-26.8255 44.3643,-18.6253"/>
<polygon fill="midnightblue" stroke="midnightblue" points="85.6126,-52.4731 95.7805,-55.4504 89.6886,-46.7822 85.6126,-52.4731"/>
</g>
<!-- Node19 -->
<g id="node4" class="node"><title>Node19</title>
<g id="a_node4"><a xlink:href="_scene_parser_8cpp.html" target="_top" xlink:title="SceneParser.cpp">
<polygon fill="none" stroke="black" points="83.9385,-0.5 83.9385,-18.5 176.101,-18.5 176.101,-0.5 83.9385,-0.5"/>
<text text-anchor="middle" x="130.02" y="-6.5" font-family="Helvetica,sans-Serif" font-size="10.00">SceneParser.cpp</text>
</a>
</g>
</g>
<!-- Node17&#45;&gt;Node19 -->
<g id="edge3" class="edge"><title>Node17&#45;&gt;Node19</title>
<path fill="none" stroke="midnightblue" d="M114.713,-45.7712C118.711,-36.5577 123.402,-25.7498 126.526,-18.5496"/>
<polygon fill="midnightblue" stroke="midnightblue" points="111.384,-44.6519 110.613,-55.2188 117.805,-47.4386 111.384,-44.6519"/>
</g>
</g>
</svg>
