<?xml version="1.0" encoding="UTF-8" standalone="no"?>
<!DOCTYPE svg PUBLIC "-//W3C//DTD SVG 1.1//EN"
 "http://www.w3.org/Graphics/SVG/1.1/DTD/svg11.dtd">
<!-- Generated by graphviz version 2.38.0 (20140413.2041)
 -->
<!-- Title: Rigidbody.hpp Pages: 1 -->
<svg width="987pt" height="192pt"
 viewBox="0.00 0.00 987.47 192.00" xmlns="http://www.w3.org/2000/svg" xmlns:xlink="http://www.w3.org/1999/xlink">
<g id="graph0" class="graph" transform="scale(1 1) rotate(0) translate(4 188)">
<title>Rigidbody.hpp</title>
<!-- Node0 -->
<g id="node1" class="node"><title>Node0</title>
<polygon fill="#bfbfbf" stroke="black" points="606.297,-165.5 606.297,-183.5 685.496,-183.5 685.496,-165.5 606.297,-165.5"/>
<text text-anchor="middle" x="645.896" y="-171.5" font-family="Helvetica,sans-Serif" font-size="10.00">Rigidbody.hpp</text>
</g>
<!-- Node1 -->
<g id="node2" class="node"><title>Node1</title>
<g id="a_node2"><a xlink:href="_component_8hpp.html" target="_top" xlink:title="Component.hpp">
<polygon fill="none" stroke="black" points="410.315,-110.5 410.315,-128.5 497.478,-128.5 497.478,-110.5 410.315,-110.5"/>
<text text-anchor="middle" x="453.896" y="-116.5" font-family="Helvetica,sans-Serif" font-size="10.00">Component.hpp</text>
</a>
</g>
</g>
<!-- Node0&#45;&gt;Node1 -->
<g id="edge1" class="edge"><title>Node0&#45;&gt;Node1</title>
<path fill="none" stroke="midnightblue" d="M616.736,-165.45C583.654,-156.318 529.549,-141.383 492.868,-131.258"/>
<polygon fill="midnightblue" stroke="midnightblue" points="493.587,-127.825 483.016,-128.538 491.725,-134.573 493.587,-127.825"/>
</g>
<!-- Node3 -->
<g id="node4" class="node"><title>Node3</title>
<polygon fill="none" stroke="#bfbfbf" points="892.323,-0.5 892.323,-18.5 979.47,-18.5 979.47,-0.5 892.323,-0.5"/>
<text text-anchor="middle" x="935.896" y="-6.5" font-family="Helvetica,sans-Serif" font-size="10.00">Box2D/Box2D.h</text>
</g>
<!-- Node0&#45;&gt;Node3 -->
<g id="edge3" class="edge"><title>Node0&#45;&gt;Node3</title>
<path fill="none" stroke="midnightblue" d="M654.212,-165.28C667.611,-152.342 695.187,-126.955 721.896,-110 782.87,-71.2932 861.335,-38.7163 904.296,-22.1789"/>
<polygon fill="midnightblue" stroke="midnightblue" points="905.565,-25.4411 913.664,-18.611 903.073,-18.8994 905.565,-25.4411"/>
</g>
<!-- Node4 -->
<g id="node5" class="node"><title>Node4</title>
<g id="a_node5"><a xlink:href="_physics_manager_8hpp.html" target="_top" xlink:title="PhysicsManager.hpp">
<polygon fill="none" stroke="black" points="534.478,-110.5 534.478,-128.5 643.315,-128.5 643.315,-110.5 534.478,-110.5"/>
<text text-anchor="middle" x="588.896" y="-116.5" font-family="Helvetica,sans-Serif" font-size="10.00">PhysicsManager.hpp</text>
</a>
</g>
</g>
<!-- Node0&#45;&gt;Node4 -->
<g id="edge4" class="edge"><title>Node0&#45;&gt;Node4</title>
<path fill="none" stroke="midnightblue" d="M636.99,-165.219C628.491,-157.316 615.487,-145.224 605.142,-135.606"/>
<polygon fill="midnightblue" stroke="midnightblue" points="607.26,-132.796 597.554,-128.55 602.494,-137.922 607.26,-132.796"/>
</g>
<!-- Node15 -->
<g id="node16" class="node"><title>Node15</title>
<polygon fill="none" stroke="#bfbfbf" points="730.663,-110.5 730.663,-128.5 801.13,-128.5 801.13,-110.5 730.663,-110.5"/>
<text text-anchor="middle" x="765.896" y="-116.5" font-family="Helvetica,sans-Serif" font-size="10.00">glm/glm.hpp</text>
</g>
<!-- Node0&#45;&gt;Node15 -->
<g id="edge20" class="edge"><title>Node0&#45;&gt;Node15</title>
<path fill="none" stroke="midnightblue" d="M664.122,-165.45C683.857,-156.734 715.563,-142.731 738.344,-132.669"/>
<polygon fill="midnightblue" stroke="midnightblue" points="739.766,-135.867 747.5,-128.625 736.938,-129.464 739.766,-135.867"/>
</g>
<!-- Node2 -->
<g id="node3" class="node"><title>Node2</title>
<polygon fill="none" stroke="#bfbfbf" points="382.67,-55.5 382.67,-73.5 423.123,-73.5 423.123,-55.5 382.67,-55.5"/>
<text text-anchor="middle" x="402.896" y="-61.5" font-family="Helvetica,sans-Serif" font-size="10.00">string</text>
</g>
<!-- Node1&#45;&gt;Node2 -->
<g id="edge2" class="edge"><title>Node1&#45;&gt;Node2</title>
<path fill="none" stroke="midnightblue" d="M445.928,-110.219C438.399,-102.394 426.918,-90.4631 417.708,-80.8921"/>
<polygon fill="midnightblue" stroke="midnightblue" points="420.098,-78.3285 410.642,-73.5496 415.054,-83.1821 420.098,-78.3285"/>
</g>
<!-- Node4&#45;&gt;Node3 -->
<g id="edge8" class="edge"><title>Node4&#45;&gt;Node3</title>
<path fill="none" stroke="midnightblue" d="M598.691,-110.414C615.831,-96.7119 652.878,-69.0535 688.896,-55 697.868,-51.4998 812.263,-31.6084 882.183,-19.6363"/>
<polygon fill="midnightblue" stroke="midnightblue" points="882.891,-23.066 892.158,-17.9303 881.711,-16.1662 882.891,-23.066"/>
</g>
<!-- Node5 -->
<g id="node6" class="node"><title>Node5</title>
<polygon fill="none" stroke="#bfbfbf" points="829.165,-0.5 829.165,-18.5 874.628,-18.5 874.628,-0.5 829.165,-0.5"/>
<text text-anchor="middle" x="851.896" y="-6.5" font-family="Helvetica,sans-Serif" font-size="10.00">stdio.h</text>
</g>
<!-- Node4&#45;&gt;Node5 -->
<g id="edge5" class="edge"><title>Node4&#45;&gt;Node5</title>
<path fill="none" stroke="midnightblue" d="M594.324,-110.395C603.977,-96.6643 625.518,-68.9638 650.896,-55 715.786,-19.2963 743.539,-35.719 818.966,-19.2627"/>
<polygon fill="midnightblue" stroke="midnightblue" points="819.958,-22.6259 828.913,-16.9641 818.381,-15.8057 819.958,-22.6259"/>
</g>
<!-- Node6 -->
<g id="node7" class="node"><title>Node6</title>
<polygon fill="none" stroke="#bfbfbf" points="0,-0.5 0,-18.5 43.793,-18.5 43.793,-0.5 0,-0.5"/>
<text text-anchor="middle" x="21.8965" y="-6.5" font-family="Helvetica,sans-Serif" font-size="10.00">SDL.h</text>
</g>
<!-- Node4&#45;&gt;Node6 -->
<g id="edge6" class="edge"><title>Node4&#45;&gt;Node6</title>
<path fill="none" stroke="midnightblue" d="M562.227,-110.449C536.739,-102.403 497.484,-89.083 464.896,-74 449.538,-66.8914 448.021,-60.1395 431.896,-55 273.755,-4.59498 221.326,-47.7736 53.6978,-18.782"/>
<polygon fill="midnightblue" stroke="midnightblue" points="54.264,-15.3278 43.8037,-17.0108 53.0304,-22.2183 54.264,-15.3278"/>
</g>
<!-- Node7 -->
<g id="node8" class="node"><title>Node7</title>
<polygon fill="none" stroke="#bfbfbf" points="61.7241,-0.5 61.7241,-18.5 116.069,-18.5 116.069,-0.5 61.7241,-0.5"/>
<text text-anchor="middle" x="88.8965" y="-6.5" font-family="Helvetica,sans-Serif" font-size="10.00">iostream</text>
</g>
<!-- Node4&#45;&gt;Node7 -->
<g id="edge7" class="edge"><title>Node4&#45;&gt;Node7</title>
<path fill="none" stroke="midnightblue" d="M574.556,-110.308C546.998,-94.7096 487.382,-61.6948 464.896,-55 322.388,-12.5693 276.657,-43.1328 126.392,-19.0254"/>
<polygon fill="midnightblue" stroke="midnightblue" points="126.779,-15.5419 116.341,-17.3571 125.633,-22.4474 126.779,-15.5419"/>
</g>
<!-- Node8 -->
<g id="node9" class="node"><title>Node8</title>
<g id="a_node9"><a xlink:href="_foo_draw2_8hpp.html" target="_top" xlink:title="FooDraw2.hpp">
<polygon fill="none" stroke="black" points="517.101,-55.5 517.101,-73.5 598.692,-73.5 598.692,-55.5 517.101,-55.5"/>
<text text-anchor="middle" x="557.896" y="-61.5" font-family="Helvetica,sans-Serif" font-size="10.00">FooDraw2.hpp</text>
</a>
</g>
</g>
<!-- Node4&#45;&gt;Node8 -->
<g id="edge9" class="edge"><title>Node4&#45;&gt;Node8</title>
<path fill="none" stroke="midnightblue" d="M584.053,-110.219C579.705,-102.786 573.189,-91.646 567.749,-82.3446"/>
<polygon fill="midnightblue" stroke="midnightblue" points="570.675,-80.4143 562.605,-73.5496 564.632,-83.9486 570.675,-80.4143"/>
</g>
<!-- Node8&#45;&gt;Node3 -->
<g id="edge19" class="edge"><title>Node8&#45;&gt;Node3</title>
<path fill="none" stroke="midnightblue" d="M598.86,-58.2607C658.816,-50.5149 774.246,-35.3104 882.136,-19.2337"/>
<polygon fill="midnightblue" stroke="midnightblue" points="882.845,-22.6667 892.217,-17.7256 881.809,-15.7438 882.845,-22.6667"/>
</g>
<!-- Node8&#45;&gt;Node5 -->
<g id="edge10" class="edge"><title>Node8&#45;&gt;Node5</title>
<path fill="none" stroke="midnightblue" d="M598.734,-57.1027C657.7,-47.784 764.803,-30.5336 818.863,-19.2444"/>
<polygon fill="midnightblue" stroke="midnightblue" points="819.901,-22.6011 828.937,-17.0702 818.424,-15.7586 819.901,-22.6011"/>
</g>
<!-- Node8&#45;&gt;Node6 -->
<g id="edge12" class="edge"><title>Node8&#45;&gt;Node6</title>
<path fill="none" stroke="midnightblue" d="M516.696,-59.6988C500.545,-58.218 481.853,-56.5157 464.896,-55 285.036,-38.9226 235.55,-50.9936 53.6904,-18.8026"/>
<polygon fill="midnightblue" stroke="midnightblue" points="54.2602,-15.349 43.7999,-17.0317 53.0265,-22.2394 54.2602,-15.349"/>
</g>
<!-- Node8&#45;&gt;Node7 -->
<g id="edge16" class="edge"><title>Node8&#45;&gt;Node7</title>
<path fill="none" stroke="midnightblue" d="M517.086,-56.9217C512.308,-56.232 507.499,-55.5743 502.896,-55 338.706,-34.5117 293.175,-45.9845 126.446,-19.0436"/>
<polygon fill="midnightblue" stroke="midnightblue" points="126.77,-15.5501 116.336,-17.3873 125.638,-22.458 126.77,-15.5501"/>
</g>
<!-- Node9 -->
<g id="node10" class="node"><title>Node9</title>
<polygon fill="none" stroke="#bfbfbf" points="133.646,-0.5 133.646,-18.5 224.147,-18.5 224.147,-0.5 133.646,-0.5"/>
<text text-anchor="middle" x="178.896" y="-6.5" font-family="Helvetica,sans-Serif" font-size="10.00">SRE/Shader.hpp</text>
</g>
<!-- Node8&#45;&gt;Node9 -->
<g id="edge11" class="edge"><title>Node8&#45;&gt;Node9</title>
<path fill="none" stroke="midnightblue" d="M517.063,-57.0929C512.29,-56.3724 507.487,-55.6607 502.896,-55 386.229,-38.2088 354.363,-36.4951 234.217,-19.1628"/>
<polygon fill="midnightblue" stroke="midnightblue" points="234.657,-15.69 224.258,-17.7197 233.653,-22.6177 234.657,-15.69"/>
</g>
<!-- Node10 -->
<g id="node11" class="node"><title>Node10</title>
<polygon fill="none" stroke="#bfbfbf" points="242.153,-0.5 242.153,-18.5 387.64,-18.5 387.64,-0.5 242.153,-0.5"/>
<text text-anchor="middle" x="314.896" y="-6.5" font-family="Helvetica,sans-Serif" font-size="10.00">glm/gtc/matrix_transform.hpp</text>
</g>
<!-- Node8&#45;&gt;Node10 -->
<g id="edge13" class="edge"><title>Node8&#45;&gt;Node10</title>
<path fill="none" stroke="midnightblue" d="M520.99,-55.4504C478.315,-46.1428 408.001,-30.8067 361.567,-20.6791"/>
<polygon fill="midnightblue" stroke="midnightblue" points="362.268,-17.2498 351.751,-18.5383 360.776,-24.089 362.268,-17.2498"/>
</g>
<!-- Node11 -->
<g id="node12" class="node"><title>Node11</title>
<polygon fill="none" stroke="#bfbfbf" points="405.761,-0.5 405.761,-18.5 494.032,-18.5 494.032,-0.5 405.761,-0.5"/>
<text text-anchor="middle" x="449.896" y="-6.5" font-family="Helvetica,sans-Serif" font-size="10.00">SRE/Debug.hpp</text>
</g>
<!-- Node8&#45;&gt;Node11 -->
<g id="edge14" class="edge"><title>Node8&#45;&gt;Node11</title>
<path fill="none" stroke="midnightblue" d="M541.494,-55.4504C523.97,-46.8508 495.959,-33.1048 475.522,-23.0755"/>
<polygon fill="midnightblue" stroke="midnightblue" points="476.973,-19.8888 466.454,-18.6253 473.889,-26.1729 476.973,-19.8888"/>
</g>
<!-- Node12 -->
<g id="node13" class="node"><title>Node12</title>
<polygon fill="none" stroke="#bfbfbf" points="512.099,-0.5 512.099,-18.5 603.694,-18.5 603.694,-0.5 512.099,-0.5"/>
<text text-anchor="middle" x="557.896" y="-6.5" font-family="Helvetica,sans-Serif" font-size="10.00">SRE/Texture.hpp</text>
</g>
<!-- Node8&#45;&gt;Node12 -->
<g id="edge15" class="edge"><title>Node8&#45;&gt;Node12</title>
<path fill="none" stroke="midnightblue" d="M557.896,-55.2188C557.896,-48.1769 557.896,-37.8083 557.896,-28.8277"/>
<polygon fill="midnightblue" stroke="midnightblue" points="561.397,-28.5495 557.896,-18.5496 554.397,-28.5496 561.397,-28.5495"/>
</g>
<!-- Node13 -->
<g id="node14" class="node"><title>Node13</title>
<polygon fill="none" stroke="#bfbfbf" points="621.476,-0.5 621.476,-18.5 750.317,-18.5 750.317,-0.5 621.476,-0.5"/>
<text text-anchor="middle" x="685.896" y="-6.5" font-family="Helvetica,sans-Serif" font-size="10.00">glm/gtx/closest_point.hpp</text>
</g>
<!-- Node8&#45;&gt;Node13 -->
<g id="edge17" class="edge"><title>Node8&#45;&gt;Node13</title>
<path fill="none" stroke="midnightblue" d="M577.337,-55.4504C598.482,-46.6951 632.51,-32.6055 656.832,-22.5346"/>
<polygon fill="midnightblue" stroke="midnightblue" points="658.373,-25.6848 666.273,-18.6253 655.695,-19.2173 658.373,-25.6848"/>
</g>
<!-- Node14 -->
<g id="node15" class="node"><title>Node14</title>
<polygon fill="none" stroke="#bfbfbf" points="768.281,-0.5 768.281,-18.5 811.512,-18.5 811.512,-0.5 768.281,-0.5"/>
<text text-anchor="middle" x="789.896" y="-6.5" font-family="Helvetica,sans-Serif" font-size="10.00">time.h</text>
</g>
<!-- Node8&#45;&gt;Node14 -->
<g id="edge18" class="edge"><title>Node8&#45;&gt;Node14</title>
<path fill="none" stroke="midnightblue" d="M596.939,-55.4573C635.475,-47.3854 696.296,-34.29 758.295,-19.0467"/>
<polygon fill="midnightblue" stroke="midnightblue" points="759.386,-22.3824 768.252,-16.5823 757.704,-15.5874 759.386,-22.3824"/>
</g>
</g>
</svg>
