<?xml version="1.0" encoding="UTF-8" standalone="no"?>
<!DOCTYPE svg PUBLIC "-//W3C//DTD SVG 1.1//EN"
 "http://www.w3.org/Graphics/SVG/1.1/DTD/svg11.dtd">
<!-- Generated by graphviz version 2.38.0 (20140413.2041)
 -->
<!-- Title: Rigidbody.hpp Pages: 1 -->
<svg width="987pt" height="192pt"
 viewBox="0.00 0.00 987.47 192.00" xmlns="http://www.w3.org/2000/svg" xmlns:xlink="http://www.w3.org/1999/xlink">
<g id="graph0" class="graph" transform="scale(1 1) rotate(0) translate(4 188)">
<title>Rigidbody.hpp</title>
<!-- Node0 -->
<g id="node1" class="node"><title>Node0</title>
<polygon fill="#bfbfbf" stroke="black" points="608.297,-165.5 608.297,-183.5 687.496,-183.5 687.496,-165.5 608.297,-165.5"/>
<text text-anchor="middle" x="647.896" y="-171.5" font-family="Helvetica,sans-Serif" font-size="10.00">Rigidbody.hpp</text>
</g>
<!-- Node1 -->
<g id="node2" class="node"><title>Node1</title>
<g id="a_node2"><a xlink:href="_component_8hpp.html" target="_top" xlink:title="Component.hpp">
<polygon fill="none" stroke="black" points="410.315,-110.5 410.315,-128.5 497.478,-128.5 497.478,-110.5 410.315,-110.5"/>
<text text-anchor="middle" x="453.896" y="-116.5" font-family="Helvetica,sans-Serif" font-size="10.00">Component.hpp</text>
</a>
</g>
</g>
<!-- Node0&#45;&gt;Node1 -->
<g id="edge1" class="edge"><title>Node0&#45;&gt;Node1</title>
<path fill="none" stroke="midnightblue" d="M618.432,-165.45C585.005,-156.318 530.337,-141.383 493.274,-131.258"/>
<polygon fill="midnightblue" stroke="midnightblue" points="493.889,-127.797 483.32,-128.538 492.044,-134.55 493.889,-127.797"/>
</g>
<!-- Node3 -->
<g id="node4" class="node"><title>Node3</title>
<polygon fill="none" stroke="#bfbfbf" points="892.323,-0.5 892.323,-18.5 979.47,-18.5 979.47,-0.5 892.323,-0.5"/>
<text text-anchor="middle" x="935.896" y="-6.5" font-family="Helvetica,sans-Serif" font-size="10.00">Box2D/Box2D.h</text>
</g>
<!-- Node0&#45;&gt;Node3 -->
<g id="edge3" class="edge"><title>Node0&#45;&gt;Node3</title>
<path fill="none" stroke="midnightblue" d="M656.353,-165.308C669.973,-152.408 697.971,-127.074 724.896,-110 785.219,-71.7491 862.568,-38.9786 904.855,-22.2913"/>
<polygon fill="midnightblue" stroke="midnightblue" points="906.281,-25.4918 914.323,-18.5934 903.735,-18.9715 906.281,-25.4918"/>
</g>
<!-- Node4 -->
<g id="node5" class="node"><title>Node4</title>
<g id="a_node5"><a xlink:href="_physics_manager_8hpp.html" target="_top" xlink:title="PhysicsManager.hpp">
<polygon fill="none" stroke="black" points="536.478,-110.5 536.478,-128.5 645.315,-128.5 645.315,-110.5 536.478,-110.5"/>
<text text-anchor="middle" x="590.896" y="-116.5" font-family="Helvetica,sans-Serif" font-size="10.00">PhysicsManager.hpp</text>
</a>
</g>
</g>
<!-- Node0&#45;&gt;Node4 -->
<g id="edge4" class="edge"><title>Node0&#45;&gt;Node4</title>
<path fill="none" stroke="midnightblue" d="M638.99,-165.219C630.491,-157.316 617.487,-145.224 607.142,-135.606"/>
<polygon fill="midnightblue" stroke="midnightblue" points="609.26,-132.796 599.554,-128.55 604.494,-137.922 609.26,-132.796"/>
</g>
<!-- Node15 -->
<g id="node16" class="node"><title>Node15</title>
<polygon fill="none" stroke="#bfbfbf" points="733.663,-110.5 733.663,-128.5 804.13,-128.5 804.13,-110.5 733.663,-110.5"/>
<text text-anchor="middle" x="768.896" y="-116.5" font-family="Helvetica,sans-Serif" font-size="10.00">glm/glm.hpp</text>
</g>
<!-- Node0&#45;&gt;Node15 -->
<g id="edge20" class="edge"><title>Node0&#45;&gt;Node15</title>
<path fill="none" stroke="midnightblue" d="M666.274,-165.45C686.174,-156.734 718.143,-142.731 741.114,-132.669"/>
<polygon fill="midnightblue" stroke="midnightblue" points="742.591,-135.843 750.346,-128.625 739.782,-129.432 742.591,-135.843"/>
</g>
<!-- Node2 -->
<g id="node3" class="node"><title>Node2</title>
<polygon fill="none" stroke="#bfbfbf" points="379.67,-55.5 379.67,-73.5 420.123,-73.5 420.123,-55.5 379.67,-55.5"/>
<text text-anchor="middle" x="399.896" y="-61.5" font-family="Helvetica,sans-Serif" font-size="10.00">string</text>
</g>
<!-- Node1&#45;&gt;Node2 -->
<g id="edge2" class="edge"><title>Node1&#45;&gt;Node2</title>
<path fill="none" stroke="midnightblue" d="M445.459,-110.219C437.407,-102.316 425.087,-90.2241 415.287,-80.6057"/>
<polygon fill="midnightblue" stroke="midnightblue" points="417.686,-78.0564 408.098,-73.5496 412.783,-83.0522 417.686,-78.0564"/>
</g>
<!-- Node4&#45;&gt;Node3 -->
<g id="edge8" class="edge"><title>Node4&#45;&gt;Node3</title>
<path fill="none" stroke="midnightblue" d="M602.504,-110.412C624.824,-94.9934 673.171,-62.2807 691.896,-55 700.742,-51.5606 813.161,-31.7475 882.278,-19.7482"/>
<polygon fill="midnightblue" stroke="midnightblue" points="882.889,-23.1946 892.144,-18.0374 881.693,-16.2975 882.889,-23.1946"/>
</g>
<!-- Node5 -->
<g id="node6" class="node"><title>Node5</title>
<polygon fill="none" stroke="#bfbfbf" points="829.165,-0.5 829.165,-18.5 874.628,-18.5 874.628,-0.5 829.165,-0.5"/>
<text text-anchor="middle" x="851.896" y="-6.5" font-family="Helvetica,sans-Serif" font-size="10.00">stdio.h</text>
</g>
<!-- Node4&#45;&gt;Node5 -->
<g id="edge5" class="edge"><title>Node4&#45;&gt;Node5</title>
<path fill="none" stroke="midnightblue" d="M596.449,-110.406C606.315,-96.6933 628.287,-69.0184 653.896,-55 717.767,-20.0382 744.892,-35.6204 819.121,-19.2385"/>
<polygon fill="midnightblue" stroke="midnightblue" points="819.967,-22.6352 828.91,-16.9547 818.377,-15.8183 819.967,-22.6352"/>
</g>
<!-- Node6 -->
<g id="node7" class="node"><title>Node6</title>
<polygon fill="none" stroke="#bfbfbf" points="0,-0.5 0,-18.5 43.793,-18.5 43.793,-0.5 0,-0.5"/>
<text text-anchor="middle" x="21.8965" y="-6.5" font-family="Helvetica,sans-Serif" font-size="10.00">SDL.h</text>
</g>
<!-- Node4&#45;&gt;Node6 -->
<g id="edge6" class="edge"><title>Node4&#45;&gt;Node6</title>
<path fill="none" stroke="midnightblue" d="M562.62,-110.445C536.076,-102.49 495.532,-89.3156 461.896,-74 446.494,-66.9866 445.019,-60.1455 428.896,-55 272.092,-4.95639 220.045,-47.5735 53.8723,-18.8137"/>
<polygon fill="midnightblue" stroke="midnightblue" points="54.2648,-15.3283 43.8041,-17.0087 53.0295,-22.2185 54.2648,-15.3283"/>
</g>
<!-- Node7 -->
<g id="node8" class="node"><title>Node7</title>
<polygon fill="none" stroke="#bfbfbf" points="61.7241,-0.5 61.7241,-18.5 116.069,-18.5 116.069,-0.5 61.7241,-0.5"/>
<text text-anchor="middle" x="88.8965" y="-6.5" font-family="Helvetica,sans-Serif" font-size="10.00">iostream</text>
</g>
<!-- Node4&#45;&gt;Node7 -->
<g id="edge7" class="edge"><title>Node4&#45;&gt;Node7</title>
<path fill="none" stroke="midnightblue" d="M575.381,-110.481C543.73,-94.1798 473.705,-58.4202 461.896,-55 320.322,-13.9944 275.307,-43.0471 126.308,-19.0154"/>
<polygon fill="midnightblue" stroke="midnightblue" points="126.781,-15.546 116.341,-17.3544 125.63,-22.4507 126.781,-15.546"/>
</g>
<!-- Node8 -->
<g id="node9" class="node"><title>Node8</title>
<g id="a_node9"><a xlink:href="_debug_draw_8hpp.html" target="_top" xlink:title="DebugDraw.hpp">
<polygon fill="none" stroke="black" points="514.037,-55.5 514.037,-73.5 601.756,-73.5 601.756,-55.5 514.037,-55.5"/>
<text text-anchor="middle" x="557.896" y="-61.5" font-family="Helvetica,sans-Serif" font-size="10.00">DebugDraw.hpp</text>
</a>
</g>
</g>
<!-- Node4&#45;&gt;Node8 -->
<g id="edge9" class="edge"><title>Node4&#45;&gt;Node8</title>
<path fill="none" stroke="midnightblue" d="M585.74,-110.219C581.063,-102.707 574.03,-91.411 568.202,-82.0515"/>
<polygon fill="midnightblue" stroke="midnightblue" points="571.165,-80.1886 562.908,-73.5496 565.223,-83.8885 571.165,-80.1886"/>
</g>
<!-- Node8&#45;&gt;Node3 -->
<g id="edge19" class="edge"><title>Node8&#45;&gt;Node3</title>
<path fill="none" stroke="midnightblue" d="M601.978,-57.8576C662.784,-49.9919 776.077,-35.0401 882.292,-19.2105"/>
<polygon fill="midnightblue" stroke="midnightblue" points="882.845,-22.6669 892.217,-17.7256 881.809,-15.7439 882.845,-22.6669"/>
</g>
<!-- Node8&#45;&gt;Node5 -->
<g id="edge10" class="edge"><title>Node8&#45;&gt;Node5</title>
<path fill="none" stroke="midnightblue" d="M601.853,-56.6094C661.473,-47.1759 765.858,-30.3277 819.017,-19.2128"/>
<polygon fill="midnightblue" stroke="midnightblue" points="819.902,-22.6026 828.937,-17.0702 818.424,-15.7603 819.902,-22.6026"/>
</g>
<!-- Node8&#45;&gt;Node6 -->
<g id="edge12" class="edge"><title>Node8&#45;&gt;Node6</title>
<path fill="none" stroke="midnightblue" d="M513.929,-59.6022C497.59,-58.1551 478.897,-56.5008 461.896,-55 283.407,-39.2428 234.268,-50.8219 53.8912,-18.8399"/>
<polygon fill="midnightblue" stroke="midnightblue" points="54.2611,-15.3505 43.8002,-17.0299 53.0252,-22.2405 54.2611,-15.3505"/>
</g>
<!-- Node8&#45;&gt;Node7 -->
<g id="edge16" class="edge"><title>Node8&#45;&gt;Node7</title>
<path fill="none" stroke="midnightblue" d="M513.908,-56.8186C509.183,-56.171 504.443,-55.551 499.896,-55 336.926,-35.2481 291.838,-45.8656 126.37,-19.0337"/>
<polygon fill="midnightblue" stroke="midnightblue" points="126.771,-15.5529 116.336,-17.3851 125.636,-22.4602 126.771,-15.5529"/>
</g>
<!-- Node9 -->
<g id="node10" class="node"><title>Node9</title>
<polygon fill="none" stroke="#bfbfbf" points="133.646,-0.5 133.646,-18.5 224.147,-18.5 224.147,-0.5 133.646,-0.5"/>
<text text-anchor="middle" x="178.896" y="-6.5" font-family="Helvetica,sans-Serif" font-size="10.00">SRE/Shader.hpp</text>
</g>
<!-- Node8&#45;&gt;Node9 -->
<g id="edge11" class="edge"><title>Node8&#45;&gt;Node9</title>
<path fill="none" stroke="midnightblue" d="M513.885,-56.9959C509.164,-56.3144 504.431,-55.638 499.896,-55 384.566,-38.7745 353.083,-36.4312 234.472,-19.2037"/>
<polygon fill="midnightblue" stroke="midnightblue" points="234.659,-15.694 224.259,-17.7148 233.649,-22.6208 234.659,-15.694"/>
</g>
<!-- Node10 -->
<g id="node11" class="node"><title>Node10</title>
<polygon fill="none" stroke="#bfbfbf" points="242.153,-0.5 242.153,-18.5 387.64,-18.5 387.64,-0.5 242.153,-0.5"/>
<text text-anchor="middle" x="314.896" y="-6.5" font-family="Helvetica,sans-Serif" font-size="10.00">glm/gtc/matrix_transform.hpp</text>
</g>
<!-- Node8&#45;&gt;Node10 -->
<g id="edge13" class="edge"><title>Node8&#45;&gt;Node10</title>
<path fill="none" stroke="midnightblue" d="M520.99,-55.4504C478.315,-46.1428 408.001,-30.8067 361.567,-20.6791"/>
<polygon fill="midnightblue" stroke="midnightblue" points="362.268,-17.2498 351.751,-18.5383 360.776,-24.089 362.268,-17.2498"/>
</g>
<!-- Node11 -->
<g id="node12" class="node"><title>Node11</title>
<polygon fill="none" stroke="#bfbfbf" points="405.761,-0.5 405.761,-18.5 494.032,-18.5 494.032,-0.5 405.761,-0.5"/>
<text text-anchor="middle" x="449.896" y="-6.5" font-family="Helvetica,sans-Serif" font-size="10.00">SRE/Debug.hpp</text>
</g>
<!-- Node8&#45;&gt;Node11 -->
<g id="edge14" class="edge"><title>Node8&#45;&gt;Node11</title>
<path fill="none" stroke="midnightblue" d="M541.494,-55.4504C523.97,-46.8508 495.959,-33.1048 475.522,-23.0755"/>
<polygon fill="midnightblue" stroke="midnightblue" points="476.973,-19.8888 466.454,-18.6253 473.889,-26.1729 476.973,-19.8888"/>
</g>
<!-- Node12 -->
<g id="node13" class="node"><title>Node12</title>
<polygon fill="none" stroke="#bfbfbf" points="512.099,-0.5 512.099,-18.5 603.694,-18.5 603.694,-0.5 512.099,-0.5"/>
<text text-anchor="middle" x="557.896" y="-6.5" font-family="Helvetica,sans-Serif" font-size="10.00">SRE/Texture.hpp</text>
</g>
<!-- Node8&#45;&gt;Node12 -->
<g id="edge15" class="edge"><title>Node8&#45;&gt;Node12</title>
<path fill="none" stroke="midnightblue" d="M557.896,-55.2188C557.896,-48.1769 557.896,-37.8083 557.896,-28.8277"/>
<polygon fill="midnightblue" stroke="midnightblue" points="561.397,-28.5495 557.896,-18.5496 554.397,-28.5496 561.397,-28.5495"/>
</g>
<!-- Node13 -->
<g id="node14" class="node"><title>Node13</title>
<polygon fill="none" stroke="#bfbfbf" points="621.476,-0.5 621.476,-18.5 750.317,-18.5 750.317,-0.5 621.476,-0.5"/>
<text text-anchor="middle" x="685.896" y="-6.5" font-family="Helvetica,sans-Serif" font-size="10.00">glm/gtx/closest_point.hpp</text>
</g>
<!-- Node8&#45;&gt;Node13 -->
<g id="edge17" class="edge"><title>Node8&#45;&gt;Node13</title>
<path fill="none" stroke="midnightblue" d="M577.337,-55.4504C598.482,-46.6951 632.51,-32.6055 656.832,-22.5346"/>
<polygon fill="midnightblue" stroke="midnightblue" points="658.373,-25.6848 666.273,-18.6253 655.695,-19.2173 658.373,-25.6848"/>
</g>
<!-- Node14 -->
<g id="node15" class="node"><title>Node14</title>
<polygon fill="none" stroke="#bfbfbf" points="768.281,-0.5 768.281,-18.5 811.512,-18.5 811.512,-0.5 768.281,-0.5"/>
<text text-anchor="middle" x="789.896" y="-6.5" font-family="Helvetica,sans-Serif" font-size="10.00">time.h</text>
</g>
<!-- Node8&#45;&gt;Node14 -->
<g id="edge18" class="edge"><title>Node8&#45;&gt;Node14</title>
<path fill="none" stroke="midnightblue" d="M596.939,-55.4573C635.475,-47.3854 696.296,-34.29 758.295,-19.0467"/>
<polygon fill="midnightblue" stroke="midnightblue" points="759.386,-22.3824 768.252,-16.5823 757.704,-15.5874 759.386,-22.3824"/>
</g>
</g>
</svg>
