<?xml version="1.0" encoding="UTF-8" standalone="no"?>
<!DOCTYPE svg PUBLIC "-//W3C//DTD SVG 1.1//EN"
 "http://www.w3.org/Graphics/SVG/1.1/DTD/svg11.dtd">
<!-- Generated by graphviz version 2.38.0 (20140413.2041)
 -->
<!-- Title: SceneParser.hpp Pages: 1 -->
<svg width="184pt" height="82pt"
 viewBox="0.00 0.00 184.10 82.00" xmlns="http://www.w3.org/2000/svg" xmlns:xlink="http://www.w3.org/1999/xlink">
<g id="graph0" class="graph" transform="scale(1 1) rotate(0) translate(4 78)">
<title>SceneParser.hpp</title>
<!-- Node21 -->
<g id="node1" class="node"><title>Node21</title>
<polygon fill="#bfbfbf" stroke="black" points="34.6577,-55.5 34.6577,-73.5 127.381,-73.5 127.381,-55.5 34.6577,-55.5"/>
<text text-anchor="middle" x="81.0195" y="-61.5" font-family="Helvetica,sans-Serif" font-size="10.00">SceneParser.hpp</text>
</g>
<!-- Node22 -->
<g id="node2" class="node"><title>Node22</title>
<g id="a_node2"><a xlink:href="_engine_8cpp.html" target="_top" xlink:title="Engine.cpp">
<polygon fill="none" stroke="black" points="0,-0.5 0,-18.5 66.0391,-18.5 66.0391,-0.5 0,-0.5"/>
<text text-anchor="middle" x="33.0195" y="-6.5" font-family="Helvetica,sans-Serif" font-size="10.00">Engine.cpp</text>
</a>
</g>
</g>
<!-- Node21&#45;&gt;Node22 -->
<g id="edge1" class="edge"><title>Node21&#45;&gt;Node22</title>
<path fill="none" stroke="midnightblue" d="M66.559,-47.5331C57.8955,-37.9673 47.2514,-26.2143 40.3097,-18.5496"/>
<polygon fill="midnightblue" stroke="midnightblue" points="64.2125,-50.1562 73.5195,-55.2188 69.4009,-45.4572 64.2125,-50.1562"/>
</g>
<!-- Node23 -->
<g id="node3" class="node"><title>Node23</title>
<g id="a_node3"><a xlink:href="_scene_parser_8cpp.html" target="_top" xlink:title="SceneParser.cpp">
<polygon fill="none" stroke="black" points="83.9385,-0.5 83.9385,-18.5 176.101,-18.5 176.101,-0.5 83.9385,-0.5"/>
<text text-anchor="middle" x="130.02" y="-6.5" font-family="Helvetica,sans-Serif" font-size="10.00">SceneParser.cpp</text>
</a>
</g>
</g>
<!-- Node21&#45;&gt;Node23 -->
<g id="edge2" class="edge"><title>Node21&#45;&gt;Node23</title>
<path fill="none" stroke="midnightblue" d="M95.514,-47.8223C104.405,-38.2051 115.42,-26.2917 122.577,-18.5496"/>
<polygon fill="midnightblue" stroke="midnightblue" points="92.8944,-45.5 88.6758,-55.2188 98.0343,-50.252 92.8944,-45.5"/>
</g>
</g>
</svg>
