<?xml version="1.0" encoding="UTF-8" standalone="no"?>
<!DOCTYPE svg PUBLIC "-//W3C//DTD SVG 1.1//EN"
 "http://www.w3.org/Graphics/SVG/1.1/DTD/svg11.dtd">
<!-- Generated by graphviz version 2.38.0 (20140413.2041)
 -->
<!-- Title: Scene.cpp Pages: 1 -->
<svg width="810pt" height="302pt"
 viewBox="0.00 0.00 810.31 302.00" xmlns="http://www.w3.org/2000/svg" xmlns:xlink="http://www.w3.org/1999/xlink">
<g id="graph0" class="graph" transform="scale(1 1) rotate(0) translate(4 298)">
<title>Scene.cpp</title>
<!-- Node0 -->
<g id="node1" class="node"><title>Node0</title>
<polygon fill="#bfbfbf" stroke="black" points="427.293,-275.5 427.293,-293.5 490.549,-293.5 490.549,-275.5 427.293,-275.5"/>
<text text-anchor="middle" x="458.921" y="-281.5" font-family="Helvetica,sans-Serif" font-size="10.00">Scene.cpp</text>
</g>
<!-- Node1 -->
<g id="node2" class="node"><title>Node1</title>
<g id="a_node2"><a xlink:href="_scene_8hpp.html" target="_top" xlink:title="Scene.hpp">
<polygon fill="none" stroke="black" points="62.0125,-165.5 62.0125,-183.5 125.83,-183.5 125.83,-165.5 62.0125,-165.5"/>
<text text-anchor="middle" x="93.9212" y="-171.5" font-family="Helvetica,sans-Serif" font-size="10.00">Scene.hpp</text>
</a>
</g>
</g>
<!-- Node0&#45;&gt;Node1 -->
<g id="edge1" class="edge"><title>Node0&#45;&gt;Node1</title>
<path fill="none" stroke="midnightblue" d="M431.785,-275.471C367.248,-256.375 204.523,-208.226 130.999,-186.471"/>
<polygon fill="midnightblue" stroke="midnightblue" points="131.818,-183.063 121.236,-183.582 129.832,-189.776 131.818,-183.063"/>
</g>
<!-- Node9 -->
<g id="node10" class="node"><title>Node9</title>
<g id="a_node10"><a xlink:href="_engine_8hpp.html" target="_top" xlink:title="Engine.hpp">
<polygon fill="none" stroke="black" points="567.621,-220.5 567.621,-238.5 634.221,-238.5 634.221,-220.5 567.621,-220.5"/>
<text text-anchor="middle" x="600.921" y="-226.5" font-family="Helvetica,sans-Serif" font-size="10.00">Engine.hpp</text>
</a>
</g>
</g>
<!-- Node0&#45;&gt;Node9 -->
<g id="edge12" class="edge"><title>Node0&#45;&gt;Node9</title>
<path fill="none" stroke="midnightblue" d="M480.488,-275.45C504.258,-266.578 542.704,-252.229 569.751,-242.134"/>
<polygon fill="midnightblue" stroke="midnightblue" points="571.007,-245.401 579.151,-238.625 568.559,-238.843 571.007,-245.401"/>
</g>
<!-- Node2 -->
<g id="node3" class="node"><title>Node2</title>
<polygon fill="none" stroke="#bfbfbf" points="62.6946,-0.5 62.6946,-18.5 103.148,-18.5 103.148,-0.5 62.6946,-0.5"/>
<text text-anchor="middle" x="82.9212" y="-6.5" font-family="Helvetica,sans-Serif" font-size="10.00">string</text>
</g>
<!-- Node1&#45;&gt;Node2 -->
<g id="edge2" class="edge"><title>Node1&#45;&gt;Node2</title>
<path fill="none" stroke="midnightblue" d="M81.9784,-165.37C61.0007,-150.272 18.216,-115.625 1.92116,-74 -8.52103,-47.3253 25.8794,-29.1575 53.0545,-19.3026"/>
<polygon fill="midnightblue" stroke="midnightblue" points="54.2989,-22.5765 62.6431,-16.0477 52.0487,-15.948 54.2989,-22.5765"/>
</g>
<!-- Node3 -->
<g id="node4" class="node"><title>Node3</title>
<polygon fill="none" stroke="#bfbfbf" points="11.3054,-55.5 11.3054,-73.5 54.5369,-73.5 54.5369,-55.5 11.3054,-55.5"/>
<text text-anchor="middle" x="32.9212" y="-61.5" font-family="Helvetica,sans-Serif" font-size="10.00">vector</text>
</g>
<!-- Node1&#45;&gt;Node3 -->
<g id="edge3" class="edge"><title>Node1&#45;&gt;Node3</title>
<path fill="none" stroke="midnightblue" d="M89.3362,-165.382C79.4447,-147.869 55.9193,-106.218 42.5821,-82.6045"/>
<polygon fill="midnightblue" stroke="midnightblue" points="45.5247,-80.6976 37.5593,-73.7118 39.4297,-84.1402 45.5247,-80.6976"/>
</g>
<!-- Node4 -->
<g id="node5" class="node"><title>Node4</title>
<g id="a_node5"><a xlink:href="_game_object_8hpp.html" target="_top" xlink:title="GameObject.hpp">
<polygon fill="none" stroke="black" points="109.123,-110.5 109.123,-128.5 200.719,-128.5 200.719,-110.5 109.123,-110.5"/>
<text text-anchor="middle" x="154.921" y="-116.5" font-family="Helvetica,sans-Serif" font-size="10.00">GameObject.hpp</text>
</a>
</g>
</g>
<!-- Node1&#45;&gt;Node4 -->
<g id="edge4" class="edge"><title>Node1&#45;&gt;Node4</title>
<path fill="none" stroke="midnightblue" d="M103.186,-165.45C112.322,-157.512 126.505,-145.189 137.712,-135.452"/>
<polygon fill="midnightblue" stroke="midnightblue" points="140.316,-137.826 145.569,-128.625 135.725,-132.542 140.316,-137.826"/>
</g>
<!-- Node4&#45;&gt;Node2 -->
<g id="edge7" class="edge"><title>Node4&#45;&gt;Node2</title>
<path fill="none" stroke="midnightblue" d="M141.225,-110.299C129.2,-102.424 112.085,-89.461 101.921,-74 92.8346,-60.1776 87.9618,-41.8563 85.4356,-28.4469"/>
<polygon fill="midnightblue" stroke="midnightblue" points="88.8851,-27.853 83.8245,-18.5449 81.9759,-28.9772 88.8851,-27.853"/>
</g>
<!-- Node4&#45;&gt;Node3 -->
<g id="edge8" class="edge"><title>Node4&#45;&gt;Node3</title>
<path fill="none" stroke="midnightblue" d="M136.392,-110.45C116.328,-101.734 84.0936,-87.7306 60.9331,-77.6691"/>
<polygon fill="midnightblue" stroke="midnightblue" points="62.1912,-74.3997 51.6247,-73.6253 59.402,-80.8201 62.1912,-74.3997"/>
</g>
<!-- Node5 -->
<g id="node6" class="node"><title>Node5</title>
<polygon fill="none" stroke="#bfbfbf" points="287.293,-55.5 287.293,-73.5 370.549,-73.5 370.549,-55.5 287.293,-55.5"/>
<text text-anchor="middle" x="328.921" y="-61.5" font-family="Helvetica,sans-Serif" font-size="10.00">SRE/Mesh.hpp</text>
</g>
<!-- Node4&#45;&gt;Node5 -->
<g id="edge5" class="edge"><title>Node4&#45;&gt;Node5</title>
<path fill="none" stroke="midnightblue" d="M181.348,-110.45C211.072,-101.396 259.524,-86.6382 292.747,-76.5185"/>
<polygon fill="midnightblue" stroke="midnightblue" points="293.985,-79.8003 302.531,-73.5383 291.945,-73.1041 293.985,-79.8003"/>
</g>
<!-- Node6 -->
<g id="node7" class="node"><title>Node6</title>
<polygon fill="none" stroke="#bfbfbf" points="388.687,-55.5 388.687,-73.5 459.155,-73.5 459.155,-55.5 388.687,-55.5"/>
<text text-anchor="middle" x="423.921" y="-61.5" font-family="Helvetica,sans-Serif" font-size="10.00">glm/glm.hpp</text>
</g>
<!-- Node4&#45;&gt;Node6 -->
<g id="edge6" class="edge"><title>Node4&#45;&gt;Node6</title>
<path fill="none" stroke="midnightblue" d="M195.776,-110.45C244.865,-100.779 326.992,-84.5975 378.165,-74.5151"/>
<polygon fill="midnightblue" stroke="midnightblue" points="379.146,-77.8893 388.28,-72.5222 377.792,-71.0214 379.146,-77.8893"/>
</g>
<!-- Node7 -->
<g id="node8" class="node"><title>Node7</title>
<g id="a_node8"><a xlink:href="_component_8hpp.html" target="_top" xlink:title="Component.hpp">
<polygon fill="none" stroke="black" points="111.34,-55.5 111.34,-73.5 198.502,-73.5 198.502,-55.5 111.34,-55.5"/>
<text text-anchor="middle" x="154.921" y="-61.5" font-family="Helvetica,sans-Serif" font-size="10.00">Component.hpp</text>
</a>
</g>
</g>
<!-- Node4&#45;&gt;Node7 -->
<g id="edge9" class="edge"><title>Node4&#45;&gt;Node7</title>
<path fill="none" stroke="midnightblue" d="M154.921,-110.219C154.921,-103.177 154.921,-92.8083 154.921,-83.8277"/>
<polygon fill="midnightblue" stroke="midnightblue" points="158.421,-83.5495 154.921,-73.5496 151.421,-83.5496 158.421,-83.5495"/>
</g>
<!-- Node8 -->
<g id="node9" class="node"><title>Node8</title>
<polygon fill="none" stroke="#bfbfbf" points="216.865,-55.5 216.865,-73.5 268.978,-73.5 268.978,-55.5 216.865,-55.5"/>
<text text-anchor="middle" x="242.921" y="-61.5" font-family="Helvetica,sans-Serif" font-size="10.00">memory</text>
</g>
<!-- Node4&#45;&gt;Node8 -->
<g id="edge11" class="edge"><title>Node4&#45;&gt;Node8</title>
<path fill="none" stroke="midnightblue" d="M168.286,-110.45C182.113,-102.123 203.951,-88.9704 220.441,-79.0394"/>
<polygon fill="midnightblue" stroke="midnightblue" points="222.669,-81.7828 229.43,-73.6253 219.058,-75.7864 222.669,-81.7828"/>
</g>
<!-- Node7&#45;&gt;Node2 -->
<g id="edge10" class="edge"><title>Node7&#45;&gt;Node2</title>
<path fill="none" stroke="midnightblue" d="M143.986,-55.4504C132.885,-47.2788 115.471,-34.4604 102.075,-24.5996"/>
<polygon fill="midnightblue" stroke="midnightblue" points="104.088,-21.7348 93.9593,-18.6253 99.9378,-27.3722 104.088,-21.7348"/>
</g>
<!-- Node9&#45;&gt;Node6 -->
<g id="edge13" class="edge"><title>Node9&#45;&gt;Node6</title>
<path fill="none" stroke="midnightblue" d="M567.322,-228.031C532.879,-225.665 480.197,-216.492 449.921,-184 424.271,-156.472 421.759,-109.66 422.582,-83.8817"/>
<polygon fill="midnightblue" stroke="midnightblue" points="426.09,-83.834 423.124,-73.6627 419.099,-83.4632 426.09,-83.834"/>
</g>
<!-- Node10 -->
<g id="node11" class="node"><title>Node10</title>
<polygon fill="none" stroke="#bfbfbf" points="586.269,-55.5 586.269,-73.5 739.574,-73.5 739.574,-55.5 586.269,-55.5"/>
<text text-anchor="middle" x="662.921" y="-61.5" font-family="Helvetica,sans-Serif" font-size="10.00">SRE/SimpleRenderEngine.hpp</text>
</g>
<!-- Node9&#45;&gt;Node10 -->
<g id="edge14" class="edge"><title>Node9&#45;&gt;Node10</title>
<path fill="none" stroke="midnightblue" d="M603.076,-220.179C606.319,-207.949 612.832,-184.462 619.921,-165 630.622,-135.623 645.544,-102.469 654.702,-82.8133"/>
<polygon fill="midnightblue" stroke="midnightblue" points="657.935,-84.1627 659.023,-73.6239 651.6,-81.1842 657.935,-84.1627"/>
</g>
<!-- Node11 -->
<g id="node12" class="node"><title>Node11</title>
<polygon fill="none" stroke="#bfbfbf" points="629.025,-165.5 629.025,-183.5 672.818,-183.5 672.818,-165.5 629.025,-165.5"/>
<text text-anchor="middle" x="650.921" y="-171.5" font-family="Helvetica,sans-Serif" font-size="10.00">SDL.h</text>
</g>
<!-- Node9&#45;&gt;Node11 -->
<g id="edge15" class="edge"><title>Node9&#45;&gt;Node11</title>
<path fill="none" stroke="midnightblue" d="M608.734,-220.219C616.115,-212.394 627.371,-200.463 636.4,-190.892"/>
<polygon fill="midnightblue" stroke="midnightblue" points="639.011,-193.225 643.327,-183.55 633.919,-188.422 639.011,-193.225"/>
</g>
<!-- Node12 -->
<g id="node13" class="node"><title>Node12</title>
<polygon fill="none" stroke="#bfbfbf" points="690.749,-165.5 690.749,-183.5 745.094,-183.5 745.094,-165.5 690.749,-165.5"/>
<text text-anchor="middle" x="717.921" y="-171.5" font-family="Helvetica,sans-Serif" font-size="10.00">iostream</text>
</g>
<!-- Node9&#45;&gt;Node12 -->
<g id="edge16" class="edge"><title>Node9&#45;&gt;Node12</title>
<path fill="none" stroke="midnightblue" d="M618.691,-220.45C637.847,-211.773 668.57,-197.856 690.759,-187.804"/>
<polygon fill="midnightblue" stroke="midnightblue" points="692.319,-190.94 699.984,-183.625 689.431,-184.564 692.319,-190.94"/>
</g>
<!-- Node13 -->
<g id="node14" class="node"><title>Node13</title>
<polygon fill="none" stroke="#bfbfbf" points="763.53,-165.5 763.53,-183.5 802.313,-183.5 802.313,-165.5 763.53,-165.5"/>
<text text-anchor="middle" x="782.921" y="-171.5" font-family="Helvetica,sans-Serif" font-size="10.00">array</text>
</g>
<!-- Node9&#45;&gt;Node13 -->
<g id="edge17" class="edge"><title>Node9&#45;&gt;Node13</title>
<path fill="none" stroke="midnightblue" d="M628.566,-220.478C657.357,-212.12 704.018,-198.562 753.64,-184.078"/>
<polygon fill="midnightblue" stroke="midnightblue" points="754.649,-187.429 763.267,-181.267 752.687,-180.71 754.649,-187.429"/>
</g>
<!-- Node14 -->
<g id="node15" class="node"><title>Node14</title>
<g id="a_node15"><a xlink:href="_sprite_and_position_8hpp.html" target="_top" xlink:title="SpriteAndPosition.hpp">
<polygon fill="none" stroke="black" points="458.444,-165.5 458.444,-183.5 573.399,-183.5 573.399,-165.5 458.444,-165.5"/>
<text text-anchor="middle" x="515.921" y="-171.5" font-family="Helvetica,sans-Serif" font-size="10.00">SpriteAndPosition.hpp</text>
</a>
</g>
</g>
<!-- Node9&#45;&gt;Node14 -->
<g id="edge18" class="edge"><title>Node9&#45;&gt;Node14</title>
<path fill="none" stroke="midnightblue" d="M588.011,-220.45C574.656,-212.123 553.562,-198.97 537.635,-189.039"/>
<polygon fill="midnightblue" stroke="midnightblue" points="539.29,-185.946 528.952,-183.625 535.586,-191.886 539.29,-185.946"/>
</g>
<!-- Node14&#45;&gt;Node6 -->
<g id="edge25" class="edge"><title>Node14&#45;&gt;Node6</title>
<path fill="none" stroke="midnightblue" d="M509.006,-165.382C493.821,-147.557 457.333,-104.723 437.429,-81.357"/>
<polygon fill="midnightblue" stroke="midnightblue" points="440.065,-79.0546 430.916,-73.7118 434.737,-83.5939 440.065,-79.0546"/>
</g>
<!-- Node15 -->
<g id="node16" class="node"><title>Node15</title>
<g id="a_node16"><a xlink:href="_sprite_8hpp.html" target="_top" xlink:title="Sprite.hpp">
<polygon fill="none" stroke="black" points="492.128,-110.5 492.128,-128.5 553.714,-128.5 553.714,-110.5 492.128,-110.5"/>
<text text-anchor="middle" x="522.921" y="-116.5" font-family="Helvetica,sans-Serif" font-size="10.00">Sprite.hpp</text>
</a>
</g>
</g>
<!-- Node14&#45;&gt;Node15 -->
<g id="edge19" class="edge"><title>Node14&#45;&gt;Node15</title>
<path fill="none" stroke="midnightblue" d="M517.015,-165.219C517.955,-158.099 519.345,-147.577 520.54,-138.529"/>
<polygon fill="midnightblue" stroke="midnightblue" points="524.018,-138.922 521.858,-128.55 517.079,-138.005 524.018,-138.922"/>
</g>
<!-- Node17 -->
<g id="node18" class="node"><title>Node17</title>
<polygon fill="none" stroke="#bfbfbf" points="757.86,-55.5 757.86,-73.5 799.983,-73.5 799.983,-55.5 757.86,-55.5"/>
<text text-anchor="middle" x="778.921" y="-61.5" font-family="Helvetica,sans-Serif" font-size="10.00">String</text>
</g>
<!-- Node14&#45;&gt;Node17 -->
<g id="edge26" class="edge"><title>Node14&#45;&gt;Node17</title>
<path fill="none" stroke="midnightblue" d="M535.689,-165.382C581.685,-146.494 696.058,-99.5275 749.953,-77.3956"/>
<polygon fill="midnightblue" stroke="midnightblue" points="751.362,-80.6008 759.283,-73.5644 748.703,-74.1255 751.362,-80.6008"/>
</g>
<!-- Node15&#45;&gt;Node5 -->
<g id="edge21" class="edge"><title>Node15&#45;&gt;Node5</title>
<path fill="none" stroke="midnightblue" d="M493.457,-110.45C460.03,-101.318 405.362,-86.3833 368.299,-76.2578"/>
<polygon fill="midnightblue" stroke="midnightblue" points="368.913,-72.7975 358.344,-73.5383 367.068,-79.55 368.913,-72.7975"/>
</g>
<!-- Node15&#45;&gt;Node6 -->
<g id="edge20" class="edge"><title>Node15&#45;&gt;Node6</title>
<path fill="none" stroke="midnightblue" d="M507.885,-110.45C491.967,-101.929 466.609,-88.3532 447.922,-78.3487"/>
<polygon fill="midnightblue" stroke="midnightblue" points="449.567,-75.2595 439.099,-73.6253 446.263,-81.4308 449.567,-75.2595"/>
</g>
<!-- Node15&#45;&gt;Node10 -->
<g id="edge23" class="edge"><title>Node15&#45;&gt;Node10</title>
<path fill="none" stroke="midnightblue" d="M544.184,-110.45C567.517,-101.617 605.192,-87.3546 631.838,-77.267"/>
<polygon fill="midnightblue" stroke="midnightblue" points="633.345,-80.4392 641.458,-73.6253 630.867,-73.8926 633.345,-80.4392"/>
</g>
<!-- Node16 -->
<g id="node17" class="node"><title>Node16</title>
<polygon fill="none" stroke="#bfbfbf" points="477.123,-55.5 477.123,-73.5 568.719,-73.5 568.719,-55.5 477.123,-55.5"/>
<text text-anchor="middle" x="522.921" y="-61.5" font-family="Helvetica,sans-Serif" font-size="10.00">SRE/Texture.hpp</text>
</g>
<!-- Node15&#45;&gt;Node16 -->
<g id="edge22" class="edge"><title>Node15&#45;&gt;Node16</title>
<path fill="none" stroke="midnightblue" d="M522.921,-110.219C522.921,-103.177 522.921,-92.8083 522.921,-83.8277"/>
<polygon fill="midnightblue" stroke="midnightblue" points="526.421,-83.5495 522.921,-73.5496 519.421,-83.5496 526.421,-83.5495"/>
</g>
<!-- Node15&#45;&gt;Node17 -->
<g id="edge24" class="edge"><title>Node15&#45;&gt;Node17</title>
<path fill="none" stroke="midnightblue" d="M553.8,-113.245C595.601,-105.952 672.706,-91.87 747.601,-74.1594"/>
<polygon fill="midnightblue" stroke="midnightblue" points="748.76,-77.4811 757.672,-71.7522 747.133,-70.6729 748.76,-77.4811"/>
</g>
</g>
</svg>
