<?xml version="1.0" encoding="UTF-8" standalone="no"?>
<!DOCTYPE svg PUBLIC "-//W3C//DTD SVG 1.1//EN"
 "http://www.w3.org/Graphics/SVG/1.1/DTD/svg11.dtd">
<!-- Generated by graphviz version 2.38.0 (20140413.2041)
 -->
<!-- Title: Scene.cpp Pages: 1 -->
<svg width="473pt" height="247pt"
 viewBox="0.00 0.00 472.57 247.00" xmlns="http://www.w3.org/2000/svg" xmlns:xlink="http://www.w3.org/1999/xlink">
<g id="graph0" class="graph" transform="scale(1 1) rotate(0) translate(4 243)">
<title>Scene.cpp</title>
<!-- Node0 -->
<g id="node1" class="node"><title>Node0</title>
<polygon fill="#bfbfbf" stroke="black" points="6.88995,-220.5 6.88995,-238.5 70.1458,-238.5 70.1458,-220.5 6.88995,-220.5"/>
<text text-anchor="middle" x="38.5179" y="-226.5" font-family="Helvetica,sans-Serif" font-size="10.00">Scene.cpp</text>
</g>
<!-- Node1 -->
<g id="node2" class="node"><title>Node1</title>
<g id="a_node2"><a xlink:href="_scene_8hpp.html" target="_top" xlink:title="Scene.hpp">
<polygon fill="none" stroke="black" points="6.60919,-165.5 6.60919,-183.5 70.4266,-183.5 70.4266,-165.5 6.60919,-165.5"/>
<text text-anchor="middle" x="38.5179" y="-171.5" font-family="Helvetica,sans-Serif" font-size="10.00">Scene.hpp</text>
</a>
</g>
</g>
<!-- Node0&#45;&gt;Node1 -->
<g id="edge1" class="edge"><title>Node0&#45;&gt;Node1</title>
<path fill="none" stroke="midnightblue" d="M38.5179,-220.219C38.5179,-213.177 38.5179,-202.808 38.5179,-193.828"/>
<polygon fill="midnightblue" stroke="midnightblue" points="42.018,-193.55 38.5179,-183.55 35.018,-193.55 42.018,-193.55"/>
</g>
<!-- Node2 -->
<g id="node3" class="node"><title>Node2</title>
<polygon fill="none" stroke="#bfbfbf" points="68.2913,-0.5 68.2913,-18.5 108.744,-18.5 108.744,-0.5 68.2913,-0.5"/>
<text text-anchor="middle" x="88.5179" y="-6.5" font-family="Helvetica,sans-Serif" font-size="10.00">string</text>
</g>
<!-- Node1&#45;&gt;Node2 -->
<g id="edge2" class="edge"><title>Node1&#45;&gt;Node2</title>
<path fill="none" stroke="midnightblue" d="M32.4663,-165.44C18.2299,-145.417 -14.5702,-92.3368 7.51788,-55 18.4778,-36.4738 40.1954,-25.144 58.3857,-18.5558"/>
<polygon fill="midnightblue" stroke="midnightblue" points="59.64,-21.8276 68.0378,-15.368 57.4446,-15.1807 59.64,-21.8276"/>
</g>
<!-- Node3 -->
<g id="node4" class="node"><title>Node3</title>
<polygon fill="none" stroke="#bfbfbf" points="16.9022,-55.5 16.9022,-73.5 60.1336,-73.5 60.1336,-55.5 16.9022,-55.5"/>
<text text-anchor="middle" x="38.5179" y="-61.5" font-family="Helvetica,sans-Serif" font-size="10.00">vector</text>
</g>
<!-- Node1&#45;&gt;Node3 -->
<g id="edge3" class="edge"><title>Node1&#45;&gt;Node3</title>
<path fill="none" stroke="midnightblue" d="M38.5179,-165.382C38.5179,-148.182 38.5179,-107.698 38.5179,-83.8866"/>
<polygon fill="midnightblue" stroke="midnightblue" points="42.018,-83.7117 38.5179,-73.7118 35.018,-83.7118 42.018,-83.7117"/>
</g>
<!-- Node4 -->
<g id="node5" class="node"><title>Node4</title>
<g id="a_node5"><a xlink:href="_game_object_8hpp.html" target="_top" xlink:title="GameObject.hpp">
<polygon fill="none" stroke="black" points="112.72,-110.5 112.72,-128.5 204.316,-128.5 204.316,-110.5 112.72,-110.5"/>
<text text-anchor="middle" x="158.518" y="-116.5" font-family="Helvetica,sans-Serif" font-size="10.00">GameObject.hpp</text>
</a>
</g>
</g>
<!-- Node1&#45;&gt;Node4 -->
<g id="edge4" class="edge"><title>Node1&#45;&gt;Node4</title>
<path fill="none" stroke="midnightblue" d="M56.7433,-165.45C76.4786,-156.734 108.184,-142.731 130.965,-132.669"/>
<polygon fill="midnightblue" stroke="midnightblue" points="132.387,-135.867 140.121,-128.625 129.559,-129.464 132.387,-135.867"/>
</g>
<!-- Node4&#45;&gt;Node2 -->
<g id="edge7" class="edge"><title>Node4&#45;&gt;Node2</title>
<path fill="none" stroke="midnightblue" d="M145.794,-110.49C134.209,-102.566 117.442,-89.4129 107.518,-74 98.563,-60.0919 93.674,-41.7811 91.1083,-28.3975"/>
<polygon fill="midnightblue" stroke="midnightblue" points="94.5582,-27.8071 89.4612,-18.5188 87.6536,-28.9583 94.5582,-27.8071"/>
</g>
<!-- Node4&#45;&gt;Node3 -->
<g id="edge8" class="edge"><title>Node4&#45;&gt;Node3</title>
<path fill="none" stroke="midnightblue" d="M140.292,-110.45C120.557,-101.734 88.8514,-87.7306 66.0707,-77.6691"/>
<polygon fill="midnightblue" stroke="midnightblue" points="67.4764,-74.4639 56.9148,-73.6253 64.6483,-80.8672 67.4764,-74.4639"/>
</g>
<!-- Node5 -->
<g id="node6" class="node"><title>Node5</title>
<polygon fill="none" stroke="#bfbfbf" points="116.89,-55.5 116.89,-73.5 200.146,-73.5 200.146,-55.5 116.89,-55.5"/>
<text text-anchor="middle" x="158.518" y="-61.5" font-family="Helvetica,sans-Serif" font-size="10.00">SRE/Mesh.hpp</text>
</g>
<!-- Node4&#45;&gt;Node5 -->
<g id="edge5" class="edge"><title>Node4&#45;&gt;Node5</title>
<path fill="none" stroke="midnightblue" d="M158.518,-110.219C158.518,-103.177 158.518,-92.8083 158.518,-83.8277"/>
<polygon fill="midnightblue" stroke="midnightblue" points="162.018,-83.5495 158.518,-73.5496 155.018,-83.5496 162.018,-83.5495"/>
</g>
<!-- Node6 -->
<g id="node7" class="node"><title>Node6</title>
<polygon fill="none" stroke="#bfbfbf" points="218.284,-55.5 218.284,-73.5 288.752,-73.5 288.752,-55.5 218.284,-55.5"/>
<text text-anchor="middle" x="253.518" y="-61.5" font-family="Helvetica,sans-Serif" font-size="10.00">glm/glm.hpp</text>
</g>
<!-- Node4&#45;&gt;Node6 -->
<g id="edge6" class="edge"><title>Node4&#45;&gt;Node6</title>
<path fill="none" stroke="midnightblue" d="M172.946,-110.45C188.012,-102.045 211.89,-88.7241 229.747,-78.7618"/>
<polygon fill="midnightblue" stroke="midnightblue" points="231.926,-81.5539 238.954,-73.6253 228.516,-75.4409 231.926,-81.5539"/>
</g>
<!-- Node7 -->
<g id="node8" class="node"><title>Node7</title>
<g id="a_node8"><a xlink:href="_component_8hpp.html" target="_top" xlink:title="Component.hpp">
<polygon fill="none" stroke="black" points="306.937,-55.5 306.937,-73.5 394.099,-73.5 394.099,-55.5 306.937,-55.5"/>
<text text-anchor="middle" x="350.518" y="-61.5" font-family="Helvetica,sans-Serif" font-size="10.00">Component.hpp</text>
</a>
</g>
</g>
<!-- Node4&#45;&gt;Node7 -->
<g id="edge9" class="edge"><title>Node4&#45;&gt;Node7</title>
<path fill="none" stroke="midnightblue" d="M187.679,-110.45C220.761,-101.318 274.865,-86.3833 311.546,-76.2578"/>
<polygon fill="midnightblue" stroke="midnightblue" points="312.69,-79.5731 321.398,-73.5383 310.827,-72.8255 312.69,-79.5731"/>
</g>
<!-- Node8 -->
<g id="node9" class="node"><title>Node8</title>
<polygon fill="none" stroke="#bfbfbf" points="412.461,-55.5 412.461,-73.5 464.575,-73.5 464.575,-55.5 412.461,-55.5"/>
<text text-anchor="middle" x="438.518" y="-61.5" font-family="Helvetica,sans-Serif" font-size="10.00">memory</text>
</g>
<!-- Node4&#45;&gt;Node8 -->
<g id="edge11" class="edge"><title>Node4&#45;&gt;Node8</title>
<path fill="none" stroke="midnightblue" d="M204.734,-110.936C251.986,-103.017 327.726,-89.8138 402.166,-74.1896"/>
<polygon fill="midnightblue" stroke="midnightblue" points="403.123,-77.5647 412.182,-72.0707 401.674,-70.7163 403.123,-77.5647"/>
</g>
<!-- Node7&#45;&gt;Node2 -->
<g id="edge10" class="edge"><title>Node7&#45;&gt;Node2</title>
<path fill="none" stroke="midnightblue" d="M310.726,-55.4504C258.024,-44.7893 166.222,-26.2189 118.8,-16.6258"/>
<polygon fill="midnightblue" stroke="midnightblue" points="119.334,-13.1629 108.838,-14.6106 117.946,-20.0239 119.334,-13.1629"/>
</g>
</g>
</svg>
