<?xml version="1.0" encoding="UTF-8" standalone="no"?>
<!DOCTYPE svg PUBLIC "-//W3C//DTD SVG 1.1//EN"
 "http://www.w3.org/Graphics/SVG/1.1/DTD/svg11.dtd">
<!-- Generated by graphviz version 2.38.0 (20140413.2041)
 -->
<!-- Title: SceneParser.cpp Pages: 1 -->
<svg width="1540pt" height="302pt"
 viewBox="0.00 0.00 1539.69 302.00" xmlns="http://www.w3.org/2000/svg" xmlns:xlink="http://www.w3.org/1999/xlink">
<g id="graph0" class="graph" transform="scale(1 1) rotate(0) translate(4 298)">
<title>SceneParser.cpp</title>
<!-- Node0 -->
<g id="node1" class="node"><title>Node0</title>
<polygon fill="#bfbfbf" stroke="black" points="784.493,-275.5 784.493,-293.5 876.655,-293.5 876.655,-275.5 784.493,-275.5"/>
<text text-anchor="middle" x="830.574" y="-281.5" font-family="Helvetica,sans-Serif" font-size="10.00">SceneParser.cpp</text>
</g>
<!-- Node1 -->
<g id="node2" class="node"><title>Node1</title>
<g id="a_node2"><a xlink:href="_scene_parser_8hpp.html" target="_top" xlink:title="SceneParser.hpp">
<polygon fill="none" stroke="black" points="499.212,-220.5 499.212,-238.5 591.936,-238.5 591.936,-220.5 499.212,-220.5"/>
<text text-anchor="middle" x="545.574" y="-226.5" font-family="Helvetica,sans-Serif" font-size="10.00">SceneParser.hpp</text>
</a>
</g>
</g>
<!-- Node0&#45;&gt;Node1 -->
<g id="edge1" class="edge"><title>Node0&#45;&gt;Node1</title>
<path fill="none" stroke="midnightblue" d="M787.288,-275.45C736.818,-266.065 653.385,-250.549 598.946,-240.425"/>
<polygon fill="midnightblue" stroke="midnightblue" points="599.27,-236.926 588.799,-238.538 597.99,-243.808 599.27,-236.926"/>
</g>
<!-- Node22 -->
<g id="node23" class="node"><title>Node22</title>
<polygon fill="none" stroke="#bfbfbf" points="858.904,-220.5 858.904,-238.5 908.244,-238.5 908.244,-220.5 858.904,-220.5"/>
<text text-anchor="middle" x="883.574" y="-226.5" font-family="Helvetica,sans-Serif" font-size="10.00">fstream</text>
</g>
<!-- Node0&#45;&gt;Node22 -->
<g id="edge34" class="edge"><title>Node0&#45;&gt;Node22</title>
<path fill="none" stroke="midnightblue" d="M838.855,-275.219C846.679,-267.394 858.611,-255.463 868.182,-245.892"/>
<polygon fill="midnightblue" stroke="midnightblue" points="870.928,-248.096 875.524,-238.55 865.978,-243.146 870.928,-248.096"/>
</g>
<!-- Node23 -->
<g id="node24" class="node"><title>Node23</title>
<g id="a_node24"><a xlink:href="picojson_8h.html" target="_top" xlink:title="picojson.h">
<polygon fill="none" stroke="black" points="1012.06,-165.5 1012.06,-183.5 1073.09,-183.5 1073.09,-165.5 1012.06,-165.5"/>
<text text-anchor="middle" x="1042.57" y="-171.5" font-family="Helvetica,sans-Serif" font-size="10.00">picojson.h</text>
</a>
</g>
</g>
<!-- Node0&#45;&gt;Node23 -->
<g id="edge35" class="edge"><title>Node0&#45;&gt;Node23</title>
<path fill="none" stroke="midnightblue" d="M830.557,-275.137C831.006,-261.528 833.962,-234.642 849.574,-220 871.292,-199.632 951.95,-186.456 1001.86,-180.063"/>
<polygon fill="midnightblue" stroke="midnightblue" points="1002.52,-183.508 1012.02,-178.802 1001.66,-176.562 1002.52,-183.508"/>
</g>
<!-- Node2 -->
<g id="node3" class="node"><title>Node2</title>
<polygon fill="none" stroke="#bfbfbf" points="619.347,-55.5 619.347,-73.5 659.8,-73.5 659.8,-55.5 619.347,-55.5"/>
<text text-anchor="middle" x="639.574" y="-61.5" font-family="Helvetica,sans-Serif" font-size="10.00">string</text>
</g>
<!-- Node1&#45;&gt;Node2 -->
<g id="edge2" class="edge"><title>Node1&#45;&gt;Node2</title>
<path fill="none" stroke="midnightblue" d="M561.18,-220.389C586.838,-206.029 636.946,-173.405 655.574,-129 661.952,-113.795 655.968,-95.4378 649.582,-82.3798"/>
<polygon fill="midnightblue" stroke="midnightblue" points="652.652,-80.6997 644.818,-73.5672 646.495,-84.0286 652.652,-80.6997"/>
</g>
<!-- Node3 -->
<g id="node4" class="node"><title>Node3</title>
<polygon fill="none" stroke="#bfbfbf" points="602.958,-110.5 602.958,-128.5 646.189,-128.5 646.189,-110.5 602.958,-110.5"/>
<text text-anchor="middle" x="624.574" y="-116.5" font-family="Helvetica,sans-Serif" font-size="10.00">vector</text>
</g>
<!-- Node1&#45;&gt;Node3 -->
<g id="edge3" class="edge"><title>Node1&#45;&gt;Node3</title>
<path fill="none" stroke="midnightblue" d="M551.512,-220.382C564.436,-202.713 595.335,-160.472 612.522,-136.976"/>
<polygon fill="midnightblue" stroke="midnightblue" points="615.488,-138.849 618.567,-128.712 609.838,-134.717 615.488,-138.849"/>
</g>
<!-- Node4 -->
<g id="node5" class="node"><title>Node4</title>
<polygon fill="none" stroke="#bfbfbf" points="199.34,-110.5 199.34,-128.5 269.808,-128.5 269.808,-110.5 199.34,-110.5"/>
<text text-anchor="middle" x="234.574" y="-116.5" font-family="Helvetica,sans-Serif" font-size="10.00">glm/glm.hpp</text>
</g>
<!-- Node1&#45;&gt;Node4 -->
<g id="edge4" class="edge"><title>Node1&#45;&gt;Node4</title>
<path fill="none" stroke="midnightblue" d="M522.261,-220.486C496.418,-211.595 453.504,-196.812 416.574,-184 364.266,-165.853 303.553,-144.64 267.146,-131.903"/>
<polygon fill="midnightblue" stroke="midnightblue" points="268.144,-128.544 257.549,-128.545 265.832,-135.152 268.144,-128.544"/>
</g>
<!-- Node5 -->
<g id="node6" class="node"><title>Node5</title>
<polygon fill="none" stroke="#bfbfbf" points="501.946,-110.5 501.946,-128.5 585.202,-128.5 585.202,-110.5 501.946,-110.5"/>
<text text-anchor="middle" x="543.574" y="-116.5" font-family="Helvetica,sans-Serif" font-size="10.00">SRE/Mesh.hpp</text>
</g>
<!-- Node1&#45;&gt;Node5 -->
<g id="edge5" class="edge"><title>Node1&#45;&gt;Node5</title>
<path fill="none" stroke="midnightblue" d="M545.423,-220.382C545.105,-203.182 544.355,-162.698 543.914,-138.887"/>
<polygon fill="midnightblue" stroke="midnightblue" points="547.41,-138.645 543.726,-128.712 540.412,-138.775 547.41,-138.645"/>
</g>
<!-- Node6 -->
<g id="node7" class="node"><title>Node6</title>
<g id="a_node7"><a xlink:href="_game_object_8hpp.html" target="_top" xlink:title="GameObject.hpp">
<polygon fill="none" stroke="black" points="425.776,-165.5 425.776,-183.5 517.372,-183.5 517.372,-165.5 425.776,-165.5"/>
<text text-anchor="middle" x="471.574" y="-171.5" font-family="Helvetica,sans-Serif" font-size="10.00">GameObject.hpp</text>
</a>
</g>
</g>
<!-- Node1&#45;&gt;Node6 -->
<g id="edge6" class="edge"><title>Node1&#45;&gt;Node6</title>
<path fill="none" stroke="midnightblue" d="M534.335,-220.45C522.925,-212.279 505.028,-199.46 491.26,-189.6"/>
<polygon fill="midnightblue" stroke="midnightblue" points="493.086,-186.603 482.919,-183.625 489.01,-192.294 493.086,-186.603"/>
</g>
<!-- Node9 -->
<g id="node10" class="node"><title>Node9</title>
<g id="a_node10"><a xlink:href="_rigidbody_8hpp.html" target="_top" xlink:title="Rigidbody.hpp">
<polygon fill="none" stroke="black" points="194.975,-165.5 194.975,-183.5 274.173,-183.5 274.173,-165.5 194.975,-165.5"/>
<text text-anchor="middle" x="234.574" y="-171.5" font-family="Helvetica,sans-Serif" font-size="10.00">Rigidbody.hpp</text>
</a>
</g>
</g>
<!-- Node1&#45;&gt;Node9 -->
<g id="edge14" class="edge"><title>Node1&#45;&gt;Node9</title>
<path fill="none" stroke="midnightblue" d="M499.014,-220.565C441.348,-210.738 343.513,-194.065 284.384,-183.989"/>
<polygon fill="midnightblue" stroke="midnightblue" points="284.971,-180.538 274.525,-182.308 283.795,-187.439 284.971,-180.538"/>
</g>
<!-- Node6&#45;&gt;Node2 -->
<g id="edge9" class="edge"><title>Node6&#45;&gt;Node2</title>
<path fill="none" stroke="midnightblue" d="M471.957,-165.235C473.031,-151.766 477.109,-125.076 492.574,-110 501.07,-101.717 568.823,-83.4376 609.319,-73.0683"/>
<polygon fill="midnightblue" stroke="midnightblue" points="610.388,-76.4079 619.218,-70.552 608.664,-69.6237 610.388,-76.4079"/>
</g>
<!-- Node6&#45;&gt;Node3 -->
<g id="edge10" class="edge"><title>Node6&#45;&gt;Node3</title>
<path fill="none" stroke="midnightblue" d="M494.811,-165.45C520.984,-156.384 563.669,-141.598 592.886,-131.477"/>
<polygon fill="midnightblue" stroke="midnightblue" points="594.306,-134.689 602.609,-128.109 592.015,-128.075 594.306,-134.689"/>
</g>
<!-- Node6&#45;&gt;Node4 -->
<g id="edge8" class="edge"><title>Node6&#45;&gt;Node4</title>
<path fill="none" stroke="midnightblue" d="M435.579,-165.45C393.925,-156.135 325.27,-140.782 279.983,-130.655"/>
<polygon fill="midnightblue" stroke="midnightblue" points="280.654,-127.218 270.131,-128.452 279.126,-134.05 280.654,-127.218"/>
</g>
<!-- Node6&#45;&gt;Node5 -->
<g id="edge7" class="edge"><title>Node6&#45;&gt;Node5</title>
<path fill="none" stroke="midnightblue" d="M482.509,-165.45C493.61,-157.279 511.024,-144.46 524.42,-134.6"/>
<polygon fill="midnightblue" stroke="midnightblue" points="526.557,-137.372 532.536,-128.625 522.407,-131.735 526.557,-137.372"/>
</g>
<!-- Node7 -->
<g id="node8" class="node"><title>Node7</title>
<g id="a_node8"><a xlink:href="_component_8hpp.html" target="_top" xlink:title="Component.hpp">
<polygon fill="none" stroke="black" points="287.993,-110.5 287.993,-128.5 375.155,-128.5 375.155,-110.5 287.993,-110.5"/>
<text text-anchor="middle" x="331.574" y="-116.5" font-family="Helvetica,sans-Serif" font-size="10.00">Component.hpp</text>
</a>
</g>
</g>
<!-- Node6&#45;&gt;Node7 -->
<g id="edge11" class="edge"><title>Node6&#45;&gt;Node7</title>
<path fill="none" stroke="midnightblue" d="M450.311,-165.45C426.978,-156.617 389.303,-142.355 362.656,-132.267"/>
<polygon fill="midnightblue" stroke="midnightblue" points="363.628,-128.893 353.037,-128.625 361.15,-135.439 363.628,-128.893"/>
</g>
<!-- Node8 -->
<g id="node9" class="node"><title>Node8</title>
<polygon fill="none" stroke="#bfbfbf" points="393.517,-110.5 393.517,-128.5 445.63,-128.5 445.63,-110.5 393.517,-110.5"/>
<text text-anchor="middle" x="419.574" y="-116.5" font-family="Helvetica,sans-Serif" font-size="10.00">memory</text>
</g>
<!-- Node6&#45;&gt;Node8 -->
<g id="edge13" class="edge"><title>Node6&#45;&gt;Node8</title>
<path fill="none" stroke="midnightblue" d="M463.449,-165.219C455.772,-157.394 444.066,-145.463 434.675,-135.892"/>
<polygon fill="midnightblue" stroke="midnightblue" points="436.973,-133.236 427.471,-128.55 431.977,-138.139 436.973,-133.236"/>
</g>
<!-- Node7&#45;&gt;Node2 -->
<g id="edge12" class="edge"><title>Node7&#45;&gt;Node2</title>
<path fill="none" stroke="midnightblue" d="M375.259,-111.321C439.13,-100.798 554.928,-81.6113 596.574,-74 600.586,-73.2668 604.802,-72.468 608.962,-71.6633"/>
<polygon fill="midnightblue" stroke="midnightblue" points="609.899,-75.0463 619.037,-69.6846 608.55,-68.1775 609.899,-75.0463"/>
</g>
<!-- Node9&#45;&gt;Node4 -->
<g id="edge33" class="edge"><title>Node9&#45;&gt;Node4</title>
<path fill="none" stroke="midnightblue" d="M234.574,-165.219C234.574,-158.177 234.574,-147.808 234.574,-138.828"/>
<polygon fill="midnightblue" stroke="midnightblue" points="238.074,-138.55 234.574,-128.55 231.074,-138.55 238.074,-138.55"/>
</g>
<!-- Node9&#45;&gt;Node7 -->
<g id="edge15" class="edge"><title>Node9&#45;&gt;Node7</title>
<path fill="none" stroke="midnightblue" d="M249.306,-165.45C264.831,-156.968 289.521,-143.477 307.807,-133.486"/>
<polygon fill="midnightblue" stroke="midnightblue" points="309.606,-136.492 316.703,-128.625 306.249,-130.349 309.606,-136.492"/>
</g>
<!-- Node10 -->
<g id="node11" class="node"><title>Node10</title>
<polygon fill="none" stroke="#bfbfbf" points="0,-0.5 0,-18.5 87.1475,-18.5 87.1475,-0.5 0,-0.5"/>
<text text-anchor="middle" x="43.5737" y="-6.5" font-family="Helvetica,sans-Serif" font-size="10.00">Box2D/Box2D.h</text>
</g>
<!-- Node9&#45;&gt;Node10 -->
<g id="edge16" class="edge"><title>Node9&#45;&gt;Node10</title>
<path fill="none" stroke="midnightblue" d="M194.816,-168.197C149.999,-161.384 81.0849,-148.112 63.5737,-129 38.3952,-101.519 38.6177,-54.6883 41.0513,-28.8946"/>
<polygon fill="midnightblue" stroke="midnightblue" points="44.5618,-29.0065 42.2418,-18.6689 37.6088,-28.197 44.5618,-29.0065"/>
</g>
<!-- Node11 -->
<g id="node12" class="node"><title>Node11</title>
<g id="a_node12"><a xlink:href="_physics_manager_8hpp.html" target="_top" xlink:title="PhysicsManager.hpp">
<polygon fill="none" stroke="black" points="72.1553,-110.5 72.1553,-128.5 180.992,-128.5 180.992,-110.5 72.1553,-110.5"/>
<text text-anchor="middle" x="126.574" y="-116.5" font-family="Helvetica,sans-Serif" font-size="10.00">PhysicsManager.hpp</text>
</a>
</g>
</g>
<!-- Node9&#45;&gt;Node11 -->
<g id="edge17" class="edge"><title>Node9&#45;&gt;Node11</title>
<path fill="none" stroke="midnightblue" d="M218.171,-165.45C200.647,-156.851 172.636,-143.105 152.199,-133.075"/>
<polygon fill="midnightblue" stroke="midnightblue" points="153.65,-129.889 143.131,-128.625 150.566,-136.173 153.65,-129.889"/>
</g>
<!-- Node11&#45;&gt;Node10 -->
<g id="edge21" class="edge"><title>Node11&#45;&gt;Node10</title>
<path fill="none" stroke="midnightblue" d="M120.335,-110.382C106.696,-92.6349 74.0056,-50.0981 55.9973,-26.6656"/>
<polygon fill="midnightblue" stroke="midnightblue" points="58.7534,-24.508 49.8846,-18.7118 53.2031,-28.7735 58.7534,-24.508"/>
</g>
<!-- Node12 -->
<g id="node13" class="node"><title>Node12</title>
<polygon fill="none" stroke="#bfbfbf" points="861.842,-0.5 861.842,-18.5 907.305,-18.5 907.305,-0.5 861.842,-0.5"/>
<text text-anchor="middle" x="884.574" y="-6.5" font-family="Helvetica,sans-Serif" font-size="10.00">stdio.h</text>
</g>
<!-- Node11&#45;&gt;Node12 -->
<g id="edge18" class="edge"><title>Node11&#45;&gt;Node12</title>
<path fill="none" stroke="midnightblue" d="M181.033,-111.207C184.261,-110.793 187.459,-110.388 190.574,-110 327.774,-92.8979 363.861,-100.43 499.574,-74 530.795,-67.9196 537.382,-61.2312 568.574,-55 690.594,-30.6237 726.546,-43.2598 851.673,-19.1404"/>
<polygon fill="midnightblue" stroke="midnightblue" points="852.502,-22.5446 861.637,-17.1791 851.15,-15.6763 852.502,-22.5446"/>
</g>
<!-- Node13 -->
<g id="node14" class="node"><title>Node13</title>
<polygon fill="none" stroke="#bfbfbf" points="104.677,-0.5 104.677,-18.5 148.47,-18.5 148.47,-0.5 104.677,-0.5"/>
<text text-anchor="middle" x="126.574" y="-6.5" font-family="Helvetica,sans-Serif" font-size="10.00">SDL.h</text>
</g>
<!-- Node11&#45;&gt;Node13 -->
<g id="edge19" class="edge"><title>Node11&#45;&gt;Node13</title>
<path fill="none" stroke="midnightblue" d="M126.574,-110.382C126.574,-93.1822 126.574,-52.698 126.574,-28.8866"/>
<polygon fill="midnightblue" stroke="midnightblue" points="130.074,-28.7117 126.574,-18.7118 123.074,-28.7118 130.074,-28.7117"/>
</g>
<!-- Node14 -->
<g id="node15" class="node"><title>Node14</title>
<polygon fill="none" stroke="#bfbfbf" points="925.401,-0.5 925.401,-18.5 979.746,-18.5 979.746,-0.5 925.401,-0.5"/>
<text text-anchor="middle" x="952.574" y="-6.5" font-family="Helvetica,sans-Serif" font-size="10.00">iostream</text>
</g>
<!-- Node11&#45;&gt;Node14 -->
<g id="edge20" class="edge"><title>Node11&#45;&gt;Node14</title>
<path fill="none" stroke="midnightblue" d="M181.026,-111.148C184.255,-110.749 187.456,-110.364 190.574,-110 349.41,-91.4708 391.81,-105.581 548.574,-74 576.827,-68.3083 582.37,-60.93 610.574,-55 741.441,-27.4845 779.921,-42.0494 915.213,-19.0461"/>
<polygon fill="midnightblue" stroke="midnightblue" points="915.871,-22.4843 925.124,-17.3238 914.672,-15.5877 915.871,-22.4843"/>
</g>
<!-- Node15 -->
<g id="node16" class="node"><title>Node15</title>
<g id="a_node16"><a xlink:href="_debug_draw_8hpp.html" target="_top" xlink:title="DebugDraw.hpp">
<polygon fill="none" stroke="black" points="402.714,-55.5 402.714,-73.5 490.433,-73.5 490.433,-55.5 402.714,-55.5"/>
<text text-anchor="middle" x="446.574" y="-61.5" font-family="Helvetica,sans-Serif" font-size="10.00">DebugDraw.hpp</text>
</a>
</g>
</g>
<!-- Node11&#45;&gt;Node15 -->
<g id="edge22" class="edge"><title>Node11&#45;&gt;Node15</title>
<path fill="none" stroke="midnightblue" d="M175.175,-110.45C233.684,-100.76 331.648,-84.5345 392.498,-74.4562"/>
<polygon fill="midnightblue" stroke="midnightblue" points="393.378,-77.8583 402.672,-72.7713 392.234,-70.9524 393.378,-77.8583"/>
</g>
<!-- Node15&#45;&gt;Node10 -->
<g id="edge32" class="edge"><title>Node15&#45;&gt;Node10</title>
<path fill="none" stroke="midnightblue" d="M402.454,-58.4219C337.75,-50.8616 213.072,-35.8647 97.3434,-19.2158"/>
<polygon fill="midnightblue" stroke="midnightblue" points="97.6469,-15.7233 87.2489,-17.756 96.645,-22.6513 97.6469,-15.7233"/>
</g>
<!-- Node15&#45;&gt;Node12 -->
<g id="edge23" class="edge"><title>Node15&#45;&gt;Node12</title>
<path fill="none" stroke="midnightblue" d="M490.527,-57.7918C498.205,-56.8323 506.12,-55.8673 513.574,-55 661.268,-37.8141 702.495,-46.7774 851.664,-19.1078"/>
<polygon fill="midnightblue" stroke="midnightblue" points="852.466,-22.5184 861.648,-17.2316 851.173,-15.6388 852.466,-22.5184"/>
</g>
<!-- Node15&#45;&gt;Node13 -->
<g id="edge25" class="edge"><title>Node15&#45;&gt;Node13</title>
<path fill="none" stroke="midnightblue" d="M402.714,-58.3399C347.781,-51.526 250.641,-38.3203 158.297,-18.9321"/>
<polygon fill="midnightblue" stroke="midnightblue" points="159.022,-15.5082 148.513,-16.8505 157.565,-22.3549 159.022,-15.5082"/>
</g>
<!-- Node15&#45;&gt;Node14 -->
<g id="edge29" class="edge"><title>Node15&#45;&gt;Node14</title>
<path fill="none" stroke="midnightblue" d="M490.704,-60.1024C587.766,-52.5073 818.223,-33.7746 915.091,-18.9887"/>
<polygon fill="midnightblue" stroke="midnightblue" points="915.81,-22.4184 925.135,-17.3889 914.709,-15.5055 915.81,-22.4184"/>
</g>
<!-- Node16 -->
<g id="node17" class="node"><title>Node16</title>
<polygon fill="none" stroke="#bfbfbf" points="590.323,-0.5 590.323,-18.5 680.825,-18.5 680.825,-0.5 590.323,-0.5"/>
<text text-anchor="middle" x="635.574" y="-6.5" font-family="Helvetica,sans-Serif" font-size="10.00">SRE/Shader.hpp</text>
</g>
<!-- Node15&#45;&gt;Node16 -->
<g id="edge24" class="edge"><title>Node15&#45;&gt;Node16</title>
<path fill="none" stroke="midnightblue" d="M475.279,-55.4504C507.844,-46.3184 561.103,-31.3833 597.211,-21.2578"/>
<polygon fill="midnightblue" stroke="midnightblue" points="598.225,-24.6085 606.909,-18.5383 596.335,-17.8685 598.225,-24.6085"/>
</g>
<!-- Node17 -->
<g id="node18" class="node"><title>Node17</title>
<polygon fill="none" stroke="#bfbfbf" points="698.83,-0.5 698.83,-18.5 844.317,-18.5 844.317,-0.5 698.83,-0.5"/>
<text text-anchor="middle" x="771.574" y="-6.5" font-family="Helvetica,sans-Serif" font-size="10.00">glm/gtc/matrix_transform.hpp</text>
</g>
<!-- Node15&#45;&gt;Node17 -->
<g id="edge26" class="edge"><title>Node15&#45;&gt;Node17</title>
<path fill="none" stroke="midnightblue" d="M490.743,-56.297C548.156,-46.9343 648.611,-30.5524 712.523,-20.1299"/>
<polygon fill="midnightblue" stroke="midnightblue" points="713.148,-23.5742 722.454,-18.5103 712.021,-16.6655 713.148,-23.5742"/>
</g>
<!-- Node18 -->
<g id="node19" class="node"><title>Node18</title>
<polygon fill="none" stroke="#bfbfbf" points="166.438,-0.5 166.438,-18.5 254.709,-18.5 254.709,-0.5 166.438,-0.5"/>
<text text-anchor="middle" x="210.574" y="-6.5" font-family="Helvetica,sans-Serif" font-size="10.00">SRE/Debug.hpp</text>
</g>
<!-- Node15&#45;&gt;Node18 -->
<g id="edge27" class="edge"><title>Node15&#45;&gt;Node18</title>
<path fill="none" stroke="midnightblue" d="M410.73,-55.4504C369.372,-46.1623 301.282,-30.871 256.183,-20.7429"/>
<polygon fill="midnightblue" stroke="midnightblue" points="256.891,-17.3146 246.367,-18.5383 255.357,-24.1445 256.891,-17.3146"/>
</g>
<!-- Node19 -->
<g id="node20" class="node"><title>Node19</title>
<polygon fill="none" stroke="#bfbfbf" points="272.776,-0.5 272.776,-18.5 364.372,-18.5 364.372,-0.5 272.776,-0.5"/>
<text text-anchor="middle" x="318.574" y="-6.5" font-family="Helvetica,sans-Serif" font-size="10.00">SRE/Texture.hpp</text>
</g>
<!-- Node15&#45;&gt;Node19 -->
<g id="edge28" class="edge"><title>Node15&#45;&gt;Node19</title>
<path fill="none" stroke="midnightblue" d="M427.133,-55.4504C405.988,-46.6951 371.961,-32.6055 347.638,-22.5346"/>
<polygon fill="midnightblue" stroke="midnightblue" points="348.775,-19.2173 338.197,-18.6253 346.097,-25.6848 348.775,-19.2173"/>
</g>
<!-- Node20 -->
<g id="node21" class="node"><title>Node20</title>
<polygon fill="none" stroke="#bfbfbf" points="382.153,-0.5 382.153,-18.5 510.995,-18.5 510.995,-0.5 382.153,-0.5"/>
<text text-anchor="middle" x="446.574" y="-6.5" font-family="Helvetica,sans-Serif" font-size="10.00">glm/gtx/closest_point.hpp</text>
</g>
<!-- Node15&#45;&gt;Node20 -->
<g id="edge30" class="edge"><title>Node15&#45;&gt;Node20</title>
<path fill="none" stroke="midnightblue" d="M446.574,-55.2188C446.574,-48.1769 446.574,-37.8083 446.574,-28.8277"/>
<polygon fill="midnightblue" stroke="midnightblue" points="450.074,-28.5495 446.574,-18.5496 443.074,-28.5496 450.074,-28.5495"/>
</g>
<!-- Node21 -->
<g id="node22" class="node"><title>Node21</title>
<polygon fill="none" stroke="#bfbfbf" points="528.958,-0.5 528.958,-18.5 572.189,-18.5 572.189,-0.5 528.958,-0.5"/>
<text text-anchor="middle" x="550.574" y="-6.5" font-family="Helvetica,sans-Serif" font-size="10.00">time.h</text>
</g>
<!-- Node15&#45;&gt;Node21 -->
<g id="edge31" class="edge"><title>Node15&#45;&gt;Node21</title>
<path fill="none" stroke="midnightblue" d="M462.369,-55.4504C479.168,-46.8897 505.973,-33.2291 525.63,-23.2119"/>
<polygon fill="midnightblue" stroke="midnightblue" points="527.309,-26.2843 534.63,-18.6253 524.131,-20.0475 527.309,-26.2843"/>
</g>
<!-- Node23&#45;&gt;Node2 -->
<g id="edge46" class="edge"><title>Node23&#45;&gt;Node2</title>
<path fill="none" stroke="midnightblue" d="M1011.82,-173.7C954.613,-173.087 828.837,-167.075 731.574,-129 702.376,-117.57 673.389,-95.2756 655.976,-80.3823"/>
<polygon fill="midnightblue" stroke="midnightblue" points="658.234,-77.707 648.407,-73.7456 653.619,-82.9702 658.234,-77.707"/>
</g>
<!-- Node23&#45;&gt;Node3 -->
<g id="edge47" class="edge"><title>Node23&#45;&gt;Node3</title>
<path fill="none" stroke="midnightblue" d="M1011.84,-169.603C934.948,-159.854 734.849,-134.482 656.601,-124.561"/>
<polygon fill="midnightblue" stroke="midnightblue" points="656.754,-121.052 646.394,-123.267 655.874,-127.997 656.754,-121.052"/>
</g>
<!-- Node23&#45;&gt;Node14 -->
<g id="edge41" class="edge"><title>Node23&#45;&gt;Node14</title>
<path fill="none" stroke="midnightblue" d="M1073.3,-170.668C1119.82,-165.065 1200.15,-149.488 1174.57,-110 1133.55,-46.654 1041.63,-23.2621 989.86,-14.9109"/>
<polygon fill="midnightblue" stroke="midnightblue" points="990.17,-11.4183 979.761,-13.3909 989.128,-18.3403 990.17,-11.4183"/>
</g>
<!-- Node24 -->
<g id="node25" class="node"><title>Node24</title>
<polygon fill="none" stroke="#bfbfbf" points="1222.01,-110.5 1222.01,-128.5 1279.14,-128.5 1279.14,-110.5 1222.01,-110.5"/>
<text text-anchor="middle" x="1250.57" y="-116.5" font-family="Helvetica,sans-Serif" font-size="10.00">algorithm</text>
</g>
<!-- Node23&#45;&gt;Node24 -->
<g id="edge36" class="edge"><title>Node23&#45;&gt;Node24</title>
<path fill="none" stroke="midnightblue" d="M1073.26,-165.68C1110.07,-156.303 1171.78,-140.577 1211.83,-130.372"/>
<polygon fill="midnightblue" stroke="midnightblue" points="1212.94,-133.701 1221.77,-127.84 1211.21,-126.917 1212.94,-133.701"/>
</g>
<!-- Node25 -->
<g id="node26" class="node"><title>Node25</title>
<polygon fill="none" stroke="#bfbfbf" points="1297.51,-110.5 1297.51,-128.5 1339.64,-128.5 1339.64,-110.5 1297.51,-110.5"/>
<text text-anchor="middle" x="1318.57" y="-116.5" font-family="Helvetica,sans-Serif" font-size="10.00">cstdio</text>
</g>
<!-- Node23&#45;&gt;Node25 -->
<g id="edge37" class="edge"><title>Node23&#45;&gt;Node25</title>
<path fill="none" stroke="midnightblue" d="M1073.45,-168.902C1118.47,-161.984 1204.92,-147.896 1287.54,-129.054"/>
<polygon fill="midnightblue" stroke="midnightblue" points="1288.38,-132.453 1297.33,-126.793 1286.8,-125.632 1288.38,-132.453"/>
</g>
<!-- Node26 -->
<g id="node27" class="node"><title>Node26</title>
<polygon fill="none" stroke="#bfbfbf" points="1357.4,-110.5 1357.4,-128.5 1401.75,-128.5 1401.75,-110.5 1357.4,-110.5"/>
<text text-anchor="middle" x="1379.57" y="-116.5" font-family="Helvetica,sans-Serif" font-size="10.00">cstdlib</text>
</g>
<!-- Node23&#45;&gt;Node26 -->
<g id="edge38" class="edge"><title>Node23&#45;&gt;Node26</title>
<path fill="none" stroke="midnightblue" d="M1073.19,-170.312C1126.86,-164.454 1241.51,-150.73 1347.41,-129.016"/>
<polygon fill="midnightblue" stroke="midnightblue" points="1348.22,-132.422 1357.3,-126.959 1346.8,-125.569 1348.22,-132.422"/>
</g>
<!-- Node27 -->
<g id="node28" class="node"><title>Node27</title>
<polygon fill="none" stroke="#bfbfbf" points="1419.85,-110.5 1419.85,-128.5 1465.3,-128.5 1465.3,-110.5 1419.85,-110.5"/>
<text text-anchor="middle" x="1442.57" y="-116.5" font-family="Helvetica,sans-Serif" font-size="10.00">cstring</text>
</g>
<!-- Node23&#45;&gt;Node27 -->
<g id="edge39" class="edge"><title>Node23&#45;&gt;Node27</title>
<path fill="none" stroke="midnightblue" d="M1073.33,-171.238C1135.19,-166.377 1279.15,-153.496 1409.44,-128.957"/>
<polygon fill="midnightblue" stroke="midnightblue" points="1410.43,-132.331 1419.59,-127.015 1409.11,-125.456 1410.43,-132.331"/>
</g>
<!-- Node28 -->
<g id="node29" class="node"><title>Node28</title>
<polygon fill="none" stroke="#bfbfbf" points="1483.45,-110.5 1483.45,-128.5 1531.69,-128.5 1531.69,-110.5 1483.45,-110.5"/>
<text text-anchor="middle" x="1507.57" y="-116.5" font-family="Helvetica,sans-Serif" font-size="10.00">cstddef</text>
</g>
<!-- Node23&#45;&gt;Node28 -->
<g id="edge40" class="edge"><title>Node23&#45;&gt;Node28</title>
<path fill="none" stroke="midnightblue" d="M1073.17,-171.923C1142.64,-168.009 1317.67,-156.259 1472.96,-129.039"/>
<polygon fill="midnightblue" stroke="midnightblue" points="1473.92,-132.422 1483.15,-127.223 1472.7,-125.53 1473.92,-132.422"/>
</g>
<!-- Node29 -->
<g id="node30" class="node"><title>Node29</title>
<polygon fill="none" stroke="#bfbfbf" points="741.012,-110.5 741.012,-128.5 788.135,-128.5 788.135,-110.5 741.012,-110.5"/>
<text text-anchor="middle" x="764.574" y="-116.5" font-family="Helvetica,sans-Serif" font-size="10.00">iterator</text>
</g>
<!-- Node23&#45;&gt;Node29 -->
<g id="edge42" class="edge"><title>Node23&#45;&gt;Node29</title>
<path fill="none" stroke="midnightblue" d="M1011.88,-168.658C967.106,-161.437 881.092,-146.965 798.152,-128.987"/>
<polygon fill="midnightblue" stroke="midnightblue" points="798.835,-125.553 788.318,-126.835 797.338,-132.392 798.835,-125.553"/>
</g>
<!-- Node30 -->
<g id="node31" class="node"><title>Node30</title>
<polygon fill="none" stroke="#bfbfbf" points="806.187,-110.5 806.187,-128.5 844.96,-128.5 844.96,-110.5 806.187,-110.5"/>
<text text-anchor="middle" x="825.574" y="-116.5" font-family="Helvetica,sans-Serif" font-size="10.00">limits</text>
</g>
<!-- Node23&#45;&gt;Node30 -->
<g id="edge43" class="edge"><title>Node23&#45;&gt;Node30</title>
<path fill="none" stroke="midnightblue" d="M1011.98,-166.924C976.386,-159.136 915.644,-145.425 854.862,-129.225"/>
<polygon fill="midnightblue" stroke="midnightblue" points="855.676,-125.819 845.11,-126.604 853.859,-132.579 855.676,-125.819"/>
</g>
<!-- Node31 -->
<g id="node32" class="node"><title>Node31</title>
<polygon fill="none" stroke="#bfbfbf" points="862.847,-110.5 862.847,-128.5 898.3,-128.5 898.3,-110.5 862.847,-110.5"/>
<text text-anchor="middle" x="880.574" y="-116.5" font-family="Helvetica,sans-Serif" font-size="10.00">map</text>
</g>
<!-- Node23&#45;&gt;Node31 -->
<g id="edge44" class="edge"><title>Node23&#45;&gt;Node31</title>
<path fill="none" stroke="midnightblue" d="M1017.97,-165.45C988.386,-155.772 938.88,-139.575 908.066,-129.494"/>
<polygon fill="midnightblue" stroke="midnightblue" points="908.981,-126.111 898.389,-126.328 906.805,-132.764 908.981,-126.111"/>
</g>
<!-- Node32 -->
<g id="node33" class="node"><title>Node32</title>
<polygon fill="none" stroke="#bfbfbf" points="916.172,-110.5 916.172,-128.5 974.975,-128.5 974.975,-110.5 916.172,-110.5"/>
<text text-anchor="middle" x="945.574" y="-116.5" font-family="Helvetica,sans-Serif" font-size="10.00">stdexcept</text>
</g>
<!-- Node23&#45;&gt;Node32 -->
<g id="edge45" class="edge"><title>Node23&#45;&gt;Node32</title>
<path fill="none" stroke="midnightblue" d="M1027.84,-165.45C1012.32,-156.968 987.626,-143.477 969.34,-133.486"/>
<polygon fill="midnightblue" stroke="midnightblue" points="970.898,-130.349 960.445,-128.625 967.542,-136.492 970.898,-130.349"/>
</g>
<!-- Node33 -->
<g id="node34" class="node"><title>Node33</title>
<polygon fill="none" stroke="#bfbfbf" points="993.182,-110.5 993.182,-128.5 1031.97,-128.5 1031.97,-110.5 993.182,-110.5"/>
<text text-anchor="middle" x="1012.57" y="-116.5" font-family="Helvetica,sans-Serif" font-size="10.00">utility</text>
</g>
<!-- Node23&#45;&gt;Node33 -->
<g id="edge48" class="edge"><title>Node23&#45;&gt;Node33</title>
<path fill="none" stroke="midnightblue" d="M1037.89,-165.219C1033.68,-157.786 1027.37,-146.646 1022.11,-137.345"/>
<polygon fill="midnightblue" stroke="midnightblue" points="1025.1,-135.528 1017.13,-128.55 1019.01,-138.976 1025.1,-135.528"/>
</g>
<!-- Node34 -->
<g id="node35" class="node"><title>Node34</title>
<polygon fill="none" stroke="#bfbfbf" points="1050.29,-110.5 1050.29,-128.5 1096.86,-128.5 1096.86,-110.5 1050.29,-110.5"/>
<text text-anchor="middle" x="1073.57" y="-116.5" font-family="Helvetica,sans-Serif" font-size="10.00">math.h</text>
</g>
<!-- Node23&#45;&gt;Node34 -->
<g id="edge49" class="edge"><title>Node23&#45;&gt;Node34</title>
<path fill="none" stroke="midnightblue" d="M1047.42,-165.219C1051.77,-157.786 1058.28,-146.646 1063.72,-137.345"/>
<polygon fill="midnightblue" stroke="midnightblue" points="1066.84,-138.949 1068.87,-128.55 1060.8,-135.414 1066.84,-138.949"/>
</g>
<!-- Node35 -->
<g id="node36" class="node"><title>Node35</title>
<polygon fill="none" stroke="#bfbfbf" points="1115.34,-110.5 1115.34,-128.5 1165.81,-128.5 1165.81,-110.5 1115.34,-110.5"/>
<text text-anchor="middle" x="1140.57" y="-116.5" font-family="Helvetica,sans-Serif" font-size="10.00">locale.h</text>
</g>
<!-- Node23&#45;&gt;Node35 -->
<g id="edge50" class="edge"><title>Node23&#45;&gt;Node35</title>
<path fill="none" stroke="midnightblue" d="M1057.46,-165.45C1073.14,-156.968 1098.09,-143.477 1116.56,-133.486"/>
<polygon fill="midnightblue" stroke="midnightblue" points="1118.42,-136.461 1125.55,-128.625 1115.09,-130.304 1118.42,-136.461"/>
</g>
</g>
</svg>
