<?xml version="1.0" encoding="UTF-8" standalone="no"?>
<!DOCTYPE svg PUBLIC "-//W3C//DTD SVG 1.1//EN"
 "http://www.w3.org/Graphics/SVG/1.1/DTD/svg11.dtd">
<!-- Generated by graphviz version 2.38.0 (20140413.2041)
 -->
<!-- Title: SceneParser.hpp Pages: 1 -->
<svg width="990pt" height="247pt"
 viewBox="0.00 0.00 989.75 247.00" xmlns="http://www.w3.org/2000/svg" xmlns:xlink="http://www.w3.org/1999/xlink">
<g id="graph0" class="graph" transform="scale(1 1) rotate(0) translate(4 243)">
<title>SceneParser.hpp</title>
<!-- Node0 -->
<g id="node1" class="node"><title>Node0</title>
<polygon fill="#bfbfbf" stroke="black" points="374.811,-220.5 374.811,-238.5 467.534,-238.5 467.534,-220.5 374.811,-220.5"/>
<text text-anchor="middle" x="421.172" y="-226.5" font-family="Helvetica,sans-Serif" font-size="10.00">SceneParser.hpp</text>
</g>
<!-- Node1 -->
<g id="node2" class="node"><title>Node1</title>
<polygon fill="none" stroke="#bfbfbf" points="475.946,-55.5 475.946,-73.5 516.399,-73.5 516.399,-55.5 475.946,-55.5"/>
<text text-anchor="middle" x="496.172" y="-61.5" font-family="Helvetica,sans-Serif" font-size="10.00">string</text>
</g>
<!-- Node0&#45;&gt;Node1 -->
<g id="edge1" class="edge"><title>Node0&#45;&gt;Node1</title>
<path fill="none" stroke="midnightblue" d="M391.712,-220.428C335.124,-203.524 220.449,-161.655 263.172,-110 288.509,-79.367 408.141,-69.6288 465.438,-66.692"/>
<polygon fill="midnightblue" stroke="midnightblue" points="465.874,-70.1753 475.697,-66.2052 465.543,-63.1832 465.874,-70.1753"/>
</g>
<!-- Node2 -->
<g id="node3" class="node"><title>Node2</title>
<polygon fill="none" stroke="#bfbfbf" points="272.557,-110.5 272.557,-128.5 315.788,-128.5 315.788,-110.5 272.557,-110.5"/>
<text text-anchor="middle" x="294.172" y="-116.5" font-family="Helvetica,sans-Serif" font-size="10.00">vector</text>
</g>
<!-- Node0&#45;&gt;Node2 -->
<g id="edge2" class="edge"><title>Node0&#45;&gt;Node2</title>
<path fill="none" stroke="midnightblue" d="M411.627,-220.382C390.389,-202.322 338.965,-158.591 311.746,-135.445"/>
<polygon fill="midnightblue" stroke="midnightblue" points="313.714,-132.524 303.829,-128.712 309.179,-137.856 313.714,-132.524"/>
</g>
<!-- Node3 -->
<g id="node4" class="node"><title>Node3</title>
<polygon fill="none" stroke="#bfbfbf" points="648.938,-110.5 648.938,-128.5 719.406,-128.5 719.406,-110.5 648.938,-110.5"/>
<text text-anchor="middle" x="684.172" y="-116.5" font-family="Helvetica,sans-Serif" font-size="10.00">glm/glm.hpp</text>
</g>
<!-- Node0&#45;&gt;Node3 -->
<g id="edge3" class="edge"><title>Node0&#45;&gt;Node3</title>
<path fill="none" stroke="midnightblue" d="M440.94,-220.382C486.937,-201.494 601.309,-154.527 655.204,-132.396"/>
<polygon fill="midnightblue" stroke="midnightblue" points="656.613,-135.601 664.534,-128.564 653.954,-129.125 656.613,-135.601"/>
</g>
<!-- Node4 -->
<g id="node5" class="node"><title>Node4</title>
<polygon fill="none" stroke="#bfbfbf" points="333.544,-110.5 333.544,-128.5 416.8,-128.5 416.8,-110.5 333.544,-110.5"/>
<text text-anchor="middle" x="375.172" y="-116.5" font-family="Helvetica,sans-Serif" font-size="10.00">SRE/Mesh.hpp</text>
</g>
<!-- Node0&#45;&gt;Node4 -->
<g id="edge4" class="edge"><title>Node0&#45;&gt;Node4</title>
<path fill="none" stroke="midnightblue" d="M417.715,-220.382C410.289,-202.948 392.673,-161.59 382.593,-137.922"/>
<polygon fill="midnightblue" stroke="midnightblue" points="385.809,-136.54 378.67,-128.712 379.369,-139.284 385.809,-136.54"/>
</g>
<!-- Node5 -->
<g id="node6" class="node"><title>Node5</title>
<g id="a_node6"><a xlink:href="_game_object_8hpp.html" target="_top" xlink:title="GameObject.hpp">
<polygon fill="none" stroke="black" points="415.375,-165.5 415.375,-183.5 506.97,-183.5 506.97,-165.5 415.375,-165.5"/>
<text text-anchor="middle" x="461.172" y="-171.5" font-family="Helvetica,sans-Serif" font-size="10.00">GameObject.hpp</text>
</a>
</g>
</g>
<!-- Node0&#45;&gt;Node5 -->
<g id="edge5" class="edge"><title>Node0&#45;&gt;Node5</title>
<path fill="none" stroke="midnightblue" d="M427.422,-220.219C433.15,-212.629 441.795,-201.175 448.901,-191.76"/>
<polygon fill="midnightblue" stroke="midnightblue" points="451.867,-193.64 455.097,-183.55 446.279,-189.423 451.867,-193.64"/>
</g>
<!-- Node8 -->
<g id="node9" class="node"><title>Node8</title>
<g id="a_node9"><a xlink:href="_rigidbody_8hpp.html" target="_top" xlink:title="Rigidbody.hpp">
<polygon fill="none" stroke="black" points="644.573,-165.5 644.573,-183.5 723.771,-183.5 723.771,-165.5 644.573,-165.5"/>
<text text-anchor="middle" x="684.172" y="-171.5" font-family="Helvetica,sans-Serif" font-size="10.00">Rigidbody.hpp</text>
</a>
</g>
</g>
<!-- Node0&#45;&gt;Node8 -->
<g id="edge13" class="edge"><title>Node0&#45;&gt;Node8</title>
<path fill="none" stroke="midnightblue" d="M461.116,-220.45C507.497,-211.104 584.044,-195.678 634.292,-185.552"/>
<polygon fill="midnightblue" stroke="midnightblue" points="635.173,-188.945 644.284,-183.538 633.79,-182.083 635.173,-188.945"/>
</g>
<!-- Node5&#45;&gt;Node1 -->
<g id="edge8" class="edge"><title>Node5&#45;&gt;Node1</title>
<path fill="none" stroke="midnightblue" d="M470.399,-165.381C478.951,-157.187 491.093,-143.675 496.172,-129 501.248,-114.335 500.742,-96.5984 499.258,-83.6019"/>
<polygon fill="midnightblue" stroke="midnightblue" points="502.707,-82.9965 497.818,-73.5973 495.778,-83.9941 502.707,-82.9965"/>
</g>
<!-- Node5&#45;&gt;Node2 -->
<g id="edge9" class="edge"><title>Node5&#45;&gt;Node2</title>
<path fill="none" stroke="midnightblue" d="M435.809,-165.45C406.333,-156.096 357.669,-140.652 325.764,-130.526"/>
<polygon fill="midnightblue" stroke="midnightblue" points="326.63,-127.129 316.04,-127.44 324.512,-133.801 326.63,-127.129"/>
</g>
<!-- Node5&#45;&gt;Node3 -->
<g id="edge7" class="edge"><title>Node5&#45;&gt;Node3</title>
<path fill="none" stroke="midnightblue" d="M495.041,-165.45C533.957,-156.201 597.92,-140.999 640.537,-130.871"/>
<polygon fill="midnightblue" stroke="midnightblue" points="641.431,-134.256 650.351,-128.538 639.812,-127.446 641.431,-134.256"/>
</g>
<!-- Node5&#45;&gt;Node4 -->
<g id="edge6" class="edge"><title>Node5&#45;&gt;Node4</title>
<path fill="none" stroke="midnightblue" d="M448.111,-165.45C434.599,-157.123 413.256,-143.97 397.142,-134.039"/>
<polygon fill="midnightblue" stroke="midnightblue" points="398.706,-130.892 388.357,-128.625 395.034,-136.851 398.706,-130.892"/>
</g>
<!-- Node6 -->
<g id="node7" class="node"><title>Node6</title>
<g id="a_node7"><a xlink:href="_component_8hpp.html" target="_top" xlink:title="Component.hpp">
<polygon fill="none" stroke="black" points="543.591,-110.5 543.591,-128.5 630.753,-128.5 630.753,-110.5 543.591,-110.5"/>
<text text-anchor="middle" x="587.172" y="-116.5" font-family="Helvetica,sans-Serif" font-size="10.00">Component.hpp</text>
</a>
</g>
</g>
<!-- Node5&#45;&gt;Node6 -->
<g id="edge10" class="edge"><title>Node5&#45;&gt;Node6</title>
<path fill="none" stroke="midnightblue" d="M480.309,-165.45C501.124,-156.695 534.62,-142.606 558.562,-132.535"/>
<polygon fill="midnightblue" stroke="midnightblue" points="559.995,-135.729 567.856,-128.625 557.281,-129.276 559.995,-135.729"/>
</g>
<!-- Node7 -->
<g id="node8" class="node"><title>Node7</title>
<polygon fill="none" stroke="#bfbfbf" points="435.116,-110.5 435.116,-128.5 487.229,-128.5 487.229,-110.5 435.116,-110.5"/>
<text text-anchor="middle" x="461.172" y="-116.5" font-family="Helvetica,sans-Serif" font-size="10.00">memory</text>
</g>
<!-- Node5&#45;&gt;Node7 -->
<g id="edge12" class="edge"><title>Node5&#45;&gt;Node7</title>
<path fill="none" stroke="midnightblue" d="M461.172,-165.219C461.172,-158.177 461.172,-147.808 461.172,-138.828"/>
<polygon fill="midnightblue" stroke="midnightblue" points="464.672,-138.55 461.172,-128.55 457.672,-138.55 464.672,-138.55"/>
</g>
<!-- Node6&#45;&gt;Node1 -->
<g id="edge11" class="edge"><title>Node6&#45;&gt;Node1</title>
<path fill="none" stroke="midnightblue" d="M573.351,-110.45C558.92,-102.045 536.048,-88.7241 518.943,-78.7618"/>
<polygon fill="midnightblue" stroke="midnightblue" points="520.526,-75.6337 510.123,-73.6253 517.003,-81.6826 520.526,-75.6337"/>
</g>
<!-- Node8&#45;&gt;Node3 -->
<g id="edge32" class="edge"><title>Node8&#45;&gt;Node3</title>
<path fill="none" stroke="midnightblue" d="M684.172,-165.219C684.172,-158.177 684.172,-147.808 684.172,-138.828"/>
<polygon fill="midnightblue" stroke="midnightblue" points="687.672,-138.55 684.172,-128.55 680.672,-138.55 687.672,-138.55"/>
</g>
<!-- Node8&#45;&gt;Node6 -->
<g id="edge14" class="edge"><title>Node8&#45;&gt;Node6</title>
<path fill="none" stroke="midnightblue" d="M669.44,-165.45C653.915,-156.968 629.225,-143.477 610.939,-133.486"/>
<polygon fill="midnightblue" stroke="midnightblue" points="612.497,-130.349 602.043,-128.625 609.141,-136.492 612.497,-130.349"/>
</g>
<!-- Node9 -->
<g id="node10" class="node"><title>Node9</title>
<polygon fill="none" stroke="#bfbfbf" points="894.599,-0.5 894.599,-18.5 981.746,-18.5 981.746,-0.5 894.599,-0.5"/>
<text text-anchor="middle" x="938.172" y="-6.5" font-family="Helvetica,sans-Serif" font-size="10.00">Box2D/Box2D.h</text>
</g>
<!-- Node8&#45;&gt;Node9 -->
<g id="edge15" class="edge"><title>Node8&#45;&gt;Node9</title>
<path fill="none" stroke="midnightblue" d="M724.074,-170.933C760.97,-166.856 815.871,-156.304 855.172,-129 892.701,-102.927 918.809,-54.0631 930.774,-27.9707"/>
<polygon fill="midnightblue" stroke="midnightblue" points="934.073,-29.1638 934.907,-18.6018 927.668,-26.3383 934.073,-29.1638"/>
</g>
<!-- Node10 -->
<g id="node11" class="node"><title>Node10</title>
<g id="a_node11"><a xlink:href="_physics_manager_8hpp.html" target="_top" xlink:title="PhysicsManager.hpp">
<polygon fill="none" stroke="black" points="737.754,-110.5 737.754,-128.5 846.591,-128.5 846.591,-110.5 737.754,-110.5"/>
<text text-anchor="middle" x="792.172" y="-116.5" font-family="Helvetica,sans-Serif" font-size="10.00">PhysicsManager.hpp</text>
</a>
</g>
</g>
<!-- Node8&#45;&gt;Node10 -->
<g id="edge16" class="edge"><title>Node8&#45;&gt;Node10</title>
<path fill="none" stroke="midnightblue" d="M700.575,-165.45C718.099,-156.851 746.11,-143.105 766.547,-133.075"/>
<polygon fill="midnightblue" stroke="midnightblue" points="768.18,-136.173 775.615,-128.625 765.096,-129.889 768.18,-136.173"/>
</g>
<!-- Node10&#45;&gt;Node9 -->
<g id="edge20" class="edge"><title>Node10&#45;&gt;Node9</title>
<path fill="none" stroke="midnightblue" d="M803.146,-110.382C827.772,-92.1658 887.705,-47.8322 918.776,-24.8483"/>
<polygon fill="midnightblue" stroke="midnightblue" points="921.113,-27.4726 927.071,-18.7118 916.95,-21.845 921.113,-27.4726"/>
</g>
<!-- Node11 -->
<g id="node12" class="node"><title>Node11</title>
<polygon fill="none" stroke="#bfbfbf" points="769.441,-0.5 769.441,-18.5 814.904,-18.5 814.904,-0.5 769.441,-0.5"/>
<text text-anchor="middle" x="792.172" y="-6.5" font-family="Helvetica,sans-Serif" font-size="10.00">stdio.h</text>
</g>
<!-- Node10&#45;&gt;Node11 -->
<g id="edge17" class="edge"><title>Node10&#45;&gt;Node11</title>
<path fill="none" stroke="midnightblue" d="M792.172,-110.382C792.172,-93.1822 792.172,-52.698 792.172,-28.8866"/>
<polygon fill="midnightblue" stroke="midnightblue" points="795.672,-28.7117 792.172,-18.7118 788.672,-28.7118 795.672,-28.7117"/>
</g>
<!-- Node12 -->
<g id="node13" class="node"><title>Node12</title>
<polygon fill="none" stroke="#bfbfbf" points="833.276,-0.5 833.276,-18.5 877.069,-18.5 877.069,-0.5 833.276,-0.5"/>
<text text-anchor="middle" x="855.172" y="-6.5" font-family="Helvetica,sans-Serif" font-size="10.00">SDL.h</text>
</g>
<!-- Node10&#45;&gt;Node12 -->
<g id="edge18" class="edge"><title>Node10&#45;&gt;Node12</title>
<path fill="none" stroke="midnightblue" d="M796.908,-110.382C807.124,-92.8695 831.42,-51.2181 845.195,-27.6045"/>
<polygon fill="midnightblue" stroke="midnightblue" points="848.367,-29.1131 850.382,-18.7118 842.32,-25.586 848.367,-29.1131"/>
</g>
<!-- Node13 -->
<g id="node14" class="node"><title>Node13</title>
<polygon fill="none" stroke="#bfbfbf" points="0,-0.5 0,-18.5 54.3447,-18.5 54.3447,-0.5 0,-0.5"/>
<text text-anchor="middle" x="27.1724" y="-6.5" font-family="Helvetica,sans-Serif" font-size="10.00">iostream</text>
</g>
<!-- Node10&#45;&gt;Node13 -->
<g id="edge19" class="edge"><title>Node10&#45;&gt;Node13</title>
<path fill="none" stroke="midnightblue" d="M742.536,-110.477C685.524,-100.976 595.669,-85.0507 563.172,-74 545.295,-67.9208 543.367,-60.0509 525.172,-55 330.339,-0.912599 269.283,-48.5057 64.7311,-18.7906"/>
<polygon fill="midnightblue" stroke="midnightblue" points="64.9726,-15.2878 54.5644,-17.2677 63.9355,-22.2106 64.9726,-15.2878"/>
</g>
<!-- Node14 -->
<g id="node15" class="node"><title>Node14</title>
<g id="a_node15"><a xlink:href="_debug_draw_8hpp.html" target="_top" xlink:title="DebugDraw.hpp">
<polygon fill="none" stroke="black" points="572.313,-55.5 572.313,-73.5 660.032,-73.5 660.032,-55.5 572.313,-55.5"/>
<text text-anchor="middle" x="616.172" y="-61.5" font-family="Helvetica,sans-Serif" font-size="10.00">DebugDraw.hpp</text>
</a>
</g>
</g>
<!-- Node10&#45;&gt;Node14 -->
<g id="edge21" class="edge"><title>Node10&#45;&gt;Node14</title>
<path fill="none" stroke="midnightblue" d="M765.442,-110.45C735.376,-101.396 686.367,-86.6382 652.762,-76.5185"/>
<polygon fill="midnightblue" stroke="midnightblue" points="653.45,-73.0705 642.866,-73.5383 651.432,-79.7732 653.45,-73.0705"/>
</g>
<!-- Node14&#45;&gt;Node9 -->
<g id="edge31" class="edge"><title>Node14&#45;&gt;Node9</title>
<path fill="none" stroke="midnightblue" d="M660.27,-56.2417C718.599,-46.6409 821.344,-29.7295 884.232,-19.3784"/>
<polygon fill="midnightblue" stroke="midnightblue" points="885.051,-22.7907 894.35,-17.713 883.914,-15.8837 885.051,-22.7907"/>
</g>
<!-- Node14&#45;&gt;Node11 -->
<g id="edge22" class="edge"><title>Node14&#45;&gt;Node11</title>
<path fill="none" stroke="midnightblue" d="M642.903,-55.4504C674.189,-46.0291 725.986,-30.431 759.595,-20.3102"/>
<polygon fill="midnightblue" stroke="midnightblue" points="760.833,-23.5928 769.399,-17.358 758.814,-16.8902 760.833,-23.5928"/>
</g>
<!-- Node14&#45;&gt;Node12 -->
<g id="edge24" class="edge"><title>Node14&#45;&gt;Node12</title>
<path fill="none" stroke="midnightblue" d="M656.981,-55.4831C696.98,-47.4666 759.891,-34.4367 823.413,-19.0752"/>
<polygon fill="midnightblue" stroke="midnightblue" points="824.31,-22.4591 833.197,-16.6914 822.653,-15.658 824.31,-22.4591"/>
</g>
<!-- Node14&#45;&gt;Node13 -->
<g id="edge28" class="edge"><title>Node14&#45;&gt;Node13</title>
<path fill="none" stroke="midnightblue" d="M572.197,-56.7121C567.469,-56.0849 562.725,-55.4988 558.172,-55 342.656,-31.3867 283.639,-51.1231 64.7681,-18.8108"/>
<polygon fill="midnightblue" stroke="midnightblue" points="64.9698,-15.3021 54.562,-17.2837 63.9339,-22.2251 64.9698,-15.3021"/>
</g>
<!-- Node15 -->
<g id="node16" class="node"><title>Node15</title>
<polygon fill="none" stroke="#bfbfbf" points="280.921,-0.5 280.921,-18.5 371.423,-18.5 371.423,-0.5 280.921,-0.5"/>
<text text-anchor="middle" x="326.172" y="-6.5" font-family="Helvetica,sans-Serif" font-size="10.00">SRE/Shader.hpp</text>
</g>
<!-- Node14&#45;&gt;Node15 -->
<g id="edge23" class="edge"><title>Node14&#45;&gt;Node15</title>
<path fill="none" stroke="midnightblue" d="M572.128,-55.4504C520.665,-46.0453 435.522,-30.4845 380.136,-20.3623"/>
<polygon fill="midnightblue" stroke="midnightblue" points="380.622,-16.8932 370.156,-18.5383 379.363,-23.7792 380.622,-16.8932"/>
</g>
<!-- Node16 -->
<g id="node17" class="node"><title>Node16</title>
<polygon fill="none" stroke="#bfbfbf" points="389.429,-0.5 389.429,-18.5 534.916,-18.5 534.916,-0.5 389.429,-0.5"/>
<text text-anchor="middle" x="462.172" y="-6.5" font-family="Helvetica,sans-Serif" font-size="10.00">glm/gtc/matrix_transform.hpp</text>
</g>
<!-- Node14&#45;&gt;Node16 -->
<g id="edge25" class="edge"><title>Node14&#45;&gt;Node16</title>
<path fill="none" stroke="midnightblue" d="M592.783,-55.4504C566.816,-46.5136 524.699,-32.0189 495.336,-21.9134"/>
<polygon fill="midnightblue" stroke="midnightblue" points="496.124,-18.4831 485.529,-18.5383 493.846,-25.1021 496.124,-18.4831"/>
</g>
<!-- Node17 -->
<g id="node18" class="node"><title>Node17</title>
<polygon fill="none" stroke="#bfbfbf" points="553.037,-0.5 553.037,-18.5 641.308,-18.5 641.308,-0.5 553.037,-0.5"/>
<text text-anchor="middle" x="597.172" y="-6.5" font-family="Helvetica,sans-Serif" font-size="10.00">SRE/Debug.hpp</text>
</g>
<!-- Node14&#45;&gt;Node17 -->
<g id="edge26" class="edge"><title>Node14&#45;&gt;Node17</title>
<path fill="none" stroke="midnightblue" d="M613.204,-55.2188C610.623,-48.0204 606.796,-37.3458 603.529,-28.2311"/>
<polygon fill="midnightblue" stroke="midnightblue" points="606.727,-26.7818 600.058,-18.5496 600.138,-29.1441 606.727,-26.7818"/>
</g>
<!-- Node18 -->
<g id="node19" class="node"><title>Node18</title>
<polygon fill="none" stroke="#bfbfbf" points="659.375,-0.5 659.375,-18.5 750.97,-18.5 750.97,-0.5 659.375,-0.5"/>
<text text-anchor="middle" x="705.172" y="-6.5" font-family="Helvetica,sans-Serif" font-size="10.00">SRE/Texture.hpp</text>
</g>
<!-- Node14&#45;&gt;Node18 -->
<g id="edge27" class="edge"><title>Node14&#45;&gt;Node18</title>
<path fill="none" stroke="midnightblue" d="M629.69,-55.4504C643.804,-47.0453 666.173,-33.7241 682.903,-23.7618"/>
<polygon fill="midnightblue" stroke="midnightblue" points="684.727,-26.7491 691.528,-18.6253 681.145,-20.7347 684.727,-26.7491"/>
</g>
<!-- Node19 -->
<g id="node20" class="node"><title>Node19</title>
<polygon fill="none" stroke="#bfbfbf" points="72.7515,-0.5 72.7515,-18.5 201.593,-18.5 201.593,-0.5 72.7515,-0.5"/>
<text text-anchor="middle" x="137.172" y="-6.5" font-family="Helvetica,sans-Serif" font-size="10.00">glm/gtx/closest_point.hpp</text>
</g>
<!-- Node14&#45;&gt;Node19 -->
<g id="edge29" class="edge"><title>Node14&#45;&gt;Node19</title>
<path fill="none" stroke="midnightblue" d="M572.18,-56.8527C567.456,-56.1986 562.717,-55.5678 558.172,-55 407.195,-36.1364 366.468,-35.9896 211.996,-19.1849"/>
<polygon fill="midnightblue" stroke="midnightblue" points="211.975,-15.6619 201.654,-18.0536 211.214,-22.6204 211.975,-15.6619"/>
</g>
<!-- Node20 -->
<g id="node21" class="node"><title>Node20</title>
<polygon fill="none" stroke="#bfbfbf" points="219.557,-0.5 219.557,-18.5 262.788,-18.5 262.788,-0.5 219.557,-0.5"/>
<text text-anchor="middle" x="241.172" y="-6.5" font-family="Helvetica,sans-Serif" font-size="10.00">time.h</text>
</g>
<!-- Node14&#45;&gt;Node20 -->
<g id="edge30" class="edge"><title>Node14&#45;&gt;Node20</title>
<path fill="none" stroke="midnightblue" d="M572.167,-56.9552C567.445,-56.2814 562.71,-55.618 558.172,-55 434.453,-38.1496 399.58,-43.6979 273.165,-18.9253"/>
<polygon fill="midnightblue" stroke="midnightblue" points="273.586,-15.4405 263.096,-16.9264 272.223,-22.3065 273.586,-15.4405"/>
</g>
</g>
</svg>
