<?xml version="1.0" encoding="UTF-8" standalone="no"?>
<!DOCTYPE svg PUBLIC "-//W3C//DTD SVG 1.1//EN"
 "http://www.w3.org/Graphics/SVG/1.1/DTD/svg11.dtd">
<!-- Generated by graphviz version 2.38.0 (20140413.2041)
 -->
<!-- Title: SceneParser.hpp Pages: 1 -->
<svg width="990pt" height="247pt"
 viewBox="0.00 0.00 989.75 247.00" xmlns="http://www.w3.org/2000/svg" xmlns:xlink="http://www.w3.org/1999/xlink">
<g id="graph0" class="graph" transform="scale(1 1) rotate(0) translate(4 243)">
<title>SceneParser.hpp</title>
<!-- Node0 -->
<g id="node1" class="node"><title>Node0</title>
<polygon fill="#bfbfbf" stroke="black" points="374.811,-220.5 374.811,-238.5 467.534,-238.5 467.534,-220.5 374.811,-220.5"/>
<text text-anchor="middle" x="421.172" y="-226.5" font-family="Helvetica,sans-Serif" font-size="10.00">SceneParser.hpp</text>
</g>
<!-- Node1 -->
<g id="node2" class="node"><title>Node1</title>
<polygon fill="none" stroke="#bfbfbf" points="476.946,-55.5 476.946,-73.5 517.399,-73.5 517.399,-55.5 476.946,-55.5"/>
<text text-anchor="middle" x="497.172" y="-61.5" font-family="Helvetica,sans-Serif" font-size="10.00">string</text>
</g>
<!-- Node0&#45;&gt;Node1 -->
<g id="edge1" class="edge"><title>Node0&#45;&gt;Node1</title>
<path fill="none" stroke="midnightblue" d="M391.708,-220.425C335.114,-203.516 220.429,-161.638 263.172,-110 288.626,-79.2502 408.768,-69.5714 466.307,-66.6708"/>
<polygon fill="midnightblue" stroke="midnightblue" points="466.784,-70.1525 476.61,-66.1907 466.458,-63.1601 466.784,-70.1525"/>
</g>
<!-- Node2 -->
<g id="node3" class="node"><title>Node2</title>
<polygon fill="none" stroke="#bfbfbf" points="272.557,-110.5 272.557,-128.5 315.788,-128.5 315.788,-110.5 272.557,-110.5"/>
<text text-anchor="middle" x="294.172" y="-116.5" font-family="Helvetica,sans-Serif" font-size="10.00">vector</text>
</g>
<!-- Node0&#45;&gt;Node2 -->
<g id="edge2" class="edge"><title>Node0&#45;&gt;Node2</title>
<path fill="none" stroke="midnightblue" d="M411.627,-220.382C390.389,-202.322 338.965,-158.591 311.746,-135.445"/>
<polygon fill="midnightblue" stroke="midnightblue" points="313.714,-132.524 303.829,-128.712 309.179,-137.856 313.714,-132.524"/>
</g>
<!-- Node3 -->
<g id="node4" class="node"><title>Node3</title>
<polygon fill="none" stroke="#bfbfbf" points="648.938,-110.5 648.938,-128.5 719.406,-128.5 719.406,-110.5 648.938,-110.5"/>
<text text-anchor="middle" x="684.172" y="-116.5" font-family="Helvetica,sans-Serif" font-size="10.00">glm/glm.hpp</text>
</g>
<!-- Node0&#45;&gt;Node3 -->
<g id="edge3" class="edge"><title>Node0&#45;&gt;Node3</title>
<path fill="none" stroke="midnightblue" d="M440.94,-220.382C486.937,-201.494 601.309,-154.527 655.204,-132.396"/>
<polygon fill="midnightblue" stroke="midnightblue" points="656.613,-135.601 664.534,-128.564 653.954,-129.125 656.613,-135.601"/>
</g>
<!-- Node4 -->
<g id="node5" class="node"><title>Node4</title>
<polygon fill="none" stroke="#bfbfbf" points="333.544,-110.5 333.544,-128.5 416.8,-128.5 416.8,-110.5 333.544,-110.5"/>
<text text-anchor="middle" x="375.172" y="-116.5" font-family="Helvetica,sans-Serif" font-size="10.00">SRE/Mesh.hpp</text>
</g>
<!-- Node0&#45;&gt;Node4 -->
<g id="edge4" class="edge"><title>Node0&#45;&gt;Node4</title>
<path fill="none" stroke="midnightblue" d="M417.715,-220.382C410.289,-202.948 392.673,-161.59 382.593,-137.922"/>
<polygon fill="midnightblue" stroke="midnightblue" points="385.809,-136.54 378.67,-128.712 379.369,-139.284 385.809,-136.54"/>
</g>
<!-- Node5 -->
<g id="node6" class="node"><title>Node5</title>
<g id="a_node6"><a xlink:href="_game_object_8hpp.html" target="_top" xlink:title="GameObject.hpp">
<polygon fill="none" stroke="black" points="415.375,-165.5 415.375,-183.5 506.97,-183.5 506.97,-165.5 415.375,-165.5"/>
<text text-anchor="middle" x="461.172" y="-171.5" font-family="Helvetica,sans-Serif" font-size="10.00">GameObject.hpp</text>
</a>
</g>
</g>
<!-- Node0&#45;&gt;Node5 -->
<g id="edge5" class="edge"><title>Node0&#45;&gt;Node5</title>
<path fill="none" stroke="midnightblue" d="M427.422,-220.219C433.15,-212.629 441.795,-201.175 448.901,-191.76"/>
<polygon fill="midnightblue" stroke="midnightblue" points="451.867,-193.64 455.097,-183.55 446.279,-189.423 451.867,-193.64"/>
</g>
<!-- Node8 -->
<g id="node9" class="node"><title>Node8</title>
<g id="a_node9"><a xlink:href="_rigidbody_8hpp.html" target="_top" xlink:title="Rigidbody.hpp">
<polygon fill="none" stroke="black" points="644.573,-165.5 644.573,-183.5 723.771,-183.5 723.771,-165.5 644.573,-165.5"/>
<text text-anchor="middle" x="684.172" y="-171.5" font-family="Helvetica,sans-Serif" font-size="10.00">Rigidbody.hpp</text>
</a>
</g>
</g>
<!-- Node0&#45;&gt;Node8 -->
<g id="edge13" class="edge"><title>Node0&#45;&gt;Node8</title>
<path fill="none" stroke="midnightblue" d="M461.116,-220.45C507.497,-211.104 584.044,-195.678 634.292,-185.552"/>
<polygon fill="midnightblue" stroke="midnightblue" points="635.173,-188.945 644.284,-183.538 633.79,-182.083 635.173,-188.945"/>
</g>
<!-- Node5&#45;&gt;Node1 -->
<g id="edge8" class="edge"><title>Node5&#45;&gt;Node1</title>
<path fill="none" stroke="midnightblue" d="M470.349,-165.363C478.863,-157.156 490.977,-143.635 496.172,-129 501.364,-114.374 501.149,-96.6332 499.903,-83.6253"/>
<polygon fill="midnightblue" stroke="midnightblue" points="503.365,-83.0993 498.653,-73.6098 496.418,-83.9664 503.365,-83.0993"/>
</g>
<!-- Node5&#45;&gt;Node2 -->
<g id="edge9" class="edge"><title>Node5&#45;&gt;Node2</title>
<path fill="none" stroke="midnightblue" d="M435.809,-165.45C406.333,-156.096 357.669,-140.652 325.764,-130.526"/>
<polygon fill="midnightblue" stroke="midnightblue" points="326.63,-127.129 316.04,-127.44 324.512,-133.801 326.63,-127.129"/>
</g>
<!-- Node5&#45;&gt;Node3 -->
<g id="edge7" class="edge"><title>Node5&#45;&gt;Node3</title>
<path fill="none" stroke="midnightblue" d="M495.041,-165.45C533.957,-156.201 597.92,-140.999 640.537,-130.871"/>
<polygon fill="midnightblue" stroke="midnightblue" points="641.431,-134.256 650.351,-128.538 639.812,-127.446 641.431,-134.256"/>
</g>
<!-- Node5&#45;&gt;Node4 -->
<g id="edge6" class="edge"><title>Node5&#45;&gt;Node4</title>
<path fill="none" stroke="midnightblue" d="M448.111,-165.45C434.599,-157.123 413.256,-143.97 397.142,-134.039"/>
<polygon fill="midnightblue" stroke="midnightblue" points="398.706,-130.892 388.357,-128.625 395.034,-136.851 398.706,-130.892"/>
</g>
<!-- Node6 -->
<g id="node7" class="node"><title>Node6</title>
<g id="a_node7"><a xlink:href="_component_8hpp.html" target="_top" xlink:title="Component.hpp">
<polygon fill="none" stroke="black" points="543.591,-110.5 543.591,-128.5 630.753,-128.5 630.753,-110.5 543.591,-110.5"/>
<text text-anchor="middle" x="587.172" y="-116.5" font-family="Helvetica,sans-Serif" font-size="10.00">Component.hpp</text>
</a>
</g>
</g>
<!-- Node5&#45;&gt;Node6 -->
<g id="edge10" class="edge"><title>Node5&#45;&gt;Node6</title>
<path fill="none" stroke="midnightblue" d="M480.309,-165.45C501.124,-156.695 534.62,-142.606 558.562,-132.535"/>
<polygon fill="midnightblue" stroke="midnightblue" points="559.995,-135.729 567.856,-128.625 557.281,-129.276 559.995,-135.729"/>
</g>
<!-- Node7 -->
<g id="node8" class="node"><title>Node7</title>
<polygon fill="none" stroke="#bfbfbf" points="435.116,-110.5 435.116,-128.5 487.229,-128.5 487.229,-110.5 435.116,-110.5"/>
<text text-anchor="middle" x="461.172" y="-116.5" font-family="Helvetica,sans-Serif" font-size="10.00">memory</text>
</g>
<!-- Node5&#45;&gt;Node7 -->
<g id="edge12" class="edge"><title>Node5&#45;&gt;Node7</title>
<path fill="none" stroke="midnightblue" d="M461.172,-165.219C461.172,-158.177 461.172,-147.808 461.172,-138.828"/>
<polygon fill="midnightblue" stroke="midnightblue" points="464.672,-138.55 461.172,-128.55 457.672,-138.55 464.672,-138.55"/>
</g>
<!-- Node6&#45;&gt;Node1 -->
<g id="edge11" class="edge"><title>Node6&#45;&gt;Node1</title>
<path fill="none" stroke="midnightblue" d="M573.503,-110.45C559.23,-102.045 536.61,-88.7241 519.692,-78.7618"/>
<polygon fill="midnightblue" stroke="midnightblue" points="521.363,-75.6838 510.97,-73.6253 517.811,-81.7157 521.363,-75.6838"/>
</g>
<!-- Node8&#45;&gt;Node3 -->
<g id="edge32" class="edge"><title>Node8&#45;&gt;Node3</title>
<path fill="none" stroke="midnightblue" d="M684.172,-165.219C684.172,-158.177 684.172,-147.808 684.172,-138.828"/>
<polygon fill="midnightblue" stroke="midnightblue" points="687.672,-138.55 684.172,-128.55 680.672,-138.55 687.672,-138.55"/>
</g>
<!-- Node8&#45;&gt;Node6 -->
<g id="edge14" class="edge"><title>Node8&#45;&gt;Node6</title>
<path fill="none" stroke="midnightblue" d="M669.44,-165.45C653.915,-156.968 629.225,-143.477 610.939,-133.486"/>
<polygon fill="midnightblue" stroke="midnightblue" points="612.497,-130.349 602.043,-128.625 609.141,-136.492 612.497,-130.349"/>
</g>
<!-- Node9 -->
<g id="node10" class="node"><title>Node9</title>
<polygon fill="none" stroke="#bfbfbf" points="894.599,-0.5 894.599,-18.5 981.746,-18.5 981.746,-0.5 894.599,-0.5"/>
<text text-anchor="middle" x="938.172" y="-6.5" font-family="Helvetica,sans-Serif" font-size="10.00">Box2D/Box2D.h</text>
</g>
<!-- Node8&#45;&gt;Node9 -->
<g id="edge15" class="edge"><title>Node8&#45;&gt;Node9</title>
<path fill="none" stroke="midnightblue" d="M724.074,-170.933C760.97,-166.856 815.871,-156.304 855.172,-129 892.701,-102.927 918.809,-54.0631 930.774,-27.9707"/>
<polygon fill="midnightblue" stroke="midnightblue" points="934.073,-29.1638 934.907,-18.6018 927.668,-26.3383 934.073,-29.1638"/>
</g>
<!-- Node10 -->
<g id="node11" class="node"><title>Node10</title>
<g id="a_node11"><a xlink:href="_physics_manager_8hpp.html" target="_top" xlink:title="PhysicsManager.hpp">
<polygon fill="none" stroke="black" points="737.754,-110.5 737.754,-128.5 846.591,-128.5 846.591,-110.5 737.754,-110.5"/>
<text text-anchor="middle" x="792.172" y="-116.5" font-family="Helvetica,sans-Serif" font-size="10.00">PhysicsManager.hpp</text>
</a>
</g>
</g>
<!-- Node8&#45;&gt;Node10 -->
<g id="edge16" class="edge"><title>Node8&#45;&gt;Node10</title>
<path fill="none" stroke="midnightblue" d="M700.575,-165.45C718.099,-156.851 746.11,-143.105 766.547,-133.075"/>
<polygon fill="midnightblue" stroke="midnightblue" points="768.18,-136.173 775.615,-128.625 765.096,-129.889 768.18,-136.173"/>
</g>
<!-- Node10&#45;&gt;Node9 -->
<g id="edge20" class="edge"><title>Node10&#45;&gt;Node9</title>
<path fill="none" stroke="midnightblue" d="M803.146,-110.382C827.772,-92.1658 887.705,-47.8322 918.776,-24.8483"/>
<polygon fill="midnightblue" stroke="midnightblue" points="921.113,-27.4726 927.071,-18.7118 916.95,-21.845 921.113,-27.4726"/>
</g>
<!-- Node11 -->
<g id="node12" class="node"><title>Node11</title>
<polygon fill="none" stroke="#bfbfbf" points="769.441,-0.5 769.441,-18.5 814.904,-18.5 814.904,-0.5 769.441,-0.5"/>
<text text-anchor="middle" x="792.172" y="-6.5" font-family="Helvetica,sans-Serif" font-size="10.00">stdio.h</text>
</g>
<!-- Node10&#45;&gt;Node11 -->
<g id="edge17" class="edge"><title>Node10&#45;&gt;Node11</title>
<path fill="none" stroke="midnightblue" d="M792.172,-110.382C792.172,-93.1822 792.172,-52.698 792.172,-28.8866"/>
<polygon fill="midnightblue" stroke="midnightblue" points="795.672,-28.7117 792.172,-18.7118 788.672,-28.7118 795.672,-28.7117"/>
</g>
<!-- Node12 -->
<g id="node13" class="node"><title>Node12</title>
<polygon fill="none" stroke="#bfbfbf" points="833.276,-0.5 833.276,-18.5 877.069,-18.5 877.069,-0.5 833.276,-0.5"/>
<text text-anchor="middle" x="855.172" y="-6.5" font-family="Helvetica,sans-Serif" font-size="10.00">SDL.h</text>
</g>
<!-- Node10&#45;&gt;Node12 -->
<g id="edge18" class="edge"><title>Node10&#45;&gt;Node12</title>
<path fill="none" stroke="midnightblue" d="M796.908,-110.382C807.124,-92.8695 831.42,-51.2181 845.195,-27.6045"/>
<polygon fill="midnightblue" stroke="midnightblue" points="848.367,-29.1131 850.382,-18.7118 842.32,-25.586 848.367,-29.1131"/>
</g>
<!-- Node13 -->
<g id="node14" class="node"><title>Node13</title>
<polygon fill="none" stroke="#bfbfbf" points="0,-0.5 0,-18.5 54.3447,-18.5 54.3447,-0.5 0,-0.5"/>
<text text-anchor="middle" x="27.1724" y="-6.5" font-family="Helvetica,sans-Serif" font-size="10.00">iostream</text>
</g>
<!-- Node10&#45;&gt;Node13 -->
<g id="edge19" class="edge"><title>Node10&#45;&gt;Node13</title>
<path fill="none" stroke="midnightblue" d="M742.753,-110.465C685.99,-100.954 596.528,-85.0175 564.172,-74 546.298,-67.9135 544.367,-60.0494 526.172,-55 330.915,-0.812385 269.728,-48.5508 64.7521,-18.7934"/>
<polygon fill="midnightblue" stroke="midnightblue" points="64.9724,-15.2874 54.5643,-17.2682 63.9359,-22.2103 64.9724,-15.2874"/>
</g>
<!-- Node14 -->
<g id="node15" class="node"><title>Node14</title>
<g id="a_node15"><a xlink:href="_foo_draw2_8hpp.html" target="_top" xlink:title="FooDraw2.hpp">
<polygon fill="none" stroke="black" points="573.377,-55.5 573.377,-73.5 654.968,-73.5 654.968,-55.5 573.377,-55.5"/>
<text text-anchor="middle" x="614.172" y="-61.5" font-family="Helvetica,sans-Serif" font-size="10.00">FooDraw2.hpp</text>
</a>
</g>
</g>
<!-- Node10&#45;&gt;Node14 -->
<g id="edge21" class="edge"><title>Node10&#45;&gt;Node14</title>
<path fill="none" stroke="midnightblue" d="M765.138,-110.45C734.73,-101.396 685.165,-86.6382 651.178,-76.5185"/>
<polygon fill="midnightblue" stroke="midnightblue" points="651.752,-73.0376 641.169,-73.5383 649.754,-79.7466 651.752,-73.0376"/>
</g>
<!-- Node14&#45;&gt;Node9 -->
<g id="edge31" class="edge"><title>Node14&#45;&gt;Node9</title>
<path fill="none" stroke="midnightblue" d="M655.207,-56.7875C713.395,-47.2691 819.958,-29.8375 884.403,-19.2955"/>
<polygon fill="midnightblue" stroke="midnightblue" points="885.067,-22.7336 894.371,-17.665 883.937,-15.8254 885.067,-22.7336"/>
</g>
<!-- Node14&#45;&gt;Node11 -->
<g id="edge22" class="edge"><title>Node14&#45;&gt;Node11</title>
<path fill="none" stroke="midnightblue" d="M641.207,-55.4504C672.936,-46.0028 725.526,-30.344 759.509,-20.2257"/>
<polygon fill="midnightblue" stroke="midnightblue" points="760.828,-23.4847 769.414,-17.2764 758.831,-16.7758 760.828,-23.4847"/>
</g>
<!-- Node14&#45;&gt;Node12 -->
<g id="edge24" class="edge"><title>Node14&#45;&gt;Node12</title>
<path fill="none" stroke="midnightblue" d="M654.983,-55.5913C695.343,-47.6056 759.079,-34.5556 823.306,-19.0962"/>
<polygon fill="midnightblue" stroke="midnightblue" points="824.305,-22.4555 833.198,-16.6967 822.655,-15.6527 824.305,-22.4555"/>
</g>
<!-- Node14&#45;&gt;Node13 -->
<g id="edge28" class="edge"><title>Node14&#45;&gt;Node13</title>
<path fill="none" stroke="midnightblue" d="M573.374,-56.8198C568.594,-56.1484 563.781,-55.5228 559.172,-55 343.208,-30.4991 284.028,-51.1655 64.4616,-18.7647"/>
<polygon fill="midnightblue" stroke="midnightblue" points="64.9696,-15.3019 54.5619,-17.2842 63.9342,-22.2249 64.9696,-15.3019"/>
</g>
<!-- Node15 -->
<g id="node16" class="node"><title>Node15</title>
<polygon fill="none" stroke="#bfbfbf" points="280.921,-0.5 280.921,-18.5 371.423,-18.5 371.423,-0.5 280.921,-0.5"/>
<text text-anchor="middle" x="326.172" y="-6.5" font-family="Helvetica,sans-Serif" font-size="10.00">SRE/Shader.hpp</text>
</g>
<!-- Node14&#45;&gt;Node15 -->
<g id="edge23" class="edge"><title>Node14&#45;&gt;Node15</title>
<path fill="none" stroke="midnightblue" d="M573.215,-55.9627C522.485,-46.6269 435.924,-30.6973 379.905,-20.3883"/>
<polygon fill="midnightblue" stroke="midnightblue" points="380.285,-16.8994 369.816,-18.5317 379.018,-23.7838 380.285,-16.8994"/>
</g>
<!-- Node16 -->
<g id="node17" class="node"><title>Node16</title>
<polygon fill="none" stroke="#bfbfbf" points="389.429,-0.5 389.429,-18.5 534.916,-18.5 534.916,-0.5 389.429,-0.5"/>
<text text-anchor="middle" x="462.172" y="-6.5" font-family="Helvetica,sans-Serif" font-size="10.00">glm/gtc/matrix_transform.hpp</text>
</g>
<!-- Node14&#45;&gt;Node16 -->
<g id="edge25" class="edge"><title>Node14&#45;&gt;Node16</title>
<path fill="none" stroke="midnightblue" d="M591.087,-55.4504C565.531,-46.5395 524.128,-32.1029 495.157,-22.0014"/>
<polygon fill="midnightblue" stroke="midnightblue" points="496.07,-18.613 485.475,-18.6253 493.765,-25.2227 496.07,-18.613"/>
</g>
<!-- Node17 -->
<g id="node18" class="node"><title>Node17</title>
<polygon fill="none" stroke="#bfbfbf" points="553.037,-0.5 553.037,-18.5 641.308,-18.5 641.308,-0.5 553.037,-0.5"/>
<text text-anchor="middle" x="597.172" y="-6.5" font-family="Helvetica,sans-Serif" font-size="10.00">SRE/Debug.hpp</text>
</g>
<!-- Node14&#45;&gt;Node17 -->
<g id="edge26" class="edge"><title>Node14&#45;&gt;Node17</title>
<path fill="none" stroke="midnightblue" d="M611.516,-55.2188C609.207,-48.0204 605.783,-37.3458 602.86,-28.2311"/>
<polygon fill="midnightblue" stroke="midnightblue" points="606.141,-27.0027 599.754,-18.5496 599.476,-29.1407 606.141,-27.0027"/>
</g>
<!-- Node18 -->
<g id="node19" class="node"><title>Node18</title>
<polygon fill="none" stroke="#bfbfbf" points="659.375,-0.5 659.375,-18.5 750.97,-18.5 750.97,-0.5 659.375,-0.5"/>
<text text-anchor="middle" x="705.172" y="-6.5" font-family="Helvetica,sans-Serif" font-size="10.00">SRE/Texture.hpp</text>
</g>
<!-- Node14&#45;&gt;Node18 -->
<g id="edge27" class="edge"><title>Node14&#45;&gt;Node18</title>
<path fill="none" stroke="midnightblue" d="M627.993,-55.4504C642.425,-47.0453 665.297,-33.7241 682.402,-23.7618"/>
<polygon fill="midnightblue" stroke="midnightblue" points="684.342,-26.6826 691.221,-18.6253 680.819,-20.6337 684.342,-26.6826"/>
</g>
<!-- Node19 -->
<g id="node20" class="node"><title>Node19</title>
<polygon fill="none" stroke="#bfbfbf" points="72.7515,-0.5 72.7515,-18.5 201.593,-18.5 201.593,-0.5 72.7515,-0.5"/>
<text text-anchor="middle" x="137.172" y="-6.5" font-family="Helvetica,sans-Serif" font-size="10.00">glm/gtx/closest_point.hpp</text>
</g>
<!-- Node14&#45;&gt;Node19 -->
<g id="edge29" class="edge"><title>Node14&#45;&gt;Node19</title>
<path fill="none" stroke="midnightblue" d="M573.358,-56.9574C568.581,-56.2613 563.772,-55.5923 559.172,-55 407.838,-35.5134 366.919,-35.9874 212.024,-19.1866"/>
<polygon fill="midnightblue" stroke="midnightblue" points="211.975,-15.6605 201.654,-18.0546 211.215,-22.6192 211.975,-15.6605"/>
</g>
<!-- Node20 -->
<g id="node21" class="node"><title>Node20</title>
<polygon fill="none" stroke="#bfbfbf" points="219.557,-0.5 219.557,-18.5 262.788,-18.5 262.788,-0.5 219.557,-0.5"/>
<text text-anchor="middle" x="241.172" y="-6.5" font-family="Helvetica,sans-Serif" font-size="10.00">time.h</text>
</g>
<!-- Node14&#45;&gt;Node20 -->
<g id="edge30" class="edge"><title>Node14&#45;&gt;Node20</title>
<path fill="none" stroke="midnightblue" d="M573.344,-57.0575C568.57,-56.3434 563.765,-55.6428 559.172,-55 435.091,-37.6334 400.028,-43.7276 273.198,-18.9296"/>
<polygon fill="midnightblue" stroke="midnightblue" points="273.585,-15.4383 263.095,-16.9276 272.224,-22.3048 273.585,-15.4383"/>
</g>
</g>
</svg>
