<?xml version="1.0" encoding="UTF-8" standalone="no"?>
<!DOCTYPE svg PUBLIC "-//W3C//DTD SVG 1.1//EN"
 "http://www.w3.org/Graphics/SVG/1.1/DTD/svg11.dtd">
<!-- Generated by graphviz version 2.38.0 (20140413.2041)
 -->
<!-- Title: to_vec4 Pages: 1 -->
<svg width="351pt" height="27pt"
 viewBox="0.00 0.00 351.47 27.00" xmlns="http://www.w3.org/2000/svg" xmlns:xlink="http://www.w3.org/1999/xlink">
<g id="graph0" class="graph" transform="scale(1 1) rotate(0) translate(4 23)">
<title>to_vec4</title>
<!-- Node7 -->
<g id="node1" class="node"><title>Node7</title>
<polygon fill="#bfbfbf" stroke="black" points="0,-0.5 0,-18.5 51.0244,-18.5 51.0244,-0.5 0,-0.5"/>
<text text-anchor="middle" x="25.5122" y="-6.5" font-family="Helvetica,sans-Serif" font-size="10.00">to_vec4</text>
</g>
<!-- Node8 -->
<g id="node2" class="node"><title>Node8</title>
<g id="a_node2"><a xlink:href="class_scene_parser.html#a3f69f475dee046264762e618e70b78e6" target="_top" xlink:title="SceneParser::parseFile">
<polygon fill="none" stroke="black" points="87.0244,-0.5 87.0244,-18.5 207.517,-18.5 207.517,-0.5 87.0244,-0.5"/>
<text text-anchor="middle" x="147.271" y="-6.5" font-family="Helvetica,sans-Serif" font-size="10.00">SceneParser::parseFile</text>
</a>
</g>
</g>
<!-- Node7&#45;&gt;Node8 -->
<g id="edge1" class="edge"><title>Node7&#45;&gt;Node8</title>
<path fill="none" stroke="midnightblue" d="M61.0982,-9.5C69.1259,-9.5 77.8968,-9.5 86.66,-9.5"/>
<polygon fill="midnightblue" stroke="midnightblue" points="61.0361,-6.0001 51.0361,-9.5 61.036,-13.0001 61.0361,-6.0001"/>
</g>
<!-- Node9 -->
<g id="node3" class="node"><title>Node9</title>
<g id="a_node3"><a xlink:href="class_engine.html#a7acc08d07a4abd266a81b1be981b6c47" target="_top" xlink:title="Engine::loadScene">
<polygon fill="none" stroke="black" points="243.517,-0.5 243.517,-18.5 343.472,-18.5 343.472,-0.5 243.517,-0.5"/>
<text text-anchor="middle" x="293.494" y="-6.5" font-family="Helvetica,sans-Serif" font-size="10.00">Engine::loadScene</text>
</a>
</g>
</g>
<!-- Node8&#45;&gt;Node9 -->
<g id="edge2" class="edge"><title>Node8&#45;&gt;Node9</title>
<path fill="none" stroke="midnightblue" d="M217.797,-9.5C226.387,-9.5 235.026,-9.5 243.226,-9.5"/>
<polygon fill="midnightblue" stroke="midnightblue" points="217.764,-6.0001 207.764,-9.5 217.764,-13.0001 217.764,-6.0001"/>
</g>
</g>
</svg>
