<?xml version="1.0" encoding="UTF-8" standalone="no"?>
<!DOCTYPE svg PUBLIC "-//W3C//DTD SVG 1.1//EN"
 "http://www.w3.org/Graphics/SVG/1.1/DTD/svg11.dtd">
<!-- Generated by graphviz version 2.38.0 (20140413.2041)
 -->
<!-- Title: Scriptable.hpp Pages: 1 -->
<svg width="588pt" height="137pt"
 viewBox="0.00 0.00 587.81 137.00" xmlns="http://www.w3.org/2000/svg" xmlns:xlink="http://www.w3.org/1999/xlink">
<g id="graph0" class="graph" transform="scale(1 1) rotate(0) translate(4 133)">
<title>Scriptable.hpp</title>
<!-- Node3 -->
<g id="node1" class="node"><title>Node3</title>
<polygon fill="#bfbfbf" stroke="black" points="197.163,-110.5 197.163,-128.5 277.093,-128.5 277.093,-110.5 197.163,-110.5"/>
<text text-anchor="middle" x="237.128" y="-116.5" font-family="Helvetica,sans-Serif" font-size="10.00">Scriptable.hpp</text>
</g>
<!-- Node4 -->
<g id="node2" class="node"><title>Node4</title>
<g id="a_node2"><a xlink:href="_collider_8cpp.html" target="_top" xlink:title="Collider.cpp">
<polygon fill="none" stroke="black" points="0,-55.5 0,-73.5 68.2559,-73.5 68.2559,-55.5 0,-55.5"/>
<text text-anchor="middle" x="34.1279" y="-61.5" font-family="Helvetica,sans-Serif" font-size="10.00">Collider.cpp</text>
</a>
</g>
</g>
<!-- Node3&#45;&gt;Node4 -->
<g id="edge1" class="edge"><title>Node3&#45;&gt;Node4</title>
<path fill="none" stroke="midnightblue" d="M196.372,-107.859C157.567,-97.728 100.025,-82.7046 64.9162,-73.5383"/>
<polygon fill="midnightblue" stroke="midnightblue" points="195.737,-111.311 206.297,-110.45 197.505,-104.538 195.737,-111.311"/>
</g>
<!-- Node5 -->
<g id="node3" class="node"><title>Node5</title>
<g id="a_node3"><a xlink:href="_engine_8cpp.html" target="_top" xlink:title="Engine.cpp">
<polygon fill="none" stroke="black" points="41.1084,-0.5 41.1084,-18.5 107.147,-18.5 107.147,-0.5 41.1084,-0.5"/>
<text text-anchor="middle" x="74.1279" y="-6.5" font-family="Helvetica,sans-Serif" font-size="10.00">Engine.cpp</text>
</a>
</g>
</g>
<!-- Node3&#45;&gt;Node5 -->
<g id="edge2" class="edge"><title>Node3&#45;&gt;Node5</title>
<path fill="none" stroke="midnightblue" d="M187.196,-108.137C163.524,-101.37 135.943,-90.6134 115.128,-74 96.0513,-58.7739 83.0518,-32.152 77.369,-18.7316"/>
<polygon fill="midnightblue" stroke="midnightblue" points="186.504,-111.575 197.07,-110.799 188.326,-104.817 186.504,-111.575"/>
</g>
<!-- Node6 -->
<g id="node4" class="node"><title>Node6</title>
<g id="a_node4"><a xlink:href="_particle_system_8hpp.html" target="_top" xlink:title="ParticleSystem.hpp">
<polygon fill="none" stroke="black" points="124.054,-55.5 124.054,-73.5 226.202,-73.5 226.202,-55.5 124.054,-55.5"/>
<text text-anchor="middle" x="175.128" y="-61.5" font-family="Helvetica,sans-Serif" font-size="10.00">ParticleSystem.hpp</text>
</a>
</g>
</g>
<!-- Node3&#45;&gt;Node6 -->
<g id="edge3" class="edge"><title>Node3&#45;&gt;Node6</title>
<path fill="none" stroke="midnightblue" d="M220.079,-103.926C208.657,-94.1622 194.043,-81.6693 184.633,-73.6253"/>
<polygon fill="midnightblue" stroke="midnightblue" points="217.836,-106.613 227.711,-110.45 222.384,-101.292 217.836,-106.613"/>
</g>
<!-- Node9 -->
<g id="node7" class="node"><title>Node9</title>
<g id="a_node7"><a xlink:href="_particle_controller_8hpp.html" target="_top" xlink:title="ParticleController.hpp">
<polygon fill="none" stroke="black" points="244.323,-55.5 244.323,-73.5 355.933,-73.5 355.933,-55.5 244.323,-55.5"/>
<text text-anchor="middle" x="300.128" y="-61.5" font-family="Helvetica,sans-Serif" font-size="10.00">ParticleController.hpp</text>
</a>
</g>
</g>
<!-- Node3&#45;&gt;Node9 -->
<g id="edge7" class="edge"><title>Node3&#45;&gt;Node9</title>
<path fill="none" stroke="midnightblue" d="M254.452,-103.926C266.058,-94.1622 280.908,-81.6693 290.47,-73.6253"/>
<polygon fill="midnightblue" stroke="midnightblue" points="252.095,-101.334 246.696,-110.45 256.602,-106.691 252.095,-101.334"/>
</g>
<!-- Node10 -->
<g id="node8" class="node"><title>Node10</title>
<g id="a_node8"><a xlink:href="_physics_manager_8cpp.html" target="_top" xlink:title="PhysicsManager.cpp">
<polygon fill="none" stroke="black" points="373.99,-55.5 373.99,-73.5 482.266,-73.5 482.266,-55.5 373.99,-55.5"/>
<text text-anchor="middle" x="428.128" y="-61.5" font-family="Helvetica,sans-Serif" font-size="10.00">PhysicsManager.cpp</text>
</a>
</g>
</g>
<!-- Node3&#45;&gt;Node10 -->
<g id="edge9" class="edge"><title>Node3&#45;&gt;Node10</title>
<path fill="none" stroke="midnightblue" d="M275.942,-107.73C312.446,-97.6003 366.267,-82.6655 399.16,-73.5383"/>
<polygon fill="midnightblue" stroke="midnightblue" points="274.837,-104.404 266.137,-110.45 276.708,-111.149 274.837,-104.404"/>
</g>
<!-- Node11 -->
<g id="node9" class="node"><title>Node11</title>
<g id="a_node9"><a xlink:href="_scriptable_8cpp.html" target="_top" xlink:title="Scriptable.cpp">
<polygon fill="none" stroke="black" points="500.443,-55.5 500.443,-73.5 579.812,-73.5 579.812,-55.5 500.443,-55.5"/>
<text text-anchor="middle" x="540.128" y="-61.5" font-family="Helvetica,sans-Serif" font-size="10.00">Scriptable.cpp</text>
</a>
</g>
</g>
<!-- Node3&#45;&gt;Node11 -->
<g id="edge10" class="edge"><title>Node3&#45;&gt;Node11</title>
<path fill="none" stroke="midnightblue" d="M287.319,-109.721C347.012,-99.2793 445.44,-82.0626 500.208,-72.4827"/>
<polygon fill="midnightblue" stroke="midnightblue" points="286.611,-106.291 277.364,-111.462 287.818,-113.187 286.611,-106.291"/>
</g>
<!-- Node6&#45;&gt;Node5 -->
<g id="edge4" class="edge"><title>Node6&#45;&gt;Node5</title>
<path fill="none" stroke="midnightblue" d="M150.812,-50.74C131.787,-40.7567 105.909,-27.177 89.612,-18.6253"/>
<polygon fill="midnightblue" stroke="midnightblue" points="149.307,-53.903 159.788,-55.4504 152.56,-47.7046 149.307,-53.903"/>
</g>
<!-- Node7 -->
<g id="node5" class="node"><title>Node7</title>
<g id="a_node5"><a xlink:href="_particle_controller_8cpp.html" target="_top" xlink:title="ParticleController.cpp">
<polygon fill="none" stroke="black" points="244.604,-0.5 244.604,-18.5 355.652,-18.5 355.652,-0.5 244.604,-0.5"/>
<text text-anchor="middle" x="300.128" y="-6.5" font-family="Helvetica,sans-Serif" font-size="10.00">ParticleController.cpp</text>
</a>
</g>
</g>
<!-- Node6&#45;&gt;Node7 -->
<g id="edge5" class="edge"><title>Node6&#45;&gt;Node7</title>
<path fill="none" stroke="midnightblue" d="M203.623,-51.4181C227.299,-41.3794 260.335,-27.3722 280.964,-18.6253"/>
<polygon fill="midnightblue" stroke="midnightblue" points="201.953,-48.3245 194.113,-55.4504 204.686,-54.7691 201.953,-48.3245"/>
</g>
<!-- Node8 -->
<g id="node6" class="node"><title>Node8</title>
<g id="a_node6"><a xlink:href="_particle_system_8cpp.html" target="_top" xlink:title="ParticleSystem.cpp">
<polygon fill="none" stroke="black" points="125.335,-0.5 125.335,-18.5 226.921,-18.5 226.921,-0.5 125.335,-0.5"/>
<text text-anchor="middle" x="176.128" y="-6.5" font-family="Helvetica,sans-Serif" font-size="10.00">ParticleSystem.cpp</text>
</a>
</g>
</g>
<!-- Node6&#45;&gt;Node8 -->
<g id="edge6" class="edge"><title>Node6&#45;&gt;Node8</title>
<path fill="none" stroke="midnightblue" d="M175.474,-45.1746C175.645,-36.0945 175.843,-25.5949 175.976,-18.5496"/>
<polygon fill="midnightblue" stroke="midnightblue" points="171.974,-45.1545 175.284,-55.2188 178.972,-45.2866 171.974,-45.1545"/>
</g>
<!-- Node9&#45;&gt;Node7 -->
<g id="edge8" class="edge"><title>Node9&#45;&gt;Node7</title>
<path fill="none" stroke="midnightblue" d="M300.128,-45.1746C300.128,-36.0945 300.128,-25.5949 300.128,-18.5496"/>
<polygon fill="midnightblue" stroke="midnightblue" points="296.628,-45.2187 300.128,-55.2188 303.628,-45.2188 296.628,-45.2187"/>
</g>
</g>
</svg>
