<?xml version="1.0" encoding="UTF-8" standalone="no"?>
<!DOCTYPE svg PUBLIC "-//W3C//DTD SVG 1.1//EN"
 "http://www.w3.org/Graphics/SVG/1.1/DTD/svg11.dtd">
<!-- Generated by graphviz version 2.38.0 (20140413.2041)
 -->
<!-- Title: Scriptable.cpp Pages: 1 -->
<svg width="95pt" height="192pt"
 viewBox="0.00 0.00 95.16 192.00" xmlns="http://www.w3.org/2000/svg" xmlns:xlink="http://www.w3.org/1999/xlink">
<g id="graph0" class="graph" transform="scale(1 1) rotate(0) translate(4 188)">
<title>Scriptable.cpp</title>
<!-- Node0 -->
<g id="node1" class="node"><title>Node0</title>
<polygon fill="#bfbfbf" stroke="black" points="3.89648,-165.5 3.89648,-183.5 83.2656,-183.5 83.2656,-165.5 3.89648,-165.5"/>
<text text-anchor="middle" x="43.5811" y="-171.5" font-family="Helvetica,sans-Serif" font-size="10.00">Scriptable.cpp</text>
</g>
<!-- Node1 -->
<g id="node2" class="node"><title>Node1</title>
<g id="a_node2"><a xlink:href="_scriptable_8hpp.html" target="_top" xlink:title="Scriptable.hpp">
<polygon fill="none" stroke="black" points="3.61572,-110.5 3.61572,-128.5 83.5464,-128.5 83.5464,-110.5 3.61572,-110.5"/>
<text text-anchor="middle" x="43.5811" y="-116.5" font-family="Helvetica,sans-Serif" font-size="10.00">Scriptable.hpp</text>
</a>
</g>
</g>
<!-- Node0&#45;&gt;Node1 -->
<g id="edge1" class="edge"><title>Node0&#45;&gt;Node1</title>
<path fill="none" stroke="midnightblue" d="M43.5811,-165.219C43.5811,-158.177 43.5811,-147.808 43.5811,-138.828"/>
<polygon fill="midnightblue" stroke="midnightblue" points="47.0812,-138.55 43.5811,-128.55 40.0812,-138.55 47.0812,-138.55"/>
</g>
<!-- Node2 -->
<g id="node3" class="node"><title>Node2</title>
<g id="a_node3"><a xlink:href="_component_8hpp.html" target="_top" xlink:title="Component.hpp">
<polygon fill="none" stroke="black" points="0,-55.5 0,-73.5 87.1621,-73.5 87.1621,-55.5 0,-55.5"/>
<text text-anchor="middle" x="43.5811" y="-61.5" font-family="Helvetica,sans-Serif" font-size="10.00">Component.hpp</text>
</a>
</g>
</g>
<!-- Node1&#45;&gt;Node2 -->
<g id="edge2" class="edge"><title>Node1&#45;&gt;Node2</title>
<path fill="none" stroke="midnightblue" d="M43.5811,-110.219C43.5811,-103.177 43.5811,-92.8083 43.5811,-83.8277"/>
<polygon fill="midnightblue" stroke="midnightblue" points="47.0812,-83.5495 43.5811,-73.5496 40.0812,-83.5496 47.0812,-83.5495"/>
</g>
<!-- Node3 -->
<g id="node4" class="node"><title>Node3</title>
<polygon fill="none" stroke="#bfbfbf" points="23.3545,-0.5 23.3545,-18.5 63.8076,-18.5 63.8076,-0.5 23.3545,-0.5"/>
<text text-anchor="middle" x="43.5811" y="-6.5" font-family="Helvetica,sans-Serif" font-size="10.00">string</text>
</g>
<!-- Node2&#45;&gt;Node3 -->
<g id="edge3" class="edge"><title>Node2&#45;&gt;Node3</title>
<path fill="none" stroke="midnightblue" d="M43.5811,-55.2188C43.5811,-48.1769 43.5811,-37.8083 43.5811,-28.8277"/>
<polygon fill="midnightblue" stroke="midnightblue" points="47.0812,-28.5495 43.5811,-18.5496 40.0812,-28.5496 47.0812,-28.5495"/>
</g>
</g>
</svg>
