<?xml version="1.0" encoding="UTF-8" standalone="no"?>
<!DOCTYPE svg PUBLIC "-//W3C//DTD SVG 1.1//EN"
 "http://www.w3.org/Graphics/SVG/1.1/DTD/svg11.dtd">
<!-- Generated by graphviz version 2.38.0 (20140413.2041)
 -->
<!-- Title: Scriptable.hpp Pages: 1 -->
<svg width="395pt" height="137pt"
 viewBox="0.00 0.00 394.70 137.00" xmlns="http://www.w3.org/2000/svg" xmlns:xlink="http://www.w3.org/1999/xlink">
<g id="graph0" class="graph" transform="scale(1 1) rotate(0) translate(4 133)">
<title>Scriptable.hpp</title>
<!-- Node3 -->
<g id="node1" class="node"><title>Node3</title>
<polygon fill="#bfbfbf" stroke="black" points="133.054,-110.5 133.054,-128.5 212.985,-128.5 212.985,-110.5 133.054,-110.5"/>
<text text-anchor="middle" x="173.02" y="-116.5" font-family="Helvetica,sans-Serif" font-size="10.00">Scriptable.hpp</text>
</g>
<!-- Node4 -->
<g id="node2" class="node"><title>Node4</title>
<g id="a_node2"><a xlink:href="_engine_8cpp.html" target="_top" xlink:title="Engine.cpp">
<polygon fill="none" stroke="black" points="0,-0.5 0,-18.5 66.0391,-18.5 66.0391,-0.5 0,-0.5"/>
<text text-anchor="middle" x="33.0195" y="-6.5" font-family="Helvetica,sans-Serif" font-size="10.00">Engine.cpp</text>
</a>
</g>
</g>
<!-- Node3&#45;&gt;Node4 -->
<g id="edge1" class="edge"><title>Node3&#45;&gt;Node4</title>
<path fill="none" stroke="midnightblue" d="M122.947,-110.866C98.5471,-104.725 70.5473,-93.7074 52.0195,-74 37.3589,-58.406 33.972,-31.9508 33.216,-18.6491"/>
<polygon fill="midnightblue" stroke="midnightblue" points="122.262,-114.299 132.793,-113.136 123.835,-107.478 122.262,-114.299"/>
</g>
<!-- Node5 -->
<g id="node3" class="node"><title>Node5</title>
<g id="a_node3"><a xlink:href="_particle_system_8hpp.html" target="_top" xlink:title="ParticleSystem.hpp">
<polygon fill="none" stroke="black" points="60.9458,-55.5 60.9458,-73.5 163.093,-73.5 163.093,-55.5 60.9458,-55.5"/>
<text text-anchor="middle" x="112.02" y="-61.5" font-family="Helvetica,sans-Serif" font-size="10.00">ParticleSystem.hpp</text>
</a>
</g>
</g>
<!-- Node3&#45;&gt;Node5 -->
<g id="edge2" class="edge"><title>Node3&#45;&gt;Node5</title>
<path fill="none" stroke="midnightblue" d="M155.917,-103.641C144.729,-93.9201 130.54,-81.5913 121.371,-73.6253"/>
<polygon fill="midnightblue" stroke="midnightblue" points="153.911,-106.534 163.755,-110.45 158.502,-101.25 153.911,-106.534"/>
</g>
<!-- Node7 -->
<g id="node5" class="node"><title>Node7</title>
<g id="a_node5"><a xlink:href="_physics_manager_8cpp.html" target="_top" xlink:title="PhysicsManager.cpp">
<polygon fill="none" stroke="black" points="180.882,-55.5 180.882,-73.5 289.157,-73.5 289.157,-55.5 180.882,-55.5"/>
<text text-anchor="middle" x="235.02" y="-61.5" font-family="Helvetica,sans-Serif" font-size="10.00">PhysicsManager.cpp</text>
</a>
</g>
</g>
<!-- Node3&#45;&gt;Node7 -->
<g id="edge5" class="edge"><title>Node3&#45;&gt;Node7</title>
<path fill="none" stroke="midnightblue" d="M190.068,-103.926C201.49,-94.1622 216.104,-81.6693 225.514,-73.6253"/>
<polygon fill="midnightblue" stroke="midnightblue" points="187.763,-101.292 182.436,-110.45 192.311,-106.613 187.763,-101.292"/>
</g>
<!-- Node8 -->
<g id="node6" class="node"><title>Node8</title>
<g id="a_node6"><a xlink:href="_scriptable_8cpp.html" target="_top" xlink:title="Scriptable.cpp">
<polygon fill="none" stroke="black" points="307.335,-55.5 307.335,-73.5 386.704,-73.5 386.704,-55.5 307.335,-55.5"/>
<text text-anchor="middle" x="347.02" y="-61.5" font-family="Helvetica,sans-Serif" font-size="10.00">Scriptable.cpp</text>
</a>
</g>
</g>
<!-- Node3&#45;&gt;Node8 -->
<g id="edge6" class="edge"><title>Node3&#45;&gt;Node8</title>
<path fill="none" stroke="midnightblue" d="M209.235,-107.469C242.47,-97.3454 290.921,-82.5875 320.63,-73.5383"/>
<polygon fill="midnightblue" stroke="midnightblue" points="207.993,-104.188 199.446,-110.45 210.032,-110.885 207.993,-104.188"/>
</g>
<!-- Node5&#45;&gt;Node4 -->
<g id="edge3" class="edge"><title>Node5&#45;&gt;Node4</title>
<path fill="none" stroke="midnightblue" d="M91.557,-49.7719C76.8329,-39.8937 57.4702,-26.9036 45.1308,-18.6253"/>
<polygon fill="midnightblue" stroke="midnightblue" points="89.7669,-52.7857 100.021,-55.4504 93.6668,-46.9727 89.7669,-52.7857"/>
</g>
<!-- Node6 -->
<g id="node4" class="node"><title>Node6</title>
<g id="a_node4"><a xlink:href="_particle_system_8cpp.html" target="_top" xlink:title="ParticleSystem.cpp">
<polygon fill="none" stroke="black" points="84.2266,-0.5 84.2266,-18.5 185.812,-18.5 185.812,-0.5 84.2266,-0.5"/>
<text text-anchor="middle" x="135.02" y="-6.5" font-family="Helvetica,sans-Serif" font-size="10.00">ParticleSystem.cpp</text>
</a>
</g>
</g>
<!-- Node5&#45;&gt;Node6 -->
<g id="edge4" class="edge"><title>Node5&#45;&gt;Node6</title>
<path fill="none" stroke="midnightblue" d="M119.713,-45.7712C123.711,-36.5577 128.402,-25.7498 131.526,-18.5496"/>
<polygon fill="midnightblue" stroke="midnightblue" points="116.384,-44.6519 115.613,-55.2188 122.805,-47.4386 116.384,-44.6519"/>
</g>
</g>
</svg>
