<?xml version="1.0" encoding="UTF-8" standalone="no"?>
<!DOCTYPE svg PUBLIC "-//W3C//DTD SVG 1.1//EN"
 "http://www.w3.org/Graphics/SVG/1.1/DTD/svg11.dtd">
<!-- Generated by graphviz version 2.38.0 (20140413.2041)
 -->
<!-- Title: Sprite.hpp Pages: 1 -->
<svg width="374pt" height="192pt"
 viewBox="0.00 0.00 373.65 192.00" xmlns="http://www.w3.org/2000/svg" xmlns:xlink="http://www.w3.org/1999/xlink">
<g id="graph0" class="graph" transform="scale(1 1) rotate(0) translate(4 188)">
<title>Sprite.hpp</title>
<!-- Node6 -->
<g id="node1" class="node"><title>Node6</title>
<polygon fill="#bfbfbf" stroke="black" points="203.227,-165.5 203.227,-183.5 264.812,-183.5 264.812,-165.5 203.227,-165.5"/>
<text text-anchor="middle" x="234.02" y="-171.5" font-family="Helvetica,sans-Serif" font-size="10.00">Sprite.hpp</text>
</g>
<!-- Node7 -->
<g id="node2" class="node"><title>Node7</title>
<g id="a_node2"><a xlink:href="_sprite_and_position_8hpp.html" target="_top" xlink:title="SpriteAndPosition.hpp">
<polygon fill="none" stroke="black" points="70.542,-110.5 70.542,-128.5 185.497,-128.5 185.497,-110.5 70.542,-110.5"/>
<text text-anchor="middle" x="128.02" y="-116.5" font-family="Helvetica,sans-Serif" font-size="10.00">SpriteAndPosition.hpp</text>
</a>
</g>
</g>
<!-- Node6&#45;&gt;Node7 -->
<g id="edge1" class="edge"><title>Node6&#45;&gt;Node7</title>
<path fill="none" stroke="midnightblue" d="M208.773,-160.877C188.781,-150.881 161.452,-137.216 144.27,-128.625"/>
<polygon fill="midnightblue" stroke="midnightblue" points="207.411,-164.109 217.92,-165.45 210.541,-157.848 207.411,-164.109"/>
</g>
<!-- Node12 -->
<g id="node7" class="node"><title>Node12</title>
<g id="a_node7"><a xlink:href="_sprite_8cpp.html" target="_top" xlink:title="Sprite.cpp">
<polygon fill="none" stroke="black" points="203.507,-110.5 203.507,-128.5 264.532,-128.5 264.532,-110.5 203.507,-110.5"/>
<text text-anchor="middle" x="234.02" y="-116.5" font-family="Helvetica,sans-Serif" font-size="10.00">Sprite.cpp</text>
</a>
</g>
</g>
<!-- Node6&#45;&gt;Node12 -->
<g id="edge6" class="edge"><title>Node6&#45;&gt;Node12</title>
<path fill="none" stroke="midnightblue" d="M234.02,-155.175C234.02,-146.094 234.02,-135.595 234.02,-128.55"/>
<polygon fill="midnightblue" stroke="midnightblue" points="230.52,-155.219 234.02,-165.219 237.52,-155.219 230.52,-155.219"/>
</g>
<!-- Node13 -->
<g id="node8" class="node"><title>Node13</title>
<g id="a_node8"><a xlink:href="_sprite_atlas_8cpp.html" target="_top" xlink:title="SpriteAtlas.cpp">
<polygon fill="none" stroke="black" points="282.392,-110.5 282.392,-128.5 365.647,-128.5 365.647,-110.5 282.392,-110.5"/>
<text text-anchor="middle" x="324.02" y="-116.5" font-family="Helvetica,sans-Serif" font-size="10.00">SpriteAtlas.cpp</text>
</a>
</g>
</g>
<!-- Node6&#45;&gt;Node13 -->
<g id="edge7" class="edge"><title>Node6&#45;&gt;Node13</title>
<path fill="none" stroke="midnightblue" d="M256.388,-160.328C273.27,-150.386 295.899,-137.06 310.222,-128.625"/>
<polygon fill="midnightblue" stroke="midnightblue" points="254.529,-157.36 247.689,-165.45 258.082,-163.392 254.529,-157.36"/>
</g>
<!-- Node8 -->
<g id="node3" class="node"><title>Node8</title>
<g id="a_node3"><a xlink:href="_engine_8hpp.html" target="_top" xlink:title="Engine.hpp">
<polygon fill="none" stroke="black" points="40.7192,-55.5 40.7192,-73.5 107.32,-73.5 107.32,-55.5 40.7192,-55.5"/>
<text text-anchor="middle" x="74.0195" y="-61.5" font-family="Helvetica,sans-Serif" font-size="10.00">Engine.hpp</text>
</a>
</g>
</g>
<!-- Node7&#45;&gt;Node8 -->
<g id="edge2" class="edge"><title>Node7&#45;&gt;Node8</title>
<path fill="none" stroke="midnightblue" d="M112.339,-103.11C102.491,-93.4438 90.1881,-81.3692 82.221,-73.5496"/>
<polygon fill="midnightblue" stroke="midnightblue" points="109.994,-105.712 119.582,-110.219 114.897,-100.716 109.994,-105.712"/>
</g>
<!-- Node11 -->
<g id="node6" class="node"><title>Node11</title>
<g id="a_node6"><a xlink:href="_sprite_and_position_8cpp.html" target="_top" xlink:title="SpriteAndPosition.cpp">
<polygon fill="none" stroke="black" points="124.823,-55.5 124.823,-73.5 239.216,-73.5 239.216,-55.5 124.823,-55.5"/>
<text text-anchor="middle" x="182.02" y="-61.5" font-family="Helvetica,sans-Serif" font-size="10.00">SpriteAndPosition.cpp</text>
</a>
</g>
</g>
<!-- Node7&#45;&gt;Node11 -->
<g id="edge5" class="edge"><title>Node7&#45;&gt;Node11</title>
<path fill="none" stroke="midnightblue" d="M143.7,-103.11C153.548,-93.4438 165.851,-81.3692 173.818,-73.5496"/>
<polygon fill="midnightblue" stroke="midnightblue" points="141.142,-100.716 136.457,-110.219 146.046,-105.712 141.142,-100.716"/>
</g>
<!-- Node9 -->
<g id="node4" class="node"><title>Node9</title>
<g id="a_node4"><a xlink:href="_engine_8cpp.html" target="_top" xlink:title="Engine.cpp">
<polygon fill="none" stroke="black" points="0,-0.5 0,-18.5 66.0391,-18.5 66.0391,-0.5 0,-0.5"/>
<text text-anchor="middle" x="33.0195" y="-6.5" font-family="Helvetica,sans-Serif" font-size="10.00">Engine.cpp</text>
</a>
</g>
</g>
<!-- Node8&#45;&gt;Node9 -->
<g id="edge3" class="edge"><title>Node8&#45;&gt;Node9</title>
<path fill="none" stroke="midnightblue" d="M61.443,-47.2426C54.0844,-37.7302 45.116,-26.1369 39.2465,-18.5496"/>
<polygon fill="midnightblue" stroke="midnightblue" points="58.7262,-49.4507 67.6133,-55.2188 64.2629,-45.1676 58.7262,-49.4507"/>
</g>
<!-- Node10 -->
<g id="node5" class="node"><title>Node10</title>
<g id="a_node5"><a xlink:href="_scene_8cpp.html" target="_top" xlink:title="Scene.cpp">
<polygon fill="none" stroke="black" points="84.3916,-0.5 84.3916,-18.5 147.647,-18.5 147.647,-0.5 84.3916,-0.5"/>
<text text-anchor="middle" x="116.02" y="-6.5" font-family="Helvetica,sans-Serif" font-size="10.00">Scene.cpp</text>
</a>
</g>
</g>
<!-- Node8&#45;&gt;Node10 -->
<g id="edge4" class="edge"><title>Node8&#45;&gt;Node10</title>
<path fill="none" stroke="midnightblue" d="M86.9028,-47.2426C94.4408,-37.7302 103.628,-26.1369 109.641,-18.5496"/>
<polygon fill="midnightblue" stroke="midnightblue" points="84.0498,-45.2075 80.582,-55.2188 89.536,-49.5551 84.0498,-45.2075"/>
</g>
</g>
</svg>
