<?xml version="1.0" encoding="UTF-8" standalone="no"?>
<!DOCTYPE svg PUBLIC "-//W3C//DTD SVG 1.1//EN"
 "http://www.w3.org/Graphics/SVG/1.1/DTD/svg11.dtd">
<!-- Generated by graphviz version 2.38.0 (20140413.2041)
 -->
<!-- Title: Sprite.cpp Pages: 1 -->
<svg width="806pt" height="137pt"
 viewBox="0.00 0.00 805.98 137.00" xmlns="http://www.w3.org/2000/svg" xmlns:xlink="http://www.w3.org/1999/xlink">
<g id="graph0" class="graph" transform="scale(1 1) rotate(0) translate(4 133)">
<title>Sprite.cpp</title>
<!-- Node0 -->
<g id="node1" class="node"><title>Node0</title>
<polygon fill="#bfbfbf" stroke="black" points="277.722,-110.5 277.722,-128.5 338.746,-128.5 338.746,-110.5 277.722,-110.5"/>
<text text-anchor="middle" x="308.234" y="-116.5" font-family="Helvetica,sans-Serif" font-size="10.00">Sprite.cpp</text>
</g>
<!-- Node1 -->
<g id="node2" class="node"><title>Node1</title>
<g id="a_node2"><a xlink:href="_sprite_8hpp.html" target="_top" xlink:title="Sprite.hpp">
<polygon fill="none" stroke="black" points="180.441,-55.5 180.441,-73.5 242.027,-73.5 242.027,-55.5 180.441,-55.5"/>
<text text-anchor="middle" x="211.234" y="-61.5" font-family="Helvetica,sans-Serif" font-size="10.00">Sprite.hpp</text>
</a>
</g>
</g>
<!-- Node0&#45;&gt;Node1 -->
<g id="edge1" class="edge"><title>Node0&#45;&gt;Node1</title>
<path fill="none" stroke="midnightblue" d="M293.502,-110.45C277.976,-101.968 253.286,-88.477 235.001,-78.486"/>
<polygon fill="midnightblue" stroke="midnightblue" points="236.558,-75.3488 226.105,-73.6253 233.202,-81.4917 236.558,-75.3488"/>
</g>
<!-- Node2 -->
<g id="node3" class="node"><title>Node2</title>
<polygon fill="none" stroke="#bfbfbf" points="0,-0.5 0,-18.5 70.4678,-18.5 70.4678,-0.5 0,-0.5"/>
<text text-anchor="middle" x="35.2339" y="-6.5" font-family="Helvetica,sans-Serif" font-size="10.00">glm/glm.hpp</text>
</g>
<!-- Node0&#45;&gt;Node2 -->
<g id="edge11" class="edge"><title>Node0&#45;&gt;Node2</title>
<path fill="none" stroke="midnightblue" d="M277.544,-112.065C245.19,-104.776 193.074,-91.5856 150.234,-74 115.896,-59.9046 78.7392,-38.0666 56.2255,-24.0275"/>
<polygon fill="midnightblue" stroke="midnightblue" points="57.8485,-20.913 47.5243,-18.5335 54.1113,-26.8319 57.8485,-20.913"/>
</g>
<!-- Node3 -->
<g id="node4" class="node"><title>Node3</title>
<polygon fill="none" stroke="#bfbfbf" points="88.606,-0.5 88.606,-18.5 171.862,-18.5 171.862,-0.5 88.606,-0.5"/>
<text text-anchor="middle" x="130.234" y="-6.5" font-family="Helvetica,sans-Serif" font-size="10.00">SRE/Mesh.hpp</text>
</g>
<!-- Node0&#45;&gt;Node3 -->
<g id="edge10" class="edge"><title>Node0&#45;&gt;Node3</title>
<path fill="none" stroke="midnightblue" d="M277.706,-114.618C247.965,-109.54 202.749,-98.2461 171.234,-74 155.667,-62.0236 144.288,-42.3457 137.521,-28.0654"/>
<polygon fill="midnightblue" stroke="midnightblue" points="140.669,-26.5303 133.415,-18.8085 134.27,-29.3688 140.669,-26.5303"/>
</g>
<!-- Node4 -->
<g id="node5" class="node"><title>Node4</title>
<polygon fill="none" stroke="#bfbfbf" points="250.436,-0.5 250.436,-18.5 342.032,-18.5 342.032,-0.5 250.436,-0.5"/>
<text text-anchor="middle" x="296.234" y="-6.5" font-family="Helvetica,sans-Serif" font-size="10.00">SRE/Texture.hpp</text>
</g>
<!-- Node0&#45;&gt;Node4 -->
<g id="edge14" class="edge"><title>Node0&#45;&gt;Node4</title>
<path fill="none" stroke="midnightblue" d="M304.89,-110.476C301.429,-101.699 296.25,-87.1284 294.234,-74 291.926,-58.9758 292.683,-41.7253 293.873,-28.9995"/>
<polygon fill="midnightblue" stroke="midnightblue" points="297.383,-29.1045 295.013,-18.7782 290.426,-28.3287 297.383,-29.1045"/>
</g>
<!-- Node5 -->
<g id="node6" class="node"><title>Node5</title>
<polygon fill="none" stroke="#bfbfbf" points="359.582,-0.5 359.582,-18.5 512.886,-18.5 512.886,-0.5 359.582,-0.5"/>
<text text-anchor="middle" x="436.234" y="-6.5" font-family="Helvetica,sans-Serif" font-size="10.00">SRE/SimpleRenderEngine.hpp</text>
</g>
<!-- Node0&#45;&gt;Node5 -->
<g id="edge8" class="edge"><title>Node0&#45;&gt;Node5</title>
<path fill="none" stroke="midnightblue" d="M308.492,-110.408C309.338,-97.1889 312.85,-70.8495 327.234,-55 342.108,-38.6105 363.9,-28.1244 384.097,-21.4798"/>
<polygon fill="midnightblue" stroke="midnightblue" points="385.296,-24.7736 393.846,-18.5174 383.261,-18.0759 385.296,-24.7736"/>
</g>
<!-- Node7 -->
<g id="node8" class="node"><title>Node7</title>
<polygon fill="none" stroke="#bfbfbf" points="336.337,-55.5 336.337,-73.5 380.13,-73.5 380.13,-55.5 336.337,-55.5"/>
<text text-anchor="middle" x="358.234" y="-61.5" font-family="Helvetica,sans-Serif" font-size="10.00">SDL.h</text>
</g>
<!-- Node0&#45;&gt;Node7 -->
<g id="edge7" class="edge"><title>Node0&#45;&gt;Node7</title>
<path fill="none" stroke="midnightblue" d="M316.046,-110.219C323.428,-102.394 334.684,-90.4631 343.713,-80.8921"/>
<polygon fill="midnightblue" stroke="midnightblue" points="346.324,-83.2253 350.64,-73.5496 341.232,-78.4217 346.324,-83.2253"/>
</g>
<!-- Node8 -->
<g id="node9" class="node"><title>Node8</title>
<polygon fill="none" stroke="#bfbfbf" points="397.983,-55.5 397.983,-73.5 488.485,-73.5 488.485,-55.5 397.983,-55.5"/>
<text text-anchor="middle" x="443.234" y="-61.5" font-family="Helvetica,sans-Serif" font-size="10.00">SRE/Shader.hpp</text>
</g>
<!-- Node0&#45;&gt;Node8 -->
<g id="edge9" class="edge"><title>Node0&#45;&gt;Node8</title>
<path fill="none" stroke="midnightblue" d="M328.737,-110.45C351.138,-101.656 387.247,-87.4802 412.921,-77.4006"/>
<polygon fill="midnightblue" stroke="midnightblue" points="414.508,-80.5377 422.537,-73.6253 411.95,-74.0218 414.508,-80.5377"/>
</g>
<!-- Node9 -->
<g id="node10" class="node"><title>Node9</title>
<polygon fill="none" stroke="#bfbfbf" points="506.365,-55.5 506.365,-73.5 634.103,-73.5 634.103,-55.5 506.365,-55.5"/>
<text text-anchor="middle" x="570.234" y="-61.5" font-family="Helvetica,sans-Serif" font-size="10.00">glm/gtx/euler_angles.hpp</text>
</g>
<!-- Node0&#45;&gt;Node9 -->
<g id="edge12" class="edge"><title>Node0&#45;&gt;Node9</title>
<path fill="none" stroke="midnightblue" d="M338.801,-112.316C383.439,-103.287 466.959,-86.3914 520.514,-75.5578"/>
<polygon fill="midnightblue" stroke="midnightblue" points="521.37,-78.9557 530.477,-73.5424 519.982,-72.0947 521.37,-78.9557"/>
</g>
<!-- Node10 -->
<g id="node11" class="node"><title>Node10</title>
<polygon fill="none" stroke="#bfbfbf" points="652.49,-55.5 652.49,-73.5 797.978,-73.5 797.978,-55.5 652.49,-55.5"/>
<text text-anchor="middle" x="725.234" y="-61.5" font-family="Helvetica,sans-Serif" font-size="10.00">glm/gtc/matrix_transform.hpp</text>
</g>
<!-- Node0&#45;&gt;Node10 -->
<g id="edge13" class="edge"><title>Node0&#45;&gt;Node10</title>
<path fill="none" stroke="midnightblue" d="M338.897,-114.603C404.343,-106.285 559.268,-86.594 651.824,-74.8302"/>
<polygon fill="midnightblue" stroke="midnightblue" points="652.484,-78.2747 661.963,-73.5417 651.601,-71.3305 652.484,-78.2747"/>
</g>
<!-- Node1&#45;&gt;Node2 -->
<g id="edge2" class="edge"><title>Node1&#45;&gt;Node2</title>
<path fill="none" stroke="midnightblue" d="M184.503,-55.4504C154.437,-46.3965 105.429,-31.6382 71.8237,-21.5185"/>
<polygon fill="midnightblue" stroke="midnightblue" points="72.5116,-18.0705 61.9271,-18.5383 70.4932,-24.7732 72.5116,-18.0705"/>
</g>
<!-- Node1&#45;&gt;Node3 -->
<g id="edge3" class="edge"><title>Node1&#45;&gt;Node3</title>
<path fill="none" stroke="midnightblue" d="M198.932,-55.4504C186.324,-47.201 166.479,-34.2158 151.353,-24.3187"/>
<polygon fill="midnightblue" stroke="midnightblue" points="152.936,-21.1719 142.652,-18.6253 149.103,-27.0294 152.936,-21.1719"/>
</g>
<!-- Node1&#45;&gt;Node4 -->
<g id="edge4" class="edge"><title>Node1&#45;&gt;Node4</title>
<path fill="none" stroke="midnightblue" d="M224.144,-55.4504C237.499,-47.1232 258.593,-33.9704 274.52,-24.0394"/>
<polygon fill="midnightblue" stroke="midnightblue" points="276.569,-26.8863 283.203,-18.6253 272.865,-20.9464 276.569,-26.8863"/>
</g>
<!-- Node1&#45;&gt;Node5 -->
<g id="edge5" class="edge"><title>Node1&#45;&gt;Node5</title>
<path fill="none" stroke="midnightblue" d="M242.047,-56.2417C280.904,-47.0888 347.969,-31.2912 392.218,-20.8682"/>
<polygon fill="midnightblue" stroke="midnightblue" points="393.187,-24.2357 402.119,-18.5361 391.582,-17.4222 393.187,-24.2357"/>
</g>
<!-- Node6 -->
<g id="node7" class="node"><title>Node6</title>
<polygon fill="none" stroke="#bfbfbf" points="190.172,-0.5 190.172,-18.5 232.295,-18.5 232.295,-0.5 190.172,-0.5"/>
<text text-anchor="middle" x="211.234" y="-6.5" font-family="Helvetica,sans-Serif" font-size="10.00">String</text>
</g>
<!-- Node1&#45;&gt;Node6 -->
<g id="edge6" class="edge"><title>Node1&#45;&gt;Node6</title>
<path fill="none" stroke="midnightblue" d="M211.234,-55.2188C211.234,-48.1769 211.234,-37.8083 211.234,-28.8277"/>
<polygon fill="midnightblue" stroke="midnightblue" points="214.734,-28.5495 211.234,-18.5496 207.734,-28.5496 214.734,-28.5495"/>
</g>
</g>
</svg>
