<?xml version="1.0" encoding="UTF-8" standalone="no"?>
<!DOCTYPE svg PUBLIC "-//W3C//DTD SVG 1.1//EN"
 "http://www.w3.org/Graphics/SVG/1.1/DTD/svg11.dtd">
<!-- Generated by graphviz version 2.38.0 (20140413.2041)
 -->
<!-- Title: SpriteAtlas.hpp Pages: 1 -->
<svg width="176pt" height="82pt"
 viewBox="0.00 0.00 175.65 82.00" xmlns="http://www.w3.org/2000/svg" xmlns:xlink="http://www.w3.org/1999/xlink">
<g id="graph0" class="graph" transform="scale(1 1) rotate(0) translate(4 78)">
<title>SpriteAtlas.hpp</title>
<!-- Node6 -->
<g id="node1" class="node"><title>Node6</title>
<polygon fill="#bfbfbf" stroke="black" points="37.1108,-55.5 37.1108,-73.5 120.928,-73.5 120.928,-55.5 37.1108,-55.5"/>
<text text-anchor="middle" x="79.0195" y="-61.5" font-family="Helvetica,sans-Serif" font-size="10.00">SpriteAtlas.hpp</text>
</g>
<!-- Node7 -->
<g id="node2" class="node"><title>Node7</title>
<g id="a_node2"><a xlink:href="_engine_8cpp.html" target="_top" xlink:title="Engine.cpp">
<polygon fill="none" stroke="black" points="0,-0.5 0,-18.5 66.0391,-18.5 66.0391,-0.5 0,-0.5"/>
<text text-anchor="middle" x="33.0195" y="-6.5" font-family="Helvetica,sans-Serif" font-size="10.00">Engine.cpp</text>
</a>
</g>
</g>
<!-- Node6&#45;&gt;Node7 -->
<g id="edge1" class="edge"><title>Node6&#45;&gt;Node7</title>
<path fill="none" stroke="midnightblue" d="M65.1615,-47.5331C56.859,-37.9673 46.6584,-26.2143 40.0059,-18.5496"/>
<polygon fill="midnightblue" stroke="midnightblue" points="62.634,-49.9607 71.832,-55.2188 67.9205,-45.3724 62.634,-49.9607"/>
</g>
<!-- Node8 -->
<g id="node3" class="node"><title>Node8</title>
<g id="a_node3"><a xlink:href="_sprite_atlas_8cpp.html" target="_top" xlink:title="SpriteAtlas.cpp">
<polygon fill="none" stroke="black" points="84.3916,-0.5 84.3916,-18.5 167.647,-18.5 167.647,-0.5 84.3916,-0.5"/>
<text text-anchor="middle" x="126.02" y="-6.5" font-family="Helvetica,sans-Serif" font-size="10.00">SpriteAtlas.cpp</text>
</a>
</g>
</g>
<!-- Node6&#45;&gt;Node8 -->
<g id="edge2" class="edge"><title>Node6&#45;&gt;Node8</title>
<path fill="none" stroke="midnightblue" d="M93.1788,-47.5331C101.662,-37.9673 112.084,-26.2143 118.881,-18.5496"/>
<polygon fill="midnightblue" stroke="midnightblue" points="90.3795,-45.4146 86.3633,-55.2188 95.6169,-50.0591 90.3795,-45.4146"/>
</g>
</g>
</svg>
