<?xml version="1.0" encoding="UTF-8" standalone="no"?>
<!DOCTYPE svg PUBLIC "-//W3C//DTD SVG 1.1//EN"
 "http://www.w3.org/Graphics/SVG/1.1/DTD/svg11.dtd">
<!-- Generated by graphviz version 2.38.0 (20140413.2041)
 -->
<!-- Title: SpriteAtlas.hpp Pages: 1 -->
<svg width="453pt" height="82pt"
 viewBox="0.00 0.00 453.02 82.00" xmlns="http://www.w3.org/2000/svg" xmlns:xlink="http://www.w3.org/1999/xlink">
<g id="graph0" class="graph" transform="scale(1 1) rotate(0) translate(4 78)">
<title>SpriteAtlas.hpp</title>
<!-- Node0 -->
<g id="node1" class="node"><title>Node0</title>
<polygon fill="#bfbfbf" stroke="black" points="96.3179,-55.5 96.3179,-73.5 180.135,-73.5 180.135,-55.5 96.3179,-55.5"/>
<text text-anchor="middle" x="138.227" y="-61.5" font-family="Helvetica,sans-Serif" font-size="10.00">SpriteAtlas.hpp</text>
</g>
<!-- Node1 -->
<g id="node2" class="node"><title>Node1</title>
<polygon fill="none" stroke="#bfbfbf" points="0,-0.5 0,-18.5 40.4531,-18.5 40.4531,-0.5 0,-0.5"/>
<text text-anchor="middle" x="20.2266" y="-6.5" font-family="Helvetica,sans-Serif" font-size="10.00">string</text>
</g>
<!-- Node0&#45;&gt;Node1 -->
<g id="edge1" class="edge"><title>Node0&#45;&gt;Node1</title>
<path fill="none" stroke="midnightblue" d="M120.305,-55.4504C100.985,-46.7729 69.9993,-32.8556 47.6207,-22.8041"/>
<polygon fill="midnightblue" stroke="midnightblue" points="48.873,-19.5298 38.3169,-18.6253 46.005,-25.9153 48.873,-19.5298"/>
</g>
<!-- Node2 -->
<g id="node3" class="node"><title>Node2</title>
<polygon fill="none" stroke="#bfbfbf" points="58.5,-0.5 58.5,-18.5 93.9531,-18.5 93.9531,-0.5 58.5,-0.5"/>
<text text-anchor="middle" x="76.2266" y="-6.5" font-family="Helvetica,sans-Serif" font-size="10.00">map</text>
</g>
<!-- Node0&#45;&gt;Node2 -->
<g id="edge2" class="edge"><title>Node0&#45;&gt;Node2</title>
<path fill="none" stroke="midnightblue" d="M128.81,-55.4504C119.433,-47.4345 104.825,-34.9471 93.3833,-25.1663"/>
<polygon fill="midnightblue" stroke="midnightblue" points="95.6071,-22.4627 85.7316,-18.6253 91.0586,-27.7836 95.6071,-22.4627"/>
</g>
<!-- Node3 -->
<g id="node4" class="node"><title>Node3</title>
<polygon fill="none" stroke="#bfbfbf" points="112.17,-0.5 112.17,-18.5 164.283,-18.5 164.283,-0.5 112.17,-0.5"/>
<text text-anchor="middle" x="138.227" y="-6.5" font-family="Helvetica,sans-Serif" font-size="10.00">memory</text>
</g>
<!-- Node0&#45;&gt;Node3 -->
<g id="edge3" class="edge"><title>Node0&#45;&gt;Node3</title>
<path fill="none" stroke="midnightblue" d="M138.227,-55.2188C138.227,-48.1769 138.227,-37.8083 138.227,-28.8277"/>
<polygon fill="midnightblue" stroke="midnightblue" points="141.727,-28.5495 138.227,-18.5496 134.727,-28.5496 141.727,-28.5495"/>
</g>
<!-- Node4 -->
<g id="node5" class="node"><title>Node4</title>
<polygon fill="none" stroke="#bfbfbf" points="182.574,-0.5 182.574,-18.5 335.879,-18.5 335.879,-0.5 182.574,-0.5"/>
<text text-anchor="middle" x="259.227" y="-6.5" font-family="Helvetica,sans-Serif" font-size="10.00">SRE/SimpleRenderEngine.hpp</text>
</g>
<!-- Node0&#45;&gt;Node4 -->
<g id="edge4" class="edge"><title>Node0&#45;&gt;Node4</title>
<path fill="none" stroke="midnightblue" d="M156.604,-55.4504C176.504,-46.734 208.474,-32.7306 231.444,-22.6691"/>
<polygon fill="midnightblue" stroke="midnightblue" points="232.921,-25.8435 240.676,-18.6253 230.112,-19.4316 232.921,-25.8435"/>
</g>
<!-- Node5 -->
<g id="node6" class="node"><title>Node5</title>
<polygon fill="none" stroke="#bfbfbf" points="353.429,-0.5 353.429,-18.5 445.024,-18.5 445.024,-0.5 353.429,-0.5"/>
<text text-anchor="middle" x="399.227" y="-6.5" font-family="Helvetica,sans-Serif" font-size="10.00">SRE/Texture.hpp</text>
</g>
<!-- Node0&#45;&gt;Node5 -->
<g id="edge5" class="edge"><title>Node0&#45;&gt;Node5</title>
<path fill="none" stroke="midnightblue" d="M177.867,-55.4504C223.895,-46.1038 299.859,-30.678 349.725,-20.552"/>
<polygon fill="midnightblue" stroke="midnightblue" points="350.538,-23.9584 359.642,-18.5383 349.145,-17.0984 350.538,-23.9584"/>
</g>
</g>
</svg>
