<?xml version="1.0" encoding="UTF-8" standalone="no"?>
<!DOCTYPE svg PUBLIC "-//W3C//DTD SVG 1.1//EN"
 "http://www.w3.org/Graphics/SVG/1.1/DTD/svg11.dtd">
<!-- Generated by graphviz version 2.38.0 (20140413.2041)
 -->
<!-- Title: SpriteAtlas.cpp Pages: 1 -->
<svg width="1555pt" height="137pt"
 viewBox="0.00 0.00 1554.68 137.00" xmlns="http://www.w3.org/2000/svg" xmlns:xlink="http://www.w3.org/1999/xlink">
<g id="graph0" class="graph" transform="scale(1 1) rotate(0) translate(4 133)">
<title>SpriteAtlas.cpp</title>
<!-- Node0 -->
<g id="node1" class="node"><title>Node0</title>
<polygon fill="#bfbfbf" stroke="black" points="947.988,-110.5 947.988,-128.5 1031.24,-128.5 1031.24,-110.5 947.988,-110.5"/>
<text text-anchor="middle" x="989.616" y="-116.5" font-family="Helvetica,sans-Serif" font-size="10.00">SpriteAtlas.cpp</text>
</g>
<!-- Node1 -->
<g id="node2" class="node"><title>Node1</title>
<g id="a_node2"><a xlink:href="_sprite_atlas_8hpp.html" target="_top" xlink:title="SpriteAtlas.hpp">
<polygon fill="none" stroke="black" points="947.707,-55.5 947.707,-73.5 1031.52,-73.5 1031.52,-55.5 947.707,-55.5"/>
<text text-anchor="middle" x="989.616" y="-61.5" font-family="Helvetica,sans-Serif" font-size="10.00">SpriteAtlas.hpp</text>
</a>
</g>
</g>
<!-- Node0&#45;&gt;Node1 -->
<g id="edge1" class="edge"><title>Node0&#45;&gt;Node1</title>
<path fill="none" stroke="midnightblue" d="M989.616,-110.219C989.616,-103.177 989.616,-92.8083 989.616,-83.8277"/>
<polygon fill="midnightblue" stroke="midnightblue" points="993.116,-83.5495 989.616,-73.5496 986.116,-83.5496 993.116,-83.5495"/>
</g>
<!-- Node7 -->
<g id="node8" class="node"><title>Node7</title>
<g id="a_node8"><a xlink:href="_sprite_8hpp.html" target="_top" xlink:title="Sprite.hpp">
<polygon fill="none" stroke="black" points="1188.82,-55.5 1188.82,-73.5 1250.41,-73.5 1250.41,-55.5 1188.82,-55.5"/>
<text text-anchor="middle" x="1219.62" y="-61.5" font-family="Helvetica,sans-Serif" font-size="10.00">Sprite.hpp</text>
</a>
</g>
</g>
<!-- Node0&#45;&gt;Node7 -->
<g id="edge7" class="edge"><title>Node0&#45;&gt;Node7</title>
<path fill="none" stroke="midnightblue" d="M1024.55,-110.45C1066.05,-100.886 1135.18,-84.9569 1179.02,-74.8539"/>
<polygon fill="midnightblue" stroke="midnightblue" points="1179.82,-78.261 1188.78,-72.6048 1178.25,-71.4398 1179.82,-78.261"/>
</g>
<!-- Node11 -->
<g id="node12" class="node"><title>Node11</title>
<g id="a_node12"><a xlink:href="picojson_8h.html" target="_top" xlink:title="picojson.h">
<polygon fill="none" stroke="black" points="475.101,-55.5 475.101,-73.5 536.13,-73.5 536.13,-55.5 475.101,-55.5"/>
<text text-anchor="middle" x="505.616" y="-61.5" font-family="Helvetica,sans-Serif" font-size="10.00">picojson.h</text>
</a>
</g>
</g>
<!-- Node0&#45;&gt;Node11 -->
<g id="edge13" class="edge"><title>Node0&#45;&gt;Node11</title>
<path fill="none" stroke="midnightblue" d="M947.931,-113.935C856.176,-103.888 637.665,-79.96 546.579,-69.9856"/>
<polygon fill="midnightblue" stroke="midnightblue" points="546.696,-66.4776 536.374,-68.8682 545.934,-73.436 546.696,-66.4776"/>
</g>
<!-- Node25 -->
<g id="node26" class="node"><title>Node25</title>
<g id="a_node26"><a xlink:href="_utility_8h.html" target="_top" xlink:title="Utility.h">
<polygon fill="none" stroke="black" points="864.593,-55.5 864.593,-73.5 912.639,-73.5 912.639,-55.5 864.593,-55.5"/>
<text text-anchor="middle" x="888.616" y="-61.5" font-family="Helvetica,sans-Serif" font-size="10.00">Utility.h</text>
</a>
</g>
</g>
<!-- Node0&#45;&gt;Node25 -->
<g id="edge29" class="edge"><title>Node0&#45;&gt;Node25</title>
<path fill="none" stroke="midnightblue" d="M974.276,-110.45C958.036,-101.929 932.166,-88.3532 913.101,-78.3487"/>
<polygon fill="midnightblue" stroke="midnightblue" points="914.581,-75.1728 904.1,-73.6253 911.328,-81.3712 914.581,-75.1728"/>
</g>
<!-- Node26 -->
<g id="node27" class="node"><title>Node26</title>
<polygon fill="none" stroke="#bfbfbf" points="1267.95,-55.5 1267.95,-73.5 1317.29,-73.5 1317.29,-55.5 1267.95,-55.5"/>
<text text-anchor="middle" x="1292.62" y="-61.5" font-family="Helvetica,sans-Serif" font-size="10.00">fstream</text>
</g>
<!-- Node0&#45;&gt;Node26 -->
<g id="edge31" class="edge"><title>Node0&#45;&gt;Node26</title>
<path fill="none" stroke="midnightblue" d="M1031.46,-112.78C1082.74,-105.51 1172.45,-91.9548 1257.94,-74.2122"/>
<polygon fill="midnightblue" stroke="midnightblue" points="1258.74,-77.6217 1267.81,-72.1423 1257.3,-70.771 1258.74,-77.6217"/>
</g>
<!-- Node2 -->
<g id="node3" class="node"><title>Node2</title>
<polygon fill="none" stroke="#bfbfbf" points="851.389,-0.5 851.389,-18.5 891.842,-18.5 891.842,-0.5 851.389,-0.5"/>
<text text-anchor="middle" x="871.616" y="-6.5" font-family="Helvetica,sans-Serif" font-size="10.00">string</text>
</g>
<!-- Node1&#45;&gt;Node2 -->
<g id="edge2" class="edge"><title>Node1&#45;&gt;Node2</title>
<path fill="none" stroke="midnightblue" d="M971.694,-55.4504C952.374,-46.7729 921.389,-32.8556 899.01,-22.8041"/>
<polygon fill="midnightblue" stroke="midnightblue" points="900.262,-19.5298 889.706,-18.6253 897.394,-25.9153 900.262,-19.5298"/>
</g>
<!-- Node3 -->
<g id="node4" class="node"><title>Node3</title>
<polygon fill="none" stroke="#bfbfbf" points="909.889,-0.5 909.889,-18.5 945.342,-18.5 945.342,-0.5 909.889,-0.5"/>
<text text-anchor="middle" x="927.616" y="-6.5" font-family="Helvetica,sans-Serif" font-size="10.00">map</text>
</g>
<!-- Node1&#45;&gt;Node3 -->
<g id="edge3" class="edge"><title>Node1&#45;&gt;Node3</title>
<path fill="none" stroke="midnightblue" d="M980.199,-55.4504C970.822,-47.4345 956.214,-34.9471 944.772,-25.1663"/>
<polygon fill="midnightblue" stroke="midnightblue" points="946.996,-22.4627 937.121,-18.6253 942.448,-27.7836 946.996,-22.4627"/>
</g>
<!-- Node4 -->
<g id="node5" class="node"><title>Node4</title>
<polygon fill="none" stroke="#bfbfbf" points="963.559,-0.5 963.559,-18.5 1015.67,-18.5 1015.67,-0.5 963.559,-0.5"/>
<text text-anchor="middle" x="989.616" y="-6.5" font-family="Helvetica,sans-Serif" font-size="10.00">memory</text>
</g>
<!-- Node1&#45;&gt;Node4 -->
<g id="edge4" class="edge"><title>Node1&#45;&gt;Node4</title>
<path fill="none" stroke="midnightblue" d="M989.616,-55.2188C989.616,-48.1769 989.616,-37.8083 989.616,-28.8277"/>
<polygon fill="midnightblue" stroke="midnightblue" points="993.116,-28.5495 989.616,-18.5496 986.116,-28.5496 993.116,-28.5495"/>
</g>
<!-- Node5 -->
<g id="node6" class="node"><title>Node5</title>
<polygon fill="none" stroke="#bfbfbf" points="1142.96,-0.5 1142.96,-18.5 1296.27,-18.5 1296.27,-0.5 1142.96,-0.5"/>
<text text-anchor="middle" x="1219.62" y="-6.5" font-family="Helvetica,sans-Serif" font-size="10.00">SRE/SimpleRenderEngine.hpp</text>
</g>
<!-- Node1&#45;&gt;Node5 -->
<g id="edge5" class="edge"><title>Node1&#45;&gt;Node5</title>
<path fill="none" stroke="midnightblue" d="M1024.55,-55.4504C1064.77,-46.1818 1130.93,-30.9352 1174.89,-20.8068"/>
<polygon fill="midnightblue" stroke="midnightblue" points="1175.77,-24.1945 1184.73,-18.5383 1174.2,-17.3733 1175.77,-24.1945"/>
</g>
<!-- Node6 -->
<g id="node7" class="node"><title>Node6</title>
<polygon fill="none" stroke="#bfbfbf" points="1033.82,-0.5 1033.82,-18.5 1125.41,-18.5 1125.41,-0.5 1033.82,-0.5"/>
<text text-anchor="middle" x="1079.62" y="-6.5" font-family="Helvetica,sans-Serif" font-size="10.00">SRE/Texture.hpp</text>
</g>
<!-- Node1&#45;&gt;Node6 -->
<g id="edge6" class="edge"><title>Node1&#45;&gt;Node6</title>
<path fill="none" stroke="midnightblue" d="M1003.28,-55.4504C1017.56,-47.0453 1040.18,-33.7241 1057.1,-23.7618"/>
<polygon fill="midnightblue" stroke="midnightblue" points="1058.98,-26.7157 1065.82,-18.6253 1055.43,-20.6838 1058.98,-26.7157"/>
</g>
<!-- Node7&#45;&gt;Node5 -->
<g id="edge11" class="edge"><title>Node7&#45;&gt;Node5</title>
<path fill="none" stroke="midnightblue" d="M1219.62,-55.2188C1219.62,-48.1769 1219.62,-37.8083 1219.62,-28.8277"/>
<polygon fill="midnightblue" stroke="midnightblue" points="1223.12,-28.5495 1219.62,-18.5496 1216.12,-28.5496 1223.12,-28.5495"/>
</g>
<!-- Node7&#45;&gt;Node6 -->
<g id="edge10" class="edge"><title>Node7&#45;&gt;Node6</title>
<path fill="none" stroke="midnightblue" d="M1198.35,-55.4504C1175.02,-46.6173 1137.34,-32.3546 1110.7,-22.267"/>
<polygon fill="midnightblue" stroke="midnightblue" points="1111.67,-18.8926 1101.08,-18.6253 1109.19,-25.4392 1111.67,-18.8926"/>
</g>
<!-- Node8 -->
<g id="node9" class="node"><title>Node8</title>
<polygon fill="none" stroke="#bfbfbf" points="1314.38,-0.5 1314.38,-18.5 1384.85,-18.5 1384.85,-0.5 1314.38,-0.5"/>
<text text-anchor="middle" x="1349.62" y="-6.5" font-family="Helvetica,sans-Serif" font-size="10.00">glm/glm.hpp</text>
</g>
<!-- Node7&#45;&gt;Node8 -->
<g id="edge8" class="edge"><title>Node7&#45;&gt;Node8</title>
<path fill="none" stroke="midnightblue" d="M1239.36,-55.4504C1260.93,-46.6562 1295.7,-32.4802 1320.43,-22.4006"/>
<polygon fill="midnightblue" stroke="midnightblue" points="1321.75,-25.6416 1329.69,-18.6253 1319.1,-19.1596 1321.75,-25.6416"/>
</g>
<!-- Node9 -->
<g id="node10" class="node"><title>Node9</title>
<polygon fill="none" stroke="#bfbfbf" points="1402.99,-0.5 1402.99,-18.5 1486.24,-18.5 1486.24,-0.5 1402.99,-0.5"/>
<text text-anchor="middle" x="1444.62" y="-6.5" font-family="Helvetica,sans-Serif" font-size="10.00">SRE/Mesh.hpp</text>
</g>
<!-- Node7&#45;&gt;Node9 -->
<g id="edge9" class="edge"><title>Node7&#45;&gt;Node9</title>
<path fill="none" stroke="midnightblue" d="M1250.43,-56.2417C1289.29,-47.0888 1356.35,-31.2912 1400.6,-20.8682"/>
<polygon fill="midnightblue" stroke="midnightblue" points="1401.57,-24.2357 1410.5,-18.5361 1399.96,-17.4222 1401.57,-24.2357"/>
</g>
<!-- Node10 -->
<g id="node11" class="node"><title>Node10</title>
<polygon fill="none" stroke="#bfbfbf" points="1504.55,-0.5 1504.55,-18.5 1546.68,-18.5 1546.68,-0.5 1504.55,-0.5"/>
<text text-anchor="middle" x="1525.62" y="-6.5" font-family="Helvetica,sans-Serif" font-size="10.00">String</text>
</g>
<!-- Node7&#45;&gt;Node10 -->
<g id="edge12" class="edge"><title>Node7&#45;&gt;Node10</title>
<path fill="none" stroke="midnightblue" d="M1250.66,-56.5469C1253.35,-56.002 1256.03,-55.4784 1258.62,-55 1360.21,-36.232 1389.72,-41.2308 1494.37,-19.0289"/>
<polygon fill="midnightblue" stroke="midnightblue" points="1495.36,-22.3966 1504.39,-16.8685 1493.88,-15.5537 1495.36,-22.3966"/>
</g>
<!-- Node11&#45;&gt;Node2 -->
<g id="edge24" class="edge"><title>Node11&#45;&gt;Node2</title>
<path fill="none" stroke="midnightblue" d="M536.441,-60.9192C595.904,-55.6103 730.402,-41.9945 841.616,-19 841.715,-18.9794 841.815,-18.9587 841.914,-18.9379"/>
<polygon fill="midnightblue" stroke="midnightblue" points="842.476,-22.4027 851.381,-16.6616 840.839,-15.5967 842.476,-22.4027"/>
</g>
<!-- Node11&#45;&gt;Node3 -->
<g id="edge22" class="edge"><title>Node11&#45;&gt;Node3</title>
<path fill="none" stroke="midnightblue" d="M536.163,-62.0668C601.362,-58.5813 758.981,-47.8844 899.639,-18.7858"/>
<polygon fill="midnightblue" stroke="midnightblue" points="900.671,-22.1451 909.735,-16.6588 899.228,-15.2955 900.671,-22.1451"/>
</g>
<!-- Node12 -->
<g id="node13" class="node"><title>Node12</title>
<polygon fill="none" stroke="#bfbfbf" points="252.052,-0.5 252.052,-18.5 309.18,-18.5 309.18,-0.5 252.052,-0.5"/>
<text text-anchor="middle" x="280.616" y="-6.5" font-family="Helvetica,sans-Serif" font-size="10.00">algorithm</text>
</g>
<!-- Node11&#45;&gt;Node12 -->
<g id="edge14" class="edge"><title>Node11&#45;&gt;Node12</title>
<path fill="none" stroke="midnightblue" d="M474.802,-56.2417C434.27,-46.6942 363.047,-29.917 319.041,-19.5514"/>
<polygon fill="midnightblue" stroke="midnightblue" points="319.817,-16.1383 309.281,-17.2522 318.212,-22.9519 319.817,-16.1383"/>
</g>
<!-- Node13 -->
<g id="node14" class="node"><title>Node13</title>
<polygon fill="none" stroke="#bfbfbf" points="327.554,-0.5 327.554,-18.5 369.677,-18.5 369.677,-0.5 327.554,-0.5"/>
<text text-anchor="middle" x="348.616" y="-6.5" font-family="Helvetica,sans-Serif" font-size="10.00">cstdio</text>
</g>
<!-- Node11&#45;&gt;Node13 -->
<g id="edge15" class="edge"><title>Node11&#45;&gt;Node13</title>
<path fill="none" stroke="midnightblue" d="M481.771,-55.4504C454.488,-46.2404 409.72,-31.1276 379.717,-20.9993"/>
<polygon fill="midnightblue" stroke="midnightblue" points="380.749,-17.6537 370.155,-17.7713 378.51,-24.286 380.749,-17.6537"/>
</g>
<!-- Node14 -->
<g id="node15" class="node"><title>Node14</title>
<polygon fill="none" stroke="#bfbfbf" points="387.443,-0.5 387.443,-18.5 431.788,-18.5 431.788,-0.5 387.443,-0.5"/>
<text text-anchor="middle" x="409.616" y="-6.5" font-family="Helvetica,sans-Serif" font-size="10.00">cstdlib</text>
</g>
<!-- Node11&#45;&gt;Node14 -->
<g id="edge16" class="edge"><title>Node11&#45;&gt;Node14</title>
<path fill="none" stroke="midnightblue" d="M491.035,-55.4504C475.67,-46.9675 451.235,-33.477 433.137,-23.486"/>
<polygon fill="midnightblue" stroke="midnightblue" points="434.779,-20.3945 424.333,-18.6253 431.396,-26.5226 434.779,-20.3945"/>
</g>
<!-- Node15 -->
<g id="node16" class="node"><title>Node15</title>
<polygon fill="none" stroke="#bfbfbf" points="449.889,-0.5 449.889,-18.5 495.342,-18.5 495.342,-0.5 449.889,-0.5"/>
<text text-anchor="middle" x="472.616" y="-6.5" font-family="Helvetica,sans-Serif" font-size="10.00">cstring</text>
</g>
<!-- Node11&#45;&gt;Node15 -->
<g id="edge17" class="edge"><title>Node11&#45;&gt;Node15</title>
<path fill="none" stroke="midnightblue" d="M500.459,-55.2188C495.783,-47.7074 488.749,-36.411 482.921,-27.0515"/>
<polygon fill="midnightblue" stroke="midnightblue" points="485.884,-25.1886 477.628,-18.5496 479.942,-28.8885 485.884,-25.1886"/>
</g>
<!-- Node16 -->
<g id="node17" class="node"><title>Node16</title>
<polygon fill="none" stroke="#bfbfbf" points="513.495,-0.5 513.495,-18.5 561.736,-18.5 561.736,-0.5 513.495,-0.5"/>
<text text-anchor="middle" x="537.616" y="-6.5" font-family="Helvetica,sans-Serif" font-size="10.00">cstddef</text>
</g>
<!-- Node11&#45;&gt;Node16 -->
<g id="edge18" class="edge"><title>Node11&#45;&gt;Node16</title>
<path fill="none" stroke="midnightblue" d="M510.616,-55.2188C515.104,-47.7856 521.829,-36.646 527.445,-27.3446"/>
<polygon fill="midnightblue" stroke="midnightblue" points="530.583,-28.9193 532.756,-18.5496 524.591,-25.3012 530.583,-28.9193"/>
</g>
<!-- Node17 -->
<g id="node18" class="node"><title>Node17</title>
<polygon fill="none" stroke="#bfbfbf" points="579.443,-0.5 579.443,-18.5 633.788,-18.5 633.788,-0.5 579.443,-0.5"/>
<text text-anchor="middle" x="606.616" y="-6.5" font-family="Helvetica,sans-Serif" font-size="10.00">iostream</text>
</g>
<!-- Node11&#45;&gt;Node17 -->
<g id="edge19" class="edge"><title>Node11&#45;&gt;Node17</title>
<path fill="none" stroke="midnightblue" d="M520.955,-55.4504C537.195,-46.9286 563.065,-33.3532 582.13,-23.3487"/>
<polygon fill="midnightblue" stroke="midnightblue" points="583.903,-26.3712 591.132,-18.6253 580.65,-20.1728 583.903,-26.3712"/>
</g>
<!-- Node18 -->
<g id="node19" class="node"><title>Node18</title>
<polygon fill="none" stroke="#bfbfbf" points="652.054,-0.5 652.054,-18.5 699.177,-18.5 699.177,-0.5 652.054,-0.5"/>
<text text-anchor="middle" x="675.616" y="-6.5" font-family="Helvetica,sans-Serif" font-size="10.00">iterator</text>
</g>
<!-- Node11&#45;&gt;Node18 -->
<g id="edge20" class="edge"><title>Node11&#45;&gt;Node18</title>
<path fill="none" stroke="midnightblue" d="M531.435,-55.4504C561.021,-46.2265 609.598,-31.0819 642.086,-20.9534"/>
<polygon fill="midnightblue" stroke="midnightblue" points="643.519,-24.1729 652.024,-17.8551 641.435,-17.4901 643.519,-24.1729"/>
</g>
<!-- Node19 -->
<g id="node20" class="node"><title>Node19</title>
<polygon fill="none" stroke="#bfbfbf" points="717.229,-0.5 717.229,-18.5 756.002,-18.5 756.002,-0.5 717.229,-0.5"/>
<text text-anchor="middle" x="736.616" y="-6.5" font-family="Helvetica,sans-Serif" font-size="10.00">limits</text>
</g>
<!-- Node11&#45;&gt;Node19 -->
<g id="edge21" class="edge"><title>Node11&#45;&gt;Node19</title>
<path fill="none" stroke="midnightblue" d="M536.404,-57.5387C574.462,-49.9984 641.392,-36.1805 707.366,-19.1743"/>
<polygon fill="midnightblue" stroke="midnightblue" points="708.294,-22.5494 717.089,-16.6424 706.53,-15.7753 708.294,-22.5494"/>
</g>
<!-- Node20 -->
<g id="node21" class="node"><title>Node20</title>
<polygon fill="none" stroke="#bfbfbf" points="774.214,-0.5 774.214,-18.5 833.017,-18.5 833.017,-0.5 774.214,-0.5"/>
<text text-anchor="middle" x="803.616" y="-6.5" font-family="Helvetica,sans-Serif" font-size="10.00">stdexcept</text>
</g>
<!-- Node11&#45;&gt;Node20 -->
<g id="edge23" class="edge"><title>Node11&#45;&gt;Node20</title>
<path fill="none" stroke="midnightblue" d="M536.396,-58.6656C583.241,-51.2096 675.462,-36.1464 763.905,-19.0631"/>
<polygon fill="midnightblue" stroke="midnightblue" points="764.685,-22.4772 773.833,-17.1337 763.349,-15.6058 764.685,-22.4772"/>
</g>
<!-- Node21 -->
<g id="node22" class="node"><title>Node21</title>
<polygon fill="none" stroke="#bfbfbf" points="0,-0.5 0,-18.5 43.2314,-18.5 43.2314,-0.5 0,-0.5"/>
<text text-anchor="middle" x="21.6157" y="-6.5" font-family="Helvetica,sans-Serif" font-size="10.00">vector</text>
</g>
<!-- Node11&#45;&gt;Node21 -->
<g id="edge25" class="edge"><title>Node11&#45;&gt;Node21</title>
<path fill="none" stroke="midnightblue" d="M474.877,-62.2803C402.866,-59.0413 217.589,-48.4938 53.7839,-18.8867"/>
<polygon fill="midnightblue" stroke="midnightblue" points="53.9924,-15.3665 43.5246,-17.0019 52.7275,-22.2513 53.9924,-15.3665"/>
</g>
<!-- Node22 -->
<g id="node23" class="node"><title>Node22</title>
<polygon fill="none" stroke="#bfbfbf" points="61.2241,-0.5 61.2241,-18.5 100.007,-18.5 100.007,-0.5 61.2241,-0.5"/>
<text text-anchor="middle" x="80.6157" y="-6.5" font-family="Helvetica,sans-Serif" font-size="10.00">utility</text>
</g>
<!-- Node11&#45;&gt;Node22 -->
<g id="edge26" class="edge"><title>Node11&#45;&gt;Node22</title>
<path fill="none" stroke="midnightblue" d="M475.032,-61.8724C409.749,-58.0133 251.878,-46.633 110.319,-18.7618"/>
<polygon fill="midnightblue" stroke="midnightblue" points="110.649,-15.2584 100.156,-16.7264 109.274,-22.1221 110.649,-15.2584"/>
</g>
<!-- Node23 -->
<g id="node24" class="node"><title>Node23</title>
<polygon fill="none" stroke="#bfbfbf" points="118.33,-0.5 118.33,-18.5 164.901,-18.5 164.901,-0.5 118.33,-0.5"/>
<text text-anchor="middle" x="141.616" y="-6.5" font-family="Helvetica,sans-Serif" font-size="10.00">math.h</text>
</g>
<!-- Node11&#45;&gt;Node23 -->
<g id="edge27" class="edge"><title>Node11&#45;&gt;Node23</title>
<path fill="none" stroke="midnightblue" d="M474.843,-60.5933C417.783,-54.9399 291.578,-41.2016 175.129,-18.8569"/>
<polygon fill="midnightblue" stroke="midnightblue" points="175.458,-15.3554 164.974,-16.8812 174.121,-22.2265 175.458,-15.3554"/>
</g>
<!-- Node24 -->
<g id="node25" class="node"><title>Node24</title>
<polygon fill="none" stroke="#bfbfbf" points="183.382,-0.5 183.382,-18.5 233.85,-18.5 233.85,-0.5 183.382,-0.5"/>
<text text-anchor="middle" x="208.616" y="-6.5" font-family="Helvetica,sans-Serif" font-size="10.00">locale.h</text>
</g>
<!-- Node11&#45;&gt;Node24 -->
<g id="edge28" class="edge"><title>Node11&#45;&gt;Node24</title>
<path fill="none" stroke="midnightblue" d="M475.099,-59.1208C427.712,-52.1512 333.382,-37.6025 244.193,-19.2032"/>
<polygon fill="midnightblue" stroke="midnightblue" points="244.69,-15.7318 234.187,-17.1179 243.262,-22.5846 244.69,-15.7318"/>
</g>
<!-- Node25&#45;&gt;Node2 -->
<g id="edge30" class="edge"><title>Node25&#45;&gt;Node2</title>
<path fill="none" stroke="midnightblue" d="M885.959,-55.2188C883.651,-48.0204 880.227,-37.3458 877.303,-28.2311"/>
<polygon fill="midnightblue" stroke="midnightblue" points="880.585,-27.0027 874.198,-18.5496 873.919,-29.1407 880.585,-27.0027"/>
</g>
</g>
</svg>
