<?xml version="1.0" encoding="UTF-8" standalone="no"?>
<!DOCTYPE svg PUBLIC "-//W3C//DTD SVG 1.1//EN"
 "http://www.w3.org/Graphics/SVG/1.1/DTD/svg11.dtd">
<!-- Generated by graphviz version 2.38.0 (20140413.2041)
 -->
<!-- Title: Sprite.hpp Pages: 1 -->
<svg width="520pt" height="82pt"
 viewBox="0.00 0.00 520.30 82.00" xmlns="http://www.w3.org/2000/svg" xmlns:xlink="http://www.w3.org/1999/xlink">
<g id="graph0" class="graph" transform="scale(1 1) rotate(0) translate(4 78)">
<title>Sprite.hpp</title>
<!-- Node0 -->
<g id="node1" class="node"><title>Node0</title>
<polygon fill="#bfbfbf" stroke="black" points="204.441,-55.5 204.441,-73.5 266.027,-73.5 266.027,-55.5 204.441,-55.5"/>
<text text-anchor="middle" x="235.234" y="-61.5" font-family="Helvetica,sans-Serif" font-size="10.00">Sprite.hpp</text>
</g>
<!-- Node1 -->
<g id="node2" class="node"><title>Node1</title>
<polygon fill="none" stroke="#bfbfbf" points="0,-0.5 0,-18.5 70.4678,-18.5 70.4678,-0.5 0,-0.5"/>
<text text-anchor="middle" x="35.2339" y="-6.5" font-family="Helvetica,sans-Serif" font-size="10.00">glm/glm.hpp</text>
</g>
<!-- Node0&#45;&gt;Node1 -->
<g id="edge1" class="edge"><title>Node0&#45;&gt;Node1</title>
<path fill="none" stroke="midnightblue" d="M204.858,-55.4504C170.251,-46.2794 113.557,-31.2555 75.3406,-21.1283"/>
<polygon fill="midnightblue" stroke="midnightblue" points="76.1301,-17.7167 65.5671,-18.5383 74.3369,-24.4832 76.1301,-17.7167"/>
</g>
<!-- Node2 -->
<g id="node3" class="node"><title>Node2</title>
<polygon fill="none" stroke="#bfbfbf" points="88.606,-0.5 88.606,-18.5 171.862,-18.5 171.862,-0.5 88.606,-0.5"/>
<text text-anchor="middle" x="130.234" y="-6.5" font-family="Helvetica,sans-Serif" font-size="10.00">SRE/Mesh.hpp</text>
</g>
<!-- Node0&#45;&gt;Node2 -->
<g id="edge2" class="edge"><title>Node0&#45;&gt;Node2</title>
<path fill="none" stroke="midnightblue" d="M219.287,-55.4504C202.327,-46.8897 175.263,-33.2291 155.418,-23.2119"/>
<polygon fill="midnightblue" stroke="midnightblue" points="156.836,-20.007 146.331,-18.6253 153.681,-26.256 156.836,-20.007"/>
</g>
<!-- Node3 -->
<g id="node4" class="node"><title>Node3</title>
<polygon fill="none" stroke="#bfbfbf" points="189.436,-0.5 189.436,-18.5 281.032,-18.5 281.032,-0.5 189.436,-0.5"/>
<text text-anchor="middle" x="235.234" y="-6.5" font-family="Helvetica,sans-Serif" font-size="10.00">SRE/Texture.hpp</text>
</g>
<!-- Node0&#45;&gt;Node3 -->
<g id="edge3" class="edge"><title>Node0&#45;&gt;Node3</title>
<path fill="none" stroke="midnightblue" d="M235.234,-55.2188C235.234,-48.1769 235.234,-37.8083 235.234,-28.8277"/>
<polygon fill="midnightblue" stroke="midnightblue" points="238.734,-28.5495 235.234,-18.5496 231.734,-28.5496 238.734,-28.5495"/>
</g>
<!-- Node4 -->
<g id="node5" class="node"><title>Node4</title>
<polygon fill="none" stroke="#bfbfbf" points="298.582,-0.5 298.582,-18.5 451.886,-18.5 451.886,-0.5 298.582,-0.5"/>
<text text-anchor="middle" x="375.234" y="-6.5" font-family="Helvetica,sans-Serif" font-size="10.00">SRE/SimpleRenderEngine.hpp</text>
</g>
<!-- Node0&#45;&gt;Node4 -->
<g id="edge4" class="edge"><title>Node0&#45;&gt;Node4</title>
<path fill="none" stroke="midnightblue" d="M256.497,-55.4504C279.83,-46.6173 317.505,-32.3546 344.151,-22.267"/>
<polygon fill="midnightblue" stroke="midnightblue" points="345.658,-25.4392 353.771,-18.6253 343.179,-18.8926 345.658,-25.4392"/>
</g>
<!-- Node5 -->
<g id="node6" class="node"><title>Node5</title>
<polygon fill="none" stroke="#bfbfbf" points="470.172,-0.5 470.172,-18.5 512.295,-18.5 512.295,-0.5 470.172,-0.5"/>
<text text-anchor="middle" x="491.234" y="-6.5" font-family="Helvetica,sans-Serif" font-size="10.00">String</text>
</g>
<!-- Node0&#45;&gt;Node5 -->
<g id="edge5" class="edge"><title>Node0&#45;&gt;Node5</title>
<path fill="none" stroke="midnightblue" d="M266.112,-58.2449C307.914,-50.952 385.018,-36.87 459.914,-19.1594"/>
<polygon fill="midnightblue" stroke="midnightblue" points="461.073,-22.4811 469.985,-16.7522 459.445,-15.6729 461.073,-22.4811"/>
</g>
</g>
</svg>
