<?xml version="1.0" encoding="UTF-8" standalone="no"?>
<!DOCTYPE svg PUBLIC "-//W3C//DTD SVG 1.1//EN"
 "http://www.w3.org/Graphics/SVG/1.1/DTD/svg11.dtd">
<!-- Generated by graphviz version 2.38.0 (20140413.2041)
 -->
<!-- Title: Sprite.hpp Pages: 1 -->
<svg width="255pt" height="137pt"
 viewBox="0.00 0.00 254.93 137.00" xmlns="http://www.w3.org/2000/svg" xmlns:xlink="http://www.w3.org/1999/xlink">
<g id="graph0" class="graph" transform="scale(1 1) rotate(0) translate(4 133)">
<title>Sprite.hpp</title>
<!-- Node6 -->
<g id="node1" class="node"><title>Node6</title>
<polygon fill="#bfbfbf" stroke="black" points="84.5073,-110.5 84.5073,-128.5 146.093,-128.5 146.093,-110.5 84.5073,-110.5"/>
<text text-anchor="middle" x="115.3" y="-116.5" font-family="Helvetica,sans-Serif" font-size="10.00">Sprite.hpp</text>
</g>
<!-- Node7 -->
<g id="node2" class="node"><title>Node7</title>
<g id="a_node2"><a xlink:href="_engine_8hpp.html" target="_top" xlink:title="Engine.hpp">
<polygon fill="none" stroke="black" points="0,-55.5 0,-73.5 66.6006,-73.5 66.6006,-55.5 0,-55.5"/>
<text text-anchor="middle" x="33.3003" y="-61.5" font-family="Helvetica,sans-Serif" font-size="10.00">Engine.hpp</text>
</a>
</g>
</g>
<!-- Node6&#45;&gt;Node7 -->
<g id="edge1" class="edge"><title>Node6&#45;&gt;Node7</title>
<path fill="none" stroke="midnightblue" d="M94.0607,-104.772C78.7774,-94.8937 58.6795,-81.9036 45.8715,-73.6253"/>
<polygon fill="midnightblue" stroke="midnightblue" points="92.5479,-107.962 102.846,-110.45 96.3477,-102.083 92.5479,-107.962"/>
</g>
<!-- Node9 -->
<g id="node4" class="node"><title>Node9</title>
<g id="a_node4"><a xlink:href="_sprite_8cpp.html" target="_top" xlink:title="Sprite.cpp">
<polygon fill="none" stroke="black" points="84.7881,-55.5 84.7881,-73.5 145.812,-73.5 145.812,-55.5 84.7881,-55.5"/>
<text text-anchor="middle" x="115.3" y="-61.5" font-family="Helvetica,sans-Serif" font-size="10.00">Sprite.cpp</text>
</a>
</g>
</g>
<!-- Node6&#45;&gt;Node9 -->
<g id="edge3" class="edge"><title>Node6&#45;&gt;Node9</title>
<path fill="none" stroke="midnightblue" d="M115.3,-100.175C115.3,-91.0945 115.3,-80.5949 115.3,-73.5496"/>
<polygon fill="midnightblue" stroke="midnightblue" points="111.8,-100.219 115.3,-110.219 118.8,-100.219 111.8,-100.219"/>
</g>
<!-- Node10 -->
<g id="node5" class="node"><title>Node10</title>
<g id="a_node5"><a xlink:href="_sprite_atlas_8cpp.html" target="_top" xlink:title="SpriteAtlas.cpp">
<polygon fill="none" stroke="black" points="163.672,-55.5 163.672,-73.5 246.928,-73.5 246.928,-55.5 163.672,-55.5"/>
<text text-anchor="middle" x="205.3" y="-61.5" font-family="Helvetica,sans-Serif" font-size="10.00">SpriteAtlas.cpp</text>
</a>
</g>
</g>
<!-- Node6&#45;&gt;Node10 -->
<g id="edge4" class="edge"><title>Node6&#45;&gt;Node10</title>
<path fill="none" stroke="midnightblue" d="M137.668,-105.328C154.551,-95.3856 177.18,-82.0598 191.503,-73.6253"/>
<polygon fill="midnightblue" stroke="midnightblue" points="135.81,-102.36 128.969,-110.45 139.362,-108.392 135.81,-102.36"/>
</g>
<!-- Node8 -->
<g id="node3" class="node"><title>Node8</title>
<g id="a_node3"><a xlink:href="_engine_8cpp.html" target="_top" xlink:title="Engine.cpp">
<polygon fill="none" stroke="black" points="0.280762,-0.5 0.280762,-18.5 66.3198,-18.5 66.3198,-0.5 0.280762,-0.5"/>
<text text-anchor="middle" x="33.3003" y="-6.5" font-family="Helvetica,sans-Serif" font-size="10.00">Engine.cpp</text>
</a>
</g>
</g>
<!-- Node7&#45;&gt;Node8 -->
<g id="edge2" class="edge"><title>Node7&#45;&gt;Node8</title>
<path fill="none" stroke="midnightblue" d="M33.3003,-45.1746C33.3003,-36.0945 33.3003,-25.5949 33.3003,-18.5496"/>
<polygon fill="midnightblue" stroke="midnightblue" points="29.8004,-45.2187 33.3003,-55.2188 36.8004,-45.2188 29.8004,-45.2187"/>
</g>
</g>
</svg>
