<?xml version="1.0" encoding="UTF-8" standalone="no"?>
<!DOCTYPE svg PUBLIC "-//W3C//DTD SVG 1.1//EN"
 "http://www.w3.org/Graphics/SVG/1.1/DTD/svg11.dtd">
<!-- Generated by graphviz version 2.38.0 (20140413.2041)
 -->
<!-- Title: Transform.hpp Pages: 1 -->
<svg width="385pt" height="137pt"
 viewBox="0.00 0.00 385.20 137.00" xmlns="http://www.w3.org/2000/svg" xmlns:xlink="http://www.w3.org/1999/xlink">
<g id="graph0" class="graph" transform="scale(1 1) rotate(0) translate(4 133)">
<title>Transform.hpp</title>
<!-- Node0 -->
<g id="node1" class="node"><title>Node0</title>
<polygon fill="#bfbfbf" stroke="black" points="145.252,-110.5 145.252,-128.5 225.91,-128.5 225.91,-110.5 145.252,-110.5"/>
<text text-anchor="middle" x="185.581" y="-116.5" font-family="Helvetica,sans-Serif" font-size="10.00">Transform.hpp</text>
</g>
<!-- Node1 -->
<g id="node2" class="node"><title>Node1</title>
<g id="a_node2"><a xlink:href="_component_8hpp.html" target="_top" xlink:title="Component.hpp">
<polygon fill="none" stroke="black" points="0,-55.5 0,-73.5 87.1621,-73.5 87.1621,-55.5 0,-55.5"/>
<text text-anchor="middle" x="43.5811" y="-61.5" font-family="Helvetica,sans-Serif" font-size="10.00">Component.hpp</text>
</a>
</g>
</g>
<!-- Node0&#45;&gt;Node1 -->
<g id="edge1" class="edge"><title>Node0&#45;&gt;Node1</title>
<path fill="none" stroke="midnightblue" d="M164.014,-110.45C140.244,-101.578 101.798,-87.2288 74.7513,-77.134"/>
<polygon fill="midnightblue" stroke="midnightblue" points="75.9434,-73.8431 65.3508,-73.6253 73.4956,-80.4012 75.9434,-73.8431"/>
</g>
<!-- Node2 -->
<g id="node3" class="node"><title>Node2</title>
<polygon fill="none" stroke="#bfbfbf" points="59.3545,-0.5 59.3545,-18.5 99.8076,-18.5 99.8076,-0.5 59.3545,-0.5"/>
<text text-anchor="middle" x="79.5811" y="-6.5" font-family="Helvetica,sans-Serif" font-size="10.00">string</text>
</g>
<!-- Node0&#45;&gt;Node2 -->
<g id="edge5" class="edge"><title>Node0&#45;&gt;Node2</title>
<path fill="none" stroke="midnightblue" d="M175.437,-110.361C164.871,-101.723 148.017,-87.4853 134.581,-74 119.359,-58.722 103.371,-39.9066 92.5809,-26.7382"/>
<polygon fill="midnightblue" stroke="midnightblue" points="95.0304,-24.2017 86.0148,-18.6366 89.5922,-28.6092 95.0304,-24.2017"/>
</g>
<!-- Node3 -->
<g id="node4" class="node"><title>Node3</title>
<polygon fill="none" stroke="#bfbfbf" points="143.953,-55.5 143.953,-73.5 227.209,-73.5 227.209,-55.5 143.953,-55.5"/>
<text text-anchor="middle" x="185.581" y="-61.5" font-family="Helvetica,sans-Serif" font-size="10.00">SRE/Mesh.hpp</text>
</g>
<!-- Node0&#45;&gt;Node3 -->
<g id="edge3" class="edge"><title>Node0&#45;&gt;Node3</title>
<path fill="none" stroke="midnightblue" d="M185.581,-110.219C185.581,-103.177 185.581,-92.8083 185.581,-83.8277"/>
<polygon fill="midnightblue" stroke="midnightblue" points="189.081,-83.5495 185.581,-73.5496 182.081,-83.5496 189.081,-83.5495"/>
</g>
<!-- Node4 -->
<g id="node5" class="node"><title>Node4</title>
<polygon fill="none" stroke="#bfbfbf" points="245.347,-55.5 245.347,-73.5 315.815,-73.5 315.815,-55.5 245.347,-55.5"/>
<text text-anchor="middle" x="280.581" y="-61.5" font-family="Helvetica,sans-Serif" font-size="10.00">glm/glm.hpp</text>
</g>
<!-- Node0&#45;&gt;Node4 -->
<g id="edge4" class="edge"><title>Node0&#45;&gt;Node4</title>
<path fill="none" stroke="midnightblue" d="M200.01,-110.45C215.075,-102.045 238.953,-88.7241 256.81,-78.7618"/>
<polygon fill="midnightblue" stroke="midnightblue" points="258.989,-81.5539 266.017,-73.6253 255.579,-75.4409 258.989,-81.5539"/>
</g>
<!-- Node5 -->
<g id="node6" class="node"><title>Node5</title>
<polygon fill="none" stroke="#bfbfbf" points="333.965,-55.5 333.965,-73.5 377.197,-73.5 377.197,-55.5 333.965,-55.5"/>
<text text-anchor="middle" x="355.581" y="-61.5" font-family="Helvetica,sans-Serif" font-size="10.00">vector</text>
</g>
<!-- Node0&#45;&gt;Node5 -->
<g id="edge6" class="edge"><title>Node0&#45;&gt;Node5</title>
<path fill="none" stroke="midnightblue" d="M211.4,-110.45C241.573,-101.044 291.498,-85.4789 323.965,-75.3569"/>
<polygon fill="midnightblue" stroke="midnightblue" points="325.34,-78.5942 333.845,-72.2764 323.257,-71.9115 325.34,-78.5942"/>
</g>
<!-- Node1&#45;&gt;Node2 -->
<g id="edge2" class="edge"><title>Node1&#45;&gt;Node2</title>
<path fill="none" stroke="midnightblue" d="M49.2061,-55.2188C54.3081,-47.7074 61.9811,-36.411 68.3385,-27.0515"/>
<polygon fill="midnightblue" stroke="midnightblue" points="71.3898,-28.7883 74.1134,-18.5496 65.5993,-24.8551 71.3898,-28.7883"/>
</g>
</g>
</svg>
