<?xml version="1.0" encoding="UTF-8" standalone="no"?>
<!DOCTYPE svg PUBLIC "-//W3C//DTD SVG 1.1//EN"
 "http://www.w3.org/Graphics/SVG/1.1/DTD/svg11.dtd">
<!-- Generated by graphviz version 2.38.0 (20140413.2041)
 -->
<!-- Title: Transform.hpp Pages: 1 -->
<svg width="860pt" height="137pt"
 viewBox="0.00 0.00 860.13 137.00" xmlns="http://www.w3.org/2000/svg" xmlns:xlink="http://www.w3.org/1999/xlink">
<g id="graph0" class="graph" transform="scale(1 1) rotate(0) translate(4 133)">
<title>Transform.hpp</title>
<!-- Node6 -->
<g id="node1" class="node"><title>Node6</title>
<polygon fill="#bfbfbf" stroke="black" points="340.752,-110.5 340.752,-128.5 421.41,-128.5 421.41,-110.5 340.752,-110.5"/>
<text text-anchor="middle" x="381.081" y="-116.5" font-family="Helvetica,sans-Serif" font-size="10.00">Transform.hpp</text>
</g>
<!-- Node7 -->
<g id="node2" class="node"><title>Node7</title>
<g id="a_node2"><a xlink:href="_audio_source_8hpp.html" target="_top" xlink:title="AudioSource.hpp">
<polygon fill="none" stroke="black" points="93.7192,-55.5 93.7192,-73.5 186.443,-73.5 186.443,-55.5 93.7192,-55.5"/>
<text text-anchor="middle" x="140.081" y="-61.5" font-family="Helvetica,sans-Serif" font-size="10.00">AudioSource.hpp</text>
</a>
</g>
</g>
<!-- Node6&#45;&gt;Node7 -->
<g id="edge1" class="edge"><title>Node6&#45;&gt;Node7</title>
<path fill="none" stroke="midnightblue" d="M334.449,-108.245C288.376,-98.1126 218.845,-82.8216 176.633,-73.5383"/>
<polygon fill="midnightblue" stroke="midnightblue" points="333.96,-111.721 344.478,-110.45 335.463,-104.884 333.96,-111.721"/>
</g>
<!-- Node9 -->
<g id="node4" class="node"><title>Node9</title>
<g id="a_node4"><a xlink:href="_audio_source_8cpp.html" target="_top" xlink:title="AudioSource.cpp">
<polygon fill="none" stroke="black" points="0,-0.5 0,-18.5 92.1621,-18.5 92.1621,-0.5 0,-0.5"/>
<text text-anchor="middle" x="46.0811" y="-6.5" font-family="Helvetica,sans-Serif" font-size="10.00">AudioSource.cpp</text>
</a>
</g>
</g>
<!-- Node6&#45;&gt;Node9 -->
<g id="edge5" class="edge"><title>Node6&#45;&gt;Node9</title>
<path fill="none" stroke="midnightblue" d="M330.706,-116.015C257.055,-111.542 124.452,-100.056 85.0811,-74 64.798,-60.5768 53.2727,-32.623 48.581,-18.7196"/>
<polygon fill="midnightblue" stroke="midnightblue" points="330.504,-119.509 340.692,-116.6 330.914,-112.521 330.504,-119.509"/>
</g>
<!-- Node10 -->
<g id="node5" class="node"><title>Node10</title>
<g id="a_node5"><a xlink:href="_engine_8cpp.html" target="_top" xlink:title="Engine.cpp">
<polygon fill="none" stroke="black" points="188.062,-0.5 188.062,-18.5 254.101,-18.5 254.101,-0.5 188.062,-0.5"/>
<text text-anchor="middle" x="221.081" y="-6.5" font-family="Helvetica,sans-Serif" font-size="10.00">Engine.cpp</text>
</a>
</g>
</g>
<!-- Node6&#45;&gt;Node10 -->
<g id="edge7" class="edge"><title>Node6&#45;&gt;Node10</title>
<path fill="none" stroke="midnightblue" d="M330.28,-116.237C297.884,-112.029 257.535,-101.175 233.081,-74 219.122,-58.4879 219.113,-31.9956 220.151,-18.6674"/>
<polygon fill="midnightblue" stroke="midnightblue" points="330.161,-119.745 340.489,-117.382 330.941,-112.789 330.161,-119.745"/>
</g>
<!-- Node11 -->
<g id="node6" class="node"><title>Node11</title>
<g id="a_node6"><a xlink:href="_camera_handler_8cpp.html" target="_top" xlink:title="CameraHandler.cpp">
<polygon fill="none" stroke="black" points="443.611,-55.5 443.611,-73.5 548.551,-73.5 548.551,-55.5 443.611,-55.5"/>
<text text-anchor="middle" x="496.081" y="-61.5" font-family="Helvetica,sans-Serif" font-size="10.00">CameraHandler.cpp</text>
</a>
</g>
</g>
<!-- Node6&#45;&gt;Node11 -->
<g id="edge6" class="edge"><title>Node6&#45;&gt;Node11</title>
<path fill="none" stroke="midnightblue" d="M407.882,-106.148C429.62,-96.1297 459.641,-82.2941 478.451,-73.6253"/>
<polygon fill="midnightblue" stroke="midnightblue" points="406.164,-103.086 398.547,-110.45 409.094,-109.443 406.164,-103.086"/>
</g>
<!-- Node12 -->
<g id="node7" class="node"><title>Node12</title>
<g id="a_node7"><a xlink:href="_renderer_8hpp.html" target="_top" xlink:title="Renderer.hpp">
<polygon fill="none" stroke="black" points="241.778,-55.5 241.778,-73.5 318.384,-73.5 318.384,-55.5 241.778,-55.5"/>
<text text-anchor="middle" x="280.081" y="-61.5" font-family="Helvetica,sans-Serif" font-size="10.00">Renderer.hpp</text>
</a>
</g>
</g>
<!-- Node6&#45;&gt;Node12 -->
<g id="edge8" class="edge"><title>Node6&#45;&gt;Node12</title>
<path fill="none" stroke="midnightblue" d="M356.765,-105.74C337.74,-95.7567 311.862,-82.177 295.565,-73.6253"/>
<polygon fill="midnightblue" stroke="midnightblue" points="355.26,-108.903 365.741,-110.45 358.513,-102.705 355.26,-108.903"/>
</g>
<!-- Node14 -->
<g id="node9" class="node"><title>Node14</title>
<g id="a_node9"><a xlink:href="_light_source_8hpp.html" target="_top" xlink:title="LightSource.hpp">
<polygon fill="none" stroke="black" points="336.665,-55.5 336.665,-73.5 425.497,-73.5 425.497,-55.5 336.665,-55.5"/>
<text text-anchor="middle" x="381.081" y="-61.5" font-family="Helvetica,sans-Serif" font-size="10.00">LightSource.hpp</text>
</a>
</g>
</g>
<!-- Node6&#45;&gt;Node14 -->
<g id="edge11" class="edge"><title>Node6&#45;&gt;Node14</title>
<path fill="none" stroke="midnightblue" d="M381.081,-100.175C381.081,-91.0945 381.081,-80.5949 381.081,-73.5496"/>
<polygon fill="midnightblue" stroke="midnightblue" points="377.581,-100.219 381.081,-110.219 384.581,-100.219 377.581,-100.219"/>
</g>
<!-- Node16 -->
<g id="node11" class="node"><title>Node16</title>
<g id="a_node11"><a xlink:href="_game_object_8cpp.html" target="_top" xlink:title="GameObject.cpp">
<polygon fill="none" stroke="black" points="566.564,-55.5 566.564,-73.5 657.598,-73.5 657.598,-55.5 566.564,-55.5"/>
<text text-anchor="middle" x="612.081" y="-61.5" font-family="Helvetica,sans-Serif" font-size="10.00">GameObject.cpp</text>
</a>
</g>
</g>
<!-- Node6&#45;&gt;Node16 -->
<g id="edge14" class="edge"><title>Node6&#45;&gt;Node16</title>
<path fill="none" stroke="midnightblue" d="M426.057,-108.181C470.219,-98.0484 536.67,-82.8021 577.046,-73.5383"/>
<polygon fill="midnightblue" stroke="midnightblue" points="425.129,-104.803 416.165,-110.45 426.694,-111.625 425.129,-104.803"/>
</g>
<!-- Node17 -->
<g id="node12" class="node"><title>Node17</title>
<g id="a_node12"><a xlink:href="_rigidbody_8cpp.html" target="_top" xlink:title="Rigidbody.cpp">
<polygon fill="none" stroke="black" points="675.763,-55.5 675.763,-73.5 754.399,-73.5 754.399,-55.5 675.763,-55.5"/>
<text text-anchor="middle" x="715.081" y="-61.5" font-family="Helvetica,sans-Serif" font-size="10.00">Rigidbody.cpp</text>
</a>
</g>
</g>
<!-- Node6&#45;&gt;Node17 -->
<g id="edge15" class="edge"><title>Node6&#45;&gt;Node17</title>
<path fill="none" stroke="midnightblue" d="M432.085,-110.893C489.33,-102.279 584.951,-87.6599 667.081,-74 669.836,-73.5418 672.678,-73.0605 675.54,-72.5696"/>
<polygon fill="midnightblue" stroke="midnightblue" points="431.224,-107.483 421.855,-112.43 432.264,-114.405 431.224,-107.483"/>
</g>
<!-- Node18 -->
<g id="node13" class="node"><title>Node18</title>
<g id="a_node13"><a xlink:href="_transform_8cpp.html" target="_top" xlink:title="Transform.cpp">
<polygon fill="none" stroke="black" points="772.033,-55.5 772.033,-73.5 852.129,-73.5 852.129,-55.5 772.033,-55.5"/>
<text text-anchor="middle" x="812.081" y="-61.5" font-family="Helvetica,sans-Serif" font-size="10.00">Transform.cpp</text>
</a>
</g>
</g>
<!-- Node6&#45;&gt;Node18 -->
<g id="edge16" class="edge"><title>Node6&#45;&gt;Node18</title>
<path fill="none" stroke="midnightblue" d="M431.93,-113.488C505.245,-106.055 644.835,-91.1298 763.081,-74 765.986,-73.5791 768.984,-73.1201 771.999,-72.6405"/>
<polygon fill="midnightblue" stroke="midnightblue" points="431.202,-110.044 421.604,-114.53 431.905,-117.009 431.202,-110.044"/>
</g>
<!-- Node8 -->
<g id="node3" class="node"><title>Node8</title>
<g id="a_node3"><a xlink:href="_audio_8cpp.html" target="_top" xlink:title="Audio.cpp">
<polygon fill="none" stroke="black" points="109.842,-0.5 109.842,-18.5 170.32,-18.5 170.32,-0.5 109.842,-0.5"/>
<text text-anchor="middle" x="140.081" y="-6.5" font-family="Helvetica,sans-Serif" font-size="10.00">Audio.cpp</text>
</a>
</g>
</g>
<!-- Node7&#45;&gt;Node8 -->
<g id="edge2" class="edge"><title>Node7&#45;&gt;Node8</title>
<path fill="none" stroke="midnightblue" d="M140.081,-45.1746C140.081,-36.0945 140.081,-25.5949 140.081,-18.5496"/>
<polygon fill="midnightblue" stroke="midnightblue" points="136.581,-45.2187 140.081,-55.2188 143.581,-45.2188 136.581,-45.2187"/>
</g>
<!-- Node7&#45;&gt;Node9 -->
<g id="edge3" class="edge"><title>Node7&#45;&gt;Node9</title>
<path fill="none" stroke="midnightblue" d="M116.719,-50.3277C99.0857,-40.3856 75.4513,-27.0598 60.492,-18.6253"/>
<polygon fill="midnightblue" stroke="midnightblue" points="115.375,-53.5878 125.804,-55.4504 118.813,-47.4902 115.375,-53.5878"/>
</g>
<!-- Node7&#45;&gt;Node10 -->
<g id="edge4" class="edge"><title>Node7&#45;&gt;Node10</title>
<path fill="none" stroke="midnightblue" d="M161.062,-49.7719C176.159,-39.8937 196.011,-26.9036 208.663,-18.6253"/>
<polygon fill="midnightblue" stroke="midnightblue" points="158.835,-47.0464 152.383,-55.4504 162.667,-52.9039 158.835,-47.0464"/>
</g>
<!-- Node12&#45;&gt;Node10 -->
<g id="edge9" class="edge"><title>Node12&#45;&gt;Node10</title>
<path fill="none" stroke="midnightblue" d="M263.54,-48.6408C252.718,-38.9201 238.994,-26.5913 230.126,-18.6253"/>
<polygon fill="midnightblue" stroke="midnightblue" points="261.342,-51.3715 271.12,-55.4504 266.02,-46.164 261.342,-51.3715"/>
</g>
<!-- Node13 -->
<g id="node8" class="node"><title>Node13</title>
<g id="a_node8"><a xlink:href="_renderer_8cpp.html" target="_top" xlink:title="Renderer.cpp">
<polygon fill="none" stroke="black" points="272.059,-0.5 272.059,-18.5 348.103,-18.5 348.103,-0.5 272.059,-0.5"/>
<text text-anchor="middle" x="310.081" y="-6.5" font-family="Helvetica,sans-Serif" font-size="10.00">Renderer.cpp</text>
</a>
</g>
</g>
<!-- Node12&#45;&gt;Node13 -->
<g id="edge10" class="edge"><title>Node12&#45;&gt;Node13</title>
<path fill="none" stroke="midnightblue" d="M289.781,-46.3633C295.067,-37.0242 301.361,-25.9046 305.525,-18.5496"/>
<polygon fill="midnightblue" stroke="midnightblue" points="286.649,-44.7921 284.769,-55.2188 292.74,-48.2403 286.649,-44.7921"/>
</g>
<!-- Node14&#45;&gt;Node10 -->
<g id="edge12" class="edge"><title>Node14&#45;&gt;Node10</title>
<path fill="none" stroke="midnightblue" d="M346.986,-52.2061C316.451,-42.0914 272.431,-27.5095 245.348,-18.5383"/>
<polygon fill="midnightblue" stroke="midnightblue" points="346.187,-55.6284 356.78,-55.4504 348.388,-48.9834 346.187,-55.6284"/>
</g>
<!-- Node15 -->
<g id="node10" class="node"><title>Node15</title>
<g id="a_node10"><a xlink:href="_light_source_8cpp.html" target="_top" xlink:title="LightSource.cpp">
<polygon fill="none" stroke="black" points="365.946,-0.5 365.946,-18.5 454.216,-18.5 454.216,-0.5 365.946,-0.5"/>
<text text-anchor="middle" x="410.081" y="-6.5" font-family="Helvetica,sans-Serif" font-size="10.00">LightSource.cpp</text>
</a>
</g>
</g>
<!-- Node14&#45;&gt;Node15 -->
<g id="edge13" class="edge"><title>Node14&#45;&gt;Node15</title>
<path fill="none" stroke="midnightblue" d="M390.458,-46.3633C395.568,-37.0242 401.652,-25.9046 405.677,-18.5496"/>
<polygon fill="midnightblue" stroke="midnightblue" points="387.342,-44.7661 385.612,-55.2188 393.483,-48.1262 387.342,-44.7661"/>
</g>
</g>
</svg>
