<?xml version="1.0" encoding="UTF-8" standalone="no"?>
<!DOCTYPE svg PUBLIC "-//W3C//DTD SVG 1.1//EN"
 "http://www.w3.org/Graphics/SVG/1.1/DTD/svg11.dtd">
<!-- Generated by graphviz version 2.38.0 (20140413.2041)
 -->
<!-- Title: Transform.hpp Pages: 1 -->
<svg width="989pt" height="137pt"
 viewBox="0.00 0.00 989.13 137.00" xmlns="http://www.w3.org/2000/svg" xmlns:xlink="http://www.w3.org/1999/xlink">
<g id="graph0" class="graph" transform="scale(1 1) rotate(0) translate(4 133)">
<title>Transform.hpp</title>
<!-- Node6 -->
<g id="node1" class="node"><title>Node6</title>
<polygon fill="#bfbfbf" stroke="black" points="397.752,-110.5 397.752,-128.5 478.41,-128.5 478.41,-110.5 397.752,-110.5"/>
<text text-anchor="middle" x="438.081" y="-116.5" font-family="Helvetica,sans-Serif" font-size="10.00">Transform.hpp</text>
</g>
<!-- Node7 -->
<g id="node2" class="node"><title>Node7</title>
<g id="a_node2"><a xlink:href="_audio_source_8hpp.html" target="_top" xlink:title="AudioSource.hpp">
<polygon fill="none" stroke="black" points="93.7192,-55.5 93.7192,-73.5 186.443,-73.5 186.443,-55.5 93.7192,-55.5"/>
<text text-anchor="middle" x="140.081" y="-61.5" font-family="Helvetica,sans-Serif" font-size="10.00">AudioSource.hpp</text>
</a>
</g>
</g>
<!-- Node6&#45;&gt;Node7 -->
<g id="edge1" class="edge"><title>Node6&#45;&gt;Node7</title>
<path fill="none" stroke="midnightblue" d="M387.414,-109.489C330.735,-99.4082 239.759,-83.228 185.369,-73.5545"/>
<polygon fill="midnightblue" stroke="midnightblue" points="387.123,-112.992 397.581,-111.297 388.349,-106.1 387.123,-112.992"/>
</g>
<!-- Node9 -->
<g id="node4" class="node"><title>Node9</title>
<g id="a_node4"><a xlink:href="_audio_source_8cpp.html" target="_top" xlink:title="AudioSource.cpp">
<polygon fill="none" stroke="black" points="0,-0.5 0,-18.5 92.1621,-18.5 92.1621,-0.5 0,-0.5"/>
<text text-anchor="middle" x="46.0811" y="-6.5" font-family="Helvetica,sans-Serif" font-size="10.00">AudioSource.cpp</text>
</a>
</g>
</g>
<!-- Node6&#45;&gt;Node9 -->
<g id="edge5" class="edge"><title>Node6&#45;&gt;Node9</title>
<path fill="none" stroke="midnightblue" d="M387.457,-117.426C302.08,-114.754 133.982,-105.531 85.0811,-74 64.6395,-60.8193 53.1885,-32.7518 48.5475,-18.7709"/>
<polygon fill="midnightblue" stroke="midnightblue" points="387.595,-120.931 397.693,-117.727 387.801,-113.934 387.595,-120.931"/>
</g>
<!-- Node10 -->
<g id="node5" class="node"><title>Node10</title>
<g id="a_node5"><a xlink:href="_engine_8cpp.html" target="_top" xlink:title="Engine.cpp">
<polygon fill="none" stroke="black" points="188.062,-0.5 188.062,-18.5 254.101,-18.5 254.101,-0.5 188.062,-0.5"/>
<text text-anchor="middle" x="221.081" y="-6.5" font-family="Helvetica,sans-Serif" font-size="10.00">Engine.cpp</text>
</a>
</g>
</g>
<!-- Node6&#45;&gt;Node10 -->
<g id="edge7" class="edge"><title>Node6&#45;&gt;Node10</title>
<path fill="none" stroke="midnightblue" d="M387.522,-113.879C333.923,-107.914 254.141,-95.6364 233.081,-74 218.525,-59.0463 218.786,-32.301 220.017,-18.7927"/>
<polygon fill="midnightblue" stroke="midnightblue" points="387.219,-117.366 397.536,-114.954 387.967,-110.406 387.219,-117.366"/>
</g>
<!-- Node11 -->
<g id="node6" class="node"><title>Node11</title>
<g id="a_node6"><a xlink:href="_camera_handler_8cpp.html" target="_top" xlink:title="CameraHandler.cpp">
<polygon fill="none" stroke="black" points="443.611,-55.5 443.611,-73.5 548.551,-73.5 548.551,-55.5 443.611,-55.5"/>
<text text-anchor="middle" x="496.081" y="-61.5" font-family="Helvetica,sans-Serif" font-size="10.00">CameraHandler.cpp</text>
</a>
</g>
</g>
<!-- Node6&#45;&gt;Node11 -->
<g id="edge6" class="edge"><title>Node6&#45;&gt;Node11</title>
<path fill="none" stroke="midnightblue" d="M454.609,-103.397C465.239,-93.6833 478.63,-81.4466 487.272,-73.5496"/>
<polygon fill="midnightblue" stroke="midnightblue" points="452.165,-100.889 447.144,-110.219 456.887,-106.057 452.165,-100.889"/>
</g>
<!-- Node12 -->
<g id="node7" class="node"><title>Node12</title>
<g id="a_node7"><a xlink:href="_renderer_8hpp.html" target="_top" xlink:title="Renderer.hpp">
<polygon fill="none" stroke="black" points="241.778,-55.5 241.778,-73.5 318.384,-73.5 318.384,-55.5 241.778,-55.5"/>
<text text-anchor="middle" x="280.081" y="-61.5" font-family="Helvetica,sans-Serif" font-size="10.00">Renderer.hpp</text>
</a>
</g>
</g>
<!-- Node6&#45;&gt;Node12 -->
<g id="edge8" class="edge"><title>Node6&#45;&gt;Node12</title>
<path fill="none" stroke="midnightblue" d="M404.412,-107.206C374.259,-97.0914 330.789,-82.5095 304.044,-73.5383"/>
<polygon fill="midnightblue" stroke="midnightblue" points="403.49,-110.588 414.084,-110.45 405.717,-103.952 403.49,-110.588"/>
</g>
<!-- Node14 -->
<g id="node9" class="node"><title>Node14</title>
<g id="a_node9"><a xlink:href="_light_source_8hpp.html" target="_top" xlink:title="LightSource.hpp">
<polygon fill="none" stroke="black" points="336.665,-55.5 336.665,-73.5 425.497,-73.5 425.497,-55.5 336.665,-55.5"/>
<text text-anchor="middle" x="381.081" y="-61.5" font-family="Helvetica,sans-Serif" font-size="10.00">LightSource.hpp</text>
</a>
</g>
</g>
<!-- Node6&#45;&gt;Node14 -->
<g id="edge11" class="edge"><title>Node6&#45;&gt;Node14</title>
<path fill="none" stroke="midnightblue" d="M421.838,-103.397C411.391,-93.6833 398.231,-81.4466 389.738,-73.5496"/>
<polygon fill="midnightblue" stroke="midnightblue" points="419.468,-105.972 429.175,-110.219 424.235,-100.846 419.468,-105.972"/>
</g>
<!-- Node16 -->
<g id="node11" class="node"><title>Node16</title>
<g id="a_node11"><a xlink:href="_game_object_8cpp.html" target="_top" xlink:title="GameObject.cpp">
<polygon fill="none" stroke="black" points="566.564,-55.5 566.564,-73.5 657.598,-73.5 657.598,-55.5 566.564,-55.5"/>
<text text-anchor="middle" x="612.081" y="-61.5" font-family="Helvetica,sans-Serif" font-size="10.00">GameObject.cpp</text>
</a>
</g>
</g>
<!-- Node6&#45;&gt;Node16 -->
<g id="edge14" class="edge"><title>Node6&#45;&gt;Node16</title>
<path fill="none" stroke="midnightblue" d="M474.296,-107.469C507.532,-97.3454 555.982,-82.5875 585.691,-73.5383"/>
<polygon fill="midnightblue" stroke="midnightblue" points="473.054,-104.188 464.508,-110.45 475.094,-110.885 473.054,-104.188"/>
</g>
<!-- Node17 -->
<g id="node12" class="node"><title>Node17</title>
<g id="a_node12"><a xlink:href="_particle_controller_8cpp.html" target="_top" xlink:title="ParticleController.cpp">
<polygon fill="none" stroke="black" points="675.557,-55.5 675.557,-73.5 786.605,-73.5 786.605,-55.5 675.557,-55.5"/>
<text text-anchor="middle" x="731.081" y="-61.5" font-family="Helvetica,sans-Serif" font-size="10.00">ParticleController.cpp</text>
</a>
</g>
</g>
<!-- Node6&#45;&gt;Node17 -->
<g id="edge15" class="edge"><title>Node6&#45;&gt;Node17</title>
<path fill="none" stroke="midnightblue" d="M488.537,-109.373C544.379,-99.272 633.506,-83.15 686.757,-73.5176"/>
<polygon fill="midnightblue" stroke="midnightblue" points="487.731,-105.962 478.514,-111.186 488.977,-112.85 487.731,-105.962"/>
</g>
<!-- Node18 -->
<g id="node13" class="node"><title>Node18</title>
<g id="a_node13"><a xlink:href="_rigidbody_8cpp.html" target="_top" xlink:title="Rigidbody.cpp">
<polygon fill="none" stroke="black" points="804.763,-55.5 804.763,-73.5 883.399,-73.5 883.399,-55.5 804.763,-55.5"/>
<text text-anchor="middle" x="844.081" y="-61.5" font-family="Helvetica,sans-Serif" font-size="10.00">Rigidbody.cpp</text>
</a>
</g>
</g>
<!-- Node6&#45;&gt;Node18 -->
<g id="edge16" class="edge"><title>Node6&#45;&gt;Node18</title>
<path fill="none" stroke="midnightblue" d="M488.656,-113.046C558.099,-105.367 686.805,-90.4558 796.081,-74 798.843,-73.5841 801.69,-73.1342 804.555,-72.666"/>
<polygon fill="midnightblue" stroke="midnightblue" points="487.997,-109.597 478.44,-114.17 488.763,-116.555 487.997,-109.597"/>
</g>
<!-- Node19 -->
<g id="node14" class="node"><title>Node19</title>
<g id="a_node14"><a xlink:href="_transform_8cpp.html" target="_top" xlink:title="Transform.cpp">
<polygon fill="none" stroke="black" points="901.033,-55.5 901.033,-73.5 981.129,-73.5 981.129,-55.5 901.033,-55.5"/>
<text text-anchor="middle" x="941.081" y="-61.5" font-family="Helvetica,sans-Serif" font-size="10.00">Transform.cpp</text>
</a>
</g>
</g>
<!-- Node6&#45;&gt;Node19 -->
<g id="edge17" class="edge"><title>Node6&#45;&gt;Node19</title>
<path fill="none" stroke="midnightblue" d="M488.62,-114.776C572.603,-108.311 746.115,-93.7863 892.081,-74 894.99,-73.6057 897.991,-73.1662 901.007,-72.7004"/>
<polygon fill="midnightblue" stroke="midnightblue" points="488.291,-111.29 478.587,-115.542 488.825,-118.27 488.291,-111.29"/>
</g>
<!-- Node8 -->
<g id="node3" class="node"><title>Node8</title>
<g id="a_node3"><a xlink:href="_audio_8cpp.html" target="_top" xlink:title="Audio.cpp">
<polygon fill="none" stroke="black" points="109.842,-0.5 109.842,-18.5 170.32,-18.5 170.32,-0.5 109.842,-0.5"/>
<text text-anchor="middle" x="140.081" y="-6.5" font-family="Helvetica,sans-Serif" font-size="10.00">Audio.cpp</text>
</a>
</g>
</g>
<!-- Node7&#45;&gt;Node8 -->
<g id="edge2" class="edge"><title>Node7&#45;&gt;Node8</title>
<path fill="none" stroke="midnightblue" d="M140.081,-45.1746C140.081,-36.0945 140.081,-25.5949 140.081,-18.5496"/>
<polygon fill="midnightblue" stroke="midnightblue" points="136.581,-45.2187 140.081,-55.2188 143.581,-45.2188 136.581,-45.2187"/>
</g>
<!-- Node7&#45;&gt;Node9 -->
<g id="edge3" class="edge"><title>Node7&#45;&gt;Node9</title>
<path fill="none" stroke="midnightblue" d="M116.719,-50.3277C99.0857,-40.3856 75.4513,-27.0598 60.492,-18.6253"/>
<polygon fill="midnightblue" stroke="midnightblue" points="115.375,-53.5878 125.804,-55.4504 118.813,-47.4902 115.375,-53.5878"/>
</g>
<!-- Node7&#45;&gt;Node10 -->
<g id="edge4" class="edge"><title>Node7&#45;&gt;Node10</title>
<path fill="none" stroke="midnightblue" d="M161.062,-49.7719C176.159,-39.8937 196.011,-26.9036 208.663,-18.6253"/>
<polygon fill="midnightblue" stroke="midnightblue" points="158.835,-47.0464 152.383,-55.4504 162.667,-52.9039 158.835,-47.0464"/>
</g>
<!-- Node12&#45;&gt;Node10 -->
<g id="edge9" class="edge"><title>Node12&#45;&gt;Node10</title>
<path fill="none" stroke="midnightblue" d="M263.54,-48.6408C252.718,-38.9201 238.994,-26.5913 230.126,-18.6253"/>
<polygon fill="midnightblue" stroke="midnightblue" points="261.342,-51.3715 271.12,-55.4504 266.02,-46.164 261.342,-51.3715"/>
</g>
<!-- Node13 -->
<g id="node8" class="node"><title>Node13</title>
<g id="a_node8"><a xlink:href="_renderer_8cpp.html" target="_top" xlink:title="Renderer.cpp">
<polygon fill="none" stroke="black" points="272.059,-0.5 272.059,-18.5 348.103,-18.5 348.103,-0.5 272.059,-0.5"/>
<text text-anchor="middle" x="310.081" y="-6.5" font-family="Helvetica,sans-Serif" font-size="10.00">Renderer.cpp</text>
</a>
</g>
</g>
<!-- Node12&#45;&gt;Node13 -->
<g id="edge10" class="edge"><title>Node12&#45;&gt;Node13</title>
<path fill="none" stroke="midnightblue" d="M289.781,-46.3633C295.067,-37.0242 301.361,-25.9046 305.525,-18.5496"/>
<polygon fill="midnightblue" stroke="midnightblue" points="286.649,-44.7921 284.769,-55.2188 292.74,-48.2403 286.649,-44.7921"/>
</g>
<!-- Node14&#45;&gt;Node10 -->
<g id="edge12" class="edge"><title>Node14&#45;&gt;Node10</title>
<path fill="none" stroke="midnightblue" d="M346.986,-52.2061C316.451,-42.0914 272.431,-27.5095 245.348,-18.5383"/>
<polygon fill="midnightblue" stroke="midnightblue" points="346.187,-55.6284 356.78,-55.4504 348.388,-48.9834 346.187,-55.6284"/>
</g>
<!-- Node15 -->
<g id="node10" class="node"><title>Node15</title>
<g id="a_node10"><a xlink:href="_light_source_8cpp.html" target="_top" xlink:title="LightSource.cpp">
<polygon fill="none" stroke="black" points="365.946,-0.5 365.946,-18.5 454.216,-18.5 454.216,-0.5 365.946,-0.5"/>
<text text-anchor="middle" x="410.081" y="-6.5" font-family="Helvetica,sans-Serif" font-size="10.00">LightSource.cpp</text>
</a>
</g>
</g>
<!-- Node14&#45;&gt;Node15 -->
<g id="edge13" class="edge"><title>Node14&#45;&gt;Node15</title>
<path fill="none" stroke="midnightblue" d="M390.458,-46.3633C395.568,-37.0242 401.652,-25.9046 405.677,-18.5496"/>
<polygon fill="midnightblue" stroke="midnightblue" points="387.342,-44.7661 385.612,-55.2188 393.483,-48.1262 387.342,-44.7661"/>
</g>
</g>
</svg>
