<?xml version="1.0" encoding="UTF-8" standalone="no"?>
<!DOCTYPE svg PUBLIC "-//W3C//DTD SVG 1.1//EN"
 "http://www.w3.org/Graphics/SVG/1.1/DTD/svg11.dtd">
<!-- Generated by graphviz version 2.38.0 (20140413.2041)
 -->
<!-- Title: Transform.cpp Pages: 1 -->
<svg width="823pt" height="192pt"
 viewBox="0.00 0.00 823.32 192.00" xmlns="http://www.w3.org/2000/svg" xmlns:xlink="http://www.w3.org/1999/xlink">
<g id="graph0" class="graph" transform="scale(1 1) rotate(0) translate(4 188)">
<title>Transform.cpp</title>
<!-- Node0 -->
<g id="node1" class="node"><title>Node0</title>
<polygon fill="#bfbfbf" stroke="black" points="350.533,-165.5 350.533,-183.5 430.629,-183.5 430.629,-165.5 350.533,-165.5"/>
<text text-anchor="middle" x="390.581" y="-171.5" font-family="Helvetica,sans-Serif" font-size="10.00">Transform.cpp</text>
</g>
<!-- Node1 -->
<g id="node2" class="node"><title>Node1</title>
<polygon fill="none" stroke="#bfbfbf" points="72.4087,-110.5 72.4087,-128.5 126.753,-128.5 126.753,-110.5 72.4087,-110.5"/>
<text text-anchor="middle" x="99.5811" y="-116.5" font-family="Helvetica,sans-Serif" font-size="10.00">iostream</text>
</g>
<!-- Node0&#45;&gt;Node1 -->
<g id="edge1" class="edge"><title>Node0&#45;&gt;Node1</title>
<path fill="none" stroke="midnightblue" d="M350.426,-167.132C302.214,-159.339 218.684,-145.371 136.978,-128.983"/>
<polygon fill="midnightblue" stroke="midnightblue" points="137.52,-125.522 127.025,-126.973 136.135,-132.384 137.52,-125.522"/>
</g>
<!-- Node2 -->
<g id="node3" class="node"><title>Node2</title>
<g id="a_node3"><a xlink:href="_transform_8hpp.html" target="_top" xlink:title="Transform.hpp">
<polygon fill="none" stroke="black" points="145.252,-110.5 145.252,-128.5 225.91,-128.5 225.91,-110.5 145.252,-110.5"/>
<text text-anchor="middle" x="185.581" y="-116.5" font-family="Helvetica,sans-Serif" font-size="10.00">Transform.hpp</text>
</a>
</g>
</g>
<!-- Node0&#45;&gt;Node2 -->
<g id="edge2" class="edge"><title>Node0&#45;&gt;Node2</title>
<path fill="none" stroke="midnightblue" d="M359.446,-165.45C323.898,-156.26 265.614,-141.192 226.441,-131.064"/>
<polygon fill="midnightblue" stroke="midnightblue" points="227.23,-127.653 216.673,-128.538 225.478,-134.43 227.23,-127.653"/>
</g>
<!-- Node8 -->
<g id="node9" class="node"><title>Node8</title>
<polygon fill="none" stroke="#bfbfbf" points="243.929,-110.5 243.929,-128.5 397.233,-128.5 397.233,-110.5 243.929,-110.5"/>
<text text-anchor="middle" x="320.581" y="-116.5" font-family="Helvetica,sans-Serif" font-size="10.00">SRE/SimpleRenderEngine.hpp</text>
</g>
<!-- Node0&#45;&gt;Node8 -->
<g id="edge9" class="edge"><title>Node0&#45;&gt;Node8</title>
<path fill="none" stroke="midnightblue" d="M379.95,-165.45C369.26,-157.357 352.549,-144.704 339.576,-134.882"/>
<polygon fill="midnightblue" stroke="midnightblue" points="341.398,-131.871 331.313,-128.625 337.172,-137.452 341.398,-131.871"/>
</g>
<!-- Node9 -->
<g id="node10" class="node"><title>Node9</title>
<polygon fill="none" stroke="#bfbfbf" points="415.33,-110.5 415.33,-128.5 505.832,-128.5 505.832,-110.5 415.33,-110.5"/>
<text text-anchor="middle" x="460.581" y="-116.5" font-family="Helvetica,sans-Serif" font-size="10.00">SRE/Shader.hpp</text>
</g>
<!-- Node0&#45;&gt;Node9 -->
<g id="edge10" class="edge"><title>Node0&#45;&gt;Node9</title>
<path fill="none" stroke="midnightblue" d="M401.213,-165.45C411.902,-157.357 428.613,-144.704 441.586,-134.882"/>
<polygon fill="midnightblue" stroke="midnightblue" points="443.99,-137.452 449.85,-128.625 439.764,-131.871 443.99,-137.452"/>
</g>
<!-- Node10 -->
<g id="node11" class="node"><title>Node10</title>
<polygon fill="none" stroke="#bfbfbf" points="523.712,-110.5 523.712,-128.5 651.45,-128.5 651.45,-110.5 523.712,-110.5"/>
<text text-anchor="middle" x="587.581" y="-116.5" font-family="Helvetica,sans-Serif" font-size="10.00">glm/gtx/euler_angles.hpp</text>
</g>
<!-- Node0&#45;&gt;Node10 -->
<g id="edge11" class="edge"><title>Node0&#45;&gt;Node10</title>
<path fill="none" stroke="midnightblue" d="M420.501,-165.45C454.445,-156.318 509.958,-141.383 547.594,-131.258"/>
<polygon fill="midnightblue" stroke="midnightblue" points="548.955,-134.516 557.703,-128.538 547.137,-127.757 548.955,-134.516"/>
</g>
<!-- Node11 -->
<g id="node12" class="node"><title>Node11</title>
<polygon fill="none" stroke="#bfbfbf" points="669.837,-110.5 669.837,-128.5 815.325,-128.5 815.325,-110.5 669.837,-110.5"/>
<text text-anchor="middle" x="742.581" y="-116.5" font-family="Helvetica,sans-Serif" font-size="10.00">glm/gtc/matrix_transform.hpp</text>
</g>
<!-- Node0&#45;&gt;Node11 -->
<g id="edge12" class="edge"><title>Node0&#45;&gt;Node11</title>
<path fill="none" stroke="midnightblue" d="M430.96,-167.42C491.632,-158.285 606.863,-140.935 678.923,-130.085"/>
<polygon fill="midnightblue" stroke="midnightblue" points="679.863,-133.483 689.23,-128.533 678.821,-126.561 679.863,-133.483"/>
</g>
<!-- Node3 -->
<g id="node4" class="node"><title>Node3</title>
<g id="a_node4"><a xlink:href="_component_8hpp.html" target="_top" xlink:title="Component.hpp">
<polygon fill="none" stroke="black" points="0,-55.5 0,-73.5 87.1621,-73.5 87.1621,-55.5 0,-55.5"/>
<text text-anchor="middle" x="43.5811" y="-61.5" font-family="Helvetica,sans-Serif" font-size="10.00">Component.hpp</text>
</a>
</g>
</g>
<!-- Node2&#45;&gt;Node3 -->
<g id="edge3" class="edge"><title>Node2&#45;&gt;Node3</title>
<path fill="none" stroke="midnightblue" d="M164.014,-110.45C140.244,-101.578 101.798,-87.2288 74.7513,-77.134"/>
<polygon fill="midnightblue" stroke="midnightblue" points="75.9434,-73.8431 65.3508,-73.6253 73.4956,-80.4012 75.9434,-73.8431"/>
</g>
<!-- Node4 -->
<g id="node5" class="node"><title>Node4</title>
<polygon fill="none" stroke="#bfbfbf" points="59.3545,-0.5 59.3545,-18.5 99.8076,-18.5 99.8076,-0.5 59.3545,-0.5"/>
<text text-anchor="middle" x="79.5811" y="-6.5" font-family="Helvetica,sans-Serif" font-size="10.00">string</text>
</g>
<!-- Node2&#45;&gt;Node4 -->
<g id="edge7" class="edge"><title>Node2&#45;&gt;Node4</title>
<path fill="none" stroke="midnightblue" d="M175.437,-110.361C164.871,-101.723 148.017,-87.4853 134.581,-74 119.359,-58.722 103.371,-39.9066 92.5809,-26.7382"/>
<polygon fill="midnightblue" stroke="midnightblue" points="95.0304,-24.2017 86.0148,-18.6366 89.5922,-28.6092 95.0304,-24.2017"/>
</g>
<!-- Node5 -->
<g id="node6" class="node"><title>Node5</title>
<polygon fill="none" stroke="#bfbfbf" points="143.953,-55.5 143.953,-73.5 227.209,-73.5 227.209,-55.5 143.953,-55.5"/>
<text text-anchor="middle" x="185.581" y="-61.5" font-family="Helvetica,sans-Serif" font-size="10.00">SRE/Mesh.hpp</text>
</g>
<!-- Node2&#45;&gt;Node5 -->
<g id="edge5" class="edge"><title>Node2&#45;&gt;Node5</title>
<path fill="none" stroke="midnightblue" d="M185.581,-110.219C185.581,-103.177 185.581,-92.8083 185.581,-83.8277"/>
<polygon fill="midnightblue" stroke="midnightblue" points="189.081,-83.5495 185.581,-73.5496 182.081,-83.5496 189.081,-83.5495"/>
</g>
<!-- Node6 -->
<g id="node7" class="node"><title>Node6</title>
<polygon fill="none" stroke="#bfbfbf" points="245.347,-55.5 245.347,-73.5 315.815,-73.5 315.815,-55.5 245.347,-55.5"/>
<text text-anchor="middle" x="280.581" y="-61.5" font-family="Helvetica,sans-Serif" font-size="10.00">glm/glm.hpp</text>
</g>
<!-- Node2&#45;&gt;Node6 -->
<g id="edge6" class="edge"><title>Node2&#45;&gt;Node6</title>
<path fill="none" stroke="midnightblue" d="M200.01,-110.45C215.075,-102.045 238.953,-88.7241 256.81,-78.7618"/>
<polygon fill="midnightblue" stroke="midnightblue" points="258.989,-81.5539 266.017,-73.6253 255.579,-75.4409 258.989,-81.5539"/>
</g>
<!-- Node7 -->
<g id="node8" class="node"><title>Node7</title>
<polygon fill="none" stroke="#bfbfbf" points="333.965,-55.5 333.965,-73.5 377.197,-73.5 377.197,-55.5 333.965,-55.5"/>
<text text-anchor="middle" x="355.581" y="-61.5" font-family="Helvetica,sans-Serif" font-size="10.00">vector</text>
</g>
<!-- Node2&#45;&gt;Node7 -->
<g id="edge8" class="edge"><title>Node2&#45;&gt;Node7</title>
<path fill="none" stroke="midnightblue" d="M211.4,-110.45C241.573,-101.044 291.498,-85.4789 323.965,-75.3569"/>
<polygon fill="midnightblue" stroke="midnightblue" points="325.34,-78.5942 333.845,-72.2764 323.257,-71.9115 325.34,-78.5942"/>
</g>
<!-- Node3&#45;&gt;Node4 -->
<g id="edge4" class="edge"><title>Node3&#45;&gt;Node4</title>
<path fill="none" stroke="midnightblue" d="M49.2061,-55.2188C54.3081,-47.7074 61.9811,-36.411 68.3385,-27.0515"/>
<polygon fill="midnightblue" stroke="midnightblue" points="71.3898,-28.7883 74.1134,-18.5496 65.5993,-24.8551 71.3898,-28.7883"/>
</g>
</g>
</svg>
