<?xml version="1.0" encoding="UTF-8" standalone="no"?>
<!DOCTYPE svg PUBLIC "-//W3C//DTD SVG 1.1//EN"
 "http://www.w3.org/Graphics/SVG/1.1/DTD/svg11.dtd">
<!-- Generated by graphviz version 2.38.0 (20140413.2041)
 -->
<!-- Title: Utility.h Pages: 1 -->
<svg width="168pt" height="82pt"
 viewBox="0.00 0.00 167.93 82.00" xmlns="http://www.w3.org/2000/svg" xmlns:xlink="http://www.w3.org/1999/xlink">
<g id="graph0" class="graph" transform="scale(1 1) rotate(0) translate(4 78)">
<title>Utility.h</title>
<!-- Node2 -->
<g id="node1" class="node"><title>Node2</title>
<polygon fill="#bfbfbf" stroke="black" points="61.605,-55.5 61.605,-73.5 109.651,-73.5 109.651,-55.5 61.605,-55.5"/>
<text text-anchor="middle" x="85.6279" y="-61.5" font-family="Helvetica,sans-Serif" font-size="10.00">Utility.h</text>
</g>
<!-- Node3 -->
<g id="node2" class="node"><title>Node3</title>
<g id="a_node2"><a xlink:href="_sprite_atlas_8cpp.html" target="_top" xlink:title="SpriteAtlas.cpp">
<polygon fill="none" stroke="black" points="0,-0.5 0,-18.5 83.2559,-18.5 83.2559,-0.5 0,-0.5"/>
<text text-anchor="middle" x="41.6279" y="-6.5" font-family="Helvetica,sans-Serif" font-size="10.00">SpriteAtlas.cpp</text>
</a>
</g>
</g>
<!-- Node2&#45;&gt;Node3 -->
<g id="edge1" class="edge"><title>Node2&#45;&gt;Node3</title>
<path fill="none" stroke="midnightblue" d="M72.1312,-47.2426C64.2342,-37.7302 54.6095,-26.1369 48.3106,-18.5496"/>
<polygon fill="midnightblue" stroke="midnightblue" points="69.6724,-49.7603 78.7529,-55.2188 75.0583,-45.289 69.6724,-49.7603"/>
</g>
<!-- Node4 -->
<g id="node3" class="node"><title>Node4</title>
<g id="a_node3"><a xlink:href="_utility_8cpp.html" target="_top" xlink:title="Utility.cpp">
<polygon fill="none" stroke="black" points="101.324,-0.5 101.324,-18.5 159.932,-18.5 159.932,-0.5 101.324,-0.5"/>
<text text-anchor="middle" x="130.628" y="-6.5" font-family="Helvetica,sans-Serif" font-size="10.00">Utility.cpp</text>
</a>
</g>
</g>
<!-- Node2&#45;&gt;Node4 -->
<g id="edge2" class="edge"><title>Node2&#45;&gt;Node4</title>
<path fill="none" stroke="midnightblue" d="M99.1847,-47.5331C107.307,-37.9673 117.286,-26.2143 123.793,-18.5496"/>
<polygon fill="midnightblue" stroke="midnightblue" points="96.4635,-45.3305 92.6592,-55.2188 101.8,-49.8611 96.4635,-45.3305"/>
</g>
</g>
</svg>
