<?xml version="1.0" encoding="UTF-8" standalone="no"?>
<!DOCTYPE svg PUBLIC "-//W3C//DTD SVG 1.1//EN"
 "http://www.w3.org/Graphics/SVG/1.1/DTD/svg11.dtd">
<!-- Generated by graphviz version 2.38.0 (20140413.2041)
 -->
<!-- Title: Utility.cpp Pages: 1 -->
<svg width="265pt" height="137pt"
 viewBox="0.00 0.00 264.80 137.00" xmlns="http://www.w3.org/2000/svg" xmlns:xlink="http://www.w3.org/1999/xlink">
<g id="graph0" class="graph" transform="scale(1 1) rotate(0) translate(4 133)">
<title>Utility.cpp</title>
<!-- Node0 -->
<g id="node1" class="node"><title>Node0</title>
<polygon fill="#bfbfbf" stroke="black" points="98.7192,-110.5 98.7192,-128.5 157.327,-128.5 157.327,-110.5 98.7192,-110.5"/>
<text text-anchor="middle" x="128.023" y="-116.5" font-family="Helvetica,sans-Serif" font-size="10.00">Utility.cpp</text>
</g>
<!-- Node1 -->
<g id="node2" class="node"><title>Node1</title>
<g id="a_node2"><a xlink:href="_utility_8h.html" target="_top" xlink:title="Utility.h">
<polygon fill="none" stroke="black" points="0,-55.5 0,-73.5 48.0459,-73.5 48.0459,-55.5 0,-55.5"/>
<text text-anchor="middle" x="24.0229" y="-61.5" font-family="Helvetica,sans-Serif" font-size="10.00">Utility.h</text>
</a>
</g>
</g>
<!-- Node0&#45;&gt;Node1 -->
<g id="edge1" class="edge"><title>Node0&#45;&gt;Node1</title>
<path fill="none" stroke="midnightblue" d="M112.228,-110.45C95.4291,-101.89 68.6234,-88.2291 48.967,-78.2119"/>
<polygon fill="midnightblue" stroke="midnightblue" points="50.4659,-75.0475 39.967,-73.6253 47.2875,-81.2843 50.4659,-75.0475"/>
</g>
<!-- Node3 -->
<g id="node4" class="node"><title>Node3</title>
<polygon fill="none" stroke="#bfbfbf" points="65.8506,-55.5 65.8506,-73.5 120.195,-73.5 120.195,-55.5 65.8506,-55.5"/>
<text text-anchor="middle" x="93.0229" y="-61.5" font-family="Helvetica,sans-Serif" font-size="10.00">iostream</text>
</g>
<!-- Node0&#45;&gt;Node3 -->
<g id="edge3" class="edge"><title>Node0&#45;&gt;Node3</title>
<path fill="none" stroke="midnightblue" d="M122.554,-110.219C117.594,-102.707 110.134,-91.411 103.953,-82.0515"/>
<polygon fill="midnightblue" stroke="midnightblue" points="106.77,-79.9655 98.3387,-73.5496 100.929,-83.823 106.77,-79.9655"/>
</g>
<!-- Node4 -->
<g id="node5" class="node"><title>Node4</title>
<polygon fill="none" stroke="#bfbfbf" points="138.353,-55.5 138.353,-73.5 187.693,-73.5 187.693,-55.5 138.353,-55.5"/>
<text text-anchor="middle" x="163.023" y="-61.5" font-family="Helvetica,sans-Serif" font-size="10.00">fstream</text>
</g>
<!-- Node0&#45;&gt;Node4 -->
<g id="edge4" class="edge"><title>Node0&#45;&gt;Node4</title>
<path fill="none" stroke="midnightblue" d="M133.492,-110.219C138.452,-102.707 145.912,-91.411 152.093,-82.0515"/>
<polygon fill="midnightblue" stroke="midnightblue" points="155.117,-83.823 157.707,-73.5496 149.276,-79.9655 155.117,-83.823"/>
</g>
<!-- Node5 -->
<g id="node6" class="node"><title>Node5</title>
<polygon fill="none" stroke="#bfbfbf" points="205.242,-55.5 205.242,-73.5 256.804,-73.5 256.804,-55.5 205.242,-55.5"/>
<text text-anchor="middle" x="231.023" y="-61.5" font-family="Helvetica,sans-Serif" font-size="10.00">sstream</text>
</g>
<!-- Node0&#45;&gt;Node5 -->
<g id="edge5" class="edge"><title>Node0&#45;&gt;Node5</title>
<path fill="none" stroke="midnightblue" d="M143.666,-110.45C160.303,-101.89 186.851,-88.2291 206.319,-78.2119"/>
<polygon fill="midnightblue" stroke="midnightblue" points="207.942,-81.313 215.232,-73.6253 204.739,-75.0886 207.942,-81.313"/>
</g>
<!-- Node2 -->
<g id="node3" class="node"><title>Node2</title>
<polygon fill="none" stroke="#bfbfbf" points="3.79639,-0.5 3.79639,-18.5 44.2495,-18.5 44.2495,-0.5 3.79639,-0.5"/>
<text text-anchor="middle" x="24.0229" y="-6.5" font-family="Helvetica,sans-Serif" font-size="10.00">string</text>
</g>
<!-- Node1&#45;&gt;Node2 -->
<g id="edge2" class="edge"><title>Node1&#45;&gt;Node2</title>
<path fill="none" stroke="midnightblue" d="M24.0229,-55.2188C24.0229,-48.1769 24.0229,-37.8083 24.0229,-28.8277"/>
<polygon fill="midnightblue" stroke="midnightblue" points="27.523,-28.5495 24.0229,-18.5496 20.523,-28.5496 27.523,-28.5495"/>
</g>
</g>
</svg>
