<?xml version="1.0" encoding="UTF-8" standalone="no"?>
<!DOCTYPE svg PUBLIC "-//W3C//DTD SVG 1.1//EN"
 "http://www.w3.org/Graphics/SVG/1.1/DTD/svg11.dtd">
<!-- Generated by graphviz version 2.38.0 (20140413.2041)
 -->
<!-- Title: Engine::Instance Pages: 1 -->
<svg width="292pt" height="101pt"
 viewBox="0.00 0.00 292.24 101.00" xmlns="http://www.w3.org/2000/svg" xmlns:xlink="http://www.w3.org/1999/xlink">
<g id="graph0" class="graph" transform="scale(1 1) rotate(0) translate(4 97)">
<title>Engine::Instance</title>
<!-- Node10 -->
<g id="node1" class="node"><title>Node10</title>
<polygon fill="#bfbfbf" stroke="black" points="0,-37.5 0,-55.5 90.4971,-55.5 90.4971,-37.5 0,-37.5"/>
<text text-anchor="middle" x="45.2485" y="-43.5" font-family="Helvetica,sans-Serif" font-size="10.00">Engine::Instance</text>
</g>
<!-- Node11 -->
<g id="node2" class="node"><title>Node11</title>
<g id="a_node2"><a xlink:href="class_scene.html#abf41478c6b60d63bc3b2d3a01a0614d4" target="_top" xlink:title="Scene::addGameObject">
<polygon fill="none" stroke="black" points="144.004,-74.5 144.004,-92.5 266.733,-92.5 266.733,-74.5 144.004,-74.5"/>
<text text-anchor="middle" x="205.369" y="-80.5" font-family="Helvetica,sans-Serif" font-size="10.00">Scene::addGameObject</text>
</a>
</g>
</g>
<!-- Node10&#45;&gt;Node11 -->
<g id="edge1" class="edge"><title>Node10&#45;&gt;Node11</title>
<path fill="none" stroke="midnightblue" d="M94.1795,-57.8924C104.817,-60.4086 116.038,-63.0531 126.497,-65.5 139.062,-68.4397 152.775,-71.619 165.143,-74.476"/>
<polygon fill="midnightblue" stroke="midnightblue" points="94.7402,-54.4285 84.2028,-55.53 93.1272,-61.2401 94.7402,-54.4285"/>
</g>
<!-- Node12 -->
<g id="node3" class="node"><title>Node12</title>
<g id="a_node3"><a xlink:href="class_scene.html#a9e0e66d75a6ebb10c6a371e9de47fff7" target="_top" xlink:title="Scene::addExistingGameObject">
<polygon fill="none" stroke="black" points="126.497,-37.5 126.497,-55.5 284.24,-55.5 284.24,-37.5 126.497,-37.5"/>
<text text-anchor="middle" x="205.369" y="-43.5" font-family="Helvetica,sans-Serif" font-size="10.00">Scene::addExistingGameObject</text>
</a>
</g>
</g>
<!-- Node10&#45;&gt;Node12 -->
<g id="edge2" class="edge"><title>Node10&#45;&gt;Node12</title>
<path fill="none" stroke="midnightblue" d="M100.911,-46.5C109.15,-46.5 117.782,-46.5 126.396,-46.5"/>
<polygon fill="midnightblue" stroke="midnightblue" points="100.715,-43.0001 90.7146,-46.5 100.715,-50.0001 100.715,-43.0001"/>
</g>
<!-- Node13 -->
<g id="node4" class="node"><title>Node13</title>
<g id="a_node4"><a xlink:href="class_scene.html#aad5427fcdd330f65dc4e7b1e627afce4" target="_top" xlink:title="Scene::removeGameObject">
<polygon fill="none" stroke="black" points="135.674,-0.5 135.674,-18.5 275.063,-18.5 275.063,-0.5 135.674,-0.5"/>
<text text-anchor="middle" x="205.369" y="-6.5" font-family="Helvetica,sans-Serif" font-size="10.00">Scene::removeGameObject</text>
</a>
</g>
</g>
<!-- Node10&#45;&gt;Node13 -->
<g id="edge3" class="edge"><title>Node10&#45;&gt;Node13</title>
<path fill="none" stroke="midnightblue" d="M94.7648,-35.1472C117.582,-29.8079 144.411,-23.53 165.814,-18.5218"/>
<polygon fill="midnightblue" stroke="midnightblue" points="93.8686,-31.7623 84.9291,-37.4488 95.4635,-38.5782 93.8686,-31.7623"/>
</g>
</g>
</svg>
