<?xml version="1.0" encoding="UTF-8" standalone="no"?>
<!DOCTYPE svg PUBLIC "-//W3C//DTD SVG 1.1//EN"
 "http://www.w3.org/Graphics/SVG/1.1/DTD/svg11.dtd">
<!-- Generated by graphviz version 2.38.0 (20140413.2041)
 -->
<!-- Title: FooDraw2 Pages: 1 -->
<svg width="121pt" height="214pt"
 viewBox="0.00 0.00 120.99 214.00" xmlns="http://www.w3.org/2000/svg" xmlns:xlink="http://www.w3.org/1999/xlink">
<g id="graph0" class="graph" transform="scale(1 1) rotate(0) translate(4 210)">
<title>FooDraw2</title>
<!-- Node2 -->
<g id="node1" class="node"><title>Node2</title>
<polygon fill="#bfbfbf" stroke="black" points="0,-0.5 0,-114.5 112.987,-114.5 112.987,-0.5 0,-0.5"/>
<text text-anchor="middle" x="56.4937" y="-102.5" font-family="Helvetica,sans-Serif" font-size="10.00">FooDraw2</text>
<polyline fill="none" stroke="black" points="0,-96.5 112.987,-96.5 "/>
<text text-anchor="middle" x="56.4937" y="-84.5" font-family="Helvetica,sans-Serif" font-size="10.00"> </text>
<polyline fill="none" stroke="black" points="0,-78.5 112.987,-78.5 "/>
<text text-anchor="start" x="8" y="-66.5" font-family="Helvetica,sans-Serif" font-size="10.00">+ DrawPoint()</text>
<text text-anchor="start" x="8" y="-56.5" font-family="Helvetica,sans-Serif" font-size="10.00">+ DrawPolygon()</text>
<text text-anchor="start" x="8" y="-46.5" font-family="Helvetica,sans-Serif" font-size="10.00">+ DrawSolidPolygon()</text>
<text text-anchor="start" x="8" y="-36.5" font-family="Helvetica,sans-Serif" font-size="10.00">+ DrawCircle()</text>
<text text-anchor="start" x="8" y="-26.5" font-family="Helvetica,sans-Serif" font-size="10.00">+ DrawSolidCircle()</text>
<text text-anchor="start" x="8" y="-16.5" font-family="Helvetica,sans-Serif" font-size="10.00">+ DrawSegment()</text>
<text text-anchor="start" x="8" y="-6.5" font-family="Helvetica,sans-Serif" font-size="10.00">+ DrawTransform()</text>
</g>
<!-- Node3 -->
<g id="node2" class="node"><title>Node3</title>
<polygon fill="none" stroke="#bfbfbf" points="31.2646,-151.5 31.2646,-205.5 81.7227,-205.5 81.7227,-151.5 31.2646,-151.5"/>
<text text-anchor="middle" x="56.4937" y="-193.5" font-family="Helvetica,sans-Serif" font-size="10.00">b2Draw</text>
<polyline fill="none" stroke="#bfbfbf" points="31.2646,-187.5 81.7227,-187.5 "/>
<text text-anchor="middle" x="56.4937" y="-175.5" font-family="Helvetica,sans-Serif" font-size="10.00"> </text>
<polyline fill="none" stroke="#bfbfbf" points="31.2646,-169.5 81.7227,-169.5 "/>
<text text-anchor="middle" x="56.4937" y="-157.5" font-family="Helvetica,sans-Serif" font-size="10.00"> </text>
</g>
<!-- Node3&#45;&gt;Node2 -->
<g id="edge1" class="edge"><title>Node3&#45;&gt;Node2</title>
<path fill="none" stroke="midnightblue" d="M56.4937,-141.245C56.4937,-132.883 56.4937,-123.795 56.4937,-114.805"/>
<polygon fill="none" stroke="midnightblue" points="52.9938,-141.385 56.4937,-151.385 59.9938,-141.385 52.9938,-141.385"/>
</g>
</g>
</svg>
