<?xml version="1.0" encoding="UTF-8" standalone="no"?>
<!DOCTYPE svg PUBLIC "-//W3C//DTD SVG 1.1//EN"
 "http://www.w3.org/Graphics/SVG/1.1/DTD/svg11.dtd">
<!-- Generated by graphviz version 2.38.0 (20140413.2041)
 -->
<!-- Title: Component Pages: 1 -->
<svg width="811pt" height="495pt"
 viewBox="0.00 0.00 811.30 495.00" xmlns="http://www.w3.org/2000/svg" xmlns:xlink="http://www.w3.org/1999/xlink">
<g id="graph0" class="graph" transform="scale(1 1) rotate(0) translate(4 491)">
<title>Component</title>
<!-- Node0 -->
<g id="node1" class="node"><title>Node0</title>
<polygon fill="#bfbfbf" stroke="black" points="421.064,-392.5 421.064,-486.5 522.376,-486.5 522.376,-392.5 421.064,-392.5"/>
<text text-anchor="middle" x="471.72" y="-474.5" font-family="Helvetica,sans-Serif" font-size="10.00">Component</text>
<polyline fill="none" stroke="black" points="421.064,-468.5 522.376,-468.5 "/>
<text text-anchor="start" x="429.064" y="-456.5" font-family="Helvetica,sans-Serif" font-size="10.00"># gameObject</text>
<text text-anchor="start" x="429.064" y="-446.5" font-family="Helvetica,sans-Serif" font-size="10.00"># name</text>
<polyline fill="none" stroke="black" points="421.064,-440.5 522.376,-440.5 "/>
<text text-anchor="start" x="429.064" y="-428.5" font-family="Helvetica,sans-Serif" font-size="10.00">+ ~Component()</text>
<text text-anchor="start" x="429.064" y="-418.5" font-family="Helvetica,sans-Serif" font-size="10.00">+ getGameObject()</text>
<text text-anchor="start" x="429.064" y="-408.5" font-family="Helvetica,sans-Serif" font-size="10.00">+ getName()</text>
<text text-anchor="start" x="429.064" y="-398.5" font-family="Helvetica,sans-Serif" font-size="10.00"># Component()</text>
</g>
<!-- Node1 -->
<g id="node2" class="node"><title>Node1</title>
<g id="a_node2"><a xlink:href="class_audio_source.html" target="_top" xlink:title="{AudioSource\n||+ ~AudioSource()\l+ start()\l+ SetClip()\l+ PlayClip()\l+ SetListener()\l+ SetAudioPosition()\l+ SetLookPos()\l+ Stop()\l+ SetLoop()\l+ SetPause()\l+ SetVolume()\l+ SetMinDistance()\l+ SetMaxDistance()\l+ update()\l+ AddClip()\l+ Instance()\l# AudioSource()\l}">
<polygon fill="none" stroke="black" points="0,-131.5 0,-345.5 107.44,-345.5 107.44,-131.5 0,-131.5"/>
<text text-anchor="middle" x="53.7202" y="-333.5" font-family="Helvetica,sans-Serif" font-size="10.00">AudioSource</text>
<polyline fill="none" stroke="black" points="0,-327.5 107.44,-327.5 "/>
<text text-anchor="middle" x="53.7202" y="-315.5" font-family="Helvetica,sans-Serif" font-size="10.00"> </text>
<polyline fill="none" stroke="black" points="0,-309.5 107.44,-309.5 "/>
<text text-anchor="start" x="8" y="-297.5" font-family="Helvetica,sans-Serif" font-size="10.00">+ ~AudioSource()</text>
<text text-anchor="start" x="8" y="-287.5" font-family="Helvetica,sans-Serif" font-size="10.00">+ start()</text>
<text text-anchor="start" x="8" y="-277.5" font-family="Helvetica,sans-Serif" font-size="10.00">+ SetClip()</text>
<text text-anchor="start" x="8" y="-267.5" font-family="Helvetica,sans-Serif" font-size="10.00">+ PlayClip()</text>
<text text-anchor="start" x="8" y="-257.5" font-family="Helvetica,sans-Serif" font-size="10.00">+ SetListener()</text>
<text text-anchor="start" x="8" y="-247.5" font-family="Helvetica,sans-Serif" font-size="10.00">+ SetAudioPosition()</text>
<text text-anchor="start" x="8" y="-237.5" font-family="Helvetica,sans-Serif" font-size="10.00">+ SetLookPos()</text>
<text text-anchor="start" x="8" y="-227.5" font-family="Helvetica,sans-Serif" font-size="10.00">+ Stop()</text>
<text text-anchor="start" x="8" y="-217.5" font-family="Helvetica,sans-Serif" font-size="10.00">+ SetLoop()</text>
<text text-anchor="start" x="8" y="-207.5" font-family="Helvetica,sans-Serif" font-size="10.00">+ SetPause()</text>
<text text-anchor="start" x="8" y="-197.5" font-family="Helvetica,sans-Serif" font-size="10.00">+ SetVolume()</text>
<text text-anchor="start" x="8" y="-187.5" font-family="Helvetica,sans-Serif" font-size="10.00">+ SetMinDistance()</text>
<text text-anchor="start" x="8" y="-177.5" font-family="Helvetica,sans-Serif" font-size="10.00">+ SetMaxDistance()</text>
<text text-anchor="start" x="8" y="-167.5" font-family="Helvetica,sans-Serif" font-size="10.00">+ update()</text>
<text text-anchor="start" x="8" y="-157.5" font-family="Helvetica,sans-Serif" font-size="10.00">+ AddClip()</text>
<text text-anchor="start" x="8" y="-147.5" font-family="Helvetica,sans-Serif" font-size="10.00">+ Instance()</text>
<text text-anchor="start" x="8" y="-137.5" font-family="Helvetica,sans-Serif" font-size="10.00"># AudioSource()</text>
</a>
</g>
</g>
<!-- Node0&#45;&gt;Node1 -->
<g id="edge1" class="edge"><title>Node0&#45;&gt;Node1</title>
<path fill="none" stroke="midnightblue" d="M410.607,-439.02C334.351,-436.628 203.444,-422.161 116.72,-356 112.698,-352.932 108.902,-349.53 105.323,-345.876"/>
<polygon fill="none" stroke="midnightblue" points="410.909,-442.528 420.994,-439.281 411.086,-435.531 410.909,-442.528"/>
</g>
<!-- Node2 -->
<g id="node3" class="node"><title>Node2</title>
<g id="a_node3"><a xlink:href="class_light_source.html" target="_top" xlink:title="{LightSource\n|+ _light\l|+ ~LightSource()\l+ start()\l+ setDirectional()\l+ setDirection()\l+ setColor()\l+ setRange()\l+ update()\l# LightSource()\l}">
<polygon fill="none" stroke="black" points="125.791,-176.5 125.791,-300.5 217.65,-300.5 217.65,-176.5 125.791,-176.5"/>
<text text-anchor="middle" x="171.72" y="-288.5" font-family="Helvetica,sans-Serif" font-size="10.00">LightSource</text>
<polyline fill="none" stroke="black" points="125.791,-282.5 217.65,-282.5 "/>
<text text-anchor="start" x="133.791" y="-270.5" font-family="Helvetica,sans-Serif" font-size="10.00">+ _light</text>
<polyline fill="none" stroke="black" points="125.791,-264.5 217.65,-264.5 "/>
<text text-anchor="start" x="133.791" y="-252.5" font-family="Helvetica,sans-Serif" font-size="10.00">+ ~LightSource()</text>
<text text-anchor="start" x="133.791" y="-242.5" font-family="Helvetica,sans-Serif" font-size="10.00">+ start()</text>
<text text-anchor="start" x="133.791" y="-232.5" font-family="Helvetica,sans-Serif" font-size="10.00">+ setDirectional()</text>
<text text-anchor="start" x="133.791" y="-222.5" font-family="Helvetica,sans-Serif" font-size="10.00">+ setDirection()</text>
<text text-anchor="start" x="133.791" y="-212.5" font-family="Helvetica,sans-Serif" font-size="10.00">+ setColor()</text>
<text text-anchor="start" x="133.791" y="-202.5" font-family="Helvetica,sans-Serif" font-size="10.00">+ setRange()</text>
<text text-anchor="start" x="133.791" y="-192.5" font-family="Helvetica,sans-Serif" font-size="10.00">+ update()</text>
<text text-anchor="start" x="133.791" y="-182.5" font-family="Helvetica,sans-Serif" font-size="10.00"># LightSource()</text>
</a>
</g>
</g>
<!-- Node0&#45;&gt;Node2 -->
<g id="edge2" class="edge"><title>Node0&#45;&gt;Node2</title>
<path fill="none" stroke="midnightblue" d="M410.695,-431.542C356.595,-422.491 278.374,-401.972 226.72,-356 210.18,-341.279 198.207,-320.521 189.743,-300.597"/>
<polygon fill="none" stroke="midnightblue" points="410.415,-435.042 420.841,-433.153 411.513,-428.129 410.415,-435.042"/>
</g>
<!-- Node3 -->
<g id="node4" class="node"><title>Node3</title>
<g id="a_node4"><a xlink:href="class_particle_system.html" target="_top" xlink:title="{ParticleSystem\n|+ partSize\l+ tex\l|+ ParticleSystem()\l+ Start()\l+ emit()\l+ update()\l+ setFixedSizeMode()\l+ setRandomSizeMode()\l+ setInterpolSizeMode()\l+ setSplineSizeMode()\l+ render()\l+ setFixedColorMode()\l+ setRandomColorMode()\l+ setInterpolColorMode()\l+ setSplineColorMode()\l+ SetCircularRandEmit()\l+ SetCircularVelocity()\l+ SetVectorEmit()\l+ setupPhysics()\l+ GetEmitMethod()\l}">
<polygon fill="none" stroke="black" points="236.057,-121.5 236.057,-355.5 367.384,-355.5 367.384,-121.5 236.057,-121.5"/>
<text text-anchor="middle" x="301.72" y="-343.5" font-family="Helvetica,sans-Serif" font-size="10.00">ParticleSystem</text>
<polyline fill="none" stroke="black" points="236.057,-337.5 367.384,-337.5 "/>
<text text-anchor="start" x="244.057" y="-325.5" font-family="Helvetica,sans-Serif" font-size="10.00">+ partSize</text>
<text text-anchor="start" x="244.057" y="-315.5" font-family="Helvetica,sans-Serif" font-size="10.00">+ tex</text>
<polyline fill="none" stroke="black" points="236.057,-309.5 367.384,-309.5 "/>
<text text-anchor="start" x="244.057" y="-297.5" font-family="Helvetica,sans-Serif" font-size="10.00">+ ParticleSystem()</text>
<text text-anchor="start" x="244.057" y="-287.5" font-family="Helvetica,sans-Serif" font-size="10.00">+ Start()</text>
<text text-anchor="start" x="244.057" y="-277.5" font-family="Helvetica,sans-Serif" font-size="10.00">+ emit()</text>
<text text-anchor="start" x="244.057" y="-267.5" font-family="Helvetica,sans-Serif" font-size="10.00">+ update()</text>
<text text-anchor="start" x="244.057" y="-257.5" font-family="Helvetica,sans-Serif" font-size="10.00">+ setFixedSizeMode()</text>
<text text-anchor="start" x="244.057" y="-247.5" font-family="Helvetica,sans-Serif" font-size="10.00">+ setRandomSizeMode()</text>
<text text-anchor="start" x="244.057" y="-237.5" font-family="Helvetica,sans-Serif" font-size="10.00">+ setInterpolSizeMode()</text>
<text text-anchor="start" x="244.057" y="-227.5" font-family="Helvetica,sans-Serif" font-size="10.00">+ setSplineSizeMode()</text>
<text text-anchor="start" x="244.057" y="-217.5" font-family="Helvetica,sans-Serif" font-size="10.00">+ render()</text>
<text text-anchor="start" x="244.057" y="-207.5" font-family="Helvetica,sans-Serif" font-size="10.00">+ setFixedColorMode()</text>
<text text-anchor="start" x="244.057" y="-197.5" font-family="Helvetica,sans-Serif" font-size="10.00">+ setRandomColorMode()</text>
<text text-anchor="start" x="244.057" y="-187.5" font-family="Helvetica,sans-Serif" font-size="10.00">+ setInterpolColorMode()</text>
<text text-anchor="start" x="244.057" y="-177.5" font-family="Helvetica,sans-Serif" font-size="10.00">+ setSplineColorMode()</text>
<text text-anchor="start" x="244.057" y="-167.5" font-family="Helvetica,sans-Serif" font-size="10.00">+ SetCircularRandEmit()</text>
<text text-anchor="start" x="244.057" y="-157.5" font-family="Helvetica,sans-Serif" font-size="10.00">+ SetCircularVelocity()</text>
<text text-anchor="start" x="244.057" y="-147.5" font-family="Helvetica,sans-Serif" font-size="10.00">+ SetVectorEmit()</text>
<text text-anchor="start" x="244.057" y="-137.5" font-family="Helvetica,sans-Serif" font-size="10.00">+ setupPhysics()</text>
<text text-anchor="start" x="244.057" y="-127.5" font-family="Helvetica,sans-Serif" font-size="10.00">+ GetEmitMethod()</text>
</a>
</g>
</g>
<!-- Node0&#45;&gt;Node3 -->
<g id="edge3" class="edge"><title>Node0&#45;&gt;Node3</title>
<path fill="none" stroke="midnightblue" d="M413.082,-392.19C400.442,-380.978 387.617,-368.579 376.72,-356 373.57,-352.364 370.455,-348.584 367.388,-344.707"/>
<polygon fill="none" stroke="midnightblue" points="411.071,-395.079 420.91,-399.008 415.668,-389.801 411.071,-395.079"/>
</g>
<!-- Node4 -->
<g id="node5" class="node"><title>Node4</title>
<g id="a_node5"><a xlink:href="class_renderer.html" target="_top" xlink:title="{Renderer\n|+ mesh\l+ shader\l+ color\l|+ ~Renderer()\l+ draw()\l# Renderer()\l}">
<polygon fill="none" stroke="black" points="385.316,-191.5 385.316,-285.5 464.124,-285.5 464.124,-191.5 385.316,-191.5"/>
<text text-anchor="middle" x="424.72" y="-273.5" font-family="Helvetica,sans-Serif" font-size="10.00">Renderer</text>
<polyline fill="none" stroke="black" points="385.316,-267.5 464.124,-267.5 "/>
<text text-anchor="start" x="393.316" y="-255.5" font-family="Helvetica,sans-Serif" font-size="10.00">+ mesh</text>
<text text-anchor="start" x="393.316" y="-245.5" font-family="Helvetica,sans-Serif" font-size="10.00">+ shader</text>
<text text-anchor="start" x="393.316" y="-235.5" font-family="Helvetica,sans-Serif" font-size="10.00">+ color</text>
<polyline fill="none" stroke="black" points="385.316,-229.5 464.124,-229.5 "/>
<text text-anchor="start" x="393.316" y="-217.5" font-family="Helvetica,sans-Serif" font-size="10.00">+ ~Renderer()</text>
<text text-anchor="start" x="393.316" y="-207.5" font-family="Helvetica,sans-Serif" font-size="10.00">+ draw()</text>
<text text-anchor="start" x="393.316" y="-197.5" font-family="Helvetica,sans-Serif" font-size="10.00"># Renderer()</text>
</a>
</g>
</g>
<!-- Node0&#45;&gt;Node4 -->
<g id="edge4" class="edge"><title>Node0&#45;&gt;Node4</title>
<path fill="none" stroke="midnightblue" d="M458.443,-382.283C451.24,-351.785 442.445,-314.548 435.643,-285.749"/>
<polygon fill="none" stroke="midnightblue" points="455.114,-383.417 460.819,-392.345 461.927,-381.808 455.114,-383.417"/>
</g>
<!-- Node5 -->
<g id="node6" class="node"><title>Node5</title>
<g id="a_node6"><a xlink:href="class_rigidbody.html" target="_top" xlink:title="{Rigidbody\n|+ bd\l+ body\l|+ Setup()\l+ PreSolve()\l# Rigidbody()\l}">
<polygon fill="none" stroke="black" points="481.984,-196.5 481.984,-280.5 557.457,-280.5 557.457,-196.5 481.984,-196.5"/>
<text text-anchor="middle" x="519.72" y="-268.5" font-family="Helvetica,sans-Serif" font-size="10.00">Rigidbody</text>
<polyline fill="none" stroke="black" points="481.984,-262.5 557.457,-262.5 "/>
<text text-anchor="start" x="489.984" y="-250.5" font-family="Helvetica,sans-Serif" font-size="10.00">+ bd</text>
<text text-anchor="start" x="489.984" y="-240.5" font-family="Helvetica,sans-Serif" font-size="10.00">+ body</text>
<polyline fill="none" stroke="black" points="481.984,-234.5 557.457,-234.5 "/>
<text text-anchor="start" x="489.984" y="-222.5" font-family="Helvetica,sans-Serif" font-size="10.00">+ Setup()</text>
<text text-anchor="start" x="489.984" y="-212.5" font-family="Helvetica,sans-Serif" font-size="10.00">+ PreSolve()</text>
<text text-anchor="start" x="489.984" y="-202.5" font-family="Helvetica,sans-Serif" font-size="10.00"># Rigidbody()</text>
</a>
</g>
</g>
<!-- Node0&#45;&gt;Node5 -->
<g id="edge5" class="edge"><title>Node0&#45;&gt;Node5</title>
<path fill="none" stroke="midnightblue" d="M485.212,-382.565C493.021,-350.192 502.678,-310.153 509.789,-280.673"/>
<polygon fill="none" stroke="midnightblue" points="481.795,-381.803 482.853,-392.345 488.6,-383.445 481.795,-381.803"/>
</g>
<!-- Node6 -->
<g id="node7" class="node"><title>Node6</title>
<g id="a_node7"><a xlink:href="class_scriptable.html" target="_top" xlink:title="{Scriptable\n||+ Awake()\l+ Update()\l+ Start()\l+ OnCollisionEnter()\l+ OnCollisionExit()\l+ Awake()\l+ Update()\l+ Start()\l+ OnCollisionEnter()\l+ OnCollisionExit()\l# Scriptable()\l# Scriptable()\l}">
<polygon fill="none" stroke="black" points="575.564,-156.5 575.564,-320.5 681.876,-320.5 681.876,-156.5 575.564,-156.5"/>
<text text-anchor="middle" x="628.72" y="-308.5" font-family="Helvetica,sans-Serif" font-size="10.00">Scriptable</text>
<polyline fill="none" stroke="black" points="575.564,-302.5 681.876,-302.5 "/>
<text text-anchor="middle" x="628.72" y="-290.5" font-family="Helvetica,sans-Serif" font-size="10.00"> </text>
<polyline fill="none" stroke="black" points="575.564,-284.5 681.876,-284.5 "/>
<text text-anchor="start" x="583.564" y="-272.5" font-family="Helvetica,sans-Serif" font-size="10.00">+ Awake()</text>
<text text-anchor="start" x="583.564" y="-262.5" font-family="Helvetica,sans-Serif" font-size="10.00">+ Update()</text>
<text text-anchor="start" x="583.564" y="-252.5" font-family="Helvetica,sans-Serif" font-size="10.00">+ Start()</text>
<text text-anchor="start" x="583.564" y="-242.5" font-family="Helvetica,sans-Serif" font-size="10.00">+ OnCollisionEnter()</text>
<text text-anchor="start" x="583.564" y="-232.5" font-family="Helvetica,sans-Serif" font-size="10.00">+ OnCollisionExit()</text>
<text text-anchor="start" x="583.564" y="-222.5" font-family="Helvetica,sans-Serif" font-size="10.00">+ Awake()</text>
<text text-anchor="start" x="583.564" y="-212.5" font-family="Helvetica,sans-Serif" font-size="10.00">+ Update()</text>
<text text-anchor="start" x="583.564" y="-202.5" font-family="Helvetica,sans-Serif" font-size="10.00">+ Start()</text>
<text text-anchor="start" x="583.564" y="-192.5" font-family="Helvetica,sans-Serif" font-size="10.00">+ OnCollisionEnter()</text>
<text text-anchor="start" x="583.564" y="-182.5" font-family="Helvetica,sans-Serif" font-size="10.00">+ OnCollisionExit()</text>
<text text-anchor="start" x="583.564" y="-172.5" font-family="Helvetica,sans-Serif" font-size="10.00"># Scriptable()</text>
<text text-anchor="start" x="583.564" y="-162.5" font-family="Helvetica,sans-Serif" font-size="10.00"># Scriptable()</text>
</a>
</g>
</g>
<!-- Node0&#45;&gt;Node6 -->
<g id="edge6" class="edge"><title>Node0&#45;&gt;Node6</title>
<path fill="none" stroke="midnightblue" d="M529.997,-385.763C539.822,-376.42 549.48,-366.35 557.72,-356 566.354,-345.156 574.37,-332.93 581.696,-320.582"/>
<polygon fill="none" stroke="midnightblue" points="527.413,-383.387 522.472,-392.759 532.179,-388.514 527.413,-383.387"/>
</g>
<!-- Node0&#45;&gt;Node6 -->
<g id="edge8" class="edge"><title>Node0&#45;&gt;Node6</title>
<path fill="none" stroke="midnightblue" d="M531.057,-400.363C546.838,-387.347 562.975,-372.008 575.72,-356 584.354,-345.156 592.37,-332.93 599.458,-320.582"/>
<polygon fill="none" stroke="midnightblue" points="528.461,-397.958 522.856,-406.949 532.844,-403.416 528.461,-397.958"/>
</g>
<!-- Node8 -->
<g id="node9" class="node"><title>Node8</title>
<g id="a_node9"><a xlink:href="class_transform.html" target="_top" xlink:title="{Transform\n|+ position\l+ parent\l+ rotation\l+ scale\l|+ localTransform()\l+ globalTransform()\l# Transform()\l}">
<polygon fill="none" stroke="black" points="700.139,-186.5 700.139,-290.5 803.302,-290.5 803.302,-186.5 700.139,-186.5"/>
<text text-anchor="middle" x="751.72" y="-278.5" font-family="Helvetica,sans-Serif" font-size="10.00">Transform</text>
<polyline fill="none" stroke="black" points="700.139,-272.5 803.302,-272.5 "/>
<text text-anchor="start" x="708.139" y="-260.5" font-family="Helvetica,sans-Serif" font-size="10.00">+ position</text>
<text text-anchor="start" x="708.139" y="-250.5" font-family="Helvetica,sans-Serif" font-size="10.00">+ parent</text>
<text text-anchor="start" x="708.139" y="-240.5" font-family="Helvetica,sans-Serif" font-size="10.00">+ rotation</text>
<text text-anchor="start" x="708.139" y="-230.5" font-family="Helvetica,sans-Serif" font-size="10.00">+ scale</text>
<polyline fill="none" stroke="black" points="700.139,-224.5 803.302,-224.5 "/>
<text text-anchor="start" x="708.139" y="-212.5" font-family="Helvetica,sans-Serif" font-size="10.00">+ localTransform()</text>
<text text-anchor="start" x="708.139" y="-202.5" font-family="Helvetica,sans-Serif" font-size="10.00">+ globalTransform()</text>
<text text-anchor="start" x="708.139" y="-192.5" font-family="Helvetica,sans-Serif" font-size="10.00"># Transform()</text>
</a>
</g>
</g>
<!-- Node0&#45;&gt;Node8 -->
<g id="edge9" class="edge"><title>Node0&#45;&gt;Node8</title>
<path fill="none" stroke="midnightblue" d="M532.651,-427.901C580.383,-416.917 645.978,-395.588 690.72,-356 710.383,-338.602 724.69,-313.326 734.485,-290.76"/>
<polygon fill="none" stroke="midnightblue" points="531.759,-424.514 522.751,-430.091 533.271,-431.348 531.759,-424.514"/>
</g>
<!-- Node7 -->
<g id="node8" class="node"><title>Node7</title>
<g id="a_node8"><a xlink:href="class_particle_controller.html" target="_top" xlink:title="{ParticleController\n|+ timePassed\l|+ Awake()\l+ Update()\l+ Start()\l# ParticleController()\l}">
<polygon fill="none" stroke="black" points="574.873,-0.5 574.873,-84.5 682.567,-84.5 682.567,-0.5 574.873,-0.5"/>
<text text-anchor="middle" x="628.72" y="-72.5" font-family="Helvetica,sans-Serif" font-size="10.00">ParticleController</text>
<polyline fill="none" stroke="black" points="574.873,-66.5 682.567,-66.5 "/>
<text text-anchor="start" x="582.873" y="-54.5" font-family="Helvetica,sans-Serif" font-size="10.00">+ timePassed</text>
<polyline fill="none" stroke="black" points="574.873,-48.5 682.567,-48.5 "/>
<text text-anchor="start" x="582.873" y="-36.5" font-family="Helvetica,sans-Serif" font-size="10.00">+ Awake()</text>
<text text-anchor="start" x="582.873" y="-26.5" font-family="Helvetica,sans-Serif" font-size="10.00">+ Update()</text>
<text text-anchor="start" x="582.873" y="-16.5" font-family="Helvetica,sans-Serif" font-size="10.00">+ Start()</text>
<text text-anchor="start" x="582.873" y="-6.5" font-family="Helvetica,sans-Serif" font-size="10.00"># ParticleController()</text>
</a>
</g>
</g>
<!-- Node6&#45;&gt;Node7 -->
<g id="edge7" class="edge"><title>Node6&#45;&gt;Node7</title>
<path fill="none" stroke="midnightblue" d="M628.72,-146.153C628.72,-124.594 628.72,-102.662 628.72,-84.635"/>
<polygon fill="none" stroke="midnightblue" points="625.22,-146.351 628.72,-156.351 632.22,-146.351 625.22,-146.351"/>
</g>
</g>
</svg>
