<?xml version="1.0" encoding="UTF-8" standalone="no"?>
<!DOCTYPE svg PUBLIC "-//W3C//DTD SVG 1.1//EN"
 "http://www.w3.org/Graphics/SVG/1.1/DTD/svg11.dtd">
<!-- Generated by graphviz version 2.38.0 (20140413.2041)
 -->
<!-- Title: Scene::removeGameObject Pages: 1 -->
<svg width="322pt" height="64pt"
 viewBox="0.00 0.00 322.24 64.00" xmlns="http://www.w3.org/2000/svg" xmlns:xlink="http://www.w3.org/1999/xlink">
<g id="graph0" class="graph" transform="scale(1 1) rotate(0) translate(4 60)">
<title>Scene::removeGameObject</title>
<!-- Node17 -->
<g id="node1" class="node"><title>Node17</title>
<polygon fill="#bfbfbf" stroke="black" points="0,-18.5 0,-36.5 139.389,-36.5 139.389,-18.5 0,-18.5"/>
<text text-anchor="middle" x="69.6943" y="-24.5" font-family="Helvetica,sans-Serif" font-size="10.00">Scene::removeGameObject</text>
</g>
<!-- Node18 -->
<g id="node2" class="node"><title>Node18</title>
<g id="a_node2"><a xlink:href="class_engine.html#a63dbe7243f02b5d8880e0a972d916029" target="_top" xlink:title="Engine::Instance">
<polygon fill="none" stroke="black" points="199.563,-37.5 199.563,-55.5 290.061,-55.5 290.061,-37.5 199.563,-37.5"/>
<text text-anchor="middle" x="244.812" y="-43.5" font-family="Helvetica,sans-Serif" font-size="10.00">Engine::Instance</text>
</a>
</g>
</g>
<!-- Node17&#45;&gt;Node18 -->
<g id="edge1" class="edge"><title>Node17&#45;&gt;Node18</title>
<path fill="none" stroke="midnightblue" d="M139.612,-35.0639C156.165,-36.8806 173.616,-38.7959 189.404,-40.5286"/>
<polygon fill="midnightblue" stroke="midnightblue" points="189.19,-44.0261 199.513,-41.6381 189.954,-37.0679 189.19,-44.0261"/>
</g>
<!-- Node19 -->
<g id="node3" class="node"><title>Node19</title>
<g id="a_node3"><a xlink:href="class_engine.html#affd32740921bf7e26bd575cd17d57a85" target="_top" xlink:title="Engine::CountObjectsDown">
<polygon fill="none" stroke="black" points="175.389,-0.5 175.389,-18.5 314.235,-18.5 314.235,-0.5 175.389,-0.5"/>
<text text-anchor="middle" x="244.812" y="-6.5" font-family="Helvetica,sans-Serif" font-size="10.00">Engine::CountObjectsDown</text>
</a>
</g>
</g>
<!-- Node17&#45;&gt;Node19 -->
<g id="edge2" class="edge"><title>Node17&#45;&gt;Node19</title>
<path fill="none" stroke="midnightblue" d="M139.612,-20.3342C148.016,-19.4604 156.651,-18.5626 165.183,-17.6755"/>
<polygon fill="midnightblue" stroke="midnightblue" points="165.547,-21.1566 175.131,-16.6411 164.823,-14.1942 165.547,-21.1566"/>
</g>
</g>
</svg>
