<?xml version="1.0" encoding="UTF-8" standalone="no"?>
<!DOCTYPE svg PUBLIC "-//W3C//DTD SVG 1.1//EN"
 "http://www.w3.org/Graphics/SVG/1.1/DTD/svg11.dtd">
<!-- Generated by graphviz version 2.38.0 (20140413.2041)
 -->
<!-- Title: Transform::localTransform Pages: 1 -->
<svg width="544pt" height="45pt"
 viewBox="0.00 0.00 544.21 45.00" xmlns="http://www.w3.org/2000/svg" xmlns:xlink="http://www.w3.org/1999/xlink">
<g id="graph0" class="graph" transform="scale(1 1) rotate(0) translate(4 41)">
<title>Transform::localTransform</title>
<!-- Node8 -->
<g id="node1" class="node"><title>Node8</title>
<polygon fill="#bfbfbf" stroke="black" points="0,-0.5 0,-18.5 132.514,-18.5 132.514,-0.5 0,-0.5"/>
<text text-anchor="middle" x="66.2568" y="-6.5" font-family="Helvetica,sans-Serif" font-size="10.00">Transform::localTransform</text>
</g>
<!-- Node9 -->
<g id="node2" class="node"><title>Node9</title>
<g id="a_node2"><a xlink:href="class_transform.html#a35e627aa09604bf3a81f4c07d28205f3" target="_top" xlink:title="Transform::globalTransform">
<polygon fill="none" stroke="black" points="168.514,-0.5 168.514,-18.5 307.15,-18.5 307.15,-0.5 168.514,-0.5"/>
<text text-anchor="middle" x="237.832" y="-6.5" font-family="Helvetica,sans-Serif" font-size="10.00">Transform::globalTransform</text>
</a>
</g>
</g>
<!-- Node8&#45;&gt;Node9 -->
<g id="edge1" class="edge"><title>Node8&#45;&gt;Node9</title>
<path fill="none" stroke="midnightblue" d="M143.027,-9.5C151.464,-9.5 160.02,-9.5 168.359,-9.5"/>
<polygon fill="midnightblue" stroke="midnightblue" points="142.819,-6.0001 132.819,-9.5 142.819,-13.0001 142.819,-6.0001"/>
</g>
<!-- Node9&#45;&gt;Node9 -->
<g id="edge4" class="edge"><title>Node9&#45;&gt;Node9</title>
<path fill="none" stroke="midnightblue" d="M210.472,-27.0926C210.894,-32.6312 220.014,-37 237.832,-37 264.352,-37 271.603,-27.322 259.586,-18.5134"/>
<polygon fill="midnightblue" stroke="midnightblue" points="213.538,-28.7994 216.078,-18.5134 207.678,-24.9706 213.538,-28.7994"/>
</g>
<!-- Node10 -->
<g id="node3" class="node"><title>Node10</title>
<g id="a_node3"><a xlink:href="class_renderer.html#a9a0a5f207e3d9f60c6372a9c79b25df9" target="_top" xlink:title="Renderer::draw">
<polygon fill="none" stroke="black" points="343.15,-0.5 343.15,-18.5 428.071,-18.5 428.071,-0.5 343.15,-0.5"/>
<text text-anchor="middle" x="385.611" y="-6.5" font-family="Helvetica,sans-Serif" font-size="10.00">Renderer::draw</text>
</a>
</g>
</g>
<!-- Node9&#45;&gt;Node10 -->
<g id="edge2" class="edge"><title>Node9&#45;&gt;Node10</title>
<path fill="none" stroke="midnightblue" d="M317.679,-9.5C326.371,-9.5 334.95,-9.5 342.916,-9.5"/>
<polygon fill="midnightblue" stroke="midnightblue" points="317.453,-6.0001 307.453,-9.5 317.453,-13.0001 317.453,-6.0001"/>
</g>
<!-- Node11 -->
<g id="node4" class="node"><title>Node11</title>
<g id="a_node4"><a xlink:href="class_engine.html#a4d8066dd213a03f5420d1bf60f150ca7" target="_top" xlink:title="Engine::start">
<polygon fill="none" stroke="black" points="464.071,-0.5 464.071,-18.5 536.214,-18.5 536.214,-0.5 464.071,-0.5"/>
<text text-anchor="middle" x="500.143" y="-6.5" font-family="Helvetica,sans-Serif" font-size="10.00">Engine::start</text>
</a>
</g>
</g>
<!-- Node10&#45;&gt;Node11 -->
<g id="edge3" class="edge"><title>Node10&#45;&gt;Node11</title>
<path fill="none" stroke="midnightblue" d="M438.294,-9.5C446.998,-9.5 455.849,-9.5 464.007,-9.5"/>
<polygon fill="midnightblue" stroke="midnightblue" points="438.194,-6.0001 428.194,-9.5 438.194,-13.0001 438.194,-6.0001"/>
</g>
</g>
</svg>
