<?xml version="1.0" encoding="UTF-8" standalone="no"?>
<!DOCTYPE svg PUBLIC "-//W3C//DTD SVG 1.1//EN"
 "http://www.w3.org/Graphics/SVG/1.1/DTD/svg11.dtd">
<!-- Generated by graphviz version 2.38.0 (20140413.2041)
 -->
<!-- Title: picojson::value::value Pages: 1 -->
<svg width="474pt" height="393pt"
 viewBox="0.00 0.00 474.32 393.00" xmlns="http://www.w3.org/2000/svg" xmlns:xlink="http://www.w3.org/1999/xlink">
<g id="graph0" class="graph" transform="scale(1 1) rotate(0) translate(4 389)">
<title>picojson::value::value</title>
<!-- Node1 -->
<g id="node1" class="node"><title>Node1</title>
<polygon fill="#bfbfbf" stroke="black" points="0,-193.5 0,-211.5 111.615,-211.5 111.615,-193.5 0,-193.5"/>
<text text-anchor="middle" x="55.8076" y="-199.5" font-family="Helvetica,sans-Serif" font-size="10.00">picojson::value::value</text>
</g>
<!-- Node2 -->
<g id="node2" class="node"><title>Node2</title>
<g id="a_node2"><a xlink:href="classpicojson_1_1value.html#a43d8a33c3dbea0c5853bef4577a0d10e" target="_top" xlink:title="picojson::value::value">
<polygon fill="none" stroke="black" points="162.623,-366.5 162.623,-384.5 274.238,-384.5 274.238,-366.5 162.623,-366.5"/>
<text text-anchor="middle" x="218.43" y="-372.5" font-family="Helvetica,sans-Serif" font-size="10.00">picojson::value::value</text>
</a>
</g>
</g>
<!-- Node1&#45;&gt;Node2 -->
<g id="edge1" class="edge"><title>Node1&#45;&gt;Node2</title>
<path fill="none" stroke="midnightblue" d="M62.4456,-221.199C73.3306,-254.019 100.427,-321.881 147.615,-357.5 152.511,-361.195 158.09,-364.135 163.911,-366.474"/>
<polygon fill="midnightblue" stroke="midnightblue" points="65.7314,-219.982 59.3701,-211.509 59.0594,-222.1 65.7314,-219.982"/>
</g>
<!-- Node3 -->
<g id="node3" class="node"><title>Node3</title>
<g id="a_node3"><a xlink:href="classpicojson_1_1value.html#acc5e4506e6a793af5132983573f9da6a" target="_top" xlink:title="picojson::value::operator=">
<polygon fill="none" stroke="black" points="153.033,-329.5 153.033,-347.5 283.828,-347.5 283.828,-329.5 153.033,-329.5"/>
<text text-anchor="middle" x="218.43" y="-335.5" font-family="Helvetica,sans-Serif" font-size="10.00">picojson::value::operator=</text>
</a>
</g>
</g>
<!-- Node1&#45;&gt;Node3 -->
<g id="edge2" class="edge"><title>Node1&#45;&gt;Node3</title>
<path fill="none" stroke="midnightblue" d="M65.7776,-220.705C79.6367,-246.889 108.767,-294.847 147.615,-320.5 153.151,-324.156 159.387,-327.069 165.796,-329.391"/>
<polygon fill="midnightblue" stroke="midnightblue" points="68.7529,-218.836 61.0787,-211.531 62.5227,-222.027 68.7529,-218.836"/>
</g>
<!-- Node6 -->
<g id="node6" class="node"><title>Node6</title>
<g id="a_node6"><a xlink:href="classpicojson_1_1default__parse__context.html#a2d852ba1f0b115c89378fcb5f10580b5" target="_top" xlink:title="picojson::default_parse\l_context::set_null">
<polygon fill="none" stroke="black" points="159.007,-282.5 159.007,-310.5 277.854,-310.5 277.854,-282.5 159.007,-282.5"/>
<text text-anchor="start" x="167.007" y="-298.5" font-family="Helvetica,sans-Serif" font-size="10.00">picojson::default_parse</text>
<text text-anchor="middle" x="218.43" y="-288.5" font-family="Helvetica,sans-Serif" font-size="10.00">_context::set_null</text>
</a>
</g>
</g>
<!-- Node1&#45;&gt;Node6 -->
<g id="edge5" class="edge"><title>Node1&#45;&gt;Node6</title>
<path fill="none" stroke="midnightblue" d="M73.6777,-218.643C91.0206,-234.491 119.405,-258.42 147.615,-273.5 153.918,-276.869 160.804,-279.865 167.716,-282.489"/>
<polygon fill="midnightblue" stroke="midnightblue" points="75.8035,-215.84 66.1,-211.586 71.033,-220.963 75.8035,-215.84"/>
</g>
<!-- Node7 -->
<g id="node7" class="node"><title>Node7</title>
<g id="a_node7"><a xlink:href="classpicojson_1_1default__parse__context.html#ae1935ef455fc2bed9195426cfee5713a" target="_top" xlink:title="picojson::default_parse\l_context::set_bool">
<polygon fill="none" stroke="black" points="159.007,-235.5 159.007,-263.5 277.854,-263.5 277.854,-235.5 159.007,-235.5"/>
<text text-anchor="start" x="167.007" y="-251.5" font-family="Helvetica,sans-Serif" font-size="10.00">picojson::default_parse</text>
<text text-anchor="middle" x="218.43" y="-241.5" font-family="Helvetica,sans-Serif" font-size="10.00">_context::set_bool</text>
</a>
</g>
</g>
<!-- Node1&#45;&gt;Node7 -->
<g id="edge6" class="edge"><title>Node1&#45;&gt;Node7</title>
<path fill="none" stroke="midnightblue" d="M97.4418,-214.39C119.357,-220.803 146.536,-228.756 169.483,-235.47"/>
<polygon fill="midnightblue" stroke="midnightblue" points="98.3578,-211.011 87.7773,-211.562 96.3919,-217.73 98.3578,-211.011"/>
</g>
<!-- Node8 -->
<g id="node8" class="node"><title>Node8</title>
<g id="a_node8"><a xlink:href="classpicojson_1_1default__parse__context.html#a9b2046a9cb6d66aad835b84ffda20b86" target="_top" xlink:title="picojson::default_parse\l_context::set_number">
<polygon fill="none" stroke="black" points="159.007,-188.5 159.007,-216.5 277.854,-216.5 277.854,-188.5 159.007,-188.5"/>
<text text-anchor="start" x="167.007" y="-204.5" font-family="Helvetica,sans-Serif" font-size="10.00">picojson::default_parse</text>
<text text-anchor="middle" x="218.43" y="-194.5" font-family="Helvetica,sans-Serif" font-size="10.00">_context::set_number</text>
</a>
</g>
</g>
<!-- Node1&#45;&gt;Node8 -->
<g id="edge7" class="edge"><title>Node1&#45;&gt;Node8</title>
<path fill="none" stroke="midnightblue" d="M121.764,-202.5C133.991,-202.5 146.711,-202.5 158.732,-202.5"/>
<polygon fill="midnightblue" stroke="midnightblue" points="121.636,-199 111.636,-202.5 121.636,-206 121.636,-199"/>
</g>
<!-- Node9 -->
<g id="node9" class="node"><title>Node9</title>
<g id="a_node9"><a xlink:href="classpicojson_1_1default__parse__context.html#a476c7d30a5cf382b48201ec64585c2f3" target="_top" xlink:title="picojson::default_parse\l_context::parse_string">
<polygon fill="none" stroke="black" points="159.007,-141.5 159.007,-169.5 277.854,-169.5 277.854,-141.5 159.007,-141.5"/>
<text text-anchor="start" x="167.007" y="-157.5" font-family="Helvetica,sans-Serif" font-size="10.00">picojson::default_parse</text>
<text text-anchor="middle" x="218.43" y="-147.5" font-family="Helvetica,sans-Serif" font-size="10.00">_context::parse_string</text>
</a>
</g>
</g>
<!-- Node1&#45;&gt;Node9 -->
<g id="edge8" class="edge"><title>Node1&#45;&gt;Node9</title>
<path fill="none" stroke="midnightblue" d="M97.4418,-190.61C119.357,-184.197 146.536,-176.244 169.483,-169.53"/>
<polygon fill="midnightblue" stroke="midnightblue" points="96.3919,-187.27 87.7773,-193.438 98.3578,-193.989 96.3919,-187.27"/>
</g>
<!-- Node10 -->
<g id="node10" class="node"><title>Node10</title>
<g id="a_node10"><a xlink:href="classpicojson_1_1default__parse__context.html#a5c355f843ceacde134997f5bbbda1d23" target="_top" xlink:title="picojson::default_parse\l_context::parse_array_start">
<polygon fill="none" stroke="black" points="149.566,-94.5 149.566,-122.5 287.294,-122.5 287.294,-94.5 149.566,-94.5"/>
<text text-anchor="start" x="157.566" y="-110.5" font-family="Helvetica,sans-Serif" font-size="10.00">picojson::default_parse</text>
<text text-anchor="middle" x="218.43" y="-100.5" font-family="Helvetica,sans-Serif" font-size="10.00">_context::parse_array_start</text>
</a>
</g>
</g>
<!-- Node1&#45;&gt;Node10 -->
<g id="edge9" class="edge"><title>Node1&#45;&gt;Node10</title>
<path fill="none" stroke="midnightblue" d="M74.042,-186.424C91.473,-170.869 119.751,-147.503 147.615,-132.5 154.499,-128.794 162.066,-125.491 169.6,-122.61"/>
<polygon fill="midnightblue" stroke="midnightblue" points="71.4536,-184.047 66.4057,-193.362 76.1607,-189.228 71.4536,-184.047"/>
</g>
<!-- Node11 -->
<g id="node11" class="node"><title>Node11</title>
<g id="a_node11"><a xlink:href="classpicojson_1_1default__parse__context.html#a5f65224e655633b20c1f8c5967c153bb" target="_top" xlink:title="picojson::default_parse\l_context::parse_array_item">
<polygon fill="none" stroke="black" points="149.844,-47.5 149.844,-75.5 287.016,-75.5 287.016,-47.5 149.844,-47.5"/>
<text text-anchor="start" x="157.844" y="-63.5" font-family="Helvetica,sans-Serif" font-size="10.00">picojson::default_parse</text>
<text text-anchor="middle" x="218.43" y="-53.5" font-family="Helvetica,sans-Serif" font-size="10.00">_context::parse_array_item</text>
</a>
</g>
</g>
<!-- Node1&#45;&gt;Node11 -->
<g id="edge10" class="edge"><title>Node1&#45;&gt;Node11</title>
<path fill="none" stroke="midnightblue" d="M66.301,-184.471C80.6304,-158.92 110.137,-112.309 147.615,-85.5 153.036,-81.6224 159.135,-78.3299 165.413,-75.5447"/>
<polygon fill="midnightblue" stroke="midnightblue" points="63.1267,-182.981 61.4137,-193.437 69.2729,-186.332 63.1267,-182.981"/>
</g>
<!-- Node12 -->
<g id="node12" class="node"><title>Node12</title>
<g id="a_node12"><a xlink:href="classpicojson_1_1default__parse__context.html#a54eba00b93ce4cdaf8b2acac4ef3e046" target="_top" xlink:title="picojson::default_parse\l_context::parse_object_start">
<polygon fill="none" stroke="black" points="147.615,-0.5 147.615,-28.5 289.245,-28.5 289.245,-0.5 147.615,-0.5"/>
<text text-anchor="start" x="155.615" y="-16.5" font-family="Helvetica,sans-Serif" font-size="10.00">picojson::default_parse</text>
<text text-anchor="middle" x="218.43" y="-6.5" font-family="Helvetica,sans-Serif" font-size="10.00">_context::parse_object_start</text>
</a>
</g>
</g>
<!-- Node1&#45;&gt;Node12 -->
<g id="edge11" class="edge"><title>Node1&#45;&gt;Node12</title>
<path fill="none" stroke="midnightblue" d="M62.2898,-183.556C73.0569,-149.628 100.147,-78.3293 147.615,-38.5 152.23,-34.628 157.503,-31.3688 163.038,-28.6279"/>
<polygon fill="midnightblue" stroke="midnightblue" points="58.9268,-182.585 59.3624,-193.171 65.6233,-184.624 58.9268,-182.585"/>
</g>
<!-- Node4 -->
<g id="node4" class="node"><title>Node4</title>
<g id="a_node4"><a xlink:href="classpicojson_1_1default__parse__context.html#adf71929b098e4f4b5c32222af149655a" target="_top" xlink:title="picojson::default_parse\l_context::parse_object_item">
<polygon fill="none" stroke="black" points="325.245,-347.5 325.245,-375.5 466.318,-375.5 466.318,-347.5 325.245,-347.5"/>
<text text-anchor="start" x="333.245" y="-363.5" font-family="Helvetica,sans-Serif" font-size="10.00">picojson::default_parse</text>
<text text-anchor="middle" x="395.782" y="-353.5" font-family="Helvetica,sans-Serif" font-size="10.00">_context::parse_object_item</text>
</a>
</g>
</g>
<!-- Node3&#45;&gt;Node4 -->
<g id="edge3" class="edge"><title>Node3&#45;&gt;Node4</title>
<path fill="none" stroke="midnightblue" d="M294.298,-348.32C304.468,-349.654 314.874,-351.019 324.951,-352.341"/>
<polygon fill="midnightblue" stroke="midnightblue" points="294.597,-344.829 284.226,-346.999 293.686,-351.77 294.597,-344.829"/>
</g>
<!-- Node5 -->
<g id="node5" class="node"><title>Node5</title>
<g id="a_node5"><a xlink:href="classpicojson_1_1null__parse__context.html#a97c4b81a984ea473fe56e09aed7b9ca6" target="_top" xlink:title="picojson::null_parse\l_context::parse_object_item">
<polygon fill="none" stroke="black" points="325.245,-300.5 325.245,-328.5 466.318,-328.5 466.318,-300.5 325.245,-300.5"/>
<text text-anchor="start" x="333.245" y="-316.5" font-family="Helvetica,sans-Serif" font-size="10.00">picojson::null_parse</text>
<text text-anchor="middle" x="395.782" y="-306.5" font-family="Helvetica,sans-Serif" font-size="10.00">_context::parse_object_item</text>
</a>
</g>
</g>
<!-- Node3&#45;&gt;Node5 -->
<g id="edge4" class="edge"><title>Node3&#45;&gt;Node5</title>
<path fill="none" stroke="midnightblue" d="M294.298,-328.253C304.468,-326.861 314.874,-325.437 324.951,-324.058"/>
<polygon fill="midnightblue" stroke="midnightblue" points="293.659,-324.808 284.226,-329.631 294.609,-331.743 293.659,-324.808"/>
</g>
</g>
</svg>
