<?xml version="1.0" encoding="UTF-8" standalone="no"?>
<!DOCTYPE svg PUBLIC "-//W3C//DTD SVG 1.1//EN"
 "http://www.w3.org/Graphics/SVG/1.1/DTD/svg11.dtd">
<!-- Generated by graphviz version 2.38.0 (20140413.2041)
 -->
<!-- Title: PlayerPrefManager::~PlayerPrefManager Pages: 1 -->
<svg width="443pt" height="638pt"
 viewBox="0.00 0.00 442.88 638.00" xmlns="http://www.w3.org/2000/svg" xmlns:xlink="http://www.w3.org/1999/xlink">
<g id="graph0" class="graph" transform="scale(1 1) rotate(0) translate(4 634)">
<title>PlayerPrefManager::~PlayerPrefManager</title>
<!-- Node2 -->
<g id="node1" class="node"><title>Node2</title>
<polygon fill="#bfbfbf" stroke="black" points="0,-295.5 0,-323.5 107.992,-323.5 107.992,-295.5 0,-295.5"/>
<text text-anchor="start" x="8" y="-311.5" font-family="Helvetica,sans-Serif" font-size="10.00">PlayerPrefManager::</text>
<text text-anchor="middle" x="53.9961" y="-301.5" font-family="Helvetica,sans-Serif" font-size="10.00">~PlayerPrefManager</text>
</g>
<!-- Node3 -->
<g id="node2" class="node"><title>Node3</title>
<g id="a_node2"><a xlink:href="class_player_pref_manager.html#a393669e405aa8310c8425ed03e2b1763" target="_top" xlink:title="PlayerPrefManager::\lstartUp">
<polygon fill="none" stroke="black" points="155.389,-601.5 155.389,-629.5 263.098,-629.5 263.098,-601.5 155.389,-601.5"/>
<text text-anchor="start" x="163.389" y="-617.5" font-family="Helvetica,sans-Serif" font-size="10.00">PlayerPrefManager::</text>
<text text-anchor="middle" x="209.243" y="-607.5" font-family="Helvetica,sans-Serif" font-size="10.00">startUp</text>
</a>
</g>
</g>
<!-- Node2&#45;&gt;Node3 -->
<g id="edge1" class="edge"><title>Node2&#45;&gt;Node3</title>
<path fill="none" stroke="midnightblue" d="M55.238,-323.756C56.7852,-369.349 67.7718,-513.241 143.992,-592.5 145.044,-593.594 146.152,-594.636 147.307,-595.629"/>
<polygon fill="midnightblue" stroke="midnightblue" points="145.358,-598.538 155.533,-601.49 149.42,-592.837 145.358,-598.538"/>
</g>
<!-- Node4 -->
<g id="node3" class="node"><title>Node4</title>
<g id="a_node3"><a xlink:href="class_player_pref_manager.html#af395e5a4b0d8a749416dd6f3c415ca2b" target="_top" xlink:title="PlayerPrefManager::\lshutDown">
<polygon fill="none" stroke="black" points="155.389,-554.5 155.389,-582.5 263.098,-582.5 263.098,-554.5 155.389,-554.5"/>
<text text-anchor="start" x="163.389" y="-570.5" font-family="Helvetica,sans-Serif" font-size="10.00">PlayerPrefManager::</text>
<text text-anchor="middle" x="209.243" y="-560.5" font-family="Helvetica,sans-Serif" font-size="10.00">shutDown</text>
</a>
</g>
</g>
<!-- Node2&#45;&gt;Node4 -->
<g id="edge2" class="edge"><title>Node2&#45;&gt;Node4</title>
<path fill="none" stroke="midnightblue" d="M56.2637,-323.664C60.6273,-364.082 78.5798,-481.181 143.992,-545.5 145.101,-546.59 146.265,-547.629 147.476,-548.619"/>
<polygon fill="midnightblue" stroke="midnightblue" points="145.818,-551.725 156.051,-554.468 149.762,-545.942 145.818,-551.725"/>
</g>
<!-- Node7 -->
<g id="node6" class="node"><title>Node7</title>
<g id="a_node6"><a xlink:href="class_player_pref_manager.html#a3cae3ed1d030157c8323c2fb427cc07f" target="_top" xlink:title="PlayerPrefManager::\lHasKey">
<polygon fill="none" stroke="black" points="155.389,-507.5 155.389,-535.5 263.098,-535.5 263.098,-507.5 155.389,-507.5"/>
<text text-anchor="start" x="163.389" y="-523.5" font-family="Helvetica,sans-Serif" font-size="10.00">PlayerPrefManager::</text>
<text text-anchor="middle" x="209.243" y="-513.5" font-family="Helvetica,sans-Serif" font-size="10.00">HasKey</text>
</a>
</g>
</g>
<!-- Node2&#45;&gt;Node7 -->
<g id="edge5" class="edge"><title>Node2&#45;&gt;Node7</title>
<path fill="none" stroke="midnightblue" d="M57.7402,-323.57C65.2265,-358.277 89.2173,-448.762 143.992,-498.5 145.289,-499.677 146.65,-500.795 148.063,-501.857"/>
<polygon fill="midnightblue" stroke="midnightblue" points="146.342,-504.911 156.655,-507.341 150.109,-499.01 146.342,-504.911"/>
</g>
<!-- Node8 -->
<g id="node7" class="node"><title>Node8</title>
<g id="a_node7"><a xlink:href="class_player_pref_manager.html#aeab49b9c5ba9848632291119abf4fa8f" target="_top" xlink:title="PlayerPrefManager::\lGetBool">
<polygon fill="none" stroke="black" points="155.389,-460.5 155.389,-488.5 263.098,-488.5 263.098,-460.5 155.389,-460.5"/>
<text text-anchor="start" x="163.389" y="-476.5" font-family="Helvetica,sans-Serif" font-size="10.00">PlayerPrefManager::</text>
<text text-anchor="middle" x="209.243" y="-466.5" font-family="Helvetica,sans-Serif" font-size="10.00">GetBool</text>
</a>
</g>
</g>
<!-- Node2&#45;&gt;Node8 -->
<g id="edge6" class="edge"><title>Node2&#45;&gt;Node8</title>
<path fill="none" stroke="midnightblue" d="M60.2168,-323.789C71.2869,-352.164 99.7831,-415.943 143.992,-451.5 145.585,-452.781 147.254,-453.994 148.984,-455.141"/>
<polygon fill="midnightblue" stroke="midnightblue" points="147.631,-458.401 158.043,-460.356 151.123,-452.334 147.631,-458.401"/>
</g>
<!-- Node9 -->
<g id="node8" class="node"><title>Node9</title>
<g id="a_node8"><a xlink:href="class_player_pref_manager.html#a108acf23509fa637d1cdfda3be77d5bb" target="_top" xlink:title="PlayerPrefManager::\lGetDouble">
<polygon fill="none" stroke="black" points="155.389,-413.5 155.389,-441.5 263.098,-441.5 263.098,-413.5 155.389,-413.5"/>
<text text-anchor="start" x="163.389" y="-429.5" font-family="Helvetica,sans-Serif" font-size="10.00">PlayerPrefManager::</text>
<text text-anchor="middle" x="209.243" y="-419.5" font-family="Helvetica,sans-Serif" font-size="10.00">GetDouble</text>
</a>
</g>
</g>
<!-- Node2&#45;&gt;Node9 -->
<g id="edge7" class="edge"><title>Node2&#45;&gt;Node9</title>
<path fill="none" stroke="midnightblue" d="M64.8783,-323.745C79.8022,-344.279 109.985,-382.177 143.992,-404.5 146.406,-406.085 148.943,-407.576 151.558,-408.978"/>
<polygon fill="midnightblue" stroke="midnightblue" points="150.155,-412.187 160.68,-413.402 153.21,-405.889 150.155,-412.187"/>
</g>
<!-- Node10 -->
<g id="node9" class="node"><title>Node10</title>
<g id="a_node9"><a xlink:href="class_player_pref_manager.html#a083901a3d3c8e0f10b4ab0046e62008e" target="_top" xlink:title="PlayerPrefManager::\lGetInt">
<polygon fill="none" stroke="black" points="155.389,-366.5 155.389,-394.5 263.098,-394.5 263.098,-366.5 155.389,-366.5"/>
<text text-anchor="start" x="163.389" y="-382.5" font-family="Helvetica,sans-Serif" font-size="10.00">PlayerPrefManager::</text>
<text text-anchor="middle" x="209.243" y="-372.5" font-family="Helvetica,sans-Serif" font-size="10.00">GetInt</text>
</a>
</g>
</g>
<!-- Node2&#45;&gt;Node10 -->
<g id="edge8" class="edge"><title>Node2&#45;&gt;Node10</title>
<path fill="none" stroke="midnightblue" d="M78.677,-323.542C96.331,-333.695 121.223,-347.354 143.992,-357.5 148.059,-359.312 152.316,-361.088 156.62,-362.799"/>
<polygon fill="midnightblue" stroke="midnightblue" points="155.472,-366.107 166.062,-366.43 157.985,-359.574 155.472,-366.107"/>
</g>
<!-- Node11 -->
<g id="node10" class="node"><title>Node11</title>
<g id="a_node10"><a xlink:href="class_player_pref_manager.html#a7ace310b0d8b5abd9d900bc249b01e88" target="_top" xlink:title="PlayerPrefManager::\lGetString">
<polygon fill="none" stroke="black" points="155.389,-319.5 155.389,-347.5 263.098,-347.5 263.098,-319.5 155.389,-319.5"/>
<text text-anchor="start" x="163.389" y="-335.5" font-family="Helvetica,sans-Serif" font-size="10.00">PlayerPrefManager::</text>
<text text-anchor="middle" x="209.243" y="-325.5" font-family="Helvetica,sans-Serif" font-size="10.00">GetString</text>
</a>
</g>
</g>
<!-- Node2&#45;&gt;Node11 -->
<g id="edge9" class="edge"><title>Node2&#45;&gt;Node11</title>
<path fill="none" stroke="midnightblue" d="M108.164,-317.827C120.051,-319.688 132.771,-321.68 145.02,-323.599"/>
<polygon fill="midnightblue" stroke="midnightblue" points="144.748,-327.099 155.169,-325.188 145.831,-320.183 144.748,-327.099"/>
</g>
<!-- Node12 -->
<g id="node11" class="node"><title>Node12</title>
<g id="a_node11"><a xlink:href="class_player_pref_manager.html#a5757d9fe8b8c10dca352969b47aabb8a" target="_top" xlink:title="PlayerPrefManager::\lSetBool">
<polygon fill="none" stroke="black" points="155.389,-272.5 155.389,-300.5 263.098,-300.5 263.098,-272.5 155.389,-272.5"/>
<text text-anchor="start" x="163.389" y="-288.5" font-family="Helvetica,sans-Serif" font-size="10.00">PlayerPrefManager::</text>
<text text-anchor="middle" x="209.243" y="-278.5" font-family="Helvetica,sans-Serif" font-size="10.00">SetBool</text>
</a>
</g>
</g>
<!-- Node2&#45;&gt;Node12 -->
<g id="edge10" class="edge"><title>Node2&#45;&gt;Node12</title>
<path fill="none" stroke="midnightblue" d="M108.164,-301.52C120.051,-299.736 132.771,-297.827 145.02,-295.989"/>
<polygon fill="midnightblue" stroke="midnightblue" points="145.799,-299.411 155.169,-294.466 144.76,-292.489 145.799,-299.411"/>
</g>
<!-- Node13 -->
<g id="node12" class="node"><title>Node13</title>
<g id="a_node12"><a xlink:href="class_player_pref_manager.html#aa675901b28df2e31c6761aac54a2903a" target="_top" xlink:title="PlayerPrefManager::\lSetDouble">
<polygon fill="none" stroke="black" points="155.389,-225.5 155.389,-253.5 263.098,-253.5 263.098,-225.5 155.389,-225.5"/>
<text text-anchor="start" x="163.389" y="-241.5" font-family="Helvetica,sans-Serif" font-size="10.00">PlayerPrefManager::</text>
<text text-anchor="middle" x="209.243" y="-231.5" font-family="Helvetica,sans-Serif" font-size="10.00">SetDouble</text>
</a>
</g>
</g>
<!-- Node2&#45;&gt;Node13 -->
<g id="edge11" class="edge"><title>Node2&#45;&gt;Node13</title>
<path fill="none" stroke="midnightblue" d="M80.3043,-295.39C97.9028,-285.834 122.05,-273.227 143.992,-263.5 148.702,-261.412 153.655,-259.344 158.635,-257.35"/>
<polygon fill="midnightblue" stroke="midnightblue" points="160.146,-260.517 168.186,-253.618 157.598,-253.997 160.146,-260.517"/>
</g>
<!-- Node14 -->
<g id="node13" class="node"><title>Node14</title>
<g id="a_node13"><a xlink:href="class_player_pref_manager.html#a23a01428428d0783e9f1e606a83903cf" target="_top" xlink:title="PlayerPrefManager::\lSetInt">
<polygon fill="none" stroke="black" points="155.389,-178.5 155.389,-206.5 263.098,-206.5 263.098,-178.5 155.389,-178.5"/>
<text text-anchor="start" x="163.389" y="-194.5" font-family="Helvetica,sans-Serif" font-size="10.00">PlayerPrefManager::</text>
<text text-anchor="middle" x="209.243" y="-184.5" font-family="Helvetica,sans-Serif" font-size="10.00">SetInt</text>
</a>
</g>
</g>
<!-- Node2&#45;&gt;Node14 -->
<g id="edge12" class="edge"><title>Node2&#45;&gt;Node14</title>
<path fill="none" stroke="midnightblue" d="M65.2401,-295.292C80.3852,-275.205 110.586,-238.504 143.992,-216.5 147.056,-214.482 150.314,-212.602 153.673,-210.856"/>
<polygon fill="midnightblue" stroke="midnightblue" points="155.214,-213.999 162.743,-206.545 152.208,-207.677 155.214,-213.999"/>
</g>
<!-- Node15 -->
<g id="node14" class="node"><title>Node15</title>
<g id="a_node14"><a xlink:href="class_player_pref_manager.html#a7d2e24266a566c85764a9bf91d91eb27" target="_top" xlink:title="PlayerPrefManager::\lSetString">
<polygon fill="none" stroke="black" points="155.389,-131.5 155.389,-159.5 263.098,-159.5 263.098,-131.5 155.389,-131.5"/>
<text text-anchor="start" x="163.389" y="-147.5" font-family="Helvetica,sans-Serif" font-size="10.00">PlayerPrefManager::</text>
<text text-anchor="middle" x="209.243" y="-137.5" font-family="Helvetica,sans-Serif" font-size="10.00">SetString</text>
</a>
</g>
</g>
<!-- Node2&#45;&gt;Node15 -->
<g id="edge13" class="edge"><title>Node2&#45;&gt;Node15</title>
<path fill="none" stroke="midnightblue" d="M60.3148,-295.464C71.5611,-267.581 100.358,-204.858 143.992,-169.5 146.247,-167.673 148.655,-165.976 151.167,-164.401"/>
<polygon fill="midnightblue" stroke="midnightblue" points="152.971,-167.403 160.033,-159.505 149.587,-161.275 152.971,-167.403"/>
</g>
<!-- Node16 -->
<g id="node15" class="node"><title>Node16</title>
<g id="a_node15"><a xlink:href="class_player_pref_manager.html#a36eae7cc60015576ba1406daa4512345" target="_top" xlink:title="PlayerPrefManager::\lDeleteKey">
<polygon fill="none" stroke="black" points="155.389,-84.5 155.389,-112.5 263.098,-112.5 263.098,-84.5 155.389,-84.5"/>
<text text-anchor="start" x="163.389" y="-100.5" font-family="Helvetica,sans-Serif" font-size="10.00">PlayerPrefManager::</text>
<text text-anchor="middle" x="209.243" y="-90.5" font-family="Helvetica,sans-Serif" font-size="10.00">DeleteKey</text>
</a>
</g>
</g>
<!-- Node2&#45;&gt;Node16 -->
<g id="edge14" class="edge"><title>Node2&#45;&gt;Node16</title>
<path fill="none" stroke="midnightblue" d="M57.8852,-295.37C65.6355,-260.946 90.0615,-171.946 143.992,-122.5 145.704,-120.931 147.527,-119.461 149.436,-118.086"/>
<polygon fill="midnightblue" stroke="midnightblue" points="151.594,-120.867 158.265,-112.635 147.917,-114.91 151.594,-120.867"/>
</g>
<!-- Node17 -->
<g id="node16" class="node"><title>Node17</title>
<g id="a_node16"><a xlink:href="class_player_pref_manager.html#aa5df6c238b228cdcbb3c0ba7d22dc32c" target="_top" xlink:title="PlayerPrefManager::\lDeleteAll">
<polygon fill="none" stroke="black" points="155.389,-37.5 155.389,-65.5 263.098,-65.5 263.098,-37.5 155.389,-37.5"/>
<text text-anchor="start" x="163.389" y="-53.5" font-family="Helvetica,sans-Serif" font-size="10.00">PlayerPrefManager::</text>
<text text-anchor="middle" x="209.243" y="-43.5" font-family="Helvetica,sans-Serif" font-size="10.00">DeleteAll</text>
</a>
</g>
</g>
<!-- Node2&#45;&gt;Node17 -->
<g id="edge15" class="edge"><title>Node2&#45;&gt;Node17</title>
<path fill="none" stroke="midnightblue" d="M56.3463,-295.497C60.9304,-255.534 79.4141,-139.695 143.992,-75.5 145.449,-74.0519 147.001,-72.69 148.629,-71.4092"/>
<polygon fill="midnightblue" stroke="midnightblue" points="150.908,-74.0982 157.312,-65.6582 147.042,-68.2621 150.908,-74.0982"/>
</g>
<!-- Node18 -->
<g id="node17" class="node"><title>Node18</title>
<g id="a_node17"><a xlink:href="class_player_pref_manager.html#ad78d4d453c62d136f8d8d5d09e2156dd" target="_top" xlink:title="PlayerPrefManager::Save">
<polygon fill="none" stroke="black" points="143.992,-0.5 143.992,-18.5 274.494,-18.5 274.494,-0.5 143.992,-0.5"/>
<text text-anchor="middle" x="209.243" y="-6.5" font-family="Helvetica,sans-Serif" font-size="10.00">PlayerPrefManager::Save</text>
</a>
</g>
</g>
<!-- Node2&#45;&gt;Node18 -->
<g id="edge16" class="edge"><title>Node2&#45;&gt;Node18</title>
<path fill="none" stroke="midnightblue" d="M55.0839,-295.484C56.1513,-250.024 65.8171,-105.189 143.992,-28.5 145.845,-26.6825 147.863,-25.0374 150.003,-23.5486"/>
<polygon fill="midnightblue" stroke="midnightblue" points="151.821,-26.5411 158.773,-18.5462 148.353,-20.4606 151.821,-26.5411"/>
</g>
<!-- Node5 -->
<g id="node4" class="node"><title>Node5</title>
<g id="a_node4"><a xlink:href="namespacepicojson.html#a1ba78f161e46341e0c2fd705ff8b0210" target="_top" xlink:title="picojson::get_last\l_error">
<polygon fill="none" stroke="black" points="326.053,-575.5 326.053,-603.5 419.324,-603.5 419.324,-575.5 326.053,-575.5"/>
<text text-anchor="start" x="334.053" y="-591.5" font-family="Helvetica,sans-Serif" font-size="10.00">picojson::get_last</text>
<text text-anchor="middle" x="372.688" y="-581.5" font-family="Helvetica,sans-Serif" font-size="10.00">_error</text>
</a>
</g>
</g>
<!-- Node4&#45;&gt;Node5 -->
<g id="edge3" class="edge"><title>Node4&#45;&gt;Node5</title>
<path fill="none" stroke="midnightblue" d="M263.106,-575.376C279.937,-577.565 298.609,-579.994 315.655,-582.212"/>
<polygon fill="midnightblue" stroke="midnightblue" points="315.66,-585.742 326.028,-583.561 316.563,-578.8 315.66,-585.742"/>
</g>
<!-- Node6 -->
<g id="node5" class="node"><title>Node6</title>
<g id="a_node5"><a xlink:href="classpicojson_1_1value.html#a6a1099de1eb4f070445dc3eadb843a92" target="_top" xlink:title="picojson::value::get">
<polygon fill="none" stroke="black" points="321.883,-538.5 321.883,-556.5 423.494,-556.5 423.494,-538.5 321.883,-538.5"/>
<text text-anchor="middle" x="372.688" y="-544.5" font-family="Helvetica,sans-Serif" font-size="10.00">picojson::value::get</text>
</a>
</g>
</g>
<!-- Node4&#45;&gt;Node6 -->
<g id="edge4" class="edge"><title>Node4&#45;&gt;Node6</title>
<path fill="none" stroke="midnightblue" d="M263.106,-561.624C278.571,-559.612 295.591,-557.398 311.475,-555.332"/>
<polygon fill="midnightblue" stroke="midnightblue" points="312.257,-558.76 321.722,-553.999 311.354,-551.819 312.257,-558.76"/>
</g>
<!-- Node19 -->
<g id="node18" class="node"><title>Node19</title>
<g id="a_node18"><a xlink:href="classpicojson_1_1value.html#a23664084ed4a8ecbfda901484de34bbc" target="_top" xlink:title="picojson::value::serialize">
<polygon fill="none" stroke="black" points="310.494,-0.5 310.494,-18.5 434.883,-18.5 434.883,-0.5 310.494,-0.5"/>
<text text-anchor="middle" x="372.688" y="-6.5" font-family="Helvetica,sans-Serif" font-size="10.00">picojson::value::serialize</text>
</a>
</g>
</g>
<!-- Node18&#45;&gt;Node19 -->
<g id="edge17" class="edge"><title>Node18&#45;&gt;Node19</title>
<path fill="none" stroke="midnightblue" d="M274.515,-9.5C282.892,-9.5 291.515,-9.5 300.004,-9.5"/>
<polygon fill="midnightblue" stroke="midnightblue" points="300.266,-13.0001 310.266,-9.5 300.266,-6.0001 300.266,-13.0001"/>
</g>
</g>
</svg>
