<?xml version="1.0" encoding="UTF-8" standalone="no"?>
<!DOCTYPE svg PUBLIC "-//W3C//DTD SVG 1.1//EN"
 "http://www.w3.org/Graphics/SVG/1.1/DTD/svg11.dtd">
<!-- Generated by graphviz version 2.38.0 (20140413.2041)
 -->
<!-- Title: picojson::input::getc Pages: 1 -->
<svg width="1069pt" height="261pt"
 viewBox="0.00 0.00 1068.70 261.00" xmlns="http://www.w3.org/2000/svg" xmlns:xlink="http://www.w3.org/1999/xlink">
<g id="graph0" class="graph" transform="scale(1 1) rotate(0) translate(4 257)">
<title>picojson::input::getc</title>
<!-- Node17 -->
<g id="node1" class="node"><title>Node17</title>
<polygon fill="#bfbfbf" stroke="black" points="0,-140.5 0,-158.5 104.389,-158.5 104.389,-140.5 0,-140.5"/>
<text text-anchor="middle" x="52.1943" y="-146.5" font-family="Helvetica,sans-Serif" font-size="10.00">picojson::input::getc</text>
</g>
<!-- Node18 -->
<g id="node2" class="node"><title>Node18</title>
<g id="a_node2"><a xlink:href="namespacepicojson.html#a92d4f60542bbdfe8203f10e1fcce9368" target="_top" xlink:title="picojson::_parse_quadhex">
<polygon fill="none" stroke="black" points="140.389,-216.5 140.389,-234.5 273.142,-234.5 273.142,-216.5 140.389,-216.5"/>
<text text-anchor="middle" x="206.765" y="-222.5" font-family="Helvetica,sans-Serif" font-size="10.00">picojson::_parse_quadhex</text>
</a>
</g>
</g>
<!-- Node17&#45;&gt;Node18 -->
<g id="edge1" class="edge"><title>Node17&#45;&gt;Node18</title>
<path fill="none" stroke="midnightblue" d="M75.4026,-164.315C92.656,-175.433 117.433,-190.558 140.389,-201.5 152.285,-207.17 165.903,-212.363 177.62,-216.457"/>
<polygon fill="midnightblue" stroke="midnightblue" points="76.9379,-161.137 66.6508,-158.602 73.1119,-166.999 76.9379,-161.137"/>
</g>
<!-- Node19 -->
<g id="node3" class="node"><title>Node19</title>
<g id="a_node3"><a xlink:href="namespacepicojson.html#a05316c2614f3e7a4559ce1d1003eb051" target="_top" xlink:title="picojson::_parse_codepoint">
<polygon fill="none" stroke="black" points="309.142,-185.5 309.142,-203.5 446.895,-203.5 446.895,-185.5 309.142,-185.5"/>
<text text-anchor="middle" x="378.018" y="-191.5" font-family="Helvetica,sans-Serif" font-size="10.00">picojson::_parse_codepoint</text>
</a>
</g>
</g>
<!-- Node17&#45;&gt;Node19 -->
<g id="edge14" class="edge"><title>Node17&#45;&gt;Node19</title>
<path fill="none" stroke="midnightblue" d="M114.789,-159.617C123.381,-160.962 132.101,-162.292 140.389,-163.5 197.173,-171.776 261.776,-180.171 309.116,-186.134"/>
<polygon fill="midnightblue" stroke="midnightblue" points="115.219,-156.142 104.796,-158.038 114.127,-163.056 115.219,-156.142"/>
</g>
<!-- Node20 -->
<g id="node4" class="node"><title>Node20</title>
<g id="a_node4"><a xlink:href="namespacepicojson.html#a9a1d94feb2718129796225d77c9e8d11" target="_top" xlink:title="picojson::_parse_string">
<polygon fill="none" stroke="black" points="482.895,-185.5 482.895,-203.5 601.731,-203.5 601.731,-185.5 482.895,-185.5"/>
<text text-anchor="middle" x="542.313" y="-191.5" font-family="Helvetica,sans-Serif" font-size="10.00">picojson::_parse_string</text>
</a>
</g>
</g>
<!-- Node17&#45;&gt;Node20 -->
<g id="edge15" class="edge"><title>Node17&#45;&gt;Node20</title>
<path fill="none" stroke="midnightblue" d="M114.79,-150.984C192.502,-153.449 330.11,-159.784 446.895,-175.5 465.123,-177.953 485.119,-181.806 501.998,-185.403"/>
<polygon fill="midnightblue" stroke="midnightblue" points="114.795,-147.483 104.693,-150.675 114.581,-154.48 114.795,-147.483"/>
</g>
<!-- Node22 -->
<g id="node6" class="node"><title>Node22</title>
<g id="a_node6"><a xlink:href="namespacepicojson.html#aed024a6a1c8d8982a38c4a7fcefde221" target="_top" xlink:title="picojson::_parse">
<polygon fill="none" stroke="black" points="794.8,-102.5 794.8,-120.5 883.622,-120.5 883.622,-102.5 794.8,-102.5"/>
<text text-anchor="middle" x="839.211" y="-108.5" font-family="Helvetica,sans-Serif" font-size="10.00">picojson::_parse</text>
</a>
</g>
</g>
<!-- Node17&#45;&gt;Node22 -->
<g id="edge18" class="edge"><title>Node17&#45;&gt;Node22</title>
<path fill="none" stroke="midnightblue" d="M110.15,-138.735C174.643,-127.5 282.989,-111.5 377.018,-111.5 377.018,-111.5 377.018,-111.5 543.313,-111.5 632.653,-111.5 737.217,-111.5 794.74,-111.5"/>
<polygon fill="midnightblue" stroke="midnightblue" points="109.424,-135.309 100.185,-140.495 110.641,-142.203 109.424,-135.309"/>
</g>
<!-- Node31 -->
<g id="node15" class="node"><title>Node31</title>
<g id="a_node15"><a xlink:href="namespacepicojson.html#a771defe1d981b7091c2156bf4720625c" target="_top" xlink:title="picojson::_parse_number">
<polygon fill="none" stroke="black" points="313.873,-64.5 313.873,-82.5 442.163,-82.5 442.163,-64.5 313.873,-64.5"/>
<text text-anchor="middle" x="378.018" y="-70.5" font-family="Helvetica,sans-Serif" font-size="10.00">picojson::_parse_number</text>
</a>
</g>
</g>
<!-- Node17&#45;&gt;Node31 -->
<g id="edge16" class="edge"><title>Node17&#45;&gt;Node31</title>
<path fill="none" stroke="midnightblue" d="M72.9743,-134.247C89.8903,-122.084 115.398,-105.765 140.389,-97.5 197.038,-78.764 265.127,-73.5326 313.693,-72.5298"/>
<polygon fill="midnightblue" stroke="midnightblue" points="70.4783,-131.74 64.5182,-140.499 74.6399,-137.368 70.4783,-131.74"/>
</g>
<!-- Node18&#45;&gt;Node19 -->
<g id="edge2" class="edge"><title>Node18&#45;&gt;Node19</title>
<path fill="none" stroke="midnightblue" d="M267.045,-214.642C286.912,-211.004 308.832,-206.989 327.839,-203.507"/>
<polygon fill="midnightblue" stroke="midnightblue" points="266.381,-211.206 257.175,-216.45 267.642,-218.091 266.381,-211.206"/>
</g>
<!-- Node19&#45;&gt;Node20 -->
<g id="edge3" class="edge"><title>Node19&#45;&gt;Node20</title>
<path fill="none" stroke="midnightblue" d="M457.015,-194.5C465.666,-194.5 474.365,-194.5 482.717,-194.5"/>
<polygon fill="midnightblue" stroke="midnightblue" points="456.905,-191 446.905,-194.5 456.905,-198 456.905,-191"/>
</g>
<!-- Node21 -->
<g id="node5" class="node"><title>Node21</title>
<g id="a_node5"><a xlink:href="namespacepicojson.html#a480ed5e3461568672197a42e259a44c9" target="_top" xlink:title="picojson::_parse_object">
<polygon fill="none" stroke="black" points="637.731,-234.5 637.731,-252.5 758.8,-252.5 758.8,-234.5 637.731,-234.5"/>
<text text-anchor="middle" x="698.266" y="-240.5" font-family="Helvetica,sans-Serif" font-size="10.00">picojson::_parse_object</text>
</a>
</g>
</g>
<!-- Node20&#45;&gt;Node21 -->
<g id="edge4" class="edge"><title>Node20&#45;&gt;Node21</title>
<path fill="none" stroke="midnightblue" d="M580.306,-206.87C597.702,-212.629 618.75,-219.515 637.731,-225.5 647.206,-228.487 657.559,-231.652 666.936,-234.481"/>
<polygon fill="midnightblue" stroke="midnightblue" points="581.121,-203.453 570.528,-203.624 578.916,-210.096 581.121,-203.453"/>
</g>
<!-- Node29 -->
<g id="node13" class="node"><title>Node29</title>
<g id="a_node13"><a xlink:href="classpicojson_1_1default__parse__context.html#a476c7d30a5cf382b48201ec64585c2f3" target="_top" xlink:title="picojson::default_parse\l_context::parse_string">
<polygon fill="none" stroke="black" points="638.842,-187.5 638.842,-215.5 757.689,-215.5 757.689,-187.5 638.842,-187.5"/>
<text text-anchor="start" x="646.842" y="-203.5" font-family="Helvetica,sans-Serif" font-size="10.00">picojson::default_parse</text>
<text text-anchor="middle" x="698.266" y="-193.5" font-family="Helvetica,sans-Serif" font-size="10.00">_context::parse_string</text>
</a>
</g>
</g>
<!-- Node20&#45;&gt;Node29 -->
<g id="edge12" class="edge"><title>Node20&#45;&gt;Node29</title>
<path fill="none" stroke="midnightblue" d="M611.97,-197.622C620.921,-198.029 630.024,-198.443 638.787,-198.841"/>
<polygon fill="midnightblue" stroke="midnightblue" points="612.104,-194.124 601.955,-197.166 611.786,-201.117 612.104,-194.124"/>
</g>
<!-- Node30 -->
<g id="node14" class="node"><title>Node30</title>
<g id="a_node14"><a xlink:href="classpicojson_1_1null__parse__context.html#aab2c7dee1eb5b477370832811cd40d14" target="_top" xlink:title="picojson::null_parse\l_context::parse_string">
<polygon fill="none" stroke="black" points="641.071,-140.5 641.071,-168.5 755.46,-168.5 755.46,-140.5 641.071,-140.5"/>
<text text-anchor="start" x="649.071" y="-156.5" font-family="Helvetica,sans-Serif" font-size="10.00">picojson::null_parse</text>
<text text-anchor="middle" x="698.266" y="-146.5" font-family="Helvetica,sans-Serif" font-size="10.00">_context::parse_string</text>
</a>
</g>
</g>
<!-- Node20&#45;&gt;Node30 -->
<g id="edge13" class="edge"><title>Node20&#45;&gt;Node30</title>
<path fill="none" stroke="midnightblue" d="M588.05,-182.876C605.272,-178.402 625.122,-173.244 643.137,-168.564"/>
<polygon fill="midnightblue" stroke="midnightblue" points="587.046,-179.521 578.247,-185.423 588.806,-186.296 587.046,-179.521"/>
</g>
<!-- Node21&#45;&gt;Node22 -->
<g id="edge5" class="edge"><title>Node21&#45;&gt;Node22</title>
<path fill="none" stroke="midnightblue" d="M751.235,-230.2C753.882,-228.786 756.424,-227.225 758.8,-225.5 798.227,-196.875 824.876,-142.445 834.364,-120.756"/>
<polygon fill="midnightblue" stroke="midnightblue" points="749.562,-227.116 741.922,-234.456 752.472,-233.482 749.562,-227.116"/>
</g>
<!-- Node23 -->
<g id="node7" class="node"><title>Node23</title>
<g id="a_node7"><a xlink:href="classpicojson_1_1default__parse__context.html#a5f65224e655633b20c1f8c5967c153bb" target="_top" xlink:title="picojson::default_parse\l_context::parse_array_item">
<polygon fill="none" stroke="black" points="921.573,-215.5 921.573,-243.5 1058.74,-243.5 1058.74,-215.5 921.573,-215.5"/>
<text text-anchor="start" x="929.573" y="-231.5" font-family="Helvetica,sans-Serif" font-size="10.00">picojson::default_parse</text>
<text text-anchor="middle" x="990.159" y="-221.5" font-family="Helvetica,sans-Serif" font-size="10.00">_context::parse_array_item</text>
</a>
</g>
</g>
<!-- Node22&#45;&gt;Node23 -->
<g id="edge6" class="edge"><title>Node22&#45;&gt;Node23</title>
<path fill="none" stroke="midnightblue" d="M850.645,-129.192C864.051,-150.458 889.251,-185.856 919.622,-206.5 924.67,-209.931 930.269,-212.884 936.036,-215.418"/>
<polygon fill="midnightblue" stroke="midnightblue" points="853.544,-127.223 845.34,-120.519 847.572,-130.876 853.544,-127.223"/>
</g>
<!-- Node24 -->
<g id="node8" class="node"><title>Node24</title>
<g id="a_node8"><a xlink:href="classpicojson_1_1default__parse__context.html#adf71929b098e4f4b5c32222af149655a" target="_top" xlink:title="picojson::default_parse\l_context::parse_object_item">
<polygon fill="none" stroke="black" points="919.622,-168.5 919.622,-196.5 1060.7,-196.5 1060.7,-168.5 919.622,-168.5"/>
<text text-anchor="start" x="927.622" y="-184.5" font-family="Helvetica,sans-Serif" font-size="10.00">picojson::default_parse</text>
<text text-anchor="middle" x="990.159" y="-174.5" font-family="Helvetica,sans-Serif" font-size="10.00">_context::parse_object_item</text>
</a>
</g>
</g>
<!-- Node22&#45;&gt;Node24 -->
<g id="edge7" class="edge"><title>Node22&#45;&gt;Node24</title>
<path fill="none" stroke="midnightblue" d="M861.945,-125.989C877.55,-135.983 899.325,-149.108 919.622,-158.5 927.388,-162.093 935.852,-165.45 944.116,-168.447"/>
<polygon fill="midnightblue" stroke="midnightblue" points="863.819,-123.033 853.527,-120.518 860.005,-128.902 863.819,-123.033"/>
</g>
<!-- Node25 -->
<g id="node9" class="node"><title>Node25</title>
<g id="a_node9"><a xlink:href="classpicojson_1_1null__parse__context.html#a6623f92117dd6dc7bca60e9e9463a1a0" target="_top" xlink:title="picojson::null_parse\l_context::parse_array_item">
<polygon fill="none" stroke="black" points="921.573,-121.5 921.573,-149.5 1058.74,-149.5 1058.74,-121.5 921.573,-121.5"/>
<text text-anchor="start" x="929.573" y="-137.5" font-family="Helvetica,sans-Serif" font-size="10.00">picojson::null_parse</text>
<text text-anchor="middle" x="990.159" y="-127.5" font-family="Helvetica,sans-Serif" font-size="10.00">_context::parse_array_item</text>
</a>
</g>
</g>
<!-- Node22&#45;&gt;Node25 -->
<g id="edge8" class="edge"><title>Node22&#45;&gt;Node25</title>
<path fill="none" stroke="midnightblue" d="M893.668,-120.114C902.699,-121.569 912.18,-123.096 921.517,-124.601"/>
<polygon fill="midnightblue" stroke="midnightblue" points="894.123,-116.642 883.693,-118.506 893.009,-123.553 894.123,-116.642"/>
</g>
<!-- Node26 -->
<g id="node10" class="node"><title>Node26</title>
<g id="a_node10"><a xlink:href="classpicojson_1_1null__parse__context.html#a97c4b81a984ea473fe56e09aed7b9ca6" target="_top" xlink:title="picojson::null_parse\l_context::parse_object_item">
<polygon fill="none" stroke="black" points="919.622,-74.5 919.622,-102.5 1060.7,-102.5 1060.7,-74.5 919.622,-74.5"/>
<text text-anchor="start" x="927.622" y="-90.5" font-family="Helvetica,sans-Serif" font-size="10.00">picojson::null_parse</text>
<text text-anchor="middle" x="990.159" y="-80.5" font-family="Helvetica,sans-Serif" font-size="10.00">_context::parse_object_item</text>
</a>
</g>
</g>
<!-- Node22&#45;&gt;Node26 -->
<g id="edge9" class="edge"><title>Node22&#45;&gt;Node26</title>
<path fill="none" stroke="midnightblue" d="M893.704,-103.24C902.094,-101.944 910.871,-100.589 919.559,-99.2473"/>
<polygon fill="midnightblue" stroke="midnightblue" points="893.042,-99.8005 883.693,-104.786 894.11,-106.718 893.042,-99.8005"/>
</g>
<!-- Node27 -->
<g id="node11" class="node"><title>Node27</title>
<g id="a_node11"><a xlink:href="namespacepicojson.html#a01c0a3f35d42282ba913375737c8e259" target="_top" xlink:title="picojson::_parse">
<polygon fill="none" stroke="black" points="945.748,-37.5 945.748,-55.5 1034.57,-55.5 1034.57,-37.5 945.748,-37.5"/>
<text text-anchor="middle" x="990.159" y="-43.5" font-family="Helvetica,sans-Serif" font-size="10.00">picojson::_parse</text>
</a>
</g>
</g>
<!-- Node22&#45;&gt;Node27 -->
<g id="edge10" class="edge"><title>Node22&#45;&gt;Node27</title>
<path fill="none" stroke="midnightblue" d="M861.447,-96.6925C876.966,-86.4393 898.846,-73.1338 919.622,-64.5 928.028,-61.0066 937.295,-58.0419 946.247,-55.5884"/>
<polygon fill="midnightblue" stroke="midnightblue" points="859.436,-93.8268 853.1,-102.318 863.348,-99.6314 859.436,-93.8268"/>
</g>
<!-- Node28 -->
<g id="node12" class="node"><title>Node28</title>
<g id="a_node12"><a xlink:href="namespacepicojson.html#a21621c03c9c8c83dcf5bc604d1cafdf6" target="_top" xlink:title="picojson::parse">
<polygon fill="none" stroke="black" points="948.528,-0.5 948.528,-18.5 1031.79,-18.5 1031.79,-0.5 948.528,-0.5"/>
<text text-anchor="middle" x="990.159" y="-6.5" font-family="Helvetica,sans-Serif" font-size="10.00">picojson::parse</text>
</a>
</g>
</g>
<!-- Node22&#45;&gt;Node28 -->
<g id="edge11" class="edge"><title>Node22&#45;&gt;Node28</title>
<path fill="none" stroke="midnightblue" d="M852.154,-93.8854C866.104,-74.6781 890.96,-44.424 919.622,-27.5 928.32,-22.3642 938.475,-18.6764 948.295,-16.0344"/>
<polygon fill="midnightblue" stroke="midnightblue" points="849.109,-92.1292 846.212,-102.32 854.832,-96.1603 849.109,-92.1292"/>
</g>
<!-- Node31&#45;&gt;Node22 -->
<g id="edge17" class="edge"><title>Node31&#45;&gt;Node22</title>
<path fill="none" stroke="midnightblue" d="M452.415,-75.7141C529.072,-78.5933 652.699,-84.8348 758.8,-97.5 770.476,-98.8938 783.04,-100.88 794.651,-102.92"/>
<polygon fill="midnightblue" stroke="midnightblue" points="452.502,-72.215 442.38,-75.3463 452.245,-79.2103 452.502,-72.215"/>
</g>
</g>
</svg>
