<?xml version="1.0" encoding="UTF-8" standalone="no"?>
<!DOCTYPE svg PUBLIC "-//W3C//DTD SVG 1.1//EN"
 "http://www.w3.org/Graphics/SVG/1.1/DTD/svg11.dtd">
<!-- Generated by graphviz version 2.38.0 (20140413.2041)
 -->
<!-- Title: AudioSource::start Pages: 1 -->
<svg width="286pt" height="64pt"
 viewBox="0.00 0.00 285.56 64.00" xmlns="http://www.w3.org/2000/svg" xmlns:xlink="http://www.w3.org/1999/xlink">
<g id="graph0" class="graph" transform="scale(1 1) rotate(0) translate(4 60)">
<title>AudioSource::start</title>
<!-- Node35 -->
<g id="node1" class="node"><title>Node35</title>
<polygon fill="#bfbfbf" stroke="black" points="0,-18.5 0,-36.5 98.2656,-36.5 98.2656,-18.5 0,-18.5"/>
<text text-anchor="middle" x="49.1328" y="-24.5" font-family="Helvetica,sans-Serif" font-size="10.00">AudioSource::start</text>
</g>
<!-- Node36 -->
<g id="node2" class="node"><title>Node36</title>
<g id="a_node2"><a xlink:href="class_game_object.html#aa84b88e86847087180fba0270a0d63ff" target="_top" xlink:title="GameObject::getComponent">
<polygon fill="none" stroke="black" points="134.266,-37.5 134.266,-55.5 277.556,-55.5 277.556,-37.5 134.266,-37.5"/>
<text text-anchor="middle" x="205.911" y="-43.5" font-family="Helvetica,sans-Serif" font-size="10.00">GameObject::getComponent</text>
</a>
</g>
</g>
<!-- Node35&#45;&gt;Node36 -->
<g id="edge1" class="edge"><title>Node35&#45;&gt;Node36</title>
<path fill="none" stroke="midnightblue" d="M98.6808,-33.4596C106.773,-34.453 115.357,-35.5067 123.999,-36.5676"/>
<polygon fill="midnightblue" stroke="midnightblue" points="123.793,-40.0685 134.145,-37.8131 124.646,-33.1207 123.793,-40.0685"/>
</g>
<!-- Node37 -->
<g id="node3" class="node"><title>Node37</title>
<g id="a_node3"><a xlink:href="class_audio_source.html#ae6fac3df9beba8f9a8c404f3cb5d59f3" target="_top" xlink:title="AudioSource::Instance">
<polygon fill="none" stroke="black" points="147.601,-0.5 147.601,-18.5 264.221,-18.5 264.221,-0.5 147.601,-0.5"/>
<text text-anchor="middle" x="205.911" y="-6.5" font-family="Helvetica,sans-Serif" font-size="10.00">AudioSource::Instance</text>
</a>
</g>
</g>
<!-- Node35&#45;&gt;Node37 -->
<g id="edge2" class="edge"><title>Node35&#45;&gt;Node37</title>
<path fill="none" stroke="midnightblue" d="M98.6808,-21.8541C110.923,-20.4304 124.288,-18.876 137.281,-17.365"/>
<polygon fill="midnightblue" stroke="midnightblue" points="138.064,-20.7977 147.592,-16.1659 137.255,-13.8446 138.064,-20.7977"/>
</g>
</g>
</svg>
