<?xml version="1.0" encoding="UTF-8" standalone="no"?>
<!DOCTYPE svg PUBLIC "-//W3C//DTD SVG 1.1//EN"
 "http://www.w3.org/Graphics/SVG/1.1/DTD/svg11.dtd">
<!-- Generated by graphviz version 2.38.0 (20140413.2041)
 -->
<!-- Title: ParticleSystem::Start Pages: 1 -->
<svg width="291pt" height="74pt"
 viewBox="0.00 0.00 291.06 74.00" xmlns="http://www.w3.org/2000/svg" xmlns:xlink="http://www.w3.org/1999/xlink">
<g id="graph0" class="graph" transform="scale(1 1) rotate(0) translate(4 70)">
<title>ParticleSystem::Start</title>
<!-- Node34 -->
<g id="node1" class="node"><title>Node34</title>
<polygon fill="#bfbfbf" stroke="black" points="0,-21.5 0,-39.5 109.359,-39.5 109.359,-21.5 0,-21.5"/>
<text text-anchor="middle" x="54.6797" y="-27.5" font-family="Helvetica,sans-Serif" font-size="10.00">ParticleSystem::Start</text>
</g>
<!-- Node35 -->
<g id="node2" class="node"><title>Node35</title>
<g id="a_node2"><a xlink:href="class_particle_system.html#ae29e9a0135a189a79f5bcb091b15b4ba" target="_top" xlink:title="ParticleSystem::SetCircular\lRandEmit">
<polygon fill="none" stroke="black" points="145.359,-37.5 145.359,-65.5 283.059,-65.5 283.059,-37.5 145.359,-37.5"/>
<text text-anchor="start" x="153.359" y="-53.5" font-family="Helvetica,sans-Serif" font-size="10.00">ParticleSystem::SetCircular</text>
<text text-anchor="middle" x="214.209" y="-43.5" font-family="Helvetica,sans-Serif" font-size="10.00">RandEmit</text>
</a>
</g>
</g>
<!-- Node34&#45;&gt;Node35 -->
<g id="edge1" class="edge"><title>Node34&#45;&gt;Node35</title>
<path fill="none" stroke="midnightblue" d="M109.452,-37.6683C117.716,-38.7699 126.389,-39.9262 135.053,-41.0812"/>
<polygon fill="midnightblue" stroke="midnightblue" points="134.819,-44.5809 145.194,-42.433 135.744,-37.6423 134.819,-44.5809"/>
</g>
<!-- Node36 -->
<g id="node3" class="node"><title>Node36</title>
<g id="a_node3"><a xlink:href="class_particle_system.html#a166fd86f020b6024d7d42723762d7cb2" target="_top" xlink:title="ParticleSystem::update">
<polygon fill="none" stroke="black" points="154.795,-0.5 154.795,-18.5 273.623,-18.5 273.623,-0.5 154.795,-0.5"/>
<text text-anchor="middle" x="214.209" y="-6.5" font-family="Helvetica,sans-Serif" font-size="10.00">ParticleSystem::update</text>
</a>
</g>
</g>
<!-- Node34&#45;&gt;Node36 -->
<g id="edge2" class="edge"><title>Node34&#45;&gt;Node36</title>
<path fill="none" stroke="midnightblue" d="M109.452,-23.3317C120.689,-21.8338 132.682,-20.2349 144.379,-18.6756"/>
<polygon fill="midnightblue" stroke="midnightblue" points="145.105,-22.1098 154.555,-17.319 144.18,-15.1712 145.105,-22.1098"/>
</g>
</g>
</svg>
