<?xml version="1.0" encoding="UTF-8" standalone="no"?>
<!DOCTYPE svg PUBLIC "-//W3C//DTD SVG 1.1//EN"
 "http://www.w3.org/Graphics/SVG/1.1/DTD/svg11.dtd">
<!-- Generated by graphviz version 2.38.0 (20140413.2041)
 -->
<!-- Title: ParticleController Pages: 1 -->
<svg width="116pt" height="425pt"
 viewBox="0.00 0.00 115.69 425.00" xmlns="http://www.w3.org/2000/svg" xmlns:xlink="http://www.w3.org/1999/xlink">
<g id="graph0" class="graph" transform="scale(1 1) rotate(0) translate(4 421)">
<title>ParticleController</title>
<!-- Node0 -->
<g id="node1" class="node"><title>Node0</title>
<polygon fill="#bfbfbf" stroke="black" points="0,-0.5 0,-84.5 107.694,-84.5 107.694,-0.5 0,-0.5"/>
<text text-anchor="middle" x="53.8472" y="-72.5" font-family="Helvetica,sans-Serif" font-size="10.00">ParticleController</text>
<polyline fill="none" stroke="black" points="0,-66.5 107.694,-66.5 "/>
<text text-anchor="start" x="8" y="-54.5" font-family="Helvetica,sans-Serif" font-size="10.00">+ timePassed</text>
<polyline fill="none" stroke="black" points="0,-48.5 107.694,-48.5 "/>
<text text-anchor="start" x="8" y="-36.5" font-family="Helvetica,sans-Serif" font-size="10.00">+ Awake()</text>
<text text-anchor="start" x="8" y="-26.5" font-family="Helvetica,sans-Serif" font-size="10.00">+ Update()</text>
<text text-anchor="start" x="8" y="-16.5" font-family="Helvetica,sans-Serif" font-size="10.00">+ Start()</text>
<text text-anchor="start" x="8" y="-6.5" font-family="Helvetica,sans-Serif" font-size="10.00"># ParticleController()</text>
</g>
<!-- Node1 -->
<g id="node2" class="node"><title>Node1</title>
<g id="a_node2"><a xlink:href="class_scriptable.html" target="_top" xlink:title="{Scriptable\n||+ Awake()\l+ Update()\l+ Start()\l+ OnCollisionEnter()\l+ OnCollisionExit()\l+ Awake()\l+ Update()\l+ Start()\l+ OnCollisionEnter()\l+ OnCollisionExit()\l# Scriptable()\l# Scriptable()\l}">
<polygon fill="none" stroke="black" points="0.690918,-121.5 0.690918,-285.5 107.003,-285.5 107.003,-121.5 0.690918,-121.5"/>
<text text-anchor="middle" x="53.8472" y="-273.5" font-family="Helvetica,sans-Serif" font-size="10.00">Scriptable</text>
<polyline fill="none" stroke="black" points="0.690918,-267.5 107.003,-267.5 "/>
<text text-anchor="middle" x="53.8472" y="-255.5" font-family="Helvetica,sans-Serif" font-size="10.00"> </text>
<polyline fill="none" stroke="black" points="0.690918,-249.5 107.003,-249.5 "/>
<text text-anchor="start" x="8.69092" y="-237.5" font-family="Helvetica,sans-Serif" font-size="10.00">+ Awake()</text>
<text text-anchor="start" x="8.69092" y="-227.5" font-family="Helvetica,sans-Serif" font-size="10.00">+ Update()</text>
<text text-anchor="start" x="8.69092" y="-217.5" font-family="Helvetica,sans-Serif" font-size="10.00">+ Start()</text>
<text text-anchor="start" x="8.69092" y="-207.5" font-family="Helvetica,sans-Serif" font-size="10.00">+ OnCollisionEnter()</text>
<text text-anchor="start" x="8.69092" y="-197.5" font-family="Helvetica,sans-Serif" font-size="10.00">+ OnCollisionExit()</text>
<text text-anchor="start" x="8.69092" y="-187.5" font-family="Helvetica,sans-Serif" font-size="10.00">+ Awake()</text>
<text text-anchor="start" x="8.69092" y="-177.5" font-family="Helvetica,sans-Serif" font-size="10.00">+ Update()</text>
<text text-anchor="start" x="8.69092" y="-167.5" font-family="Helvetica,sans-Serif" font-size="10.00">+ Start()</text>
<text text-anchor="start" x="8.69092" y="-157.5" font-family="Helvetica,sans-Serif" font-size="10.00">+ OnCollisionEnter()</text>
<text text-anchor="start" x="8.69092" y="-147.5" font-family="Helvetica,sans-Serif" font-size="10.00">+ OnCollisionExit()</text>
<text text-anchor="start" x="8.69092" y="-137.5" font-family="Helvetica,sans-Serif" font-size="10.00"># Scriptable()</text>
<text text-anchor="start" x="8.69092" y="-127.5" font-family="Helvetica,sans-Serif" font-size="10.00"># Scriptable()</text>
</a>
</g>
</g>
<!-- Node1&#45;&gt;Node0 -->
<g id="edge1" class="edge"><title>Node1&#45;&gt;Node0</title>
<path fill="none" stroke="midnightblue" d="M53.8472,-111.068C53.8472,-101.845 53.8472,-92.8415 53.8472,-84.5692"/>
<polygon fill="none" stroke="midnightblue" points="50.3473,-111.137 53.8472,-121.137 57.3473,-111.137 50.3473,-111.137"/>
</g>
<!-- Node2 -->
<g id="node3" class="node"><title>Node2</title>
<g id="a_node3"><a xlink:href="class_component.html" target="_top" xlink:title="{Component\n|# gameObject\l# name\l|+ ~Component()\l+ getGameObject()\l+ getName()\l# Component()\l}">
<polygon fill="none" stroke="black" points="3.19092,-322.5 3.19092,-416.5 104.503,-416.5 104.503,-322.5 3.19092,-322.5"/>
<text text-anchor="middle" x="53.8472" y="-404.5" font-family="Helvetica,sans-Serif" font-size="10.00">Component</text>
<polyline fill="none" stroke="black" points="3.19092,-398.5 104.503,-398.5 "/>
<text text-anchor="start" x="11.1909" y="-386.5" font-family="Helvetica,sans-Serif" font-size="10.00"># gameObject</text>
<text text-anchor="start" x="11.1909" y="-376.5" font-family="Helvetica,sans-Serif" font-size="10.00"># name</text>
<polyline fill="none" stroke="black" points="3.19092,-370.5 104.503,-370.5 "/>
<text text-anchor="start" x="11.1909" y="-358.5" font-family="Helvetica,sans-Serif" font-size="10.00">+ ~Component()</text>
<text text-anchor="start" x="11.1909" y="-348.5" font-family="Helvetica,sans-Serif" font-size="10.00">+ getGameObject()</text>
<text text-anchor="start" x="11.1909" y="-338.5" font-family="Helvetica,sans-Serif" font-size="10.00">+ getName()</text>
<text text-anchor="start" x="11.1909" y="-328.5" font-family="Helvetica,sans-Serif" font-size="10.00"># Component()</text>
</a>
</g>
</g>
<!-- Node2&#45;&gt;Node1 -->
<g id="edge2" class="edge"><title>Node2&#45;&gt;Node1</title>
<path fill="none" stroke="midnightblue" d="M47.4003,-312.176C47.1919,-303.618 47.0909,-294.645 47.0975,-285.685"/>
<polygon fill="none" stroke="midnightblue" points="43.9081,-312.49 47.7078,-322.38 50.9049,-312.279 43.9081,-312.49"/>
</g>
<!-- Node2&#45;&gt;Node1 -->
<g id="edge3" class="edge"><title>Node2&#45;&gt;Node1</title>
<path fill="none" stroke="midnightblue" d="M60.294,-312.176C60.5024,-303.618 60.6034,-294.645 60.5969,-285.685"/>
<polygon fill="none" stroke="midnightblue" points="56.7894,-312.279 59.9865,-322.38 63.7862,-312.49 56.7894,-312.279"/>
</g>
</g>
</svg>
