<?xml version="1.0" encoding="UTF-8" standalone="no"?>
<!DOCTYPE svg PUBLIC "-//W3C//DTD SVG 1.1//EN"
 "http://www.w3.org/Graphics/SVG/1.1/DTD/svg11.dtd">
<!-- Generated by graphviz version 2.38.0 (20140413.2041)
 -->
<!-- Title: picojson::value::swap Pages: 1 -->
<svg width="463pt" height="92pt"
 viewBox="0.00 0.00 462.92 92.00" xmlns="http://www.w3.org/2000/svg" xmlns:xlink="http://www.w3.org/1999/xlink">
<g id="graph0" class="graph" transform="scale(1 1) rotate(0) translate(4 88)">
<title>picojson::value::swap</title>
<!-- Node89 -->
<g id="node1" class="node"><title>Node89</title>
<polygon fill="#bfbfbf" stroke="black" points="0,-0.5 0,-18.5 111.054,-18.5 111.054,-0.5 0,-0.5"/>
<text text-anchor="middle" x="55.5269" y="-6.5" font-family="Helvetica,sans-Serif" font-size="10.00">picojson::value::swap</text>
</g>
<!-- Node90 -->
<g id="node2" class="node"><title>Node90</title>
<g id="a_node2"><a xlink:href="classpicojson_1_1value.html#acc5e4506e6a793af5132983573f9da6a" target="_top" xlink:title="picojson::value::operator=">
<polygon fill="none" stroke="black" points="147.054,-37.5 147.054,-55.5 277.849,-55.5 277.849,-37.5 147.054,-37.5"/>
<text text-anchor="middle" x="212.451" y="-43.5" font-family="Helvetica,sans-Serif" font-size="10.00">picojson::value::operator=</text>
</a>
</g>
</g>
<!-- Node89&#45;&gt;Node90 -->
<g id="edge1" class="edge"><title>Node89&#45;&gt;Node90</title>
<path fill="none" stroke="midnightblue" d="M104.364,-20.9247C126.655,-26.2484 152.799,-32.4924 173.676,-37.4782"/>
<polygon fill="midnightblue" stroke="midnightblue" points="104.965,-17.47 94.4256,-18.5512 103.339,-24.2785 104.965,-17.47"/>
</g>
<!-- Node93 -->
<g id="node5" class="node"><title>Node93</title>
<g id="a_node5"><a xlink:href="namespacestd.html#abb7e41c7063536ff6eeee4bb5f66de6c" target="_top" xlink:title="std::swap">
<polygon fill="none" stroke="black" points="183.331,-0.5 183.331,-18.5 241.572,-18.5 241.572,-0.5 183.331,-0.5"/>
<text text-anchor="middle" x="212.451" y="-6.5" font-family="Helvetica,sans-Serif" font-size="10.00">std::swap</text>
</a>
</g>
</g>
<!-- Node89&#45;&gt;Node93 -->
<g id="edge4" class="edge"><title>Node89&#45;&gt;Node93</title>
<path fill="none" stroke="midnightblue" d="M121.237,-2.83197C142.744,-2.55322 165.599,-2.98542 182.924,-4.12856"/>
<polygon fill="midnightblue" stroke="midnightblue" points="121.081,0.665857 111.147,-3.01789 121.21,-6.33295 121.081,0.665857"/>
</g>
<!-- Node91 -->
<g id="node3" class="node"><title>Node91</title>
<g id="a_node3"><a xlink:href="classpicojson_1_1default__parse__context.html#adf71929b098e4f4b5c32222af149655a" target="_top" xlink:title="picojson::default_parse\l_context::parse_object_item">
<polygon fill="none" stroke="black" points="313.849,-55.5 313.849,-83.5 454.922,-83.5 454.922,-55.5 313.849,-55.5"/>
<text text-anchor="start" x="321.849" y="-71.5" font-family="Helvetica,sans-Serif" font-size="10.00">picojson::default_parse</text>
<text text-anchor="middle" x="384.385" y="-61.5" font-family="Helvetica,sans-Serif" font-size="10.00">_context::parse_object_item</text>
</a>
</g>
</g>
<!-- Node90&#45;&gt;Node91 -->
<g id="edge2" class="edge"><title>Node90&#45;&gt;Node91</title>
<path fill="none" stroke="midnightblue" d="M288.101,-56.6035C296.624,-57.7571 305.287,-58.9297 313.742,-60.074"/>
<polygon fill="midnightblue" stroke="midnightblue" points="288.56,-53.1339 278.181,-55.2609 287.621,-60.0706 288.56,-53.1339"/>
</g>
<!-- Node92 -->
<g id="node4" class="node"><title>Node92</title>
<g id="a_node4"><a xlink:href="classpicojson_1_1null__parse__context.html#a97c4b81a984ea473fe56e09aed7b9ca6" target="_top" xlink:title="picojson::null_parse\l_context::parse_object_item">
<polygon fill="none" stroke="black" points="313.849,-8.5 313.849,-36.5 454.922,-36.5 454.922,-8.5 313.849,-8.5"/>
<text text-anchor="start" x="321.849" y="-24.5" font-family="Helvetica,sans-Serif" font-size="10.00">picojson::null_parse</text>
<text text-anchor="middle" x="384.385" y="-14.5" font-family="Helvetica,sans-Serif" font-size="10.00">_context::parse_object_item</text>
</a>
</g>
</g>
<!-- Node90&#45;&gt;Node92 -->
<g id="edge3" class="edge"><title>Node90&#45;&gt;Node92</title>
<path fill="none" stroke="midnightblue" d="M287.342,-36.0644C296.052,-34.8342 304.92,-33.5818 313.571,-32.3599"/>
<polygon fill="midnightblue" stroke="midnightblue" points="286.624,-32.6309 277.212,-37.495 287.603,-39.5621 286.624,-32.6309"/>
</g>
<!-- Node93&#45;&gt;Node89 -->
<g id="edge5" class="edge"><title>Node93&#45;&gt;Node89</title>
<path fill="none" stroke="midnightblue" d="M172.755,-15.4343C154.134,-16.2897 131.487,-16.4724 111.147,-15.9821"/>
<polygon fill="midnightblue" stroke="midnightblue" points="173.133,-18.9188 182.924,-14.8714 172.746,-11.9295 173.133,-18.9188"/>
</g>
</g>
</svg>
