<?xml version="1.0" encoding="UTF-8" standalone="no"?>
<!DOCTYPE svg PUBLIC "-//W3C//DTD SVG 1.1//EN"
 "http://www.w3.org/Graphics/SVG/1.1/DTD/svg11.dtd">
<!-- Generated by graphviz version 2.38.0 (20140413.2041)
 -->
<!-- Title: picojson::input::ungetc Pages: 1 -->
<svg width="1080pt" height="261pt"
 viewBox="0.00 0.00 1079.82 261.00" xmlns="http://www.w3.org/2000/svg" xmlns:xlink="http://www.w3.org/1999/xlink">
<g id="graph0" class="graph" transform="scale(1 1) rotate(0) translate(4 257)">
<title>picojson::input::ungetc</title>
<!-- Node47 -->
<g id="node1" class="node"><title>Node47</title>
<polygon fill="#bfbfbf" stroke="black" points="0,-140.5 0,-158.5 115.512,-158.5 115.512,-140.5 0,-140.5"/>
<text text-anchor="middle" x="57.7559" y="-146.5" font-family="Helvetica,sans-Serif" font-size="10.00">picojson::input::ungetc</text>
</g>
<!-- Node48 -->
<g id="node2" class="node"><title>Node48</title>
<g id="a_node2"><a xlink:href="namespacepicojson.html#a92d4f60542bbdfe8203f10e1fcce9368" target="_top" xlink:title="picojson::_parse_quadhex">
<polygon fill="none" stroke="black" points="151.512,-216.5 151.512,-234.5 284.265,-234.5 284.265,-216.5 151.512,-216.5"/>
<text text-anchor="middle" x="217.888" y="-222.5" font-family="Helvetica,sans-Serif" font-size="10.00">picojson::_parse_quadhex</text>
</a>
</g>
</g>
<!-- Node47&#45;&gt;Node48 -->
<g id="edge1" class="edge"><title>Node47&#45;&gt;Node48</title>
<path fill="none" stroke="midnightblue" d="M81.7458,-163.744C100.197,-174.841 126.98,-190.208 151.512,-201.5 163.593,-207.061 177.363,-212.274 189.139,-216.412"/>
<polygon fill="midnightblue" stroke="midnightblue" points="83.5218,-160.728 73.1584,-158.526 79.8864,-166.71 83.5218,-160.728"/>
</g>
<!-- Node49 -->
<g id="node3" class="node"><title>Node49</title>
<g id="a_node3"><a xlink:href="namespacepicojson.html#a05316c2614f3e7a4559ce1d1003eb051" target="_top" xlink:title="picojson::_parse_codepoint">
<polygon fill="none" stroke="black" points="320.265,-185.5 320.265,-203.5 458.018,-203.5 458.018,-185.5 320.265,-185.5"/>
<text text-anchor="middle" x="389.141" y="-191.5" font-family="Helvetica,sans-Serif" font-size="10.00">picojson::_parse_codepoint</text>
</a>
</g>
</g>
<!-- Node47&#45;&gt;Node49 -->
<g id="edge14" class="edge"><title>Node47&#45;&gt;Node49</title>
<path fill="none" stroke="midnightblue" d="M125.736,-159.769C134.405,-161.051 143.166,-162.324 151.512,-163.5 208.334,-171.509 272.934,-179.926 320.264,-185.965"/>
<polygon fill="midnightblue" stroke="midnightblue" points="126.039,-156.275 115.633,-158.264 125.008,-163.199 126.039,-156.275"/>
</g>
<!-- Node50 -->
<g id="node4" class="node"><title>Node50</title>
<g id="a_node4"><a xlink:href="namespacepicojson.html#a9a1d94feb2718129796225d77c9e8d11" target="_top" xlink:title="picojson::_parse_string">
<polygon fill="none" stroke="black" points="494.018,-185.5 494.018,-203.5 612.854,-203.5 612.854,-185.5 494.018,-185.5"/>
<text text-anchor="middle" x="553.436" y="-191.5" font-family="Helvetica,sans-Serif" font-size="10.00">picojson::_parse_string</text>
</a>
</g>
</g>
<!-- Node47&#45;&gt;Node50 -->
<g id="edge15" class="edge"><title>Node47&#45;&gt;Node50</title>
<path fill="none" stroke="midnightblue" d="M125.896,-151.057C205.462,-153.552 341.896,-159.873 458.018,-175.5 476.246,-177.953 496.242,-181.806 513.121,-185.403"/>
<polygon fill="midnightblue" stroke="midnightblue" points="125.632,-147.548 115.53,-150.744 125.42,-154.544 125.632,-147.548"/>
</g>
<!-- Node52 -->
<g id="node6" class="node"><title>Node52</title>
<g id="a_node6"><a xlink:href="namespacepicojson.html#aed024a6a1c8d8982a38c4a7fcefde221" target="_top" xlink:title="picojson::_parse">
<polygon fill="none" stroke="black" points="805.923,-102.5 805.923,-120.5 894.745,-120.5 894.745,-102.5 805.923,-102.5"/>
<text text-anchor="middle" x="850.334" y="-108.5" font-family="Helvetica,sans-Serif" font-size="10.00">picojson::_parse</text>
</a>
</g>
</g>
<!-- Node47&#45;&gt;Node52 -->
<g id="edge18" class="edge"><title>Node47&#45;&gt;Node52</title>
<path fill="none" stroke="midnightblue" d="M116.698,-138.735C182.306,-127.5 292.519,-111.5 388.141,-111.5 388.141,-111.5 388.141,-111.5 554.436,-111.5 643.776,-111.5 748.34,-111.5 805.863,-111.5"/>
<polygon fill="midnightblue" stroke="midnightblue" points="115.815,-135.336 106.56,-140.495 117.011,-142.233 115.815,-135.336"/>
</g>
<!-- Node61 -->
<g id="node15" class="node"><title>Node61</title>
<g id="a_node15"><a xlink:href="namespacepicojson.html#a771defe1d981b7091c2156bf4720625c" target="_top" xlink:title="picojson::_parse_number">
<polygon fill="none" stroke="black" points="324.996,-64.5 324.996,-82.5 453.286,-82.5 453.286,-64.5 324.996,-64.5"/>
<text text-anchor="middle" x="389.141" y="-70.5" font-family="Helvetica,sans-Serif" font-size="10.00">picojson::_parse_number</text>
</a>
</g>
</g>
<!-- Node47&#45;&gt;Node61 -->
<g id="edge16" class="edge"><title>Node47&#45;&gt;Node61</title>
<path fill="none" stroke="midnightblue" d="M79.7585,-134.398C97.845,-122.234 125.128,-105.836 151.512,-97.5 208.407,-79.5245 276.465,-74.1951 324.956,-72.9626"/>
<polygon fill="midnightblue" stroke="midnightblue" points="77.436,-131.748 71.1922,-140.307 81.411,-137.51 77.436,-131.748"/>
</g>
<!-- Node48&#45;&gt;Node49 -->
<g id="edge2" class="edge"><title>Node48&#45;&gt;Node49</title>
<path fill="none" stroke="midnightblue" d="M278.168,-214.642C298.035,-211.004 319.955,-206.989 338.962,-203.507"/>
<polygon fill="midnightblue" stroke="midnightblue" points="277.504,-211.206 268.298,-216.45 278.765,-218.091 277.504,-211.206"/>
</g>
<!-- Node49&#45;&gt;Node50 -->
<g id="edge3" class="edge"><title>Node49&#45;&gt;Node50</title>
<path fill="none" stroke="midnightblue" d="M468.138,-194.5C476.789,-194.5 485.488,-194.5 493.84,-194.5"/>
<polygon fill="midnightblue" stroke="midnightblue" points="468.028,-191 458.028,-194.5 468.028,-198 468.028,-191"/>
</g>
<!-- Node51 -->
<g id="node5" class="node"><title>Node51</title>
<g id="a_node5"><a xlink:href="namespacepicojson.html#a480ed5e3461568672197a42e259a44c9" target="_top" xlink:title="picojson::_parse_object">
<polygon fill="none" stroke="black" points="648.854,-234.5 648.854,-252.5 769.923,-252.5 769.923,-234.5 648.854,-234.5"/>
<text text-anchor="middle" x="709.389" y="-240.5" font-family="Helvetica,sans-Serif" font-size="10.00">picojson::_parse_object</text>
</a>
</g>
</g>
<!-- Node50&#45;&gt;Node51 -->
<g id="edge4" class="edge"><title>Node50&#45;&gt;Node51</title>
<path fill="none" stroke="midnightblue" d="M591.429,-206.87C608.825,-212.629 629.873,-219.515 648.854,-225.5 658.329,-228.487 668.682,-231.652 678.059,-234.481"/>
<polygon fill="midnightblue" stroke="midnightblue" points="592.244,-203.453 581.651,-203.624 590.039,-210.096 592.244,-203.453"/>
</g>
<!-- Node59 -->
<g id="node13" class="node"><title>Node59</title>
<g id="a_node13"><a xlink:href="classpicojson_1_1default__parse__context.html#a476c7d30a5cf382b48201ec64585c2f3" target="_top" xlink:title="picojson::default_parse\l_context::parse_string">
<polygon fill="none" stroke="black" points="649.965,-187.5 649.965,-215.5 768.812,-215.5 768.812,-187.5 649.965,-187.5"/>
<text text-anchor="start" x="657.965" y="-203.5" font-family="Helvetica,sans-Serif" font-size="10.00">picojson::default_parse</text>
<text text-anchor="middle" x="709.389" y="-193.5" font-family="Helvetica,sans-Serif" font-size="10.00">_context::parse_string</text>
</a>
</g>
</g>
<!-- Node50&#45;&gt;Node59 -->
<g id="edge12" class="edge"><title>Node50&#45;&gt;Node59</title>
<path fill="none" stroke="midnightblue" d="M623.093,-197.622C632.044,-198.029 641.147,-198.443 649.91,-198.841"/>
<polygon fill="midnightblue" stroke="midnightblue" points="623.227,-194.124 613.078,-197.166 622.909,-201.117 623.227,-194.124"/>
</g>
<!-- Node60 -->
<g id="node14" class="node"><title>Node60</title>
<g id="a_node14"><a xlink:href="classpicojson_1_1null__parse__context.html#aab2c7dee1eb5b477370832811cd40d14" target="_top" xlink:title="picojson::null_parse\l_context::parse_string">
<polygon fill="none" stroke="black" points="652.194,-140.5 652.194,-168.5 766.583,-168.5 766.583,-140.5 652.194,-140.5"/>
<text text-anchor="start" x="660.194" y="-156.5" font-family="Helvetica,sans-Serif" font-size="10.00">picojson::null_parse</text>
<text text-anchor="middle" x="709.389" y="-146.5" font-family="Helvetica,sans-Serif" font-size="10.00">_context::parse_string</text>
</a>
</g>
</g>
<!-- Node50&#45;&gt;Node60 -->
<g id="edge13" class="edge"><title>Node50&#45;&gt;Node60</title>
<path fill="none" stroke="midnightblue" d="M599.173,-182.876C616.395,-178.402 636.245,-173.244 654.26,-168.564"/>
<polygon fill="midnightblue" stroke="midnightblue" points="598.169,-179.521 589.37,-185.423 599.929,-186.296 598.169,-179.521"/>
</g>
<!-- Node51&#45;&gt;Node52 -->
<g id="edge5" class="edge"><title>Node51&#45;&gt;Node52</title>
<path fill="none" stroke="midnightblue" d="M762.358,-230.2C765.005,-228.786 767.547,-227.225 769.923,-225.5 809.35,-196.875 835.999,-142.445 845.487,-120.756"/>
<polygon fill="midnightblue" stroke="midnightblue" points="760.685,-227.116 753.045,-234.456 763.595,-233.482 760.685,-227.116"/>
</g>
<!-- Node53 -->
<g id="node7" class="node"><title>Node53</title>
<g id="a_node7"><a xlink:href="classpicojson_1_1default__parse__context.html#a5f65224e655633b20c1f8c5967c153bb" target="_top" xlink:title="picojson::default_parse\l_context::parse_array_item">
<polygon fill="none" stroke="black" points="932.696,-215.5 932.696,-243.5 1069.87,-243.5 1069.87,-215.5 932.696,-215.5"/>
<text text-anchor="start" x="940.696" y="-231.5" font-family="Helvetica,sans-Serif" font-size="10.00">picojson::default_parse</text>
<text text-anchor="middle" x="1001.28" y="-221.5" font-family="Helvetica,sans-Serif" font-size="10.00">_context::parse_array_item</text>
</a>
</g>
</g>
<!-- Node52&#45;&gt;Node53 -->
<g id="edge6" class="edge"><title>Node52&#45;&gt;Node53</title>
<path fill="none" stroke="midnightblue" d="M861.768,-129.192C875.174,-150.458 900.374,-185.856 930.745,-206.5 935.793,-209.931 941.392,-212.884 947.159,-215.418"/>
<polygon fill="midnightblue" stroke="midnightblue" points="864.667,-127.223 856.463,-120.519 858.696,-130.876 864.667,-127.223"/>
</g>
<!-- Node54 -->
<g id="node8" class="node"><title>Node54</title>
<g id="a_node8"><a xlink:href="classpicojson_1_1default__parse__context.html#adf71929b098e4f4b5c32222af149655a" target="_top" xlink:title="picojson::default_parse\l_context::parse_object_item">
<polygon fill="none" stroke="black" points="930.745,-168.5 930.745,-196.5 1071.82,-196.5 1071.82,-168.5 930.745,-168.5"/>
<text text-anchor="start" x="938.745" y="-184.5" font-family="Helvetica,sans-Serif" font-size="10.00">picojson::default_parse</text>
<text text-anchor="middle" x="1001.28" y="-174.5" font-family="Helvetica,sans-Serif" font-size="10.00">_context::parse_object_item</text>
</a>
</g>
</g>
<!-- Node52&#45;&gt;Node54 -->
<g id="edge7" class="edge"><title>Node52&#45;&gt;Node54</title>
<path fill="none" stroke="midnightblue" d="M873.068,-125.989C888.673,-135.983 910.448,-149.108 930.745,-158.5 938.511,-162.093 946.975,-165.45 955.239,-168.447"/>
<polygon fill="midnightblue" stroke="midnightblue" points="874.942,-123.033 864.65,-120.518 871.128,-128.902 874.942,-123.033"/>
</g>
<!-- Node55 -->
<g id="node9" class="node"><title>Node55</title>
<g id="a_node9"><a xlink:href="classpicojson_1_1null__parse__context.html#a6623f92117dd6dc7bca60e9e9463a1a0" target="_top" xlink:title="picojson::null_parse\l_context::parse_array_item">
<polygon fill="none" stroke="black" points="932.696,-121.5 932.696,-149.5 1069.87,-149.5 1069.87,-121.5 932.696,-121.5"/>
<text text-anchor="start" x="940.696" y="-137.5" font-family="Helvetica,sans-Serif" font-size="10.00">picojson::null_parse</text>
<text text-anchor="middle" x="1001.28" y="-127.5" font-family="Helvetica,sans-Serif" font-size="10.00">_context::parse_array_item</text>
</a>
</g>
</g>
<!-- Node52&#45;&gt;Node55 -->
<g id="edge8" class="edge"><title>Node52&#45;&gt;Node55</title>
<path fill="none" stroke="midnightblue" d="M904.791,-120.114C913.822,-121.569 923.303,-123.096 932.64,-124.601"/>
<polygon fill="midnightblue" stroke="midnightblue" points="905.246,-116.642 894.816,-118.506 904.132,-123.553 905.246,-116.642"/>
</g>
<!-- Node56 -->
<g id="node10" class="node"><title>Node56</title>
<g id="a_node10"><a xlink:href="classpicojson_1_1null__parse__context.html#a97c4b81a984ea473fe56e09aed7b9ca6" target="_top" xlink:title="picojson::null_parse\l_context::parse_object_item">
<polygon fill="none" stroke="black" points="930.745,-74.5 930.745,-102.5 1071.82,-102.5 1071.82,-74.5 930.745,-74.5"/>
<text text-anchor="start" x="938.745" y="-90.5" font-family="Helvetica,sans-Serif" font-size="10.00">picojson::null_parse</text>
<text text-anchor="middle" x="1001.28" y="-80.5" font-family="Helvetica,sans-Serif" font-size="10.00">_context::parse_object_item</text>
</a>
</g>
</g>
<!-- Node52&#45;&gt;Node56 -->
<g id="edge9" class="edge"><title>Node52&#45;&gt;Node56</title>
<path fill="none" stroke="midnightblue" d="M904.827,-103.24C913.217,-101.944 921.994,-100.589 930.682,-99.2473"/>
<polygon fill="midnightblue" stroke="midnightblue" points="904.165,-99.8005 894.816,-104.786 905.233,-106.718 904.165,-99.8005"/>
</g>
<!-- Node57 -->
<g id="node11" class="node"><title>Node57</title>
<g id="a_node11"><a xlink:href="namespacepicojson.html#a01c0a3f35d42282ba913375737c8e259" target="_top" xlink:title="picojson::_parse">
<polygon fill="none" stroke="black" points="956.871,-37.5 956.871,-55.5 1045.69,-55.5 1045.69,-37.5 956.871,-37.5"/>
<text text-anchor="middle" x="1001.28" y="-43.5" font-family="Helvetica,sans-Serif" font-size="10.00">picojson::_parse</text>
</a>
</g>
</g>
<!-- Node52&#45;&gt;Node57 -->
<g id="edge10" class="edge"><title>Node52&#45;&gt;Node57</title>
<path fill="none" stroke="midnightblue" d="M872.57,-96.6925C888.089,-86.4393 909.969,-73.1338 930.745,-64.5 939.151,-61.0066 948.418,-58.0419 957.37,-55.5884"/>
<polygon fill="midnightblue" stroke="midnightblue" points="870.559,-93.8268 864.223,-102.318 874.471,-99.6314 870.559,-93.8268"/>
</g>
<!-- Node58 -->
<g id="node12" class="node"><title>Node58</title>
<g id="a_node12"><a xlink:href="namespacepicojson.html#a21621c03c9c8c83dcf5bc604d1cafdf6" target="_top" xlink:title="picojson::parse">
<polygon fill="none" stroke="black" points="959.651,-0.5 959.651,-18.5 1042.91,-18.5 1042.91,-0.5 959.651,-0.5"/>
<text text-anchor="middle" x="1001.28" y="-6.5" font-family="Helvetica,sans-Serif" font-size="10.00">picojson::parse</text>
</a>
</g>
</g>
<!-- Node52&#45;&gt;Node58 -->
<g id="edge11" class="edge"><title>Node52&#45;&gt;Node58</title>
<path fill="none" stroke="midnightblue" d="M863.277,-93.8854C877.227,-74.6781 902.083,-44.424 930.745,-27.5 939.443,-22.3642 949.598,-18.6764 959.418,-16.0344"/>
<polygon fill="midnightblue" stroke="midnightblue" points="860.232,-92.1292 857.335,-102.32 865.955,-96.1603 860.232,-92.1292"/>
</g>
<!-- Node61&#45;&gt;Node52 -->
<g id="edge17" class="edge"><title>Node61&#45;&gt;Node52</title>
<path fill="none" stroke="midnightblue" d="M463.539,-75.7141C540.195,-78.5933 663.822,-84.8348 769.923,-97.5 781.599,-98.8938 794.163,-100.88 805.774,-102.92"/>
<polygon fill="midnightblue" stroke="midnightblue" points="463.625,-72.215 453.503,-75.3463 463.368,-79.2103 463.625,-72.215"/>
</g>
</g>
</svg>
