<?xml version="1.0" encoding="UTF-8" standalone="no"?>
<!DOCTYPE svg PUBLIC "-//W3C//DTD SVG 1.1//EN"
 "http://www.w3.org/Graphics/SVG/1.1/DTD/svg11.dtd">
<!-- Generated by graphviz version 2.38.0 (20140413.2041)
 -->
<!-- Title: Component Pages: 1 -->
<svg width="128pt" height="254pt"
 viewBox="0.00 0.00 128.42 254.00" xmlns="http://www.w3.org/2000/svg" xmlns:xlink="http://www.w3.org/1999/xlink">
<g id="graph0" class="graph" transform="scale(1 1) rotate(0) translate(4 250)">
<title>Component</title>
<!-- Node8 -->
<g id="node1" class="node"><title>Node8</title>
<polygon fill="#bfbfbf" stroke="black" points="7.50488,-0.5 7.50488,-84.5 108.817,-84.5 108.817,-0.5 7.50488,-0.5"/>
<text text-anchor="middle" x="58.1611" y="-72.5" font-family="Helvetica,sans-Serif" font-size="10.00">Component</text>
<polyline fill="none" stroke="black" points="7.50488,-66.5 108.817,-66.5 "/>
<text text-anchor="start" x="15.5049" y="-54.5" font-family="Helvetica,sans-Serif" font-size="10.00"># name</text>
<polyline fill="none" stroke="black" points="7.50488,-48.5 108.817,-48.5 "/>
<text text-anchor="start" x="15.5049" y="-36.5" font-family="Helvetica,sans-Serif" font-size="10.00">+ ~Component()</text>
<text text-anchor="start" x="15.5049" y="-26.5" font-family="Helvetica,sans-Serif" font-size="10.00">+ getGameObject()</text>
<text text-anchor="start" x="15.5049" y="-16.5" font-family="Helvetica,sans-Serif" font-size="10.00">+ getName()</text>
<text text-anchor="start" x="15.5049" y="-6.5" font-family="Helvetica,sans-Serif" font-size="10.00"># Component()</text>
</g>
<!-- Node9 -->
<g id="node2" class="node"><title>Node9</title>
<g id="a_node2"><a xlink:href="class_game_object.html" target="_top" xlink:title="{GameObject\n||+ ~GameObject()\l+ getName()\l+ getID()\l+ addComponent()\l+ removeComponent()\l+ getComponent()\l+ getComponents()\l}">
<polygon fill="none" stroke="black" points="0,-131.5 0,-245.5 116.322,-245.5 116.322,-131.5 0,-131.5"/>
<text text-anchor="middle" x="58.1611" y="-233.5" font-family="Helvetica,sans-Serif" font-size="10.00">GameObject</text>
<polyline fill="none" stroke="black" points="0,-227.5 116.322,-227.5 "/>
<text text-anchor="middle" x="58.1611" y="-215.5" font-family="Helvetica,sans-Serif" font-size="10.00"> </text>
<polyline fill="none" stroke="black" points="0,-209.5 116.322,-209.5 "/>
<text text-anchor="start" x="8" y="-197.5" font-family="Helvetica,sans-Serif" font-size="10.00">+ ~GameObject()</text>
<text text-anchor="start" x="8" y="-187.5" font-family="Helvetica,sans-Serif" font-size="10.00">+ getName()</text>
<text text-anchor="start" x="8" y="-177.5" font-family="Helvetica,sans-Serif" font-size="10.00">+ getID()</text>
<text text-anchor="start" x="8" y="-167.5" font-family="Helvetica,sans-Serif" font-size="10.00">+ addComponent()</text>
<text text-anchor="start" x="8" y="-157.5" font-family="Helvetica,sans-Serif" font-size="10.00">+ removeComponent()</text>
<text text-anchor="start" x="8" y="-147.5" font-family="Helvetica,sans-Serif" font-size="10.00">+ getComponent()</text>
<text text-anchor="start" x="8" y="-137.5" font-family="Helvetica,sans-Serif" font-size="10.00">+ getComponents()</text>
</a>
</g>
</g>
<!-- Node9&#45;&gt;Node8 -->
<g id="edge1" class="edge"><title>Node9&#45;&gt;Node8</title>
<path fill="none" stroke="#404040" d="M58.1611,-131.414C58.1611,-120.168 58.1611,-108.377 58.1611,-97.2135"/>
<polygon fill="none" stroke="#404040" points="58.1612,-96.9395 54.1612,-90.9395 58.1611,-84.9395 62.1612,-90.9394 58.1612,-96.9395"/>
<text text-anchor="middle" x="89.2891" y="-105" font-family="Helvetica,sans-Serif" font-size="10.00"> #gameObject</text>
</g>
</g>
</svg>
