<?xml version="1.0" encoding="UTF-8" standalone="no"?>
<!DOCTYPE svg PUBLIC "-//W3C//DTD SVG 1.1//EN"
 "http://www.w3.org/Graphics/SVG/1.1/DTD/svg11.dtd">
<!-- Generated by graphviz version 2.38.0 (20140413.2041)
 -->
<!-- Title: PlayerPrefManager::shutDown Pages: 1 -->
<svg width="253pt" height="74pt"
 viewBox="0.00 0.00 253.32 74.00" xmlns="http://www.w3.org/2000/svg" xmlns:xlink="http://www.w3.org/1999/xlink">
<g id="graph0" class="graph" transform="scale(1 1) rotate(0) translate(4 70)">
<title>PlayerPrefManager::shutDown</title>
<!-- Node58 -->
<g id="node1" class="node"><title>Node58</title>
<polygon fill="#bfbfbf" stroke="black" points="0,-16.5 0,-44.5 107.709,-44.5 107.709,-16.5 0,-16.5"/>
<text text-anchor="start" x="8" y="-32.5" font-family="Helvetica,sans-Serif" font-size="10.00">PlayerPrefManager::</text>
<text text-anchor="middle" x="53.8545" y="-22.5" font-family="Helvetica,sans-Serif" font-size="10.00">shutDown</text>
</g>
<!-- Node59 -->
<g id="node2" class="node"><title>Node59</title>
<g id="a_node2"><a xlink:href="namespacepicojson.html#a1ba78f161e46341e0c2fd705ff8b0210" target="_top" xlink:title="picojson::get_last\l_error">
<polygon fill="none" stroke="black" points="147.879,-37.5 147.879,-65.5 241.149,-65.5 241.149,-37.5 147.879,-37.5"/>
<text text-anchor="start" x="155.879" y="-53.5" font-family="Helvetica,sans-Serif" font-size="10.00">picojson::get_last</text>
<text text-anchor="middle" x="194.514" y="-43.5" font-family="Helvetica,sans-Serif" font-size="10.00">_error</text>
</a>
</g>
</g>
<!-- Node58&#45;&gt;Node59 -->
<g id="edge1" class="edge"><title>Node58&#45;&gt;Node59</title>
<path fill="none" stroke="midnightblue" d="M108.067,-38.5591C117.703,-40.0185 127.779,-41.5445 137.493,-43.0156"/>
<polygon fill="midnightblue" stroke="midnightblue" points="137.039,-46.4867 147.451,-44.5237 138.088,-39.5657 137.039,-46.4867"/>
</g>
<!-- Node60 -->
<g id="node3" class="node"><title>Node60</title>
<g id="a_node3"><a xlink:href="classpicojson_1_1value.html#a6a1099de1eb4f070445dc3eadb843a92" target="_top" xlink:title="picojson::value::get">
<polygon fill="none" stroke="black" points="143.709,-0.5 143.709,-18.5 245.319,-18.5 245.319,-0.5 143.709,-0.5"/>
<text text-anchor="middle" x="194.514" y="-6.5" font-family="Helvetica,sans-Serif" font-size="10.00">picojson::value::get</text>
</a>
</g>
</g>
<!-- Node58&#45;&gt;Node60 -->
<g id="edge2" class="edge"><title>Node58&#45;&gt;Node60</title>
<path fill="none" stroke="midnightblue" d="M108.067,-22.4409C116.32,-21.191 124.896,-19.8922 133.29,-18.6209"/>
<polygon fill="midnightblue" stroke="midnightblue" points="134.043,-22.0469 143.406,-17.0889 132.994,-15.1259 134.043,-22.0469"/>
</g>
</g>
</svg>
