<?xml version="1.0" encoding="UTF-8" standalone="no"?>
<!DOCTYPE svg PUBLIC "-//W3C//DTD SVG 1.1//EN"
 "http://www.w3.org/Graphics/SVG/1.1/DTD/svg11.dtd">
<!-- Generated by graphviz version 2.38.0 (20140413.2041)
 -->
<!-- Title: Component Pages: 1 -->
<svg width="811pt" height="364pt"
 viewBox="0.00 0.00 811.30 364.00" xmlns="http://www.w3.org/2000/svg" xmlns:xlink="http://www.w3.org/1999/xlink">
<g id="graph0" class="graph" transform="scale(1 1) rotate(0) translate(4 360)">
<title>Component</title>
<!-- Node0 -->
<g id="node1" class="node"><title>Node0</title>
<polygon fill="#bfbfbf" stroke="black" points="374.064,-261.5 374.064,-355.5 475.376,-355.5 475.376,-261.5 374.064,-261.5"/>
<text text-anchor="middle" x="424.72" y="-343.5" font-family="Helvetica,sans-Serif" font-size="10.00">Component</text>
<polyline fill="none" stroke="black" points="374.064,-337.5 475.376,-337.5 "/>
<text text-anchor="start" x="382.064" y="-325.5" font-family="Helvetica,sans-Serif" font-size="10.00"># gameObject</text>
<text text-anchor="start" x="382.064" y="-315.5" font-family="Helvetica,sans-Serif" font-size="10.00"># name</text>
<polyline fill="none" stroke="black" points="374.064,-309.5 475.376,-309.5 "/>
<text text-anchor="start" x="382.064" y="-297.5" font-family="Helvetica,sans-Serif" font-size="10.00">+ ~Component()</text>
<text text-anchor="start" x="382.064" y="-287.5" font-family="Helvetica,sans-Serif" font-size="10.00">+ getGameObject()</text>
<text text-anchor="start" x="382.064" y="-277.5" font-family="Helvetica,sans-Serif" font-size="10.00">+ getName()</text>
<text text-anchor="start" x="382.064" y="-267.5" font-family="Helvetica,sans-Serif" font-size="10.00"># Component()</text>
</g>
<!-- Node1 -->
<g id="node2" class="node"><title>Node1</title>
<g id="a_node2"><a xlink:href="class_audio_source.html" target="_top" xlink:title="{AudioSource\n|+ id\l|+ ~AudioSource()\l+ start()\l+ SetClip()\l+ PlayClip()\l+ SetListener()\l+ SetAudioPosition()\l+ SetLookPos()\l+ Stop()\l+ SetLoop()\l+ SetPause()\l+ SetVolume()\l+ SetMinDistance()\l+ SetMaxDistance()\l+ update()\l+ Instance()\l# AudioSource()\l}">
<polygon fill="none" stroke="black" points="0,-10.5 0,-214.5 107.44,-214.5 107.44,-10.5 0,-10.5"/>
<text text-anchor="middle" x="53.7202" y="-202.5" font-family="Helvetica,sans-Serif" font-size="10.00">AudioSource</text>
<polyline fill="none" stroke="black" points="0,-196.5 107.44,-196.5 "/>
<text text-anchor="start" x="8" y="-184.5" font-family="Helvetica,sans-Serif" font-size="10.00">+ id</text>
<polyline fill="none" stroke="black" points="0,-178.5 107.44,-178.5 "/>
<text text-anchor="start" x="8" y="-166.5" font-family="Helvetica,sans-Serif" font-size="10.00">+ ~AudioSource()</text>
<text text-anchor="start" x="8" y="-156.5" font-family="Helvetica,sans-Serif" font-size="10.00">+ start()</text>
<text text-anchor="start" x="8" y="-146.5" font-family="Helvetica,sans-Serif" font-size="10.00">+ SetClip()</text>
<text text-anchor="start" x="8" y="-136.5" font-family="Helvetica,sans-Serif" font-size="10.00">+ PlayClip()</text>
<text text-anchor="start" x="8" y="-126.5" font-family="Helvetica,sans-Serif" font-size="10.00">+ SetListener()</text>
<text text-anchor="start" x="8" y="-116.5" font-family="Helvetica,sans-Serif" font-size="10.00">+ SetAudioPosition()</text>
<text text-anchor="start" x="8" y="-106.5" font-family="Helvetica,sans-Serif" font-size="10.00">+ SetLookPos()</text>
<text text-anchor="start" x="8" y="-96.5" font-family="Helvetica,sans-Serif" font-size="10.00">+ Stop()</text>
<text text-anchor="start" x="8" y="-86.5" font-family="Helvetica,sans-Serif" font-size="10.00">+ SetLoop()</text>
<text text-anchor="start" x="8" y="-76.5" font-family="Helvetica,sans-Serif" font-size="10.00">+ SetPause()</text>
<text text-anchor="start" x="8" y="-66.5" font-family="Helvetica,sans-Serif" font-size="10.00">+ SetVolume()</text>
<text text-anchor="start" x="8" y="-56.5" font-family="Helvetica,sans-Serif" font-size="10.00">+ SetMinDistance()</text>
<text text-anchor="start" x="8" y="-46.5" font-family="Helvetica,sans-Serif" font-size="10.00">+ SetMaxDistance()</text>
<text text-anchor="start" x="8" y="-36.5" font-family="Helvetica,sans-Serif" font-size="10.00">+ update()</text>
<text text-anchor="start" x="8" y="-26.5" font-family="Helvetica,sans-Serif" font-size="10.00">+ Instance()</text>
<text text-anchor="start" x="8" y="-16.5" font-family="Helvetica,sans-Serif" font-size="10.00"># AudioSource()</text>
</a>
</g>
</g>
<!-- Node0&#45;&gt;Node1 -->
<g id="edge1" class="edge"><title>Node0&#45;&gt;Node1</title>
<path fill="none" stroke="midnightblue" d="M363.907,-304.919C296.968,-299.202 189.252,-281.188 116.72,-225 112.678,-221.868 108.853,-218.399 105.239,-214.679"/>
<polygon fill="none" stroke="midnightblue" points="363.639,-308.409 373.883,-305.706 364.189,-301.431 363.639,-308.409"/>
</g>
<!-- Node2 -->
<g id="node3" class="node"><title>Node2</title>
<g id="a_node3"><a xlink:href="class_light_source.html" target="_top" xlink:title="{LightSource\n|+ _light\l|+ ~LightSource()\l+ start()\l+ setDirectional()\l+ setDirection()\l+ setColor()\l+ setRange()\l+ update()\l# LightSource()\l}">
<polygon fill="none" stroke="black" points="125.791,-50.5 125.791,-174.5 217.65,-174.5 217.65,-50.5 125.791,-50.5"/>
<text text-anchor="middle" x="171.72" y="-162.5" font-family="Helvetica,sans-Serif" font-size="10.00">LightSource</text>
<polyline fill="none" stroke="black" points="125.791,-156.5 217.65,-156.5 "/>
<text text-anchor="start" x="133.791" y="-144.5" font-family="Helvetica,sans-Serif" font-size="10.00">+ _light</text>
<polyline fill="none" stroke="black" points="125.791,-138.5 217.65,-138.5 "/>
<text text-anchor="start" x="133.791" y="-126.5" font-family="Helvetica,sans-Serif" font-size="10.00">+ ~LightSource()</text>
<text text-anchor="start" x="133.791" y="-116.5" font-family="Helvetica,sans-Serif" font-size="10.00">+ start()</text>
<text text-anchor="start" x="133.791" y="-106.5" font-family="Helvetica,sans-Serif" font-size="10.00">+ setDirectional()</text>
<text text-anchor="start" x="133.791" y="-96.5" font-family="Helvetica,sans-Serif" font-size="10.00">+ setDirection()</text>
<text text-anchor="start" x="133.791" y="-86.5" font-family="Helvetica,sans-Serif" font-size="10.00">+ setColor()</text>
<text text-anchor="start" x="133.791" y="-76.5" font-family="Helvetica,sans-Serif" font-size="10.00">+ setRange()</text>
<text text-anchor="start" x="133.791" y="-66.5" font-family="Helvetica,sans-Serif" font-size="10.00">+ update()</text>
<text text-anchor="start" x="133.791" y="-56.5" font-family="Helvetica,sans-Serif" font-size="10.00"># LightSource()</text>
</a>
</g>
</g>
<!-- Node0&#45;&gt;Node2 -->
<g id="edge2" class="edge"><title>Node0&#45;&gt;Node2</title>
<path fill="none" stroke="midnightblue" d="M363.944,-294.27C321.197,-282.315 265.012,-260.936 226.72,-225 212.004,-211.189 200.701,-192.593 192.281,-174.55"/>
<polygon fill="none" stroke="midnightblue" points="363.107,-297.669 373.674,-296.894 364.93,-290.91 363.107,-297.669"/>
</g>
<!-- Node3 -->
<g id="node4" class="node"><title>Node3</title>
<g id="a_node4"><a xlink:href="class_particle_system.html" target="_top" xlink:title="{ParticleSystem\n|+ partSize\l+ tex\l|+ ParticleSystem()\l+ Start()\l+ emit()\l+ update()\l+ setFixedSizeMode()\l+ setRandomSizeMode()\l+ setInterpolSizeMode()\l+ setSplineSizeMode()\l+ render()\l+ setFixedColorMode()\l+ setRandomColorMode()\l+ setInterpolColorMode()\l+ setSplineColorMode()\l+ SetCircularRandEmit()\l+ SetVelocity()\l+ SetVectorEmit()\l+ GetEmitMethod()\l}">
<polygon fill="none" stroke="black" points="236.057,-0.5 236.057,-224.5 367.384,-224.5 367.384,-0.5 236.057,-0.5"/>
<text text-anchor="middle" x="301.72" y="-212.5" font-family="Helvetica,sans-Serif" font-size="10.00">ParticleSystem</text>
<polyline fill="none" stroke="black" points="236.057,-206.5 367.384,-206.5 "/>
<text text-anchor="start" x="244.057" y="-194.5" font-family="Helvetica,sans-Serif" font-size="10.00">+ partSize</text>
<text text-anchor="start" x="244.057" y="-184.5" font-family="Helvetica,sans-Serif" font-size="10.00">+ tex</text>
<polyline fill="none" stroke="black" points="236.057,-178.5 367.384,-178.5 "/>
<text text-anchor="start" x="244.057" y="-166.5" font-family="Helvetica,sans-Serif" font-size="10.00">+ ParticleSystem()</text>
<text text-anchor="start" x="244.057" y="-156.5" font-family="Helvetica,sans-Serif" font-size="10.00">+ Start()</text>
<text text-anchor="start" x="244.057" y="-146.5" font-family="Helvetica,sans-Serif" font-size="10.00">+ emit()</text>
<text text-anchor="start" x="244.057" y="-136.5" font-family="Helvetica,sans-Serif" font-size="10.00">+ update()</text>
<text text-anchor="start" x="244.057" y="-126.5" font-family="Helvetica,sans-Serif" font-size="10.00">+ setFixedSizeMode()</text>
<text text-anchor="start" x="244.057" y="-116.5" font-family="Helvetica,sans-Serif" font-size="10.00">+ setRandomSizeMode()</text>
<text text-anchor="start" x="244.057" y="-106.5" font-family="Helvetica,sans-Serif" font-size="10.00">+ setInterpolSizeMode()</text>
<text text-anchor="start" x="244.057" y="-96.5" font-family="Helvetica,sans-Serif" font-size="10.00">+ setSplineSizeMode()</text>
<text text-anchor="start" x="244.057" y="-86.5" font-family="Helvetica,sans-Serif" font-size="10.00">+ render()</text>
<text text-anchor="start" x="244.057" y="-76.5" font-family="Helvetica,sans-Serif" font-size="10.00">+ setFixedColorMode()</text>
<text text-anchor="start" x="244.057" y="-66.5" font-family="Helvetica,sans-Serif" font-size="10.00">+ setRandomColorMode()</text>
<text text-anchor="start" x="244.057" y="-56.5" font-family="Helvetica,sans-Serif" font-size="10.00">+ setInterpolColorMode()</text>
<text text-anchor="start" x="244.057" y="-46.5" font-family="Helvetica,sans-Serif" font-size="10.00">+ setSplineColorMode()</text>
<text text-anchor="start" x="244.057" y="-36.5" font-family="Helvetica,sans-Serif" font-size="10.00">+ SetCircularRandEmit()</text>
<text text-anchor="start" x="244.057" y="-26.5" font-family="Helvetica,sans-Serif" font-size="10.00">+ SetVelocity()</text>
<text text-anchor="start" x="244.057" y="-16.5" font-family="Helvetica,sans-Serif" font-size="10.00">+ SetVectorEmit()</text>
<text text-anchor="start" x="244.057" y="-6.5" font-family="Helvetica,sans-Serif" font-size="10.00">+ GetEmitMethod()</text>
</a>
</g>
</g>
<!-- Node0&#45;&gt;Node3 -->
<g id="edge3" class="edge"><title>Node0&#45;&gt;Node3</title>
<path fill="none" stroke="midnightblue" d="M389.766,-252.369C382.754,-241.309 375.171,-229.35 367.5,-217.25"/>
<polygon fill="none" stroke="midnightblue" points="386.948,-254.461 395.259,-261.032 392.86,-250.712 386.948,-254.461"/>
</g>
<!-- Node4 -->
<g id="node5" class="node"><title>Node4</title>
<g id="a_node5"><a xlink:href="class_renderer.html" target="_top" xlink:title="{Renderer\n|+ mesh\l+ shader\l+ color\l+ texture\l|+ ~Renderer()\l+ draw()\l# Renderer()\l}">
<polygon fill="none" stroke="black" points="385.316,-60.5 385.316,-164.5 464.124,-164.5 464.124,-60.5 385.316,-60.5"/>
<text text-anchor="middle" x="424.72" y="-152.5" font-family="Helvetica,sans-Serif" font-size="10.00">Renderer</text>
<polyline fill="none" stroke="black" points="385.316,-146.5 464.124,-146.5 "/>
<text text-anchor="start" x="393.316" y="-134.5" font-family="Helvetica,sans-Serif" font-size="10.00">+ mesh</text>
<text text-anchor="start" x="393.316" y="-124.5" font-family="Helvetica,sans-Serif" font-size="10.00">+ shader</text>
<text text-anchor="start" x="393.316" y="-114.5" font-family="Helvetica,sans-Serif" font-size="10.00">+ color</text>
<text text-anchor="start" x="393.316" y="-104.5" font-family="Helvetica,sans-Serif" font-size="10.00">+ texture</text>
<polyline fill="none" stroke="black" points="385.316,-98.5 464.124,-98.5 "/>
<text text-anchor="start" x="393.316" y="-86.5" font-family="Helvetica,sans-Serif" font-size="10.00">+ ~Renderer()</text>
<text text-anchor="start" x="393.316" y="-76.5" font-family="Helvetica,sans-Serif" font-size="10.00">+ draw()</text>
<text text-anchor="start" x="393.316" y="-66.5" font-family="Helvetica,sans-Serif" font-size="10.00"># Renderer()</text>
</a>
</g>
</g>
<!-- Node0&#45;&gt;Node4 -->
<g id="edge4" class="edge"><title>Node0&#45;&gt;Node4</title>
<path fill="none" stroke="midnightblue" d="M424.72,-250.866C424.72,-223.62 424.72,-191.202 424.72,-164.702"/>
<polygon fill="none" stroke="midnightblue" points="421.22,-251.032 424.72,-261.032 428.22,-251.032 421.22,-251.032"/>
</g>
<!-- Node5 -->
<g id="node6" class="node"><title>Node5</title>
<g id="a_node6"><a xlink:href="class_rigidbody.html" target="_top" xlink:title="{Rigidbody\n|+ bd\l+ body\l|+ Setup()\l# Rigidbody()\l}">
<polygon fill="none" stroke="black" points="481.984,-75.5 481.984,-149.5 557.457,-149.5 557.457,-75.5 481.984,-75.5"/>
<text text-anchor="middle" x="519.72" y="-137.5" font-family="Helvetica,sans-Serif" font-size="10.00">Rigidbody</text>
<polyline fill="none" stroke="black" points="481.984,-131.5 557.457,-131.5 "/>
<text text-anchor="start" x="489.984" y="-119.5" font-family="Helvetica,sans-Serif" font-size="10.00">+ bd</text>
<text text-anchor="start" x="489.984" y="-109.5" font-family="Helvetica,sans-Serif" font-size="10.00">+ body</text>
<polyline fill="none" stroke="black" points="481.984,-103.5 557.457,-103.5 "/>
<text text-anchor="start" x="489.984" y="-91.5" font-family="Helvetica,sans-Serif" font-size="10.00">+ Setup()</text>
<text text-anchor="start" x="489.984" y="-81.5" font-family="Helvetica,sans-Serif" font-size="10.00"># Rigidbody()</text>
</a>
</g>
</g>
<!-- Node0&#45;&gt;Node5 -->
<g id="edge5" class="edge"><title>Node0&#45;&gt;Node5</title>
<path fill="none" stroke="midnightblue" d="M458.049,-252.451C463.16,-243.385 468.225,-234.007 472.72,-225 485.01,-200.377 497.029,-171.757 505.836,-149.679"/>
<polygon fill="none" stroke="midnightblue" points="454.865,-250.969 452.942,-261.388 460.942,-254.442 454.865,-250.969"/>
</g>
<!-- Node6 -->
<g id="node7" class="node"><title>Node6</title>
<g id="a_node7"><a xlink:href="class_scriptable.html" target="_top" xlink:title="{Scriptable\n||+ Awake()\l+ Update()\l+ Start()\l+ OnCollisionEnter()\l+ OnCollisionExit()\l# Scriptable()\l}">
<polygon fill="none" stroke="black" points="575.564,-60.5 575.564,-164.5 681.876,-164.5 681.876,-60.5 575.564,-60.5"/>
<text text-anchor="middle" x="628.72" y="-152.5" font-family="Helvetica,sans-Serif" font-size="10.00">Scriptable</text>
<polyline fill="none" stroke="black" points="575.564,-146.5 681.876,-146.5 "/>
<text text-anchor="middle" x="628.72" y="-134.5" font-family="Helvetica,sans-Serif" font-size="10.00"> </text>
<polyline fill="none" stroke="black" points="575.564,-128.5 681.876,-128.5 "/>
<text text-anchor="start" x="583.564" y="-116.5" font-family="Helvetica,sans-Serif" font-size="10.00">+ Awake()</text>
<text text-anchor="start" x="583.564" y="-106.5" font-family="Helvetica,sans-Serif" font-size="10.00">+ Update()</text>
<text text-anchor="start" x="583.564" y="-96.5" font-family="Helvetica,sans-Serif" font-size="10.00">+ Start()</text>
<text text-anchor="start" x="583.564" y="-86.5" font-family="Helvetica,sans-Serif" font-size="10.00">+ OnCollisionEnter()</text>
<text text-anchor="start" x="583.564" y="-76.5" font-family="Helvetica,sans-Serif" font-size="10.00">+ OnCollisionExit()</text>
<text text-anchor="start" x="583.564" y="-66.5" font-family="Helvetica,sans-Serif" font-size="10.00"># Scriptable()</text>
</a>
</g>
</g>
<!-- Node0&#45;&gt;Node6 -->
<g id="edge6" class="edge"><title>Node0&#45;&gt;Node6</title>
<path fill="none" stroke="midnightblue" d="M484.646,-281.77C512.04,-267.873 543.486,-248.676 566.72,-225 583.63,-207.769 597.38,-184.997 607.595,-164.527"/>
<polygon fill="none" stroke="midnightblue" points="482.941,-278.709 475.528,-286.279 486.044,-284.983 482.941,-278.709"/>
</g>
<!-- Node7 -->
<g id="node8" class="node"><title>Node7</title>
<g id="a_node8"><a xlink:href="class_transform.html" target="_top" xlink:title="{Transform\n|+ position\l+ parent\l+ rotation\l+ scale\l|+ localTransform()\l+ globalTransform()\l# Transform()\l}">
<polygon fill="none" stroke="black" points="700.139,-60.5 700.139,-164.5 803.302,-164.5 803.302,-60.5 700.139,-60.5"/>
<text text-anchor="middle" x="751.72" y="-152.5" font-family="Helvetica,sans-Serif" font-size="10.00">Transform</text>
<polyline fill="none" stroke="black" points="700.139,-146.5 803.302,-146.5 "/>
<text text-anchor="start" x="708.139" y="-134.5" font-family="Helvetica,sans-Serif" font-size="10.00">+ position</text>
<text text-anchor="start" x="708.139" y="-124.5" font-family="Helvetica,sans-Serif" font-size="10.00">+ parent</text>
<text text-anchor="start" x="708.139" y="-114.5" font-family="Helvetica,sans-Serif" font-size="10.00">+ rotation</text>
<text text-anchor="start" x="708.139" y="-104.5" font-family="Helvetica,sans-Serif" font-size="10.00">+ scale</text>
<polyline fill="none" stroke="black" points="700.139,-98.5 803.302,-98.5 "/>
<text text-anchor="start" x="708.139" y="-86.5" font-family="Helvetica,sans-Serif" font-size="10.00">+ localTransform()</text>
<text text-anchor="start" x="708.139" y="-76.5" font-family="Helvetica,sans-Serif" font-size="10.00">+ globalTransform()</text>
<text text-anchor="start" x="708.139" y="-66.5" font-family="Helvetica,sans-Serif" font-size="10.00"># Transform()</text>
</a>
</g>
</g>
<!-- Node0&#45;&gt;Node7 -->
<g id="edge7" class="edge"><title>Node0&#45;&gt;Node7</title>
<path fill="none" stroke="midnightblue" d="M485.805,-301.749C544.103,-293.455 631.577,-273.364 690.72,-225 709.937,-209.286 724.044,-185.85 733.821,-164.514"/>
<polygon fill="none" stroke="midnightblue" points="485.076,-298.316 475.632,-303.119 486.01,-305.253 485.076,-298.316"/>
</g>
</g>
</svg>
