<?xml version="1.0" encoding="UTF-8" standalone="no"?>
<!DOCTYPE svg PUBLIC "-//W3C//DTD SVG 1.1//EN"
 "http://www.w3.org/Graphics/SVG/1.1/DTD/svg11.dtd">
<!-- Generated by graphviz version 2.38.0 (20140413.2041)
 -->
<!-- Title: Rigidbody Pages: 1 -->
<svg width="128pt" height="366pt"
 viewBox="0.00 0.00 128.42 366.00" xmlns="http://www.w3.org/2000/svg" xmlns:xlink="http://www.w3.org/1999/xlink">
<g id="graph0" class="graph" transform="scale(1 1) rotate(0) translate(4 362)">
<title>Rigidbody</title>
<!-- Node2 -->
<g id="node1" class="node"><title>Node2</title>
<polygon fill="#bfbfbf" stroke="black" points="20.4248,-0.5 20.4248,-74.5 95.8975,-74.5 95.8975,-0.5 20.4248,-0.5"/>
<text text-anchor="middle" x="58.1611" y="-62.5" font-family="Helvetica,sans-Serif" font-size="10.00">Rigidbody</text>
<polyline fill="none" stroke="black" points="20.4248,-56.5 95.8975,-56.5 "/>
<text text-anchor="start" x="28.4248" y="-44.5" font-family="Helvetica,sans-Serif" font-size="10.00">+ bd</text>
<text text-anchor="start" x="28.4248" y="-34.5" font-family="Helvetica,sans-Serif" font-size="10.00">+ body</text>
<polyline fill="none" stroke="black" points="20.4248,-28.5 95.8975,-28.5 "/>
<text text-anchor="start" x="28.4248" y="-16.5" font-family="Helvetica,sans-Serif" font-size="10.00">+ Setup()</text>
<text text-anchor="start" x="28.4248" y="-6.5" font-family="Helvetica,sans-Serif" font-size="10.00"># Rigidbody()</text>
</g>
<!-- Node3 -->
<g id="node2" class="node"><title>Node3</title>
<g id="a_node2"><a xlink:href="class_component.html" target="_top" xlink:title="{Component\n|# name\l|+ ~Component()\l+ getGameObject()\l+ getName()\l# Component()\l}">
<polygon fill="none" stroke="black" points="7.50488,-112.5 7.50488,-196.5 108.817,-196.5 108.817,-112.5 7.50488,-112.5"/>
<text text-anchor="middle" x="58.1611" y="-184.5" font-family="Helvetica,sans-Serif" font-size="10.00">Component</text>
<polyline fill="none" stroke="black" points="7.50488,-178.5 108.817,-178.5 "/>
<text text-anchor="start" x="15.5049" y="-166.5" font-family="Helvetica,sans-Serif" font-size="10.00"># name</text>
<polyline fill="none" stroke="black" points="7.50488,-160.5 108.817,-160.5 "/>
<text text-anchor="start" x="15.5049" y="-148.5" font-family="Helvetica,sans-Serif" font-size="10.00">+ ~Component()</text>
<text text-anchor="start" x="15.5049" y="-138.5" font-family="Helvetica,sans-Serif" font-size="10.00">+ getGameObject()</text>
<text text-anchor="start" x="15.5049" y="-128.5" font-family="Helvetica,sans-Serif" font-size="10.00">+ getName()</text>
<text text-anchor="start" x="15.5049" y="-118.5" font-family="Helvetica,sans-Serif" font-size="10.00"># Component()</text>
</a>
</g>
</g>
<!-- Node3&#45;&gt;Node2 -->
<g id="edge1" class="edge"><title>Node3&#45;&gt;Node2</title>
<path fill="none" stroke="midnightblue" d="M58.1611,-102.072C58.1611,-92.8822 58.1611,-83.4836 58.1611,-74.8287"/>
<polygon fill="none" stroke="midnightblue" points="54.6612,-102.307 58.1611,-112.307 61.6612,-102.307 54.6612,-102.307"/>
</g>
<!-- Node4 -->
<g id="node3" class="node"><title>Node4</title>
<g id="a_node3"><a xlink:href="class_game_object.html" target="_top" xlink:title="{GameObject\n||+ ~GameObject()\l+ getName()\l+ getID()\l+ addComponent()\l+ removeComponent()\l+ getComponent()\l+ getComponents()\l}">
<polygon fill="none" stroke="black" points="0,-243.5 0,-357.5 116.322,-357.5 116.322,-243.5 0,-243.5"/>
<text text-anchor="middle" x="58.1611" y="-345.5" font-family="Helvetica,sans-Serif" font-size="10.00">GameObject</text>
<polyline fill="none" stroke="black" points="0,-339.5 116.322,-339.5 "/>
<text text-anchor="middle" x="58.1611" y="-327.5" font-family="Helvetica,sans-Serif" font-size="10.00"> </text>
<polyline fill="none" stroke="black" points="0,-321.5 116.322,-321.5 "/>
<text text-anchor="start" x="8" y="-309.5" font-family="Helvetica,sans-Serif" font-size="10.00">+ ~GameObject()</text>
<text text-anchor="start" x="8" y="-299.5" font-family="Helvetica,sans-Serif" font-size="10.00">+ getName()</text>
<text text-anchor="start" x="8" y="-289.5" font-family="Helvetica,sans-Serif" font-size="10.00">+ getID()</text>
<text text-anchor="start" x="8" y="-279.5" font-family="Helvetica,sans-Serif" font-size="10.00">+ addComponent()</text>
<text text-anchor="start" x="8" y="-269.5" font-family="Helvetica,sans-Serif" font-size="10.00">+ removeComponent()</text>
<text text-anchor="start" x="8" y="-259.5" font-family="Helvetica,sans-Serif" font-size="10.00">+ getComponent()</text>
<text text-anchor="start" x="8" y="-249.5" font-family="Helvetica,sans-Serif" font-size="10.00">+ getComponents()</text>
</a>
</g>
</g>
<!-- Node4&#45;&gt;Node3 -->
<g id="edge2" class="edge"><title>Node4&#45;&gt;Node3</title>
<path fill="none" stroke="#404040" d="M58.1611,-243.414C58.1611,-232.168 58.1611,-220.377 58.1611,-209.214"/>
<polygon fill="none" stroke="#404040" points="58.1612,-208.939 54.1612,-202.94 58.1611,-196.939 62.1612,-202.939 58.1612,-208.939"/>
<text text-anchor="middle" x="89.2891" y="-217" font-family="Helvetica,sans-Serif" font-size="10.00"> #gameObject</text>
</g>
</g>
</svg>
