<?xml version="1.0" encoding="UTF-8" standalone="no"?>
<!DOCTYPE svg PUBLIC "-//W3C//DTD SVG 1.1//EN"
 "http://www.w3.org/Graphics/SVG/1.1/DTD/svg11.dtd">
<!-- Generated by graphviz version 2.38.0 (20140413.2041)
 -->
<!-- Title: picojson::value::get Pages: 1 -->
<svg width="579pt" height="289pt"
 viewBox="0.00 0.00 579.13 289.00" xmlns="http://www.w3.org/2000/svg" xmlns:xlink="http://www.w3.org/1999/xlink">
<g id="graph0" class="graph" transform="scale(1 1) rotate(0) translate(4 285)">
<title>picojson::value::get</title>
<!-- Node41 -->
<g id="node1" class="node"><title>Node41</title>
<polygon fill="#bfbfbf" stroke="black" points="0,-116.5 0,-134.5 101.61,-134.5 101.61,-116.5 0,-116.5"/>
<text text-anchor="middle" x="50.8052" y="-122.5" font-family="Helvetica,sans-Serif" font-size="10.00">picojson::value::get</text>
</g>
<!-- Node42 -->
<g id="node2" class="node"><title>Node42</title>
<g id="a_node2"><a xlink:href="classpicojson_1_1default__parse__context.html#a476c7d30a5cf382b48201ec64585c2f3" target="_top" xlink:title="picojson::default_parse\l_context::parse_string">
<polygon fill="none" stroke="black" points="148.724,-252.5 148.724,-280.5 267.57,-280.5 267.57,-252.5 148.724,-252.5"/>
<text text-anchor="start" x="156.724" y="-268.5" font-family="Helvetica,sans-Serif" font-size="10.00">picojson::default_parse</text>
<text text-anchor="middle" x="208.147" y="-258.5" font-family="Helvetica,sans-Serif" font-size="10.00">_context::parse_string</text>
</a>
</g>
</g>
<!-- Node41&#45;&gt;Node42 -->
<g id="edge1" class="edge"><title>Node41&#45;&gt;Node42</title>
<path fill="none" stroke="midnightblue" d="M60.4393,-143.756C73.5683,-169.613 100.951,-216.729 137.61,-243.5 142.334,-246.95 147.605,-249.902 153.075,-252.425"/>
<polygon fill="midnightblue" stroke="midnightblue" points="63.5299,-142.109 55.9761,-134.68 57.2483,-145.198 63.5299,-142.109"/>
</g>
<!-- Node43 -->
<g id="node3" class="node"><title>Node43</title>
<g id="a_node3"><a xlink:href="classpicojson_1_1default__parse__context.html#a5f65224e655633b20c1f8c5967c153bb" target="_top" xlink:title="picojson::default_parse\l_context::parse_array_item">
<polygon fill="none" stroke="black" points="139.561,-205.5 139.561,-233.5 276.733,-233.5 276.733,-205.5 139.561,-205.5"/>
<text text-anchor="start" x="147.561" y="-221.5" font-family="Helvetica,sans-Serif" font-size="10.00">picojson::default_parse</text>
<text text-anchor="middle" x="208.147" y="-211.5" font-family="Helvetica,sans-Serif" font-size="10.00">_context::parse_array_item</text>
</a>
</g>
</g>
<!-- Node41&#45;&gt;Node43 -->
<g id="edge2" class="edge"><title>Node41&#45;&gt;Node43</title>
<path fill="none" stroke="midnightblue" d="M67.5821,-141.693C83.8428,-157.58 110.567,-181.538 137.61,-196.5 143.73,-199.886 150.429,-202.878 157.177,-205.49"/>
<polygon fill="midnightblue" stroke="midnightblue" points="70.0377,-139.199 60.4847,-134.617 65.0954,-144.156 70.0377,-139.199"/>
</g>
<!-- Node44 -->
<g id="node4" class="node"><title>Node44</title>
<g id="a_node4"><a xlink:href="classpicojson_1_1default__parse__context.html#adf71929b098e4f4b5c32222af149655a" target="_top" xlink:title="picojson::default_parse\l_context::parse_object_item">
<polygon fill="none" stroke="black" points="137.61,-158.5 137.61,-186.5 278.684,-186.5 278.684,-158.5 137.61,-158.5"/>
<text text-anchor="start" x="145.61" y="-174.5" font-family="Helvetica,sans-Serif" font-size="10.00">picojson::default_parse</text>
<text text-anchor="middle" x="208.147" y="-164.5" font-family="Helvetica,sans-Serif" font-size="10.00">_context::parse_object_item</text>
</a>
</g>
</g>
<!-- Node41&#45;&gt;Node44 -->
<g id="edge3" class="edge"><title>Node41&#45;&gt;Node44</title>
<path fill="none" stroke="midnightblue" d="M91.3902,-137.477C112.535,-143.874 138.684,-151.786 160.776,-158.47"/>
<polygon fill="midnightblue" stroke="midnightblue" points="92.3417,-134.108 81.7566,-134.562 90.3145,-140.808 92.3417,-134.108"/>
</g>
<!-- Node45 -->
<g id="node5" class="node"><title>Node45</title>
<g id="a_node5"><a xlink:href="class_player_pref_manager.html#af395e5a4b0d8a749416dd6f3c415ca2b" target="_top" xlink:title="PlayerPrefManager::\lshutDown">
<polygon fill="none" stroke="black" points="154.292,-111.5 154.292,-139.5 262.001,-139.5 262.001,-111.5 154.292,-111.5"/>
<text text-anchor="start" x="162.292" y="-127.5" font-family="Helvetica,sans-Serif" font-size="10.00">PlayerPrefManager::</text>
<text text-anchor="middle" x="208.147" y="-117.5" font-family="Helvetica,sans-Serif" font-size="10.00">shutDown</text>
</a>
</g>
</g>
<!-- Node41&#45;&gt;Node45 -->
<g id="edge4" class="edge"><title>Node41&#45;&gt;Node45</title>
<path fill="none" stroke="midnightblue" d="M111.832,-125.5C125.828,-125.5 140.631,-125.5 154.289,-125.5"/>
<polygon fill="midnightblue" stroke="midnightblue" points="111.811,-122 101.811,-125.5 111.811,-129 111.811,-122"/>
</g>
<!-- Node47 -->
<g id="node7" class="node"><title>Node47</title>
<g id="a_node7"><a xlink:href="_scene_parser_8cpp.html#a0a3abae35f7aec2cb39e7e1c7eba5ea0" target="_top" xlink:title="to_vec4">
<polygon fill="none" stroke="black" points="182.635,-74.5 182.635,-92.5 233.659,-92.5 233.659,-74.5 182.635,-74.5"/>
<text text-anchor="middle" x="208.147" y="-80.5" font-family="Helvetica,sans-Serif" font-size="10.00">to_vec4</text>
</a>
</g>
</g>
<!-- Node41&#45;&gt;Node47 -->
<g id="edge6" class="edge"><title>Node41&#45;&gt;Node47</title>
<path fill="none" stroke="midnightblue" d="M95.1403,-113.783C123.34,-106.159 159.1,-96.4906 182.527,-90.1565"/>
<polygon fill="midnightblue" stroke="midnightblue" points="93.8698,-110.501 85.1299,-116.49 95.6968,-117.259 93.8698,-110.501"/>
</g>
<!-- Node50 -->
<g id="node10" class="node"><title>Node50</title>
<g id="a_node10"><a xlink:href="_scene_parser_8cpp.html#aebf61d8c060020f4498f29f7ba6e85f5" target="_top" xlink:title="to_vec3">
<polygon fill="none" stroke="black" points="182.635,-37.5 182.635,-55.5 233.659,-55.5 233.659,-37.5 182.635,-37.5"/>
<text text-anchor="middle" x="208.147" y="-43.5" font-family="Helvetica,sans-Serif" font-size="10.00">to_vec3</text>
</a>
</g>
</g>
<!-- Node41&#45;&gt;Node50 -->
<g id="edge9" class="edge"><title>Node41&#45;&gt;Node50</title>
<path fill="none" stroke="midnightblue" d="M69.9782,-109.986C86.6043,-96.5034 112.384,-77.3294 137.61,-65.5 151.887,-58.8052 168.956,-54.0979 182.609,-51.0434"/>
<polygon fill="midnightblue" stroke="midnightblue" points="67.6418,-107.376 62.1695,-116.448 72.1049,-112.769 67.6418,-107.376"/>
</g>
<!-- Node51 -->
<g id="node11" class="node"><title>Node51</title>
<g id="a_node11"><a xlink:href="class_sprite_atlas.html#a9526869f34f1e50bafc9cdc2d85dbc7c" target="_top" xlink:title="SpriteAtlas::getSprite">
<polygon fill="none" stroke="black" points="153.179,-0.5 153.179,-18.5 263.115,-18.5 263.115,-0.5 153.179,-0.5"/>
<text text-anchor="middle" x="208.147" y="-6.5" font-family="Helvetica,sans-Serif" font-size="10.00">SpriteAtlas::getSprite</text>
</a>
</g>
</g>
<!-- Node41&#45;&gt;Node51 -->
<g id="edge11" class="edge"><title>Node41&#45;&gt;Node51</title>
<path fill="none" stroke="midnightblue" d="M62.7323,-107.804C77.1775,-85.8995 104.686,-48.9884 137.61,-28.5 144.304,-24.3344 151.915,-21.0683 159.586,-18.5114"/>
<polygon fill="midnightblue" stroke="midnightblue" points="59.647,-106.132 57.2023,-116.441 65.5422,-109.906 59.647,-106.132"/>
</g>
<!-- Node46 -->
<g id="node6" class="node"><title>Node46</title>
<g id="a_node6"><a xlink:href="class_player_pref_manager.html#a594e8fd11a2a5476a8a06e53253214bb" target="_top" xlink:title="PlayerPrefManager::\l~PlayerPrefManager">
<polygon fill="none" stroke="black" points="320.934,-111.5 320.934,-139.5 428.926,-139.5 428.926,-111.5 320.934,-111.5"/>
<text text-anchor="start" x="328.934" y="-127.5" font-family="Helvetica,sans-Serif" font-size="10.00">PlayerPrefManager::</text>
<text text-anchor="middle" x="374.93" y="-117.5" font-family="Helvetica,sans-Serif" font-size="10.00">~PlayerPrefManager</text>
</a>
</g>
</g>
<!-- Node45&#45;&gt;Node46 -->
<g id="edge5" class="edge"><title>Node45&#45;&gt;Node46</title>
<path fill="none" stroke="midnightblue" d="M272.483,-125.5C288.405,-125.5 305.331,-125.5 320.701,-125.5"/>
<polygon fill="midnightblue" stroke="midnightblue" points="272.192,-122 262.192,-125.5 272.192,-129 272.192,-122"/>
</g>
<!-- Node48 -->
<g id="node8" class="node"><title>Node48</title>
<g id="a_node8"><a xlink:href="class_scene_parser.html#a3f69f475dee046264762e618e70b78e6" target="_top" xlink:title="SceneParser::parseFile">
<polygon fill="none" stroke="black" points="314.684,-56.5 314.684,-74.5 435.176,-74.5 435.176,-56.5 314.684,-56.5"/>
<text text-anchor="middle" x="374.93" y="-62.5" font-family="Helvetica,sans-Serif" font-size="10.00">SceneParser::parseFile</text>
</a>
</g>
</g>
<!-- Node47&#45;&gt;Node48 -->
<g id="edge7" class="edge"><title>Node47&#45;&gt;Node48</title>
<path fill="none" stroke="midnightblue" d="M243.928,-79.7007C264.393,-77.4652 290.824,-74.578 314.504,-71.9914"/>
<polygon fill="midnightblue" stroke="midnightblue" points="243.377,-76.2399 233.817,-80.8052 244.138,-83.1985 243.377,-76.2399"/>
</g>
<!-- Node49 -->
<g id="node9" class="node"><title>Node49</title>
<g id="a_node9"><a xlink:href="class_engine.html#a7acc08d07a4abd266a81b1be981b6c47" target="_top" xlink:title="Engine::loadScene">
<polygon fill="none" stroke="black" points="471.176,-56.5 471.176,-74.5 571.131,-74.5 571.131,-56.5 471.176,-56.5"/>
<text text-anchor="middle" x="521.153" y="-62.5" font-family="Helvetica,sans-Serif" font-size="10.00">Engine::loadScene</text>
</a>
</g>
</g>
<!-- Node48&#45;&gt;Node49 -->
<g id="edge8" class="edge"><title>Node48&#45;&gt;Node49</title>
<path fill="none" stroke="midnightblue" d="M445.456,-65.5C454.046,-65.5 462.686,-65.5 470.885,-65.5"/>
<polygon fill="midnightblue" stroke="midnightblue" points="445.424,-62.0001 435.424,-65.5 445.424,-69.0001 445.424,-62.0001"/>
</g>
<!-- Node50&#45;&gt;Node48 -->
<g id="edge10" class="edge"><title>Node50&#45;&gt;Node48</title>
<path fill="none" stroke="midnightblue" d="M243.928,-50.5104C264.393,-52.8701 290.824,-55.9176 314.504,-58.648"/>
<polygon fill="midnightblue" stroke="midnightblue" points="244.152,-47.0131 233.817,-49.3445 243.35,-53.967 244.152,-47.0131"/>
</g>
</g>
</svg>
