<?xml version="1.0" encoding="UTF-8" standalone="no"?>
<!DOCTYPE svg PUBLIC "-//W3C//DTD SVG 1.1//EN"
 "http://www.w3.org/Graphics/SVG/1.1/DTD/svg11.dtd">
<!-- Generated by graphviz version 2.38.0 (20140413.2041)
 -->
<!-- Title: picojson::input::expect Pages: 1 -->
<svg width="582pt" height="252pt"
 viewBox="0.00 0.00 581.91 252.00" xmlns="http://www.w3.org/2000/svg" xmlns:xlink="http://www.w3.org/1999/xlink">
<g id="graph0" class="graph" transform="scale(1 1) rotate(0) translate(4 248)">
<title>picojson::input::expect</title>
<!-- Node6 -->
<g id="node1" class="node"><title>Node6</title>
<polygon fill="#bfbfbf" stroke="black" points="0,-102.5 0,-120.5 114.95,-120.5 114.95,-102.5 0,-102.5"/>
<text text-anchor="middle" x="57.4751" y="-108.5" font-family="Helvetica,sans-Serif" font-size="10.00">picojson::input::expect</text>
</g>
<!-- Node7 -->
<g id="node2" class="node"><title>Node7</title>
<g id="a_node2"><a xlink:href="namespacepicojson.html#adcae039b132c6c96d2b2d9e786a04a88" target="_top" xlink:title="picojson::_parse_array">
<polygon fill="none" stroke="black" points="152.901,-121.5 152.901,-139.5 270.068,-139.5 270.068,-121.5 152.901,-121.5"/>
<text text-anchor="middle" x="211.484" y="-127.5" font-family="Helvetica,sans-Serif" font-size="10.00">picojson::_parse_array</text>
</a>
</g>
</g>
<!-- Node6&#45;&gt;Node7 -->
<g id="edge1" class="edge"><title>Node6&#45;&gt;Node7</title>
<path fill="none" stroke="midnightblue" d="M125.026,-119.818C134.288,-120.976 143.739,-122.157 152.82,-123.292"/>
<polygon fill="midnightblue" stroke="midnightblue" points="125.435,-116.342 115.078,-118.575 124.566,-123.288 125.435,-116.342"/>
</g>
<!-- Node15 -->
<g id="node10" class="node"><title>Node15</title>
<g id="a_node10"><a xlink:href="namespacepicojson.html#a480ed5e3461568672197a42e259a44c9" target="_top" xlink:title="picojson::_parse_object">
<polygon fill="none" stroke="black" points="150.95,-84.5 150.95,-102.5 272.019,-102.5 272.019,-84.5 150.95,-84.5"/>
<text text-anchor="middle" x="211.484" y="-90.5" font-family="Helvetica,sans-Serif" font-size="10.00">picojson::_parse_object</text>
</a>
</g>
</g>
<!-- Node6&#45;&gt;Node15 -->
<g id="edge9" class="edge"><title>Node6&#45;&gt;Node15</title>
<path fill="none" stroke="midnightblue" d="M125.034,-103.618C133.602,-102.604 142.333,-101.57 150.781,-100.57"/>
<polygon fill="midnightblue" stroke="midnightblue" points="124.597,-100.146 115.078,-104.797 125.42,-107.097 124.597,-100.146"/>
</g>
<!-- Node8 -->
<g id="node3" class="node"><title>Node8</title>
<g id="a_node3"><a xlink:href="namespacepicojson.html#aed024a6a1c8d8982a38c4a7fcefde221" target="_top" xlink:title="picojson::_parse">
<polygon fill="none" stroke="black" points="308.019,-102.5 308.019,-120.5 396.841,-120.5 396.841,-102.5 308.019,-102.5"/>
<text text-anchor="middle" x="352.43" y="-108.5" font-family="Helvetica,sans-Serif" font-size="10.00">picojson::_parse</text>
</a>
</g>
</g>
<!-- Node7&#45;&gt;Node8 -->
<g id="edge2" class="edge"><title>Node7&#45;&gt;Node8</title>
<path fill="none" stroke="midnightblue" d="M280.264,-121.232C289.58,-119.958 298.937,-118.678 307.663,-117.485"/>
<polygon fill="midnightblue" stroke="midnightblue" points="279.636,-117.785 270.203,-122.607 280.585,-124.72 279.636,-117.785"/>
</g>
<!-- Node9 -->
<g id="node4" class="node"><title>Node9</title>
<g id="a_node4"><a xlink:href="classpicojson_1_1default__parse__context.html#a5f65224e655633b20c1f8c5967c153bb" target="_top" xlink:title="picojson::default_parse\l_context::parse_array_item">
<polygon fill="none" stroke="black" points="434.792,-215.5 434.792,-243.5 571.963,-243.5 571.963,-215.5 434.792,-215.5"/>
<text text-anchor="start" x="442.792" y="-231.5" font-family="Helvetica,sans-Serif" font-size="10.00">picojson::default_parse</text>
<text text-anchor="middle" x="503.377" y="-221.5" font-family="Helvetica,sans-Serif" font-size="10.00">_context::parse_array_item</text>
</a>
</g>
</g>
<!-- Node8&#45;&gt;Node9 -->
<g id="edge3" class="edge"><title>Node8&#45;&gt;Node9</title>
<path fill="none" stroke="midnightblue" d="M363.864,-129.192C377.269,-150.458 402.469,-185.856 432.841,-206.5 437.889,-209.931 443.488,-212.884 449.255,-215.418"/>
<polygon fill="midnightblue" stroke="midnightblue" points="366.763,-127.223 358.559,-120.519 360.791,-130.876 366.763,-127.223"/>
</g>
<!-- Node10 -->
<g id="node5" class="node"><title>Node10</title>
<g id="a_node5"><a xlink:href="classpicojson_1_1default__parse__context.html#adf71929b098e4f4b5c32222af149655a" target="_top" xlink:title="picojson::default_parse\l_context::parse_object_item">
<polygon fill="none" stroke="black" points="432.841,-168.5 432.841,-196.5 573.914,-196.5 573.914,-168.5 432.841,-168.5"/>
<text text-anchor="start" x="440.841" y="-184.5" font-family="Helvetica,sans-Serif" font-size="10.00">picojson::default_parse</text>
<text text-anchor="middle" x="503.377" y="-174.5" font-family="Helvetica,sans-Serif" font-size="10.00">_context::parse_object_item</text>
</a>
</g>
</g>
<!-- Node8&#45;&gt;Node10 -->
<g id="edge4" class="edge"><title>Node8&#45;&gt;Node10</title>
<path fill="none" stroke="midnightblue" d="M374.804,-126.228C390.39,-136.511 412.291,-150.037 432.841,-159.5 439.886,-162.744 447.522,-165.749 455.067,-168.443"/>
<polygon fill="midnightblue" stroke="midnightblue" points="376.67,-123.265 366.415,-120.603 372.772,-129.079 376.67,-123.265"/>
</g>
<!-- Node11 -->
<g id="node6" class="node"><title>Node11</title>
<g id="a_node6"><a xlink:href="classpicojson_1_1null__parse__context.html#a6623f92117dd6dc7bca60e9e9463a1a0" target="_top" xlink:title="picojson::null_parse\l_context::parse_array_item">
<polygon fill="none" stroke="black" points="434.792,-121.5 434.792,-149.5 571.963,-149.5 571.963,-121.5 434.792,-121.5"/>
<text text-anchor="start" x="442.792" y="-137.5" font-family="Helvetica,sans-Serif" font-size="10.00">picojson::null_parse</text>
<text text-anchor="middle" x="503.377" y="-127.5" font-family="Helvetica,sans-Serif" font-size="10.00">_context::parse_array_item</text>
</a>
</g>
</g>
<!-- Node8&#45;&gt;Node11 -->
<g id="edge5" class="edge"><title>Node8&#45;&gt;Node11</title>
<path fill="none" stroke="midnightblue" d="M406.887,-120.114C415.918,-121.569 425.399,-123.096 434.735,-124.601"/>
<polygon fill="midnightblue" stroke="midnightblue" points="407.341,-116.642 396.912,-118.506 406.228,-123.553 407.341,-116.642"/>
</g>
<!-- Node12 -->
<g id="node7" class="node"><title>Node12</title>
<g id="a_node7"><a xlink:href="classpicojson_1_1null__parse__context.html#a97c4b81a984ea473fe56e09aed7b9ca6" target="_top" xlink:title="picojson::null_parse\l_context::parse_object_item">
<polygon fill="none" stroke="black" points="432.841,-74.5 432.841,-102.5 573.914,-102.5 573.914,-74.5 432.841,-74.5"/>
<text text-anchor="start" x="440.841" y="-90.5" font-family="Helvetica,sans-Serif" font-size="10.00">picojson::null_parse</text>
<text text-anchor="middle" x="503.377" y="-80.5" font-family="Helvetica,sans-Serif" font-size="10.00">_context::parse_object_item</text>
</a>
</g>
</g>
<!-- Node8&#45;&gt;Node12 -->
<g id="edge6" class="edge"><title>Node8&#45;&gt;Node12</title>
<path fill="none" stroke="midnightblue" d="M406.922,-103.24C415.313,-101.944 424.09,-100.589 432.778,-99.2473"/>
<polygon fill="midnightblue" stroke="midnightblue" points="406.261,-99.8005 396.912,-104.786 407.329,-106.718 406.261,-99.8005"/>
</g>
<!-- Node13 -->
<g id="node8" class="node"><title>Node13</title>
<g id="a_node8"><a xlink:href="namespacepicojson.html#a01c0a3f35d42282ba913375737c8e259" target="_top" xlink:title="picojson::_parse">
<polygon fill="none" stroke="black" points="458.966,-37.5 458.966,-55.5 547.789,-55.5 547.789,-37.5 458.966,-37.5"/>
<text text-anchor="middle" x="503.377" y="-43.5" font-family="Helvetica,sans-Serif" font-size="10.00">picojson::_parse</text>
</a>
</g>
</g>
<!-- Node8&#45;&gt;Node13 -->
<g id="edge7" class="edge"><title>Node8&#45;&gt;Node13</title>
<path fill="none" stroke="midnightblue" d="M374.665,-96.6925C390.185,-86.4393 412.065,-73.1338 432.841,-64.5 441.247,-61.0066 450.514,-58.0419 459.466,-55.5884"/>
<polygon fill="midnightblue" stroke="midnightblue" points="372.655,-93.8268 366.319,-102.318 376.567,-99.6314 372.655,-93.8268"/>
</g>
<!-- Node14 -->
<g id="node9" class="node"><title>Node14</title>
<g id="a_node9"><a xlink:href="namespacepicojson.html#a21621c03c9c8c83dcf5bc604d1cafdf6" target="_top" xlink:title="picojson::parse">
<polygon fill="none" stroke="black" points="461.747,-0.5 461.747,-18.5 545.008,-18.5 545.008,-0.5 461.747,-0.5"/>
<text text-anchor="middle" x="503.377" y="-6.5" font-family="Helvetica,sans-Serif" font-size="10.00">picojson::parse</text>
</a>
</g>
</g>
<!-- Node8&#45;&gt;Node14 -->
<g id="edge8" class="edge"><title>Node8&#45;&gt;Node14</title>
<path fill="none" stroke="midnightblue" d="M365.372,-93.8854C379.323,-74.6781 404.179,-44.424 432.841,-27.5 441.539,-22.3642 451.694,-18.6764 461.513,-16.0344"/>
<polygon fill="midnightblue" stroke="midnightblue" points="362.328,-92.1292 359.431,-102.32 368.051,-96.1603 362.328,-92.1292"/>
</g>
<!-- Node15&#45;&gt;Node8 -->
<g id="edge10" class="edge"><title>Node15&#45;&gt;Node8</title>
<path fill="none" stroke="midnightblue" d="M282.33,-102.548C290.97,-103.668 299.603,-104.786 307.693,-105.834"/>
<polygon fill="midnightblue" stroke="midnightblue" points="282.583,-99.0519 272.216,-101.238 281.684,-105.994 282.583,-99.0519"/>
</g>
</g>
</svg>
