<?xml version="1.0" encoding="UTF-8" standalone="no"?>
<!DOCTYPE svg PUBLIC "-//W3C//DTD SVG 1.1//EN"
 "http://www.w3.org/Graphics/SVG/1.1/DTD/svg11.dtd">
<!-- Generated by graphviz version 2.38.0 (20140413.2041)
 -->
<!-- Title: Engine::CountObjectsUp Pages: 1 -->
<svg width="328pt" height="64pt"
 viewBox="0.00 0.00 327.81 64.00" xmlns="http://www.w3.org/2000/svg" xmlns:xlink="http://www.w3.org/1999/xlink">
<g id="graph0" class="graph" transform="scale(1 1) rotate(0) translate(4 60)">
<title>Engine::CountObjectsUp</title>
<!-- Node4 -->
<g id="node1" class="node"><title>Node4</title>
<polygon fill="#bfbfbf" stroke="black" points="0,-18.5 0,-36.5 126.063,-36.5 126.063,-18.5 0,-18.5"/>
<text text-anchor="middle" x="63.0317" y="-24.5" font-family="Helvetica,sans-Serif" font-size="10.00">Engine::CountObjectsUp</text>
</g>
<!-- Node5 -->
<g id="node2" class="node"><title>Node5</title>
<g id="a_node2"><a xlink:href="class_scene.html#abf41478c6b60d63bc3b2d3a01a0614d4" target="_top" xlink:title="Scene::addGameObject">
<polygon fill="none" stroke="black" points="179.571,-37.5 179.571,-55.5 302.299,-55.5 302.299,-37.5 179.571,-37.5"/>
<text text-anchor="middle" x="240.935" y="-43.5" font-family="Helvetica,sans-Serif" font-size="10.00">Scene::addGameObject</text>
</a>
</g>
</g>
<!-- Node4&#45;&gt;Node5 -->
<g id="edge1" class="edge"><title>Node4&#45;&gt;Node5</title>
<path fill="none" stroke="midnightblue" d="M136.752,-35.3548C150.933,-36.8866 165.66,-38.4772 179.395,-39.9609"/>
<polygon fill="midnightblue" stroke="midnightblue" points="136.862,-31.8464 126.544,-34.2522 136.11,-38.8059 136.862,-31.8464"/>
</g>
<!-- Node6 -->
<g id="node3" class="node"><title>Node6</title>
<g id="a_node3"><a xlink:href="class_scene.html#a9e0e66d75a6ebb10c6a371e9de47fff7" target="_top" xlink:title="Scene::addExistingGameObject">
<polygon fill="none" stroke="black" points="162.063,-0.5 162.063,-18.5 319.807,-18.5 319.807,-0.5 162.063,-0.5"/>
<text text-anchor="middle" x="240.935" y="-6.5" font-family="Helvetica,sans-Serif" font-size="10.00">Scene::addExistingGameObject</text>
</a>
</g>
</g>
<!-- Node4&#45;&gt;Node6 -->
<g id="edge2" class="edge"><title>Node4&#45;&gt;Node6</title>
<path fill="none" stroke="midnightblue" d="M136.614,-20.0727C144.965,-19.2182 153.507,-18.3441 161.925,-17.4827"/>
<polygon fill="midnightblue" stroke="midnightblue" points="136.136,-16.6033 126.544,-21.1032 136.848,-23.5669 136.136,-16.6033"/>
</g>
</g>
</svg>
