<?xml version="1.0" encoding="UTF-8" standalone="no"?>
<!DOCTYPE svg PUBLIC "-//W3C//DTD SVG 1.1//EN"
 "http://www.w3.org/Graphics/SVG/1.1/DTD/svg11.dtd">
<!-- Generated by graphviz version 2.38.0 (20140413.2041)
 -->
<!-- Title: picojson::null_parse_context::parse_array_item Pages: 1 -->
<svg width="1076pt" height="322pt"
 viewBox="0.00 0.00 1075.92 321.50" xmlns="http://www.w3.org/2000/svg" xmlns:xlink="http://www.w3.org/1999/xlink">
<g id="graph0" class="graph" transform="scale(1 1) rotate(0) translate(4 317.5)">
<title>picojson::null_parse_context::parse_array_item</title>
<!-- Node2 -->
<g id="node1" class="node"><title>Node2</title>
<polygon fill="#bfbfbf" stroke="black" points="0,-156 0,-184 137.172,-184 137.172,-156 0,-156"/>
<text text-anchor="start" x="8" y="-172" font-family="Helvetica,sans-Serif" font-size="10.00">picojson::null_parse</text>
<text text-anchor="middle" x="68.5859" y="-162" font-family="Helvetica,sans-Serif" font-size="10.00">_context::parse_array_item</text>
</g>
<!-- Node3 -->
<g id="node2" class="node"><title>Node3</title>
<g id="a_node2"><a xlink:href="namespacepicojson.html#aed024a6a1c8d8982a38c4a7fcefde221" target="_top" xlink:title="picojson::_parse">
<polygon fill="none" stroke="black" points="173.172,-161 173.172,-179 261.994,-179 261.994,-161 173.172,-161"/>
<text text-anchor="middle" x="217.583" y="-167" font-family="Helvetica,sans-Serif" font-size="10.00">picojson::_parse</text>
</a>
</g>
</g>
<!-- Node2&#45;&gt;Node3 -->
<g id="edge1" class="edge"><title>Node2&#45;&gt;Node3</title>
<path fill="none" stroke="midnightblue" d="M137.491,-170C145.954,-170 154.516,-170 162.726,-170"/>
<polygon fill="midnightblue" stroke="midnightblue" points="162.902,-173.5 172.902,-170 162.902,-166.5 162.902,-173.5"/>
</g>
<!-- Node4 -->
<g id="node3" class="node"><title>Node4</title>
<g id="a_node3"><a xlink:href="classpicojson_1_1input.html#aa83aefe87374a5e24ab8c8e80fef4aa4" target="_top" xlink:title="picojson::input::skip_ws">
<polygon fill="none" stroke="black" points="298.001,-295 298.001,-313 419.055,-313 419.055,-295 298.001,-295"/>
<text text-anchor="middle" x="358.528" y="-301" font-family="Helvetica,sans-Serif" font-size="10.00">picojson::input::skip_ws</text>
</a>
</g>
</g>
<!-- Node3&#45;&gt;Node4 -->
<g id="edge2" class="edge"><title>Node3&#45;&gt;Node4</title>
<path fill="none" stroke="midnightblue" d="M222.843,-179.008C233.023,-199.646 260.72,-250.811 297.994,-280 303.476,-284.293 309.829,-287.92 316.301,-290.951"/>
<polygon fill="midnightblue" stroke="midnightblue" points="315.208,-294.289 325.78,-294.972 317.941,-287.845 315.208,-294.289"/>
</g>
<!-- Node5 -->
<g id="node4" class="node"><title>Node5</title>
<g id="a_node4"><a xlink:href="classpicojson_1_1input.html#a3e8ba0b09a989efa0dc583096984ea8e" target="_top" xlink:title="picojson::input::getc">
<polygon fill="none" stroke="black" points="957.967,-181 957.967,-199 1062.36,-199 1062.36,-181 957.967,-181"/>
<text text-anchor="middle" x="1010.16" y="-187" font-family="Helvetica,sans-Serif" font-size="10.00">picojson::input::getc</text>
</a>
</g>
</g>
<!-- Node3&#45;&gt;Node5 -->
<g id="edge3" class="edge"><title>Node3&#45;&gt;Node5</title>
<path fill="none" stroke="midnightblue" d="M234.296,-179.031C277.405,-202.929 401.759,-266 513.481,-266 513.481,-266 513.481,-266 679.776,-266 791.287,-266 918.721,-224.133 977.012,-202.547"/>
<polygon fill="midnightblue" stroke="midnightblue" points="978.285,-205.808 986.417,-199.017 975.825,-199.254 978.285,-205.808"/>
</g>
<!-- Node6 -->
<g id="node5" class="node"><title>Node6</title>
<g id="a_node5"><a xlink:href="namespacepicojson.html#adcae039b132c6c96d2b2d9e786a04a88" target="_top" xlink:title="picojson::_parse_array">
<polygon fill="none" stroke="black" points="299.945,-180 299.945,-198 417.112,-198 417.112,-180 299.945,-180"/>
<text text-anchor="middle" x="358.528" y="-186" font-family="Helvetica,sans-Serif" font-size="10.00">picojson::_parse_array</text>
</a>
</g>
</g>
<!-- Node3&#45;&gt;Node6 -->
<g id="edge4" class="edge"><title>Node3&#45;&gt;Node6</title>
<path fill="none" stroke="midnightblue" d="M262.165,-175.96C270.932,-177.158 280.341,-178.445 289.709,-179.726"/>
<polygon fill="midnightblue" stroke="midnightblue" points="289.445,-183.223 299.827,-181.11 290.394,-176.287 289.445,-183.223"/>
</g>
<!-- Node8 -->
<g id="node7" class="node"><title>Node8</title>
<g id="a_node7"><a xlink:href="namespacepicojson.html#a480ed5e3461568672197a42e259a44c9" target="_top" xlink:title="picojson::_parse_object">
<polygon fill="none" stroke="black" points="297.994,-143 297.994,-161 419.062,-161 419.062,-143 297.994,-143"/>
<text text-anchor="middle" x="358.528" y="-149" font-family="Helvetica,sans-Serif" font-size="10.00">picojson::_parse_object</text>
</a>
</g>
</g>
<!-- Node3&#45;&gt;Node8 -->
<g id="edge6" class="edge"><title>Node3&#45;&gt;Node8</title>
<path fill="none" stroke="midnightblue" d="M262.165,-164.354C270.288,-163.302 278.962,-162.178 287.644,-161.053"/>
<polygon fill="midnightblue" stroke="midnightblue" points="288.34,-164.492 297.808,-159.737 287.441,-157.55 288.34,-164.492"/>
</g>
<!-- Node10 -->
<g id="node9" class="node"><title>Node10</title>
<g id="a_node9"><a xlink:href="classpicojson_1_1input.html#a96ccc244e73b2ab87ded38c98e98d573" target="_top" xlink:title="picojson::input::ungetc">
<polygon fill="none" stroke="black" points="952.405,-67 952.405,-85 1067.92,-85 1067.92,-67 952.405,-67"/>
<text text-anchor="middle" x="1010.16" y="-73" font-family="Helvetica,sans-Serif" font-size="10.00">picojson::input::ungetc</text>
</a>
</g>
</g>
<!-- Node3&#45;&gt;Node10 -->
<g id="edge17" class="edge"><title>Node3&#45;&gt;Node10</title>
<path fill="none" stroke="midnightblue" d="M226.725,-160.86C259.126,-125.549 383.471,-0 513.481,-0 513.481,-0 513.481,-0 679.776,-0 791.287,-0 918.721,-41.8675 977.012,-63.4528"/>
<polygon fill="midnightblue" stroke="midnightblue" points="975.825,-66.7459 986.417,-66.9834 978.285,-60.1924 975.825,-66.7459"/>
</g>
<!-- Node13 -->
<g id="node12" class="node"><title>Node13</title>
<g id="a_node12"><a xlink:href="namespacepicojson.html#a771defe1d981b7091c2156bf4720625c" target="_top" xlink:title="picojson::_parse_number">
<polygon fill="none" stroke="black" points="785.884,-67 785.884,-85 914.174,-85 914.174,-67 785.884,-67"/>
<text text-anchor="middle" x="850.029" y="-73" font-family="Helvetica,sans-Serif" font-size="10.00">picojson::_parse_number</text>
</a>
</g>
</g>
<!-- Node3&#45;&gt;Node13 -->
<g id="edge18" class="edge"><title>Node3&#45;&gt;Node13</title>
<path fill="none" stroke="midnightblue" d="M234.106,-160.863C249.696,-152.153 274.684,-139.44 297.994,-133 464.585,-86.9756 668.819,-77.4792 775.759,-75.9068"/>
<polygon fill="midnightblue" stroke="midnightblue" points="775.846,-79.4061 785.8,-75.7784 775.756,-72.4067 775.846,-79.4061"/>
</g>
<!-- Node7 -->
<g id="node6" class="node"><title>Node7</title>
<g id="a_node6"><a xlink:href="classpicojson_1_1input.html#a14c29e99d9c9aa8cdbb46178c434d663" target="_top" xlink:title="picojson::input::expect">
<polygon fill="none" stroke="black" points="457.006,-180 457.006,-198 571.956,-198 571.956,-180 457.006,-180"/>
<text text-anchor="middle" x="514.481" y="-186" font-family="Helvetica,sans-Serif" font-size="10.00">picojson::input::expect</text>
</a>
</g>
</g>
<!-- Node6&#45;&gt;Node7 -->
<g id="edge5" class="edge"><title>Node6&#45;&gt;Node7</title>
<path fill="none" stroke="midnightblue" d="M417.293,-189C426.918,-189 436.971,-189 446.797,-189"/>
<polygon fill="midnightblue" stroke="midnightblue" points="446.927,-192.5 456.927,-189 446.927,-185.5 446.927,-192.5"/>
</g>
<!-- Node8&#45;&gt;Node7 -->
<g id="edge7" class="edge"><title>Node8&#45;&gt;Node7</title>
<path fill="none" stroke="midnightblue" d="M397.189,-161.051C417.955,-166.042 443.939,-172.287 466.075,-177.607"/>
<polygon fill="midnightblue" stroke="midnightblue" points="465.401,-181.044 475.942,-179.978 467.037,-174.238 465.401,-181.044"/>
</g>
<!-- Node9 -->
<g id="node8" class="node"><title>Node9</title>
<g id="a_node8"><a xlink:href="namespacepicojson.html#a9a1d94feb2718129796225d77c9e8d11" target="_top" xlink:title="picojson::_parse_string">
<polygon fill="none" stroke="black" points="455.062,-143 455.062,-161 573.899,-161 573.899,-143 455.062,-143"/>
<text text-anchor="middle" x="514.481" y="-149" font-family="Helvetica,sans-Serif" font-size="10.00">picojson::_parse_string</text>
</a>
</g>
</g>
<!-- Node8&#45;&gt;Node9 -->
<g id="edge8" class="edge"><title>Node8&#45;&gt;Node9</title>
<path fill="none" stroke="midnightblue" d="M419.491,-152C427.774,-152 436.334,-152 444.761,-152"/>
<polygon fill="midnightblue" stroke="midnightblue" points="444.945,-155.5 454.945,-152 444.945,-148.5 444.945,-155.5"/>
</g>
<!-- Node9&#45;&gt;Node5 -->
<g id="edge9" class="edge"><title>Node9&#45;&gt;Node5</title>
<path fill="none" stroke="midnightblue" d="M559.565,-161.048C575.396,-164.127 593.41,-167.435 609.899,-170 686.76,-181.957 706.007,-186.325 783.652,-191 842.547,-194.546 857.405,-191.318 916.405,-191 926.43,-190.946 937.064,-190.859 947.418,-190.759"/>
<polygon fill="midnightblue" stroke="midnightblue" points="947.683,-194.256 957.646,-190.654 947.611,-187.256 947.683,-194.256"/>
</g>
<!-- Node9&#45;&gt;Node10 -->
<g id="edge10" class="edge"><title>Node9&#45;&gt;Node10</title>
<path fill="none" stroke="midnightblue" d="M534.067,-142.906C576.835,-122.548 686.052,-73.7768 783.652,-57 841.801,-47.0047 857.705,-51.0497 916.405,-57 931.952,-58.5759 948.743,-61.6014 963.71,-64.7825"/>
<polygon fill="midnightblue" stroke="midnightblue" points="963.224,-68.2593 973.743,-66.9939 964.73,-61.4234 963.224,-68.2593"/>
</g>
<!-- Node11 -->
<g id="node10" class="node"><title>Node11</title>
<g id="a_node10"><a xlink:href="namespacepicojson.html#a05316c2614f3e7a4559ce1d1003eb051" target="_top" xlink:title="picojson::_parse_codepoint">
<polygon fill="none" stroke="black" points="609.899,-143 609.899,-161 747.652,-161 747.652,-143 609.899,-143"/>
<text text-anchor="middle" x="678.776" y="-149" font-family="Helvetica,sans-Serif" font-size="10.00">picojson::_parse_codepoint</text>
</a>
</g>
</g>
<!-- Node9&#45;&gt;Node11 -->
<g id="edge11" class="edge"><title>Node9&#45;&gt;Node11</title>
<path fill="none" stroke="midnightblue" d="M574.073,-152C582.426,-152 591.126,-152 599.778,-152"/>
<polygon fill="midnightblue" stroke="midnightblue" points="599.889,-155.5 609.889,-152 599.889,-148.5 599.889,-155.5"/>
</g>
<!-- Node11&#45;&gt;Node5 -->
<g id="edge15" class="edge"><title>Node11&#45;&gt;Node5</title>
<path fill="none" stroke="midnightblue" d="M726.965,-161.03C744.692,-164.197 765.05,-167.568 783.652,-170 838.907,-177.225 902.126,-182.581 947.541,-185.923"/>
<polygon fill="midnightblue" stroke="midnightblue" points="947.302,-189.415 957.528,-186.647 947.808,-182.433 947.302,-189.415"/>
</g>
<!-- Node11&#45;&gt;Node10 -->
<g id="edge16" class="edge"><title>Node11&#45;&gt;Node10</title>
<path fill="none" stroke="midnightblue" d="M718.854,-142.983C779.028,-129.099 894.284,-102.506 960.024,-87.3376"/>
<polygon fill="midnightblue" stroke="midnightblue" points="961.177,-90.6636 970.134,-85.0049 959.603,-83.8428 961.177,-90.6636"/>
</g>
<!-- Node12 -->
<g id="node11" class="node"><title>Node12</title>
<g id="a_node11"><a xlink:href="namespacepicojson.html#a92d4f60542bbdfe8203f10e1fcce9368" target="_top" xlink:title="picojson::_parse_quadhex">
<polygon fill="none" stroke="black" points="783.652,-143 783.652,-161 916.405,-161 916.405,-143 783.652,-143"/>
<text text-anchor="middle" x="850.029" y="-149" font-family="Helvetica,sans-Serif" font-size="10.00">picojson::_parse_quadhex</text>
</a>
</g>
</g>
<!-- Node11&#45;&gt;Node12 -->
<g id="edge12" class="edge"><title>Node11&#45;&gt;Node12</title>
<path fill="none" stroke="midnightblue" d="M748.13,-152C756.413,-152 764.913,-152 773.295,-152"/>
<polygon fill="midnightblue" stroke="midnightblue" points="773.439,-155.5 783.439,-152 773.439,-148.5 773.439,-155.5"/>
</g>
<!-- Node12&#45;&gt;Node5 -->
<g id="edge13" class="edge"><title>Node12&#45;&gt;Node5</title>
<path fill="none" stroke="midnightblue" d="M888.504,-161.005C910.481,-166.287 938.45,-173.008 961.926,-178.649"/>
<polygon fill="midnightblue" stroke="midnightblue" points="961.14,-182.06 971.681,-180.993 962.776,-175.254 961.14,-182.06"/>
</g>
<!-- Node12&#45;&gt;Node10 -->
<g id="edge14" class="edge"><title>Node12&#45;&gt;Node10</title>
<path fill="none" stroke="midnightblue" d="M878.778,-142.912C890.554,-138.774 904.324,-133.561 916.405,-128 940.937,-116.708 967.72,-101.341 986.171,-90.2443"/>
<polygon fill="midnightblue" stroke="midnightblue" points="988.031,-93.21 994.759,-85.0256 984.395,-87.228 988.031,-93.21"/>
</g>
<!-- Node13&#45;&gt;Node5 -->
<g id="edge19" class="edge"><title>Node13&#45;&gt;Node5</title>
<path fill="none" stroke="midnightblue" d="M863.702,-85.1364C890.882,-104.731 955.004,-150.957 988.291,-174.954"/>
<polygon fill="midnightblue" stroke="midnightblue" points="986.269,-177.811 996.427,-180.82 990.362,-172.133 986.269,-177.811"/>
</g>
<!-- Node13&#45;&gt;Node10 -->
<g id="edge20" class="edge"><title>Node13&#45;&gt;Node10</title>
<path fill="none" stroke="midnightblue" d="M914.436,-76C923.551,-76 932.955,-76 942.137,-76"/>
<polygon fill="midnightblue" stroke="midnightblue" points="942.382,-79.5001 952.382,-76 942.382,-72.5001 942.382,-79.5001"/>
</g>
</g>
</svg>
