<?xml version="1.0" encoding="UTF-8" standalone="no"?>
<!DOCTYPE svg PUBLIC "-//W3C//DTD SVG 1.1//EN"
 "http://www.w3.org/Graphics/SVG/1.1/DTD/svg11.dtd">
<!-- Generated by graphviz version 2.38.0 (20140413.2041)
 -->
<!-- Title: LightSource Pages: 1 -->
<svg width="128pt" height="416pt"
 viewBox="0.00 0.00 128.42 416.00" xmlns="http://www.w3.org/2000/svg" xmlns:xlink="http://www.w3.org/1999/xlink">
<g id="graph0" class="graph" transform="scale(1 1) rotate(0) translate(4 412)">
<title>LightSource</title>
<!-- Node2 -->
<g id="node1" class="node"><title>Node2</title>
<polygon fill="#bfbfbf" stroke="black" points="12.2314,-0.5 12.2314,-124.5 104.091,-124.5 104.091,-0.5 12.2314,-0.5"/>
<text text-anchor="middle" x="58.1611" y="-112.5" font-family="Helvetica,sans-Serif" font-size="10.00">LightSource</text>
<polyline fill="none" stroke="black" points="12.2314,-106.5 104.091,-106.5 "/>
<text text-anchor="start" x="20.2314" y="-94.5" font-family="Helvetica,sans-Serif" font-size="10.00">+ _light</text>
<polyline fill="none" stroke="black" points="12.2314,-88.5 104.091,-88.5 "/>
<text text-anchor="start" x="20.2314" y="-76.5" font-family="Helvetica,sans-Serif" font-size="10.00">+ ~LightSource()</text>
<text text-anchor="start" x="20.2314" y="-66.5" font-family="Helvetica,sans-Serif" font-size="10.00">+ start()</text>
<text text-anchor="start" x="20.2314" y="-56.5" font-family="Helvetica,sans-Serif" font-size="10.00">+ setDirectional()</text>
<text text-anchor="start" x="20.2314" y="-46.5" font-family="Helvetica,sans-Serif" font-size="10.00">+ setDirection()</text>
<text text-anchor="start" x="20.2314" y="-36.5" font-family="Helvetica,sans-Serif" font-size="10.00">+ setColor()</text>
<text text-anchor="start" x="20.2314" y="-26.5" font-family="Helvetica,sans-Serif" font-size="10.00">+ setRange()</text>
<text text-anchor="start" x="20.2314" y="-16.5" font-family="Helvetica,sans-Serif" font-size="10.00">+ update()</text>
<text text-anchor="start" x="20.2314" y="-6.5" font-family="Helvetica,sans-Serif" font-size="10.00"># LightSource()</text>
</g>
<!-- Node3 -->
<g id="node2" class="node"><title>Node3</title>
<g id="a_node2"><a xlink:href="class_component.html" target="_top" xlink:title="{Component\n|# name\l|+ ~Component()\l+ getGameObject()\l+ getName()\l# Component()\l}">
<polygon fill="none" stroke="black" points="7.50488,-162.5 7.50488,-246.5 108.817,-246.5 108.817,-162.5 7.50488,-162.5"/>
<text text-anchor="middle" x="58.1611" y="-234.5" font-family="Helvetica,sans-Serif" font-size="10.00">Component</text>
<polyline fill="none" stroke="black" points="7.50488,-228.5 108.817,-228.5 "/>
<text text-anchor="start" x="15.5049" y="-216.5" font-family="Helvetica,sans-Serif" font-size="10.00"># name</text>
<polyline fill="none" stroke="black" points="7.50488,-210.5 108.817,-210.5 "/>
<text text-anchor="start" x="15.5049" y="-198.5" font-family="Helvetica,sans-Serif" font-size="10.00">+ ~Component()</text>
<text text-anchor="start" x="15.5049" y="-188.5" font-family="Helvetica,sans-Serif" font-size="10.00">+ getGameObject()</text>
<text text-anchor="start" x="15.5049" y="-178.5" font-family="Helvetica,sans-Serif" font-size="10.00">+ getName()</text>
<text text-anchor="start" x="15.5049" y="-168.5" font-family="Helvetica,sans-Serif" font-size="10.00"># Component()</text>
</a>
</g>
</g>
<!-- Node3&#45;&gt;Node2 -->
<g id="edge1" class="edge"><title>Node3&#45;&gt;Node2</title>
<path fill="none" stroke="midnightblue" d="M58.1611,-152.043C58.1611,-143.145 58.1611,-133.816 58.1611,-124.69"/>
<polygon fill="none" stroke="midnightblue" points="54.6612,-152.253 58.1611,-162.253 61.6612,-152.253 54.6612,-152.253"/>
</g>
<!-- Node4 -->
<g id="node3" class="node"><title>Node4</title>
<g id="a_node3"><a xlink:href="class_game_object.html" target="_top" xlink:title="{GameObject\n||+ ~GameObject()\l+ getName()\l+ getID()\l+ addComponent()\l+ removeComponent()\l+ getComponent()\l+ getComponents()\l}">
<polygon fill="none" stroke="black" points="0,-293.5 0,-407.5 116.322,-407.5 116.322,-293.5 0,-293.5"/>
<text text-anchor="middle" x="58.1611" y="-395.5" font-family="Helvetica,sans-Serif" font-size="10.00">GameObject</text>
<polyline fill="none" stroke="black" points="0,-389.5 116.322,-389.5 "/>
<text text-anchor="middle" x="58.1611" y="-377.5" font-family="Helvetica,sans-Serif" font-size="10.00"> </text>
<polyline fill="none" stroke="black" points="0,-371.5 116.322,-371.5 "/>
<text text-anchor="start" x="8" y="-359.5" font-family="Helvetica,sans-Serif" font-size="10.00">+ ~GameObject()</text>
<text text-anchor="start" x="8" y="-349.5" font-family="Helvetica,sans-Serif" font-size="10.00">+ getName()</text>
<text text-anchor="start" x="8" y="-339.5" font-family="Helvetica,sans-Serif" font-size="10.00">+ getID()</text>
<text text-anchor="start" x="8" y="-329.5" font-family="Helvetica,sans-Serif" font-size="10.00">+ addComponent()</text>
<text text-anchor="start" x="8" y="-319.5" font-family="Helvetica,sans-Serif" font-size="10.00">+ removeComponent()</text>
<text text-anchor="start" x="8" y="-309.5" font-family="Helvetica,sans-Serif" font-size="10.00">+ getComponent()</text>
<text text-anchor="start" x="8" y="-299.5" font-family="Helvetica,sans-Serif" font-size="10.00">+ getComponents()</text>
</a>
</g>
</g>
<!-- Node4&#45;&gt;Node3 -->
<g id="edge2" class="edge"><title>Node4&#45;&gt;Node3</title>
<path fill="none" stroke="#404040" d="M58.1611,-293.414C58.1611,-282.168 58.1611,-270.377 58.1611,-259.214"/>
<polygon fill="none" stroke="#404040" points="58.1612,-258.939 54.1612,-252.94 58.1611,-246.939 62.1612,-252.939 58.1612,-258.939"/>
<text text-anchor="middle" x="89.2891" y="-267" font-family="Helvetica,sans-Serif" font-size="10.00"> #gameObject</text>
</g>
</g>
</svg>
