<?xml version="1.0" encoding="UTF-8" standalone="no"?>
<!DOCTYPE svg PUBLIC "-//W3C//DTD SVG 1.1//EN"
 "http://www.w3.org/Graphics/SVG/1.1/DTD/svg11.dtd">
<!-- Generated by graphviz version 2.38.0 (20140413.2041)
 -->
<!-- Title: picojson::value::is Pages: 1 -->
<svg width="246pt" height="64pt"
 viewBox="0.00 0.00 246.10 64.00" xmlns="http://www.w3.org/2000/svg" xmlns:xlink="http://www.w3.org/1999/xlink">
<g id="graph0" class="graph" transform="scale(1 1) rotate(0) translate(4 60)">
<title>picojson::value::is</title>
<!-- Node63 -->
<g id="node1" class="node"><title>Node63</title>
<polygon fill="#bfbfbf" stroke="black" points="0,-18.5 0,-36.5 94.9307,-36.5 94.9307,-18.5 0,-18.5"/>
<text text-anchor="middle" x="47.4653" y="-24.5" font-family="Helvetica,sans-Serif" font-size="10.00">picojson::value::is</text>
</g>
<!-- Node64 -->
<g id="node2" class="node"><title>Node64</title>
<g id="a_node2"><a xlink:href="namespacepicojson.html#a498fde71ce35268547d93068d9a756be" target="_top" xlink:title="picojson::operator==">
<polygon fill="none" stroke="black" points="130.931,-37.5 130.931,-55.5 238.103,-55.5 238.103,-37.5 130.931,-37.5"/>
<text text-anchor="middle" x="184.517" y="-43.5" font-family="Helvetica,sans-Serif" font-size="10.00">picojson::operator==</text>
</a>
</g>
</g>
<!-- Node63&#45;&gt;Node64 -->
<g id="edge1" class="edge"><title>Node63&#45;&gt;Node64</title>
<path fill="none" stroke="midnightblue" d="M104.911,-35.4412C113.53,-36.6538 122.396,-37.9011 130.928,-39.1014"/>
<polygon fill="midnightblue" stroke="midnightblue" points="105.332,-31.9661 94.9423,-34.0387 104.357,-38.8978 105.332,-31.9661"/>
</g>
<!-- Node65 -->
<g id="node3" class="node"><title>Node65</title>
<g id="a_node3"><a xlink:href="picojson_8h.html#acfc95c2071e57351861cfb83e1ed6491" target="_top" xlink:title="operator\&gt;\&gt;">
<polygon fill="none" stroke="black" points="152.054,-0.5 152.054,-18.5 216.979,-18.5 216.979,-0.5 152.054,-0.5"/>
<text text-anchor="middle" x="184.517" y="-6.5" font-family="Helvetica,sans-Serif" font-size="10.00">operator&gt;&gt;</text>
</a>
</g>
</g>
<!-- Node63&#45;&gt;Node65 -->
<g id="edge2" class="edge"><title>Node63&#45;&gt;Node65</title>
<path fill="none" stroke="midnightblue" d="M105.255,-19.9309C121.187,-17.8075 137.937,-15.575 151.834,-13.7227"/>
<polygon fill="midnightblue" stroke="midnightblue" points="104.392,-16.5149 94.9423,-21.3054 105.317,-23.4535 104.392,-16.5149"/>
</g>
</g>
</svg>
