<?xml version="1.0" encoding="UTF-8" standalone="no"?>
<!DOCTYPE svg PUBLIC "-//W3C//DTD SVG 1.1//EN"
 "http://www.w3.org/Graphics/SVG/1.1/DTD/svg11.dtd">
<!-- Generated by graphviz version 2.38.0 (20140413.2041)
 -->
<!-- Title: picojson::input::skip_ws Pages: 1 -->
<svg width="431pt" height="252pt"
 viewBox="0.00 0.00 430.95 252.00" xmlns="http://www.w3.org/2000/svg" xmlns:xlink="http://www.w3.org/1999/xlink">
<g id="graph0" class="graph" transform="scale(1 1) rotate(0) translate(4 248)">
<title>picojson::input::skip_ws</title>
<!-- Node38 -->
<g id="node1" class="node"><title>Node38</title>
<polygon fill="#bfbfbf" stroke="black" points="0,-102.5 0,-120.5 121.054,-120.5 121.054,-102.5 0,-102.5"/>
<text text-anchor="middle" x="60.5269" y="-108.5" font-family="Helvetica,sans-Serif" font-size="10.00">picojson::input::skip_ws</text>
</g>
<!-- Node39 -->
<g id="node2" class="node"><title>Node39</title>
<g id="a_node2"><a xlink:href="namespacepicojson.html#aed024a6a1c8d8982a38c4a7fcefde221" target="_top" xlink:title="picojson::_parse">
<polygon fill="none" stroke="black" points="157.054,-102.5 157.054,-120.5 245.876,-120.5 245.876,-102.5 157.054,-102.5"/>
<text text-anchor="middle" x="201.465" y="-108.5" font-family="Helvetica,sans-Serif" font-size="10.00">picojson::_parse</text>
</a>
</g>
</g>
<!-- Node38&#45;&gt;Node39 -->
<g id="edge1" class="edge"><title>Node38&#45;&gt;Node39</title>
<path fill="none" stroke="midnightblue" d="M131.369,-111.5C140.009,-111.5 148.641,-111.5 156.73,-111.5"/>
<polygon fill="midnightblue" stroke="midnightblue" points="131.255,-108 121.255,-111.5 131.255,-115 131.255,-108"/>
</g>
<!-- Node40 -->
<g id="node3" class="node"><title>Node40</title>
<g id="a_node3"><a xlink:href="classpicojson_1_1default__parse__context.html#a5f65224e655633b20c1f8c5967c153bb" target="_top" xlink:title="picojson::default_parse\l_context::parse_array_item">
<polygon fill="none" stroke="black" points="283.827,-215.5 283.827,-243.5 420.999,-243.5 420.999,-215.5 283.827,-215.5"/>
<text text-anchor="start" x="291.827" y="-231.5" font-family="Helvetica,sans-Serif" font-size="10.00">picojson::default_parse</text>
<text text-anchor="middle" x="352.413" y="-221.5" font-family="Helvetica,sans-Serif" font-size="10.00">_context::parse_array_item</text>
</a>
</g>
</g>
<!-- Node39&#45;&gt;Node40 -->
<g id="edge2" class="edge"><title>Node39&#45;&gt;Node40</title>
<path fill="none" stroke="midnightblue" d="M212.899,-129.192C226.305,-150.458 251.504,-185.856 281.876,-206.5 286.924,-209.931 292.523,-212.884 298.29,-215.418"/>
<polygon fill="midnightblue" stroke="midnightblue" points="215.798,-127.223 207.594,-120.519 209.826,-130.876 215.798,-127.223"/>
</g>
<!-- Node41 -->
<g id="node4" class="node"><title>Node41</title>
<g id="a_node4"><a xlink:href="classpicojson_1_1default__parse__context.html#adf71929b098e4f4b5c32222af149655a" target="_top" xlink:title="picojson::default_parse\l_context::parse_object_item">
<polygon fill="none" stroke="black" points="281.876,-168.5 281.876,-196.5 422.949,-196.5 422.949,-168.5 281.876,-168.5"/>
<text text-anchor="start" x="289.876" y="-184.5" font-family="Helvetica,sans-Serif" font-size="10.00">picojson::default_parse</text>
<text text-anchor="middle" x="352.413" y="-174.5" font-family="Helvetica,sans-Serif" font-size="10.00">_context::parse_object_item</text>
</a>
</g>
</g>
<!-- Node39&#45;&gt;Node41 -->
<g id="edge3" class="edge"><title>Node39&#45;&gt;Node41</title>
<path fill="none" stroke="midnightblue" d="M223.839,-126.228C239.425,-136.511 261.326,-150.037 281.876,-159.5 288.921,-162.744 296.557,-165.749 304.102,-168.443"/>
<polygon fill="midnightblue" stroke="midnightblue" points="225.705,-123.265 215.45,-120.603 221.807,-129.079 225.705,-123.265"/>
</g>
<!-- Node42 -->
<g id="node5" class="node"><title>Node42</title>
<g id="a_node5"><a xlink:href="classpicojson_1_1null__parse__context.html#a6623f92117dd6dc7bca60e9e9463a1a0" target="_top" xlink:title="picojson::null_parse\l_context::parse_array_item">
<polygon fill="none" stroke="black" points="283.827,-121.5 283.827,-149.5 420.999,-149.5 420.999,-121.5 283.827,-121.5"/>
<text text-anchor="start" x="291.827" y="-137.5" font-family="Helvetica,sans-Serif" font-size="10.00">picojson::null_parse</text>
<text text-anchor="middle" x="352.413" y="-127.5" font-family="Helvetica,sans-Serif" font-size="10.00">_context::parse_array_item</text>
</a>
</g>
</g>
<!-- Node39&#45;&gt;Node42 -->
<g id="edge4" class="edge"><title>Node39&#45;&gt;Node42</title>
<path fill="none" stroke="midnightblue" d="M255.922,-120.114C264.953,-121.569 274.434,-123.096 283.771,-124.601"/>
<polygon fill="midnightblue" stroke="midnightblue" points="256.377,-116.642 245.947,-118.506 255.263,-123.553 256.377,-116.642"/>
</g>
<!-- Node43 -->
<g id="node6" class="node"><title>Node43</title>
<g id="a_node6"><a xlink:href="classpicojson_1_1null__parse__context.html#a97c4b81a984ea473fe56e09aed7b9ca6" target="_top" xlink:title="picojson::null_parse\l_context::parse_object_item">
<polygon fill="none" stroke="black" points="281.876,-74.5 281.876,-102.5 422.949,-102.5 422.949,-74.5 281.876,-74.5"/>
<text text-anchor="start" x="289.876" y="-90.5" font-family="Helvetica,sans-Serif" font-size="10.00">picojson::null_parse</text>
<text text-anchor="middle" x="352.413" y="-80.5" font-family="Helvetica,sans-Serif" font-size="10.00">_context::parse_object_item</text>
</a>
</g>
</g>
<!-- Node39&#45;&gt;Node43 -->
<g id="edge5" class="edge"><title>Node39&#45;&gt;Node43</title>
<path fill="none" stroke="midnightblue" d="M255.958,-103.24C264.348,-101.944 273.125,-100.589 281.813,-99.2473"/>
<polygon fill="midnightblue" stroke="midnightblue" points="255.296,-99.8005 245.947,-104.786 256.364,-106.718 255.296,-99.8005"/>
</g>
<!-- Node44 -->
<g id="node7" class="node"><title>Node44</title>
<g id="a_node7"><a xlink:href="namespacepicojson.html#a01c0a3f35d42282ba913375737c8e259" target="_top" xlink:title="picojson::_parse">
<polygon fill="none" stroke="black" points="308.001,-37.5 308.001,-55.5 396.824,-55.5 396.824,-37.5 308.001,-37.5"/>
<text text-anchor="middle" x="352.413" y="-43.5" font-family="Helvetica,sans-Serif" font-size="10.00">picojson::_parse</text>
</a>
</g>
</g>
<!-- Node39&#45;&gt;Node44 -->
<g id="edge6" class="edge"><title>Node39&#45;&gt;Node44</title>
<path fill="none" stroke="midnightblue" d="M224.059,-96.938C239.599,-86.9788 261.354,-74.0771 281.876,-65.5 291.229,-61.591 301.625,-58.2535 311.467,-55.5172"/>
<polygon fill="midnightblue" stroke="midnightblue" points="222.143,-94.0089 215.684,-102.407 225.97,-99.87 222.143,-94.0089"/>
</g>
<!-- Node45 -->
<g id="node8" class="node"><title>Node45</title>
<g id="a_node8"><a xlink:href="namespacepicojson.html#a21621c03c9c8c83dcf5bc604d1cafdf6" target="_top" xlink:title="picojson::parse">
<polygon fill="none" stroke="black" points="310.782,-0.5 310.782,-18.5 394.043,-18.5 394.043,-0.5 310.782,-0.5"/>
<text text-anchor="middle" x="352.413" y="-6.5" font-family="Helvetica,sans-Serif" font-size="10.00">picojson::parse</text>
</a>
</g>
</g>
<!-- Node39&#45;&gt;Node45 -->
<g id="edge7" class="edge"><title>Node39&#45;&gt;Node45</title>
<path fill="none" stroke="midnightblue" d="M214.498,-94.17C228.529,-75.2582 253.457,-45.4239 281.876,-28.5 290.586,-23.3133 300.745,-19.5067 310.565,-16.7261"/>
<polygon fill="midnightblue" stroke="midnightblue" points="211.522,-92.3123 208.517,-102.472 217.202,-96.4037 211.522,-92.3123"/>
</g>
</g>
</svg>
