<?xml version="1.0" encoding="UTF-8" standalone="no"?>
<!DOCTYPE svg PUBLIC "-//W3C//DTD SVG 1.1//EN"
 "http://www.w3.org/Graphics/SVG/1.1/DTD/svg11.dtd">
<!-- Generated by graphviz version 2.38.0 (20140413.2041)
 -->
<!-- Title: picojson::value::swap Pages: 1 -->
<svg width="213pt" height="27pt"
 viewBox="0.00 0.00 213.29 27.00" xmlns="http://www.w3.org/2000/svg" xmlns:xlink="http://www.w3.org/1999/xlink">
<g id="graph0" class="graph" transform="scale(1 1) rotate(0) translate(4 23)">
<title>picojson::value::swap</title>
<!-- Node87 -->
<g id="node1" class="node"><title>Node87</title>
<polygon fill="#bfbfbf" stroke="black" points="0,-0.5 0,-18.5 111.054,-18.5 111.054,-0.5 0,-0.5"/>
<text text-anchor="middle" x="55.5269" y="-6.5" font-family="Helvetica,sans-Serif" font-size="10.00">picojson::value::swap</text>
</g>
<!-- Node88 -->
<g id="node2" class="node"><title>Node88</title>
<g id="a_node2"><a xlink:href="namespacestd.html#abb7e41c7063536ff6eeee4bb5f66de6c" target="_top" xlink:title="std::swap">
<polygon fill="none" stroke="black" points="147.054,-0.5 147.054,-18.5 205.295,-18.5 205.295,-0.5 147.054,-0.5"/>
<text text-anchor="middle" x="176.174" y="-6.5" font-family="Helvetica,sans-Serif" font-size="10.00">std::swap</text>
</a>
</g>
</g>
<!-- Node87&#45;&gt;Node88 -->
<g id="edge1" class="edge"><title>Node87&#45;&gt;Node88</title>
<path fill="none" stroke="midnightblue" d="M111.336,-2.76741C119.864,-2.70154 128.517,-2.82262 136.585,-3.13065"/>
<polygon fill="midnightblue" stroke="midnightblue" points="136.631,-6.63729 146.794,-3.64329 136.982,0.353898 136.631,-6.63729"/>
</g>
<!-- Node88&#45;&gt;Node87 -->
<g id="edge2" class="edge"><title>Node88&#45;&gt;Node87</title>
<path fill="none" stroke="midnightblue" d="M146.794,-15.3567C139.042,-15.8498 130.311,-16.1387 121.412,-16.2236"/>
<polygon fill="midnightblue" stroke="midnightblue" points="121.332,-12.7235 111.336,-16.2326 121.339,-19.7235 121.332,-12.7235"/>
</g>
</g>
</svg>
