<?xml version="1.0" encoding="UTF-8" standalone="no"?>
<!DOCTYPE svg PUBLIC "-//W3C//DTD SVG 1.1//EN"
 "http://www.w3.org/Graphics/SVG/1.1/DTD/svg11.dtd">
<!-- Generated by graphviz version 2.38.0 (20140413.2041)
 -->
<!-- Title: SceneParser::parseFile Pages: 1 -->
<svg width="353pt" height="64pt"
 viewBox="0.00 0.00 353.13 64.00" xmlns="http://www.w3.org/2000/svg" xmlns:xlink="http://www.w3.org/1999/xlink">
<g id="graph0" class="graph" transform="scale(1 1) rotate(0) translate(4 60)">
<title>SceneParser::parseFile</title>
<!-- Node0 -->
<g id="node1" class="node"><title>Node0</title>
<polygon fill="#bfbfbf" stroke="black" points="0,-18.5 0,-36.5 120.492,-36.5 120.492,-18.5 0,-18.5"/>
<text text-anchor="middle" x="60.2461" y="-24.5" font-family="Helvetica,sans-Serif" font-size="10.00">SceneParser::parseFile</text>
</g>
<!-- Node1 -->
<g id="node2" class="node"><title>Node1</title>
<g id="a_node2"><a xlink:href="_scene_parser_8cpp.html#a0a3abae35f7aec2cb39e7e1c7eba5ea0" target="_top" xlink:title="to_vec4">
<polygon fill="none" stroke="black" points="156.492,-37.5 156.492,-55.5 207.517,-55.5 207.517,-37.5 156.492,-37.5"/>
<text text-anchor="middle" x="182.004" y="-43.5" font-family="Helvetica,sans-Serif" font-size="10.00">to_vec4</text>
</a>
</g>
</g>
<!-- Node0&#45;&gt;Node1 -->
<g id="edge1" class="edge"><title>Node0&#45;&gt;Node1</title>
<path fill="none" stroke="midnightblue" d="M118.319,-36.5548C127.828,-38.0633 137.43,-39.5868 146.166,-40.9728"/>
<polygon fill="midnightblue" stroke="midnightblue" points="145.902,-44.4745 156.327,-42.5848 146.999,-37.561 145.902,-44.4745"/>
</g>
<!-- Node3 -->
<g id="node4" class="node"><title>Node3</title>
<g id="a_node4"><a xlink:href="_scene_parser_8cpp.html#aebf61d8c060020f4498f29f7ba6e85f5" target="_top" xlink:title="to_vec3">
<polygon fill="none" stroke="black" points="156.492,-0.5 156.492,-18.5 207.517,-18.5 207.517,-0.5 156.492,-0.5"/>
<text text-anchor="middle" x="182.004" y="-6.5" font-family="Helvetica,sans-Serif" font-size="10.00">to_vec3</text>
</a>
</g>
</g>
<!-- Node0&#45;&gt;Node3 -->
<g id="edge3" class="edge"><title>Node0&#45;&gt;Node3</title>
<path fill="none" stroke="midnightblue" d="M120.774,-18.5527C129.509,-17.2399 138.254,-15.9255 146.265,-14.7214"/>
<polygon fill="midnightblue" stroke="midnightblue" points="146.943,-18.1589 156.312,-13.2114 145.903,-11.2367 146.943,-18.1589"/>
</g>
<!-- Node2 -->
<g id="node3" class="node"><title>Node2</title>
<g id="a_node3"><a xlink:href="classpicojson_1_1value.html#a6a1099de1eb4f070445dc3eadb843a92" target="_top" xlink:title="picojson::value::get">
<polygon fill="none" stroke="black" points="243.517,-18.5 243.517,-36.5 345.127,-36.5 345.127,-18.5 243.517,-18.5"/>
<text text-anchor="middle" x="294.322" y="-24.5" font-family="Helvetica,sans-Serif" font-size="10.00">picojson::value::get</text>
</a>
</g>
</g>
<!-- Node1&#45;&gt;Node2 -->
<g id="edge2" class="edge"><title>Node1&#45;&gt;Node2</title>
<path fill="none" stroke="midnightblue" d="M207.762,-42.236C215.506,-40.9022 224.413,-39.3682 233.49,-37.8049"/>
<polygon fill="midnightblue" stroke="midnightblue" points="234.098,-41.2517 243.359,-36.1051 232.91,-34.3533 234.098,-41.2517"/>
</g>
<!-- Node3&#45;&gt;Node2 -->
<g id="edge4" class="edge"><title>Node3&#45;&gt;Node2</title>
<path fill="none" stroke="midnightblue" d="M207.762,-13.5396C215.424,-14.7897 224.223,-16.2255 233.2,-17.6902"/>
<polygon fill="midnightblue" stroke="midnightblue" points="232.926,-21.1917 243.359,-19.3478 234.053,-14.283 232.926,-21.1917"/>
</g>
</g>
</svg>
