<?xml version="1.0" encoding="UTF-8" standalone="no"?>
<!DOCTYPE svg PUBLIC "-//W3C//DTD SVG 1.1//EN"
 "http://www.w3.org/Graphics/SVG/1.1/DTD/svg11.dtd">
<!-- Generated by graphviz version 2.38.0 (20140413.2041)
 -->
<!-- Title: Scriptable Pages: 1 -->
<svg width="128pt" height="446pt"
 viewBox="0.00 0.00 128.42 446.00" xmlns="http://www.w3.org/2000/svg" xmlns:xlink="http://www.w3.org/1999/xlink">
<g id="graph0" class="graph" transform="scale(1 1) rotate(0) translate(4 442)">
<title>Scriptable</title>
<!-- Node3 -->
<g id="node1" class="node"><title>Node3</title>
<polygon fill="#bfbfbf" stroke="black" points="5.00488,-0.5 5.00488,-164.5 111.317,-164.5 111.317,-0.5 5.00488,-0.5"/>
<text text-anchor="middle" x="58.1611" y="-152.5" font-family="Helvetica,sans-Serif" font-size="10.00">Scriptable</text>
<polyline fill="none" stroke="black" points="5.00488,-146.5 111.317,-146.5 "/>
<text text-anchor="middle" x="58.1611" y="-134.5" font-family="Helvetica,sans-Serif" font-size="10.00"> </text>
<polyline fill="none" stroke="black" points="5.00488,-128.5 111.317,-128.5 "/>
<text text-anchor="start" x="13.0049" y="-116.5" font-family="Helvetica,sans-Serif" font-size="10.00">+ Awake()</text>
<text text-anchor="start" x="13.0049" y="-106.5" font-family="Helvetica,sans-Serif" font-size="10.00">+ Update()</text>
<text text-anchor="start" x="13.0049" y="-96.5" font-family="Helvetica,sans-Serif" font-size="10.00">+ Start()</text>
<text text-anchor="start" x="13.0049" y="-86.5" font-family="Helvetica,sans-Serif" font-size="10.00">+ OnCollisionEnter()</text>
<text text-anchor="start" x="13.0049" y="-76.5" font-family="Helvetica,sans-Serif" font-size="10.00">+ OnCollisionExit()</text>
<text text-anchor="start" x="13.0049" y="-66.5" font-family="Helvetica,sans-Serif" font-size="10.00">+ Awake()</text>
<text text-anchor="start" x="13.0049" y="-56.5" font-family="Helvetica,sans-Serif" font-size="10.00">+ Update()</text>
<text text-anchor="start" x="13.0049" y="-46.5" font-family="Helvetica,sans-Serif" font-size="10.00">+ Start()</text>
<text text-anchor="start" x="13.0049" y="-36.5" font-family="Helvetica,sans-Serif" font-size="10.00">+ OnCollisionEnter()</text>
<text text-anchor="start" x="13.0049" y="-26.5" font-family="Helvetica,sans-Serif" font-size="10.00">+ OnCollisionExit()</text>
<text text-anchor="start" x="13.0049" y="-16.5" font-family="Helvetica,sans-Serif" font-size="10.00"># Scriptable()</text>
<text text-anchor="start" x="13.0049" y="-6.5" font-family="Helvetica,sans-Serif" font-size="10.00"># Scriptable()</text>
</g>
<!-- Node4 -->
<g id="node2" class="node"><title>Node4</title>
<g id="a_node2"><a xlink:href="class_component.html" target="_top" xlink:title="{Component\n|# name\l|+ ~Component()\l+ getGameObject()\l+ getName()\l# Component()\l}">
<polygon fill="none" stroke="black" points="7.50488,-202.5 7.50488,-286.5 108.817,-286.5 108.817,-202.5 7.50488,-202.5"/>
<text text-anchor="middle" x="58.1611" y="-274.5" font-family="Helvetica,sans-Serif" font-size="10.00">Component</text>
<polyline fill="none" stroke="black" points="7.50488,-268.5 108.817,-268.5 "/>
<text text-anchor="start" x="15.5049" y="-256.5" font-family="Helvetica,sans-Serif" font-size="10.00"># name</text>
<polyline fill="none" stroke="black" points="7.50488,-250.5 108.817,-250.5 "/>
<text text-anchor="start" x="15.5049" y="-238.5" font-family="Helvetica,sans-Serif" font-size="10.00">+ ~Component()</text>
<text text-anchor="start" x="15.5049" y="-228.5" font-family="Helvetica,sans-Serif" font-size="10.00">+ getGameObject()</text>
<text text-anchor="start" x="15.5049" y="-218.5" font-family="Helvetica,sans-Serif" font-size="10.00">+ getName()</text>
<text text-anchor="start" x="15.5049" y="-208.5" font-family="Helvetica,sans-Serif" font-size="10.00"># Component()</text>
</a>
</g>
</g>
<!-- Node4&#45;&gt;Node3 -->
<g id="edge1" class="edge"><title>Node4&#45;&gt;Node3</title>
<path fill="none" stroke="midnightblue" d="M51.8137,-192.222C51.5561,-183.404 51.4221,-174.05 51.4118,-164.674"/>
<polygon fill="none" stroke="midnightblue" points="48.3187,-192.427 52.1729,-202.296 55.3142,-192.178 48.3187,-192.427"/>
</g>
<!-- Node4&#45;&gt;Node3 -->
<g id="edge3" class="edge"><title>Node4&#45;&gt;Node3</title>
<path fill="none" stroke="midnightblue" d="M64.5086,-192.222C64.7662,-183.404 64.9002,-174.05 64.9105,-164.674"/>
<polygon fill="none" stroke="midnightblue" points="61.008,-192.178 64.1494,-202.296 68.0036,-192.427 61.008,-192.178"/>
</g>
<!-- Node5 -->
<g id="node3" class="node"><title>Node5</title>
<g id="a_node3"><a xlink:href="class_game_object.html" target="_top" xlink:title="{GameObject\n||+ ~GameObject()\l+ getName()\l+ addComponent()\l+ removeComponent()\l+ getComponent()\l+ getComponents()\l}">
<polygon fill="none" stroke="black" points="0,-333.5 0,-437.5 116.322,-437.5 116.322,-333.5 0,-333.5"/>
<text text-anchor="middle" x="58.1611" y="-425.5" font-family="Helvetica,sans-Serif" font-size="10.00">GameObject</text>
<polyline fill="none" stroke="black" points="0,-419.5 116.322,-419.5 "/>
<text text-anchor="middle" x="58.1611" y="-407.5" font-family="Helvetica,sans-Serif" font-size="10.00"> </text>
<polyline fill="none" stroke="black" points="0,-401.5 116.322,-401.5 "/>
<text text-anchor="start" x="8" y="-389.5" font-family="Helvetica,sans-Serif" font-size="10.00">+ ~GameObject()</text>
<text text-anchor="start" x="8" y="-379.5" font-family="Helvetica,sans-Serif" font-size="10.00">+ getName()</text>
<text text-anchor="start" x="8" y="-369.5" font-family="Helvetica,sans-Serif" font-size="10.00">+ addComponent()</text>
<text text-anchor="start" x="8" y="-359.5" font-family="Helvetica,sans-Serif" font-size="10.00">+ removeComponent()</text>
<text text-anchor="start" x="8" y="-349.5" font-family="Helvetica,sans-Serif" font-size="10.00">+ getComponent()</text>
<text text-anchor="start" x="8" y="-339.5" font-family="Helvetica,sans-Serif" font-size="10.00">+ getComponents()</text>
</a>
</g>
</g>
<!-- Node5&#45;&gt;Node4 -->
<g id="edge2" class="edge"><title>Node5&#45;&gt;Node4</title>
<path fill="none" stroke="#404040" d="M58.1611,-333.136C58.1611,-322.011 58.1611,-310.219 58.1611,-299.013"/>
<polygon fill="none" stroke="#404040" points="58.1612,-298.677 54.1612,-292.677 58.1611,-286.677 62.1612,-292.677 58.1612,-298.677"/>
<text text-anchor="middle" x="89.2891" y="-307" font-family="Helvetica,sans-Serif" font-size="10.00"> #gameObject</text>
</g>
</g>
</svg>
