<?xml version="1.0" encoding="UTF-8" standalone="no"?>
<!DOCTYPE svg PUBLIC "-//W3C//DTD SVG 1.1//EN"
 "http://www.w3.org/Graphics/SVG/1.1/DTD/svg11.dtd">
<!-- Generated by graphviz version 2.38.0 (20140413.2041)
 -->
<!-- Title: picojson::default_parse_context::parse_array_item Pages: 1 -->
<svg width="1099pt" height="322pt"
 viewBox="0.00 0.00 1098.71 321.50" xmlns="http://www.w3.org/2000/svg" xmlns:xlink="http://www.w3.org/1999/xlink">
<g id="graph0" class="graph" transform="scale(1 1) rotate(0) translate(4 317.5)">
<title>picojson::default_parse_context::parse_array_item</title>
<!-- Node2 -->
<g id="node1" class="node"><title>Node2</title>
<polygon fill="#bfbfbf" stroke="black" points="0,-193 0,-221 137.172,-221 137.172,-193 0,-193"/>
<text text-anchor="start" x="8" y="-209" font-family="Helvetica,sans-Serif" font-size="10.00">picojson::default_parse</text>
<text text-anchor="middle" x="68.5859" y="-199" font-family="Helvetica,sans-Serif" font-size="10.00">_context::parse_array_item</text>
</g>
<!-- Node3 -->
<g id="node2" class="node"><title>Node3</title>
<g id="a_node2"><a xlink:href="classpicojson_1_1value.html#a6a1099de1eb4f070445dc3eadb843a92" target="_top" xlink:title="picojson::value::get">
<polygon fill="none" stroke="black" points="178.174,-235 178.174,-253 279.785,-253 279.785,-235 178.174,-235"/>
<text text-anchor="middle" x="228.979" y="-241" font-family="Helvetica,sans-Serif" font-size="10.00">picojson::value::get</text>
</a>
</g>
</g>
<!-- Node2&#45;&gt;Node3 -->
<g id="edge1" class="edge"><title>Node2&#45;&gt;Node3</title>
<path fill="none" stroke="midnightblue" d="M129.92,-221.094C146.271,-224.913 163.761,-228.999 179.377,-232.647"/>
<polygon fill="midnightblue" stroke="midnightblue" points="178.803,-236.107 189.337,-234.973 180.395,-229.29 178.803,-236.107"/>
</g>
<!-- Node4 -->
<g id="node3" class="node"><title>Node4</title>
<g id="a_node3"><a xlink:href="classpicojson_1_1value.html#a445f8d1b335e7bcad6abd6c310b44c75" target="_top" xlink:title="picojson::value::value">
<polygon fill="none" stroke="black" points="173.172,-198 173.172,-216 284.787,-216 284.787,-198 173.172,-198"/>
<text text-anchor="middle" x="228.979" y="-204" font-family="Helvetica,sans-Serif" font-size="10.00">picojson::value::value</text>
</a>
</g>
</g>
<!-- Node2&#45;&gt;Node4 -->
<g id="edge2" class="edge"><title>Node2&#45;&gt;Node4</title>
<path fill="none" stroke="midnightblue" d="M137.219,-207C145.707,-207 154.377,-207 162.826,-207"/>
<polygon fill="midnightblue" stroke="midnightblue" points="162.996,-210.5 172.996,-207 162.996,-203.5 162.996,-210.5"/>
</g>
<!-- Node5 -->
<g id="node4" class="node"><title>Node5</title>
<g id="a_node4"><a xlink:href="namespacepicojson.html#aed024a6a1c8d8982a38c4a7fcefde221" target="_top" xlink:title="picojson::_parse">
<polygon fill="none" stroke="black" points="184.568,-161 184.568,-179 273.391,-179 273.391,-161 184.568,-161"/>
<text text-anchor="middle" x="228.979" y="-167" font-family="Helvetica,sans-Serif" font-size="10.00">picojson::_parse</text>
</a>
</g>
</g>
<!-- Node2&#45;&gt;Node5 -->
<g id="edge3" class="edge"><title>Node2&#45;&gt;Node5</title>
<path fill="none" stroke="midnightblue" d="M129.92,-192.906C146.271,-189.087 163.761,-185.001 179.377,-181.353"/>
<polygon fill="midnightblue" stroke="midnightblue" points="180.395,-184.71 189.337,-179.027 178.803,-177.893 180.395,-184.71"/>
</g>
<!-- Node6 -->
<g id="node5" class="node"><title>Node6</title>
<g id="a_node5"><a xlink:href="classpicojson_1_1input.html#aa83aefe87374a5e24ab8c8e80fef4aa4" target="_top" xlink:title="picojson::input::skip_ws">
<polygon fill="none" stroke="black" points="320.794,-295 320.794,-313 441.848,-313 441.848,-295 320.794,-295"/>
<text text-anchor="middle" x="381.321" y="-301" font-family="Helvetica,sans-Serif" font-size="10.00">picojson::input::skip_ws</text>
</a>
</g>
</g>
<!-- Node5&#45;&gt;Node6 -->
<g id="edge4" class="edge"><title>Node5&#45;&gt;Node6</title>
<path fill="none" stroke="midnightblue" d="M271.438,-179.124C276.322,-181.444 280.931,-184.353 284.787,-188 316.687,-218.172 289.899,-248.794 320.787,-280 324.956,-284.211 329.961,-287.709 335.275,-290.607"/>
<polygon fill="midnightblue" stroke="midnightblue" points="333.883,-293.82 344.418,-294.939 336.88,-287.494 333.883,-293.82"/>
</g>
<!-- Node7 -->
<g id="node6" class="node"><title>Node7</title>
<g id="a_node6"><a xlink:href="classpicojson_1_1input.html#a3e8ba0b09a989efa0dc583096984ea8e" target="_top" xlink:title="picojson::input::getc">
<polygon fill="none" stroke="black" points="980.76,-181 980.76,-199 1085.15,-199 1085.15,-181 980.76,-181"/>
<text text-anchor="middle" x="1032.95" y="-187" font-family="Helvetica,sans-Serif" font-size="10.00">picojson::input::getc</text>
</a>
</g>
</g>
<!-- Node5&#45;&gt;Node7 -->
<g id="edge5" class="edge"><title>Node5&#45;&gt;Node7</title>
<path fill="none" stroke="midnightblue" d="M260.47,-179.006C268.48,-181.644 277.043,-184.712 284.787,-188 301.44,-195.07 303.962,-200.349 320.787,-207 413.131,-243.502 436.977,-266 536.274,-266 536.274,-266 536.274,-266 702.569,-266 814.079,-266 941.514,-224.133 999.805,-202.547"/>
<polygon fill="midnightblue" stroke="midnightblue" points="1001.08,-205.808 1009.21,-199.017 998.618,-199.254 1001.08,-205.808"/>
</g>
<!-- Node8 -->
<g id="node7" class="node"><title>Node8</title>
<g id="a_node7"><a xlink:href="namespacepicojson.html#adcae039b132c6c96d2b2d9e786a04a88" target="_top" xlink:title="picojson::_parse_array">
<polygon fill="none" stroke="black" points="322.738,-180 322.738,-198 439.905,-198 439.905,-180 322.738,-180"/>
<text text-anchor="middle" x="381.321" y="-186" font-family="Helvetica,sans-Serif" font-size="10.00">picojson::_parse_array</text>
</a>
</g>
</g>
<!-- Node5&#45;&gt;Node8 -->
<g id="edge6" class="edge"><title>Node5&#45;&gt;Node8</title>
<path fill="none" stroke="midnightblue" d="M273.465,-175.496C285.696,-177.041 299.298,-178.76 312.587,-180.44"/>
<polygon fill="midnightblue" stroke="midnightblue" points="312.3,-183.931 322.66,-181.713 313.178,-176.987 312.3,-183.931"/>
</g>
<!-- Node10 -->
<g id="node9" class="node"><title>Node10</title>
<g id="a_node9"><a xlink:href="namespacepicojson.html#a480ed5e3461568672197a42e259a44c9" target="_top" xlink:title="picojson::_parse_object">
<polygon fill="none" stroke="black" points="320.787,-143 320.787,-161 441.855,-161 441.855,-143 320.787,-143"/>
<text text-anchor="middle" x="381.321" y="-149" font-family="Helvetica,sans-Serif" font-size="10.00">picojson::_parse_object</text>
</a>
</g>
</g>
<!-- Node5&#45;&gt;Node10 -->
<g id="edge8" class="edge"><title>Node5&#45;&gt;Node10</title>
<path fill="none" stroke="midnightblue" d="M273.465,-164.794C285.098,-163.401 297.97,-161.86 310.633,-160.344"/>
<polygon fill="midnightblue" stroke="midnightblue" points="311.204,-163.8 320.717,-159.136 310.371,-156.85 311.204,-163.8"/>
</g>
<!-- Node12 -->
<g id="node11" class="node"><title>Node12</title>
<g id="a_node11"><a xlink:href="classpicojson_1_1input.html#a96ccc244e73b2ab87ded38c98e98d573" target="_top" xlink:title="picojson::input::ungetc">
<polygon fill="none" stroke="black" points="975.198,-67 975.198,-85 1090.71,-85 1090.71,-67 975.198,-67"/>
<text text-anchor="middle" x="1032.95" y="-73" font-family="Helvetica,sans-Serif" font-size="10.00">picojson::input::ungetc</text>
</a>
</g>
</g>
<!-- Node5&#45;&gt;Node12 -->
<g id="edge19" class="edge"><title>Node5&#45;&gt;Node12</title>
<path fill="none" stroke="midnightblue" d="M238.509,-160.86C272.437,-125.549 402.475,-0 536.274,-0 536.274,-0 536.274,-0 702.569,-0 814.079,-0 941.514,-41.8675 999.805,-63.4528"/>
<polygon fill="midnightblue" stroke="midnightblue" points="998.618,-66.7459 1009.21,-66.9834 1001.08,-60.1924 998.618,-66.7459"/>
</g>
<!-- Node15 -->
<g id="node14" class="node"><title>Node15</title>
<g id="a_node14"><a xlink:href="namespacepicojson.html#a771defe1d981b7091c2156bf4720625c" target="_top" xlink:title="picojson::_parse_number">
<polygon fill="none" stroke="black" points="808.677,-67 808.677,-85 936.967,-85 936.967,-67 808.677,-67"/>
<text text-anchor="middle" x="872.822" y="-73" font-family="Helvetica,sans-Serif" font-size="10.00">picojson::_parse_number</text>
</a>
</g>
</g>
<!-- Node5&#45;&gt;Node15 -->
<g id="edge20" class="edge"><title>Node5&#45;&gt;Node15</title>
<path fill="none" stroke="midnightblue" d="M247.901,-160.917C265.858,-152.248 294.528,-139.565 320.787,-133 488.232,-91.1358 691.706,-79.9554 798.409,-77.0122"/>
<polygon fill="midnightblue" stroke="midnightblue" points="798.522,-80.5105 808.428,-76.7523 798.341,-73.5129 798.522,-80.5105"/>
</g>
<!-- Node9 -->
<g id="node8" class="node"><title>Node9</title>
<g id="a_node8"><a xlink:href="classpicojson_1_1input.html#a14c29e99d9c9aa8cdbb46178c434d663" target="_top" xlink:title="picojson::input::expect">
<polygon fill="none" stroke="black" points="479.799,-180 479.799,-198 594.749,-198 594.749,-180 479.799,-180"/>
<text text-anchor="middle" x="537.274" y="-186" font-family="Helvetica,sans-Serif" font-size="10.00">picojson::input::expect</text>
</a>
</g>
</g>
<!-- Node8&#45;&gt;Node9 -->
<g id="edge7" class="edge"><title>Node8&#45;&gt;Node9</title>
<path fill="none" stroke="midnightblue" d="M440.086,-189C449.711,-189 459.764,-189 469.59,-189"/>
<polygon fill="midnightblue" stroke="midnightblue" points="469.72,-192.5 479.72,-189 469.719,-185.5 469.72,-192.5"/>
</g>
<!-- Node10&#45;&gt;Node9 -->
<g id="edge9" class="edge"><title>Node10&#45;&gt;Node9</title>
<path fill="none" stroke="midnightblue" d="M419.982,-161.051C440.748,-166.042 466.732,-172.287 488.868,-177.607"/>
<polygon fill="midnightblue" stroke="midnightblue" points="488.194,-181.044 498.735,-179.978 489.83,-174.238 488.194,-181.044"/>
</g>
<!-- Node11 -->
<g id="node10" class="node"><title>Node11</title>
<g id="a_node10"><a xlink:href="namespacepicojson.html#a9a1d94feb2718129796225d77c9e8d11" target="_top" xlink:title="picojson::_parse_string">
<polygon fill="none" stroke="black" points="477.855,-143 477.855,-161 596.692,-161 596.692,-143 477.855,-143"/>
<text text-anchor="middle" x="537.274" y="-149" font-family="Helvetica,sans-Serif" font-size="10.00">picojson::_parse_string</text>
</a>
</g>
</g>
<!-- Node10&#45;&gt;Node11 -->
<g id="edge10" class="edge"><title>Node10&#45;&gt;Node11</title>
<path fill="none" stroke="midnightblue" d="M442.284,-152C450.567,-152 459.127,-152 467.554,-152"/>
<polygon fill="midnightblue" stroke="midnightblue" points="467.738,-155.5 477.738,-152 467.738,-148.5 467.738,-155.5"/>
</g>
<!-- Node11&#45;&gt;Node7 -->
<g id="edge11" class="edge"><title>Node11&#45;&gt;Node7</title>
<path fill="none" stroke="midnightblue" d="M582.358,-161.048C598.189,-164.127 616.203,-167.435 632.692,-170 709.553,-181.957 728.8,-186.325 806.445,-191 865.34,-194.546 880.198,-191.318 939.198,-191 949.223,-190.946 959.857,-190.859 970.211,-190.759"/>
<polygon fill="midnightblue" stroke="midnightblue" points="970.476,-194.256 980.439,-190.654 970.404,-187.256 970.476,-194.256"/>
</g>
<!-- Node11&#45;&gt;Node12 -->
<g id="edge12" class="edge"><title>Node11&#45;&gt;Node12</title>
<path fill="none" stroke="midnightblue" d="M556.86,-142.906C599.628,-122.548 708.845,-73.7768 806.445,-57 864.594,-47.0047 880.498,-51.0497 939.198,-57 954.745,-58.5759 971.536,-61.6014 986.503,-64.7825"/>
<polygon fill="midnightblue" stroke="midnightblue" points="986.017,-68.2593 996.536,-66.9939 987.523,-61.4234 986.017,-68.2593"/>
</g>
<!-- Node13 -->
<g id="node12" class="node"><title>Node13</title>
<g id="a_node12"><a xlink:href="namespacepicojson.html#a05316c2614f3e7a4559ce1d1003eb051" target="_top" xlink:title="picojson::_parse_codepoint">
<polygon fill="none" stroke="black" points="632.692,-143 632.692,-161 770.445,-161 770.445,-143 632.692,-143"/>
<text text-anchor="middle" x="701.569" y="-149" font-family="Helvetica,sans-Serif" font-size="10.00">picojson::_parse_codepoint</text>
</a>
</g>
</g>
<!-- Node11&#45;&gt;Node13 -->
<g id="edge13" class="edge"><title>Node11&#45;&gt;Node13</title>
<path fill="none" stroke="midnightblue" d="M596.866,-152C605.219,-152 613.919,-152 622.571,-152"/>
<polygon fill="midnightblue" stroke="midnightblue" points="622.682,-155.5 632.682,-152 622.682,-148.5 622.682,-155.5"/>
</g>
<!-- Node13&#45;&gt;Node7 -->
<g id="edge17" class="edge"><title>Node13&#45;&gt;Node7</title>
<path fill="none" stroke="midnightblue" d="M749.758,-161.03C767.485,-164.197 787.843,-167.568 806.445,-170 861.7,-177.225 924.919,-182.581 970.334,-185.923"/>
<polygon fill="midnightblue" stroke="midnightblue" points="970.095,-189.415 980.321,-186.647 970.601,-182.433 970.095,-189.415"/>
</g>
<!-- Node13&#45;&gt;Node12 -->
<g id="edge18" class="edge"><title>Node13&#45;&gt;Node12</title>
<path fill="none" stroke="midnightblue" d="M741.647,-142.983C801.821,-129.099 917.077,-102.506 982.817,-87.3376"/>
<polygon fill="midnightblue" stroke="midnightblue" points="983.97,-90.6636 992.927,-85.0049 982.396,-83.8428 983.97,-90.6636"/>
</g>
<!-- Node14 -->
<g id="node13" class="node"><title>Node14</title>
<g id="a_node13"><a xlink:href="namespacepicojson.html#a92d4f60542bbdfe8203f10e1fcce9368" target="_top" xlink:title="picojson::_parse_quadhex">
<polygon fill="none" stroke="black" points="806.445,-143 806.445,-161 939.198,-161 939.198,-143 806.445,-143"/>
<text text-anchor="middle" x="872.822" y="-149" font-family="Helvetica,sans-Serif" font-size="10.00">picojson::_parse_quadhex</text>
</a>
</g>
</g>
<!-- Node13&#45;&gt;Node14 -->
<g id="edge14" class="edge"><title>Node13&#45;&gt;Node14</title>
<path fill="none" stroke="midnightblue" d="M770.923,-152C779.206,-152 787.706,-152 796.088,-152"/>
<polygon fill="midnightblue" stroke="midnightblue" points="796.232,-155.5 806.232,-152 796.232,-148.5 796.232,-155.5"/>
</g>
<!-- Node14&#45;&gt;Node7 -->
<g id="edge15" class="edge"><title>Node14&#45;&gt;Node7</title>
<path fill="none" stroke="midnightblue" d="M911.297,-161.005C933.274,-166.287 961.243,-173.008 984.719,-178.649"/>
<polygon fill="midnightblue" stroke="midnightblue" points="983.933,-182.06 994.474,-180.993 985.569,-175.254 983.933,-182.06"/>
</g>
<!-- Node14&#45;&gt;Node12 -->
<g id="edge16" class="edge"><title>Node14&#45;&gt;Node12</title>
<path fill="none" stroke="midnightblue" d="M901.571,-142.912C913.347,-138.774 927.117,-133.561 939.198,-128 963.73,-116.708 990.513,-101.341 1008.96,-90.2443"/>
<polygon fill="midnightblue" stroke="midnightblue" points="1010.82,-93.21 1017.55,-85.0256 1007.19,-87.228 1010.82,-93.21"/>
</g>
<!-- Node15&#45;&gt;Node7 -->
<g id="edge21" class="edge"><title>Node15&#45;&gt;Node7</title>
<path fill="none" stroke="midnightblue" d="M886.495,-85.1364C913.675,-104.731 977.797,-150.957 1011.08,-174.954"/>
<polygon fill="midnightblue" stroke="midnightblue" points="1009.06,-177.811 1019.22,-180.82 1013.16,-172.133 1009.06,-177.811"/>
</g>
<!-- Node15&#45;&gt;Node12 -->
<g id="edge22" class="edge"><title>Node15&#45;&gt;Node12</title>
<path fill="none" stroke="midnightblue" d="M937.229,-76C946.344,-76 955.748,-76 964.93,-76"/>
<polygon fill="midnightblue" stroke="midnightblue" points="965.175,-79.5001 975.175,-76 965.175,-72.5001 965.175,-79.5001"/>
</g>
</g>
</svg>
