<?xml version="1.0" encoding="UTF-8" standalone="no"?>
<!DOCTYPE svg PUBLIC "-//W3C//DTD SVG 1.1//EN"
 "http://www.w3.org/Graphics/SVG/1.1/DTD/svg11.dtd">
<!-- Generated by graphviz version 2.38.0 (20140413.2041)
 -->
<!-- Title: AudioSource::update Pages: 1 -->
<svg width="297pt" height="64pt"
 viewBox="0.00 0.00 296.69 64.00" xmlns="http://www.w3.org/2000/svg" xmlns:xlink="http://www.w3.org/1999/xlink">
<g id="graph0" class="graph" transform="scale(1 1) rotate(0) translate(4 60)">
<title>AudioSource::update</title>
<!-- Node41 -->
<g id="node1" class="node"><title>Node41</title>
<polygon fill="#bfbfbf" stroke="black" points="0,-18.5 0,-36.5 109.403,-36.5 109.403,-18.5 0,-18.5"/>
<text text-anchor="middle" x="54.7017" y="-24.5" font-family="Helvetica,sans-Serif" font-size="10.00">AudioSource::update</text>
</g>
<!-- Node42 -->
<g id="node2" class="node"><title>Node42</title>
<g id="a_node2"><a xlink:href="class_game_object.html#aa84b88e86847087180fba0270a0d63ff" target="_top" xlink:title="GameObject::getComponent">
<polygon fill="none" stroke="black" points="145.403,-37.5 145.403,-55.5 288.693,-55.5 288.693,-37.5 145.403,-37.5"/>
<text text-anchor="middle" x="217.048" y="-43.5" font-family="Helvetica,sans-Serif" font-size="10.00">GameObject::getComponent</text>
</a>
</g>
</g>
<!-- Node41&#45;&gt;Node42 -->
<g id="edge1" class="edge"><title>Node41&#45;&gt;Node42</title>
<path fill="none" stroke="midnightblue" d="M109.541,-33.8796C117.78,-34.8559 126.437,-35.8817 135.106,-36.9089"/>
<polygon fill="midnightblue" stroke="midnightblue" points="134.922,-40.4114 145.264,-38.1125 135.745,-33.4601 134.922,-40.4114"/>
</g>
<!-- Node43 -->
<g id="node3" class="node"><title>Node43</title>
<g id="a_node3"><a xlink:href="class_audio_source.html#ae6fac3df9beba8f9a8c404f3cb5d59f3" target="_top" xlink:title="AudioSource::Instance">
<polygon fill="none" stroke="black" points="158.738,-0.5 158.738,-18.5 275.358,-18.5 275.358,-0.5 158.738,-0.5"/>
<text text-anchor="middle" x="217.048" y="-6.5" font-family="Helvetica,sans-Serif" font-size="10.00">AudioSource::Instance</text>
</a>
</g>
</g>
<!-- Node41&#45;&gt;Node43 -->
<g id="edge2" class="edge"><title>Node41&#45;&gt;Node43</title>
<path fill="none" stroke="midnightblue" d="M109.541,-21.4562C121.96,-20.062 135.329,-18.5613 148.257,-17.1101"/>
<polygon fill="midnightblue" stroke="midnightblue" points="148.957,-20.5536 158.504,-15.9598 148.176,-13.5973 148.957,-20.5536"/>
</g>
</g>
</svg>
