<?xml version="1.0" encoding="UTF-8" standalone="no"?>
<!DOCTYPE svg PUBLIC "-//W3C//DTD SVG 1.1//EN"
 "http://www.w3.org/Graphics/SVG/1.1/DTD/svg11.dtd">
<!-- Generated by graphviz version 2.38.0 (20140413.2041)
 -->
<!-- Title: Transform::globalTransform Pages: 1 -->
<svg width="315pt" height="45pt"
 viewBox="0.00 0.00 315.15 45.00" xmlns="http://www.w3.org/2000/svg" xmlns:xlink="http://www.w3.org/1999/xlink">
<g id="graph0" class="graph" transform="scale(1 1) rotate(0) translate(4 41)">
<title>Transform::globalTransform</title>
<!-- Node2 -->
<g id="node1" class="node"><title>Node2</title>
<polygon fill="#bfbfbf" stroke="black" points="0,-0.5 0,-18.5 138.637,-18.5 138.637,-0.5 0,-0.5"/>
<text text-anchor="middle" x="69.3184" y="-6.5" font-family="Helvetica,sans-Serif" font-size="10.00">Transform::globalTransform</text>
</g>
<!-- Node2&#45;&gt;Node2 -->
<g id="edge1" class="edge"><title>Node2&#45;&gt;Node2</title>
<path fill="none" stroke="midnightblue" d="M43.988,-18.5134C29.996,-27.322 38.4395,-37 69.3184,-37 91.0301,-37 101.65,-32.2153 101.178,-26.3125"/>
<polygon fill="midnightblue" stroke="midnightblue" points="103.752,-23.9341 94.6487,-18.5134 98.3846,-28.4278 103.752,-23.9341"/>
</g>
<!-- Node3 -->
<g id="node2" class="node"><title>Node3</title>
<g id="a_node2"><a xlink:href="class_transform.html#a8b85abc03488f58bef8bb78df77c1689" target="_top" xlink:title="Transform::localTransform">
<polygon fill="none" stroke="black" points="174.637,-0.5 174.637,-18.5 307.15,-18.5 307.15,-0.5 174.637,-0.5"/>
<text text-anchor="middle" x="240.894" y="-6.5" font-family="Helvetica,sans-Serif" font-size="10.00">Transform::localTransform</text>
</a>
</g>
</g>
<!-- Node2&#45;&gt;Node3 -->
<g id="edge2" class="edge"><title>Node2&#45;&gt;Node3</title>
<path fill="none" stroke="midnightblue" d="M138.802,-9.5C147.167,-9.5 155.752,-9.5 164.214,-9.5"/>
<polygon fill="midnightblue" stroke="midnightblue" points="164.453,-13.0001 174.453,-9.5 164.453,-6.0001 164.453,-13.0001"/>
</g>
</g>
</svg>
