<?xml version="1.0" encoding="UTF-8" standalone="no"?>
<!DOCTYPE svg PUBLIC "-//W3C//DTD SVG 1.1//EN"
 "http://www.w3.org/Graphics/SVG/1.1/DTD/svg11.dtd">
<!-- Generated by graphviz version 2.38.0 (20140413.2041)
 -->
<!-- Title: picojson::value::serialize Pages: 1 -->
<svg width="281pt" height="101pt"
 viewBox="0.00 0.00 281.11 101.00" xmlns="http://www.w3.org/2000/svg" xmlns:xlink="http://www.w3.org/1999/xlink">
<g id="graph0" class="graph" transform="scale(1 1) rotate(0) translate(4 97)">
<title>picojson::value::serialize</title>
<!-- Node80 -->
<g id="node1" class="node"><title>Node80</title>
<polygon fill="#bfbfbf" stroke="black" points="0,-37.5 0,-55.5 124.389,-55.5 124.389,-37.5 0,-37.5"/>
<text text-anchor="middle" x="62.1943" y="-43.5" font-family="Helvetica,sans-Serif" font-size="10.00">picojson::value::serialize</text>
</g>
<!-- Node81 -->
<g id="node2" class="node"><title>Node81</title>
<g id="a_node2"><a xlink:href="namespacepicojson.html#a11130e017d868857aeb016f5e3d29008" target="_top" xlink:title="picojson::serialize_str">
<polygon fill="none" stroke="black" points="160.95,-74.5 160.95,-92.5 272.546,-92.5 272.546,-74.5 160.95,-74.5"/>
<text text-anchor="middle" x="216.748" y="-80.5" font-family="Helvetica,sans-Serif" font-size="10.00">picojson::serialize_str</text>
</a>
</g>
</g>
<!-- Node80&#45;&gt;Node81 -->
<g id="edge1" class="edge"><title>Node80&#45;&gt;Node81</title>
<path fill="none" stroke="midnightblue" d="M100.513,-55.5512C121.09,-60.5419 146.838,-66.7866 168.773,-72.1067"/>
<polygon fill="midnightblue" stroke="midnightblue" points="168.007,-75.5224 178.55,-74.4782 169.657,-68.7197 168.007,-75.5224"/>
</g>
<!-- Node82 -->
<g id="node3" class="node"><title>Node82</title>
<g id="a_node3"><a xlink:href="namespacepicojson.html#abc2111aa71797805957a4296fdf9c66d" target="_top" xlink:title="picojson::copy">
<polygon fill="none" stroke="black" points="177.063,-37.5 177.063,-55.5 256.433,-55.5 256.433,-37.5 177.063,-37.5"/>
<text text-anchor="middle" x="216.748" y="-43.5" font-family="Helvetica,sans-Serif" font-size="10.00">picojson::copy</text>
</a>
</g>
</g>
<!-- Node80&#45;&gt;Node82 -->
<g id="edge2" class="edge"><title>Node80&#45;&gt;Node82</title>
<path fill="none" stroke="midnightblue" d="M124.804,-46.5C138.637,-46.5 153.139,-46.5 166.396,-46.5"/>
<polygon fill="midnightblue" stroke="midnightblue" points="166.725,-50.0001 176.725,-46.5 166.725,-43.0001 166.725,-50.0001"/>
</g>
<!-- Node83 -->
<g id="node4" class="node"><title>Node83</title>
<g id="a_node4"><a xlink:href="classpicojson_1_1value.html#a005099b2865752cf31b7ced33bd85f59" target="_top" xlink:title="picojson::value::to_str">
<polygon fill="none" stroke="black" points="160.389,-0.5 160.389,-18.5 273.107,-18.5 273.107,-0.5 160.389,-0.5"/>
<text text-anchor="middle" x="216.748" y="-6.5" font-family="Helvetica,sans-Serif" font-size="10.00">picojson::value::to_str</text>
</a>
</g>
</g>
<!-- Node80&#45;&gt;Node83 -->
<g id="edge3" class="edge"><title>Node80&#45;&gt;Node83</title>
<path fill="none" stroke="midnightblue" d="M100.513,-37.4488C121.09,-32.4581 146.838,-26.2134 168.773,-20.8933"/>
<polygon fill="midnightblue" stroke="midnightblue" points="169.657,-24.2803 178.55,-18.5218 168.007,-17.4776 169.657,-24.2803"/>
</g>
</g>
</svg>
