<?xml version="1.0" encoding="UTF-8" standalone="no"?>
<!DOCTYPE svg PUBLIC "-//W3C//DTD SVG 1.1//EN"
 "http://www.w3.org/Graphics/SVG/1.1/DTD/svg11.dtd">
<!-- Generated by graphviz version 2.38.0 (20140413.2041)
 -->
<!-- Title: picojson::null_parse_context::parse_string Pages: 1 -->
<svg width="771pt" height="103pt"
 viewBox="0.00 0.00 771.24 103.00" xmlns="http://www.w3.org/2000/svg" xmlns:xlink="http://www.w3.org/1999/xlink">
<g id="graph0" class="graph" transform="scale(1 1) rotate(0) translate(4 99)">
<title>picojson::null_parse_context::parse_string</title>
<!-- Node38 -->
<g id="node1" class="node"><title>Node38</title>
<polygon fill="#bfbfbf" stroke="black" points="0,-33.5 0,-61.5 114.389,-61.5 114.389,-33.5 0,-33.5"/>
<text text-anchor="start" x="8" y="-49.5" font-family="Helvetica,sans-Serif" font-size="10.00">picojson::null_parse</text>
<text text-anchor="middle" x="57.1943" y="-39.5" font-family="Helvetica,sans-Serif" font-size="10.00">_context::parse_string</text>
</g>
<!-- Node39 -->
<g id="node2" class="node"><title>Node39</title>
<g id="a_node2"><a xlink:href="namespacepicojson.html#a9a1d94feb2718129796225d77c9e8d11" target="_top" xlink:title="picojson::_parse_string">
<polygon fill="none" stroke="black" points="150.389,-38.5 150.389,-56.5 269.226,-56.5 269.226,-38.5 150.389,-38.5"/>
<text text-anchor="middle" x="209.807" y="-44.5" font-family="Helvetica,sans-Serif" font-size="10.00">picojson::_parse_string</text>
</a>
</g>
</g>
<!-- Node38&#45;&gt;Node39 -->
<g id="edge1" class="edge"><title>Node38&#45;&gt;Node39</title>
<path fill="none" stroke="midnightblue" d="M114.705,-47.5C122.954,-47.5 131.524,-47.5 139.984,-47.5"/>
<polygon fill="midnightblue" stroke="midnightblue" points="140.22,-51.0001 150.22,-47.5 140.22,-44.0001 140.22,-51.0001"/>
</g>
<!-- Node40 -->
<g id="node3" class="node"><title>Node40</title>
<g id="a_node3"><a xlink:href="classpicojson_1_1input.html#a3e8ba0b09a989efa0dc583096984ea8e" target="_top" xlink:title="picojson::input::getc">
<polygon fill="none" stroke="black" points="653.293,-76.5 653.293,-94.5 757.682,-94.5 757.682,-76.5 653.293,-76.5"/>
<text text-anchor="middle" x="705.487" y="-82.5" font-family="Helvetica,sans-Serif" font-size="10.00">picojson::input::getc</text>
</a>
</g>
</g>
<!-- Node39&#45;&gt;Node40 -->
<g id="edge2" class="edge"><title>Node39&#45;&gt;Node40</title>
<path fill="none" stroke="midnightblue" d="M254.891,-56.5484C270.723,-59.6272 288.737,-62.9349 305.226,-65.5 382.087,-77.457 401.334,-81.8249 478.979,-86.5 537.873,-90.0461 552.731,-86.818 611.731,-86.5 621.756,-86.446 632.39,-86.3591 642.744,-86.2585"/>
<polygon fill="midnightblue" stroke="midnightblue" points="643.009,-89.7561 652.972,-86.1541 642.937,-82.7565 643.009,-89.7561"/>
</g>
<!-- Node41 -->
<g id="node4" class="node"><title>Node41</title>
<g id="a_node4"><a xlink:href="classpicojson_1_1input.html#a96ccc244e73b2ab87ded38c98e98d573" target="_top" xlink:title="picojson::input::ungetc">
<polygon fill="none" stroke="black" points="647.731,-0.5 647.731,-18.5 763.243,-18.5 763.243,-0.5 647.731,-0.5"/>
<text text-anchor="middle" x="705.487" y="-6.5" font-family="Helvetica,sans-Serif" font-size="10.00">picojson::input::ungetc</text>
</a>
</g>
</g>
<!-- Node39&#45;&gt;Node41 -->
<g id="edge3" class="edge"><title>Node39&#45;&gt;Node41</title>
<path fill="none" stroke="midnightblue" d="M251.075,-38.4115C267.761,-34.9028 287.357,-31.1129 305.226,-28.5 381.96,-17.279 401.535,-16.5745 478.979,-12.5 532.121,-9.70404 592.399,-9.0313 637.257,-9.01537"/>
<polygon fill="midnightblue" stroke="midnightblue" points="637.445,-12.5154 647.448,-9.02291 637.45,-5.51542 637.445,-12.5154"/>
</g>
<!-- Node42 -->
<g id="node5" class="node"><title>Node42</title>
<g id="a_node5"><a xlink:href="namespacepicojson.html#a05316c2614f3e7a4559ce1d1003eb051" target="_top" xlink:title="picojson::_parse_codepoint">
<polygon fill="none" stroke="black" points="305.226,-38.5 305.226,-56.5 442.979,-56.5 442.979,-38.5 305.226,-38.5"/>
<text text-anchor="middle" x="374.102" y="-44.5" font-family="Helvetica,sans-Serif" font-size="10.00">picojson::_parse_codepoint</text>
</a>
</g>
</g>
<!-- Node39&#45;&gt;Node42 -->
<g id="edge4" class="edge"><title>Node39&#45;&gt;Node42</title>
<path fill="none" stroke="midnightblue" d="M269.399,-47.5C277.753,-47.5 286.452,-47.5 295.104,-47.5"/>
<polygon fill="midnightblue" stroke="midnightblue" points="295.215,-51.0001 305.215,-47.5 295.215,-44.0001 295.215,-51.0001"/>
</g>
<!-- Node42&#45;&gt;Node40 -->
<g id="edge8" class="edge"><title>Node42&#45;&gt;Node40</title>
<path fill="none" stroke="midnightblue" d="M422.291,-56.5304C440.018,-59.6975 460.376,-63.0677 478.979,-65.5 534.233,-72.7248 597.452,-78.0815 642.867,-81.4232"/>
<polygon fill="midnightblue" stroke="midnightblue" points="642.628,-84.915 652.855,-82.1468 643.134,-77.9333 642.628,-84.915"/>
</g>
<!-- Node42&#45;&gt;Node41 -->
<g id="edge9" class="edge"><title>Node42&#45;&gt;Node41</title>
<path fill="none" stroke="midnightblue" d="M419.18,-38.4628C437.598,-34.9409 459.261,-31.1276 478.979,-28.5 531.91,-21.4462 592.201,-16.5268 637.118,-13.4637"/>
<polygon fill="midnightblue" stroke="midnightblue" points="637.579,-16.9408 647.323,-12.7815 637.112,-9.95633 637.579,-16.9408"/>
</g>
<!-- Node43 -->
<g id="node6" class="node"><title>Node43</title>
<g id="a_node6"><a xlink:href="namespacepicojson.html#a92d4f60542bbdfe8203f10e1fcce9368" target="_top" xlink:title="picojson::_parse_quadhex">
<polygon fill="none" stroke="black" points="478.979,-38.5 478.979,-56.5 611.731,-56.5 611.731,-38.5 478.979,-38.5"/>
<text text-anchor="middle" x="545.355" y="-44.5" font-family="Helvetica,sans-Serif" font-size="10.00">picojson::_parse_quadhex</text>
</a>
</g>
</g>
<!-- Node42&#45;&gt;Node43 -->
<g id="edge5" class="edge"><title>Node42&#45;&gt;Node43</title>
<path fill="none" stroke="midnightblue" d="M443.456,-47.5C451.739,-47.5 460.239,-47.5 468.621,-47.5"/>
<polygon fill="midnightblue" stroke="midnightblue" points="468.765,-51.0001 478.765,-47.5 468.765,-44.0001 468.765,-51.0001"/>
</g>
<!-- Node43&#45;&gt;Node40 -->
<g id="edge6" class="edge"><title>Node43&#45;&gt;Node40</title>
<path fill="none" stroke="midnightblue" d="M583.83,-56.5055C605.807,-61.7866 633.777,-68.5079 657.252,-74.1492"/>
<polygon fill="midnightblue" stroke="midnightblue" points="656.466,-77.5599 667.007,-76.4934 658.102,-70.7537 656.466,-77.5599"/>
</g>
<!-- Node43&#45;&gt;Node41 -->
<g id="edge7" class="edge"><title>Node43&#45;&gt;Node41</title>
<path fill="none" stroke="midnightblue" d="M583.83,-38.4945C605.807,-33.2134 633.777,-26.4921 657.252,-20.8508"/>
<polygon fill="midnightblue" stroke="midnightblue" points="658.102,-24.2463 667.007,-18.5066 656.466,-17.4401 658.102,-24.2463"/>
</g>
</g>
</svg>
