<?xml version="1.0" encoding="UTF-8" standalone="no"?>
<!DOCTYPE svg PUBLIC "-//W3C//DTD SVG 1.1//EN"
 "http://www.w3.org/Graphics/SVG/1.1/DTD/svg11.dtd">
<!-- Generated by graphviz version 2.38.0 (20140413.2041)
 -->
<!-- Title: Engine::loadScene Pages: 1 -->
<svg width="512pt" height="119pt"
 viewBox="0.00 0.00 511.88 119.00" xmlns="http://www.w3.org/2000/svg" xmlns:xlink="http://www.w3.org/1999/xlink">
<g id="graph0" class="graph" transform="scale(1 1) rotate(0) translate(4 115)">
<title>Engine::loadScene</title>
<!-- Node8 -->
<g id="node1" class="node"><title>Node8</title>
<polygon fill="#bfbfbf" stroke="black" points="0,-37.5 0,-55.5 99.9551,-55.5 99.9551,-37.5 0,-37.5"/>
<text text-anchor="middle" x="49.9775" y="-43.5" font-family="Helvetica,sans-Serif" font-size="10.00">Engine::loadScene</text>
</g>
<!-- Node9 -->
<g id="node2" class="node"><title>Node9</title>
<g id="a_node2"><a xlink:href="class_scene_parser.html#a3f69f475dee046264762e618e70b78e6" target="_top" xlink:title="SceneParser::parseFile">
<polygon fill="none" stroke="black" points="147.354,-74.5 147.354,-92.5 267.846,-92.5 267.846,-74.5 147.354,-74.5"/>
<text text-anchor="middle" x="207.6" y="-80.5" font-family="Helvetica,sans-Serif" font-size="10.00">SceneParser::parseFile</text>
</a>
</g>
</g>
<!-- Node8&#45;&gt;Node9 -->
<g id="edge1" class="edge"><title>Node8&#45;&gt;Node9</title>
<path fill="none" stroke="midnightblue" d="M89.0471,-55.5512C110.038,-60.5419 136.303,-66.7866 158.68,-72.1067"/>
<polygon fill="midnightblue" stroke="midnightblue" points="158.116,-75.5701 168.654,-74.4782 159.735,-68.7599 158.116,-75.5701"/>
</g>
<!-- Node13 -->
<g id="node6" class="node"><title>Node13</title>
<g id="a_node6"><a xlink:href="class_component.html#abed36db99f1ee0ba84a5fb8485e17428" target="_top" xlink:title="Component::getGameObject">
<polygon fill="none" stroke="black" points="135.955,-37.5 135.955,-55.5 279.245,-55.5 279.245,-37.5 135.955,-37.5"/>
<text text-anchor="middle" x="207.6" y="-43.5" font-family="Helvetica,sans-Serif" font-size="10.00">Component::getGameObject</text>
</a>
</g>
</g>
<!-- Node8&#45;&gt;Node13 -->
<g id="edge6" class="edge"><title>Node8&#45;&gt;Node13</title>
<path fill="none" stroke="midnightblue" d="M100.217,-46.5C108.346,-46.5 116.957,-46.5 125.621,-46.5"/>
<polygon fill="midnightblue" stroke="midnightblue" points="125.79,-50.0001 135.79,-46.5 125.79,-43.0001 125.79,-50.0001"/>
</g>
<!-- Node14 -->
<g id="node7" class="node"><title>Node14</title>
<g id="a_node7"><a xlink:href="class_game_object.html#aa84b88e86847087180fba0270a0d63ff" target="_top" xlink:title="GameObject::getComponent">
<polygon fill="none" stroke="black" points="135.955,-0.5 135.955,-18.5 279.245,-18.5 279.245,-0.5 135.955,-0.5"/>
<text text-anchor="middle" x="207.6" y="-6.5" font-family="Helvetica,sans-Serif" font-size="10.00">GameObject::getComponent</text>
</a>
</g>
</g>
<!-- Node8&#45;&gt;Node14 -->
<g id="edge7" class="edge"><title>Node8&#45;&gt;Node14</title>
<path fill="none" stroke="midnightblue" d="M89.0471,-37.4488C110.038,-32.4581 136.303,-26.2134 158.68,-20.8933"/>
<polygon fill="midnightblue" stroke="midnightblue" points="159.735,-24.2401 168.654,-18.5218 158.116,-17.4299 159.735,-24.2401"/>
</g>
<!-- Node10 -->
<g id="node3" class="node"><title>Node10</title>
<g id="a_node3"><a xlink:href="_scene_parser_8cpp.html#a0a3abae35f7aec2cb39e7e1c7eba5ea0" target="_top" xlink:title="to_vec4">
<polygon fill="none" stroke="black" points="315.245,-92.5 315.245,-110.5 366.27,-110.5 366.27,-92.5 315.245,-92.5"/>
<text text-anchor="middle" x="340.757" y="-98.5" font-family="Helvetica,sans-Serif" font-size="10.00">to_vec4</text>
</a>
</g>
</g>
<!-- Node9&#45;&gt;Node10 -->
<g id="edge2" class="edge"><title>Node9&#45;&gt;Node10</title>
<path fill="none" stroke="midnightblue" d="M268.039,-91.6573C280.701,-93.3951 293.67,-95.175 305.038,-96.7351"/>
<polygon fill="midnightblue" stroke="midnightblue" points="304.589,-100.206 314.972,-98.0985 305.541,-93.2712 304.589,-100.206"/>
</g>
<!-- Node12 -->
<g id="node5" class="node"><title>Node12</title>
<g id="a_node5"><a xlink:href="_scene_parser_8cpp.html#aebf61d8c060020f4498f29f7ba6e85f5" target="_top" xlink:title="to_vec3">
<polygon fill="none" stroke="black" points="315.245,-55.5 315.245,-73.5 366.27,-73.5 366.27,-55.5 315.245,-55.5"/>
<text text-anchor="middle" x="340.757" y="-61.5" font-family="Helvetica,sans-Serif" font-size="10.00">to_vec3</text>
</a>
</g>
</g>
<!-- Node9&#45;&gt;Node12 -->
<g id="edge4" class="edge"><title>Node9&#45;&gt;Node12</title>
<path fill="none" stroke="midnightblue" d="M268.039,-74.8895C280.701,-73.0552 293.67,-71.1763 305.038,-69.5296"/>
<polygon fill="midnightblue" stroke="midnightblue" points="305.577,-72.9881 314.972,-68.0905 304.574,-66.0604 305.577,-72.9881"/>
</g>
<!-- Node11 -->
<g id="node4" class="node"><title>Node11</title>
<g id="a_node4"><a xlink:href="classpicojson_1_1value.html#a6a1099de1eb4f070445dc3eadb843a92" target="_top" xlink:title="picojson::value::get">
<polygon fill="none" stroke="black" points="402.27,-73.5 402.27,-91.5 503.88,-91.5 503.88,-73.5 402.27,-73.5"/>
<text text-anchor="middle" x="453.075" y="-79.5" font-family="Helvetica,sans-Serif" font-size="10.00">picojson::value::get</text>
</a>
</g>
</g>
<!-- Node10&#45;&gt;Node11 -->
<g id="edge3" class="edge"><title>Node10&#45;&gt;Node11</title>
<path fill="none" stroke="midnightblue" d="M366.515,-97.236C374.259,-95.9022 383.166,-94.3682 392.243,-92.8049"/>
<polygon fill="midnightblue" stroke="midnightblue" points="392.851,-96.2517 402.112,-91.1051 391.663,-89.3533 392.851,-96.2517"/>
</g>
<!-- Node12&#45;&gt;Node11 -->
<g id="edge5" class="edge"><title>Node12&#45;&gt;Node11</title>
<path fill="none" stroke="midnightblue" d="M366.515,-68.5396C374.177,-69.7897 382.976,-71.2255 391.953,-72.6902"/>
<polygon fill="midnightblue" stroke="midnightblue" points="391.679,-76.1917 402.112,-74.3478 392.806,-69.283 391.679,-76.1917"/>
</g>
</g>
</svg>
