<?xml version="1.0" encoding="UTF-8" standalone="no"?>
<!DOCTYPE svg PUBLIC "-//W3C//DTD SVG 1.1//EN"
 "http://www.w3.org/Graphics/SVG/1.1/DTD/svg11.dtd">
<!-- Generated by graphviz version 2.38.0 (20140413.2041)
 -->
<!-- Title: picojson::default_parse_context::parse_string Pages: 1 -->
<svg width="776pt" height="103pt"
 viewBox="0.00 0.00 775.70 103.00" xmlns="http://www.w3.org/2000/svg" xmlns:xlink="http://www.w3.org/1999/xlink">
<g id="graph0" class="graph" transform="scale(1 1) rotate(0) translate(4 99)">
<title>picojson::default_parse_context::parse_string</title>
<!-- Node43 -->
<g id="node1" class="node"><title>Node43</title>
<polygon fill="#bfbfbf" stroke="black" points="0,-33.5 0,-61.5 118.847,-61.5 118.847,-33.5 0,-33.5"/>
<text text-anchor="start" x="8" y="-49.5" font-family="Helvetica,sans-Serif" font-size="10.00">picojson::default_parse</text>
<text text-anchor="middle" x="59.4233" y="-39.5" font-family="Helvetica,sans-Serif" font-size="10.00">_context::parse_string</text>
</g>
<!-- Node44 -->
<g id="node2" class="node"><title>Node44</title>
<g id="a_node2"><a xlink:href="classpicojson_1_1value.html#a445f8d1b335e7bcad6abd6c310b44c75" target="_top" xlink:title="picojson::value::value">
<polygon fill="none" stroke="black" points="158.458,-75.5 158.458,-93.5 270.073,-93.5 270.073,-75.5 158.458,-75.5"/>
<text text-anchor="middle" x="214.265" y="-81.5" font-family="Helvetica,sans-Serif" font-size="10.00">picojson::value::value</text>
</a>
</g>
</g>
<!-- Node43&#45;&gt;Node44 -->
<g id="edge1" class="edge"><title>Node43&#45;&gt;Node44</title>
<path fill="none" stroke="midnightblue" d="M118.642,-61.5937C134.27,-65.3769 150.976,-69.4211 165.935,-73.0423"/>
<polygon fill="midnightblue" stroke="midnightblue" points="165.434,-76.522 175.977,-75.4732 167.081,-69.7185 165.434,-76.522"/>
</g>
<!-- Node45 -->
<g id="node3" class="node"><title>Node45</title>
<g id="a_node3"><a xlink:href="namespacepicojson.html#a9a1d94feb2718129796225d77c9e8d11" target="_top" xlink:title="picojson::_parse_string">
<polygon fill="none" stroke="black" points="154.847,-38.5 154.847,-56.5 273.684,-56.5 273.684,-38.5 154.847,-38.5"/>
<text text-anchor="middle" x="214.265" y="-44.5" font-family="Helvetica,sans-Serif" font-size="10.00">picojson::_parse_string</text>
</a>
</g>
</g>
<!-- Node43&#45;&gt;Node45 -->
<g id="edge2" class="edge"><title>Node43&#45;&gt;Node45</title>
<path fill="none" stroke="midnightblue" d="M119.079,-47.5C127.398,-47.5 136.014,-47.5 144.503,-47.5"/>
<polygon fill="midnightblue" stroke="midnightblue" points="144.767,-51.0001 154.767,-47.5 144.767,-44.0001 144.767,-51.0001"/>
</g>
<!-- Node50 -->
<g id="node8" class="node"><title>Node50</title>
<g id="a_node8"><a xlink:href="classpicojson_1_1value.html#a6a1099de1eb4f070445dc3eadb843a92" target="_top" xlink:title="picojson::value::get">
<polygon fill="none" stroke="black" points="163.46,-1.5 163.46,-19.5 265.07,-19.5 265.07,-1.5 163.46,-1.5"/>
<text text-anchor="middle" x="214.265" y="-7.5" font-family="Helvetica,sans-Serif" font-size="10.00">picojson::value::get</text>
</a>
</g>
</g>
<!-- Node43&#45;&gt;Node50 -->
<g id="edge11" class="edge"><title>Node43&#45;&gt;Node50</title>
<path fill="none" stroke="midnightblue" d="M118.642,-33.4063C134.27,-29.6231 150.976,-25.5789 165.935,-21.9577"/>
<polygon fill="midnightblue" stroke="midnightblue" points="167.081,-25.2815 175.977,-19.5268 165.434,-18.478 167.081,-25.2815"/>
</g>
<!-- Node46 -->
<g id="node4" class="node"><title>Node46</title>
<g id="a_node4"><a xlink:href="classpicojson_1_1input.html#a3e8ba0b09a989efa0dc583096984ea8e" target="_top" xlink:title="picojson::input::getc">
<polygon fill="none" stroke="black" points="657.751,-76.5 657.751,-94.5 762.14,-94.5 762.14,-76.5 657.751,-76.5"/>
<text text-anchor="middle" x="709.945" y="-82.5" font-family="Helvetica,sans-Serif" font-size="10.00">picojson::input::getc</text>
</a>
</g>
</g>
<!-- Node45&#45;&gt;Node46 -->
<g id="edge3" class="edge"><title>Node45&#45;&gt;Node46</title>
<path fill="none" stroke="midnightblue" d="M259.349,-56.5484C275.181,-59.6272 293.195,-62.9349 309.684,-65.5 386.545,-77.457 405.792,-81.8249 483.437,-86.5 542.331,-90.0461 557.189,-86.818 616.189,-86.5 626.214,-86.446 636.848,-86.3591 647.202,-86.2585"/>
<polygon fill="midnightblue" stroke="midnightblue" points="647.467,-89.7561 657.43,-86.1541 647.395,-82.7565 647.467,-89.7561"/>
</g>
<!-- Node47 -->
<g id="node5" class="node"><title>Node47</title>
<g id="a_node5"><a xlink:href="classpicojson_1_1input.html#a96ccc244e73b2ab87ded38c98e98d573" target="_top" xlink:title="picojson::input::ungetc">
<polygon fill="none" stroke="black" points="652.189,-0.5 652.189,-18.5 767.701,-18.5 767.701,-0.5 652.189,-0.5"/>
<text text-anchor="middle" x="709.945" y="-6.5" font-family="Helvetica,sans-Serif" font-size="10.00">picojson::input::ungetc</text>
</a>
</g>
</g>
<!-- Node45&#45;&gt;Node47 -->
<g id="edge4" class="edge"><title>Node45&#45;&gt;Node47</title>
<path fill="none" stroke="midnightblue" d="M255.533,-38.4115C272.219,-34.9028 291.815,-31.1129 309.684,-28.5 386.418,-17.279 405.993,-16.5745 483.437,-12.5 536.579,-9.70404 596.857,-9.0313 641.715,-9.01537"/>
<polygon fill="midnightblue" stroke="midnightblue" points="641.903,-12.5154 651.906,-9.02291 641.908,-5.51542 641.903,-12.5154"/>
</g>
<!-- Node48 -->
<g id="node6" class="node"><title>Node48</title>
<g id="a_node6"><a xlink:href="namespacepicojson.html#a05316c2614f3e7a4559ce1d1003eb051" target="_top" xlink:title="picojson::_parse_codepoint">
<polygon fill="none" stroke="black" points="309.684,-38.5 309.684,-56.5 447.437,-56.5 447.437,-38.5 309.684,-38.5"/>
<text text-anchor="middle" x="378.56" y="-44.5" font-family="Helvetica,sans-Serif" font-size="10.00">picojson::_parse_codepoint</text>
</a>
</g>
</g>
<!-- Node45&#45;&gt;Node48 -->
<g id="edge5" class="edge"><title>Node45&#45;&gt;Node48</title>
<path fill="none" stroke="midnightblue" d="M273.857,-47.5C282.211,-47.5 290.91,-47.5 299.562,-47.5"/>
<polygon fill="midnightblue" stroke="midnightblue" points="299.673,-51.0001 309.673,-47.5 299.673,-44.0001 299.673,-51.0001"/>
</g>
<!-- Node48&#45;&gt;Node46 -->
<g id="edge9" class="edge"><title>Node48&#45;&gt;Node46</title>
<path fill="none" stroke="midnightblue" d="M426.749,-56.5304C444.476,-59.6975 464.834,-63.0677 483.437,-65.5 538.691,-72.7248 601.91,-78.0815 647.325,-81.4232"/>
<polygon fill="midnightblue" stroke="midnightblue" points="647.086,-84.915 657.313,-82.1468 647.592,-77.9333 647.086,-84.915"/>
</g>
<!-- Node48&#45;&gt;Node47 -->
<g id="edge10" class="edge"><title>Node48&#45;&gt;Node47</title>
<path fill="none" stroke="midnightblue" d="M423.638,-38.4628C442.056,-34.9409 463.719,-31.1276 483.437,-28.5 536.368,-21.4462 596.659,-16.5268 641.576,-13.4637"/>
<polygon fill="midnightblue" stroke="midnightblue" points="642.037,-16.9408 651.781,-12.7815 641.57,-9.95633 642.037,-16.9408"/>
</g>
<!-- Node49 -->
<g id="node7" class="node"><title>Node49</title>
<g id="a_node7"><a xlink:href="namespacepicojson.html#a92d4f60542bbdfe8203f10e1fcce9368" target="_top" xlink:title="picojson::_parse_quadhex">
<polygon fill="none" stroke="black" points="483.437,-38.5 483.437,-56.5 616.189,-56.5 616.189,-38.5 483.437,-38.5"/>
<text text-anchor="middle" x="549.813" y="-44.5" font-family="Helvetica,sans-Serif" font-size="10.00">picojson::_parse_quadhex</text>
</a>
</g>
</g>
<!-- Node48&#45;&gt;Node49 -->
<g id="edge6" class="edge"><title>Node48&#45;&gt;Node49</title>
<path fill="none" stroke="midnightblue" d="M447.914,-47.5C456.197,-47.5 464.697,-47.5 473.079,-47.5"/>
<polygon fill="midnightblue" stroke="midnightblue" points="473.223,-51.0001 483.223,-47.5 473.223,-44.0001 473.223,-51.0001"/>
</g>
<!-- Node49&#45;&gt;Node46 -->
<g id="edge7" class="edge"><title>Node49&#45;&gt;Node46</title>
<path fill="none" stroke="midnightblue" d="M588.288,-56.5055C610.265,-61.7866 638.235,-68.5079 661.71,-74.1492"/>
<polygon fill="midnightblue" stroke="midnightblue" points="660.924,-77.5599 671.465,-76.4934 662.56,-70.7537 660.924,-77.5599"/>
</g>
<!-- Node49&#45;&gt;Node47 -->
<g id="edge8" class="edge"><title>Node49&#45;&gt;Node47</title>
<path fill="none" stroke="midnightblue" d="M588.288,-38.4945C610.265,-33.2134 638.235,-26.4921 661.71,-20.8508"/>
<polygon fill="midnightblue" stroke="midnightblue" points="662.56,-24.2463 671.465,-18.5066 660.924,-17.4401 662.56,-24.2463"/>
</g>
</g>
</svg>
