<?xml version="1.0" encoding="UTF-8" standalone="no"?>
<!DOCTYPE svg PUBLIC "-//W3C//DTD SVG 1.1//EN"
 "http://www.w3.org/Graphics/SVG/1.1/DTD/svg11.dtd">
<!-- Generated by graphviz version 2.38.0 (20140413.2041)
 -->
<!-- Title: Transform::globalTransform Pages: 1 -->
<svg width="376pt" height="45pt"
 viewBox="0.00 0.00 375.70 45.00" xmlns="http://www.w3.org/2000/svg" xmlns:xlink="http://www.w3.org/1999/xlink">
<g id="graph0" class="graph" transform="scale(1 1) rotate(0) translate(4 41)">
<title>Transform::globalTransform</title>
<!-- Node4 -->
<g id="node1" class="node"><title>Node4</title>
<polygon fill="#bfbfbf" stroke="black" points="0,-0.5 0,-18.5 138.637,-18.5 138.637,-0.5 0,-0.5"/>
<text text-anchor="middle" x="69.3184" y="-6.5" font-family="Helvetica,sans-Serif" font-size="10.00">Transform::globalTransform</text>
</g>
<!-- Node4&#45;&gt;Node4 -->
<g id="edge3" class="edge"><title>Node4&#45;&gt;Node4</title>
<path fill="none" stroke="midnightblue" d="M41.9587,-27.0926C42.3807,-32.6312 51.5005,-37 69.3184,-37 95.8379,-37 103.089,-27.322 91.0727,-18.5134"/>
<polygon fill="midnightblue" stroke="midnightblue" points="45.0243,-28.7994 47.5641,-18.5134 39.1643,-24.9706 45.0243,-28.7994"/>
</g>
<!-- Node5 -->
<g id="node2" class="node"><title>Node5</title>
<g id="a_node2"><a xlink:href="class_renderer.html#a9a0a5f207e3d9f60c6372a9c79b25df9" target="_top" xlink:title="Renderer::draw">
<polygon fill="none" stroke="black" points="174.637,-0.5 174.637,-18.5 259.558,-18.5 259.558,-0.5 174.637,-0.5"/>
<text text-anchor="middle" x="217.097" y="-6.5" font-family="Helvetica,sans-Serif" font-size="10.00">Renderer::draw</text>
</a>
</g>
</g>
<!-- Node4&#45;&gt;Node5 -->
<g id="edge1" class="edge"><title>Node4&#45;&gt;Node5</title>
<path fill="none" stroke="midnightblue" d="M149.165,-9.5C157.858,-9.5 166.436,-9.5 174.402,-9.5"/>
<polygon fill="midnightblue" stroke="midnightblue" points="148.939,-6.0001 138.939,-9.5 148.939,-13.0001 148.939,-6.0001"/>
</g>
<!-- Node6 -->
<g id="node3" class="node"><title>Node6</title>
<g id="a_node3"><a xlink:href="class_engine.html#a4d8066dd213a03f5420d1bf60f150ca7" target="_top" xlink:title="Engine::start">
<polygon fill="none" stroke="black" points="295.558,-0.5 295.558,-18.5 367.7,-18.5 367.7,-0.5 295.558,-0.5"/>
<text text-anchor="middle" x="331.629" y="-6.5" font-family="Helvetica,sans-Serif" font-size="10.00">Engine::start</text>
</a>
</g>
</g>
<!-- Node5&#45;&gt;Node6 -->
<g id="edge2" class="edge"><title>Node5&#45;&gt;Node6</title>
<path fill="none" stroke="midnightblue" d="M269.78,-9.5C278.484,-9.5 287.335,-9.5 295.493,-9.5"/>
<polygon fill="midnightblue" stroke="midnightblue" points="269.68,-6.0001 259.68,-9.5 269.68,-13.0001 269.68,-6.0001"/>
</g>
</g>
</svg>
