<?xml version="1.0" encoding="UTF-8" standalone="no"?>
<!DOCTYPE svg PUBLIC "-//W3C//DTD SVG 1.1//EN"
 "http://www.w3.org/Graphics/SVG/1.1/DTD/svg11.dtd">
<!-- Generated by graphviz version 2.38.0 (20140413.2041)
 -->
<!-- Title: Component::getGameObject Pages: 1 -->
<svg width="287pt" height="74pt"
 viewBox="0.00 0.00 287.25 74.00" xmlns="http://www.w3.org/2000/svg" xmlns:xlink="http://www.w3.org/1999/xlink">
<g id="graph0" class="graph" transform="scale(1 1) rotate(0) translate(4 70)">
<title>Component::getGameObject</title>
<!-- Node5 -->
<g id="node1" class="node"><title>Node5</title>
<polygon fill="#bfbfbf" stroke="black" points="0,-26.5 0,-44.5 143.29,-44.5 143.29,-26.5 0,-26.5"/>
<text text-anchor="middle" x="71.645" y="-32.5" font-family="Helvetica,sans-Serif" font-size="10.00">Component::getGameObject</text>
</g>
<!-- Node6 -->
<g id="node2" class="node"><title>Node6</title>
<g id="a_node2"><a xlink:href="class_engine.html#a7acc08d07a4abd266a81b1be981b6c47" target="_top" xlink:title="Engine::loadScene">
<polygon fill="none" stroke="black" points="179.29,-47.5 179.29,-65.5 279.245,-65.5 279.245,-47.5 179.29,-47.5"/>
<text text-anchor="middle" x="229.268" y="-53.5" font-family="Helvetica,sans-Serif" font-size="10.00">Engine::loadScene</text>
</a>
</g>
</g>
<!-- Node5&#45;&gt;Node6 -->
<g id="edge1" class="edge"><title>Node5&#45;&gt;Node6</title>
<path fill="none" stroke="midnightblue" d="M149.612,-45.8861C159.71,-47.2487 169.826,-48.6138 179.281,-49.8897"/>
<polygon fill="midnightblue" stroke="midnightblue" points="149.924,-42.3966 139.546,-44.5278 148.988,-49.3337 149.924,-42.3966"/>
</g>
<!-- Node7 -->
<g id="node3" class="node"><title>Node7</title>
<g id="a_node3"><a xlink:href="class_particle_controller.html#a855aa00d92383b1a9ed7cbcf34bded91" target="_top" xlink:title="ParticleController\l::Update">
<polygon fill="none" stroke="black" points="182.92,-0.5 182.92,-28.5 275.615,-28.5 275.615,-0.5 182.92,-0.5"/>
<text text-anchor="start" x="190.92" y="-16.5" font-family="Helvetica,sans-Serif" font-size="10.00">ParticleController</text>
<text text-anchor="middle" x="229.268" y="-6.5" font-family="Helvetica,sans-Serif" font-size="10.00">::Update</text>
</a>
</g>
</g>
<!-- Node5&#45;&gt;Node7 -->
<g id="edge2" class="edge"><title>Node5&#45;&gt;Node7</title>
<path fill="none" stroke="midnightblue" d="M149.799,-25.0887C160.998,-23.5775 172.215,-22.0638 182.522,-20.673"/>
<polygon fill="midnightblue" stroke="midnightblue" points="148.988,-21.6663 139.546,-26.4722 149.924,-28.6034 148.988,-21.6663"/>
</g>
</g>
</svg>
