<?xml version="1.0" encoding="UTF-8" standalone="no"?>
<!DOCTYPE svg PUBLIC "-//W3C//DTD SVG 1.1//EN"
 "http://www.w3.org/Graphics/SVG/1.1/DTD/svg11.dtd">
<!-- Generated by graphviz version 2.38.0 (20140413.2041)
 -->
<!-- Title: Scene::addGameObject Pages: 1 -->
<svg width="293pt" height="64pt"
 viewBox="0.00 0.00 292.79 64.00" xmlns="http://www.w3.org/2000/svg" xmlns:xlink="http://www.w3.org/1999/xlink">
<g id="graph0" class="graph" transform="scale(1 1) rotate(0) translate(4 60)">
<title>Scene::addGameObject</title>
<!-- Node5 -->
<g id="node1" class="node"><title>Node5</title>
<polygon fill="#bfbfbf" stroke="black" points="0,-18.5 0,-36.5 122.729,-36.5 122.729,-18.5 0,-18.5"/>
<text text-anchor="middle" x="61.3643" y="-24.5" font-family="Helvetica,sans-Serif" font-size="10.00">Scene::addGameObject</text>
</g>
<!-- Node6 -->
<g id="node2" class="node"><title>Node6</title>
<g id="a_node2"><a xlink:href="class_engine.html#a63dbe7243f02b5d8880e0a972d916029" target="_top" xlink:title="Engine::Instance">
<polygon fill="none" stroke="black" points="176.512,-37.5 176.512,-55.5 267.009,-55.5 267.009,-37.5 176.512,-37.5"/>
<text text-anchor="middle" x="221.76" y="-43.5" font-family="Helvetica,sans-Serif" font-size="10.00">Engine::Instance</text>
</a>
</g>
</g>
<!-- Node5&#45;&gt;Node6 -->
<g id="edge1" class="edge"><title>Node5&#45;&gt;Node6</title>
<path fill="none" stroke="midnightblue" d="M123.151,-34.7916C137.195,-36.4761 152.056,-38.2587 165.832,-39.9112"/>
<polygon fill="midnightblue" stroke="midnightblue" points="165.779,-43.4298 176.124,-41.1458 166.612,-36.4796 165.779,-43.4298"/>
</g>
<!-- Node7 -->
<g id="node3" class="node"><title>Node7</title>
<g id="a_node3"><a xlink:href="class_engine.html#ab34fda9195bcfb350bdf9ba906e228e9" target="_top" xlink:title="You must not use this. It is for internal logic only. ">
<polygon fill="none" stroke="black" points="158.729,-0.5 158.729,-18.5 284.792,-18.5 284.792,-0.5 158.729,-0.5"/>
<text text-anchor="middle" x="221.76" y="-6.5" font-family="Helvetica,sans-Serif" font-size="10.00">Engine::CountObjectsUp</text>
</a>
</g>
</g>
<!-- Node5&#45;&gt;Node7 -->
<g id="edge2" class="edge"><title>Node5&#45;&gt;Node7</title>
<path fill="none" stroke="midnightblue" d="M123.151,-20.5922C131.401,-19.6548 139.932,-18.6853 148.36,-17.7275"/>
<polygon fill="midnightblue" stroke="midnightblue" points="149.022,-21.1749 158.563,-16.5681 148.232,-14.2197 149.022,-21.1749"/>
</g>
</g>
</svg>
