<?xml version="1.0" encoding="UTF-8" standalone="no"?>
<!DOCTYPE svg PUBLIC "-//W3C//DTD SVG 1.1//EN"
 "http://www.w3.org/Graphics/SVG/1.1/DTD/svg11.dtd">
<!-- Generated by graphviz version 2.38.0 (20140413.2041)
 -->
<!-- Title: Rigidbody Pages: 1 -->
<svg width="109pt" height="224pt"
 viewBox="0.00 0.00 109.31 224.00" xmlns="http://www.w3.org/2000/svg" xmlns:xlink="http://www.w3.org/1999/xlink">
<g id="graph0" class="graph" transform="scale(1 1) rotate(0) translate(4 220)">
<title>Rigidbody</title>
<!-- Node0 -->
<g id="node1" class="node"><title>Node0</title>
<polygon fill="#bfbfbf" stroke="black" points="12.9199,-0.5 12.9199,-84.5 88.3926,-84.5 88.3926,-0.5 12.9199,-0.5"/>
<text text-anchor="middle" x="50.6562" y="-72.5" font-family="Helvetica,sans-Serif" font-size="10.00">Rigidbody</text>
<polyline fill="none" stroke="black" points="12.9199,-66.5 88.3926,-66.5 "/>
<text text-anchor="start" x="20.9199" y="-54.5" font-family="Helvetica,sans-Serif" font-size="10.00">+ bd</text>
<text text-anchor="start" x="20.9199" y="-44.5" font-family="Helvetica,sans-Serif" font-size="10.00">+ body</text>
<polyline fill="none" stroke="black" points="12.9199,-38.5 88.3926,-38.5 "/>
<text text-anchor="start" x="20.9199" y="-26.5" font-family="Helvetica,sans-Serif" font-size="10.00">+ Setup()</text>
<text text-anchor="start" x="20.9199" y="-16.5" font-family="Helvetica,sans-Serif" font-size="10.00">+ PreSolve()</text>
<text text-anchor="start" x="20.9199" y="-6.5" font-family="Helvetica,sans-Serif" font-size="10.00"># Rigidbody()</text>
</g>
<!-- Node1 -->
<g id="node2" class="node"><title>Node1</title>
<g id="a_node2"><a xlink:href="class_component.html" target="_top" xlink:title="{Component\n|# gameObject\l# name\l|+ ~Component()\l+ getGameObject()\l+ getName()\l# Component()\l}">
<polygon fill="none" stroke="black" points="0,-121.5 0,-215.5 101.312,-215.5 101.312,-121.5 0,-121.5"/>
<text text-anchor="middle" x="50.6562" y="-203.5" font-family="Helvetica,sans-Serif" font-size="10.00">Component</text>
<polyline fill="none" stroke="black" points="0,-197.5 101.312,-197.5 "/>
<text text-anchor="start" x="8" y="-185.5" font-family="Helvetica,sans-Serif" font-size="10.00"># gameObject</text>
<text text-anchor="start" x="8" y="-175.5" font-family="Helvetica,sans-Serif" font-size="10.00"># name</text>
<polyline fill="none" stroke="black" points="0,-169.5 101.312,-169.5 "/>
<text text-anchor="start" x="8" y="-157.5" font-family="Helvetica,sans-Serif" font-size="10.00">+ ~Component()</text>
<text text-anchor="start" x="8" y="-147.5" font-family="Helvetica,sans-Serif" font-size="10.00">+ getGameObject()</text>
<text text-anchor="start" x="8" y="-137.5" font-family="Helvetica,sans-Serif" font-size="10.00">+ getName()</text>
<text text-anchor="start" x="8" y="-127.5" font-family="Helvetica,sans-Serif" font-size="10.00"># Component()</text>
</a>
</g>
</g>
<!-- Node1&#45;&gt;Node0 -->
<g id="edge1" class="edge"><title>Node1&#45;&gt;Node0</title>
<path fill="none" stroke="midnightblue" d="M50.6562,-111.061C50.6562,-102.219 50.6562,-93.2252 50.6562,-84.8064"/>
<polygon fill="none" stroke="midnightblue" points="47.1563,-111.327 50.6562,-121.327 54.1563,-111.327 47.1563,-111.327"/>
</g>
</g>
</svg>
