<?xml version="1.0" encoding="UTF-8" standalone="no"?>
<!DOCTYPE svg PUBLIC "-//W3C//DTD SVG 1.1//EN"
 "http://www.w3.org/Graphics/SVG/1.1/DTD/svg11.dtd">
<!-- Generated by graphviz version 2.38.0 (20140413.2041)
 -->
<!-- Title: Scriptable Pages: 1 -->
<svg width="114pt" height="244pt"
 viewBox="0.00 0.00 114.31 244.00" xmlns="http://www.w3.org/2000/svg" xmlns:xlink="http://www.w3.org/1999/xlink">
<g id="graph0" class="graph" transform="scale(1 1) rotate(0) translate(4 240)">
<title>Scriptable</title>
<!-- Node0 -->
<g id="node1" class="node"><title>Node0</title>
<polygon fill="#bfbfbf" stroke="black" points="0,-0.5 0,-104.5 106.312,-104.5 106.312,-0.5 0,-0.5"/>
<text text-anchor="middle" x="53.1562" y="-92.5" font-family="Helvetica,sans-Serif" font-size="10.00">Scriptable</text>
<polyline fill="none" stroke="black" points="0,-86.5 106.312,-86.5 "/>
<text text-anchor="middle" x="53.1562" y="-74.5" font-family="Helvetica,sans-Serif" font-size="10.00"> </text>
<polyline fill="none" stroke="black" points="0,-68.5 106.312,-68.5 "/>
<text text-anchor="start" x="8" y="-56.5" font-family="Helvetica,sans-Serif" font-size="10.00">+ Awake()</text>
<text text-anchor="start" x="8" y="-46.5" font-family="Helvetica,sans-Serif" font-size="10.00">+ Update()</text>
<text text-anchor="start" x="8" y="-36.5" font-family="Helvetica,sans-Serif" font-size="10.00">+ Start()</text>
<text text-anchor="start" x="8" y="-26.5" font-family="Helvetica,sans-Serif" font-size="10.00">+ OnCollisionEnter()</text>
<text text-anchor="start" x="8" y="-16.5" font-family="Helvetica,sans-Serif" font-size="10.00">+ OnCollisionExit()</text>
<text text-anchor="start" x="8" y="-6.5" font-family="Helvetica,sans-Serif" font-size="10.00"># Scriptable()</text>
</g>
<!-- Node1 -->
<g id="node2" class="node"><title>Node1</title>
<g id="a_node2"><a xlink:href="class_component.html" target="_top" xlink:title="{Component\n|# gameObject\l# name\l|+ ~Component()\l+ getGameObject()\l+ getName()\l# Component()\l}">
<polygon fill="none" stroke="black" points="2.5,-141.5 2.5,-235.5 103.812,-235.5 103.812,-141.5 2.5,-141.5"/>
<text text-anchor="middle" x="53.1562" y="-223.5" font-family="Helvetica,sans-Serif" font-size="10.00">Component</text>
<polyline fill="none" stroke="black" points="2.5,-217.5 103.812,-217.5 "/>
<text text-anchor="start" x="10.5" y="-205.5" font-family="Helvetica,sans-Serif" font-size="10.00"># gameObject</text>
<text text-anchor="start" x="10.5" y="-195.5" font-family="Helvetica,sans-Serif" font-size="10.00"># name</text>
<polyline fill="none" stroke="black" points="2.5,-189.5 103.812,-189.5 "/>
<text text-anchor="start" x="10.5" y="-177.5" font-family="Helvetica,sans-Serif" font-size="10.00">+ ~Component()</text>
<text text-anchor="start" x="10.5" y="-167.5" font-family="Helvetica,sans-Serif" font-size="10.00">+ getGameObject()</text>
<text text-anchor="start" x="10.5" y="-157.5" font-family="Helvetica,sans-Serif" font-size="10.00">+ getName()</text>
<text text-anchor="start" x="10.5" y="-147.5" font-family="Helvetica,sans-Serif" font-size="10.00"># Component()</text>
</a>
</g>
</g>
<!-- Node1&#45;&gt;Node0 -->
<g id="edge1" class="edge"><title>Node1&#45;&gt;Node0</title>
<path fill="none" stroke="midnightblue" d="M53.1562,-131.229C53.1562,-122.447 53.1562,-113.413 53.1562,-104.751"/>
<polygon fill="none" stroke="midnightblue" points="49.6563,-131.385 53.1562,-141.385 56.6563,-131.385 49.6563,-131.385"/>
</g>
</g>
</svg>
