<?xml version="1.0" encoding="UTF-8" standalone="no"?>
<!DOCTYPE svg PUBLIC "-//W3C//DTD SVG 1.1//EN"
 "http://www.w3.org/Graphics/SVG/1.1/DTD/svg11.dtd">
<!-- Generated by graphviz version 2.38.0 (20140413.2041)
 -->
<!-- Title: PhysicsManager::Instance Pages: 1 -->
<svg width="269pt" height="64pt"
 viewBox="0.00 0.00 269.44 64.00" xmlns="http://www.w3.org/2000/svg" xmlns:xlink="http://www.w3.org/1999/xlink">
<g id="graph0" class="graph" transform="scale(1 1) rotate(0) translate(4 60)">
<title>PhysicsManager::Instance</title>
<!-- Node1 -->
<g id="node1" class="node"><title>Node1</title>
<polygon fill="#bfbfbf" stroke="black" points="0,-18.5 0,-36.5 133.28,-36.5 133.28,-18.5 0,-18.5"/>
<text text-anchor="middle" x="66.6401" y="-24.5" font-family="Helvetica,sans-Serif" font-size="10.00">PhysicsManager::Instance</text>
</g>
<!-- Node2 -->
<g id="node2" class="node"><title>Node2</title>
<g id="a_node2"><a xlink:href="class_engine.html#a4d8066dd213a03f5420d1bf60f150ca7" target="_top" xlink:title="Engine::start">
<polygon fill="none" stroke="black" points="179.29,-37.5 179.29,-55.5 251.433,-55.5 251.433,-37.5 179.29,-37.5"/>
<text text-anchor="middle" x="215.361" y="-43.5" font-family="Helvetica,sans-Serif" font-size="10.00">Engine::start</text>
</a>
</g>
</g>
<!-- Node1&#45;&gt;Node2 -->
<g id="edge1" class="edge"><title>Node1&#45;&gt;Node2</title>
<path fill="none" stroke="midnightblue" d="M143.652,-37.3433C156.063,-38.9506 168.373,-40.5446 179.158,-41.9413"/>
<polygon fill="midnightblue" stroke="midnightblue" points="144.071,-33.8684 133.704,-36.0551 143.172,-40.8105 144.071,-33.8684"/>
</g>
<!-- Node3 -->
<g id="node3" class="node"><title>Node3</title>
<g id="a_node3"><a xlink:href="class_rigidbody.html#ad68857e87ad5261bab1adc3ad2d9ee3f" target="_top" xlink:title="Rigidbody::Setup">
<polygon fill="none" stroke="black" points="169.28,-0.5 169.28,-18.5 261.442,-18.5 261.442,-0.5 169.28,-0.5"/>
<text text-anchor="middle" x="215.361" y="-6.5" font-family="Helvetica,sans-Serif" font-size="10.00">Rigidbody::Setup</text>
</a>
</g>
</g>
<!-- Node1&#45;&gt;Node3 -->
<g id="edge2" class="edge"><title>Node1&#45;&gt;Node3</title>
<path fill="none" stroke="midnightblue" d="M143.878,-18.1471C152.548,-17.0834 161.164,-16.0263 169.241,-15.0354"/>
<polygon fill="midnightblue" stroke="midnightblue" points="143.203,-14.7034 133.704,-19.3952 144.056,-21.6513 143.203,-14.7034"/>
</g>
</g>
</svg>
