<?xml version="1.0" encoding="UTF-8" standalone="no"?>
<!DOCTYPE svg PUBLIC "-//W3C//DTD SVG 1.1//EN"
 "http://www.w3.org/Graphics/SVG/1.1/DTD/svg11.dtd">
<!-- Generated by graphviz version 2.38.0 (20140413.2041)
 -->
<!-- Title: Scene::addExistingGameObject Pages: 1 -->
<svg width="328pt" height="101pt"
 viewBox="0.00 0.00 327.81 101.00" xmlns="http://www.w3.org/2000/svg" xmlns:xlink="http://www.w3.org/1999/xlink">
<g id="graph0" class="graph" transform="scale(1 1) rotate(0) translate(4 97)">
<title>Scene::addExistingGameObject</title>
<!-- Node0 -->
<g id="node1" class="node"><title>Node0</title>
<polygon fill="#bfbfbf" stroke="black" points="0,-37.5 0,-55.5 157.743,-55.5 157.743,-37.5 0,-37.5"/>
<text text-anchor="middle" x="78.8716" y="-43.5" font-family="Helvetica,sans-Serif" font-size="10.00">Scene::addExistingGameObject</text>
</g>
<!-- Node1 -->
<g id="node2" class="node"><title>Node1</title>
<g id="a_node2"><a xlink:href="class_game_object.html#a7a7cc496716e8c8453bd0bb954f2a7ee" target="_top" xlink:title="GameObject::getName">
<polygon fill="none" stroke="black" points="197.642,-74.5 197.642,-92.5 315.908,-92.5 315.908,-74.5 197.642,-74.5"/>
<text text-anchor="middle" x="256.775" y="-80.5" font-family="Helvetica,sans-Serif" font-size="10.00">GameObject::getName</text>
</a>
</g>
</g>
<!-- Node0&#45;&gt;Node1 -->
<g id="edge1" class="edge"><title>Node0&#45;&gt;Node1</title>
<path fill="none" stroke="midnightblue" d="M122.902,-55.5512C147.056,-60.6318 177.389,-67.0121 202.972,-72.3934"/>
<polygon fill="midnightblue" stroke="midnightblue" points="202.378,-75.8448 212.884,-74.4782 203.818,-68.9947 202.378,-75.8448"/>
</g>
<!-- Node2 -->
<g id="node3" class="node"><title>Node2</title>
<g id="a_node3"><a xlink:href="class_engine.html#a63dbe7243f02b5d8880e0a972d916029" target="_top" xlink:title="Engine::Instance">
<polygon fill="none" stroke="black" points="211.526,-37.5 211.526,-55.5 302.023,-55.5 302.023,-37.5 211.526,-37.5"/>
<text text-anchor="middle" x="256.775" y="-43.5" font-family="Helvetica,sans-Serif" font-size="10.00">Engine::Instance</text>
</a>
</g>
</g>
<!-- Node0&#45;&gt;Node2 -->
<g id="edge2" class="edge"><title>Node0&#45;&gt;Node2</title>
<path fill="none" stroke="midnightblue" d="M157.794,-46.5C172.44,-46.5 187.461,-46.5 201.206,-46.5"/>
<polygon fill="midnightblue" stroke="midnightblue" points="201.44,-50.0001 211.44,-46.5 201.44,-43.0001 201.44,-50.0001"/>
</g>
<!-- Node3 -->
<g id="node4" class="node"><title>Node3</title>
<g id="a_node4"><a xlink:href="class_engine.html#ab34fda9195bcfb350bdf9ba906e228e9" target="_top" xlink:title="You must not use this. It is for internal logic only. ">
<polygon fill="none" stroke="black" points="193.743,-0.5 193.743,-18.5 319.807,-18.5 319.807,-0.5 193.743,-0.5"/>
<text text-anchor="middle" x="256.775" y="-6.5" font-family="Helvetica,sans-Serif" font-size="10.00">Engine::CountObjectsUp</text>
</a>
</g>
</g>
<!-- Node0&#45;&gt;Node3 -->
<g id="edge3" class="edge"><title>Node0&#45;&gt;Node3</title>
<path fill="none" stroke="midnightblue" d="M122.902,-37.4488C147.056,-32.3682 177.389,-25.9879 202.972,-20.6066"/>
<polygon fill="midnightblue" stroke="midnightblue" points="203.818,-24.0053 212.884,-18.5218 202.378,-17.1552 203.818,-24.0053"/>
</g>
</g>
</svg>
