<?xml version="1.0" encoding="UTF-8" standalone="no"?>
<!DOCTYPE svg PUBLIC "-//W3C//DTD SVG 1.1//EN"
 "http://www.w3.org/Graphics/SVG/1.1/DTD/svg11.dtd">
<!-- Generated by graphviz version 2.38.0 (20140413.2041)
 -->
<!-- Title: SpriteAndPosition Pages: 1 -->
<svg width="125pt" height="234pt"
 viewBox="0.00 0.00 124.61 234.00" xmlns="http://www.w3.org/2000/svg" xmlns:xlink="http://www.w3.org/1999/xlink">
<g id="graph0" class="graph" transform="scale(1 1) rotate(0) translate(4 230)">
<title>SpriteAndPosition</title>
<!-- Node1 -->
<g id="node1" class="node"><title>Node1</title>
<polygon fill="#bfbfbf" stroke="black" points="0,-0.5 0,-64.5 116.61,-64.5 116.61,-0.5 0,-0.5"/>
<text text-anchor="middle" x="58.3052" y="-52.5" font-family="Helvetica,sans-Serif" font-size="10.00">SpriteAndPosition</text>
<polyline fill="none" stroke="black" points="0,-46.5 116.61,-46.5 "/>
<text text-anchor="start" x="8" y="-34.5" font-family="Helvetica,sans-Serif" font-size="10.00">+ position</text>
<polyline fill="none" stroke="black" points="0,-28.5 116.61,-28.5 "/>
<text text-anchor="start" x="8" y="-16.5" font-family="Helvetica,sans-Serif" font-size="10.00">+ SpriteAndPosition()</text>
<text text-anchor="start" x="8" y="-6.5" font-family="Helvetica,sans-Serif" font-size="10.00">+ ~SpriteAndPosition()</text>
</g>
<!-- Node2 -->
<g id="node2" class="node"><title>Node2</title>
<g id="a_node2"><a xlink:href="class_sprite.html" target="_top" xlink:title="{Sprite\n|+ name\l+ scale\l|+ Sprite()\l+ ~Sprite()\l+ draw()\l+ init()\l+ setName()\l+ setEnabled()\l}">
<polygon fill="none" stroke="black" points="17.6465,-111.5 17.6465,-225.5 98.9639,-225.5 98.9639,-111.5 17.6465,-111.5"/>
<text text-anchor="middle" x="58.3052" y="-213.5" font-family="Helvetica,sans-Serif" font-size="10.00">Sprite</text>
<polyline fill="none" stroke="black" points="17.6465,-207.5 98.9639,-207.5 "/>
<text text-anchor="start" x="25.6465" y="-195.5" font-family="Helvetica,sans-Serif" font-size="10.00">+ name</text>
<text text-anchor="start" x="25.6465" y="-185.5" font-family="Helvetica,sans-Serif" font-size="10.00">+ scale</text>
<polyline fill="none" stroke="black" points="17.6465,-179.5 98.9639,-179.5 "/>
<text text-anchor="start" x="25.6465" y="-167.5" font-family="Helvetica,sans-Serif" font-size="10.00">+ Sprite()</text>
<text text-anchor="start" x="25.6465" y="-157.5" font-family="Helvetica,sans-Serif" font-size="10.00">+ ~Sprite()</text>
<text text-anchor="start" x="25.6465" y="-147.5" font-family="Helvetica,sans-Serif" font-size="10.00">+ draw()</text>
<text text-anchor="start" x="25.6465" y="-137.5" font-family="Helvetica,sans-Serif" font-size="10.00">+ init()</text>
<text text-anchor="start" x="25.6465" y="-127.5" font-family="Helvetica,sans-Serif" font-size="10.00">+ setName()</text>
<text text-anchor="start" x="25.6465" y="-117.5" font-family="Helvetica,sans-Serif" font-size="10.00">+ setEnabled()</text>
</a>
</g>
</g>
<!-- Node2&#45;&gt;Node1 -->
<g id="edge1" class="edge"><title>Node2&#45;&gt;Node1</title>
<path fill="none" stroke="#404040" d="M58.3052,-111.448C58.3052,-100.005 58.3052,-88.1235 58.3052,-77.1885"/>
<polygon fill="none" stroke="#404040" points="58.3053,-76.8695 54.3052,-70.8695 58.3052,-64.8695 62.3052,-70.8694 58.3053,-76.8695"/>
<text text-anchor="middle" x="74.8408" y="-85" font-family="Helvetica,sans-Serif" font-size="10.00"> +sprite</text>
</g>
</g>
</svg>
