<?xml version="1.0" encoding="UTF-8" standalone="no"?>
<!DOCTYPE svg PUBLIC "-//W3C//DTD SVG 1.1//EN"
 "http://www.w3.org/Graphics/SVG/1.1/DTD/svg11.dtd">
<!-- Generated by graphviz version 2.38.0 (20140413.2041)
 -->
<!-- Title: picojson::value::operator= Pages: 1 -->
<svg width="381pt" height="64pt"
 viewBox="0.00 0.00 380.65 64.00" xmlns="http://www.w3.org/2000/svg" xmlns:xlink="http://www.w3.org/1999/xlink">
<g id="graph0" class="graph" transform="scale(1 1) rotate(0) translate(4 60)">
<title>picojson::value::operator=</title>
<!-- Node68 -->
<g id="node1" class="node"><title>Node68</title>
<polygon fill="#bfbfbf" stroke="black" points="0,-18.5 0,-36.5 130.795,-36.5 130.795,-18.5 0,-18.5"/>
<text text-anchor="middle" x="65.3975" y="-24.5" font-family="Helvetica,sans-Serif" font-size="10.00">picojson::value::operator=</text>
</g>
<!-- Node69 -->
<g id="node2" class="node"><title>Node69</title>
<g id="a_node2"><a xlink:href="classpicojson_1_1value.html#a6e3ac589ed811603ef9dadc6f91c737d" target="_top" xlink:title="picojson::value::swap">
<polygon fill="none" stroke="black" points="167.076,-37.5 167.076,-55.5 278.129,-55.5 278.129,-37.5 167.076,-37.5"/>
<text text-anchor="middle" x="222.603" y="-43.5" font-family="Helvetica,sans-Serif" font-size="10.00">picojson::value::swap</text>
</a>
</g>
</g>
<!-- Node68&#45;&gt;Node69 -->
<g id="edge1" class="edge"><title>Node68&#45;&gt;Node69</title>
<path fill="none" stroke="midnightblue" d="M130.87,-35.3926C139.49,-36.4479 148.333,-37.5304 156.956,-38.586"/>
<polygon fill="midnightblue" stroke="midnightblue" points="156.6,-42.0685 166.951,-39.8097 157.451,-35.1204 156.6,-42.0685"/>
</g>
<!-- Node71 -->
<g id="node4" class="node"><title>Node71</title>
<g id="a_node4"><a xlink:href="classpicojson_1_1value.html#a445f8d1b335e7bcad6abd6c310b44c75" target="_top" xlink:title="picojson::value::value">
<polygon fill="none" stroke="black" points="166.795,-0.5 166.795,-18.5 278.41,-18.5 278.41,-0.5 166.795,-0.5"/>
<text text-anchor="middle" x="222.603" y="-6.5" font-family="Helvetica,sans-Serif" font-size="10.00">picojson::value::value</text>
</a>
</g>
</g>
<!-- Node68&#45;&gt;Node71 -->
<g id="edge4" class="edge"><title>Node68&#45;&gt;Node71</title>
<path fill="none" stroke="midnightblue" d="M130.87,-20.0228C139.278,-19.0476 147.898,-18.048 156.319,-17.0713"/>
<polygon fill="midnightblue" stroke="midnightblue" points="156.935,-20.5234 166.465,-15.8946 156.128,-13.5701 156.935,-20.5234"/>
</g>
<!-- Node70 -->
<g id="node3" class="node"><title>Node70</title>
<g id="a_node3"><a xlink:href="namespacestd.html#abb7e41c7063536ff6eeee4bb5f66de6c" target="_top" xlink:title="std::swap">
<polygon fill="none" stroke="black" points="314.41,-37.5 314.41,-55.5 372.651,-55.5 372.651,-37.5 314.41,-37.5"/>
<text text-anchor="middle" x="343.531" y="-43.5" font-family="Helvetica,sans-Serif" font-size="10.00">std::swap</text>
</a>
</g>
</g>
<!-- Node69&#45;&gt;Node70 -->
<g id="edge2" class="edge"><title>Node69&#45;&gt;Node70</title>
<path fill="none" stroke="midnightblue" d="M278.194,-39.7702C286.952,-39.6975 295.853,-39.8212 304.129,-40.1413"/>
<polygon fill="midnightblue" stroke="midnightblue" points="304.055,-43.642 314.219,-40.6519 304.409,-36.651 304.055,-43.642"/>
</g>
<!-- Node70&#45;&gt;Node69 -->
<g id="edge3" class="edge"><title>Node70&#45;&gt;Node69</title>
<path fill="none" stroke="midnightblue" d="M314.219,-52.3481C306.354,-52.8503 297.476,-53.1428 288.431,-53.2255"/>
<polygon fill="midnightblue" stroke="midnightblue" points="288.192,-49.7255 278.194,-53.2298 288.195,-56.7255 288.192,-49.7255"/>
</g>
</g>
</svg>
