<?xml version="1.0" encoding="UTF-8" standalone="no"?>
<!DOCTYPE svg PUBLIC "-//W3C//DTD SVG 1.1//EN"
 "http://www.w3.org/Graphics/SVG/1.1/DTD/svg11.dtd">
<!-- Generated by graphviz version 2.38.0 (20140413.2041)
 -->
<!-- Title: picojson::null_parse_context::parse_object_item Pages: 1 -->
<svg width="1122pt" height="359pt"
 viewBox="0.00 0.00 1121.79 358.50" xmlns="http://www.w3.org/2000/svg" xmlns:xlink="http://www.w3.org/1999/xlink">
<g id="graph0" class="graph" transform="scale(1 1) rotate(0) translate(4 354.5)">
<title>picojson::null_parse_context::parse_object_item</title>
<!-- Node19 -->
<g id="node1" class="node"><title>Node19</title>
<polygon fill="#bfbfbf" stroke="black" points="0,-89.5 0,-117.5 141.073,-117.5 141.073,-89.5 0,-89.5"/>
<text text-anchor="start" x="8" y="-105.5" font-family="Helvetica,sans-Serif" font-size="10.00">picojson::null_parse</text>
<text text-anchor="middle" x="70.5366" y="-95.5" font-family="Helvetica,sans-Serif" font-size="10.00">_context::parse_object_item</text>
</g>
<!-- Node20 -->
<g id="node2" class="node"><title>Node20</title>
<g id="a_node2"><a xlink:href="namespacepicojson.html#aed024a6a1c8d8982a38c4a7fcefde221" target="_top" xlink:title="picojson::_parse">
<polygon fill="none" stroke="black" points="198.06,-151.5 198.06,-169.5 286.882,-169.5 286.882,-151.5 198.06,-151.5"/>
<text text-anchor="middle" x="242.471" y="-157.5" font-family="Helvetica,sans-Serif" font-size="10.00">picojson::_parse</text>
</a>
</g>
</g>
<!-- Node19&#45;&gt;Node20 -->
<g id="edge1" class="edge"><title>Node19&#45;&gt;Node20</title>
<path fill="none" stroke="midnightblue" d="M113.543,-117.59C141.519,-126.974 177.926,-139.186 204.745,-148.181"/>
<polygon fill="midnightblue" stroke="midnightblue" points="203.922,-151.597 214.516,-151.459 206.148,-144.96 203.922,-151.597"/>
</g>
<!-- Node31 -->
<g id="node13" class="node"><title>Node31</title>
<g id="a_node13"><a xlink:href="classpicojson_1_1value.html#acc5e4506e6a793af5132983573f9da6a" target="_top" xlink:title="picojson::value::operator=">
<polygon fill="none" stroke="black" points="177.073,-37.5 177.073,-55.5 307.868,-55.5 307.868,-37.5 177.073,-37.5"/>
<text text-anchor="middle" x="242.471" y="-43.5" font-family="Helvetica,sans-Serif" font-size="10.00">picojson::value::operator=</text>
</a>
</g>
</g>
<!-- Node19&#45;&gt;Node31 -->
<g id="edge21" class="edge"><title>Node19&#45;&gt;Node31</title>
<path fill="none" stroke="midnightblue" d="M113.543,-89.4101C141.519,-80.0264 177.926,-67.8143 204.745,-58.8187"/>
<polygon fill="midnightblue" stroke="midnightblue" points="206.148,-62.0396 214.516,-55.5412 203.922,-55.403 206.148,-62.0396"/>
</g>
<!-- Node21 -->
<g id="node3" class="node"><title>Node21</title>
<g id="a_node3"><a xlink:href="classpicojson_1_1input.html#aa83aefe87374a5e24ab8c8e80fef4aa4" target="_top" xlink:title="picojson::input::skip_ws">
<polygon fill="none" stroke="black" points="343.875,-188.5 343.875,-206.5 464.929,-206.5 464.929,-188.5 343.875,-188.5"/>
<text text-anchor="middle" x="404.402" y="-194.5" font-family="Helvetica,sans-Serif" font-size="10.00">picojson::input::skip_ws</text>
</a>
</g>
</g>
<!-- Node20&#45;&gt;Node21 -->
<g id="edge2" class="edge"><title>Node20&#45;&gt;Node21</title>
<path fill="none" stroke="midnightblue" d="M282.594,-169.551C304.264,-174.564 331.402,-180.843 354.466,-186.179"/>
<polygon fill="midnightblue" stroke="midnightblue" points="353.874,-189.634 364.406,-188.478 355.452,-182.814 353.874,-189.634"/>
</g>
<!-- Node22 -->
<g id="node4" class="node"><title>Node22</title>
<g id="a_node4"><a xlink:href="classpicojson_1_1input.html#a3e8ba0b09a989efa0dc583096984ea8e" target="_top" xlink:title="picojson::input::getc">
<polygon fill="none" stroke="black" points="1003.84,-151.5 1003.84,-169.5 1108.23,-169.5 1108.23,-151.5 1003.84,-151.5"/>
<text text-anchor="middle" x="1056.04" y="-157.5" font-family="Helvetica,sans-Serif" font-size="10.00">picojson::input::getc</text>
</a>
</g>
</g>
<!-- Node20&#45;&gt;Node22 -->
<g id="edge3" class="edge"><title>Node20&#45;&gt;Node22</title>
<path fill="none" stroke="midnightblue" d="M265.248,-151.483C315.905,-131.352 445.979,-84.5 559.355,-84.5 559.355,-84.5 559.355,-84.5 725.65,-84.5 837.161,-84.5 964.595,-126.367 1022.89,-147.953"/>
<polygon fill="midnightblue" stroke="midnightblue" points="1021.7,-151.246 1032.29,-151.483 1024.16,-144.692 1021.7,-151.246"/>
</g>
<!-- Node23 -->
<g id="node5" class="node"><title>Node23</title>
<g id="a_node5"><a xlink:href="namespacepicojson.html#adcae039b132c6c96d2b2d9e786a04a88" target="_top" xlink:title="picojson::_parse_array">
<polygon fill="none" stroke="black" points="345.819,-225.5 345.819,-243.5 462.986,-243.5 462.986,-225.5 345.819,-225.5"/>
<text text-anchor="middle" x="404.402" y="-231.5" font-family="Helvetica,sans-Serif" font-size="10.00">picojson::_parse_array</text>
</a>
</g>
</g>
<!-- Node20&#45;&gt;Node23 -->
<g id="edge4" class="edge"><title>Node20&#45;&gt;Node23</title>
<path fill="none" stroke="midnightblue" d="M257.991,-169.62C277.126,-181.361 312.085,-201.873 343.868,-215.5 349.426,-217.883 355.385,-220.129 361.308,-222.184"/>
<polygon fill="midnightblue" stroke="midnightblue" points="360.571,-225.627 371.164,-225.455 362.775,-218.983 360.571,-225.627"/>
</g>
<!-- Node25 -->
<g id="node7" class="node"><title>Node25</title>
<g id="a_node7"><a xlink:href="namespacepicojson.html#a480ed5e3461568672197a42e259a44c9" target="_top" xlink:title="picojson::_parse_object">
<polygon fill="none" stroke="black" points="343.868,-151.5 343.868,-169.5 464.937,-169.5 464.937,-151.5 343.868,-151.5"/>
<text text-anchor="middle" x="404.402" y="-157.5" font-family="Helvetica,sans-Serif" font-size="10.00">picojson::_parse_object</text>
</a>
</g>
</g>
<!-- Node20&#45;&gt;Node25 -->
<g id="edge6" class="edge"><title>Node20&#45;&gt;Node25</title>
<path fill="none" stroke="midnightblue" d="M287.173,-160.5C301.512,-160.5 317.824,-160.5 333.6,-160.5"/>
<polygon fill="midnightblue" stroke="midnightblue" points="333.864,-164 343.864,-160.5 333.864,-157 333.864,-164"/>
</g>
<!-- Node27 -->
<g id="node9" class="node"><title>Node27</title>
<g id="a_node9"><a xlink:href="classpicojson_1_1input.html#a96ccc244e73b2ab87ded38c98e98d573" target="_top" xlink:title="picojson::input::ungetc">
<polygon fill="none" stroke="black" points="998.279,-265.5 998.279,-283.5 1113.79,-283.5 1113.79,-265.5 998.279,-265.5"/>
<text text-anchor="middle" x="1056.04" y="-271.5" font-family="Helvetica,sans-Serif" font-size="10.00">picojson::input::ungetc</text>
</a>
</g>
</g>
<!-- Node20&#45;&gt;Node27 -->
<g id="edge17" class="edge"><title>Node20&#45;&gt;Node27</title>
<path fill="none" stroke="midnightblue" d="M251.188,-169.664C284.067,-207.617 417.282,-350.5 559.355,-350.5 559.355,-350.5 559.355,-350.5 725.65,-350.5 837.161,-350.5 964.595,-308.633 1022.89,-287.047"/>
<polygon fill="midnightblue" stroke="midnightblue" points="1024.16,-290.308 1032.29,-283.517 1021.7,-283.754 1024.16,-290.308"/>
</g>
<!-- Node30 -->
<g id="node12" class="node"><title>Node30</title>
<g id="a_node12"><a xlink:href="namespacepicojson.html#a771defe1d981b7091c2156bf4720625c" target="_top" xlink:title="picojson::_parse_number">
<polygon fill="none" stroke="black" points="831.758,-151.5 831.758,-169.5 960.048,-169.5 960.048,-151.5 831.758,-151.5"/>
<text text-anchor="middle" x="895.903" y="-157.5" font-family="Helvetica,sans-Serif" font-size="10.00">picojson::_parse_number</text>
</a>
</g>
</g>
<!-- Node20&#45;&gt;Node30 -->
<g id="edge18" class="edge"><title>Node20&#45;&gt;Node30</title>
<path fill="none" stroke="midnightblue" d="M281.848,-151.493C300.457,-147.573 323.204,-143.438 343.868,-141.5 514.269,-125.518 715.437,-141.128 821.276,-151.998"/>
<polygon fill="midnightblue" stroke="midnightblue" points="821.218,-155.51 831.527,-153.066 821.944,-148.548 821.218,-155.51"/>
</g>
<!-- Node24 -->
<g id="node6" class="node"><title>Node24</title>
<g id="a_node6"><a xlink:href="classpicojson_1_1input.html#a14c29e99d9c9aa8cdbb46178c434d663" target="_top" xlink:title="picojson::input::expect">
<polygon fill="none" stroke="black" points="502.88,-207.5 502.88,-225.5 617.83,-225.5 617.83,-207.5 502.88,-207.5"/>
<text text-anchor="middle" x="560.355" y="-213.5" font-family="Helvetica,sans-Serif" font-size="10.00">picojson::input::expect</text>
</a>
</g>
</g>
<!-- Node23&#45;&gt;Node24 -->
<g id="edge5" class="edge"><title>Node23&#45;&gt;Node24</title>
<path fill="none" stroke="midnightblue" d="M463.167,-227.746C472.792,-226.621 482.845,-225.445 492.671,-224.297"/>
<polygon fill="midnightblue" stroke="midnightblue" points="493.275,-227.75 502.801,-223.112 492.462,-220.797 493.275,-227.75"/>
</g>
<!-- Node25&#45;&gt;Node24 -->
<g id="edge7" class="edge"><title>Node25&#45;&gt;Node24</title>
<path fill="none" stroke="midnightblue" d="M437.087,-169.509C446.136,-172.236 455.972,-175.348 464.937,-178.5 486.555,-186.102 510.502,-195.754 528.87,-203.428"/>
<polygon fill="midnightblue" stroke="midnightblue" points="527.612,-206.696 538.187,-207.351 530.328,-200.245 527.612,-206.696"/>
</g>
<!-- Node26 -->
<g id="node8" class="node"><title>Node26</title>
<g id="a_node8"><a xlink:href="namespacepicojson.html#a9a1d94feb2718129796225d77c9e8d11" target="_top" xlink:title="picojson::_parse_string">
<polygon fill="none" stroke="black" points="500.937,-160.5 500.937,-178.5 619.773,-178.5 619.773,-160.5 500.937,-160.5"/>
<text text-anchor="middle" x="560.355" y="-166.5" font-family="Helvetica,sans-Serif" font-size="10.00">picojson::_parse_string</text>
</a>
</g>
</g>
<!-- Node25&#45;&gt;Node26 -->
<g id="edge8" class="edge"><title>Node25&#45;&gt;Node26</title>
<path fill="none" stroke="midnightblue" d="M465.365,-164.005C473.648,-164.49 482.208,-164.99 490.635,-165.483"/>
<polygon fill="midnightblue" stroke="midnightblue" points="490.632,-168.988 500.819,-166.078 491.041,-162 490.632,-168.988"/>
</g>
<!-- Node26&#45;&gt;Node22 -->
<g id="edge9" class="edge"><title>Node26&#45;&gt;Node22</title>
<path fill="none" stroke="midnightblue" d="M611.758,-160.47C687.828,-148.087 836.458,-128.746 962.279,-141.5 977.826,-143.076 994.617,-146.101 1009.58,-149.283"/>
<polygon fill="midnightblue" stroke="midnightblue" points="1009.1,-152.759 1019.62,-151.494 1010.6,-145.923 1009.1,-152.759"/>
</g>
<!-- Node26&#45;&gt;Node27 -->
<g id="edge10" class="edge"><title>Node26&#45;&gt;Node27</title>
<path fill="none" stroke="midnightblue" d="M585.199,-178.57C596.246,-183.348 609.229,-189.817 619.773,-197.5 638.576,-211.2 635.64,-223.844 655.773,-235.5 759.488,-295.545 904.163,-292.491 987.877,-284.034"/>
<polygon fill="midnightblue" stroke="midnightblue" points="988.453,-287.493 998.026,-282.952 987.711,-280.532 988.453,-287.493"/>
</g>
<!-- Node28 -->
<g id="node10" class="node"><title>Node28</title>
<g id="a_node10"><a xlink:href="namespacepicojson.html#a05316c2614f3e7a4559ce1d1003eb051" target="_top" xlink:title="picojson::_parse_codepoint">
<polygon fill="none" stroke="black" points="655.773,-208.5 655.773,-226.5 793.526,-226.5 793.526,-208.5 655.773,-208.5"/>
<text text-anchor="middle" x="724.65" y="-214.5" font-family="Helvetica,sans-Serif" font-size="10.00">picojson::_parse_codepoint</text>
</a>
</g>
</g>
<!-- Node26&#45;&gt;Node28 -->
<g id="edge11" class="edge"><title>Node26&#45;&gt;Node28</title>
<path fill="none" stroke="midnightblue" d="M591.881,-178.528C617.755,-186.181 655.06,-197.214 683.377,-205.589"/>
<polygon fill="midnightblue" stroke="midnightblue" points="682.403,-208.951 692.985,-208.431 684.388,-202.238 682.403,-208.951"/>
</g>
<!-- Node28&#45;&gt;Node22 -->
<g id="edge15" class="edge"><title>Node28&#45;&gt;Node22</title>
<path fill="none" stroke="midnightblue" d="M783.107,-208.497C831.074,-200.869 901.217,-189.455 962.279,-178.5 974.389,-176.328 987.364,-173.883 999.659,-171.512"/>
<polygon fill="midnightblue" stroke="midnightblue" points="1000.64,-174.887 1009.79,-169.546 999.309,-168.015 1000.64,-174.887"/>
</g>
<!-- Node28&#45;&gt;Node27 -->
<g id="edge16" class="edge"><title>Node28&#45;&gt;Node27</title>
<path fill="none" stroke="midnightblue" d="M746.281,-226.61C766.921,-235.299 799.79,-247.996 829.526,-254.5 881.891,-265.953 942.462,-270.879 987.635,-272.982"/>
<polygon fill="midnightblue" stroke="midnightblue" points="987.758,-276.491 997.9,-273.424 988.059,-269.497 987.758,-276.491"/>
</g>
<!-- Node29 -->
<g id="node11" class="node"><title>Node29</title>
<g id="a_node11"><a xlink:href="namespacepicojson.html#a92d4f60542bbdfe8203f10e1fcce9368" target="_top" xlink:title="picojson::_parse_quadhex">
<polygon fill="none" stroke="black" points="829.526,-227.5 829.526,-245.5 962.279,-245.5 962.279,-227.5 829.526,-227.5"/>
<text text-anchor="middle" x="895.903" y="-233.5" font-family="Helvetica,sans-Serif" font-size="10.00">picojson::_parse_quadhex</text>
</a>
</g>
</g>
<!-- Node28&#45;&gt;Node29 -->
<g id="edge12" class="edge"><title>Node28&#45;&gt;Node29</title>
<path fill="none" stroke="midnightblue" d="M794.004,-225.173C802.287,-226.103 810.787,-227.057 819.169,-227.998"/>
<polygon fill="midnightblue" stroke="midnightblue" points="818.985,-231.499 829.313,-229.137 819.766,-224.543 818.985,-231.499"/>
</g>
<!-- Node29&#45;&gt;Node22 -->
<g id="edge13" class="edge"><title>Node29&#45;&gt;Node22</title>
<path fill="none" stroke="midnightblue" d="M924.652,-227.412C936.428,-223.274 950.198,-218.061 962.279,-212.5 986.811,-201.208 1013.59,-185.841 1032.05,-174.744"/>
<polygon fill="midnightblue" stroke="midnightblue" points="1033.9,-177.71 1040.63,-169.526 1030.27,-171.728 1033.9,-177.71"/>
</g>
<!-- Node29&#45;&gt;Node27 -->
<g id="edge14" class="edge"><title>Node29&#45;&gt;Node27</title>
<path fill="none" stroke="midnightblue" d="M934.378,-245.505C956.355,-250.787 984.324,-257.508 1007.8,-263.149"/>
<polygon fill="midnightblue" stroke="midnightblue" points="1007.01,-266.56 1017.56,-265.493 1008.65,-259.754 1007.01,-266.56"/>
</g>
<!-- Node30&#45;&gt;Node22 -->
<g id="edge19" class="edge"><title>Node30&#45;&gt;Node22</title>
<path fill="none" stroke="midnightblue" d="M960.31,-160.5C971.249,-160.5 982.605,-160.5 993.494,-160.5"/>
<polygon fill="midnightblue" stroke="midnightblue" points="993.762,-164 1003.76,-160.5 993.762,-157 993.762,-164"/>
</g>
<!-- Node30&#45;&gt;Node27 -->
<g id="edge20" class="edge"><title>Node30&#45;&gt;Node27</title>
<path fill="none" stroke="midnightblue" d="M909.576,-169.636C936.756,-189.231 1000.88,-235.457 1034.16,-259.454"/>
<polygon fill="midnightblue" stroke="midnightblue" points="1032.14,-262.311 1042.3,-265.32 1036.24,-256.633 1032.14,-262.311"/>
</g>
<!-- Node32 -->
<g id="node14" class="node"><title>Node32</title>
<g id="a_node14"><a xlink:href="classpicojson_1_1value.html#a6e3ac589ed811603ef9dadc6f91c737d" target="_top" xlink:title="picojson::value::swap">
<polygon fill="none" stroke="black" points="348.875,-37.5 348.875,-55.5 459.929,-55.5 459.929,-37.5 348.875,-37.5"/>
<text text-anchor="middle" x="404.402" y="-43.5" font-family="Helvetica,sans-Serif" font-size="10.00">picojson::value::swap</text>
</a>
</g>
</g>
<!-- Node31&#45;&gt;Node32 -->
<g id="edge22" class="edge"><title>Node31&#45;&gt;Node32</title>
<path fill="none" stroke="midnightblue" d="M308.06,-46.5C318.203,-46.5 328.689,-46.5 338.832,-46.5"/>
<polygon fill="midnightblue" stroke="midnightblue" points="338.835,-50.0001 348.835,-46.5 338.835,-43.0001 338.835,-50.0001"/>
</g>
<!-- Node34 -->
<g id="node16" class="node"><title>Node34</title>
<g id="a_node16"><a xlink:href="classpicojson_1_1value.html#a445f8d1b335e7bcad6abd6c310b44c75" target="_top" xlink:title="picojson::value::value">
<polygon fill="none" stroke="black" points="348.595,-0.5 348.595,-18.5 460.21,-18.5 460.21,-0.5 348.595,-0.5"/>
<text text-anchor="middle" x="404.402" y="-6.5" font-family="Helvetica,sans-Serif" font-size="10.00">picojson::value::value</text>
</a>
</g>
</g>
<!-- Node31&#45;&gt;Node34 -->
<g id="edge25" class="edge"><title>Node31&#45;&gt;Node34</title>
<path fill="none" stroke="midnightblue" d="M282.594,-37.4488C304.264,-32.4356 331.402,-26.1571 354.466,-20.8215"/>
<polygon fill="midnightblue" stroke="midnightblue" points="355.452,-24.1858 364.406,-18.5218 353.874,-17.3659 355.452,-24.1858"/>
</g>
<!-- Node33 -->
<g id="node15" class="node"><title>Node33</title>
<g id="a_node15"><a xlink:href="namespacestd.html#abb7e41c7063536ff6eeee4bb5f66de6c" target="_top" xlink:title="std::swap">
<polygon fill="none" stroke="black" points="531.234,-37.5 531.234,-55.5 589.476,-55.5 589.476,-37.5 531.234,-37.5"/>
<text text-anchor="middle" x="560.355" y="-43.5" font-family="Helvetica,sans-Serif" font-size="10.00">std::swap</text>
</a>
</g>
</g>
<!-- Node32&#45;&gt;Node33 -->
<g id="edge23" class="edge"><title>Node32&#45;&gt;Node33</title>
<path fill="none" stroke="midnightblue" d="M460.114,-40.0075C480.292,-39.5284 502.704,-39.7178 521.117,-40.5757"/>
<polygon fill="midnightblue" stroke="midnightblue" points="520.991,-44.0741 531.171,-41.1395 521.383,-37.0851 520.991,-44.0741"/>
</g>
<!-- Node33&#45;&gt;Node32 -->
<g id="edge24" class="edge"><title>Node33&#45;&gt;Node32</title>
<path fill="none" stroke="midnightblue" d="M531.171,-51.8605C514.046,-53.0044 491.438,-53.442 470.119,-53.1733"/>
<polygon fill="midnightblue" stroke="midnightblue" points="470.175,-49.6739 460.114,-52.9925 470.049,-56.6727 470.175,-49.6739"/>
</g>
</g>
</svg>
