<?xml version="1.0" encoding="UTF-8" standalone="no"?>
<!DOCTYPE svg PUBLIC "-//W3C//DTD SVG 1.1//EN"
 "http://www.w3.org/Graphics/SVG/1.1/DTD/svg11.dtd">
<!-- Generated by graphviz version 2.38.0 (20140413.2041)
 -->
<!-- Title: picojson::value::operator= Pages: 1 -->
<svg width="316pt" height="84pt"
 viewBox="0.00 0.00 315.87 84.00" xmlns="http://www.w3.org/2000/svg" xmlns:xlink="http://www.w3.org/1999/xlink">
<g id="graph0" class="graph" transform="scale(1 1) rotate(0) translate(4 80)">
<title>picojson::value::operator=</title>
<!-- Node72 -->
<g id="node1" class="node"><title>Node72</title>
<polygon fill="#bfbfbf" stroke="black" points="0,-28.5 0,-46.5 130.795,-46.5 130.795,-28.5 0,-28.5"/>
<text text-anchor="middle" x="65.3975" y="-34.5" font-family="Helvetica,sans-Serif" font-size="10.00">picojson::value::operator=</text>
</g>
<!-- Node73 -->
<g id="node2" class="node"><title>Node73</title>
<g id="a_node2"><a xlink:href="classpicojson_1_1default__parse__context.html#adf71929b098e4f4b5c32222af149655a" target="_top" xlink:title="picojson::default_parse\l_context::parse_object_item">
<polygon fill="none" stroke="black" points="166.795,-47.5 166.795,-75.5 307.868,-75.5 307.868,-47.5 166.795,-47.5"/>
<text text-anchor="start" x="174.795" y="-63.5" font-family="Helvetica,sans-Serif" font-size="10.00">picojson::default_parse</text>
<text text-anchor="middle" x="237.332" y="-53.5" font-family="Helvetica,sans-Serif" font-size="10.00">_context::parse_object_item</text>
</a>
</g>
</g>
<!-- Node72&#45;&gt;Node73 -->
<g id="edge1" class="edge"><title>Node72&#45;&gt;Node73</title>
<path fill="none" stroke="midnightblue" d="M140.288,-47.9356C148.998,-49.1658 157.866,-50.4182 166.517,-51.6401"/>
<polygon fill="midnightblue" stroke="midnightblue" points="140.549,-44.4379 130.158,-46.505 139.57,-51.3691 140.549,-44.4379"/>
</g>
<!-- Node74 -->
<g id="node3" class="node"><title>Node74</title>
<g id="a_node3"><a xlink:href="classpicojson_1_1null__parse__context.html#a97c4b81a984ea473fe56e09aed7b9ca6" target="_top" xlink:title="picojson::null_parse\l_context::parse_object_item">
<polygon fill="none" stroke="black" points="166.795,-0.5 166.795,-28.5 307.868,-28.5 307.868,-0.5 166.795,-0.5"/>
<text text-anchor="start" x="174.795" y="-16.5" font-family="Helvetica,sans-Serif" font-size="10.00">picojson::null_parse</text>
<text text-anchor="middle" x="237.332" y="-6.5" font-family="Helvetica,sans-Serif" font-size="10.00">_context::parse_object_item</text>
</a>
</g>
</g>
<!-- Node72&#45;&gt;Node74 -->
<g id="edge2" class="edge"><title>Node72&#45;&gt;Node74</title>
<path fill="none" stroke="midnightblue" d="M141.047,-27.3965C149.57,-26.2429 158.234,-25.0703 166.688,-23.926"/>
<polygon fill="midnightblue" stroke="midnightblue" points="140.567,-23.9294 131.127,-28.7391 141.506,-30.8661 140.567,-23.9294"/>
</g>
</g>
</svg>
