<?xml version="1.0" encoding="UTF-8" standalone="no"?>
<!DOCTYPE svg PUBLIC "-//W3C//DTD SVG 1.1//EN"
 "http://www.w3.org/Graphics/SVG/1.1/DTD/svg11.dtd">
<!-- Generated by graphviz version 2.38.0 (20140413.2041)
 -->
<!-- Title: SpriteAtlas::getSprite Pages: 1 -->
<svg width="256pt" height="101pt"
 viewBox="0.00 0.00 255.55 101.00" xmlns="http://www.w3.org/2000/svg" xmlns:xlink="http://www.w3.org/1999/xlink">
<g id="graph0" class="graph" transform="scale(1 1) rotate(0) translate(4 97)">
<title>SpriteAtlas::getSprite</title>
<!-- Node4 -->
<g id="node1" class="node"><title>Node4</title>
<polygon fill="#bfbfbf" stroke="black" points="0,-37.5 0,-55.5 109.936,-55.5 109.936,-37.5 0,-37.5"/>
<text text-anchor="middle" x="54.9678" y="-43.5" font-family="Helvetica,sans-Serif" font-size="10.00">SpriteAtlas::getSprite</text>
</g>
<!-- Node5 -->
<g id="node2" class="node"><title>Node5</title>
<g id="a_node2"><a xlink:href="_utility_8cpp.html#a3a77b53fd21a7d7406656070d3bc5699" target="_top" xlink:title="readFileAsString">
<polygon fill="none" stroke="black" points="151.78,-74.5 151.78,-92.5 241.701,-92.5 241.701,-74.5 151.78,-74.5"/>
<text text-anchor="middle" x="196.741" y="-80.5" font-family="Helvetica,sans-Serif" font-size="10.00">readFileAsString</text>
</a>
</g>
</g>
<!-- Node4&#45;&gt;Node5 -->
<g id="edge1" class="edge"><title>Node4&#45;&gt;Node5</title>
<path fill="none" stroke="midnightblue" d="M90.1601,-55.5512C108.689,-60.4562 131.794,-66.5724 151.662,-71.8317"/>
<polygon fill="midnightblue" stroke="midnightblue" points="150.854,-75.2384 161.417,-74.414 152.646,-68.4714 150.854,-75.2384"/>
</g>
<!-- Node6 -->
<g id="node3" class="node"><title>Node6</title>
<g id="a_node3"><a xlink:href="namespacepicojson.html#a3aca598f5855bc130a92a3e08a0c6ebf" target="_top" xlink:title="picojson::parse">
<polygon fill="none" stroke="black" points="155.11,-37.5 155.11,-55.5 238.371,-55.5 238.371,-37.5 155.11,-37.5"/>
<text text-anchor="middle" x="196.741" y="-43.5" font-family="Helvetica,sans-Serif" font-size="10.00">picojson::parse</text>
</a>
</g>
</g>
<!-- Node4&#45;&gt;Node6 -->
<g id="edge2" class="edge"><title>Node4&#45;&gt;Node6</title>
<path fill="none" stroke="midnightblue" d="M110.008,-46.5C121.418,-46.5 133.423,-46.5 144.718,-46.5"/>
<polygon fill="midnightblue" stroke="midnightblue" points="144.853,-50.0001 154.853,-46.5 144.853,-43.0001 144.853,-50.0001"/>
</g>
<!-- Node7 -->
<g id="node4" class="node"><title>Node7</title>
<g id="a_node4"><a xlink:href="classpicojson_1_1value.html#a6a1099de1eb4f070445dc3eadb843a92" target="_top" xlink:title="picojson::value::get">
<polygon fill="none" stroke="black" points="145.936,-0.5 145.936,-18.5 247.546,-18.5 247.546,-0.5 145.936,-0.5"/>
<text text-anchor="middle" x="196.741" y="-6.5" font-family="Helvetica,sans-Serif" font-size="10.00">picojson::value::get</text>
</a>
</g>
</g>
<!-- Node4&#45;&gt;Node7 -->
<g id="edge3" class="edge"><title>Node4&#45;&gt;Node7</title>
<path fill="none" stroke="midnightblue" d="M90.1601,-37.4488C108.689,-32.5438 131.794,-26.4276 151.662,-21.1683"/>
<polygon fill="midnightblue" stroke="midnightblue" points="152.646,-24.5286 161.417,-18.586 150.854,-17.7616 152.646,-24.5286"/>
</g>
</g>
</svg>
