<?xml version="1.0" encoding="UTF-8" standalone="no"?>
<!DOCTYPE svg PUBLIC "-//W3C//DTD SVG 1.1//EN"
 "http://www.w3.org/Graphics/SVG/1.1/DTD/svg11.dtd">
<!-- Generated by graphviz version 2.38.0 (20140413.2041)
 -->
<!-- Title: Renderer Pages: 1 -->
<svg width="128pt" height="376pt"
 viewBox="0.00 0.00 128.42 376.00" xmlns="http://www.w3.org/2000/svg" xmlns:xlink="http://www.w3.org/1999/xlink">
<g id="graph0" class="graph" transform="scale(1 1) rotate(0) translate(4 372)">
<title>Renderer</title>
<!-- Node2 -->
<g id="node1" class="node"><title>Node2</title>
<polygon fill="#bfbfbf" stroke="black" points="18.7573,-0.5 18.7573,-94.5 97.5649,-94.5 97.5649,-0.5 18.7573,-0.5"/>
<text text-anchor="middle" x="58.1611" y="-82.5" font-family="Helvetica,sans-Serif" font-size="10.00">Renderer</text>
<polyline fill="none" stroke="black" points="18.7573,-76.5 97.5649,-76.5 "/>
<text text-anchor="start" x="26.7573" y="-64.5" font-family="Helvetica,sans-Serif" font-size="10.00">+ mesh</text>
<text text-anchor="start" x="26.7573" y="-54.5" font-family="Helvetica,sans-Serif" font-size="10.00">+ shader</text>
<text text-anchor="start" x="26.7573" y="-44.5" font-family="Helvetica,sans-Serif" font-size="10.00">+ color</text>
<polyline fill="none" stroke="black" points="18.7573,-38.5 97.5649,-38.5 "/>
<text text-anchor="start" x="26.7573" y="-26.5" font-family="Helvetica,sans-Serif" font-size="10.00">+ ~Renderer()</text>
<text text-anchor="start" x="26.7573" y="-16.5" font-family="Helvetica,sans-Serif" font-size="10.00">+ draw()</text>
<text text-anchor="start" x="26.7573" y="-6.5" font-family="Helvetica,sans-Serif" font-size="10.00"># Renderer()</text>
</g>
<!-- Node3 -->
<g id="node2" class="node"><title>Node3</title>
<g id="a_node2"><a xlink:href="class_component.html" target="_top" xlink:title="{Component\n|# name\l|+ ~Component()\l+ getGameObject()\l+ getName()\l# Component()\l}">
<polygon fill="none" stroke="black" points="7.50488,-132.5 7.50488,-216.5 108.817,-216.5 108.817,-132.5 7.50488,-132.5"/>
<text text-anchor="middle" x="58.1611" y="-204.5" font-family="Helvetica,sans-Serif" font-size="10.00">Component</text>
<polyline fill="none" stroke="black" points="7.50488,-198.5 108.817,-198.5 "/>
<text text-anchor="start" x="15.5049" y="-186.5" font-family="Helvetica,sans-Serif" font-size="10.00"># name</text>
<polyline fill="none" stroke="black" points="7.50488,-180.5 108.817,-180.5 "/>
<text text-anchor="start" x="15.5049" y="-168.5" font-family="Helvetica,sans-Serif" font-size="10.00">+ ~Component()</text>
<text text-anchor="start" x="15.5049" y="-158.5" font-family="Helvetica,sans-Serif" font-size="10.00">+ getGameObject()</text>
<text text-anchor="start" x="15.5049" y="-148.5" font-family="Helvetica,sans-Serif" font-size="10.00">+ getName()</text>
<text text-anchor="start" x="15.5049" y="-138.5" font-family="Helvetica,sans-Serif" font-size="10.00"># Component()</text>
</a>
</g>
</g>
<!-- Node3&#45;&gt;Node2 -->
<g id="edge1" class="edge"><title>Node3&#45;&gt;Node2</title>
<path fill="none" stroke="midnightblue" d="M58.1611,-122.202C58.1611,-113.167 58.1611,-103.81 58.1611,-94.9177"/>
<polygon fill="none" stroke="midnightblue" points="54.6612,-122.224 58.1611,-132.224 61.6612,-122.224 54.6612,-122.224"/>
</g>
<!-- Node4 -->
<g id="node3" class="node"><title>Node4</title>
<g id="a_node3"><a xlink:href="class_game_object.html" target="_top" xlink:title="{GameObject\n||+ ~GameObject()\l+ getName()\l+ addComponent()\l+ removeComponent()\l+ getComponent()\l+ getComponents()\l}">
<polygon fill="none" stroke="black" points="0,-263.5 0,-367.5 116.322,-367.5 116.322,-263.5 0,-263.5"/>
<text text-anchor="middle" x="58.1611" y="-355.5" font-family="Helvetica,sans-Serif" font-size="10.00">GameObject</text>
<polyline fill="none" stroke="black" points="0,-349.5 116.322,-349.5 "/>
<text text-anchor="middle" x="58.1611" y="-337.5" font-family="Helvetica,sans-Serif" font-size="10.00"> </text>
<polyline fill="none" stroke="black" points="0,-331.5 116.322,-331.5 "/>
<text text-anchor="start" x="8" y="-319.5" font-family="Helvetica,sans-Serif" font-size="10.00">+ ~GameObject()</text>
<text text-anchor="start" x="8" y="-309.5" font-family="Helvetica,sans-Serif" font-size="10.00">+ getName()</text>
<text text-anchor="start" x="8" y="-299.5" font-family="Helvetica,sans-Serif" font-size="10.00">+ addComponent()</text>
<text text-anchor="start" x="8" y="-289.5" font-family="Helvetica,sans-Serif" font-size="10.00">+ removeComponent()</text>
<text text-anchor="start" x="8" y="-279.5" font-family="Helvetica,sans-Serif" font-size="10.00">+ getComponent()</text>
<text text-anchor="start" x="8" y="-269.5" font-family="Helvetica,sans-Serif" font-size="10.00">+ getComponents()</text>
</a>
</g>
</g>
<!-- Node4&#45;&gt;Node3 -->
<g id="edge2" class="edge"><title>Node4&#45;&gt;Node3</title>
<path fill="none" stroke="#404040" d="M58.1611,-263.136C58.1611,-252.011 58.1611,-240.219 58.1611,-229.013"/>
<polygon fill="none" stroke="#404040" points="58.1612,-228.677 54.1612,-222.677 58.1611,-216.677 62.1612,-222.677 58.1612,-228.677"/>
<text text-anchor="middle" x="89.2891" y="-237" font-family="Helvetica,sans-Serif" font-size="10.00"> #gameObject</text>
</g>
</g>
</svg>
