<?xml version="1.0" encoding="UTF-8" standalone="no"?>
<!DOCTYPE svg PUBLIC "-//W3C//DTD SVG 1.1//EN"
 "http://www.w3.org/Graphics/SVG/1.1/DTD/svg11.dtd">
<!-- Generated by graphviz version 2.38.0 (20140413.2041)
 -->
<!-- Title: picojson::value::serialize Pages: 1 -->
<svg width="443pt" height="69pt"
 viewBox="0.00 0.00 442.88 69.00" xmlns="http://www.w3.org/2000/svg" xmlns:xlink="http://www.w3.org/1999/xlink">
<g id="graph0" class="graph" transform="scale(1 1) rotate(0) translate(4 65)">
<title>picojson::value::serialize</title>
<!-- Node76 -->
<g id="node1" class="node"><title>Node76</title>
<polygon fill="#bfbfbf" stroke="black" points="0,-23.5 0,-41.5 124.389,-41.5 124.389,-23.5 0,-23.5"/>
<text text-anchor="middle" x="62.1943" y="-29.5" font-family="Helvetica,sans-Serif" font-size="10.00">picojson::value::serialize</text>
</g>
<!-- Node77 -->
<g id="node2" class="node"><title>Node77</title>
<g id="a_node2"><a xlink:href="picojson_8h.html#ae000f94f3fb356f344328397f609928d" target="_top" xlink:title="operator\&lt;\&lt;">
<polygon fill="none" stroke="black" points="193.177,-42.5 193.177,-60.5 258.103,-60.5 258.103,-42.5 193.177,-42.5"/>
<text text-anchor="middle" x="225.64" y="-48.5" font-family="Helvetica,sans-Serif" font-size="10.00">operator&lt;&lt;</text>
</a>
</g>
</g>
<!-- Node76&#45;&gt;Node77 -->
<g id="edge1" class="edge"><title>Node76&#45;&gt;Node77</title>
<path fill="none" stroke="midnightblue" d="M134.652,-40.9096C155.122,-43.3187 176.399,-45.8227 193.121,-47.7906"/>
<polygon fill="midnightblue" stroke="midnightblue" points="135.031,-37.4302 124.69,-39.7373 134.213,-44.3822 135.031,-37.4302"/>
</g>
<!-- Node78 -->
<g id="node3" class="node"><title>Node78</title>
<g id="a_node3"><a xlink:href="class_player_pref_manager.html#ad78d4d453c62d136f8d8d5d09e2156dd" target="_top" xlink:title="PlayerPrefManager::Save">
<polygon fill="none" stroke="black" points="160.389,-5.5 160.389,-23.5 290.891,-23.5 290.891,-5.5 160.389,-5.5"/>
<text text-anchor="middle" x="225.64" y="-11.5" font-family="Helvetica,sans-Serif" font-size="10.00">PlayerPrefManager::Save</text>
</a>
</g>
</g>
<!-- Node76&#45;&gt;Node78 -->
<g id="edge2" class="edge"><title>Node76&#45;&gt;Node78</title>
<path fill="none" stroke="midnightblue" d="M134.652,-24.533C143.212,-23.5786 151.913,-22.6084 160.364,-21.6663"/>
<polygon fill="midnightblue" stroke="midnightblue" points="134.241,-21.057 124.69,-25.6436 135.017,-28.0139 134.241,-21.057"/>
</g>
<!-- Node79 -->
<g id="node4" class="node"><title>Node79</title>
<g id="a_node4"><a xlink:href="class_player_pref_manager.html#a594e8fd11a2a5476a8a06e53253214bb" target="_top" xlink:title="PlayerPrefManager::\l~PlayerPrefManager">
<polygon fill="none" stroke="black" points="326.891,-0.5 326.891,-28.5 434.883,-28.5 434.883,-0.5 326.891,-0.5"/>
<text text-anchor="start" x="334.891" y="-16.5" font-family="Helvetica,sans-Serif" font-size="10.00">PlayerPrefManager::</text>
<text text-anchor="middle" x="380.887" y="-6.5" font-family="Helvetica,sans-Serif" font-size="10.00">~PlayerPrefManager</text>
</a>
</g>
</g>
<!-- Node78&#45;&gt;Node79 -->
<g id="edge3" class="edge"><title>Node78&#45;&gt;Node79</title>
<path fill="none" stroke="midnightblue" d="M301.192,-14.5C309.75,-14.5 318.344,-14.5 326.544,-14.5"/>
<polygon fill="midnightblue" stroke="midnightblue" points="301.186,-11.0001 291.186,-14.5 301.186,-18.0001 301.186,-11.0001"/>
</g>
</g>
</svg>
