<?xml version="1.0" encoding="UTF-8" standalone="no"?>
<!DOCTYPE svg PUBLIC "-//W3C//DTD SVG 1.1//EN"
 "http://www.w3.org/Graphics/SVG/1.1/DTD/svg11.dtd">
<!-- Generated by graphviz version 2.38.0 (20140413.2041)
 -->
<!-- Title: Renderer::draw Pages: 1 -->
<svg width="436pt" height="45pt"
 viewBox="0.00 0.00 436.07 45.00" xmlns="http://www.w3.org/2000/svg" xmlns:xlink="http://www.w3.org/1999/xlink">
<g id="graph0" class="graph" transform="scale(1 1) rotate(0) translate(4 41)">
<title>Renderer::draw</title>
<!-- Node5 -->
<g id="node1" class="node"><title>Node5</title>
<polygon fill="#bfbfbf" stroke="black" points="0,-0.5 0,-18.5 84.9209,-18.5 84.9209,-0.5 0,-0.5"/>
<text text-anchor="middle" x="42.4604" y="-6.5" font-family="Helvetica,sans-Serif" font-size="10.00">Renderer::draw</text>
</g>
<!-- Node6 -->
<g id="node2" class="node"><title>Node6</title>
<g id="a_node2"><a xlink:href="class_transform.html#a35e627aa09604bf3a81f4c07d28205f3" target="_top" xlink:title="Transform::globalTransform">
<polygon fill="none" stroke="black" points="120.921,-0.5 120.921,-18.5 259.558,-18.5 259.558,-0.5 120.921,-0.5"/>
<text text-anchor="middle" x="190.239" y="-6.5" font-family="Helvetica,sans-Serif" font-size="10.00">Transform::globalTransform</text>
</a>
</g>
</g>
<!-- Node5&#45;&gt;Node6 -->
<g id="edge1" class="edge"><title>Node5&#45;&gt;Node6</title>
<path fill="none" stroke="midnightblue" d="M85.2348,-9.5C93.2172,-9.5 101.812,-9.5 110.519,-9.5"/>
<polygon fill="midnightblue" stroke="midnightblue" points="110.762,-13.0001 120.762,-9.5 110.762,-6.0001 110.762,-13.0001"/>
</g>
<!-- Node6&#45;&gt;Node6 -->
<g id="edge2" class="edge"><title>Node6&#45;&gt;Node6</title>
<path fill="none" stroke="midnightblue" d="M168.485,-18.5134C156.468,-27.322 163.72,-37 190.239,-37 208.057,-37 217.177,-32.6312 217.599,-27.0926"/>
<polygon fill="midnightblue" stroke="midnightblue" points="220.393,-24.9706 211.994,-18.5134 214.533,-28.7994 220.393,-24.9706"/>
</g>
<!-- Node7 -->
<g id="node3" class="node"><title>Node7</title>
<g id="a_node3"><a xlink:href="class_transform.html#a8b85abc03488f58bef8bb78df77c1689" target="_top" xlink:title="Transform::localTransform">
<polygon fill="none" stroke="black" points="295.558,-0.5 295.558,-18.5 428.071,-18.5 428.071,-0.5 295.558,-0.5"/>
<text text-anchor="middle" x="361.814" y="-6.5" font-family="Helvetica,sans-Serif" font-size="10.00">Transform::localTransform</text>
</a>
</g>
</g>
<!-- Node6&#45;&gt;Node7 -->
<g id="edge3" class="edge"><title>Node6&#45;&gt;Node7</title>
<path fill="none" stroke="midnightblue" d="M259.723,-9.5C268.088,-9.5 276.673,-9.5 285.135,-9.5"/>
<polygon fill="midnightblue" stroke="midnightblue" points="285.374,-13.0001 295.374,-9.5 285.374,-6.0001 285.374,-13.0001"/>
</g>
</g>
</svg>
