<?xml version="1.0" encoding="UTF-8" standalone="no"?>
<!DOCTYPE svg PUBLIC "-//W3C//DTD SVG 1.1//EN"
 "http://www.w3.org/Graphics/SVG/1.1/DTD/svg11.dtd">
<!-- Generated by graphviz version 2.38.0 (20140413.2041)
 -->
<!-- Title: ParticleController Pages: 1 -->
<svg width="128pt" height="568pt"
 viewBox="0.00 0.00 128.42 568.00" xmlns="http://www.w3.org/2000/svg" xmlns:xlink="http://www.w3.org/1999/xlink">
<g id="graph0" class="graph" transform="scale(1 1) rotate(0) translate(4 564)">
<title>ParticleController</title>
<!-- Node3 -->
<g id="node1" class="node"><title>Node3</title>
<polygon fill="#bfbfbf" stroke="black" points="4.31396,-0.5 4.31396,-84.5 112.008,-84.5 112.008,-0.5 4.31396,-0.5"/>
<text text-anchor="middle" x="58.1611" y="-72.5" font-family="Helvetica,sans-Serif" font-size="10.00">ParticleController</text>
<polyline fill="none" stroke="black" points="4.31396,-66.5 112.008,-66.5 "/>
<text text-anchor="start" x="12.314" y="-54.5" font-family="Helvetica,sans-Serif" font-size="10.00">+ timePassed</text>
<polyline fill="none" stroke="black" points="4.31396,-48.5 112.008,-48.5 "/>
<text text-anchor="start" x="12.314" y="-36.5" font-family="Helvetica,sans-Serif" font-size="10.00">+ Awake()</text>
<text text-anchor="start" x="12.314" y="-26.5" font-family="Helvetica,sans-Serif" font-size="10.00">+ Update()</text>
<text text-anchor="start" x="12.314" y="-16.5" font-family="Helvetica,sans-Serif" font-size="10.00">+ Start()</text>
<text text-anchor="start" x="12.314" y="-6.5" font-family="Helvetica,sans-Serif" font-size="10.00"># ParticleController()</text>
</g>
<!-- Node4 -->
<g id="node2" class="node"><title>Node4</title>
<g id="a_node2"><a xlink:href="class_scriptable.html" target="_top" xlink:title="{Scriptable\n||+ Awake()\l+ Update()\l+ Start()\l+ OnCollisionEnter()\l+ OnCollisionExit()\l+ Awake()\l+ Update()\l+ Start()\l+ OnCollisionEnter()\l+ OnCollisionExit()\l# Scriptable()\l# Scriptable()\l}">
<polygon fill="none" stroke="black" points="5.00488,-122.5 5.00488,-286.5 111.317,-286.5 111.317,-122.5 5.00488,-122.5"/>
<text text-anchor="middle" x="58.1611" y="-274.5" font-family="Helvetica,sans-Serif" font-size="10.00">Scriptable</text>
<polyline fill="none" stroke="black" points="5.00488,-268.5 111.317,-268.5 "/>
<text text-anchor="middle" x="58.1611" y="-256.5" font-family="Helvetica,sans-Serif" font-size="10.00"> </text>
<polyline fill="none" stroke="black" points="5.00488,-250.5 111.317,-250.5 "/>
<text text-anchor="start" x="13.0049" y="-238.5" font-family="Helvetica,sans-Serif" font-size="10.00">+ Awake()</text>
<text text-anchor="start" x="13.0049" y="-228.5" font-family="Helvetica,sans-Serif" font-size="10.00">+ Update()</text>
<text text-anchor="start" x="13.0049" y="-218.5" font-family="Helvetica,sans-Serif" font-size="10.00">+ Start()</text>
<text text-anchor="start" x="13.0049" y="-208.5" font-family="Helvetica,sans-Serif" font-size="10.00">+ OnCollisionEnter()</text>
<text text-anchor="start" x="13.0049" y="-198.5" font-family="Helvetica,sans-Serif" font-size="10.00">+ OnCollisionExit()</text>
<text text-anchor="start" x="13.0049" y="-188.5" font-family="Helvetica,sans-Serif" font-size="10.00">+ Awake()</text>
<text text-anchor="start" x="13.0049" y="-178.5" font-family="Helvetica,sans-Serif" font-size="10.00">+ Update()</text>
<text text-anchor="start" x="13.0049" y="-168.5" font-family="Helvetica,sans-Serif" font-size="10.00">+ Start()</text>
<text text-anchor="start" x="13.0049" y="-158.5" font-family="Helvetica,sans-Serif" font-size="10.00">+ OnCollisionEnter()</text>
<text text-anchor="start" x="13.0049" y="-148.5" font-family="Helvetica,sans-Serif" font-size="10.00">+ OnCollisionExit()</text>
<text text-anchor="start" x="13.0049" y="-138.5" font-family="Helvetica,sans-Serif" font-size="10.00"># Scriptable()</text>
<text text-anchor="start" x="13.0049" y="-128.5" font-family="Helvetica,sans-Serif" font-size="10.00"># Scriptable()</text>
</a>
</g>
</g>
<!-- Node4&#45;&gt;Node3 -->
<g id="edge1" class="edge"><title>Node4&#45;&gt;Node3</title>
<path fill="none" stroke="midnightblue" d="M58.1611,-111.795C58.1611,-102.36 58.1611,-93.1478 58.1611,-84.6975"/>
<polygon fill="none" stroke="midnightblue" points="54.6612,-112.094 58.1611,-122.094 61.6612,-112.094 54.6612,-112.094"/>
</g>
<!-- Node5 -->
<g id="node3" class="node"><title>Node5</title>
<g id="a_node3"><a xlink:href="class_component.html" target="_top" xlink:title="{Component\n|# name\l|+ ~Component()\l+ getGameObject()\l+ getName()\l# Component()\l}">
<polygon fill="none" stroke="black" points="7.50488,-324.5 7.50488,-408.5 108.817,-408.5 108.817,-324.5 7.50488,-324.5"/>
<text text-anchor="middle" x="58.1611" y="-396.5" font-family="Helvetica,sans-Serif" font-size="10.00">Component</text>
<polyline fill="none" stroke="black" points="7.50488,-390.5 108.817,-390.5 "/>
<text text-anchor="start" x="15.5049" y="-378.5" font-family="Helvetica,sans-Serif" font-size="10.00"># name</text>
<polyline fill="none" stroke="black" points="7.50488,-372.5 108.817,-372.5 "/>
<text text-anchor="start" x="15.5049" y="-360.5" font-family="Helvetica,sans-Serif" font-size="10.00">+ ~Component()</text>
<text text-anchor="start" x="15.5049" y="-350.5" font-family="Helvetica,sans-Serif" font-size="10.00">+ getGameObject()</text>
<text text-anchor="start" x="15.5049" y="-340.5" font-family="Helvetica,sans-Serif" font-size="10.00">+ getName()</text>
<text text-anchor="start" x="15.5049" y="-330.5" font-family="Helvetica,sans-Serif" font-size="10.00"># Component()</text>
</a>
</g>
</g>
<!-- Node5&#45;&gt;Node4 -->
<g id="edge2" class="edge"><title>Node5&#45;&gt;Node4</title>
<path fill="none" stroke="midnightblue" d="M51.8137,-314.222C51.5561,-305.404 51.4221,-296.05 51.4118,-286.674"/>
<polygon fill="none" stroke="midnightblue" points="48.3187,-314.427 52.1729,-324.296 55.3142,-314.178 48.3187,-314.427"/>
</g>
<!-- Node5&#45;&gt;Node4 -->
<g id="edge4" class="edge"><title>Node5&#45;&gt;Node4</title>
<path fill="none" stroke="midnightblue" d="M64.5086,-314.222C64.7662,-305.404 64.9002,-296.05 64.9105,-286.674"/>
<polygon fill="none" stroke="midnightblue" points="61.008,-314.178 64.1494,-324.296 68.0036,-314.427 61.008,-314.178"/>
</g>
<!-- Node6 -->
<g id="node4" class="node"><title>Node6</title>
<g id="a_node4"><a xlink:href="class_game_object.html" target="_top" xlink:title="{GameObject\n||+ ~GameObject()\l+ getName()\l+ addComponent()\l+ removeComponent()\l+ getComponent()\l+ getComponents()\l}">
<polygon fill="none" stroke="black" points="0,-455.5 0,-559.5 116.322,-559.5 116.322,-455.5 0,-455.5"/>
<text text-anchor="middle" x="58.1611" y="-547.5" font-family="Helvetica,sans-Serif" font-size="10.00">GameObject</text>
<polyline fill="none" stroke="black" points="0,-541.5 116.322,-541.5 "/>
<text text-anchor="middle" x="58.1611" y="-529.5" font-family="Helvetica,sans-Serif" font-size="10.00"> </text>
<polyline fill="none" stroke="black" points="0,-523.5 116.322,-523.5 "/>
<text text-anchor="start" x="8" y="-511.5" font-family="Helvetica,sans-Serif" font-size="10.00">+ ~GameObject()</text>
<text text-anchor="start" x="8" y="-501.5" font-family="Helvetica,sans-Serif" font-size="10.00">+ getName()</text>
<text text-anchor="start" x="8" y="-491.5" font-family="Helvetica,sans-Serif" font-size="10.00">+ addComponent()</text>
<text text-anchor="start" x="8" y="-481.5" font-family="Helvetica,sans-Serif" font-size="10.00">+ removeComponent()</text>
<text text-anchor="start" x="8" y="-471.5" font-family="Helvetica,sans-Serif" font-size="10.00">+ getComponent()</text>
<text text-anchor="start" x="8" y="-461.5" font-family="Helvetica,sans-Serif" font-size="10.00">+ getComponents()</text>
</a>
</g>
</g>
<!-- Node6&#45;&gt;Node5 -->
<g id="edge3" class="edge"><title>Node6&#45;&gt;Node5</title>
<path fill="none" stroke="#404040" d="M58.1611,-455.136C58.1611,-444.011 58.1611,-432.219 58.1611,-421.013"/>
<polygon fill="none" stroke="#404040" points="58.1612,-420.677 54.1612,-414.677 58.1611,-408.677 62.1612,-414.677 58.1612,-420.677"/>
<text text-anchor="middle" x="89.2891" y="-429" font-family="Helvetica,sans-Serif" font-size="10.00"> #gameObject</text>
</g>
</g>
</svg>
