<?xml version="1.0" encoding="UTF-8" standalone="no"?>
<!DOCTYPE svg PUBLIC "-//W3C//DTD SVG 1.1//EN"
 "http://www.w3.org/Graphics/SVG/1.1/DTD/svg11.dtd">
<!-- Generated by graphviz version 2.38.0 (20140413.2041)
 -->
<!-- Title: Renderer Pages: 1 -->
<svg width="109pt" height="244pt"
 viewBox="0.00 0.00 109.31 244.00" xmlns="http://www.w3.org/2000/svg" xmlns:xlink="http://www.w3.org/1999/xlink">
<g id="graph0" class="graph" transform="scale(1 1) rotate(0) translate(4 240)">
<title>Renderer</title>
<!-- Node0 -->
<g id="node1" class="node"><title>Node0</title>
<polygon fill="#bfbfbf" stroke="black" points="11.2524,-0.5 11.2524,-104.5 90.0601,-104.5 90.0601,-0.5 11.2524,-0.5"/>
<text text-anchor="middle" x="50.6562" y="-92.5" font-family="Helvetica,sans-Serif" font-size="10.00">Renderer</text>
<polyline fill="none" stroke="black" points="11.2524,-86.5 90.0601,-86.5 "/>
<text text-anchor="start" x="19.2524" y="-74.5" font-family="Helvetica,sans-Serif" font-size="10.00">+ mesh</text>
<text text-anchor="start" x="19.2524" y="-64.5" font-family="Helvetica,sans-Serif" font-size="10.00">+ shader</text>
<text text-anchor="start" x="19.2524" y="-54.5" font-family="Helvetica,sans-Serif" font-size="10.00">+ color</text>
<text text-anchor="start" x="19.2524" y="-44.5" font-family="Helvetica,sans-Serif" font-size="10.00">+ texture</text>
<polyline fill="none" stroke="black" points="11.2524,-38.5 90.0601,-38.5 "/>
<text text-anchor="start" x="19.2524" y="-26.5" font-family="Helvetica,sans-Serif" font-size="10.00">+ ~Renderer()</text>
<text text-anchor="start" x="19.2524" y="-16.5" font-family="Helvetica,sans-Serif" font-size="10.00">+ draw()</text>
<text text-anchor="start" x="19.2524" y="-6.5" font-family="Helvetica,sans-Serif" font-size="10.00"># Renderer()</text>
</g>
<!-- Node1 -->
<g id="node2" class="node"><title>Node1</title>
<g id="a_node2"><a xlink:href="class_component.html" target="_top" xlink:title="{Component\n|# gameObject\l# name\l|+ ~Component()\l+ getGameObject()\l+ getName()\l# Component()\l}">
<polygon fill="none" stroke="black" points="0,-141.5 0,-235.5 101.312,-235.5 101.312,-141.5 0,-141.5"/>
<text text-anchor="middle" x="50.6562" y="-223.5" font-family="Helvetica,sans-Serif" font-size="10.00">Component</text>
<polyline fill="none" stroke="black" points="0,-217.5 101.312,-217.5 "/>
<text text-anchor="start" x="8" y="-205.5" font-family="Helvetica,sans-Serif" font-size="10.00"># gameObject</text>
<text text-anchor="start" x="8" y="-195.5" font-family="Helvetica,sans-Serif" font-size="10.00"># name</text>
<polyline fill="none" stroke="black" points="0,-189.5 101.312,-189.5 "/>
<text text-anchor="start" x="8" y="-177.5" font-family="Helvetica,sans-Serif" font-size="10.00">+ ~Component()</text>
<text text-anchor="start" x="8" y="-167.5" font-family="Helvetica,sans-Serif" font-size="10.00">+ getGameObject()</text>
<text text-anchor="start" x="8" y="-157.5" font-family="Helvetica,sans-Serif" font-size="10.00">+ getName()</text>
<text text-anchor="start" x="8" y="-147.5" font-family="Helvetica,sans-Serif" font-size="10.00"># Component()</text>
</a>
</g>
</g>
<!-- Node1&#45;&gt;Node0 -->
<g id="edge1" class="edge"><title>Node1&#45;&gt;Node0</title>
<path fill="none" stroke="midnightblue" d="M50.6562,-131.229C50.6562,-122.447 50.6562,-113.413 50.6562,-104.751"/>
<polygon fill="none" stroke="midnightblue" points="47.1563,-131.385 50.6562,-141.385 54.1563,-131.385 47.1563,-131.385"/>
</g>
</g>
</svg>
