<?xml version="1.0" encoding="UTF-8" standalone="no"?>
<!DOCTYPE svg PUBLIC "-//W3C//DTD SVG 1.1//EN"
 "http://www.w3.org/Graphics/SVG/1.1/DTD/svg11.dtd">
<!-- Generated by graphviz version 2.38.0 (20140413.2041)
 -->
<!-- Title: Rigidbody Pages: 1 -->
<svg width="109pt" height="214pt"
 viewBox="0.00 0.00 109.31 214.00" xmlns="http://www.w3.org/2000/svg" xmlns:xlink="http://www.w3.org/1999/xlink">
<g id="graph0" class="graph" transform="scale(1 1) rotate(0) translate(4 210)">
<title>Rigidbody</title>
<!-- Node0 -->
<g id="node1" class="node"><title>Node0</title>
<polygon fill="#bfbfbf" stroke="black" points="12.9199,-0.5 12.9199,-74.5 88.3926,-74.5 88.3926,-0.5 12.9199,-0.5"/>
<text text-anchor="middle" x="50.6562" y="-62.5" font-family="Helvetica,sans-Serif" font-size="10.00">Rigidbody</text>
<polyline fill="none" stroke="black" points="12.9199,-56.5 88.3926,-56.5 "/>
<text text-anchor="start" x="20.9199" y="-44.5" font-family="Helvetica,sans-Serif" font-size="10.00">+ bd</text>
<text text-anchor="start" x="20.9199" y="-34.5" font-family="Helvetica,sans-Serif" font-size="10.00">+ body</text>
<polyline fill="none" stroke="black" points="12.9199,-28.5 88.3926,-28.5 "/>
<text text-anchor="start" x="20.9199" y="-16.5" font-family="Helvetica,sans-Serif" font-size="10.00">+ Setup()</text>
<text text-anchor="start" x="20.9199" y="-6.5" font-family="Helvetica,sans-Serif" font-size="10.00"># Rigidbody()</text>
</g>
<!-- Node1 -->
<g id="node2" class="node"><title>Node1</title>
<g id="a_node2"><a xlink:href="class_component.html" target="_top" xlink:title="{Component\n|# gameObject\l# name\l|+ ~Component()\l+ getGameObject()\l+ getName()\l# Component()\l}">
<polygon fill="none" stroke="black" points="0,-111.5 0,-205.5 101.312,-205.5 101.312,-111.5 0,-111.5"/>
<text text-anchor="middle" x="50.6562" y="-193.5" font-family="Helvetica,sans-Serif" font-size="10.00">Component</text>
<polyline fill="none" stroke="black" points="0,-187.5 101.312,-187.5 "/>
<text text-anchor="start" x="8" y="-175.5" font-family="Helvetica,sans-Serif" font-size="10.00"># gameObject</text>
<text text-anchor="start" x="8" y="-165.5" font-family="Helvetica,sans-Serif" font-size="10.00"># name</text>
<polyline fill="none" stroke="black" points="0,-159.5 101.312,-159.5 "/>
<text text-anchor="start" x="8" y="-147.5" font-family="Helvetica,sans-Serif" font-size="10.00">+ ~Component()</text>
<text text-anchor="start" x="8" y="-137.5" font-family="Helvetica,sans-Serif" font-size="10.00">+ getGameObject()</text>
<text text-anchor="start" x="8" y="-127.5" font-family="Helvetica,sans-Serif" font-size="10.00">+ getName()</text>
<text text-anchor="start" x="8" y="-117.5" font-family="Helvetica,sans-Serif" font-size="10.00"># Component()</text>
</a>
</g>
</g>
<!-- Node1&#45;&gt;Node0 -->
<g id="edge1" class="edge"><title>Node1&#45;&gt;Node0</title>
<path fill="none" stroke="midnightblue" d="M50.6562,-101.379C50.6562,-92.3431 50.6562,-83.2032 50.6562,-74.7961"/>
<polygon fill="none" stroke="midnightblue" points="47.1563,-101.491 50.6562,-111.491 54.1563,-101.492 47.1563,-101.491"/>
</g>
</g>
</svg>
