<?xml version="1.0" encoding="UTF-8" standalone="no"?>
<!DOCTYPE svg PUBLIC "-//W3C//DTD SVG 1.1//EN"
 "http://www.w3.org/Graphics/SVG/1.1/DTD/svg11.dtd">
<!-- Generated by graphviz version 2.38.0 (20140413.2041)
 -->
<!-- Title: PhysicsManager Pages: 1 -->
<svg width="112pt" height="164pt"
 viewBox="0.00 0.00 111.54 164.00" xmlns="http://www.w3.org/2000/svg" xmlns:xlink="http://www.w3.org/1999/xlink">
<g id="graph0" class="graph" transform="scale(1 1) rotate(0) translate(4 160)">
<title>PhysicsManager</title>
<!-- Node2 -->
<g id="node1" class="node"><title>Node2</title>
<polygon fill="#bfbfbf" stroke="black" points="0,-0.5 0,-64.5 103.544,-64.5 103.544,-0.5 0,-0.5"/>
<text text-anchor="middle" x="51.772" y="-52.5" font-family="Helvetica,sans-Serif" font-size="10.00">PhysicsManager</text>
<polyline fill="none" stroke="black" points="0,-46.5 103.544,-46.5 "/>
<text text-anchor="start" x="8" y="-34.5" font-family="Helvetica,sans-Serif" font-size="10.00">+ world</text>
<text text-anchor="start" x="8" y="-24.5" font-family="Helvetica,sans-Serif" font-size="10.00">+ numFootContacts</text>
<polyline fill="none" stroke="black" points="0,-18.5 103.544,-18.5 "/>
<text text-anchor="start" x="8" y="-6.5" font-family="Helvetica,sans-Serif" font-size="10.00">+ Instance()</text>
</g>
<!-- Node3 -->
<g id="node2" class="node"><title>Node3</title>
<polygon fill="none" stroke="#bfbfbf" points="3.19092,-101.5 3.19092,-155.5 100.353,-155.5 100.353,-101.5 3.19092,-101.5"/>
<text text-anchor="middle" x="51.772" y="-143.5" font-family="Helvetica,sans-Serif" font-size="10.00">b2ContactListener</text>
<polyline fill="none" stroke="#bfbfbf" points="3.19092,-137.5 100.353,-137.5 "/>
<text text-anchor="middle" x="51.772" y="-125.5" font-family="Helvetica,sans-Serif" font-size="10.00"> </text>
<polyline fill="none" stroke="#bfbfbf" points="3.19092,-119.5 100.353,-119.5 "/>
<text text-anchor="middle" x="51.772" y="-107.5" font-family="Helvetica,sans-Serif" font-size="10.00"> </text>
</g>
<!-- Node3&#45;&gt;Node2 -->
<g id="edge1" class="edge"><title>Node3&#45;&gt;Node2</title>
<path fill="none" stroke="#8b1a1a" d="M51.772,-91.2838C51.772,-82.4601 51.772,-73.1003 51.772,-64.5417"/>
<polygon fill="none" stroke="#8b1a1a" points="48.2721,-91.3157 51.772,-101.316 55.2721,-91.3158 48.2721,-91.3157"/>
</g>
</g>
</svg>
