<?xml version="1.0" encoding="UTF-8" standalone="no"?>
<!DOCTYPE svg PUBLIC "-//W3C//DTD SVG 1.1//EN"
 "http://www.w3.org/Graphics/SVG/1.1/DTD/svg11.dtd">
<!-- Generated by graphviz version 2.38.0 (20140413.2041)
 -->
<!-- Title: GameObject::getComponent Pages: 1 -->
<svg width="347pt" height="212pt"
 viewBox="0.00 0.00 347.25 212.00" xmlns="http://www.w3.org/2000/svg" xmlns:xlink="http://www.w3.org/1999/xlink">
<g id="graph0" class="graph" transform="scale(1 1) rotate(0) translate(4 208)">
<title>GameObject::getComponent</title>
<!-- Node5 -->
<g id="node1" class="node"><title>Node5</title>
<polygon fill="#bfbfbf" stroke="black" points="0,-92.5 0,-110.5 143.29,-110.5 143.29,-92.5 0,-92.5"/>
<text text-anchor="middle" x="71.645" y="-98.5" font-family="Helvetica,sans-Serif" font-size="10.00">GameObject::getComponent</text>
</g>
<!-- Node6 -->
<g id="node2" class="node"><title>Node6</title>
<g id="a_node2"><a xlink:href="class_audio_source.html#a6d1aa7d3f704a9264b2877be2a99e9a1" target="_top" xlink:title="AudioSource::start">
<polygon fill="none" stroke="black" points="210.135,-185.5 210.135,-203.5 308.4,-203.5 308.4,-185.5 210.135,-185.5"/>
<text text-anchor="middle" x="259.268" y="-191.5" font-family="Helvetica,sans-Serif" font-size="10.00">AudioSource::start</text>
</a>
</g>
</g>
<!-- Node5&#45;&gt;Node6 -->
<g id="edge1" class="edge"><title>Node5&#45;&gt;Node6</title>
<path fill="none" stroke="midnightblue" d="M90.4182,-117.323C110.571,-134.431 145.088,-161.288 179.29,-176.5 188.927,-180.786 199.696,-184.106 210.107,-186.658"/>
<polygon fill="midnightblue" stroke="midnightblue" points="92.5566,-114.545 82.7037,-110.65 87.9772,-119.839 92.5566,-114.545"/>
</g>
<!-- Node7 -->
<g id="node3" class="node"><title>Node7</title>
<g id="a_node3"><a xlink:href="class_audio_source.html#acb9ed5f614745f447fe35745f638be93" target="_top" xlink:title="AudioSource::update">
<polygon fill="none" stroke="black" points="204.566,-148.5 204.566,-166.5 313.969,-166.5 313.969,-148.5 204.566,-148.5"/>
<text text-anchor="middle" x="259.268" y="-154.5" font-family="Helvetica,sans-Serif" font-size="10.00">AudioSource::update</text>
</a>
</g>
</g>
<!-- Node5&#45;&gt;Node7 -->
<g id="edge2" class="edge"><title>Node5&#45;&gt;Node7</title>
<path fill="none" stroke="midnightblue" d="M105.081,-114.185C126.048,-122.103 154.038,-132.151 179.29,-139.5 190.497,-142.761 202.739,-145.8 214.167,-148.418"/>
<polygon fill="midnightblue" stroke="midnightblue" points="106.277,-110.895 95.6866,-110.602 103.783,-117.436 106.277,-110.895"/>
</g>
<!-- Node8 -->
<g id="node4" class="node"><title>Node8</title>
<g id="a_node4"><a xlink:href="class_camera_handler.html#a251a11a9a678b6b6c2871be6abd7d9af" target="_top" xlink:title="CameraHandler::UpdateCamera">
<polygon fill="none" stroke="black" points="179.29,-111.5 179.29,-129.5 339.245,-129.5 339.245,-111.5 179.29,-111.5"/>
<text text-anchor="middle" x="259.268" y="-117.5" font-family="Helvetica,sans-Serif" font-size="10.00">CameraHandler::UpdateCamera</text>
</a>
</g>
</g>
<!-- Node5&#45;&gt;Node8 -->
<g id="edge3" class="edge"><title>Node5&#45;&gt;Node8</title>
<path fill="none" stroke="midnightblue" d="M153.305,-109.756C161.855,-110.631 170.545,-111.521 179.078,-112.394"/>
<polygon fill="midnightblue" stroke="midnightblue" points="153.655,-106.274 143.35,-108.737 152.942,-113.237 153.655,-106.274"/>
</g>
<!-- Node9 -->
<g id="node5" class="node"><title>Node9</title>
<g id="a_node5"><a xlink:href="class_engine.html#a7acc08d07a4abd266a81b1be981b6c47" target="_top" xlink:title="Engine::loadScene">
<polygon fill="none" stroke="black" points="209.29,-74.5 209.29,-92.5 309.245,-92.5 309.245,-74.5 209.29,-74.5"/>
<text text-anchor="middle" x="259.268" y="-80.5" font-family="Helvetica,sans-Serif" font-size="10.00">Engine::loadScene</text>
</a>
</g>
</g>
<!-- Node5&#45;&gt;Node9 -->
<g id="edge4" class="edge"><title>Node5&#45;&gt;Node9</title>
<path fill="none" stroke="midnightblue" d="M153.474,-93.6619C172.406,-91.826 192.015,-89.9246 209.078,-88.27"/>
<polygon fill="midnightblue" stroke="midnightblue" points="152.966,-90.1947 143.35,-94.6436 153.642,-97.162 152.966,-90.1947"/>
</g>
<!-- Node10 -->
<g id="node6" class="node"><title>Node10</title>
<g id="a_node6"><a xlink:href="class_light_source.html#aa5a774e875e1498228cb68ccff7ac6b1" target="_top" xlink:title="LightSource::start">
<polygon fill="none" stroke="black" points="212.081,-37.5 212.081,-55.5 306.455,-55.5 306.455,-37.5 212.081,-37.5"/>
<text text-anchor="middle" x="259.268" y="-43.5" font-family="Helvetica,sans-Serif" font-size="10.00">LightSource::start</text>
</a>
</g>
</g>
<!-- Node5&#45;&gt;Node10 -->
<g id="edge5" class="edge"><title>Node5&#45;&gt;Node10</title>
<path fill="none" stroke="midnightblue" d="M107.092,-88.9989C127.86,-81.6809 154.926,-72.5278 179.29,-65.5 191.621,-61.9433 205.164,-58.5144 217.501,-55.5718"/>
<polygon fill="midnightblue" stroke="midnightblue" points="105.693,-85.7812 97.4416,-92.4266 108.036,-92.3775 105.693,-85.7812"/>
</g>
<!-- Node11 -->
<g id="node7" class="node"><title>Node11</title>
<g id="a_node7"><a xlink:href="class_renderer.html#aab16b9ba63fb38f2c5ea7db11dbfc1bf" target="_top" xlink:title="Renderer::Renderer">
<polygon fill="none" stroke="black" points="206.8,-0.5 206.8,-18.5 311.735,-18.5 311.735,-0.5 206.8,-0.5"/>
<text text-anchor="middle" x="259.268" y="-6.5" font-family="Helvetica,sans-Serif" font-size="10.00">Renderer::Renderer</text>
</a>
</g>
</g>
<!-- Node5&#45;&gt;Node11 -->
<g id="edge6" class="edge"><title>Node5&#45;&gt;Node11</title>
<path fill="none" stroke="midnightblue" d="M90.8514,-85.9334C111.145,-69.3565 145.562,-43.4883 179.29,-28.5 188.44,-24.4339 198.59,-21.1617 208.48,-18.5559"/>
<polygon fill="midnightblue" stroke="midnightblue" points="88.5135,-83.3255 83.062,-92.4102 92.9889,-88.708 88.5135,-83.3255"/>
</g>
</g>
</svg>
