<?xml version="1.0" encoding="UTF-8" standalone="no"?>
<!DOCTYPE svg PUBLIC "-//W3C//DTD SVG 1.1//EN"
 "http://www.w3.org/Graphics/SVG/1.1/DTD/svg11.dtd">
<!-- Generated by graphviz version 2.38.0 (20140413.2041)
 -->
<!-- Title: PhysicsManager Pages: 1 -->
<svg width="105pt" height="154pt"
 viewBox="0.00 0.00 105.16 154.00" xmlns="http://www.w3.org/2000/svg" xmlns:xlink="http://www.w3.org/1999/xlink">
<g id="graph0" class="graph" transform="scale(1 1) rotate(0) translate(4 150)">
<title>PhysicsManager</title>
<!-- Node2 -->
<g id="node1" class="node"><title>Node2</title>
<polygon fill="#bfbfbf" stroke="black" points="3.62061,-0.5 3.62061,-54.5 93.5415,-54.5 93.5415,-0.5 3.62061,-0.5"/>
<text text-anchor="middle" x="48.5811" y="-42.5" font-family="Helvetica,sans-Serif" font-size="10.00">PhysicsManager</text>
<polyline fill="none" stroke="black" points="3.62061,-36.5 93.5415,-36.5 "/>
<text text-anchor="start" x="11.6206" y="-24.5" font-family="Helvetica,sans-Serif" font-size="10.00">+ world</text>
<polyline fill="none" stroke="black" points="3.62061,-18.5 93.5415,-18.5 "/>
<text text-anchor="start" x="11.6206" y="-6.5" font-family="Helvetica,sans-Serif" font-size="10.00">+ Instance()</text>
</g>
<!-- Node3 -->
<g id="node2" class="node"><title>Node3</title>
<polygon fill="none" stroke="#bfbfbf" points="0,-91.5 0,-145.5 97.1621,-145.5 97.1621,-91.5 0,-91.5"/>
<text text-anchor="middle" x="48.5811" y="-133.5" font-family="Helvetica,sans-Serif" font-size="10.00">b2ContactListener</text>
<polyline fill="none" stroke="#bfbfbf" points="0,-127.5 97.1621,-127.5 "/>
<text text-anchor="middle" x="48.5811" y="-115.5" font-family="Helvetica,sans-Serif" font-size="10.00"> </text>
<polyline fill="none" stroke="#bfbfbf" points="0,-109.5 97.1621,-109.5 "/>
<text text-anchor="middle" x="48.5811" y="-97.5" font-family="Helvetica,sans-Serif" font-size="10.00"> </text>
</g>
<!-- Node3&#45;&gt;Node2 -->
<g id="edge1" class="edge"><title>Node3&#45;&gt;Node2</title>
<path fill="none" stroke="#8b1a1a" d="M48.5811,-81.1155C48.5811,-72.2061 48.5811,-62.8475 48.5811,-54.5341"/>
<polygon fill="none" stroke="#8b1a1a" points="45.0812,-81.2784 48.5811,-91.2784 52.0812,-81.2785 45.0812,-81.2784"/>
</g>
</g>
</svg>
