<?xml version="1.0" encoding="UTF-8" standalone="no"?>
<!DOCTYPE svg PUBLIC "-//W3C//DTD SVG 1.1//EN"
 "http://www.w3.org/Graphics/SVG/1.1/DTD/svg11.dtd">
<!-- Generated by graphviz version 2.38.0 (20140413.2041)
 -->
<!-- Title: Component Pages: 1 -->
<svg width="811pt" height="374pt"
 viewBox="0.00 0.00 811.30 374.00" xmlns="http://www.w3.org/2000/svg" xmlns:xlink="http://www.w3.org/1999/xlink">
<g id="graph0" class="graph" transform="scale(1 1) rotate(0) translate(4 370)">
<title>Component</title>
<!-- Node0 -->
<g id="node1" class="node"><title>Node0</title>
<polygon fill="#bfbfbf" stroke="black" points="374.064,-271.5 374.064,-365.5 475.376,-365.5 475.376,-271.5 374.064,-271.5"/>
<text text-anchor="middle" x="424.72" y="-353.5" font-family="Helvetica,sans-Serif" font-size="10.00">Component</text>
<polyline fill="none" stroke="black" points="374.064,-347.5 475.376,-347.5 "/>
<text text-anchor="start" x="382.064" y="-335.5" font-family="Helvetica,sans-Serif" font-size="10.00"># gameObject</text>
<text text-anchor="start" x="382.064" y="-325.5" font-family="Helvetica,sans-Serif" font-size="10.00"># name</text>
<polyline fill="none" stroke="black" points="374.064,-319.5 475.376,-319.5 "/>
<text text-anchor="start" x="382.064" y="-307.5" font-family="Helvetica,sans-Serif" font-size="10.00">+ ~Component()</text>
<text text-anchor="start" x="382.064" y="-297.5" font-family="Helvetica,sans-Serif" font-size="10.00">+ getGameObject()</text>
<text text-anchor="start" x="382.064" y="-287.5" font-family="Helvetica,sans-Serif" font-size="10.00">+ getName()</text>
<text text-anchor="start" x="382.064" y="-277.5" font-family="Helvetica,sans-Serif" font-size="10.00"># Component()</text>
</g>
<!-- Node1 -->
<g id="node2" class="node"><title>Node1</title>
<g id="a_node2"><a xlink:href="class_audio_source.html" target="_top" xlink:title="{AudioSource\n||+ ~AudioSource()\l+ start()\l+ SetClip()\l+ PlayClip()\l+ SetListener()\l+ SetAudioPosition()\l+ SetLookPos()\l+ Stop()\l+ SetLoop()\l+ SetPause()\l+ SetVolume()\l+ SetMinDistance()\l+ SetMaxDistance()\l+ update()\l+ Instance()\l# AudioSource()\l}">
<polygon fill="none" stroke="black" points="0,-15.5 0,-219.5 107.44,-219.5 107.44,-15.5 0,-15.5"/>
<text text-anchor="middle" x="53.7202" y="-207.5" font-family="Helvetica,sans-Serif" font-size="10.00">AudioSource</text>
<polyline fill="none" stroke="black" points="0,-201.5 107.44,-201.5 "/>
<text text-anchor="middle" x="53.7202" y="-189.5" font-family="Helvetica,sans-Serif" font-size="10.00"> </text>
<polyline fill="none" stroke="black" points="0,-183.5 107.44,-183.5 "/>
<text text-anchor="start" x="8" y="-171.5" font-family="Helvetica,sans-Serif" font-size="10.00">+ ~AudioSource()</text>
<text text-anchor="start" x="8" y="-161.5" font-family="Helvetica,sans-Serif" font-size="10.00">+ start()</text>
<text text-anchor="start" x="8" y="-151.5" font-family="Helvetica,sans-Serif" font-size="10.00">+ SetClip()</text>
<text text-anchor="start" x="8" y="-141.5" font-family="Helvetica,sans-Serif" font-size="10.00">+ PlayClip()</text>
<text text-anchor="start" x="8" y="-131.5" font-family="Helvetica,sans-Serif" font-size="10.00">+ SetListener()</text>
<text text-anchor="start" x="8" y="-121.5" font-family="Helvetica,sans-Serif" font-size="10.00">+ SetAudioPosition()</text>
<text text-anchor="start" x="8" y="-111.5" font-family="Helvetica,sans-Serif" font-size="10.00">+ SetLookPos()</text>
<text text-anchor="start" x="8" y="-101.5" font-family="Helvetica,sans-Serif" font-size="10.00">+ Stop()</text>
<text text-anchor="start" x="8" y="-91.5" font-family="Helvetica,sans-Serif" font-size="10.00">+ SetLoop()</text>
<text text-anchor="start" x="8" y="-81.5" font-family="Helvetica,sans-Serif" font-size="10.00">+ SetPause()</text>
<text text-anchor="start" x="8" y="-71.5" font-family="Helvetica,sans-Serif" font-size="10.00">+ SetVolume()</text>
<text text-anchor="start" x="8" y="-61.5" font-family="Helvetica,sans-Serif" font-size="10.00">+ SetMinDistance()</text>
<text text-anchor="start" x="8" y="-51.5" font-family="Helvetica,sans-Serif" font-size="10.00">+ SetMaxDistance()</text>
<text text-anchor="start" x="8" y="-41.5" font-family="Helvetica,sans-Serif" font-size="10.00">+ update()</text>
<text text-anchor="start" x="8" y="-31.5" font-family="Helvetica,sans-Serif" font-size="10.00">+ Instance()</text>
<text text-anchor="start" x="8" y="-21.5" font-family="Helvetica,sans-Serif" font-size="10.00"># AudioSource()</text>
</a>
</g>
</g>
<!-- Node0&#45;&gt;Node1 -->
<g id="edge1" class="edge"><title>Node0&#45;&gt;Node1</title>
<path fill="none" stroke="midnightblue" d="M364,-315.193C296.908,-309.726 188.831,-291.941 116.72,-235 110.946,-230.44 105.63,-225.2 100.749,-219.521"/>
<polygon fill="none" stroke="midnightblue" points="363.765,-318.685 373.998,-315.941 364.287,-311.705 363.765,-318.685"/>
</g>
<!-- Node2 -->
<g id="node3" class="node"><title>Node2</title>
<g id="a_node3"><a xlink:href="class_light_source.html" target="_top" xlink:title="{LightSource\n|+ _light\l|+ ~LightSource()\l+ start()\l+ setDirectional()\l+ setDirection()\l+ setColor()\l+ setRange()\l+ update()\l# LightSource()\l}">
<polygon fill="none" stroke="black" points="125.791,-55.5 125.791,-179.5 217.65,-179.5 217.65,-55.5 125.791,-55.5"/>
<text text-anchor="middle" x="171.72" y="-167.5" font-family="Helvetica,sans-Serif" font-size="10.00">LightSource</text>
<polyline fill="none" stroke="black" points="125.791,-161.5 217.65,-161.5 "/>
<text text-anchor="start" x="133.791" y="-149.5" font-family="Helvetica,sans-Serif" font-size="10.00">+ _light</text>
<polyline fill="none" stroke="black" points="125.791,-143.5 217.65,-143.5 "/>
<text text-anchor="start" x="133.791" y="-131.5" font-family="Helvetica,sans-Serif" font-size="10.00">+ ~LightSource()</text>
<text text-anchor="start" x="133.791" y="-121.5" font-family="Helvetica,sans-Serif" font-size="10.00">+ start()</text>
<text text-anchor="start" x="133.791" y="-111.5" font-family="Helvetica,sans-Serif" font-size="10.00">+ setDirectional()</text>
<text text-anchor="start" x="133.791" y="-101.5" font-family="Helvetica,sans-Serif" font-size="10.00">+ setDirection()</text>
<text text-anchor="start" x="133.791" y="-91.5" font-family="Helvetica,sans-Serif" font-size="10.00">+ setColor()</text>
<text text-anchor="start" x="133.791" y="-81.5" font-family="Helvetica,sans-Serif" font-size="10.00">+ setRange()</text>
<text text-anchor="start" x="133.791" y="-71.5" font-family="Helvetica,sans-Serif" font-size="10.00">+ update()</text>
<text text-anchor="start" x="133.791" y="-61.5" font-family="Helvetica,sans-Serif" font-size="10.00"># LightSource()</text>
</a>
</g>
</g>
<!-- Node0&#45;&gt;Node2 -->
<g id="edge2" class="edge"><title>Node0&#45;&gt;Node2</title>
<path fill="none" stroke="midnightblue" d="M364.179,-304.584C321.289,-292.749 264.827,-271.383 226.72,-235 210.867,-219.864 199.091,-199.244 190.594,-179.556"/>
<polygon fill="none" stroke="midnightblue" points="363.375,-307.992 373.939,-307.179 365.174,-301.227 363.375,-307.992"/>
</g>
<!-- Node3 -->
<g id="node4" class="node"><title>Node3</title>
<g id="a_node4"><a xlink:href="class_particle_system.html" target="_top" xlink:title="{ParticleSystem\n|+ partSize\l+ tex\l|+ ParticleSystem()\l+ Start()\l+ emit()\l+ update()\l+ setFixedSizeMode()\l+ setRandomSizeMode()\l+ setInterpolSizeMode()\l+ setSplineSizeMode()\l+ render()\l+ setFixedColorMode()\l+ setRandomColorMode()\l+ setInterpolColorMode()\l+ setSplineColorMode()\l+ SetCircularRandEmit()\l+ SetVelocity()\l+ SetVectorEmit()\l+ setupPhysics()\l+ GetEmitMethod()\l}">
<polygon fill="none" stroke="black" points="236.057,-0.5 236.057,-234.5 367.384,-234.5 367.384,-0.5 236.057,-0.5"/>
<text text-anchor="middle" x="301.72" y="-222.5" font-family="Helvetica,sans-Serif" font-size="10.00">ParticleSystem</text>
<polyline fill="none" stroke="black" points="236.057,-216.5 367.384,-216.5 "/>
<text text-anchor="start" x="244.057" y="-204.5" font-family="Helvetica,sans-Serif" font-size="10.00">+ partSize</text>
<text text-anchor="start" x="244.057" y="-194.5" font-family="Helvetica,sans-Serif" font-size="10.00">+ tex</text>
<polyline fill="none" stroke="black" points="236.057,-188.5 367.384,-188.5 "/>
<text text-anchor="start" x="244.057" y="-176.5" font-family="Helvetica,sans-Serif" font-size="10.00">+ ParticleSystem()</text>
<text text-anchor="start" x="244.057" y="-166.5" font-family="Helvetica,sans-Serif" font-size="10.00">+ Start()</text>
<text text-anchor="start" x="244.057" y="-156.5" font-family="Helvetica,sans-Serif" font-size="10.00">+ emit()</text>
<text text-anchor="start" x="244.057" y="-146.5" font-family="Helvetica,sans-Serif" font-size="10.00">+ update()</text>
<text text-anchor="start" x="244.057" y="-136.5" font-family="Helvetica,sans-Serif" font-size="10.00">+ setFixedSizeMode()</text>
<text text-anchor="start" x="244.057" y="-126.5" font-family="Helvetica,sans-Serif" font-size="10.00">+ setRandomSizeMode()</text>
<text text-anchor="start" x="244.057" y="-116.5" font-family="Helvetica,sans-Serif" font-size="10.00">+ setInterpolSizeMode()</text>
<text text-anchor="start" x="244.057" y="-106.5" font-family="Helvetica,sans-Serif" font-size="10.00">+ setSplineSizeMode()</text>
<text text-anchor="start" x="244.057" y="-96.5" font-family="Helvetica,sans-Serif" font-size="10.00">+ render()</text>
<text text-anchor="start" x="244.057" y="-86.5" font-family="Helvetica,sans-Serif" font-size="10.00">+ setFixedColorMode()</text>
<text text-anchor="start" x="244.057" y="-76.5" font-family="Helvetica,sans-Serif" font-size="10.00">+ setRandomColorMode()</text>
<text text-anchor="start" x="244.057" y="-66.5" font-family="Helvetica,sans-Serif" font-size="10.00">+ setInterpolColorMode()</text>
<text text-anchor="start" x="244.057" y="-56.5" font-family="Helvetica,sans-Serif" font-size="10.00">+ setSplineColorMode()</text>
<text text-anchor="start" x="244.057" y="-46.5" font-family="Helvetica,sans-Serif" font-size="10.00">+ SetCircularRandEmit()</text>
<text text-anchor="start" x="244.057" y="-36.5" font-family="Helvetica,sans-Serif" font-size="10.00">+ SetVelocity()</text>
<text text-anchor="start" x="244.057" y="-26.5" font-family="Helvetica,sans-Serif" font-size="10.00">+ SetVectorEmit()</text>
<text text-anchor="start" x="244.057" y="-16.5" font-family="Helvetica,sans-Serif" font-size="10.00">+ setupPhysics()</text>
<text text-anchor="start" x="244.057" y="-6.5" font-family="Helvetica,sans-Serif" font-size="10.00">+ GetEmitMethod()</text>
</a>
</g>
</g>
<!-- Node0&#45;&gt;Node3 -->
<g id="edge3" class="edge"><title>Node0&#45;&gt;Node3</title>
<path fill="none" stroke="midnightblue" d="M390.772,-262.576C383.508,-250.823 375.597,-238.024 367.586,-225.064"/>
<polygon fill="none" stroke="midnightblue" points="387.957,-264.679 396.192,-271.345 393.912,-260.999 387.957,-264.679"/>
</g>
<!-- Node4 -->
<g id="node5" class="node"><title>Node4</title>
<g id="a_node5"><a xlink:href="class_renderer.html" target="_top" xlink:title="{Renderer\n|+ mesh\l+ shader\l+ color\l|+ ~Renderer()\l+ draw()\l# Renderer()\l}">
<polygon fill="none" stroke="black" points="385.316,-70.5 385.316,-164.5 464.124,-164.5 464.124,-70.5 385.316,-70.5"/>
<text text-anchor="middle" x="424.72" y="-152.5" font-family="Helvetica,sans-Serif" font-size="10.00">Renderer</text>
<polyline fill="none" stroke="black" points="385.316,-146.5 464.124,-146.5 "/>
<text text-anchor="start" x="393.316" y="-134.5" font-family="Helvetica,sans-Serif" font-size="10.00">+ mesh</text>
<text text-anchor="start" x="393.316" y="-124.5" font-family="Helvetica,sans-Serif" font-size="10.00">+ shader</text>
<text text-anchor="start" x="393.316" y="-114.5" font-family="Helvetica,sans-Serif" font-size="10.00">+ color</text>
<polyline fill="none" stroke="black" points="385.316,-108.5 464.124,-108.5 "/>
<text text-anchor="start" x="393.316" y="-96.5" font-family="Helvetica,sans-Serif" font-size="10.00">+ ~Renderer()</text>
<text text-anchor="start" x="393.316" y="-86.5" font-family="Helvetica,sans-Serif" font-size="10.00">+ draw()</text>
<text text-anchor="start" x="393.316" y="-76.5" font-family="Helvetica,sans-Serif" font-size="10.00"># Renderer()</text>
</a>
</g>
</g>
<!-- Node0&#45;&gt;Node4 -->
<g id="edge4" class="edge"><title>Node0&#45;&gt;Node4</title>
<path fill="none" stroke="midnightblue" d="M424.72,-261.283C424.72,-230.785 424.72,-193.548 424.72,-164.749"/>
<polygon fill="none" stroke="midnightblue" points="421.22,-261.345 424.72,-271.345 428.22,-261.345 421.22,-261.345"/>
</g>
<!-- Node5 -->
<g id="node6" class="node"><title>Node5</title>
<g id="a_node6"><a xlink:href="class_rigidbody.html" target="_top" xlink:title="{Rigidbody\n|+ bd\l+ body\l|+ Setup()\l+ PreSolve()\l# Rigidbody()\l}">
<polygon fill="none" stroke="black" points="481.984,-75.5 481.984,-159.5 557.457,-159.5 557.457,-75.5 481.984,-75.5"/>
<text text-anchor="middle" x="519.72" y="-147.5" font-family="Helvetica,sans-Serif" font-size="10.00">Rigidbody</text>
<polyline fill="none" stroke="black" points="481.984,-141.5 557.457,-141.5 "/>
<text text-anchor="start" x="489.984" y="-129.5" font-family="Helvetica,sans-Serif" font-size="10.00">+ bd</text>
<text text-anchor="start" x="489.984" y="-119.5" font-family="Helvetica,sans-Serif" font-size="10.00">+ body</text>
<polyline fill="none" stroke="black" points="481.984,-113.5 557.457,-113.5 "/>
<text text-anchor="start" x="489.984" y="-101.5" font-family="Helvetica,sans-Serif" font-size="10.00">+ Setup()</text>
<text text-anchor="start" x="489.984" y="-91.5" font-family="Helvetica,sans-Serif" font-size="10.00">+ PreSolve()</text>
<text text-anchor="start" x="489.984" y="-81.5" font-family="Helvetica,sans-Serif" font-size="10.00"># Rigidbody()</text>
</a>
</g>
</g>
<!-- Node0&#45;&gt;Node5 -->
<g id="edge5" class="edge"><title>Node0&#45;&gt;Node5</title>
<path fill="none" stroke="midnightblue" d="M458.17,-262.511C463.266,-253.438 468.294,-244.042 472.72,-235 484.706,-210.514 496.192,-182.164 504.81,-159.562"/>
<polygon fill="none" stroke="midnightblue" points="454.985,-261.031 453.072,-271.452 461.066,-264.499 454.985,-261.031"/>
</g>
<!-- Node6 -->
<g id="node7" class="node"><title>Node6</title>
<g id="a_node7"><a xlink:href="class_scriptable.html" target="_top" xlink:title="{Scriptable\n||+ Awake()\l+ Update()\l+ Start()\l+ OnCollisionEnter()\l+ OnCollisionExit()\l# Scriptable()\l}">
<polygon fill="none" stroke="black" points="575.564,-65.5 575.564,-169.5 681.876,-169.5 681.876,-65.5 575.564,-65.5"/>
<text text-anchor="middle" x="628.72" y="-157.5" font-family="Helvetica,sans-Serif" font-size="10.00">Scriptable</text>
<polyline fill="none" stroke="black" points="575.564,-151.5 681.876,-151.5 "/>
<text text-anchor="middle" x="628.72" y="-139.5" font-family="Helvetica,sans-Serif" font-size="10.00"> </text>
<polyline fill="none" stroke="black" points="575.564,-133.5 681.876,-133.5 "/>
<text text-anchor="start" x="583.564" y="-121.5" font-family="Helvetica,sans-Serif" font-size="10.00">+ Awake()</text>
<text text-anchor="start" x="583.564" y="-111.5" font-family="Helvetica,sans-Serif" font-size="10.00">+ Update()</text>
<text text-anchor="start" x="583.564" y="-101.5" font-family="Helvetica,sans-Serif" font-size="10.00">+ Start()</text>
<text text-anchor="start" x="583.564" y="-91.5" font-family="Helvetica,sans-Serif" font-size="10.00">+ OnCollisionEnter()</text>
<text text-anchor="start" x="583.564" y="-81.5" font-family="Helvetica,sans-Serif" font-size="10.00">+ OnCollisionExit()</text>
<text text-anchor="start" x="583.564" y="-71.5" font-family="Helvetica,sans-Serif" font-size="10.00"># Scriptable()</text>
</a>
</g>
</g>
<!-- Node0&#45;&gt;Node6 -->
<g id="edge6" class="edge"><title>Node0&#45;&gt;Node6</title>
<path fill="none" stroke="midnightblue" d="M484.841,-291.96C512.279,-278.105 543.705,-258.889 566.72,-235 584.604,-216.438 598.743,-191.691 608.974,-169.781"/>
<polygon fill="none" stroke="midnightblue" points="483.136,-288.899 475.707,-296.453 486.225,-295.18 483.136,-288.899"/>
</g>
<!-- Node7 -->
<g id="node8" class="node"><title>Node7</title>
<g id="a_node8"><a xlink:href="class_transform.html" target="_top" xlink:title="{Transform\n|+ position\l+ parent\l+ rotation\l+ scale\l|+ localTransform()\l+ globalTransform()\l# Transform()\l}">
<polygon fill="none" stroke="black" points="700.139,-65.5 700.139,-169.5 803.302,-169.5 803.302,-65.5 700.139,-65.5"/>
<text text-anchor="middle" x="751.72" y="-157.5" font-family="Helvetica,sans-Serif" font-size="10.00">Transform</text>
<polyline fill="none" stroke="black" points="700.139,-151.5 803.302,-151.5 "/>
<text text-anchor="start" x="708.139" y="-139.5" font-family="Helvetica,sans-Serif" font-size="10.00">+ position</text>
<text text-anchor="start" x="708.139" y="-129.5" font-family="Helvetica,sans-Serif" font-size="10.00">+ parent</text>
<text text-anchor="start" x="708.139" y="-119.5" font-family="Helvetica,sans-Serif" font-size="10.00">+ rotation</text>
<text text-anchor="start" x="708.139" y="-109.5" font-family="Helvetica,sans-Serif" font-size="10.00">+ scale</text>
<polyline fill="none" stroke="black" points="700.139,-103.5 803.302,-103.5 "/>
<text text-anchor="start" x="708.139" y="-91.5" font-family="Helvetica,sans-Serif" font-size="10.00">+ localTransform()</text>
<text text-anchor="start" x="708.139" y="-81.5" font-family="Helvetica,sans-Serif" font-size="10.00">+ globalTransform()</text>
<text text-anchor="start" x="708.139" y="-71.5" font-family="Helvetica,sans-Serif" font-size="10.00"># Transform()</text>
</a>
</g>
</g>
<!-- Node0&#45;&gt;Node7 -->
<g id="edge7" class="edge"><title>Node0&#45;&gt;Node7</title>
<path fill="none" stroke="midnightblue" d="M485.739,-312.022C544.182,-303.926 631.933,-283.975 690.72,-235 711.068,-218.049 725.5,-192.539 735.2,-169.708"/>
<polygon fill="none" stroke="midnightblue" points="485.003,-308.588 475.541,-313.356 485.911,-315.529 485.003,-308.588"/>
</g>
</g>
</svg>
