<?xml version="1.0" encoding="UTF-8" standalone="no"?>
<!DOCTYPE svg PUBLIC "-//W3C//DTD SVG 1.1//EN"
 "http://www.w3.org/Graphics/SVG/1.1/DTD/svg11.dtd">
<!-- Generated by graphviz version 2.38.0 (20140413.2041)
 -->
<!-- Title: Graphical Class Hierarchy Pages: 1 -->
<svg width="323pt" height="249pt"
 viewBox="0.00 0.00 323.08 249.00" xmlns="http://www.w3.org/2000/svg" xmlns:xlink="http://www.w3.org/1999/xlink">
<g id="graph0" class="graph" transform="scale(1 1) rotate(0) translate(4 245)">
<title>Graphical Class Hierarchy</title>
<!-- Node0 -->
<g id="node1" class="node"><title>Node0</title>
<g id="a_node1"><a xlink:href="class_component.html" target="_top" xlink:title="Component">
<polygon fill="none" stroke="black" points="0,-111.5 0,-129.5 67.6992,-129.5 67.6992,-111.5 0,-111.5"/>
<text text-anchor="middle" x="33.8496" y="-117.5" font-family="Helvetica,sans-Serif" font-size="10.00">Component</text>
</a>
</g>
</g>
<!-- Node1 -->
<g id="node2" class="node"><title>Node1</title>
<g id="a_node2"><a xlink:href="class_audio_source.html" target="_top" xlink:title="AudioSource">
<polygon fill="none" stroke="black" points="108.411,-222.5 108.411,-240.5 181.672,-240.5 181.672,-222.5 108.411,-222.5"/>
<text text-anchor="middle" x="145.042" y="-228.5" font-family="Helvetica,sans-Serif" font-size="10.00">AudioSource</text>
</a>
</g>
</g>
<!-- Node0&#45;&gt;Node1 -->
<g id="edge1" class="edge"><title>Node0&#45;&gt;Node1</title>
<path fill="none" stroke="midnightblue" d="M44.4225,-138.576C56.0645,-159.088 77.4507,-192.421 103.699,-213.5 108.005,-216.958 113.08,-219.894 118.15,-222.329"/>
<polygon fill="midnightblue" stroke="midnightblue" points="47.3973,-136.722 39.5114,-129.647 41.2637,-140.096 47.3973,-136.722"/>
</g>
<!-- Node2 -->
<g id="node3" class="node"><title>Node2</title>
<g id="a_node3"><a xlink:href="class_light_source.html" target="_top" xlink:title="LightSource">
<polygon fill="none" stroke="black" points="110.357,-185.5 110.357,-203.5 179.726,-203.5 179.726,-185.5 110.357,-185.5"/>
<text text-anchor="middle" x="145.042" y="-191.5" font-family="Helvetica,sans-Serif" font-size="10.00">LightSource</text>
</a>
</g>
</g>
<!-- Node0&#45;&gt;Node2 -->
<g id="edge2" class="edge"><title>Node0&#45;&gt;Node2</title>
<path fill="none" stroke="midnightblue" d="M51.9743,-136.581C65.3516,-148.592 84.7865,-164.872 103.699,-176.5 109.057,-179.794 115.121,-182.824 120.89,-185.422"/>
<polygon fill="midnightblue" stroke="midnightblue" points="54.2283,-133.9 44.4866,-129.734 49.5044,-139.065 54.2283,-133.9"/>
</g>
<!-- Node3 -->
<g id="node4" class="node"><title>Node3</title>
<g id="a_node4"><a xlink:href="class_particle_system.html" target="_top" xlink:title="ParticleSystem">
<polygon fill="none" stroke="black" points="103.699,-148.5 103.699,-166.5 186.384,-166.5 186.384,-148.5 103.699,-148.5"/>
<text text-anchor="middle" x="145.042" y="-154.5" font-family="Helvetica,sans-Serif" font-size="10.00">ParticleSystem</text>
</a>
</g>
</g>
<!-- Node0&#45;&gt;Node3 -->
<g id="edge3" class="edge"><title>Node0&#45;&gt;Node3</title>
<path fill="none" stroke="midnightblue" d="M71.0988,-132.783C86.1609,-137.887 103.331,-143.705 117.227,-148.414"/>
<polygon fill="midnightblue" stroke="midnightblue" points="72.1553,-129.446 61.561,-129.551 69.9087,-136.075 72.1553,-129.446"/>
</g>
<!-- Node4 -->
<g id="node5" class="node"><title>Node4</title>
<g id="a_node5"><a xlink:href="class_renderer.html" target="_top" xlink:title="Renderer">
<polygon fill="none" stroke="black" points="116.197,-111.5 116.197,-129.5 173.886,-129.5 173.886,-111.5 116.197,-111.5"/>
<text text-anchor="middle" x="145.042" y="-117.5" font-family="Helvetica,sans-Serif" font-size="10.00">Renderer</text>
</a>
</g>
</g>
<!-- Node0&#45;&gt;Node4 -->
<g id="edge4" class="edge"><title>Node0&#45;&gt;Node4</title>
<path fill="none" stroke="midnightblue" d="M78.2814,-120.5C90.9414,-120.5 104.438,-120.5 115.889,-120.5"/>
<polygon fill="midnightblue" stroke="midnightblue" points="77.9071,-117 67.9071,-120.5 77.9071,-124 77.9071,-117"/>
</g>
<!-- Node5 -->
<g id="node6" class="node"><title>Node5</title>
<g id="a_node6"><a xlink:href="class_rigidbody.html" target="_top" xlink:title="Rigidbody">
<polygon fill="none" stroke="black" points="114.805,-74.5 114.805,-92.5 175.278,-92.5 175.278,-74.5 114.805,-74.5"/>
<text text-anchor="middle" x="145.042" y="-80.5" font-family="Helvetica,sans-Serif" font-size="10.00">Rigidbody</text>
</a>
</g>
</g>
<!-- Node0&#45;&gt;Node5 -->
<g id="edge5" class="edge"><title>Node0&#45;&gt;Node5</title>
<path fill="none" stroke="midnightblue" d="M71.0988,-108.217C86.1609,-103.113 103.331,-97.2949 117.227,-92.586"/>
<polygon fill="midnightblue" stroke="midnightblue" points="69.9087,-104.925 61.561,-111.449 72.1553,-111.554 69.9087,-104.925"/>
</g>
<!-- Node6 -->
<g id="node7" class="node"><title>Node6</title>
<g id="a_node7"><a xlink:href="class_scriptable.html" target="_top" xlink:title="Scriptable">
<polygon fill="none" stroke="black" points="114.808,-37.5 114.808,-55.5 175.275,-55.5 175.275,-37.5 114.808,-37.5"/>
<text text-anchor="middle" x="145.042" y="-43.5" font-family="Helvetica,sans-Serif" font-size="10.00">Scriptable</text>
</a>
</g>
</g>
<!-- Node0&#45;&gt;Node6 -->
<g id="edge6" class="edge"><title>Node0&#45;&gt;Node6</title>
<path fill="none" stroke="midnightblue" d="M52.5555,-104.435C65.975,-92.7487 85.203,-77.0215 103.699,-65.5 109.482,-61.8979 116.056,-58.5272 122.194,-55.6543"/>
<polygon fill="midnightblue" stroke="midnightblue" points="50.1769,-101.866 45.0091,-111.115 54.8167,-107.107 50.1769,-101.866"/>
</g>
<!-- Node8 -->
<g id="node9" class="node"><title>Node8</title>
<g id="a_node9"><a xlink:href="class_transform.html" target="_top" xlink:title="Transform">
<polygon fill="none" stroke="black" points="114.444,-0.5 114.444,-18.5 175.639,-18.5 175.639,-0.5 114.444,-0.5"/>
<text text-anchor="middle" x="145.042" y="-6.5" font-family="Helvetica,sans-Serif" font-size="10.00">Transform</text>
</a>
</g>
</g>
<!-- Node0&#45;&gt;Node8 -->
<g id="edge8" class="edge"><title>Node0&#45;&gt;Node8</title>
<path fill="none" stroke="midnightblue" d="M44.7268,-102.406C56.5219,-82.1829 77.9264,-49.5232 103.699,-28.5 108.498,-24.5852 114.238,-21.2617 119.861,-18.5422"/>
<polygon fill="midnightblue" stroke="midnightblue" points="41.6125,-100.803 39.7314,-111.23 47.704,-104.252 41.6125,-100.803"/>
</g>
<!-- Node7 -->
<g id="node8" class="node"><title>Node7</title>
<g id="a_node8"><a xlink:href="class_particle_controller.html" target="_top" xlink:title="ParticleController">
<polygon fill="none" stroke="black" points="222.384,-37.5 222.384,-55.5 315.078,-55.5 315.078,-37.5 222.384,-37.5"/>
<text text-anchor="middle" x="268.731" y="-43.5" font-family="Helvetica,sans-Serif" font-size="10.00">ParticleController</text>
</a>
</g>
</g>
<!-- Node6&#45;&gt;Node7 -->
<g id="edge7" class="edge"><title>Node6&#45;&gt;Node7</title>
<path fill="none" stroke="midnightblue" d="M185.733,-46.5C197.294,-46.5 210.02,-46.5 221.926,-46.5"/>
<polygon fill="midnightblue" stroke="midnightblue" points="185.499,-43.0001 175.499,-46.5 185.499,-50.0001 185.499,-43.0001"/>
</g>
</g>
</svg>
