<?xml version="1.0" encoding="UTF-8" standalone="no"?>
<!DOCTYPE svg PUBLIC "-//W3C//DTD SVG 1.1//EN"
 "http://www.w3.org/Graphics/SVG/1.1/DTD/svg11.dtd">
<!-- Generated by graphviz version 2.38.0 (20140413.2041)
 -->
<!-- Title: std::swap Pages: 1 -->
<svg width="557pt" height="84pt"
 viewBox="0.00 0.00 557.16 84.00" xmlns="http://www.w3.org/2000/svg" xmlns:xlink="http://www.w3.org/1999/xlink">
<g id="graph0" class="graph" transform="scale(1 1) rotate(0) translate(4 80)">
<title>std::swap</title>
<!-- Node2 -->
<g id="node1" class="node"><title>Node2</title>
<polygon fill="#bfbfbf" stroke="black" points="0,-28.5 0,-46.5 58.2412,-46.5 58.2412,-28.5 0,-28.5"/>
<text text-anchor="middle" x="29.1206" y="-34.5" font-family="Helvetica,sans-Serif" font-size="10.00">std::swap</text>
</g>
<!-- Node3 -->
<g id="node2" class="node"><title>Node3</title>
<g id="a_node2"><a xlink:href="classpicojson_1_1value.html#a6e3ac589ed811603ef9dadc6f91c737d" target="_top" xlink:title="picojson::value::swap">
<polygon fill="none" stroke="black" points="94.2412,-28.5 94.2412,-46.5 205.295,-46.5 205.295,-28.5 94.2412,-28.5"/>
<text text-anchor="middle" x="149.768" y="-34.5" font-family="Helvetica,sans-Serif" font-size="10.00">picojson::value::swap</text>
</a>
</g>
</g>
<!-- Node2&#45;&gt;Node3 -->
<g id="edge1" class="edge"><title>Node2&#45;&gt;Node3</title>
<path fill="none" stroke="midnightblue" d="M68.773,-31.1283C76.8597,-30.8206 85.5322,-30.7006 94.0757,-30.7683"/>
<polygon fill="midnightblue" stroke="midnightblue" points="68.352,-27.6449 58.5396,-31.6408 68.7022,-34.6361 68.352,-27.6449"/>
</g>
<!-- Node3&#45;&gt;Node2 -->
<g id="edge5" class="edge"><title>Node3&#45;&gt;Node2</title>
<path fill="none" stroke="midnightblue" d="M83.9799,-44.2245C75.0619,-44.141 66.3101,-43.8525 58.5396,-43.3592"/>
<polygon fill="midnightblue" stroke="midnightblue" points="84.0732,-47.7245 94.0757,-44.2317 84.0782,-40.7245 84.0732,-47.7245"/>
</g>
<!-- Node4 -->
<g id="node3" class="node"><title>Node4</title>
<g id="a_node3"><a xlink:href="classpicojson_1_1value.html#acc5e4506e6a793af5132983573f9da6a" target="_top" xlink:title="picojson::value::operator=">
<polygon fill="none" stroke="black" points="241.295,-28.5 241.295,-46.5 372.09,-46.5 372.09,-28.5 241.295,-28.5"/>
<text text-anchor="middle" x="306.692" y="-34.5" font-family="Helvetica,sans-Serif" font-size="10.00">picojson::value::operator=</text>
</a>
</g>
</g>
<!-- Node3&#45;&gt;Node4 -->
<g id="edge2" class="edge"><title>Node3&#45;&gt;Node4</title>
<path fill="none" stroke="midnightblue" d="M215.596,-37.5C224.071,-37.5 232.754,-37.5 241.224,-37.5"/>
<polygon fill="midnightblue" stroke="midnightblue" points="215.389,-34.0001 205.389,-37.5 215.389,-41.0001 215.389,-34.0001"/>
</g>
<!-- Node5 -->
<g id="node4" class="node"><title>Node5</title>
<g id="a_node4"><a xlink:href="classpicojson_1_1default__parse__context.html#adf71929b098e4f4b5c32222af149655a" target="_top" xlink:title="picojson::default_parse\l_context::parse_object_item">
<polygon fill="none" stroke="black" points="408.09,-47.5 408.09,-75.5 549.163,-75.5 549.163,-47.5 408.09,-47.5"/>
<text text-anchor="start" x="416.09" y="-63.5" font-family="Helvetica,sans-Serif" font-size="10.00">picojson::default_parse</text>
<text text-anchor="middle" x="478.626" y="-53.5" font-family="Helvetica,sans-Serif" font-size="10.00">_context::parse_object_item</text>
</a>
</g>
</g>
<!-- Node4&#45;&gt;Node5 -->
<g id="edge3" class="edge"><title>Node4&#45;&gt;Node5</title>
<path fill="none" stroke="midnightblue" d="M381.583,-47.9356C390.293,-49.1658 399.161,-50.4182 407.812,-51.6401"/>
<polygon fill="midnightblue" stroke="midnightblue" points="381.844,-44.4379 371.453,-46.505 380.865,-51.3691 381.844,-44.4379"/>
</g>
<!-- Node6 -->
<g id="node5" class="node"><title>Node6</title>
<g id="a_node5"><a xlink:href="classpicojson_1_1null__parse__context.html#a97c4b81a984ea473fe56e09aed7b9ca6" target="_top" xlink:title="picojson::null_parse\l_context::parse_object_item">
<polygon fill="none" stroke="black" points="408.09,-0.5 408.09,-28.5 549.163,-28.5 549.163,-0.5 408.09,-0.5"/>
<text text-anchor="start" x="416.09" y="-16.5" font-family="Helvetica,sans-Serif" font-size="10.00">picojson::null_parse</text>
<text text-anchor="middle" x="478.626" y="-6.5" font-family="Helvetica,sans-Serif" font-size="10.00">_context::parse_object_item</text>
</a>
</g>
</g>
<!-- Node4&#45;&gt;Node6 -->
<g id="edge4" class="edge"><title>Node4&#45;&gt;Node6</title>
<path fill="none" stroke="midnightblue" d="M382.342,-27.3965C390.865,-26.2429 399.529,-25.0703 407.983,-23.926"/>
<polygon fill="midnightblue" stroke="midnightblue" points="381.862,-23.9294 372.422,-28.7391 382.801,-30.8661 381.862,-23.9294"/>
</g>
</g>
</svg>
