<?xml version="1.0" encoding="UTF-8" standalone="no"?>
<!DOCTYPE svg PUBLIC "-//W3C//DTD SVG 1.1//EN"
 "http://www.w3.org/Graphics/SVG/1.1/DTD/svg11.dtd">
<!-- Generated by graphviz version 2.38.0 (20140413.2041)
 -->
<!-- Title: picojson::_parse Pages: 1 -->
<svg width="274pt" height="252pt"
 viewBox="0.00 0.00 273.90 252.00" xmlns="http://www.w3.org/2000/svg" xmlns:xlink="http://www.w3.org/1999/xlink">
<g id="graph0" class="graph" transform="scale(1 1) rotate(0) translate(4 248)">
<title>picojson::_parse</title>
<!-- Node11 -->
<g id="node1" class="node"><title>Node11</title>
<polygon fill="#bfbfbf" stroke="black" points="0,-102.5 0,-120.5 88.8223,-120.5 88.8223,-102.5 0,-102.5"/>
<text text-anchor="middle" x="44.4111" y="-108.5" font-family="Helvetica,sans-Serif" font-size="10.00">picojson::_parse</text>
</g>
<!-- Node12 -->
<g id="node2" class="node"><title>Node12</title>
<g id="a_node2"><a xlink:href="classpicojson_1_1default__parse__context.html#a5f65224e655633b20c1f8c5967c153bb" target="_top" xlink:title="picojson::default_parse\l_context::parse_array_item">
<polygon fill="none" stroke="black" points="126.773,-215.5 126.773,-243.5 263.945,-243.5 263.945,-215.5 126.773,-215.5"/>
<text text-anchor="start" x="134.773" y="-231.5" font-family="Helvetica,sans-Serif" font-size="10.00">picojson::default_parse</text>
<text text-anchor="middle" x="195.359" y="-221.5" font-family="Helvetica,sans-Serif" font-size="10.00">_context::parse_array_item</text>
</a>
</g>
</g>
<!-- Node11&#45;&gt;Node12 -->
<g id="edge1" class="edge"><title>Node11&#45;&gt;Node12</title>
<path fill="none" stroke="midnightblue" d="M55.8455,-129.192C69.2509,-150.458 94.4507,-185.856 124.822,-206.5 129.87,-209.931 135.47,-212.884 141.236,-215.418"/>
<polygon fill="midnightblue" stroke="midnightblue" points="58.744,-127.223 50.54,-120.519 52.7727,-130.876 58.744,-127.223"/>
</g>
<!-- Node13 -->
<g id="node3" class="node"><title>Node13</title>
<g id="a_node3"><a xlink:href="classpicojson_1_1default__parse__context.html#adf71929b098e4f4b5c32222af149655a" target="_top" xlink:title="picojson::default_parse\l_context::parse_object_item">
<polygon fill="none" stroke="black" points="124.822,-168.5 124.822,-196.5 265.896,-196.5 265.896,-168.5 124.822,-168.5"/>
<text text-anchor="start" x="132.822" y="-184.5" font-family="Helvetica,sans-Serif" font-size="10.00">picojson::default_parse</text>
<text text-anchor="middle" x="195.359" y="-174.5" font-family="Helvetica,sans-Serif" font-size="10.00">_context::parse_object_item</text>
</a>
</g>
</g>
<!-- Node11&#45;&gt;Node13 -->
<g id="edge2" class="edge"><title>Node11&#45;&gt;Node13</title>
<path fill="none" stroke="midnightblue" d="M66.7852,-126.228C82.3712,-136.511 104.273,-150.037 124.822,-159.5 131.868,-162.744 139.504,-165.749 147.049,-168.443"/>
<polygon fill="midnightblue" stroke="midnightblue" points="68.6512,-123.265 58.3962,-120.603 64.753,-129.079 68.6512,-123.265"/>
</g>
<!-- Node14 -->
<g id="node4" class="node"><title>Node14</title>
<g id="a_node4"><a xlink:href="classpicojson_1_1null__parse__context.html#a6623f92117dd6dc7bca60e9e9463a1a0" target="_top" xlink:title="picojson::null_parse\l_context::parse_array_item">
<polygon fill="none" stroke="black" points="126.773,-121.5 126.773,-149.5 263.945,-149.5 263.945,-121.5 126.773,-121.5"/>
<text text-anchor="start" x="134.773" y="-137.5" font-family="Helvetica,sans-Serif" font-size="10.00">picojson::null_parse</text>
<text text-anchor="middle" x="195.359" y="-127.5" font-family="Helvetica,sans-Serif" font-size="10.00">_context::parse_array_item</text>
</a>
</g>
</g>
<!-- Node11&#45;&gt;Node14 -->
<g id="edge3" class="edge"><title>Node11&#45;&gt;Node14</title>
<path fill="none" stroke="midnightblue" d="M98.868,-120.114C107.9,-121.569 117.38,-123.096 126.717,-124.601"/>
<polygon fill="midnightblue" stroke="midnightblue" points="99.3229,-116.642 88.8934,-118.506 98.2093,-123.553 99.3229,-116.642"/>
</g>
<!-- Node15 -->
<g id="node5" class="node"><title>Node15</title>
<g id="a_node5"><a xlink:href="classpicojson_1_1null__parse__context.html#a97c4b81a984ea473fe56e09aed7b9ca6" target="_top" xlink:title="picojson::null_parse\l_context::parse_object_item">
<polygon fill="none" stroke="black" points="124.822,-74.5 124.822,-102.5 265.896,-102.5 265.896,-74.5 124.822,-74.5"/>
<text text-anchor="start" x="132.822" y="-90.5" font-family="Helvetica,sans-Serif" font-size="10.00">picojson::null_parse</text>
<text text-anchor="middle" x="195.359" y="-80.5" font-family="Helvetica,sans-Serif" font-size="10.00">_context::parse_object_item</text>
</a>
</g>
</g>
<!-- Node11&#45;&gt;Node15 -->
<g id="edge4" class="edge"><title>Node11&#45;&gt;Node15</title>
<path fill="none" stroke="midnightblue" d="M98.9038,-103.24C107.294,-101.944 116.071,-100.589 124.76,-99.2473"/>
<polygon fill="midnightblue" stroke="midnightblue" points="98.2421,-99.8005 88.8934,-104.786 99.3104,-106.718 98.2421,-99.8005"/>
</g>
<!-- Node16 -->
<g id="node6" class="node"><title>Node16</title>
<g id="a_node6"><a xlink:href="namespacepicojson.html#a01c0a3f35d42282ba913375737c8e259" target="_top" xlink:title="picojson::_parse">
<polygon fill="none" stroke="black" points="150.948,-37.5 150.948,-55.5 239.77,-55.5 239.77,-37.5 150.948,-37.5"/>
<text text-anchor="middle" x="195.359" y="-43.5" font-family="Helvetica,sans-Serif" font-size="10.00">picojson::_parse</text>
</a>
</g>
</g>
<!-- Node11&#45;&gt;Node16 -->
<g id="edge5" class="edge"><title>Node11&#45;&gt;Node16</title>
<path fill="none" stroke="midnightblue" d="M67.0054,-96.938C82.5457,-86.9788 104.3,-74.0771 124.822,-65.5 134.175,-61.591 144.571,-58.2535 154.413,-55.5172"/>
<polygon fill="midnightblue" stroke="midnightblue" points="65.0895,-94.0089 58.63,-102.407 68.9167,-99.87 65.0895,-94.0089"/>
</g>
<!-- Node17 -->
<g id="node7" class="node"><title>Node17</title>
<g id="a_node7"><a xlink:href="namespacepicojson.html#a21621c03c9c8c83dcf5bc604d1cafdf6" target="_top" xlink:title="picojson::parse">
<polygon fill="none" stroke="black" points="153.729,-0.5 153.729,-18.5 236.989,-18.5 236.989,-0.5 153.729,-0.5"/>
<text text-anchor="middle" x="195.359" y="-6.5" font-family="Helvetica,sans-Serif" font-size="10.00">picojson::parse</text>
</a>
</g>
</g>
<!-- Node11&#45;&gt;Node17 -->
<g id="edge6" class="edge"><title>Node11&#45;&gt;Node17</title>
<path fill="none" stroke="midnightblue" d="M57.4439,-94.17C71.4751,-75.2582 96.4029,-45.4239 124.822,-28.5 133.532,-23.3133 143.692,-19.5067 153.512,-16.7261"/>
<polygon fill="midnightblue" stroke="midnightblue" points="54.4686,-92.3123 51.4636,-102.472 60.1484,-96.4037 54.4686,-92.3123"/>
</g>
</g>
</svg>
