<?xml version="1.0" encoding="UTF-8" standalone="no"?>
<!DOCTYPE svg PUBLIC "-//W3C//DTD SVG 1.1//EN"
 "http://www.w3.org/Graphics/SVG/1.1/DTD/svg11.dtd">
<!-- Generated by graphviz version 2.38.0 (20140413.2041)
 -->
<!-- Title: picojson::_parse Pages: 1 -->
<svg width="1040pt" height="321pt"
 viewBox="0.00 0.00 1039.80 320.90" xmlns="http://www.w3.org/2000/svg" xmlns:xlink="http://www.w3.org/1999/xlink">
<g id="graph0" class="graph" transform="scale(1 1) rotate(0) translate(4 316.896)">
<title>picojson::_parse</title>
<!-- Node18 -->
<g id="node1" class="node"><title>Node18</title>
<polygon fill="#bfbfbf" stroke="black" points="0,-95.8955 0,-113.896 88.8223,-113.896 88.8223,-95.8955 0,-95.8955"/>
<text text-anchor="middle" x="44.4111" y="-101.896" font-family="Helvetica,sans-Serif" font-size="10.00">picojson::_parse</text>
</g>
<!-- Node19 -->
<g id="node2" class="node"><title>Node19</title>
<g id="a_node2"><a xlink:href="namespacepicojson.html#aed024a6a1c8d8982a38c4a7fcefde221" target="_top" xlink:title="picojson::_parse">
<polygon fill="none" stroke="black" points="130.938,-114.896 130.938,-132.896 219.76,-132.896 219.76,-114.896 130.938,-114.896"/>
<text text-anchor="middle" x="175.349" y="-120.896" font-family="Helvetica,sans-Serif" font-size="10.00">picojson::_parse</text>
</a>
</g>
</g>
<!-- Node18&#45;&gt;Node19 -->
<g id="edge1" class="edge"><title>Node18&#45;&gt;Node19</title>
<path fill="none" stroke="midnightblue" d="M89.0637,-111.328C99.2507,-112.829 110.215,-114.445 120.777,-116.001"/>
<polygon fill="midnightblue" stroke="midnightblue" points="120.338,-119.474 130.742,-117.47 121.359,-112.549 120.338,-119.474"/>
</g>
<!-- Node21 -->
<g id="node4" class="node"><title>Node21</title>
<g id="a_node4"><a xlink:href="classpicojson_1_1input.html#a3e8ba0b09a989efa0dc583096984ea8e" target="_top" xlink:title="picojson::input::getc">
<polygon fill="none" stroke="black" points="921.849,-208.896 921.849,-226.896 1026.24,-226.896 1026.24,-208.896 921.849,-208.896"/>
<text text-anchor="middle" x="974.043" y="-214.896" font-family="Helvetica,sans-Serif" font-size="10.00">picojson::input::getc</text>
</a>
</g>
</g>
<!-- Node18&#45;&gt;Node21 -->
<g id="edge22" class="edge"><title>Node18&#45;&gt;Node21</title>
<path fill="none" stroke="midnightblue" d="M51.1427,-114.101C76.9919,-154.356 187.31,-312.896 321.41,-312.896 321.41,-312.896 321.41,-312.896 643.658,-312.896 750.711,-312.896 779.404,-303.714 880.287,-267.896 905.685,-258.878 932.569,-243.681 950.818,-232.403"/>
<polygon fill="midnightblue" stroke="midnightblue" points="952.928,-235.21 959.52,-226.916 949.194,-229.289 952.928,-235.21"/>
</g>
<!-- Node30 -->
<g id="node13" class="node"><title>Node30</title>
<g id="a_node13"><a xlink:href="classpicojson_1_1input.html#a5852aded6d48e28542f23fe0083a51fa" target="_top" xlink:title="picojson::input::line">
<polygon fill="none" stroke="black" points="124.822,-77.8955 124.822,-95.8955 225.876,-95.8955 225.876,-77.8955 124.822,-77.8955"/>
<text text-anchor="middle" x="175.349" y="-83.8955" font-family="Helvetica,sans-Serif" font-size="10.00">picojson::input::line</text>
</a>
</g>
</g>
<!-- Node18&#45;&gt;Node30 -->
<g id="edge21" class="edge"><title>Node18&#45;&gt;Node30</title>
<path fill="none" stroke="midnightblue" d="M89.0637,-98.8016C97.2553,-97.658 105.949,-96.4443 114.533,-95.246"/>
<polygon fill="midnightblue" stroke="midnightblue" points="115.101,-98.7007 124.521,-93.8516 114.133,-91.7679 115.101,-98.7007"/>
</g>
<!-- Node31 -->
<g id="node14" class="node"><title>Node31</title>
<g id="a_node14"><a xlink:href="classpicojson_1_1input.html#ab2933aa5b68e73877fd331b925f4bf40" target="_top" xlink:title="picojson::input::cur">
<polygon fill="none" stroke="black" points="125.66,-40.8955 125.66,-58.8955 225.039,-58.8955 225.039,-40.8955 125.66,-40.8955"/>
<text text-anchor="middle" x="175.349" y="-46.8955" font-family="Helvetica,sans-Serif" font-size="10.00">picojson::input::cur</text>
</a>
</g>
</g>
<!-- Node18&#45;&gt;Node31 -->
<g id="edge23" class="edge"><title>Node18&#45;&gt;Node31</title>
<path fill="none" stroke="midnightblue" d="M63.8197,-95.7597C79.7854,-87.9713 103.6,-76.6762 124.822,-67.8955 129.289,-66.0472 134.023,-64.195 138.722,-62.4192"/>
<polygon fill="midnightblue" stroke="midnightblue" points="140.057,-65.6572 148.223,-58.9073 137.63,-59.0913 140.057,-65.6572"/>
</g>
<!-- Node20 -->
<g id="node3" class="node"><title>Node20</title>
<g id="a_node3"><a xlink:href="classpicojson_1_1input.html#aa83aefe87374a5e24ab8c8e80fef4aa4" target="_top" xlink:title="picojson::input::skip_ws">
<polygon fill="none" stroke="black" points="261.883,-114.896 261.883,-132.896 382.937,-132.896 382.937,-114.896 261.883,-114.896"/>
<text text-anchor="middle" x="322.41" y="-120.896" font-family="Helvetica,sans-Serif" font-size="10.00">picojson::input::skip_ws</text>
</a>
</g>
</g>
<!-- Node19&#45;&gt;Node20 -->
<g id="edge2" class="edge"><title>Node19&#45;&gt;Node20</title>
<path fill="none" stroke="midnightblue" d="M219.872,-123.896C229.865,-123.896 240.736,-123.896 251.53,-123.896"/>
<polygon fill="midnightblue" stroke="midnightblue" points="251.823,-127.396 261.823,-123.896 251.823,-120.396 251.823,-127.396"/>
</g>
<!-- Node19&#45;&gt;Node21 -->
<g id="edge3" class="edge"><title>Node19&#45;&gt;Node21</title>
<path fill="none" stroke="midnightblue" d="M186.345,-133.341C222.422,-166.399 350.491,-274.896 477.363,-274.896 477.363,-274.896 477.363,-274.896 643.658,-274.896 748.934,-274.896 870.401,-246.275 932.253,-229.595"/>
<polygon fill="midnightblue" stroke="midnightblue" points="933.292,-232.94 942.016,-226.927 931.447,-226.187 933.292,-232.94"/>
</g>
<!-- Node22 -->
<g id="node5" class="node"><title>Node22</title>
<g id="a_node5"><a xlink:href="namespacepicojson.html#adcae039b132c6c96d2b2d9e786a04a88" target="_top" xlink:title="picojson::_parse_array">
<polygon fill="none" stroke="black" points="263.827,-77.8955 263.827,-95.8955 380.994,-95.8955 380.994,-77.8955 263.827,-77.8955"/>
<text text-anchor="middle" x="322.41" y="-83.8955" font-family="Helvetica,sans-Serif" font-size="10.00">picojson::_parse_array</text>
</a>
</g>
</g>
<!-- Node19&#45;&gt;Node22 -->
<g id="edge4" class="edge"><title>Node19&#45;&gt;Node22</title>
<path fill="none" stroke="midnightblue" d="M211.835,-114.844C231.225,-109.899 255.444,-103.721 276.177,-98.4328"/>
<polygon fill="midnightblue" stroke="midnightblue" points="277.215,-101.78 286.039,-95.9174 275.485,-94.9975 277.215,-101.78"/>
</g>
<!-- Node24 -->
<g id="node7" class="node"><title>Node24</title>
<g id="a_node7"><a xlink:href="namespacepicojson.html#a480ed5e3461568672197a42e259a44c9" target="_top" xlink:title="picojson::_parse_object">
<polygon fill="none" stroke="black" points="261.876,-151.896 261.876,-169.896 382.944,-169.896 382.944,-151.896 261.876,-151.896"/>
<text text-anchor="middle" x="322.41" y="-157.896" font-family="Helvetica,sans-Serif" font-size="10.00">picojson::_parse_object</text>
</a>
</g>
</g>
<!-- Node19&#45;&gt;Node24 -->
<g id="edge6" class="edge"><title>Node19&#45;&gt;Node24</title>
<path fill="none" stroke="midnightblue" d="M211.835,-132.947C231.225,-137.892 255.444,-144.07 276.177,-149.358"/>
<polygon fill="midnightblue" stroke="midnightblue" points="275.485,-152.794 286.039,-151.874 277.215,-146.011 275.485,-152.794"/>
</g>
<!-- Node26 -->
<g id="node9" class="node"><title>Node26</title>
<g id="a_node9"><a xlink:href="classpicojson_1_1input.html#a96ccc244e73b2ab87ded38c98e98d573" target="_top" xlink:title="picojson::input::ungetc">
<polygon fill="none" stroke="black" points="916.287,-75.8955 916.287,-93.8955 1031.8,-93.8955 1031.8,-75.8955 916.287,-75.8955"/>
<text text-anchor="middle" x="974.043" y="-81.8955" font-family="Helvetica,sans-Serif" font-size="10.00">picojson::input::ungetc</text>
</a>
</g>
</g>
<!-- Node19&#45;&gt;Node26 -->
<g id="edge17" class="edge"><title>Node19&#45;&gt;Node26</title>
<path fill="none" stroke="midnightblue" d="M210.258,-114.782C215.901,-112.22 221.374,-108.979 225.876,-104.896 252.375,-80.858 232.532,-53.3627 261.876,-32.8955 340.914,22.232 380.999,-8.89555 477.363,-8.89555 477.363,-8.89555 477.363,-8.89555 643.658,-8.89555 755.168,-8.89555 882.603,-50.763 940.893,-72.3484"/>
<polygon fill="midnightblue" stroke="midnightblue" points="939.707,-75.6414 950.299,-75.8789 942.167,-69.0879 939.707,-75.6414"/>
</g>
<!-- Node29 -->
<g id="node12" class="node"><title>Node29</title>
<g id="a_node12"><a xlink:href="namespacepicojson.html#a771defe1d981b7091c2156bf4720625c" target="_top" xlink:title="picojson::_parse_number">
<polygon fill="none" stroke="black" points="749.766,-75.8955 749.766,-93.8955 878.056,-93.8955 878.056,-75.8955 749.766,-75.8955"/>
<text text-anchor="middle" x="813.911" y="-81.8955" font-family="Helvetica,sans-Serif" font-size="10.00">picojson::_parse_number</text>
</a>
</g>
</g>
<!-- Node19&#45;&gt;Node29 -->
<g id="edge18" class="edge"><title>Node19&#45;&gt;Node29</title>
<path fill="none" stroke="midnightblue" d="M206.185,-114.845C212.937,-112.156 219.878,-108.848 225.876,-104.896 245.034,-92.2699 240.739,-76.8207 261.876,-67.8955 440.348,7.46626 681.081,-46.9727 774.044,-73.0661"/>
<polygon fill="midnightblue" stroke="midnightblue" points="773.288,-76.4901 783.865,-75.8727 775.212,-69.7595 773.288,-76.4901"/>
</g>
<!-- Node23 -->
<g id="node6" class="node"><title>Node23</title>
<g id="a_node6"><a xlink:href="classpicojson_1_1input.html#a14c29e99d9c9aa8cdbb46178c434d663" target="_top" xlink:title="picojson::input::expect">
<polygon fill="none" stroke="black" points="420.888,-96.8955 420.888,-114.896 535.838,-114.896 535.838,-96.8955 420.888,-96.8955"/>
<text text-anchor="middle" x="478.363" y="-102.896" font-family="Helvetica,sans-Serif" font-size="10.00">picojson::input::expect</text>
</a>
</g>
</g>
<!-- Node22&#45;&gt;Node23 -->
<g id="edge5" class="edge"><title>Node22&#45;&gt;Node23</title>
<path fill="none" stroke="midnightblue" d="M381.174,-94.0245C390.8,-95.2124 400.853,-96.4532 410.679,-97.6658"/>
<polygon fill="midnightblue" stroke="midnightblue" points="410.455,-101.165 420.808,-98.9159 411.312,-94.2173 410.455,-101.165"/>
</g>
<!-- Node24&#45;&gt;Node23 -->
<g id="edge7" class="edge"><title>Node24&#45;&gt;Node23</title>
<path fill="none" stroke="midnightblue" d="M355.076,-151.833C364.125,-149.106 373.966,-146.006 382.944,-142.896 404.378,-135.469 428.154,-126.146 446.484,-118.716"/>
<polygon fill="midnightblue" stroke="midnightblue" points="447.859,-121.935 455.795,-114.916 445.214,-115.454 447.859,-121.935"/>
</g>
<!-- Node25 -->
<g id="node8" class="node"><title>Node25</title>
<g id="a_node8"><a xlink:href="namespacepicojson.html#a9a1d94feb2718129796225d77c9e8d11" target="_top" xlink:title="picojson::_parse_string">
<polygon fill="none" stroke="black" points="418.944,-151.896 418.944,-169.896 537.781,-169.896 537.781,-151.896 418.944,-151.896"/>
<text text-anchor="middle" x="478.363" y="-157.896" font-family="Helvetica,sans-Serif" font-size="10.00">picojson::_parse_string</text>
</a>
</g>
</g>
<!-- Node24&#45;&gt;Node25 -->
<g id="edge8" class="edge"><title>Node24&#45;&gt;Node25</title>
<path fill="none" stroke="midnightblue" d="M383.373,-160.896C391.656,-160.896 400.216,-160.896 408.643,-160.896"/>
<polygon fill="midnightblue" stroke="midnightblue" points="408.827,-164.396 418.827,-160.896 408.827,-157.396 408.827,-164.396"/>
</g>
<!-- Node25&#45;&gt;Node21 -->
<g id="edge9" class="edge"><title>Node25&#45;&gt;Node21</title>
<path fill="none" stroke="midnightblue" d="M521.561,-169.962C537.839,-173.309 556.636,-176.989 573.781,-179.896 650.641,-192.925 669.964,-196.142 747.534,-203.896 802.756,-209.416 865.817,-213.11 911.186,-215.311"/>
<polygon fill="midnightblue" stroke="midnightblue" points="911.3,-218.82 921.454,-215.798 911.632,-211.828 911.3,-218.82"/>
</g>
<!-- Node25&#45;&gt;Node26 -->
<g id="edge10" class="edge"><title>Node25&#45;&gt;Node26</title>
<path fill="none" stroke="midnightblue" d="M497.949,-151.802C540.717,-131.444 649.934,-82.6723 747.534,-65.8955 805.683,-55.9003 821.587,-59.9453 880.287,-65.8955 895.834,-67.4715 912.624,-70.4969 927.592,-73.6781"/>
<polygon fill="midnightblue" stroke="midnightblue" points="927.106,-77.1549 937.624,-75.8894 928.612,-70.3189 927.106,-77.1549"/>
</g>
<!-- Node27 -->
<g id="node10" class="node"><title>Node27</title>
<g id="a_node10"><a xlink:href="namespacepicojson.html#a05316c2614f3e7a4559ce1d1003eb051" target="_top" xlink:title="picojson::_parse_codepoint">
<polygon fill="none" stroke="black" points="573.781,-151.896 573.781,-169.896 711.534,-169.896 711.534,-151.896 573.781,-151.896"/>
<text text-anchor="middle" x="642.658" y="-157.896" font-family="Helvetica,sans-Serif" font-size="10.00">picojson::_parse_codepoint</text>
</a>
</g>
</g>
<!-- Node25&#45;&gt;Node27 -->
<g id="edge11" class="edge"><title>Node25&#45;&gt;Node27</title>
<path fill="none" stroke="midnightblue" d="M537.955,-160.896C546.308,-160.896 555.008,-160.896 563.66,-160.896"/>
<polygon fill="midnightblue" stroke="midnightblue" points="563.77,-164.396 573.77,-160.896 563.77,-157.396 563.77,-164.396"/>
</g>
<!-- Node27&#45;&gt;Node21 -->
<g id="edge15" class="edge"><title>Node27&#45;&gt;Node21</title>
<path fill="none" stroke="midnightblue" d="M692.251,-169.929C709.677,-173.13 729.477,-176.723 747.534,-179.896 802.975,-189.636 866.174,-200.243 911.534,-207.769"/>
<polygon fill="midnightblue" stroke="midnightblue" points="911.071,-211.24 921.508,-209.422 912.215,-204.334 911.071,-211.24"/>
</g>
<!-- Node27&#45;&gt;Node26 -->
<g id="edge16" class="edge"><title>Node27&#45;&gt;Node26</title>
<path fill="none" stroke="midnightblue" d="M682.736,-151.879C742.91,-137.995 858.166,-111.402 923.906,-96.2331"/>
<polygon fill="midnightblue" stroke="midnightblue" points="925.058,-99.5592 934.016,-93.9005 923.485,-92.7384 925.058,-99.5592"/>
</g>
<!-- Node28 -->
<g id="node11" class="node"><title>Node28</title>
<g id="a_node11"><a xlink:href="namespacepicojson.html#a92d4f60542bbdfe8203f10e1fcce9368" target="_top" xlink:title="picojson::_parse_quadhex">
<polygon fill="none" stroke="black" points="747.534,-151.896 747.534,-169.896 880.287,-169.896 880.287,-151.896 747.534,-151.896"/>
<text text-anchor="middle" x="813.911" y="-157.896" font-family="Helvetica,sans-Serif" font-size="10.00">picojson::_parse_quadhex</text>
</a>
</g>
</g>
<!-- Node27&#45;&gt;Node28 -->
<g id="edge12" class="edge"><title>Node27&#45;&gt;Node28</title>
<path fill="none" stroke="midnightblue" d="M712.011,-160.896C720.295,-160.896 728.795,-160.896 737.177,-160.896"/>
<polygon fill="midnightblue" stroke="midnightblue" points="737.321,-164.396 747.321,-160.896 737.321,-157.396 737.321,-164.396"/>
</g>
<!-- Node28&#45;&gt;Node21 -->
<g id="edge13" class="edge"><title>Node28&#45;&gt;Node21</title>
<path fill="none" stroke="midnightblue" d="M839.967,-169.927C866.492,-179.488 908.55,-194.648 938.275,-205.363"/>
<polygon fill="midnightblue" stroke="midnightblue" points="937.248,-208.713 947.842,-208.812 939.622,-202.128 937.248,-208.713"/>
</g>
<!-- Node28&#45;&gt;Node26 -->
<g id="edge14" class="edge"><title>Node28&#45;&gt;Node26</title>
<path fill="none" stroke="midnightblue" d="M842.66,-151.807C854.436,-147.67 868.206,-142.457 880.287,-136.896 904.819,-125.603 931.602,-110.237 950.053,-99.1398"/>
<polygon fill="midnightblue" stroke="midnightblue" points="951.912,-102.106 958.64,-93.9211 948.277,-96.1236 951.912,-102.106"/>
</g>
<!-- Node29&#45;&gt;Node21 -->
<g id="edge19" class="edge"><title>Node29&#45;&gt;Node21</title>
<path fill="none" stroke="midnightblue" d="M825.78,-94.0372C852.298,-116.341 920.585,-173.775 954.023,-201.899"/>
<polygon fill="midnightblue" stroke="midnightblue" points="952.192,-204.932 962.098,-208.69 956.698,-199.575 952.192,-204.932"/>
</g>
<!-- Node29&#45;&gt;Node26 -->
<g id="edge20" class="edge"><title>Node29&#45;&gt;Node26</title>
<path fill="none" stroke="midnightblue" d="M878.318,-84.8955C887.433,-84.8955 896.837,-84.8955 906.019,-84.8955"/>
<polygon fill="midnightblue" stroke="midnightblue" points="906.264,-88.3956 916.264,-84.8955 906.264,-81.3956 906.264,-88.3956"/>
</g>
</g>
</svg>
