<?xml version="1.0" encoding="UTF-8" standalone="no"?>
<!DOCTYPE svg PUBLIC "-//W3C//DTD SVG 1.1//EN"
 "http://www.w3.org/Graphics/SVG/1.1/DTD/svg11.dtd">
<!-- Generated by graphviz version 2.38.0 (20140413.2041)
 -->
<!-- Title: picojson::_parse_string Pages: 1 -->
<svg width="621pt" height="103pt"
 viewBox="0.00 0.00 620.85 103.00" xmlns="http://www.w3.org/2000/svg" xmlns:xlink="http://www.w3.org/1999/xlink">
<g id="graph0" class="graph" transform="scale(1 1) rotate(0) translate(4 99)">
<title>picojson::_parse_string</title>
<!-- Node101 -->
<g id="node1" class="node"><title>Node101</title>
<polygon fill="#bfbfbf" stroke="black" points="0,-38.5 0,-56.5 118.837,-56.5 118.837,-38.5 0,-38.5"/>
<text text-anchor="middle" x="59.4185" y="-44.5" font-family="Helvetica,sans-Serif" font-size="10.00">picojson::_parse_string</text>
</g>
<!-- Node102 -->
<g id="node2" class="node"><title>Node102</title>
<g id="a_node2"><a xlink:href="classpicojson_1_1input.html#a3e8ba0b09a989efa0dc583096984ea8e" target="_top" xlink:title="picojson::input::getc">
<polygon fill="none" stroke="black" points="502.904,-76.5 502.904,-94.5 607.293,-94.5 607.293,-76.5 502.904,-76.5"/>
<text text-anchor="middle" x="555.099" y="-82.5" font-family="Helvetica,sans-Serif" font-size="10.00">picojson::input::getc</text>
</a>
</g>
</g>
<!-- Node101&#45;&gt;Node102 -->
<g id="edge1" class="edge"><title>Node101&#45;&gt;Node102</title>
<path fill="none" stroke="midnightblue" d="M104.502,-56.5484C120.334,-59.6272 138.348,-62.9349 154.837,-65.5 231.698,-77.457 250.945,-81.8249 328.59,-86.5 387.484,-90.0461 402.342,-86.818 461.343,-86.5 471.368,-86.446 482.002,-86.3591 492.356,-86.2585"/>
<polygon fill="midnightblue" stroke="midnightblue" points="492.62,-89.7561 502.584,-86.1541 492.549,-82.7565 492.62,-89.7561"/>
</g>
<!-- Node103 -->
<g id="node3" class="node"><title>Node103</title>
<g id="a_node3"><a xlink:href="classpicojson_1_1input.html#a96ccc244e73b2ab87ded38c98e98d573" target="_top" xlink:title="picojson::input::ungetc">
<polygon fill="none" stroke="black" points="497.343,-0.5 497.343,-18.5 612.854,-18.5 612.854,-0.5 497.343,-0.5"/>
<text text-anchor="middle" x="555.099" y="-6.5" font-family="Helvetica,sans-Serif" font-size="10.00">picojson::input::ungetc</text>
</a>
</g>
</g>
<!-- Node101&#45;&gt;Node103 -->
<g id="edge2" class="edge"><title>Node101&#45;&gt;Node103</title>
<path fill="none" stroke="midnightblue" d="M100.686,-38.4115C117.372,-34.9028 136.969,-31.1129 154.837,-28.5 231.571,-17.279 251.147,-16.5745 328.59,-12.5 381.732,-9.70404 442.01,-9.0313 486.868,-9.01537"/>
<polygon fill="midnightblue" stroke="midnightblue" points="487.056,-12.5154 497.059,-9.02291 487.062,-5.51542 487.056,-12.5154"/>
</g>
<!-- Node104 -->
<g id="node4" class="node"><title>Node104</title>
<g id="a_node4"><a xlink:href="namespacepicojson.html#a05316c2614f3e7a4559ce1d1003eb051" target="_top" xlink:title="picojson::_parse_codepoint">
<polygon fill="none" stroke="black" points="154.837,-38.5 154.837,-56.5 292.59,-56.5 292.59,-38.5 154.837,-38.5"/>
<text text-anchor="middle" x="223.713" y="-44.5" font-family="Helvetica,sans-Serif" font-size="10.00">picojson::_parse_codepoint</text>
</a>
</g>
</g>
<!-- Node101&#45;&gt;Node104 -->
<g id="edge3" class="edge"><title>Node101&#45;&gt;Node104</title>
<path fill="none" stroke="midnightblue" d="M119.011,-47.5C127.364,-47.5 136.063,-47.5 144.715,-47.5"/>
<polygon fill="midnightblue" stroke="midnightblue" points="144.826,-51.0001 154.826,-47.5 144.826,-44.0001 144.826,-51.0001"/>
</g>
<!-- Node104&#45;&gt;Node102 -->
<g id="edge7" class="edge"><title>Node104&#45;&gt;Node102</title>
<path fill="none" stroke="midnightblue" d="M271.903,-56.5304C289.629,-59.6975 309.988,-63.0677 328.59,-65.5 383.844,-72.7248 447.064,-78.0815 492.478,-81.4232"/>
<polygon fill="midnightblue" stroke="midnightblue" points="492.239,-84.915 502.466,-82.1468 492.745,-77.9333 492.239,-84.915"/>
</g>
<!-- Node104&#45;&gt;Node103 -->
<g id="edge8" class="edge"><title>Node104&#45;&gt;Node103</title>
<path fill="none" stroke="midnightblue" d="M268.792,-38.4628C287.209,-34.9409 308.873,-31.1276 328.59,-28.5 381.522,-21.4462 441.812,-16.5268 486.729,-13.4637"/>
<polygon fill="midnightblue" stroke="midnightblue" points="487.19,-16.9408 496.934,-12.7815 486.723,-9.95633 487.19,-16.9408"/>
</g>
<!-- Node105 -->
<g id="node5" class="node"><title>Node105</title>
<g id="a_node5"><a xlink:href="namespacepicojson.html#a92d4f60542bbdfe8203f10e1fcce9368" target="_top" xlink:title="picojson::_parse_quadhex">
<polygon fill="none" stroke="black" points="328.59,-38.5 328.59,-56.5 461.343,-56.5 461.343,-38.5 328.59,-38.5"/>
<text text-anchor="middle" x="394.966" y="-44.5" font-family="Helvetica,sans-Serif" font-size="10.00">picojson::_parse_quadhex</text>
</a>
</g>
</g>
<!-- Node104&#45;&gt;Node105 -->
<g id="edge4" class="edge"><title>Node104&#45;&gt;Node105</title>
<path fill="none" stroke="midnightblue" d="M293.067,-47.5C301.351,-47.5 309.851,-47.5 318.233,-47.5"/>
<polygon fill="midnightblue" stroke="midnightblue" points="318.376,-51.0001 328.376,-47.5 318.376,-44.0001 318.376,-51.0001"/>
</g>
<!-- Node105&#45;&gt;Node102 -->
<g id="edge5" class="edge"><title>Node105&#45;&gt;Node102</title>
<path fill="none" stroke="midnightblue" d="M433.441,-56.5055C455.418,-61.7866 483.388,-68.5079 506.864,-74.1492"/>
<polygon fill="midnightblue" stroke="midnightblue" points="506.078,-77.5599 516.619,-76.4934 507.713,-70.7537 506.078,-77.5599"/>
</g>
<!-- Node105&#45;&gt;Node103 -->
<g id="edge6" class="edge"><title>Node105&#45;&gt;Node103</title>
<path fill="none" stroke="midnightblue" d="M433.441,-38.4945C455.418,-33.2134 483.388,-26.4921 506.864,-20.8508"/>
<polygon fill="midnightblue" stroke="midnightblue" points="507.713,-24.2463 516.619,-18.5066 506.078,-17.4401 507.713,-24.2463"/>
</g>
</g>
</svg>
