<?xml version="1.0" encoding="UTF-8" standalone="no"?>
<!DOCTYPE svg PUBLIC "-//W3C//DTD SVG 1.1//EN"
 "http://www.w3.org/Graphics/SVG/1.1/DTD/svg11.dtd">
<!-- Generated by graphviz version 2.38.0 (20140413.2041)
 -->
<!-- Title: picojson::copy Pages: 1 -->
<svg width="248pt" height="74pt"
 viewBox="0.00 0.00 247.76 74.00" xmlns="http://www.w3.org/2000/svg" xmlns:xlink="http://www.w3.org/1999/xlink">
<g id="graph0" class="graph" transform="scale(1 1) rotate(0) translate(4 70)">
<title>picojson::copy</title>
<!-- Node118 -->
<g id="node1" class="node"><title>Node118</title>
<polygon fill="#bfbfbf" stroke="black" points="0,-21.5 0,-39.5 79.3691,-39.5 79.3691,-21.5 0,-21.5"/>
<text text-anchor="middle" x="39.6846" y="-27.5" font-family="Helvetica,sans-Serif" font-size="10.00">picojson::copy</text>
</g>
<!-- Node119 -->
<g id="node2" class="node"><title>Node119</title>
<g id="a_node2"><a xlink:href="structpicojson_1_1serialize__str__char.html#acea559bf2510abf0c3735b02e080308f" target="_top" xlink:title="picojson::serialize\l_str_char::operator()">
<polygon fill="none" stroke="black" points="123.99,-37.5 123.99,-65.5 231.137,-65.5 231.137,-37.5 123.99,-37.5"/>
<text text-anchor="start" x="131.99" y="-53.5" font-family="Helvetica,sans-Serif" font-size="10.00">picojson::serialize</text>
<text text-anchor="middle" x="177.563" y="-43.5" font-family="Helvetica,sans-Serif" font-size="10.00">_str_char::operator()</text>
</a>
</g>
</g>
<!-- Node118&#45;&gt;Node119 -->
<g id="edge1" class="edge"><title>Node118&#45;&gt;Node119</title>
<path fill="none" stroke="midnightblue" d="M89.6123,-38.0617C100.76,-39.7846 112.65,-41.6222 123.944,-43.3677"/>
<polygon fill="midnightblue" stroke="midnightblue" points="90.0393,-34.5863 79.622,-36.5178 88.9701,-41.5041 90.0393,-34.5863"/>
</g>
<!-- Node120 -->
<g id="node3" class="node"><title>Node120</title>
<g id="a_node3"><a xlink:href="classpicojson_1_1value.html#ad5fa91c040826e85855678db9258238d" target="_top" xlink:title="picojson::value::serialize">
<polygon fill="none" stroke="black" points="115.369,-0.5 115.369,-18.5 239.758,-18.5 239.758,-0.5 115.369,-0.5"/>
<text text-anchor="middle" x="177.563" y="-6.5" font-family="Helvetica,sans-Serif" font-size="10.00">picojson::value::serialize</text>
</a>
</g>
</g>
<!-- Node118&#45;&gt;Node120 -->
<g id="edge2" class="edge"><title>Node118&#45;&gt;Node120</title>
<path fill="none" stroke="midnightblue" d="M89.7577,-22.9158C98.9593,-21.4937 108.662,-19.9941 118.115,-18.5331"/>
<polygon fill="midnightblue" stroke="midnightblue" points="88.9701,-19.4959 79.622,-24.4822 90.0393,-26.4137 88.9701,-19.4959"/>
</g>
</g>
</svg>
