<?xml version="1.0" encoding="UTF-8" standalone="no"?>
<!DOCTYPE svg PUBLIC "-//W3C//DTD SVG 1.1//EN"
 "http://www.w3.org/Graphics/SVG/1.1/DTD/svg11.dtd">
<!-- Generated by graphviz version 2.38.0 (20140413.2041)
 -->
<!-- Title: picojson::_parse_array Pages: 1 -->
<svg width="427pt" height="252pt"
 viewBox="0.00 0.00 427.06 252.00" xmlns="http://www.w3.org/2000/svg" xmlns:xlink="http://www.w3.org/1999/xlink">
<g id="graph0" class="graph" transform="scale(1 1) rotate(0) translate(4 248)">
<title>picojson::_parse_array</title>
<!-- Node35 -->
<g id="node1" class="node"><title>Node35</title>
<polygon fill="#bfbfbf" stroke="black" points="0,-102.5 0,-120.5 117.167,-120.5 117.167,-102.5 0,-102.5"/>
<text text-anchor="middle" x="58.5835" y="-108.5" font-family="Helvetica,sans-Serif" font-size="10.00">picojson::_parse_array</text>
</g>
<!-- Node36 -->
<g id="node2" class="node"><title>Node36</title>
<g id="a_node2"><a xlink:href="namespacepicojson.html#aed024a6a1c8d8982a38c4a7fcefde221" target="_top" xlink:title="picojson::_parse">
<polygon fill="none" stroke="black" points="153.167,-102.5 153.167,-120.5 241.989,-120.5 241.989,-102.5 153.167,-102.5"/>
<text text-anchor="middle" x="197.578" y="-108.5" font-family="Helvetica,sans-Serif" font-size="10.00">picojson::_parse</text>
</a>
</g>
</g>
<!-- Node35&#45;&gt;Node36 -->
<g id="edge1" class="edge"><title>Node35&#45;&gt;Node36</title>
<path fill="none" stroke="midnightblue" d="M127.477,-111.5C136.193,-111.5 144.922,-111.5 153.1,-111.5"/>
<polygon fill="midnightblue" stroke="midnightblue" points="127.285,-108 117.285,-111.5 127.284,-115 127.285,-108"/>
</g>
<!-- Node37 -->
<g id="node3" class="node"><title>Node37</title>
<g id="a_node3"><a xlink:href="classpicojson_1_1default__parse__context.html#a5f65224e655633b20c1f8c5967c153bb" target="_top" xlink:title="picojson::default_parse\l_context::parse_array_item">
<polygon fill="none" stroke="black" points="279.94,-215.5 279.94,-243.5 417.112,-243.5 417.112,-215.5 279.94,-215.5"/>
<text text-anchor="start" x="287.94" y="-231.5" font-family="Helvetica,sans-Serif" font-size="10.00">picojson::default_parse</text>
<text text-anchor="middle" x="348.526" y="-221.5" font-family="Helvetica,sans-Serif" font-size="10.00">_context::parse_array_item</text>
</a>
</g>
</g>
<!-- Node36&#45;&gt;Node37 -->
<g id="edge2" class="edge"><title>Node36&#45;&gt;Node37</title>
<path fill="none" stroke="midnightblue" d="M209.013,-129.192C222.418,-150.458 247.618,-185.856 277.989,-206.5 283.037,-209.931 288.637,-212.884 294.403,-215.418"/>
<polygon fill="midnightblue" stroke="midnightblue" points="211.911,-127.223 203.707,-120.519 205.94,-130.876 211.911,-127.223"/>
</g>
<!-- Node38 -->
<g id="node4" class="node"><title>Node38</title>
<g id="a_node4"><a xlink:href="classpicojson_1_1default__parse__context.html#adf71929b098e4f4b5c32222af149655a" target="_top" xlink:title="picojson::default_parse\l_context::parse_object_item">
<polygon fill="none" stroke="black" points="277.989,-168.5 277.989,-196.5 419.062,-196.5 419.062,-168.5 277.989,-168.5"/>
<text text-anchor="start" x="285.989" y="-184.5" font-family="Helvetica,sans-Serif" font-size="10.00">picojson::default_parse</text>
<text text-anchor="middle" x="348.526" y="-174.5" font-family="Helvetica,sans-Serif" font-size="10.00">_context::parse_object_item</text>
</a>
</g>
</g>
<!-- Node36&#45;&gt;Node38 -->
<g id="edge3" class="edge"><title>Node36&#45;&gt;Node38</title>
<path fill="none" stroke="midnightblue" d="M219.952,-126.228C235.538,-136.511 257.44,-150.037 277.989,-159.5 285.035,-162.744 292.671,-165.749 300.216,-168.443"/>
<polygon fill="midnightblue" stroke="midnightblue" points="221.818,-123.265 211.563,-120.603 217.92,-129.079 221.818,-123.265"/>
</g>
<!-- Node39 -->
<g id="node5" class="node"><title>Node39</title>
<g id="a_node5"><a xlink:href="classpicojson_1_1null__parse__context.html#a6623f92117dd6dc7bca60e9e9463a1a0" target="_top" xlink:title="picojson::null_parse\l_context::parse_array_item">
<polygon fill="none" stroke="black" points="279.94,-121.5 279.94,-149.5 417.112,-149.5 417.112,-121.5 279.94,-121.5"/>
<text text-anchor="start" x="287.94" y="-137.5" font-family="Helvetica,sans-Serif" font-size="10.00">picojson::null_parse</text>
<text text-anchor="middle" x="348.526" y="-127.5" font-family="Helvetica,sans-Serif" font-size="10.00">_context::parse_array_item</text>
</a>
</g>
</g>
<!-- Node36&#45;&gt;Node39 -->
<g id="edge4" class="edge"><title>Node36&#45;&gt;Node39</title>
<path fill="none" stroke="midnightblue" d="M252.035,-120.114C261.067,-121.569 270.547,-123.096 279.884,-124.601"/>
<polygon fill="midnightblue" stroke="midnightblue" points="252.49,-116.642 242.06,-118.506 251.376,-123.553 252.49,-116.642"/>
</g>
<!-- Node40 -->
<g id="node6" class="node"><title>Node40</title>
<g id="a_node6"><a xlink:href="classpicojson_1_1null__parse__context.html#a97c4b81a984ea473fe56e09aed7b9ca6" target="_top" xlink:title="picojson::null_parse\l_context::parse_object_item">
<polygon fill="none" stroke="black" points="277.989,-74.5 277.989,-102.5 419.062,-102.5 419.062,-74.5 277.989,-74.5"/>
<text text-anchor="start" x="285.989" y="-90.5" font-family="Helvetica,sans-Serif" font-size="10.00">picojson::null_parse</text>
<text text-anchor="middle" x="348.526" y="-80.5" font-family="Helvetica,sans-Serif" font-size="10.00">_context::parse_object_item</text>
</a>
</g>
</g>
<!-- Node36&#45;&gt;Node40 -->
<g id="edge5" class="edge"><title>Node36&#45;&gt;Node40</title>
<path fill="none" stroke="midnightblue" d="M252.071,-103.24C260.461,-101.944 269.238,-100.589 277.927,-99.2473"/>
<polygon fill="midnightblue" stroke="midnightblue" points="251.409,-99.8005 242.06,-104.786 252.477,-106.718 251.409,-99.8005"/>
</g>
<!-- Node41 -->
<g id="node7" class="node"><title>Node41</title>
<g id="a_node7"><a xlink:href="namespacepicojson.html#a01c0a3f35d42282ba913375737c8e259" target="_top" xlink:title="picojson::_parse">
<polygon fill="none" stroke="black" points="304.115,-37.5 304.115,-55.5 392.937,-55.5 392.937,-37.5 304.115,-37.5"/>
<text text-anchor="middle" x="348.526" y="-43.5" font-family="Helvetica,sans-Serif" font-size="10.00">picojson::_parse</text>
</a>
</g>
</g>
<!-- Node36&#45;&gt;Node41 -->
<g id="edge6" class="edge"><title>Node36&#45;&gt;Node41</title>
<path fill="none" stroke="midnightblue" d="M220.172,-96.938C235.713,-86.9788 257.467,-74.0771 277.989,-65.5 287.342,-61.591 297.738,-58.2535 307.58,-55.5172"/>
<polygon fill="midnightblue" stroke="midnightblue" points="218.257,-94.0089 211.797,-102.407 222.084,-99.87 218.257,-94.0089"/>
</g>
<!-- Node42 -->
<g id="node8" class="node"><title>Node42</title>
<g id="a_node8"><a xlink:href="namespacepicojson.html#a21621c03c9c8c83dcf5bc604d1cafdf6" target="_top" xlink:title="picojson::parse">
<polygon fill="none" stroke="black" points="306.896,-0.5 306.896,-18.5 390.156,-18.5 390.156,-0.5 306.896,-0.5"/>
<text text-anchor="middle" x="348.526" y="-6.5" font-family="Helvetica,sans-Serif" font-size="10.00">picojson::parse</text>
</a>
</g>
</g>
<!-- Node36&#45;&gt;Node42 -->
<g id="edge7" class="edge"><title>Node36&#45;&gt;Node42</title>
<path fill="none" stroke="midnightblue" d="M210.611,-94.17C224.642,-75.2582 249.57,-45.4239 277.989,-28.5 286.699,-23.3133 296.859,-19.5067 306.679,-16.7261"/>
<polygon fill="midnightblue" stroke="midnightblue" points="207.636,-92.3123 204.631,-102.472 213.315,-96.4037 207.636,-92.3123"/>
</g>
</g>
</svg>
