<?xml version="1.0" encoding="UTF-8" standalone="no"?>
<!DOCTYPE svg PUBLIC "-//W3C//DTD SVG 1.1//EN"
 "http://www.w3.org/Graphics/SVG/1.1/DTD/svg11.dtd">
<!-- Generated by graphviz version 2.38.0 (20140413.2041)
 -->
<!-- Title: picojson::_parse_codepoint Pages: 1 -->
<svg width="466pt" height="64pt"
 viewBox="0.00 0.00 466.02 64.00" xmlns="http://www.w3.org/2000/svg" xmlns:xlink="http://www.w3.org/1999/xlink">
<g id="graph0" class="graph" transform="scale(1 1) rotate(0) translate(4 60)">
<title>picojson::_parse_codepoint</title>
<!-- Node43 -->
<g id="node1" class="node"><title>Node43</title>
<polygon fill="#bfbfbf" stroke="black" points="0,-19.5 0,-37.5 137.753,-37.5 137.753,-19.5 0,-19.5"/>
<text text-anchor="middle" x="68.8765" y="-25.5" font-family="Helvetica,sans-Serif" font-size="10.00">picojson::_parse_codepoint</text>
</g>
<!-- Node44 -->
<g id="node2" class="node"><title>Node44</title>
<g id="a_node2"><a xlink:href="namespacepicojson.html#a92d4f60542bbdfe8203f10e1fcce9368" target="_top" xlink:title="picojson::_parse_quadhex">
<polygon fill="none" stroke="black" points="173.753,-19.5 173.753,-37.5 306.506,-37.5 306.506,-19.5 173.753,-19.5"/>
<text text-anchor="middle" x="240.129" y="-25.5" font-family="Helvetica,sans-Serif" font-size="10.00">picojson::_parse_quadhex</text>
</a>
</g>
</g>
<!-- Node43&#45;&gt;Node44 -->
<g id="edge1" class="edge"><title>Node43&#45;&gt;Node44</title>
<path fill="none" stroke="midnightblue" d="M138.23,-28.5C146.514,-28.5 155.014,-28.5 163.396,-28.5"/>
<polygon fill="midnightblue" stroke="midnightblue" points="163.539,-32.0001 173.539,-28.5 163.539,-25.0001 163.539,-32.0001"/>
</g>
<!-- Node45 -->
<g id="node3" class="node"><title>Node45</title>
<g id="a_node3"><a xlink:href="classpicojson_1_1input.html#a3e8ba0b09a989efa0dc583096984ea8e" target="_top" xlink:title="picojson::input::getc">
<polygon fill="none" stroke="black" points="348.067,-37.5 348.067,-55.5 452.456,-55.5 452.456,-37.5 348.067,-37.5"/>
<text text-anchor="middle" x="400.262" y="-43.5" font-family="Helvetica,sans-Serif" font-size="10.00">picojson::input::getc</text>
</a>
</g>
</g>
<!-- Node43&#45;&gt;Node45 -->
<g id="edge4" class="edge"><title>Node43&#45;&gt;Node45</title>
<path fill="none" stroke="midnightblue" d="M109.6,-37.5079C128.857,-41.4272 152.391,-45.5624 173.753,-47.5 232.513,-52.8297 247.505,-47.818 306.506,-47.5 316.531,-47.446 327.165,-47.3591 337.519,-47.2585"/>
<polygon fill="midnightblue" stroke="midnightblue" points="337.783,-50.7561 347.747,-47.1541 337.712,-43.7565 337.783,-50.7561"/>
</g>
<!-- Node46 -->
<g id="node4" class="node"><title>Node46</title>
<g id="a_node4"><a xlink:href="classpicojson_1_1input.html#a96ccc244e73b2ab87ded38c98e98d573" target="_top" xlink:title="picojson::input::ungetc">
<polygon fill="none" stroke="black" points="342.506,-0.5 342.506,-18.5 458.018,-18.5 458.018,-0.5 342.506,-0.5"/>
<text text-anchor="middle" x="400.262" y="-6.5" font-family="Helvetica,sans-Serif" font-size="10.00">picojson::input::ungetc</text>
</a>
</g>
</g>
<!-- Node43&#45;&gt;Node46 -->
<g id="edge5" class="edge"><title>Node43&#45;&gt;Node46</title>
<path fill="none" stroke="midnightblue" d="M109.6,-19.4921C128.857,-15.5728 152.391,-11.4376 173.753,-9.5 226.746,-4.69336 287.034,-4.99051 331.933,-6.32697"/>
<polygon fill="midnightblue" stroke="midnightblue" points="332.026,-9.83172 342.134,-6.65627 332.252,-2.83536 332.026,-9.83172"/>
</g>
<!-- Node44&#45;&gt;Node45 -->
<g id="edge2" class="edge"><title>Node44&#45;&gt;Node45</title>
<path fill="none" stroke="midnightblue" d="M306.818,-35.9772C317.128,-37.1508 327.751,-38.36 337.957,-39.5218"/>
<polygon fill="midnightblue" stroke="midnightblue" points="337.666,-43.0111 347.997,-40.6647 338.458,-36.056 337.666,-43.0111"/>
</g>
<!-- Node44&#45;&gt;Node46 -->
<g id="edge3" class="edge"><title>Node44&#45;&gt;Node46</title>
<path fill="none" stroke="midnightblue" d="M306.818,-20.6074C315.143,-19.6071 323.672,-18.5823 332.021,-17.5791"/>
<polygon fill="midnightblue" stroke="midnightblue" points="332.579,-21.0373 342.09,-16.3693 331.744,-14.0873 332.579,-21.0373"/>
</g>
</g>
</svg>
