<?xml version="1.0" encoding="UTF-8" standalone="no"?>
<!DOCTYPE svg PUBLIC "-//W3C//DTD SVG 1.1//EN"
 "http://www.w3.org/Graphics/SVG/1.1/DTD/svg11.dtd">
<!-- Generated by graphviz version 2.38.0 (20140413.2041)
 -->
<!-- Title: picojson::_parse_quadhex Pages: 1 -->
<svg width="292pt" height="64pt"
 viewBox="0.00 0.00 292.26 64.00" xmlns="http://www.w3.org/2000/svg" xmlns:xlink="http://www.w3.org/1999/xlink">
<g id="graph0" class="graph" transform="scale(1 1) rotate(0) translate(4 60)">
<title>picojson::_parse_quadhex</title>
<!-- Node85 -->
<g id="node1" class="node"><title>Node85</title>
<polygon fill="#bfbfbf" stroke="black" points="0,-18.5 0,-36.5 132.753,-36.5 132.753,-18.5 0,-18.5"/>
<text text-anchor="middle" x="66.3765" y="-24.5" font-family="Helvetica,sans-Serif" font-size="10.00">picojson::_parse_quadhex</text>
</g>
<!-- Node86 -->
<g id="node2" class="node"><title>Node86</title>
<g id="a_node2"><a xlink:href="classpicojson_1_1input.html#a3e8ba0b09a989efa0dc583096984ea8e" target="_top" xlink:title="picojson::input::getc">
<polygon fill="none" stroke="black" points="174.314,-37.5 174.314,-55.5 278.703,-55.5 278.703,-37.5 174.314,-37.5"/>
<text text-anchor="middle" x="226.509" y="-43.5" font-family="Helvetica,sans-Serif" font-size="10.00">picojson::input::getc</text>
</a>
</g>
</g>
<!-- Node85&#45;&gt;Node86 -->
<g id="edge1" class="edge"><title>Node85&#45;&gt;Node86</title>
<path fill="none" stroke="midnightblue" d="M133.065,-35.3926C143.375,-36.6314 153.998,-37.9078 164.204,-39.1341"/>
<polygon fill="midnightblue" stroke="midnightblue" points="163.898,-42.6224 174.245,-40.3405 164.734,-35.6724 163.898,-42.6224"/>
</g>
<!-- Node87 -->
<g id="node3" class="node"><title>Node87</title>
<g id="a_node3"><a xlink:href="classpicojson_1_1input.html#a96ccc244e73b2ab87ded38c98e98d573" target="_top" xlink:title="picojson::input::ungetc">
<polygon fill="none" stroke="black" points="168.753,-0.5 168.753,-18.5 284.265,-18.5 284.265,-0.5 168.753,-0.5"/>
<text text-anchor="middle" x="226.509" y="-6.5" font-family="Helvetica,sans-Serif" font-size="10.00">picojson::input::ungetc</text>
</a>
</g>
</g>
<!-- Node85&#45;&gt;Node87 -->
<g id="edge2" class="edge"><title>Node85&#45;&gt;Node87</title>
<path fill="none" stroke="midnightblue" d="M133.065,-20.0228C141.39,-19.0751 149.919,-18.1043 158.268,-17.1539"/>
<polygon fill="midnightblue" stroke="midnightblue" points="158.797,-20.6164 168.337,-16.0078 158.006,-13.6613 158.797,-20.6164"/>
</g>
</g>
</svg>
