<?xml version="1.0" encoding="UTF-8" standalone="no"?>
<!DOCTYPE svg PUBLIC "-//W3C//DTD SVG 1.1//EN"
 "http://www.w3.org/Graphics/SVG/1.1/DTD/svg11.dtd">
<!-- Generated by graphviz version 2.38.0 (20140413.2041)
 -->
<!-- Title: picojson::_parse_quadhex Pages: 1 -->
<svg width="928pt" height="252pt"
 viewBox="0.00 0.00 928.31 252.00" xmlns="http://www.w3.org/2000/svg" xmlns:xlink="http://www.w3.org/1999/xlink">
<g id="graph0" class="graph" transform="scale(1 1) rotate(0) translate(4 248)">
<title>picojson::_parse_quadhex</title>
<!-- Node88 -->
<g id="node1" class="node"><title>Node88</title>
<polygon fill="#bfbfbf" stroke="black" points="0,-60.5 0,-78.5 132.753,-78.5 132.753,-60.5 0,-60.5"/>
<text text-anchor="middle" x="66.3765" y="-66.5" font-family="Helvetica,sans-Serif" font-size="10.00">picojson::_parse_quadhex</text>
</g>
<!-- Node89 -->
<g id="node2" class="node"><title>Node89</title>
<g id="a_node2"><a xlink:href="namespacepicojson.html#a05316c2614f3e7a4559ce1d1003eb051" target="_top" xlink:title="picojson::_parse_codepoint">
<polygon fill="none" stroke="black" points="168.753,-60.5 168.753,-78.5 306.506,-78.5 306.506,-60.5 168.753,-60.5"/>
<text text-anchor="middle" x="237.629" y="-66.5" font-family="Helvetica,sans-Serif" font-size="10.00">picojson::_parse_codepoint</text>
</a>
</g>
</g>
<!-- Node88&#45;&gt;Node89 -->
<g id="edge1" class="edge"><title>Node88&#45;&gt;Node89</title>
<path fill="none" stroke="midnightblue" d="M143.085,-69.5C151.573,-69.5 160.183,-69.5 168.567,-69.5"/>
<polygon fill="midnightblue" stroke="midnightblue" points="142.814,-66.0001 132.814,-69.5 142.814,-73.0001 142.814,-66.0001"/>
</g>
<!-- Node90 -->
<g id="node3" class="node"><title>Node90</title>
<g id="a_node3"><a xlink:href="namespacepicojson.html#a9a1d94feb2718129796225d77c9e8d11" target="_top" xlink:title="picojson::_parse_string">
<polygon fill="none" stroke="black" points="342.506,-60.5 342.506,-78.5 461.343,-78.5 461.343,-60.5 342.506,-60.5"/>
<text text-anchor="middle" x="401.924" y="-66.5" font-family="Helvetica,sans-Serif" font-size="10.00">picojson::_parse_string</text>
</a>
</g>
</g>
<!-- Node89&#45;&gt;Node90 -->
<g id="edge2" class="edge"><title>Node89&#45;&gt;Node90</title>
<path fill="none" stroke="midnightblue" d="M316.627,-69.5C325.277,-69.5 333.976,-69.5 342.329,-69.5"/>
<polygon fill="midnightblue" stroke="midnightblue" points="316.517,-66.0001 306.517,-69.5 316.517,-73.0001 316.517,-66.0001"/>
</g>
<!-- Node91 -->
<g id="node4" class="node"><title>Node91</title>
<g id="a_node4"><a xlink:href="namespacepicojson.html#a480ed5e3461568672197a42e259a44c9" target="_top" xlink:title="picojson::_parse_object">
<polygon fill="none" stroke="black" points="497.343,-102.5 497.343,-120.5 618.411,-120.5 618.411,-102.5 497.343,-102.5"/>
<text text-anchor="middle" x="557.877" y="-108.5" font-family="Helvetica,sans-Serif" font-size="10.00">picojson::_parse_object</text>
</a>
</g>
</g>
<!-- Node90&#45;&gt;Node91 -->
<g id="edge3" class="edge"><title>Node90&#45;&gt;Node91</title>
<path fill="none" stroke="midnightblue" d="M445.759,-81.1857C470.378,-87.902 500.84,-96.2124 523.64,-102.432"/>
<polygon fill="midnightblue" stroke="midnightblue" points="446.52,-77.7655 435.951,-78.5101 444.677,-84.5187 446.52,-77.7655"/>
</g>
<!-- Node99 -->
<g id="node12" class="node"><title>Node99</title>
<g id="a_node12"><a xlink:href="classpicojson_1_1default__parse__context.html#a476c7d30a5cf382b48201ec64585c2f3" target="_top" xlink:title="picojson::default_parse\l_context::parse_string">
<polygon fill="none" stroke="black" points="498.454,-55.5 498.454,-83.5 617.3,-83.5 617.3,-55.5 498.454,-55.5"/>
<text text-anchor="start" x="506.454" y="-71.5" font-family="Helvetica,sans-Serif" font-size="10.00">picojson::default_parse</text>
<text text-anchor="middle" x="557.877" y="-61.5" font-family="Helvetica,sans-Serif" font-size="10.00">_context::parse_string</text>
</a>
</g>
</g>
<!-- Node90&#45;&gt;Node99 -->
<g id="edge11" class="edge"><title>Node90&#45;&gt;Node99</title>
<path fill="none" stroke="midnightblue" d="M471.582,-69.5C480.532,-69.5 489.635,-69.5 498.398,-69.5"/>
<polygon fill="midnightblue" stroke="midnightblue" points="471.566,-66.0001 461.566,-69.5 471.566,-73.0001 471.566,-66.0001"/>
</g>
<!-- Node100 -->
<g id="node13" class="node"><title>Node100</title>
<g id="a_node13"><a xlink:href="classpicojson_1_1null__parse__context.html#aab2c7dee1eb5b477370832811cd40d14" target="_top" xlink:title="picojson::null_parse\l_context::parse_string">
<polygon fill="none" stroke="black" points="500.683,-8.5 500.683,-36.5 615.071,-36.5 615.071,-8.5 500.683,-8.5"/>
<text text-anchor="start" x="508.683" y="-24.5" font-family="Helvetica,sans-Serif" font-size="10.00">picojson::null_parse</text>
<text text-anchor="middle" x="557.877" y="-14.5" font-family="Helvetica,sans-Serif" font-size="10.00">_context::parse_string</text>
</a>
</g>
</g>
<!-- Node90&#45;&gt;Node100 -->
<g id="edge12" class="edge"><title>Node90&#45;&gt;Node100</title>
<path fill="none" stroke="midnightblue" d="M442.44,-57.4363C463.345,-51.0541 489.125,-43.1838 510.921,-36.5299"/>
<polygon fill="midnightblue" stroke="midnightblue" points="441.15,-54.1705 432.608,-60.4379 443.194,-60.8655 441.15,-54.1705"/>
</g>
<!-- Node92 -->
<g id="node5" class="node"><title>Node92</title>
<g id="a_node5"><a xlink:href="namespacepicojson.html#aed024a6a1c8d8982a38c4a7fcefde221" target="_top" xlink:title="picojson::_parse">
<polygon fill="none" stroke="black" points="654.411,-102.5 654.411,-120.5 743.233,-120.5 743.233,-102.5 654.411,-102.5"/>
<text text-anchor="middle" x="698.822" y="-108.5" font-family="Helvetica,sans-Serif" font-size="10.00">picojson::_parse</text>
</a>
</g>
</g>
<!-- Node91&#45;&gt;Node92 -->
<g id="edge4" class="edge"><title>Node91&#45;&gt;Node92</title>
<path fill="none" stroke="midnightblue" d="M628.723,-111.5C637.363,-111.5 645.995,-111.5 654.086,-111.5"/>
<polygon fill="midnightblue" stroke="midnightblue" points="628.609,-108 618.609,-111.5 628.609,-115 628.609,-108"/>
</g>
<!-- Node93 -->
<g id="node6" class="node"><title>Node93</title>
<g id="a_node6"><a xlink:href="classpicojson_1_1default__parse__context.html#a5f65224e655633b20c1f8c5967c153bb" target="_top" xlink:title="picojson::default_parse\l_context::parse_array_item">
<polygon fill="none" stroke="black" points="781.184,-215.5 781.184,-243.5 918.356,-243.5 918.356,-215.5 781.184,-215.5"/>
<text text-anchor="start" x="789.184" y="-231.5" font-family="Helvetica,sans-Serif" font-size="10.00">picojson::default_parse</text>
<text text-anchor="middle" x="849.77" y="-221.5" font-family="Helvetica,sans-Serif" font-size="10.00">_context::parse_array_item</text>
</a>
</g>
</g>
<!-- Node92&#45;&gt;Node93 -->
<g id="edge5" class="edge"><title>Node92&#45;&gt;Node93</title>
<path fill="none" stroke="midnightblue" d="M710.257,-129.192C723.662,-150.458 748.862,-185.856 779.233,-206.5 784.281,-209.931 789.881,-212.884 795.648,-215.418"/>
<polygon fill="midnightblue" stroke="midnightblue" points="713.155,-127.223 704.951,-120.519 707.184,-130.876 713.155,-127.223"/>
</g>
<!-- Node94 -->
<g id="node7" class="node"><title>Node94</title>
<g id="a_node7"><a xlink:href="classpicojson_1_1default__parse__context.html#adf71929b098e4f4b5c32222af149655a" target="_top" xlink:title="picojson::default_parse\l_context::parse_object_item">
<polygon fill="none" stroke="black" points="779.233,-168.5 779.233,-196.5 920.307,-196.5 920.307,-168.5 779.233,-168.5"/>
<text text-anchor="start" x="787.233" y="-184.5" font-family="Helvetica,sans-Serif" font-size="10.00">picojson::default_parse</text>
<text text-anchor="middle" x="849.77" y="-174.5" font-family="Helvetica,sans-Serif" font-size="10.00">_context::parse_object_item</text>
</a>
</g>
</g>
<!-- Node92&#45;&gt;Node94 -->
<g id="edge6" class="edge"><title>Node92&#45;&gt;Node94</title>
<path fill="none" stroke="midnightblue" d="M721.196,-126.228C736.782,-136.511 758.684,-150.037 779.233,-159.5 786.279,-162.744 793.915,-165.749 801.46,-168.443"/>
<polygon fill="midnightblue" stroke="midnightblue" points="723.062,-123.265 712.807,-120.603 719.164,-129.079 723.062,-123.265"/>
</g>
<!-- Node95 -->
<g id="node8" class="node"><title>Node95</title>
<g id="a_node8"><a xlink:href="classpicojson_1_1null__parse__context.html#a6623f92117dd6dc7bca60e9e9463a1a0" target="_top" xlink:title="picojson::null_parse\l_context::parse_array_item">
<polygon fill="none" stroke="black" points="781.184,-121.5 781.184,-149.5 918.356,-149.5 918.356,-121.5 781.184,-121.5"/>
<text text-anchor="start" x="789.184" y="-137.5" font-family="Helvetica,sans-Serif" font-size="10.00">picojson::null_parse</text>
<text text-anchor="middle" x="849.77" y="-127.5" font-family="Helvetica,sans-Serif" font-size="10.00">_context::parse_array_item</text>
</a>
</g>
</g>
<!-- Node92&#45;&gt;Node95 -->
<g id="edge7" class="edge"><title>Node92&#45;&gt;Node95</title>
<path fill="none" stroke="midnightblue" d="M753.279,-120.114C762.311,-121.569 771.792,-123.096 781.128,-124.601"/>
<polygon fill="midnightblue" stroke="midnightblue" points="753.734,-116.642 743.305,-118.506 752.62,-123.553 753.734,-116.642"/>
</g>
<!-- Node96 -->
<g id="node9" class="node"><title>Node96</title>
<g id="a_node9"><a xlink:href="classpicojson_1_1null__parse__context.html#a97c4b81a984ea473fe56e09aed7b9ca6" target="_top" xlink:title="picojson::null_parse\l_context::parse_object_item">
<polygon fill="none" stroke="black" points="779.233,-74.5 779.233,-102.5 920.307,-102.5 920.307,-74.5 779.233,-74.5"/>
<text text-anchor="start" x="787.233" y="-90.5" font-family="Helvetica,sans-Serif" font-size="10.00">picojson::null_parse</text>
<text text-anchor="middle" x="849.77" y="-80.5" font-family="Helvetica,sans-Serif" font-size="10.00">_context::parse_object_item</text>
</a>
</g>
</g>
<!-- Node92&#45;&gt;Node96 -->
<g id="edge8" class="edge"><title>Node92&#45;&gt;Node96</title>
<path fill="none" stroke="midnightblue" d="M753.315,-103.24C761.705,-101.944 770.482,-100.589 779.171,-99.2473"/>
<polygon fill="midnightblue" stroke="midnightblue" points="752.653,-99.8005 743.305,-104.786 753.722,-106.718 752.653,-99.8005"/>
</g>
<!-- Node97 -->
<g id="node10" class="node"><title>Node97</title>
<g id="a_node10"><a xlink:href="namespacepicojson.html#a01c0a3f35d42282ba913375737c8e259" target="_top" xlink:title="picojson::_parse">
<polygon fill="none" stroke="black" points="805.359,-37.5 805.359,-55.5 894.181,-55.5 894.181,-37.5 805.359,-37.5"/>
<text text-anchor="middle" x="849.77" y="-43.5" font-family="Helvetica,sans-Serif" font-size="10.00">picojson::_parse</text>
</a>
</g>
</g>
<!-- Node92&#45;&gt;Node97 -->
<g id="edge9" class="edge"><title>Node92&#45;&gt;Node97</title>
<path fill="none" stroke="midnightblue" d="M721.417,-96.938C736.957,-86.9788 758.711,-74.0771 779.233,-65.5 788.586,-61.591 798.982,-58.2535 808.825,-55.5172"/>
<polygon fill="midnightblue" stroke="midnightblue" points="719.501,-94.0089 713.041,-102.407 723.328,-99.87 719.501,-94.0089"/>
</g>
<!-- Node98 -->
<g id="node11" class="node"><title>Node98</title>
<g id="a_node11"><a xlink:href="namespacepicojson.html#a21621c03c9c8c83dcf5bc604d1cafdf6" target="_top" xlink:title="picojson::parse">
<polygon fill="none" stroke="black" points="808.14,-0.5 808.14,-18.5 891.4,-18.5 891.4,-0.5 808.14,-0.5"/>
<text text-anchor="middle" x="849.77" y="-6.5" font-family="Helvetica,sans-Serif" font-size="10.00">picojson::parse</text>
</a>
</g>
</g>
<!-- Node92&#45;&gt;Node98 -->
<g id="edge10" class="edge"><title>Node92&#45;&gt;Node98</title>
<path fill="none" stroke="midnightblue" d="M711.855,-94.17C725.886,-75.2582 750.814,-45.4239 779.233,-28.5 787.943,-23.3133 798.103,-19.5067 807.923,-16.7261"/>
<polygon fill="midnightblue" stroke="midnightblue" points="708.88,-92.3123 705.875,-102.472 714.56,-96.4037 708.88,-92.3123"/>
</g>
</g>
</svg>
