<?xml version="1.0" encoding="UTF-8" standalone="no"?>
<!DOCTYPE svg PUBLIC "-//W3C//DTD SVG 1.1//EN"
 "http://www.w3.org/Graphics/SVG/1.1/DTD/svg11.dtd">
<!-- Generated by graphviz version 2.38.0 (20140413.2041)
 -->
<!-- Title: picojson::_parse_object Pages: 1 -->
<svg width="431pt" height="252pt"
 viewBox="0.00 0.00 430.96 252.00" xmlns="http://www.w3.org/2000/svg" xmlns:xlink="http://www.w3.org/1999/xlink">
<g id="graph0" class="graph" transform="scale(1 1) rotate(0) translate(4 248)">
<title>picojson::_parse_object</title>
<!-- Node77 -->
<g id="node1" class="node"><title>Node77</title>
<polygon fill="#bfbfbf" stroke="black" points="0,-102.5 0,-120.5 121.068,-120.5 121.068,-102.5 0,-102.5"/>
<text text-anchor="middle" x="60.5342" y="-108.5" font-family="Helvetica,sans-Serif" font-size="10.00">picojson::_parse_object</text>
</g>
<!-- Node78 -->
<g id="node2" class="node"><title>Node78</title>
<g id="a_node2"><a xlink:href="namespacepicojson.html#aed024a6a1c8d8982a38c4a7fcefde221" target="_top" xlink:title="picojson::_parse">
<polygon fill="none" stroke="black" points="157.068,-102.5 157.068,-120.5 245.891,-120.5 245.891,-102.5 157.068,-102.5"/>
<text text-anchor="middle" x="201.479" y="-108.5" font-family="Helvetica,sans-Serif" font-size="10.00">picojson::_parse</text>
</a>
</g>
</g>
<!-- Node77&#45;&gt;Node78 -->
<g id="edge1" class="edge"><title>Node77&#45;&gt;Node78</title>
<path fill="none" stroke="midnightblue" d="M131.38,-111.5C140.02,-111.5 148.653,-111.5 156.743,-111.5"/>
<polygon fill="midnightblue" stroke="midnightblue" points="131.266,-108 121.266,-111.5 131.266,-115 131.266,-108"/>
</g>
<!-- Node79 -->
<g id="node3" class="node"><title>Node79</title>
<g id="a_node3"><a xlink:href="classpicojson_1_1default__parse__context.html#a5f65224e655633b20c1f8c5967c153bb" target="_top" xlink:title="picojson::default_parse\l_context::parse_array_item">
<polygon fill="none" stroke="black" points="283.841,-215.5 283.841,-243.5 421.013,-243.5 421.013,-215.5 283.841,-215.5"/>
<text text-anchor="start" x="291.841" y="-231.5" font-family="Helvetica,sans-Serif" font-size="10.00">picojson::default_parse</text>
<text text-anchor="middle" x="352.427" y="-221.5" font-family="Helvetica,sans-Serif" font-size="10.00">_context::parse_array_item</text>
</a>
</g>
</g>
<!-- Node78&#45;&gt;Node79 -->
<g id="edge2" class="edge"><title>Node78&#45;&gt;Node79</title>
<path fill="none" stroke="midnightblue" d="M212.914,-129.192C226.319,-150.458 251.519,-185.856 281.891,-206.5 286.938,-209.931 292.538,-212.884 298.305,-215.418"/>
<polygon fill="midnightblue" stroke="midnightblue" points="215.812,-127.223 207.608,-120.519 209.841,-130.876 215.812,-127.223"/>
</g>
<!-- Node80 -->
<g id="node4" class="node"><title>Node80</title>
<g id="a_node4"><a xlink:href="classpicojson_1_1default__parse__context.html#adf71929b098e4f4b5c32222af149655a" target="_top" xlink:title="picojson::default_parse\l_context::parse_object_item">
<polygon fill="none" stroke="black" points="281.891,-168.5 281.891,-196.5 422.964,-196.5 422.964,-168.5 281.891,-168.5"/>
<text text-anchor="start" x="289.891" y="-184.5" font-family="Helvetica,sans-Serif" font-size="10.00">picojson::default_parse</text>
<text text-anchor="middle" x="352.427" y="-174.5" font-family="Helvetica,sans-Serif" font-size="10.00">_context::parse_object_item</text>
</a>
</g>
</g>
<!-- Node78&#45;&gt;Node80 -->
<g id="edge3" class="edge"><title>Node78&#45;&gt;Node80</title>
<path fill="none" stroke="midnightblue" d="M223.854,-126.228C239.44,-136.511 261.341,-150.037 281.891,-159.5 288.936,-162.744 296.572,-165.749 304.117,-168.443"/>
<polygon fill="midnightblue" stroke="midnightblue" points="225.72,-123.265 215.465,-120.603 221.821,-129.079 225.72,-123.265"/>
</g>
<!-- Node81 -->
<g id="node5" class="node"><title>Node81</title>
<g id="a_node5"><a xlink:href="classpicojson_1_1null__parse__context.html#a6623f92117dd6dc7bca60e9e9463a1a0" target="_top" xlink:title="picojson::null_parse\l_context::parse_array_item">
<polygon fill="none" stroke="black" points="283.841,-121.5 283.841,-149.5 421.013,-149.5 421.013,-121.5 283.841,-121.5"/>
<text text-anchor="start" x="291.841" y="-137.5" font-family="Helvetica,sans-Serif" font-size="10.00">picojson::null_parse</text>
<text text-anchor="middle" x="352.427" y="-127.5" font-family="Helvetica,sans-Serif" font-size="10.00">_context::parse_array_item</text>
</a>
</g>
</g>
<!-- Node78&#45;&gt;Node81 -->
<g id="edge4" class="edge"><title>Node78&#45;&gt;Node81</title>
<path fill="none" stroke="midnightblue" d="M255.936,-120.114C264.968,-121.569 274.449,-123.096 283.785,-124.601"/>
<polygon fill="midnightblue" stroke="midnightblue" points="256.391,-116.642 245.962,-118.506 255.278,-123.553 256.391,-116.642"/>
</g>
<!-- Node82 -->
<g id="node6" class="node"><title>Node82</title>
<g id="a_node6"><a xlink:href="classpicojson_1_1null__parse__context.html#a97c4b81a984ea473fe56e09aed7b9ca6" target="_top" xlink:title="picojson::null_parse\l_context::parse_object_item">
<polygon fill="none" stroke="black" points="281.891,-74.5 281.891,-102.5 422.964,-102.5 422.964,-74.5 281.891,-74.5"/>
<text text-anchor="start" x="289.891" y="-90.5" font-family="Helvetica,sans-Serif" font-size="10.00">picojson::null_parse</text>
<text text-anchor="middle" x="352.427" y="-80.5" font-family="Helvetica,sans-Serif" font-size="10.00">_context::parse_object_item</text>
</a>
</g>
</g>
<!-- Node78&#45;&gt;Node82 -->
<g id="edge5" class="edge"><title>Node78&#45;&gt;Node82</title>
<path fill="none" stroke="midnightblue" d="M255.972,-103.24C264.362,-101.944 273.14,-100.589 281.828,-99.2473"/>
<polygon fill="midnightblue" stroke="midnightblue" points="255.31,-99.8005 245.962,-104.786 256.379,-106.718 255.31,-99.8005"/>
</g>
<!-- Node83 -->
<g id="node7" class="node"><title>Node83</title>
<g id="a_node7"><a xlink:href="namespacepicojson.html#a01c0a3f35d42282ba913375737c8e259" target="_top" xlink:title="picojson::_parse">
<polygon fill="none" stroke="black" points="308.016,-37.5 308.016,-55.5 396.838,-55.5 396.838,-37.5 308.016,-37.5"/>
<text text-anchor="middle" x="352.427" y="-43.5" font-family="Helvetica,sans-Serif" font-size="10.00">picojson::_parse</text>
</a>
</g>
</g>
<!-- Node78&#45;&gt;Node83 -->
<g id="edge6" class="edge"><title>Node78&#45;&gt;Node83</title>
<path fill="none" stroke="midnightblue" d="M224.074,-96.938C239.614,-86.9788 261.369,-74.0771 281.891,-65.5 291.244,-61.591 301.639,-58.2535 311.482,-55.5172"/>
<polygon fill="midnightblue" stroke="midnightblue" points="222.158,-94.0089 215.698,-102.407 225.985,-99.87 222.158,-94.0089"/>
</g>
<!-- Node84 -->
<g id="node8" class="node"><title>Node84</title>
<g id="a_node8"><a xlink:href="namespacepicojson.html#a21621c03c9c8c83dcf5bc604d1cafdf6" target="_top" xlink:title="picojson::parse">
<polygon fill="none" stroke="black" points="310.797,-0.5 310.797,-18.5 394.058,-18.5 394.058,-0.5 310.797,-0.5"/>
<text text-anchor="middle" x="352.427" y="-6.5" font-family="Helvetica,sans-Serif" font-size="10.00">picojson::parse</text>
</a>
</g>
</g>
<!-- Node78&#45;&gt;Node84 -->
<g id="edge7" class="edge"><title>Node78&#45;&gt;Node84</title>
<path fill="none" stroke="midnightblue" d="M214.512,-94.17C228.543,-75.2582 253.471,-45.4239 281.891,-28.5 290.6,-23.3133 300.76,-19.5067 310.58,-16.7261"/>
<polygon fill="midnightblue" stroke="midnightblue" points="211.537,-92.3123 208.532,-102.472 217.217,-96.4037 211.537,-92.3123"/>
</g>
</g>
</svg>
