<?xml version="1.0" encoding="UTF-8" standalone="no"?>
<!DOCTYPE svg PUBLIC "-//W3C//DTD SVG 1.1//EN"
 "http://www.w3.org/Graphics/SVG/1.1/DTD/svg11.dtd">
<!-- Generated by graphviz version 2.38.0 (20140413.2041)
 -->
<!-- Title: picojson::_parse_number Pages: 1 -->
<svg width="288pt" height="64pt"
 viewBox="0.00 0.00 287.80 64.00" xmlns="http://www.w3.org/2000/svg" xmlns:xlink="http://www.w3.org/1999/xlink">
<g id="graph0" class="graph" transform="scale(1 1) rotate(0) translate(4 60)">
<title>picojson::_parse_number</title>
<!-- Node59 -->
<g id="node1" class="node"><title>Node59</title>
<polygon fill="#bfbfbf" stroke="black" points="0,-18.5 0,-36.5 128.29,-36.5 128.29,-18.5 0,-18.5"/>
<text text-anchor="middle" x="64.145" y="-24.5" font-family="Helvetica,sans-Serif" font-size="10.00">picojson::_parse_number</text>
</g>
<!-- Node60 -->
<g id="node2" class="node"><title>Node60</title>
<g id="a_node2"><a xlink:href="classpicojson_1_1input.html#a3e8ba0b09a989efa0dc583096984ea8e" target="_top" xlink:title="picojson::input::getc">
<polygon fill="none" stroke="black" points="169.852,-37.5 169.852,-55.5 274.24,-55.5 274.24,-37.5 169.852,-37.5"/>
<text text-anchor="middle" x="222.046" y="-43.5" font-family="Helvetica,sans-Serif" font-size="10.00">picojson::input::getc</text>
</a>
</g>
</g>
<!-- Node59&#45;&gt;Node60 -->
<g id="edge1" class="edge"><title>Node59&#45;&gt;Node60</title>
<path fill="none" stroke="midnightblue" d="M128.556,-35.228C138.798,-36.4763 149.388,-37.7669 159.584,-39.0094"/>
<polygon fill="midnightblue" stroke="midnightblue" points="159.27,-42.4971 169.62,-40.2326 160.117,-35.5485 159.27,-42.4971"/>
</g>
<!-- Node61 -->
<g id="node3" class="node"><title>Node61</title>
<g id="a_node3"><a xlink:href="classpicojson_1_1input.html#a96ccc244e73b2ab87ded38c98e98d573" target="_top" xlink:title="picojson::input::ungetc">
<polygon fill="none" stroke="black" points="164.29,-0.5 164.29,-18.5 279.802,-18.5 279.802,-0.5 164.29,-0.5"/>
<text text-anchor="middle" x="222.046" y="-6.5" font-family="Helvetica,sans-Serif" font-size="10.00">picojson::input::ungetc</text>
</a>
</g>
</g>
<!-- Node59&#45;&gt;Node61 -->
<g id="edge2" class="edge"><title>Node59&#45;&gt;Node61</title>
<path fill="none" stroke="midnightblue" d="M128.556,-20.1787C136.946,-19.21 145.57,-18.2143 154.019,-17.2388"/>
<polygon fill="midnightblue" stroke="midnightblue" points="154.678,-20.686 164.211,-16.0621 153.875,-13.7322 154.678,-20.686"/>
</g>
</g>
</svg>
