<?xml version="1.0" encoding="UTF-8" standalone="no"?>
<!DOCTYPE svg PUBLIC "-//W3C//DTD SVG 1.1//EN"
 "http://www.w3.org/Graphics/SVG/1.1/DTD/svg11.dtd">
<!-- Generated by graphviz version 2.38.0 (20140413.2041)
 -->
<!-- Title: picojson::_parse_object Pages: 1 -->
<svg width="778pt" height="103pt"
 viewBox="0.00 0.00 777.92 103.00" xmlns="http://www.w3.org/2000/svg" xmlns:xlink="http://www.w3.org/1999/xlink">
<g id="graph0" class="graph" transform="scale(1 1) rotate(0) translate(4 99)">
<title>picojson::_parse_object</title>
<!-- Node70 -->
<g id="node1" class="node"><title>Node70</title>
<polygon fill="#bfbfbf" stroke="black" points="0,-56.5 0,-74.5 121.068,-74.5 121.068,-56.5 0,-56.5"/>
<text text-anchor="middle" x="60.5342" y="-62.5" font-family="Helvetica,sans-Serif" font-size="10.00">picojson::_parse_object</text>
</g>
<!-- Node71 -->
<g id="node2" class="node"><title>Node71</title>
<g id="a_node2"><a xlink:href="classpicojson_1_1input.html#a14c29e99d9c9aa8cdbb46178c434d663" target="_top" xlink:title="picojson::input::expect">
<polygon fill="none" stroke="black" points="159.012,-75.5 159.012,-93.5 273.962,-93.5 273.962,-75.5 159.012,-75.5"/>
<text text-anchor="middle" x="216.487" y="-81.5" font-family="Helvetica,sans-Serif" font-size="10.00">picojson::input::expect</text>
</a>
</g>
</g>
<!-- Node70&#45;&gt;Node71 -->
<g id="edge1" class="edge"><title>Node70&#45;&gt;Node71</title>
<path fill="none" stroke="midnightblue" d="M121.497,-72.9003C130.453,-74.0056 139.733,-75.1508 148.817,-76.272"/>
<polygon fill="midnightblue" stroke="midnightblue" points="148.61,-79.7729 158.963,-77.5242 149.467,-72.8256 148.61,-79.7729"/>
</g>
<!-- Node72 -->
<g id="node3" class="node"><title>Node72</title>
<g id="a_node3"><a xlink:href="namespacepicojson.html#a9a1d94feb2718129796225d77c9e8d11" target="_top" xlink:title="picojson::_parse_string">
<polygon fill="none" stroke="black" points="157.068,-38.5 157.068,-56.5 275.905,-56.5 275.905,-38.5 157.068,-38.5"/>
<text text-anchor="middle" x="216.487" y="-44.5" font-family="Helvetica,sans-Serif" font-size="10.00">picojson::_parse_string</text>
</a>
</g>
</g>
<!-- Node70&#45;&gt;Node72 -->
<g id="edge2" class="edge"><title>Node70&#45;&gt;Node72</title>
<path fill="none" stroke="midnightblue" d="M121.497,-58.4892C129.78,-57.5207 138.34,-56.5199 146.767,-55.5347"/>
<polygon fill="midnightblue" stroke="midnightblue" points="147.425,-58.9816 156.951,-54.3439 146.612,-52.029 147.425,-58.9816"/>
</g>
<!-- Node73 -->
<g id="node4" class="node"><title>Node73</title>
<g id="a_node4"><a xlink:href="classpicojson_1_1input.html#a3e8ba0b09a989efa0dc583096984ea8e" target="_top" xlink:title="picojson::input::getc">
<polygon fill="none" stroke="black" points="659.973,-76.5 659.973,-94.5 764.361,-94.5 764.361,-76.5 659.973,-76.5"/>
<text text-anchor="middle" x="712.167" y="-82.5" font-family="Helvetica,sans-Serif" font-size="10.00">picojson::input::getc</text>
</a>
</g>
</g>
<!-- Node72&#45;&gt;Node73 -->
<g id="edge3" class="edge"><title>Node72&#45;&gt;Node73</title>
<path fill="none" stroke="midnightblue" d="M261.571,-56.5484C277.402,-59.6272 295.416,-62.9349 311.905,-65.5 388.766,-77.457 408.013,-81.8249 485.658,-86.5 544.553,-90.0461 559.411,-86.818 618.411,-86.5 628.436,-86.446 639.07,-86.3591 649.424,-86.2585"/>
<polygon fill="midnightblue" stroke="midnightblue" points="649.688,-89.7561 659.652,-86.1541 649.617,-82.7565 649.688,-89.7561"/>
</g>
<!-- Node74 -->
<g id="node5" class="node"><title>Node74</title>
<g id="a_node5"><a xlink:href="classpicojson_1_1input.html#a96ccc244e73b2ab87ded38c98e98d573" target="_top" xlink:title="picojson::input::ungetc">
<polygon fill="none" stroke="black" points="654.411,-0.5 654.411,-18.5 769.923,-18.5 769.923,-0.5 654.411,-0.5"/>
<text text-anchor="middle" x="712.167" y="-6.5" font-family="Helvetica,sans-Serif" font-size="10.00">picojson::input::ungetc</text>
</a>
</g>
</g>
<!-- Node72&#45;&gt;Node74 -->
<g id="edge4" class="edge"><title>Node72&#45;&gt;Node74</title>
<path fill="none" stroke="midnightblue" d="M257.754,-38.4115C274.441,-34.9028 294.037,-31.1129 311.905,-28.5 388.639,-17.279 408.215,-16.5745 485.658,-12.5 538.801,-9.70404 599.078,-9.0313 643.936,-9.01537"/>
<polygon fill="midnightblue" stroke="midnightblue" points="644.125,-12.5154 654.127,-9.02291 644.13,-5.51542 644.125,-12.5154"/>
</g>
<!-- Node75 -->
<g id="node6" class="node"><title>Node75</title>
<g id="a_node6"><a xlink:href="namespacepicojson.html#a05316c2614f3e7a4559ce1d1003eb051" target="_top" xlink:title="picojson::_parse_codepoint">
<polygon fill="none" stroke="black" points="311.905,-38.5 311.905,-56.5 449.658,-56.5 449.658,-38.5 311.905,-38.5"/>
<text text-anchor="middle" x="380.782" y="-44.5" font-family="Helvetica,sans-Serif" font-size="10.00">picojson::_parse_codepoint</text>
</a>
</g>
</g>
<!-- Node72&#45;&gt;Node75 -->
<g id="edge5" class="edge"><title>Node72&#45;&gt;Node75</title>
<path fill="none" stroke="midnightblue" d="M276.079,-47.5C284.432,-47.5 293.132,-47.5 301.784,-47.5"/>
<polygon fill="midnightblue" stroke="midnightblue" points="301.894,-51.0001 311.894,-47.5 301.894,-44.0001 301.894,-51.0001"/>
</g>
<!-- Node75&#45;&gt;Node73 -->
<g id="edge9" class="edge"><title>Node75&#45;&gt;Node73</title>
<path fill="none" stroke="midnightblue" d="M428.971,-56.5304C446.698,-59.6975 467.056,-63.0677 485.658,-65.5 540.913,-72.7248 604.132,-78.0815 649.547,-81.4232"/>
<polygon fill="midnightblue" stroke="midnightblue" points="649.308,-84.915 659.534,-82.1468 649.813,-77.9333 649.308,-84.915"/>
</g>
<!-- Node75&#45;&gt;Node74 -->
<g id="edge10" class="edge"><title>Node75&#45;&gt;Node74</title>
<path fill="none" stroke="midnightblue" d="M425.86,-38.4628C444.278,-34.9409 465.941,-31.1276 485.658,-28.5 538.59,-21.4462 598.881,-16.5268 643.797,-13.4637"/>
<polygon fill="midnightblue" stroke="midnightblue" points="644.259,-16.9408 654.003,-12.7815 643.792,-9.95633 644.259,-16.9408"/>
</g>
<!-- Node76 -->
<g id="node7" class="node"><title>Node76</title>
<g id="a_node7"><a xlink:href="namespacepicojson.html#a92d4f60542bbdfe8203f10e1fcce9368" target="_top" xlink:title="picojson::_parse_quadhex">
<polygon fill="none" stroke="black" points="485.658,-38.5 485.658,-56.5 618.411,-56.5 618.411,-38.5 485.658,-38.5"/>
<text text-anchor="middle" x="552.035" y="-44.5" font-family="Helvetica,sans-Serif" font-size="10.00">picojson::_parse_quadhex</text>
</a>
</g>
</g>
<!-- Node75&#45;&gt;Node76 -->
<g id="edge6" class="edge"><title>Node75&#45;&gt;Node76</title>
<path fill="none" stroke="midnightblue" d="M450.136,-47.5C458.419,-47.5 466.919,-47.5 475.301,-47.5"/>
<polygon fill="midnightblue" stroke="midnightblue" points="475.445,-51.0001 485.445,-47.5 475.445,-44.0001 475.445,-51.0001"/>
</g>
<!-- Node76&#45;&gt;Node73 -->
<g id="edge7" class="edge"><title>Node76&#45;&gt;Node73</title>
<path fill="none" stroke="midnightblue" d="M590.51,-56.5055C612.487,-61.7866 640.456,-68.5079 663.932,-74.1492"/>
<polygon fill="midnightblue" stroke="midnightblue" points="663.146,-77.5599 673.687,-76.4934 664.782,-70.7537 663.146,-77.5599"/>
</g>
<!-- Node76&#45;&gt;Node74 -->
<g id="edge8" class="edge"><title>Node76&#45;&gt;Node74</title>
<path fill="none" stroke="midnightblue" d="M590.51,-38.4945C612.487,-33.2134 640.456,-26.4921 663.932,-20.8508"/>
<polygon fill="midnightblue" stroke="midnightblue" points="664.782,-24.2463 673.687,-18.5066 663.146,-17.4401 664.782,-24.2463"/>
</g>
</g>
</svg>
