<?xml version="1.0" encoding="UTF-8" standalone="no"?>
<!DOCTYPE svg PUBLIC "-//W3C//DTD SVG 1.1//EN"
 "http://www.w3.org/Graphics/SVG/1.1/DTD/svg11.dtd">
<!-- Generated by graphviz version 2.38.0 (20140413.2041)
 -->
<!-- Title: picojson::parse Pages: 1 -->
<svg width="1022pt" height="322pt"
 viewBox="0.00 0.00 1022.01 321.50" xmlns="http://www.w3.org/2000/svg" xmlns:xlink="http://www.w3.org/1999/xlink">
<g id="graph0" class="graph" transform="scale(1 1) rotate(0) translate(4 317.5)">
<title>picojson::parse</title>
<!-- Node135 -->
<g id="node1" class="node"><title>Node135</title>
<polygon fill="#bfbfbf" stroke="black" points="0,-161 0,-179 83.2607,-179 83.2607,-161 0,-161"/>
<text text-anchor="middle" x="41.6304" y="-167" font-family="Helvetica,sans-Serif" font-size="10.00">picojson::parse</text>
</g>
<!-- Node136 -->
<g id="node2" class="node"><title>Node136</title>
<g id="a_node2"><a xlink:href="namespacepicojson.html#aed024a6a1c8d8982a38c4a7fcefde221" target="_top" xlink:title="picojson::_parse">
<polygon fill="none" stroke="black" points="119.261,-161 119.261,-179 208.083,-179 208.083,-161 119.261,-161"/>
<text text-anchor="middle" x="163.672" y="-167" font-family="Helvetica,sans-Serif" font-size="10.00">picojson::_parse</text>
</a>
</g>
</g>
<!-- Node135&#45;&gt;Node136 -->
<g id="edge1" class="edge"><title>Node135&#45;&gt;Node136</title>
<path fill="none" stroke="midnightblue" d="M83.2709,-170C91.5818,-170 100.448,-170 109.131,-170"/>
<polygon fill="midnightblue" stroke="midnightblue" points="109.196,-173.5 119.196,-170 109.196,-166.5 109.196,-173.5"/>
</g>
<!-- Node137 -->
<g id="node3" class="node"><title>Node137</title>
<g id="a_node3"><a xlink:href="classpicojson_1_1input.html#aa83aefe87374a5e24ab8c8e80fef4aa4" target="_top" xlink:title="picojson::input::skip_ws">
<polygon fill="none" stroke="black" points="244.09,-295 244.09,-313 365.144,-313 365.144,-295 244.09,-295"/>
<text text-anchor="middle" x="304.617" y="-301" font-family="Helvetica,sans-Serif" font-size="10.00">picojson::input::skip_ws</text>
</a>
</g>
</g>
<!-- Node136&#45;&gt;Node137 -->
<g id="edge2" class="edge"><title>Node136&#45;&gt;Node137</title>
<path fill="none" stroke="midnightblue" d="M168.932,-179.008C179.112,-199.646 206.809,-250.811 244.083,-280 249.565,-284.293 255.918,-287.92 262.39,-290.951"/>
<polygon fill="midnightblue" stroke="midnightblue" points="261.297,-294.289 271.869,-294.972 264.03,-287.845 261.297,-294.289"/>
</g>
<!-- Node138 -->
<g id="node4" class="node"><title>Node138</title>
<g id="a_node4"><a xlink:href="classpicojson_1_1input.html#a3e8ba0b09a989efa0dc583096984ea8e" target="_top" xlink:title="picojson::input::getc">
<polygon fill="none" stroke="black" points="904.056,-181 904.056,-199 1008.44,-199 1008.44,-181 904.056,-181"/>
<text text-anchor="middle" x="956.25" y="-187" font-family="Helvetica,sans-Serif" font-size="10.00">picojson::input::getc</text>
</a>
</g>
</g>
<!-- Node136&#45;&gt;Node138 -->
<g id="edge3" class="edge"><title>Node136&#45;&gt;Node138</title>
<path fill="none" stroke="midnightblue" d="M180.385,-179.031C223.494,-202.929 347.848,-266 459.57,-266 459.57,-266 459.57,-266 625.865,-266 737.375,-266 864.81,-224.133 923.1,-202.547"/>
<polygon fill="midnightblue" stroke="midnightblue" points="924.374,-205.808 932.506,-199.017 921.914,-199.254 924.374,-205.808"/>
</g>
<!-- Node139 -->
<g id="node5" class="node"><title>Node139</title>
<g id="a_node5"><a xlink:href="namespacepicojson.html#adcae039b132c6c96d2b2d9e786a04a88" target="_top" xlink:title="picojson::_parse_array">
<polygon fill="none" stroke="black" points="246.034,-180 246.034,-198 363.201,-198 363.201,-180 246.034,-180"/>
<text text-anchor="middle" x="304.617" y="-186" font-family="Helvetica,sans-Serif" font-size="10.00">picojson::_parse_array</text>
</a>
</g>
</g>
<!-- Node136&#45;&gt;Node139 -->
<g id="edge4" class="edge"><title>Node136&#45;&gt;Node139</title>
<path fill="none" stroke="midnightblue" d="M208.254,-175.96C217.021,-177.158 226.43,-178.445 235.798,-179.726"/>
<polygon fill="midnightblue" stroke="midnightblue" points="235.534,-183.223 245.916,-181.11 236.483,-176.287 235.534,-183.223"/>
</g>
<!-- Node141 -->
<g id="node7" class="node"><title>Node141</title>
<g id="a_node7"><a xlink:href="namespacepicojson.html#a480ed5e3461568672197a42e259a44c9" target="_top" xlink:title="picojson::_parse_object">
<polygon fill="none" stroke="black" points="244.083,-143 244.083,-161 365.151,-161 365.151,-143 244.083,-143"/>
<text text-anchor="middle" x="304.617" y="-149" font-family="Helvetica,sans-Serif" font-size="10.00">picojson::_parse_object</text>
</a>
</g>
</g>
<!-- Node136&#45;&gt;Node141 -->
<g id="edge6" class="edge"><title>Node136&#45;&gt;Node141</title>
<path fill="none" stroke="midnightblue" d="M208.254,-164.354C216.377,-163.302 225.05,-162.178 233.733,-161.053"/>
<polygon fill="midnightblue" stroke="midnightblue" points="234.429,-164.492 243.897,-159.737 233.53,-157.55 234.429,-164.492"/>
</g>
<!-- Node143 -->
<g id="node9" class="node"><title>Node143</title>
<g id="a_node9"><a xlink:href="classpicojson_1_1input.html#a96ccc244e73b2ab87ded38c98e98d573" target="_top" xlink:title="picojson::input::ungetc">
<polygon fill="none" stroke="black" points="898.494,-67 898.494,-85 1014.01,-85 1014.01,-67 898.494,-67"/>
<text text-anchor="middle" x="956.25" y="-73" font-family="Helvetica,sans-Serif" font-size="10.00">picojson::input::ungetc</text>
</a>
</g>
</g>
<!-- Node136&#45;&gt;Node143 -->
<g id="edge17" class="edge"><title>Node136&#45;&gt;Node143</title>
<path fill="none" stroke="midnightblue" d="M172.814,-160.86C205.215,-125.549 329.56,-0 459.57,-0 459.57,-0 459.57,-0 625.865,-0 737.375,-0 864.81,-41.8675 923.1,-63.4528"/>
<polygon fill="midnightblue" stroke="midnightblue" points="921.914,-66.7459 932.506,-66.9834 924.374,-60.1924 921.914,-66.7459"/>
</g>
<!-- Node146 -->
<g id="node12" class="node"><title>Node146</title>
<g id="a_node12"><a xlink:href="namespacepicojson.html#a771defe1d981b7091c2156bf4720625c" target="_top" xlink:title="picojson::_parse_number">
<polygon fill="none" stroke="black" points="731.973,-67 731.973,-85 860.263,-85 860.263,-67 731.973,-67"/>
<text text-anchor="middle" x="796.118" y="-73" font-family="Helvetica,sans-Serif" font-size="10.00">picojson::_parse_number</text>
</a>
</g>
</g>
<!-- Node136&#45;&gt;Node146 -->
<g id="edge18" class="edge"><title>Node136&#45;&gt;Node146</title>
<path fill="none" stroke="midnightblue" d="M180.195,-160.863C195.785,-152.153 220.773,-139.44 244.083,-133 410.674,-86.9756 614.908,-77.4792 721.848,-75.9068"/>
<polygon fill="midnightblue" stroke="midnightblue" points="721.935,-79.4061 731.889,-75.7784 721.845,-72.4067 721.935,-79.4061"/>
</g>
<!-- Node140 -->
<g id="node6" class="node"><title>Node140</title>
<g id="a_node6"><a xlink:href="classpicojson_1_1input.html#a14c29e99d9c9aa8cdbb46178c434d663" target="_top" xlink:title="picojson::input::expect">
<polygon fill="none" stroke="black" points="403.095,-180 403.095,-198 518.045,-198 518.045,-180 403.095,-180"/>
<text text-anchor="middle" x="460.57" y="-186" font-family="Helvetica,sans-Serif" font-size="10.00">picojson::input::expect</text>
</a>
</g>
</g>
<!-- Node139&#45;&gt;Node140 -->
<g id="edge5" class="edge"><title>Node139&#45;&gt;Node140</title>
<path fill="none" stroke="midnightblue" d="M363.381,-189C373.007,-189 383.06,-189 392.886,-189"/>
<polygon fill="midnightblue" stroke="midnightblue" points="393.015,-192.5 403.015,-189 393.015,-185.5 393.015,-192.5"/>
</g>
<!-- Node141&#45;&gt;Node140 -->
<g id="edge7" class="edge"><title>Node141&#45;&gt;Node140</title>
<path fill="none" stroke="midnightblue" d="M343.278,-161.051C364.044,-166.042 390.027,-172.287 412.164,-177.607"/>
<polygon fill="midnightblue" stroke="midnightblue" points="411.49,-181.044 422.031,-179.978 413.126,-174.238 411.49,-181.044"/>
</g>
<!-- Node142 -->
<g id="node8" class="node"><title>Node142</title>
<g id="a_node8"><a xlink:href="namespacepicojson.html#a9a1d94feb2718129796225d77c9e8d11" target="_top" xlink:title="picojson::_parse_string">
<polygon fill="none" stroke="black" points="401.151,-143 401.151,-161 519.988,-161 519.988,-143 401.151,-143"/>
<text text-anchor="middle" x="460.57" y="-149" font-family="Helvetica,sans-Serif" font-size="10.00">picojson::_parse_string</text>
</a>
</g>
</g>
<!-- Node141&#45;&gt;Node142 -->
<g id="edge8" class="edge"><title>Node141&#45;&gt;Node142</title>
<path fill="none" stroke="midnightblue" d="M365.58,-152C373.863,-152 382.423,-152 390.85,-152"/>
<polygon fill="midnightblue" stroke="midnightblue" points="391.034,-155.5 401.034,-152 391.034,-148.5 391.034,-155.5"/>
</g>
<!-- Node142&#45;&gt;Node138 -->
<g id="edge9" class="edge"><title>Node142&#45;&gt;Node138</title>
<path fill="none" stroke="midnightblue" d="M505.654,-161.048C521.485,-164.127 539.499,-167.435 555.988,-170 632.849,-181.957 652.096,-186.325 729.741,-191 788.636,-194.546 803.494,-191.318 862.494,-191 872.519,-190.946 883.153,-190.859 893.507,-190.759"/>
<polygon fill="midnightblue" stroke="midnightblue" points="893.771,-194.256 903.735,-190.654 893.7,-187.256 893.771,-194.256"/>
</g>
<!-- Node142&#45;&gt;Node143 -->
<g id="edge10" class="edge"><title>Node142&#45;&gt;Node143</title>
<path fill="none" stroke="midnightblue" d="M480.156,-142.906C522.924,-122.548 632.141,-73.7768 729.741,-57 787.89,-47.0047 803.794,-51.0497 862.494,-57 878.041,-58.5759 894.831,-61.6014 909.799,-64.7825"/>
<polygon fill="midnightblue" stroke="midnightblue" points="909.313,-68.2593 919.832,-66.9939 910.819,-61.4234 909.313,-68.2593"/>
</g>
<!-- Node144 -->
<g id="node10" class="node"><title>Node144</title>
<g id="a_node10"><a xlink:href="namespacepicojson.html#a05316c2614f3e7a4559ce1d1003eb051" target="_top" xlink:title="picojson::_parse_codepoint">
<polygon fill="none" stroke="black" points="555.988,-143 555.988,-161 693.741,-161 693.741,-143 555.988,-143"/>
<text text-anchor="middle" x="624.865" y="-149" font-family="Helvetica,sans-Serif" font-size="10.00">picojson::_parse_codepoint</text>
</a>
</g>
</g>
<!-- Node142&#45;&gt;Node144 -->
<g id="edge11" class="edge"><title>Node142&#45;&gt;Node144</title>
<path fill="none" stroke="midnightblue" d="M520.162,-152C528.515,-152 537.215,-152 545.867,-152"/>
<polygon fill="midnightblue" stroke="midnightblue" points="545.977,-155.5 555.977,-152 545.977,-148.5 545.977,-155.5"/>
</g>
<!-- Node144&#45;&gt;Node138 -->
<g id="edge15" class="edge"><title>Node144&#45;&gt;Node138</title>
<path fill="none" stroke="midnightblue" d="M673.054,-161.03C690.781,-164.197 711.139,-167.568 729.741,-170 784.996,-177.225 848.215,-182.581 893.63,-185.923"/>
<polygon fill="midnightblue" stroke="midnightblue" points="893.391,-189.415 903.617,-186.647 893.896,-182.433 893.391,-189.415"/>
</g>
<!-- Node144&#45;&gt;Node143 -->
<g id="edge16" class="edge"><title>Node144&#45;&gt;Node143</title>
<path fill="none" stroke="midnightblue" d="M664.943,-142.983C725.117,-129.099 840.373,-102.506 906.113,-87.3376"/>
<polygon fill="midnightblue" stroke="midnightblue" points="907.265,-90.6636 916.223,-85.0049 905.692,-83.8428 907.265,-90.6636"/>
</g>
<!-- Node145 -->
<g id="node11" class="node"><title>Node145</title>
<g id="a_node11"><a xlink:href="namespacepicojson.html#a92d4f60542bbdfe8203f10e1fcce9368" target="_top" xlink:title="picojson::_parse_quadhex">
<polygon fill="none" stroke="black" points="729.741,-143 729.741,-161 862.494,-161 862.494,-143 729.741,-143"/>
<text text-anchor="middle" x="796.118" y="-149" font-family="Helvetica,sans-Serif" font-size="10.00">picojson::_parse_quadhex</text>
</a>
</g>
</g>
<!-- Node144&#45;&gt;Node145 -->
<g id="edge12" class="edge"><title>Node144&#45;&gt;Node145</title>
<path fill="none" stroke="midnightblue" d="M694.219,-152C702.502,-152 711.002,-152 719.384,-152"/>
<polygon fill="midnightblue" stroke="midnightblue" points="719.528,-155.5 729.528,-152 719.528,-148.5 719.528,-155.5"/>
</g>
<!-- Node145&#45;&gt;Node138 -->
<g id="edge13" class="edge"><title>Node145&#45;&gt;Node138</title>
<path fill="none" stroke="midnightblue" d="M834.593,-161.005C856.57,-166.287 884.539,-173.008 908.015,-178.649"/>
<polygon fill="midnightblue" stroke="midnightblue" points="907.229,-182.06 917.77,-180.993 908.865,-175.254 907.229,-182.06"/>
</g>
<!-- Node145&#45;&gt;Node143 -->
<g id="edge14" class="edge"><title>Node145&#45;&gt;Node143</title>
<path fill="none" stroke="midnightblue" d="M824.867,-142.912C836.643,-138.774 850.413,-133.561 862.494,-128 887.026,-116.708 913.809,-101.341 932.26,-90.2443"/>
<polygon fill="midnightblue" stroke="midnightblue" points="934.119,-93.21 940.847,-85.0256 930.484,-87.228 934.119,-93.21"/>
</g>
<!-- Node146&#45;&gt;Node138 -->
<g id="edge19" class="edge"><title>Node146&#45;&gt;Node138</title>
<path fill="none" stroke="midnightblue" d="M809.791,-85.1364C836.971,-104.731 901.093,-150.957 934.38,-174.954"/>
<polygon fill="midnightblue" stroke="midnightblue" points="932.358,-177.811 942.516,-180.82 936.451,-172.133 932.358,-177.811"/>
</g>
<!-- Node146&#45;&gt;Node143 -->
<g id="edge20" class="edge"><title>Node146&#45;&gt;Node143</title>
<path fill="none" stroke="midnightblue" d="M860.525,-76C869.64,-76 879.044,-76 888.226,-76"/>
<polygon fill="midnightblue" stroke="midnightblue" points="888.471,-79.5001 898.471,-76 888.471,-72.5001 888.471,-79.5001"/>
</g>
</g>
</svg>
