<?xml version="1.0" encoding="UTF-8" standalone="no"?>
<!DOCTYPE svg PUBLIC "-//W3C//DTD SVG 1.1//EN"
 "http://www.w3.org/Graphics/SVG/1.1/DTD/svg11.dtd">
<!-- Generated by graphviz version 2.38.0 (20140413.2041)
 -->
<!-- Title: picojson::_parse Pages: 1 -->
<svg width="903pt" height="322pt"
 viewBox="0.00 0.00 902.75 321.50" xmlns="http://www.w3.org/2000/svg" xmlns:xlink="http://www.w3.org/1999/xlink">
<g id="graph0" class="graph" transform="scale(1 1) rotate(0) translate(4 317.5)">
<title>picojson::_parse</title>
<!-- Node0 -->
<g id="node1" class="node"><title>Node0</title>
<polygon fill="#bfbfbf" stroke="black" points="0,-161 0,-179 88.8223,-179 88.8223,-161 0,-161"/>
<text text-anchor="middle" x="44.4111" y="-167" font-family="Helvetica,sans-Serif" font-size="10.00">picojson::_parse</text>
</g>
<!-- Node1 -->
<g id="node2" class="node"><title>Node1</title>
<g id="a_node2"><a xlink:href="classpicojson_1_1input.html#aa83aefe87374a5e24ab8c8e80fef4aa4" target="_top" xlink:title="picojson::input::skip_ws">
<polygon fill="none" stroke="black" points="124.83,-295 124.83,-313 245.883,-313 245.883,-295 124.83,-295"/>
<text text-anchor="middle" x="185.356" y="-301" font-family="Helvetica,sans-Serif" font-size="10.00">picojson::input::skip_ws</text>
</a>
</g>
</g>
<!-- Node0&#45;&gt;Node1 -->
<g id="edge1" class="edge"><title>Node0&#45;&gt;Node1</title>
<path fill="none" stroke="midnightblue" d="M49.6711,-179.008C59.8516,-199.646 87.5485,-250.811 124.822,-280 130.305,-284.293 136.657,-287.92 143.129,-290.951"/>
<polygon fill="midnightblue" stroke="midnightblue" points="142.036,-294.289 152.609,-294.972 144.77,-287.845 142.036,-294.289"/>
</g>
<!-- Node2 -->
<g id="node3" class="node"><title>Node2</title>
<g id="a_node3"><a xlink:href="classpicojson_1_1input.html#a3e8ba0b09a989efa0dc583096984ea8e" target="_top" xlink:title="picojson::input::getc">
<polygon fill="none" stroke="black" points="784.795,-181 784.795,-199 889.184,-199 889.184,-181 784.795,-181"/>
<text text-anchor="middle" x="836.989" y="-187" font-family="Helvetica,sans-Serif" font-size="10.00">picojson::input::getc</text>
</a>
</g>
</g>
<!-- Node0&#45;&gt;Node2 -->
<g id="edge2" class="edge"><title>Node0&#45;&gt;Node2</title>
<path fill="none" stroke="midnightblue" d="M61.1244,-179.031C104.233,-202.929 228.587,-266 340.309,-266 340.309,-266 340.309,-266 506.604,-266 618.115,-266 745.549,-224.133 803.84,-202.547"/>
<polygon fill="midnightblue" stroke="midnightblue" points="805.113,-205.808 813.246,-199.017 802.653,-199.254 805.113,-205.808"/>
</g>
<!-- Node3 -->
<g id="node4" class="node"><title>Node3</title>
<g id="a_node4"><a xlink:href="namespacepicojson.html#adcae039b132c6c96d2b2d9e786a04a88" target="_top" xlink:title="picojson::_parse_array">
<polygon fill="none" stroke="black" points="126.773,-180 126.773,-198 243.94,-198 243.94,-180 126.773,-180"/>
<text text-anchor="middle" x="185.356" y="-186" font-family="Helvetica,sans-Serif" font-size="10.00">picojson::_parse_array</text>
</a>
</g>
</g>
<!-- Node0&#45;&gt;Node3 -->
<g id="edge3" class="edge"><title>Node0&#45;&gt;Node3</title>
<path fill="none" stroke="midnightblue" d="M88.9931,-175.96C97.76,-177.158 107.169,-178.445 116.537,-179.726"/>
<polygon fill="midnightblue" stroke="midnightblue" points="116.273,-183.223 126.655,-181.11 117.222,-176.287 116.273,-183.223"/>
</g>
<!-- Node5 -->
<g id="node6" class="node"><title>Node5</title>
<g id="a_node6"><a xlink:href="namespacepicojson.html#a480ed5e3461568672197a42e259a44c9" target="_top" xlink:title="picojson::_parse_object">
<polygon fill="none" stroke="black" points="124.822,-143 124.822,-161 245.891,-161 245.891,-143 124.822,-143"/>
<text text-anchor="middle" x="185.356" y="-149" font-family="Helvetica,sans-Serif" font-size="10.00">picojson::_parse_object</text>
</a>
</g>
</g>
<!-- Node0&#45;&gt;Node5 -->
<g id="edge5" class="edge"><title>Node0&#45;&gt;Node5</title>
<path fill="none" stroke="midnightblue" d="M88.9931,-164.354C97.1158,-163.302 105.79,-162.178 114.472,-161.053"/>
<polygon fill="midnightblue" stroke="midnightblue" points="115.168,-164.492 124.636,-159.737 114.269,-157.55 115.168,-164.492"/>
</g>
<!-- Node7 -->
<g id="node8" class="node"><title>Node7</title>
<g id="a_node8"><a xlink:href="classpicojson_1_1input.html#a96ccc244e73b2ab87ded38c98e98d573" target="_top" xlink:title="picojson::input::ungetc">
<polygon fill="none" stroke="black" points="779.233,-67 779.233,-85 894.745,-85 894.745,-67 779.233,-67"/>
<text text-anchor="middle" x="836.989" y="-73" font-family="Helvetica,sans-Serif" font-size="10.00">picojson::input::ungetc</text>
</a>
</g>
</g>
<!-- Node0&#45;&gt;Node7 -->
<g id="edge16" class="edge"><title>Node0&#45;&gt;Node7</title>
<path fill="none" stroke="midnightblue" d="M53.5531,-160.86C85.9542,-125.549 210.299,-0 340.309,-0 340.309,-0 340.309,-0 506.604,-0 618.115,-0 745.549,-41.8675 803.84,-63.4528"/>
<polygon fill="midnightblue" stroke="midnightblue" points="802.653,-66.7459 813.246,-66.9834 805.113,-60.1924 802.653,-66.7459"/>
</g>
<!-- Node10 -->
<g id="node11" class="node"><title>Node10</title>
<g id="a_node11"><a xlink:href="namespacepicojson.html#a771defe1d981b7091c2156bf4720625c" target="_top" xlink:title="picojson::_parse_number">
<polygon fill="none" stroke="black" points="612.712,-67 612.712,-85 741.002,-85 741.002,-67 612.712,-67"/>
<text text-anchor="middle" x="676.857" y="-73" font-family="Helvetica,sans-Serif" font-size="10.00">picojson::_parse_number</text>
</a>
</g>
</g>
<!-- Node0&#45;&gt;Node10 -->
<g id="edge17" class="edge"><title>Node0&#45;&gt;Node10</title>
<path fill="none" stroke="midnightblue" d="M60.9345,-160.863C76.5241,-152.153 101.512,-139.44 124.822,-133 291.413,-86.9756 495.647,-77.4792 602.588,-75.9068"/>
<polygon fill="midnightblue" stroke="midnightblue" points="602.674,-79.4061 612.628,-75.7784 602.584,-72.4067 602.674,-79.4061"/>
</g>
<!-- Node4 -->
<g id="node5" class="node"><title>Node4</title>
<g id="a_node5"><a xlink:href="classpicojson_1_1input.html#a14c29e99d9c9aa8cdbb46178c434d663" target="_top" xlink:title="picojson::input::expect">
<polygon fill="none" stroke="black" points="283.834,-180 283.834,-198 398.784,-198 398.784,-180 283.834,-180"/>
<text text-anchor="middle" x="341.309" y="-186" font-family="Helvetica,sans-Serif" font-size="10.00">picojson::input::expect</text>
</a>
</g>
</g>
<!-- Node3&#45;&gt;Node4 -->
<g id="edge4" class="edge"><title>Node3&#45;&gt;Node4</title>
<path fill="none" stroke="midnightblue" d="M244.121,-189C253.746,-189 263.8,-189 273.625,-189"/>
<polygon fill="midnightblue" stroke="midnightblue" points="273.755,-192.5 283.755,-189 273.755,-185.5 273.755,-192.5"/>
</g>
<!-- Node5&#45;&gt;Node4 -->
<g id="edge6" class="edge"><title>Node5&#45;&gt;Node4</title>
<path fill="none" stroke="midnightblue" d="M224.017,-161.051C244.783,-166.042 270.767,-172.287 292.903,-177.607"/>
<polygon fill="midnightblue" stroke="midnightblue" points="292.229,-181.044 302.77,-179.978 293.865,-174.238 292.229,-181.044"/>
</g>
<!-- Node6 -->
<g id="node7" class="node"><title>Node6</title>
<g id="a_node7"><a xlink:href="namespacepicojson.html#a9a1d94feb2718129796225d77c9e8d11" target="_top" xlink:title="picojson::_parse_string">
<polygon fill="none" stroke="black" points="281.891,-143 281.891,-161 400.728,-161 400.728,-143 281.891,-143"/>
<text text-anchor="middle" x="341.309" y="-149" font-family="Helvetica,sans-Serif" font-size="10.00">picojson::_parse_string</text>
</a>
</g>
</g>
<!-- Node5&#45;&gt;Node6 -->
<g id="edge7" class="edge"><title>Node5&#45;&gt;Node6</title>
<path fill="none" stroke="midnightblue" d="M246.319,-152C254.603,-152 263.162,-152 271.589,-152"/>
<polygon fill="midnightblue" stroke="midnightblue" points="271.773,-155.5 281.773,-152 271.773,-148.5 271.773,-155.5"/>
</g>
<!-- Node6&#45;&gt;Node2 -->
<g id="edge8" class="edge"><title>Node6&#45;&gt;Node2</title>
<path fill="none" stroke="midnightblue" d="M386.393,-161.048C402.224,-164.127 420.239,-167.435 436.728,-170 513.589,-181.957 532.836,-186.325 610.48,-191 669.375,-194.546 684.233,-191.318 743.233,-191 753.258,-190.946 763.892,-190.859 774.246,-190.759"/>
<polygon fill="midnightblue" stroke="midnightblue" points="774.511,-194.256 784.474,-190.654 774.439,-187.256 774.511,-194.256"/>
</g>
<!-- Node6&#45;&gt;Node7 -->
<g id="edge9" class="edge"><title>Node6&#45;&gt;Node7</title>
<path fill="none" stroke="midnightblue" d="M360.895,-142.906C403.663,-122.548 512.88,-73.7768 610.48,-57 668.629,-47.0047 684.533,-51.0497 743.233,-57 758.78,-58.5759 775.571,-61.6014 790.538,-64.7825"/>
<polygon fill="midnightblue" stroke="midnightblue" points="790.052,-68.2593 800.571,-66.9939 791.559,-61.4234 790.052,-68.2593"/>
</g>
<!-- Node8 -->
<g id="node9" class="node"><title>Node8</title>
<g id="a_node9"><a xlink:href="namespacepicojson.html#a05316c2614f3e7a4559ce1d1003eb051" target="_top" xlink:title="picojson::_parse_codepoint">
<polygon fill="none" stroke="black" points="436.728,-143 436.728,-161 574.48,-161 574.48,-143 436.728,-143"/>
<text text-anchor="middle" x="505.604" y="-149" font-family="Helvetica,sans-Serif" font-size="10.00">picojson::_parse_codepoint</text>
</a>
</g>
</g>
<!-- Node6&#45;&gt;Node8 -->
<g id="edge10" class="edge"><title>Node6&#45;&gt;Node8</title>
<path fill="none" stroke="midnightblue" d="M400.901,-152C409.254,-152 417.954,-152 426.606,-152"/>
<polygon fill="midnightblue" stroke="midnightblue" points="426.717,-155.5 436.717,-152 426.717,-148.5 426.717,-155.5"/>
</g>
<!-- Node8&#45;&gt;Node2 -->
<g id="edge14" class="edge"><title>Node8&#45;&gt;Node2</title>
<path fill="none" stroke="midnightblue" d="M553.793,-161.03C571.52,-164.197 591.878,-167.568 610.48,-170 665.735,-177.225 728.954,-182.581 774.369,-185.923"/>
<polygon fill="midnightblue" stroke="midnightblue" points="774.13,-189.415 784.357,-186.647 774.636,-182.433 774.13,-189.415"/>
</g>
<!-- Node8&#45;&gt;Node7 -->
<g id="edge15" class="edge"><title>Node8&#45;&gt;Node7</title>
<path fill="none" stroke="midnightblue" d="M545.682,-142.983C605.856,-129.099 721.112,-102.506 786.852,-87.3376"/>
<polygon fill="midnightblue" stroke="midnightblue" points="788.005,-90.6636 796.962,-85.0049 786.431,-83.8428 788.005,-90.6636"/>
</g>
<!-- Node9 -->
<g id="node10" class="node"><title>Node9</title>
<g id="a_node10"><a xlink:href="namespacepicojson.html#a92d4f60542bbdfe8203f10e1fcce9368" target="_top" xlink:title="picojson::_parse_quadhex">
<polygon fill="none" stroke="black" points="610.48,-143 610.48,-161 743.233,-161 743.233,-143 610.48,-143"/>
<text text-anchor="middle" x="676.857" y="-149" font-family="Helvetica,sans-Serif" font-size="10.00">picojson::_parse_quadhex</text>
</a>
</g>
</g>
<!-- Node8&#45;&gt;Node9 -->
<g id="edge11" class="edge"><title>Node8&#45;&gt;Node9</title>
<path fill="none" stroke="midnightblue" d="M574.958,-152C583.241,-152 591.741,-152 600.123,-152"/>
<polygon fill="midnightblue" stroke="midnightblue" points="600.267,-155.5 610.267,-152 600.267,-148.5 600.267,-155.5"/>
</g>
<!-- Node9&#45;&gt;Node2 -->
<g id="edge12" class="edge"><title>Node9&#45;&gt;Node2</title>
<path fill="none" stroke="midnightblue" d="M715.332,-161.005C737.309,-166.287 765.279,-173.008 788.754,-178.649"/>
<polygon fill="midnightblue" stroke="midnightblue" points="787.968,-182.06 798.509,-180.993 789.604,-175.254 787.968,-182.06"/>
</g>
<!-- Node9&#45;&gt;Node7 -->
<g id="edge13" class="edge"><title>Node9&#45;&gt;Node7</title>
<path fill="none" stroke="midnightblue" d="M705.606,-142.912C717.383,-138.774 731.152,-133.561 743.233,-128 767.765,-116.708 794.548,-101.341 812.999,-90.2443"/>
<polygon fill="midnightblue" stroke="midnightblue" points="814.859,-93.21 821.587,-85.0256 811.223,-87.228 814.859,-93.21"/>
</g>
<!-- Node10&#45;&gt;Node2 -->
<g id="edge18" class="edge"><title>Node10&#45;&gt;Node2</title>
<path fill="none" stroke="midnightblue" d="M690.53,-85.1364C717.71,-104.731 781.832,-150.957 815.119,-174.954"/>
<polygon fill="midnightblue" stroke="midnightblue" points="813.097,-177.811 823.256,-180.82 817.191,-172.133 813.097,-177.811"/>
</g>
<!-- Node10&#45;&gt;Node7 -->
<g id="edge19" class="edge"><title>Node10&#45;&gt;Node7</title>
<path fill="none" stroke="midnightblue" d="M741.264,-76C750.379,-76 759.783,-76 768.965,-76"/>
<polygon fill="midnightblue" stroke="midnightblue" points="769.211,-79.5001 779.21,-76 769.21,-72.5001 769.211,-79.5001"/>
</g>
</g>
</svg>
