<?xml version="1.0" encoding="UTF-8" standalone="no"?>
<!DOCTYPE svg PUBLIC "-//W3C//DTD SVG 1.1//EN"
 "http://www.w3.org/Graphics/SVG/1.1/DTD/svg11.dtd">
<!-- Generated by graphviz version 2.38.0 (20140413.2041)
 -->
<!-- Title: picojson::parse Pages: 1 -->
<svg width="237pt" height="101pt"
 viewBox="0.00 0.00 237.20 101.00" xmlns="http://www.w3.org/2000/svg" xmlns:xlink="http://www.w3.org/1999/xlink">
<g id="graph0" class="graph" transform="scale(1 1) rotate(0) translate(4 97)">
<title>picojson::parse</title>
<!-- Node131 -->
<g id="node1" class="node"><title>Node131</title>
<polygon fill="#bfbfbf" stroke="black" points="0,-37.5 0,-55.5 83.2607,-55.5 83.2607,-37.5 0,-37.5"/>
<text text-anchor="middle" x="41.6304" y="-43.5" font-family="Helvetica,sans-Serif" font-size="10.00">picojson::parse</text>
</g>
<!-- Node132 -->
<g id="node2" class="node"><title>Node132</title>
<g id="a_node2"><a xlink:href="namespacepicojson.html#a522ebeba3ce386f1df0aba41ae3b7763" target="_top" xlink:title="picojson::parse">
<polygon fill="none" stroke="black" points="132.598,-74.5 132.598,-92.5 215.859,-92.5 215.859,-74.5 132.598,-74.5"/>
<text text-anchor="middle" x="174.229" y="-80.5" font-family="Helvetica,sans-Serif" font-size="10.00">picojson::parse</text>
</a>
</g>
</g>
<!-- Node131&#45;&gt;Node132 -->
<g id="edge1" class="edge"><title>Node131&#45;&gt;Node132</title>
<path fill="none" stroke="midnightblue" d="M84.4482,-58.3475C102.824,-63.5536 124.062,-69.5706 141.158,-74.414"/>
<polygon fill="midnightblue" stroke="midnightblue" points="85.1537,-54.9097 74.5783,-55.5512 83.2455,-61.6446 85.1537,-54.9097"/>
</g>
<!-- Node133 -->
<g id="node3" class="node"><title>Node133</title>
<g id="a_node3"><a xlink:href="picojson_8h.html#acfc95c2071e57351861cfb83e1ed6491" target="_top" xlink:title="operator\&gt;\&gt;">
<polygon fill="none" stroke="black" points="141.766,-37.5 141.766,-55.5 206.691,-55.5 206.691,-37.5 141.766,-37.5"/>
<text text-anchor="middle" x="174.229" y="-43.5" font-family="Helvetica,sans-Serif" font-size="10.00">operator&gt;&gt;</text>
</a>
</g>
</g>
<!-- Node131&#45;&gt;Node133 -->
<g id="edge2" class="edge"><title>Node131&#45;&gt;Node133</title>
<path fill="none" stroke="midnightblue" d="M93.9328,-46.5C109.991,-46.5 127.235,-46.5 141.527,-46.5"/>
<polygon fill="midnightblue" stroke="midnightblue" points="93.5942,-43.0001 83.5941,-46.5 93.5941,-50.0001 93.5942,-43.0001"/>
</g>
<!-- Node134 -->
<g id="node4" class="node"><title>Node134</title>
<g id="a_node4"><a xlink:href="class_sprite_atlas.html#a9526869f34f1e50bafc9cdc2d85dbc7c" target="_top" xlink:title="SpriteAtlas::getSprite">
<polygon fill="none" stroke="black" points="119.261,-0.5 119.261,-18.5 229.196,-18.5 229.196,-0.5 119.261,-0.5"/>
<text text-anchor="middle" x="174.229" y="-6.5" font-family="Helvetica,sans-Serif" font-size="10.00">SpriteAtlas::getSprite</text>
</a>
</g>
</g>
<!-- Node131&#45;&gt;Node134 -->
<g id="edge3" class="edge"><title>Node131&#45;&gt;Node134</title>
<path fill="none" stroke="midnightblue" d="M84.4482,-34.6525C102.824,-29.4464 124.062,-23.4294 141.158,-18.586"/>
<polygon fill="midnightblue" stroke="midnightblue" points="83.2455,-31.3554 74.5783,-37.4488 85.1537,-38.0903 83.2455,-31.3554"/>
</g>
</g>
</svg>
