<?xml version="1.0" encoding="UTF-8" standalone="no"?>
<!DOCTYPE svg PUBLIC "-//W3C//DTD SVG 1.1//EN"
 "http://www.w3.org/Graphics/SVG/1.1/DTD/svg11.dtd">
<!-- Generated by graphviz version 2.38.0 (20140413.2041)
 -->
<!-- Title: picojson::_parse_codepoint Pages: 1 -->
<svg width="760pt" height="252pt"
 viewBox="0.00 0.00 759.55 252.00" xmlns="http://www.w3.org/2000/svg" xmlns:xlink="http://www.w3.org/1999/xlink">
<g id="graph0" class="graph" transform="scale(1 1) rotate(0) translate(4 248)">
<title>picojson::_parse_codepoint</title>
<!-- Node47 -->
<g id="node1" class="node"><title>Node47</title>
<polygon fill="#bfbfbf" stroke="black" points="0,-60.5 0,-78.5 137.753,-78.5 137.753,-60.5 0,-60.5"/>
<text text-anchor="middle" x="68.8765" y="-66.5" font-family="Helvetica,sans-Serif" font-size="10.00">picojson::_parse_codepoint</text>
</g>
<!-- Node48 -->
<g id="node2" class="node"><title>Node48</title>
<g id="a_node2"><a xlink:href="namespacepicojson.html#a9a1d94feb2718129796225d77c9e8d11" target="_top" xlink:title="picojson::_parse_string">
<polygon fill="none" stroke="black" points="173.753,-60.5 173.753,-78.5 292.59,-78.5 292.59,-60.5 173.753,-60.5"/>
<text text-anchor="middle" x="233.171" y="-66.5" font-family="Helvetica,sans-Serif" font-size="10.00">picojson::_parse_string</text>
</a>
</g>
</g>
<!-- Node47&#45;&gt;Node48 -->
<g id="edge1" class="edge"><title>Node47&#45;&gt;Node48</title>
<path fill="none" stroke="midnightblue" d="M147.874,-69.5C156.524,-69.5 165.223,-69.5 173.576,-69.5"/>
<polygon fill="midnightblue" stroke="midnightblue" points="147.764,-66.0001 137.764,-69.5 147.764,-73.0001 147.764,-66.0001"/>
</g>
<!-- Node49 -->
<g id="node3" class="node"><title>Node49</title>
<g id="a_node3"><a xlink:href="namespacepicojson.html#a480ed5e3461568672197a42e259a44c9" target="_top" xlink:title="picojson::_parse_object">
<polygon fill="none" stroke="black" points="328.59,-102.5 328.59,-120.5 449.658,-120.5 449.658,-102.5 328.59,-102.5"/>
<text text-anchor="middle" x="389.124" y="-108.5" font-family="Helvetica,sans-Serif" font-size="10.00">picojson::_parse_object</text>
</a>
</g>
</g>
<!-- Node48&#45;&gt;Node49 -->
<g id="edge2" class="edge"><title>Node48&#45;&gt;Node49</title>
<path fill="none" stroke="midnightblue" d="M277.006,-81.1857C301.625,-87.902 332.087,-96.2124 354.887,-102.432"/>
<polygon fill="midnightblue" stroke="midnightblue" points="277.767,-77.7655 267.198,-78.5101 275.924,-84.5187 277.767,-77.7655"/>
</g>
<!-- Node57 -->
<g id="node11" class="node"><title>Node57</title>
<g id="a_node11"><a xlink:href="classpicojson_1_1default__parse__context.html#a476c7d30a5cf382b48201ec64585c2f3" target="_top" xlink:title="picojson::default_parse\l_context::parse_string">
<polygon fill="none" stroke="black" points="329.701,-55.5 329.701,-83.5 448.547,-83.5 448.547,-55.5 329.701,-55.5"/>
<text text-anchor="start" x="337.701" y="-71.5" font-family="Helvetica,sans-Serif" font-size="10.00">picojson::default_parse</text>
<text text-anchor="middle" x="389.124" y="-61.5" font-family="Helvetica,sans-Serif" font-size="10.00">_context::parse_string</text>
</a>
</g>
</g>
<!-- Node48&#45;&gt;Node57 -->
<g id="edge10" class="edge"><title>Node48&#45;&gt;Node57</title>
<path fill="none" stroke="midnightblue" d="M302.829,-69.5C311.779,-69.5 320.882,-69.5 329.645,-69.5"/>
<polygon fill="midnightblue" stroke="midnightblue" points="302.813,-66.0001 292.813,-69.5 302.813,-73.0001 302.813,-66.0001"/>
</g>
<!-- Node58 -->
<g id="node12" class="node"><title>Node58</title>
<g id="a_node12"><a xlink:href="classpicojson_1_1null__parse__context.html#aab2c7dee1eb5b477370832811cd40d14" target="_top" xlink:title="picojson::null_parse\l_context::parse_string">
<polygon fill="none" stroke="black" points="331.93,-8.5 331.93,-36.5 446.318,-36.5 446.318,-8.5 331.93,-8.5"/>
<text text-anchor="start" x="339.93" y="-24.5" font-family="Helvetica,sans-Serif" font-size="10.00">picojson::null_parse</text>
<text text-anchor="middle" x="389.124" y="-14.5" font-family="Helvetica,sans-Serif" font-size="10.00">_context::parse_string</text>
</a>
</g>
</g>
<!-- Node48&#45;&gt;Node58 -->
<g id="edge11" class="edge"><title>Node48&#45;&gt;Node58</title>
<path fill="none" stroke="midnightblue" d="M273.687,-57.4363C294.592,-51.0541 320.372,-43.1838 342.168,-36.5299"/>
<polygon fill="midnightblue" stroke="midnightblue" points="272.397,-54.1705 263.855,-60.4379 274.441,-60.8655 272.397,-54.1705"/>
</g>
<!-- Node50 -->
<g id="node4" class="node"><title>Node50</title>
<g id="a_node4"><a xlink:href="namespacepicojson.html#aed024a6a1c8d8982a38c4a7fcefde221" target="_top" xlink:title="picojson::_parse">
<polygon fill="none" stroke="black" points="485.658,-102.5 485.658,-120.5 574.48,-120.5 574.48,-102.5 485.658,-102.5"/>
<text text-anchor="middle" x="530.069" y="-108.5" font-family="Helvetica,sans-Serif" font-size="10.00">picojson::_parse</text>
</a>
</g>
</g>
<!-- Node49&#45;&gt;Node50 -->
<g id="edge3" class="edge"><title>Node49&#45;&gt;Node50</title>
<path fill="none" stroke="midnightblue" d="M459.97,-111.5C468.61,-111.5 477.242,-111.5 485.333,-111.5"/>
<polygon fill="midnightblue" stroke="midnightblue" points="459.856,-108 449.856,-111.5 459.856,-115 459.856,-108"/>
</g>
<!-- Node51 -->
<g id="node5" class="node"><title>Node51</title>
<g id="a_node5"><a xlink:href="classpicojson_1_1default__parse__context.html#a5f65224e655633b20c1f8c5967c153bb" target="_top" xlink:title="picojson::default_parse\l_context::parse_array_item">
<polygon fill="none" stroke="black" points="612.431,-215.5 612.431,-243.5 749.603,-243.5 749.603,-215.5 612.431,-215.5"/>
<text text-anchor="start" x="620.431" y="-231.5" font-family="Helvetica,sans-Serif" font-size="10.00">picojson::default_parse</text>
<text text-anchor="middle" x="681.017" y="-221.5" font-family="Helvetica,sans-Serif" font-size="10.00">_context::parse_array_item</text>
</a>
</g>
</g>
<!-- Node50&#45;&gt;Node51 -->
<g id="edge4" class="edge"><title>Node50&#45;&gt;Node51</title>
<path fill="none" stroke="midnightblue" d="M541.504,-129.192C554.909,-150.458 580.109,-185.856 610.48,-206.5 615.528,-209.931 621.128,-212.884 626.895,-215.418"/>
<polygon fill="midnightblue" stroke="midnightblue" points="544.402,-127.223 536.198,-120.519 538.431,-130.876 544.402,-127.223"/>
</g>
<!-- Node52 -->
<g id="node6" class="node"><title>Node52</title>
<g id="a_node6"><a xlink:href="classpicojson_1_1default__parse__context.html#adf71929b098e4f4b5c32222af149655a" target="_top" xlink:title="picojson::default_parse\l_context::parse_object_item">
<polygon fill="none" stroke="black" points="610.48,-168.5 610.48,-196.5 751.554,-196.5 751.554,-168.5 610.48,-168.5"/>
<text text-anchor="start" x="618.48" y="-184.5" font-family="Helvetica,sans-Serif" font-size="10.00">picojson::default_parse</text>
<text text-anchor="middle" x="681.017" y="-174.5" font-family="Helvetica,sans-Serif" font-size="10.00">_context::parse_object_item</text>
</a>
</g>
</g>
<!-- Node50&#45;&gt;Node52 -->
<g id="edge5" class="edge"><title>Node50&#45;&gt;Node52</title>
<path fill="none" stroke="midnightblue" d="M552.443,-126.228C568.029,-136.511 589.931,-150.037 610.48,-159.5 617.526,-162.744 625.162,-165.749 632.707,-168.443"/>
<polygon fill="midnightblue" stroke="midnightblue" points="554.309,-123.265 544.054,-120.603 550.411,-129.079 554.309,-123.265"/>
</g>
<!-- Node53 -->
<g id="node7" class="node"><title>Node53</title>
<g id="a_node7"><a xlink:href="classpicojson_1_1null__parse__context.html#a6623f92117dd6dc7bca60e9e9463a1a0" target="_top" xlink:title="picojson::null_parse\l_context::parse_array_item">
<polygon fill="none" stroke="black" points="612.431,-121.5 612.431,-149.5 749.603,-149.5 749.603,-121.5 612.431,-121.5"/>
<text text-anchor="start" x="620.431" y="-137.5" font-family="Helvetica,sans-Serif" font-size="10.00">picojson::null_parse</text>
<text text-anchor="middle" x="681.017" y="-127.5" font-family="Helvetica,sans-Serif" font-size="10.00">_context::parse_array_item</text>
</a>
</g>
</g>
<!-- Node50&#45;&gt;Node53 -->
<g id="edge6" class="edge"><title>Node50&#45;&gt;Node53</title>
<path fill="none" stroke="midnightblue" d="M584.526,-120.114C593.558,-121.569 603.039,-123.096 612.375,-124.601"/>
<polygon fill="midnightblue" stroke="midnightblue" points="584.981,-116.642 574.552,-118.506 583.867,-123.553 584.981,-116.642"/>
</g>
<!-- Node54 -->
<g id="node8" class="node"><title>Node54</title>
<g id="a_node8"><a xlink:href="classpicojson_1_1null__parse__context.html#a97c4b81a984ea473fe56e09aed7b9ca6" target="_top" xlink:title="picojson::null_parse\l_context::parse_object_item">
<polygon fill="none" stroke="black" points="610.48,-74.5 610.48,-102.5 751.554,-102.5 751.554,-74.5 610.48,-74.5"/>
<text text-anchor="start" x="618.48" y="-90.5" font-family="Helvetica,sans-Serif" font-size="10.00">picojson::null_parse</text>
<text text-anchor="middle" x="681.017" y="-80.5" font-family="Helvetica,sans-Serif" font-size="10.00">_context::parse_object_item</text>
</a>
</g>
</g>
<!-- Node50&#45;&gt;Node54 -->
<g id="edge7" class="edge"><title>Node50&#45;&gt;Node54</title>
<path fill="none" stroke="midnightblue" d="M584.562,-103.24C592.952,-101.944 601.729,-100.589 610.418,-99.2473"/>
<polygon fill="midnightblue" stroke="midnightblue" points="583.9,-99.8005 574.552,-104.786 584.969,-106.718 583.9,-99.8005"/>
</g>
<!-- Node55 -->
<g id="node9" class="node"><title>Node55</title>
<g id="a_node9"><a xlink:href="namespacepicojson.html#a01c0a3f35d42282ba913375737c8e259" target="_top" xlink:title="picojson::_parse">
<polygon fill="none" stroke="black" points="636.606,-37.5 636.606,-55.5 725.428,-55.5 725.428,-37.5 636.606,-37.5"/>
<text text-anchor="middle" x="681.017" y="-43.5" font-family="Helvetica,sans-Serif" font-size="10.00">picojson::_parse</text>
</a>
</g>
</g>
<!-- Node50&#45;&gt;Node55 -->
<g id="edge8" class="edge"><title>Node50&#45;&gt;Node55</title>
<path fill="none" stroke="midnightblue" d="M552.664,-96.938C568.204,-86.9788 589.958,-74.0771 610.48,-65.5 619.833,-61.591 630.229,-58.2535 640.072,-55.5172"/>
<polygon fill="midnightblue" stroke="midnightblue" points="550.748,-94.0089 544.288,-102.407 554.575,-99.87 550.748,-94.0089"/>
</g>
<!-- Node56 -->
<g id="node10" class="node"><title>Node56</title>
<g id="a_node10"><a xlink:href="namespacepicojson.html#a21621c03c9c8c83dcf5bc604d1cafdf6" target="_top" xlink:title="picojson::parse">
<polygon fill="none" stroke="black" points="639.387,-0.5 639.387,-18.5 722.647,-18.5 722.647,-0.5 639.387,-0.5"/>
<text text-anchor="middle" x="681.017" y="-6.5" font-family="Helvetica,sans-Serif" font-size="10.00">picojson::parse</text>
</a>
</g>
</g>
<!-- Node50&#45;&gt;Node56 -->
<g id="edge9" class="edge"><title>Node50&#45;&gt;Node56</title>
<path fill="none" stroke="midnightblue" d="M543.102,-94.17C557.133,-75.2582 582.061,-45.4239 610.48,-28.5 619.19,-23.3133 629.35,-19.5067 639.17,-16.7261"/>
<polygon fill="midnightblue" stroke="midnightblue" points="540.127,-92.3123 537.122,-102.472 545.807,-96.4037 540.127,-92.3123"/>
</g>
</g>
</svg>
