<?xml version="1.0" encoding="UTF-8" standalone="no"?>
<!DOCTYPE svg PUBLIC "-//W3C//DTD SVG 1.1//EN"
 "http://www.w3.org/Graphics/SVG/1.1/DTD/svg11.dtd">
<!-- Generated by graphviz version 2.38.0 (20140413.2041)
 -->
<!-- Title: std::swap Pages: 1 -->
<svg width="213pt" height="27pt"
 viewBox="0.00 0.00 213.29 27.00" xmlns="http://www.w3.org/2000/svg" xmlns:xlink="http://www.w3.org/1999/xlink">
<g id="graph0" class="graph" transform="scale(1 1) rotate(0) translate(4 23)">
<title>std::swap</title>
<!-- Node0 -->
<g id="node1" class="node"><title>Node0</title>
<polygon fill="#bfbfbf" stroke="black" points="0,-0.5 0,-18.5 58.2412,-18.5 58.2412,-0.5 0,-0.5"/>
<text text-anchor="middle" x="29.1206" y="-6.5" font-family="Helvetica,sans-Serif" font-size="10.00">std::swap</text>
</g>
<!-- Node1 -->
<g id="node2" class="node"><title>Node1</title>
<g id="a_node2"><a xlink:href="classpicojson_1_1value.html#a6e3ac589ed811603ef9dadc6f91c737d" target="_top" xlink:title="picojson::value::swap">
<polygon fill="none" stroke="black" points="94.2412,-0.5 94.2412,-18.5 205.295,-18.5 205.295,-0.5 94.2412,-0.5"/>
<text text-anchor="middle" x="149.768" y="-6.5" font-family="Helvetica,sans-Serif" font-size="10.00">picojson::value::swap</text>
</a>
</g>
</g>
<!-- Node0&#45;&gt;Node1 -->
<g id="edge1" class="edge"><title>Node0&#45;&gt;Node1</title>
<path fill="none" stroke="midnightblue" d="M58.5396,-3.64082C66.3101,-3.14745 75.0619,-2.85902 83.9799,-2.77552"/>
<polygon fill="midnightblue" stroke="midnightblue" points="84.0782,-6.27555 94.0757,-2.76832 84.0732,0.72445 84.0782,-6.27555"/>
</g>
<!-- Node1&#45;&gt;Node0 -->
<g id="edge2" class="edge"><title>Node1&#45;&gt;Node0</title>
<path fill="none" stroke="midnightblue" d="M94.0757,-16.2317C85.5322,-16.2994 76.8597,-16.1794 68.773,-15.8717"/>
<polygon fill="midnightblue" stroke="midnightblue" points="68.7022,-12.3639 58.5396,-15.3592 68.352,-19.3551 68.7022,-12.3639"/>
</g>
</g>
</svg>
