<?xml version="1.0" encoding="UTF-8" standalone="no"?>
<!DOCTYPE svg PUBLIC "-//W3C//DTD SVG 1.1//EN"
 "http://www.w3.org/Graphics/SVG/1.1/DTD/svg11.dtd">
<!-- Generated by graphviz version 2.38.0 (20140413.2041)
 -->
<!-- Title: picojson::_parse_string Pages: 1 -->
<svg width="586pt" height="252pt"
 viewBox="0.00 0.00 585.80 252.00" xmlns="http://www.w3.org/2000/svg" xmlns:xlink="http://www.w3.org/1999/xlink">
<g id="graph0" class="graph" transform="scale(1 1) rotate(0) translate(4 248)">
<title>picojson::_parse_string</title>
<!-- Node106 -->
<g id="node1" class="node"><title>Node106</title>
<polygon fill="#bfbfbf" stroke="black" points="0,-60.5 0,-78.5 118.837,-78.5 118.837,-60.5 0,-60.5"/>
<text text-anchor="middle" x="59.4185" y="-66.5" font-family="Helvetica,sans-Serif" font-size="10.00">picojson::_parse_string</text>
</g>
<!-- Node107 -->
<g id="node2" class="node"><title>Node107</title>
<g id="a_node2"><a xlink:href="namespacepicojson.html#a480ed5e3461568672197a42e259a44c9" target="_top" xlink:title="picojson::_parse_object">
<polygon fill="none" stroke="black" points="154.837,-102.5 154.837,-120.5 275.905,-120.5 275.905,-102.5 154.837,-102.5"/>
<text text-anchor="middle" x="215.371" y="-108.5" font-family="Helvetica,sans-Serif" font-size="10.00">picojson::_parse_object</text>
</a>
</g>
</g>
<!-- Node106&#45;&gt;Node107 -->
<g id="edge1" class="edge"><title>Node106&#45;&gt;Node107</title>
<path fill="none" stroke="midnightblue" d="M103.253,-81.1857C127.872,-87.902 158.334,-96.2124 181.134,-102.432"/>
<polygon fill="midnightblue" stroke="midnightblue" points="104.014,-77.7655 93.4452,-78.5101 102.171,-84.5187 104.014,-77.7655"/>
</g>
<!-- Node115 -->
<g id="node10" class="node"><title>Node115</title>
<g id="a_node10"><a xlink:href="classpicojson_1_1default__parse__context.html#a476c7d30a5cf382b48201ec64585c2f3" target="_top" xlink:title="picojson::default_parse\l_context::parse_string">
<polygon fill="none" stroke="black" points="155.948,-55.5 155.948,-83.5 274.794,-83.5 274.794,-55.5 155.948,-55.5"/>
<text text-anchor="start" x="163.948" y="-71.5" font-family="Helvetica,sans-Serif" font-size="10.00">picojson::default_parse</text>
<text text-anchor="middle" x="215.371" y="-61.5" font-family="Helvetica,sans-Serif" font-size="10.00">_context::parse_string</text>
</a>
</g>
</g>
<!-- Node106&#45;&gt;Node115 -->
<g id="edge9" class="edge"><title>Node106&#45;&gt;Node115</title>
<path fill="none" stroke="midnightblue" d="M129.076,-69.5C138.027,-69.5 147.129,-69.5 155.892,-69.5"/>
<polygon fill="midnightblue" stroke="midnightblue" points="129.061,-66.0001 119.061,-69.5 129.06,-73.0001 129.061,-66.0001"/>
</g>
<!-- Node116 -->
<g id="node11" class="node"><title>Node116</title>
<g id="a_node11"><a xlink:href="classpicojson_1_1null__parse__context.html#aab2c7dee1eb5b477370832811cd40d14" target="_top" xlink:title="picojson::null_parse\l_context::parse_string">
<polygon fill="none" stroke="black" points="158.177,-8.5 158.177,-36.5 272.565,-36.5 272.565,-8.5 158.177,-8.5"/>
<text text-anchor="start" x="166.177" y="-24.5" font-family="Helvetica,sans-Serif" font-size="10.00">picojson::null_parse</text>
<text text-anchor="middle" x="215.371" y="-14.5" font-family="Helvetica,sans-Serif" font-size="10.00">_context::parse_string</text>
</a>
</g>
</g>
<!-- Node106&#45;&gt;Node116 -->
<g id="edge10" class="edge"><title>Node106&#45;&gt;Node116</title>
<path fill="none" stroke="midnightblue" d="M99.9342,-57.4363C120.839,-51.0541 146.619,-43.1838 168.415,-36.5299"/>
<polygon fill="midnightblue" stroke="midnightblue" points="98.6443,-54.1705 90.1021,-60.4379 100.688,-60.8655 98.6443,-54.1705"/>
</g>
<!-- Node108 -->
<g id="node3" class="node"><title>Node108</title>
<g id="a_node3"><a xlink:href="namespacepicojson.html#aed024a6a1c8d8982a38c4a7fcefde221" target="_top" xlink:title="picojson::_parse">
<polygon fill="none" stroke="black" points="311.905,-102.5 311.905,-120.5 400.728,-120.5 400.728,-102.5 311.905,-102.5"/>
<text text-anchor="middle" x="356.316" y="-108.5" font-family="Helvetica,sans-Serif" font-size="10.00">picojson::_parse</text>
</a>
</g>
</g>
<!-- Node107&#45;&gt;Node108 -->
<g id="edge2" class="edge"><title>Node107&#45;&gt;Node108</title>
<path fill="none" stroke="midnightblue" d="M286.217,-111.5C294.857,-111.5 303.49,-111.5 311.58,-111.5"/>
<polygon fill="midnightblue" stroke="midnightblue" points="286.103,-108 276.103,-111.5 286.103,-115 286.103,-108"/>
</g>
<!-- Node109 -->
<g id="node4" class="node"><title>Node109</title>
<g id="a_node4"><a xlink:href="classpicojson_1_1default__parse__context.html#a5f65224e655633b20c1f8c5967c153bb" target="_top" xlink:title="picojson::default_parse\l_context::parse_array_item">
<polygon fill="none" stroke="black" points="438.678,-215.5 438.678,-243.5 575.85,-243.5 575.85,-215.5 438.678,-215.5"/>
<text text-anchor="start" x="446.678" y="-231.5" font-family="Helvetica,sans-Serif" font-size="10.00">picojson::default_parse</text>
<text text-anchor="middle" x="507.264" y="-221.5" font-family="Helvetica,sans-Serif" font-size="10.00">_context::parse_array_item</text>
</a>
</g>
</g>
<!-- Node108&#45;&gt;Node109 -->
<g id="edge3" class="edge"><title>Node108&#45;&gt;Node109</title>
<path fill="none" stroke="midnightblue" d="M367.751,-129.192C381.156,-150.458 406.356,-185.856 436.728,-206.5 441.775,-209.931 447.375,-212.884 453.142,-215.418"/>
<polygon fill="midnightblue" stroke="midnightblue" points="370.649,-127.223 362.445,-120.519 364.678,-130.876 370.649,-127.223"/>
</g>
<!-- Node110 -->
<g id="node5" class="node"><title>Node110</title>
<g id="a_node5"><a xlink:href="classpicojson_1_1default__parse__context.html#adf71929b098e4f4b5c32222af149655a" target="_top" xlink:title="picojson::default_parse\l_context::parse_object_item">
<polygon fill="none" stroke="black" points="436.728,-168.5 436.728,-196.5 577.801,-196.5 577.801,-168.5 436.728,-168.5"/>
<text text-anchor="start" x="444.728" y="-184.5" font-family="Helvetica,sans-Serif" font-size="10.00">picojson::default_parse</text>
<text text-anchor="middle" x="507.264" y="-174.5" font-family="Helvetica,sans-Serif" font-size="10.00">_context::parse_object_item</text>
</a>
</g>
</g>
<!-- Node108&#45;&gt;Node110 -->
<g id="edge4" class="edge"><title>Node108&#45;&gt;Node110</title>
<path fill="none" stroke="midnightblue" d="M378.69,-126.228C394.276,-136.511 416.178,-150.037 436.728,-159.5 443.773,-162.744 451.409,-165.749 458.954,-168.443"/>
<polygon fill="midnightblue" stroke="midnightblue" points="380.557,-123.265 370.302,-120.603 376.658,-129.079 380.557,-123.265"/>
</g>
<!-- Node111 -->
<g id="node6" class="node"><title>Node111</title>
<g id="a_node6"><a xlink:href="classpicojson_1_1null__parse__context.html#a6623f92117dd6dc7bca60e9e9463a1a0" target="_top" xlink:title="picojson::null_parse\l_context::parse_array_item">
<polygon fill="none" stroke="black" points="438.678,-121.5 438.678,-149.5 575.85,-149.5 575.85,-121.5 438.678,-121.5"/>
<text text-anchor="start" x="446.678" y="-137.5" font-family="Helvetica,sans-Serif" font-size="10.00">picojson::null_parse</text>
<text text-anchor="middle" x="507.264" y="-127.5" font-family="Helvetica,sans-Serif" font-size="10.00">_context::parse_array_item</text>
</a>
</g>
</g>
<!-- Node108&#45;&gt;Node111 -->
<g id="edge5" class="edge"><title>Node108&#45;&gt;Node111</title>
<path fill="none" stroke="midnightblue" d="M410.773,-120.114C419.805,-121.569 429.286,-123.096 438.622,-124.601"/>
<polygon fill="midnightblue" stroke="midnightblue" points="411.228,-116.642 400.799,-118.506 410.115,-123.553 411.228,-116.642"/>
</g>
<!-- Node112 -->
<g id="node7" class="node"><title>Node112</title>
<g id="a_node7"><a xlink:href="classpicojson_1_1null__parse__context.html#a97c4b81a984ea473fe56e09aed7b9ca6" target="_top" xlink:title="picojson::null_parse\l_context::parse_object_item">
<polygon fill="none" stroke="black" points="436.728,-74.5 436.728,-102.5 577.801,-102.5 577.801,-74.5 436.728,-74.5"/>
<text text-anchor="start" x="444.728" y="-90.5" font-family="Helvetica,sans-Serif" font-size="10.00">picojson::null_parse</text>
<text text-anchor="middle" x="507.264" y="-80.5" font-family="Helvetica,sans-Serif" font-size="10.00">_context::parse_object_item</text>
</a>
</g>
</g>
<!-- Node108&#45;&gt;Node112 -->
<g id="edge6" class="edge"><title>Node108&#45;&gt;Node112</title>
<path fill="none" stroke="midnightblue" d="M410.809,-103.24C419.199,-101.944 427.977,-100.589 436.665,-99.2473"/>
<polygon fill="midnightblue" stroke="midnightblue" points="410.147,-99.8005 400.799,-104.786 411.216,-106.718 410.147,-99.8005"/>
</g>
<!-- Node113 -->
<g id="node8" class="node"><title>Node113</title>
<g id="a_node8"><a xlink:href="namespacepicojson.html#a01c0a3f35d42282ba913375737c8e259" target="_top" xlink:title="picojson::_parse">
<polygon fill="none" stroke="black" points="462.853,-37.5 462.853,-55.5 551.675,-55.5 551.675,-37.5 462.853,-37.5"/>
<text text-anchor="middle" x="507.264" y="-43.5" font-family="Helvetica,sans-Serif" font-size="10.00">picojson::_parse</text>
</a>
</g>
</g>
<!-- Node108&#45;&gt;Node113 -->
<g id="edge7" class="edge"><title>Node108&#45;&gt;Node113</title>
<path fill="none" stroke="midnightblue" d="M378.911,-96.938C394.451,-86.9788 416.206,-74.0771 436.728,-65.5 446.081,-61.591 456.476,-58.2535 466.319,-55.5172"/>
<polygon fill="midnightblue" stroke="midnightblue" points="376.995,-94.0089 370.535,-102.407 380.822,-99.87 376.995,-94.0089"/>
</g>
<!-- Node114 -->
<g id="node9" class="node"><title>Node114</title>
<g id="a_node9"><a xlink:href="namespacepicojson.html#a21621c03c9c8c83dcf5bc604d1cafdf6" target="_top" xlink:title="picojson::parse">
<polygon fill="none" stroke="black" points="465.634,-0.5 465.634,-18.5 548.895,-18.5 548.895,-0.5 465.634,-0.5"/>
<text text-anchor="middle" x="507.264" y="-6.5" font-family="Helvetica,sans-Serif" font-size="10.00">picojson::parse</text>
</a>
</g>
</g>
<!-- Node108&#45;&gt;Node114 -->
<g id="edge8" class="edge"><title>Node108&#45;&gt;Node114</title>
<path fill="none" stroke="midnightblue" d="M369.349,-94.17C383.38,-75.2582 408.308,-45.4239 436.728,-28.5 445.437,-23.3133 455.597,-19.5067 465.417,-16.7261"/>
<polygon fill="midnightblue" stroke="midnightblue" points="366.374,-92.3123 363.369,-102.472 372.054,-96.4037 366.374,-92.3123"/>
</g>
</g>
</svg>
