<?xml version="1.0" encoding="UTF-8" standalone="no"?>
<!DOCTYPE svg PUBLIC "-//W3C//DTD SVG 1.1//EN"
 "http://www.w3.org/Graphics/SVG/1.1/DTD/svg11.dtd">
<!-- Generated by graphviz version 2.38.0 (20140413.2041)
 -->
<!-- Title: picojson::_parse_number Pages: 1 -->
<svg width="438pt" height="252pt"
 viewBox="0.00 0.00 438.19 252.00" xmlns="http://www.w3.org/2000/svg" xmlns:xlink="http://www.w3.org/1999/xlink">
<g id="graph0" class="graph" transform="scale(1 1) rotate(0) translate(4 248)">
<title>picojson::_parse_number</title>
<!-- Node62 -->
<g id="node1" class="node"><title>Node62</title>
<polygon fill="#bfbfbf" stroke="black" points="0,-102.5 0,-120.5 128.29,-120.5 128.29,-102.5 0,-102.5"/>
<text text-anchor="middle" x="64.145" y="-108.5" font-family="Helvetica,sans-Serif" font-size="10.00">picojson::_parse_number</text>
</g>
<!-- Node63 -->
<g id="node2" class="node"><title>Node63</title>
<g id="a_node2"><a xlink:href="namespacepicojson.html#aed024a6a1c8d8982a38c4a7fcefde221" target="_top" xlink:title="picojson::_parse">
<polygon fill="none" stroke="black" points="164.29,-102.5 164.29,-120.5 253.112,-120.5 253.112,-102.5 164.29,-102.5"/>
<text text-anchor="middle" x="208.701" y="-108.5" font-family="Helvetica,sans-Serif" font-size="10.00">picojson::_parse</text>
</a>
</g>
</g>
<!-- Node62&#45;&gt;Node63 -->
<g id="edge1" class="edge"><title>Node62&#45;&gt;Node63</title>
<path fill="none" stroke="midnightblue" d="M138.708,-111.5C147.411,-111.5 156.068,-111.5 164.16,-111.5"/>
<polygon fill="midnightblue" stroke="midnightblue" points="138.502,-108 128.502,-111.5 138.502,-115 138.502,-108"/>
</g>
<!-- Node64 -->
<g id="node3" class="node"><title>Node64</title>
<g id="a_node3"><a xlink:href="classpicojson_1_1default__parse__context.html#a5f65224e655633b20c1f8c5967c153bb" target="_top" xlink:title="picojson::default_parse\l_context::parse_array_item">
<polygon fill="none" stroke="black" points="291.063,-215.5 291.063,-243.5 428.235,-243.5 428.235,-215.5 291.063,-215.5"/>
<text text-anchor="start" x="299.063" y="-231.5" font-family="Helvetica,sans-Serif" font-size="10.00">picojson::default_parse</text>
<text text-anchor="middle" x="359.649" y="-221.5" font-family="Helvetica,sans-Serif" font-size="10.00">_context::parse_array_item</text>
</a>
</g>
</g>
<!-- Node63&#45;&gt;Node64 -->
<g id="edge2" class="edge"><title>Node63&#45;&gt;Node64</title>
<path fill="none" stroke="midnightblue" d="M220.136,-129.192C233.541,-150.458 258.741,-185.856 289.112,-206.5 294.16,-209.931 299.76,-212.884 305.526,-215.418"/>
<polygon fill="midnightblue" stroke="midnightblue" points="223.034,-127.223 214.83,-120.519 217.063,-130.876 223.034,-127.223"/>
</g>
<!-- Node65 -->
<g id="node4" class="node"><title>Node65</title>
<g id="a_node4"><a xlink:href="classpicojson_1_1default__parse__context.html#adf71929b098e4f4b5c32222af149655a" target="_top" xlink:title="picojson::default_parse\l_context::parse_object_item">
<polygon fill="none" stroke="black" points="289.112,-168.5 289.112,-196.5 430.186,-196.5 430.186,-168.5 289.112,-168.5"/>
<text text-anchor="start" x="297.112" y="-184.5" font-family="Helvetica,sans-Serif" font-size="10.00">picojson::default_parse</text>
<text text-anchor="middle" x="359.649" y="-174.5" font-family="Helvetica,sans-Serif" font-size="10.00">_context::parse_object_item</text>
</a>
</g>
</g>
<!-- Node63&#45;&gt;Node65 -->
<g id="edge3" class="edge"><title>Node63&#45;&gt;Node65</title>
<path fill="none" stroke="midnightblue" d="M231.075,-126.228C246.661,-136.511 268.563,-150.037 289.112,-159.5 296.158,-162.744 303.794,-165.749 311.339,-168.443"/>
<polygon fill="midnightblue" stroke="midnightblue" points="232.941,-123.265 222.686,-120.603 229.043,-129.079 232.941,-123.265"/>
</g>
<!-- Node66 -->
<g id="node5" class="node"><title>Node66</title>
<g id="a_node5"><a xlink:href="classpicojson_1_1null__parse__context.html#a6623f92117dd6dc7bca60e9e9463a1a0" target="_top" xlink:title="picojson::null_parse\l_context::parse_array_item">
<polygon fill="none" stroke="black" points="291.063,-121.5 291.063,-149.5 428.235,-149.5 428.235,-121.5 291.063,-121.5"/>
<text text-anchor="start" x="299.063" y="-137.5" font-family="Helvetica,sans-Serif" font-size="10.00">picojson::null_parse</text>
<text text-anchor="middle" x="359.649" y="-127.5" font-family="Helvetica,sans-Serif" font-size="10.00">_context::parse_array_item</text>
</a>
</g>
</g>
<!-- Node63&#45;&gt;Node66 -->
<g id="edge4" class="edge"><title>Node63&#45;&gt;Node66</title>
<path fill="none" stroke="midnightblue" d="M263.158,-120.114C272.19,-121.569 281.671,-123.096 291.007,-124.601"/>
<polygon fill="midnightblue" stroke="midnightblue" points="263.613,-116.642 253.183,-118.506 262.499,-123.553 263.613,-116.642"/>
</g>
<!-- Node67 -->
<g id="node6" class="node"><title>Node67</title>
<g id="a_node6"><a xlink:href="classpicojson_1_1null__parse__context.html#a97c4b81a984ea473fe56e09aed7b9ca6" target="_top" xlink:title="picojson::null_parse\l_context::parse_object_item">
<polygon fill="none" stroke="black" points="289.112,-74.5 289.112,-102.5 430.186,-102.5 430.186,-74.5 289.112,-74.5"/>
<text text-anchor="start" x="297.112" y="-90.5" font-family="Helvetica,sans-Serif" font-size="10.00">picojson::null_parse</text>
<text text-anchor="middle" x="359.649" y="-80.5" font-family="Helvetica,sans-Serif" font-size="10.00">_context::parse_object_item</text>
</a>
</g>
</g>
<!-- Node63&#45;&gt;Node67 -->
<g id="edge5" class="edge"><title>Node63&#45;&gt;Node67</title>
<path fill="none" stroke="midnightblue" d="M263.194,-103.24C271.584,-101.944 280.361,-100.589 289.05,-99.2473"/>
<polygon fill="midnightblue" stroke="midnightblue" points="262.532,-99.8005 253.183,-104.786 263.6,-106.718 262.532,-99.8005"/>
</g>
<!-- Node68 -->
<g id="node7" class="node"><title>Node68</title>
<g id="a_node7"><a xlink:href="namespacepicojson.html#a01c0a3f35d42282ba913375737c8e259" target="_top" xlink:title="picojson::_parse">
<polygon fill="none" stroke="black" points="315.238,-37.5 315.238,-55.5 404.06,-55.5 404.06,-37.5 315.238,-37.5"/>
<text text-anchor="middle" x="359.649" y="-43.5" font-family="Helvetica,sans-Serif" font-size="10.00">picojson::_parse</text>
</a>
</g>
</g>
<!-- Node63&#45;&gt;Node68 -->
<g id="edge6" class="edge"><title>Node63&#45;&gt;Node68</title>
<path fill="none" stroke="midnightblue" d="M231.295,-96.938C246.836,-86.9788 268.59,-74.0771 289.112,-65.5 298.465,-61.591 308.861,-58.2535 318.704,-55.5172"/>
<polygon fill="midnightblue" stroke="midnightblue" points="229.38,-94.0089 222.92,-102.407 233.207,-99.87 229.38,-94.0089"/>
</g>
<!-- Node69 -->
<g id="node8" class="node"><title>Node69</title>
<g id="a_node8"><a xlink:href="namespacepicojson.html#a21621c03c9c8c83dcf5bc604d1cafdf6" target="_top" xlink:title="picojson::parse">
<polygon fill="none" stroke="black" points="318.019,-0.5 318.019,-18.5 401.279,-18.5 401.279,-0.5 318.019,-0.5"/>
<text text-anchor="middle" x="359.649" y="-6.5" font-family="Helvetica,sans-Serif" font-size="10.00">picojson::parse</text>
</a>
</g>
</g>
<!-- Node63&#45;&gt;Node69 -->
<g id="edge7" class="edge"><title>Node63&#45;&gt;Node69</title>
<path fill="none" stroke="midnightblue" d="M221.734,-94.17C235.765,-75.2582 260.693,-45.4239 289.112,-28.5 297.822,-23.3133 307.982,-19.5067 317.802,-16.7261"/>
<polygon fill="midnightblue" stroke="midnightblue" points="218.759,-92.3123 215.754,-102.472 224.438,-96.4037 218.759,-92.3123"/>
</g>
</g>
</svg>
