<?xml version="1.0" encoding="UTF-8" standalone="no"?>
<!DOCTYPE svg PUBLIC "-//W3C//DTD SVG 1.1//EN"
 "http://www.w3.org/Graphics/SVG/1.1/DTD/svg11.dtd">
<!-- Generated by graphviz version 2.38.0 (20140413.2041)
 -->
<!-- Title: picojson::get_last_error Pages: 1 -->
<svg width="389pt" height="37pt"
 viewBox="0.00 0.00 388.97 37.00" xmlns="http://www.w3.org/2000/svg" xmlns:xlink="http://www.w3.org/1999/xlink">
<g id="graph0" class="graph" transform="scale(1 1) rotate(0) translate(4 33)">
<title>picojson::get_last_error</title>
<!-- Node122 -->
<g id="node1" class="node"><title>Node122</title>
<polygon fill="#bfbfbf" stroke="black" points="0,-0.5 0,-28.5 93.2705,-28.5 93.2705,-0.5 0,-0.5"/>
<text text-anchor="start" x="8" y="-16.5" font-family="Helvetica,sans-Serif" font-size="10.00">picojson::get_last</text>
<text text-anchor="middle" x="46.6353" y="-6.5" font-family="Helvetica,sans-Serif" font-size="10.00">_error</text>
</g>
<!-- Node123 -->
<g id="node2" class="node"><title>Node123</title>
<g id="a_node2"><a xlink:href="class_player_pref_manager.html#af395e5a4b0d8a749416dd6f3c415ca2b" target="_top" xlink:title="PlayerPrefManager::\lshutDown">
<polygon fill="none" stroke="black" points="129.271,-0.5 129.271,-28.5 236.979,-28.5 236.979,-0.5 129.271,-0.5"/>
<text text-anchor="start" x="137.271" y="-16.5" font-family="Helvetica,sans-Serif" font-size="10.00">PlayerPrefManager::</text>
<text text-anchor="middle" x="183.125" y="-6.5" font-family="Helvetica,sans-Serif" font-size="10.00">shutDown</text>
</a>
</g>
</g>
<!-- Node122&#45;&gt;Node123 -->
<g id="edge1" class="edge"><title>Node122&#45;&gt;Node123</title>
<path fill="none" stroke="midnightblue" d="M103.634,-14.5C112.035,-14.5 120.677,-14.5 129.015,-14.5"/>
<polygon fill="midnightblue" stroke="midnightblue" points="103.543,-11.0001 93.5428,-14.5 103.543,-18.0001 103.543,-11.0001"/>
</g>
<!-- Node124 -->
<g id="node3" class="node"><title>Node124</title>
<g id="a_node3"><a xlink:href="class_player_pref_manager.html#a594e8fd11a2a5476a8a06e53253214bb" target="_top" xlink:title="PlayerPrefManager::\l~PlayerPrefManager">
<polygon fill="none" stroke="black" points="272.979,-0.5 272.979,-28.5 380.972,-28.5 380.972,-0.5 272.979,-0.5"/>
<text text-anchor="start" x="280.979" y="-16.5" font-family="Helvetica,sans-Serif" font-size="10.00">PlayerPrefManager::</text>
<text text-anchor="middle" x="326.976" y="-6.5" font-family="Helvetica,sans-Serif" font-size="10.00">~PlayerPrefManager</text>
</a>
</g>
</g>
<!-- Node123&#45;&gt;Node124 -->
<g id="edge2" class="edge"><title>Node123&#45;&gt;Node124</title>
<path fill="none" stroke="midnightblue" d="M247.575,-14.5C256.045,-14.5 264.659,-14.5 272.926,-14.5"/>
<polygon fill="midnightblue" stroke="midnightblue" points="247.349,-11.0001 237.349,-14.5 247.348,-18.0001 247.349,-11.0001"/>
</g>
</g>
</svg>
