<?xml version="1.0" encoding="UTF-8" standalone="no"?>
<!DOCTYPE svg PUBLIC "-//W3C//DTD SVG 1.1//EN"
 "http://www.w3.org/Graphics/SVG/1.1/DTD/svg11.dtd">
<!-- Generated by graphviz version 2.38.0 (20140413.2041)
 -->
<!-- Title: operator&gt;&gt; Pages: 1 -->
<svg width="204pt" height="111pt"
 viewBox="0.00 0.00 203.86 111.00" xmlns="http://www.w3.org/2000/svg" xmlns:xlink="http://www.w3.org/1999/xlink">
<g id="graph0" class="graph" transform="scale(1 1) rotate(0) translate(4 107)">
<title>operator&gt;&gt;</title>
<!-- Node3 -->
<g id="node1" class="node"><title>Node3</title>
<polygon fill="#bfbfbf" stroke="black" points="0,-37.5 0,-55.5 64.9258,-55.5 64.9258,-37.5 0,-37.5"/>
<text text-anchor="middle" x="32.4629" y="-43.5" font-family="Helvetica,sans-Serif" font-size="10.00">operator&gt;&gt;</text>
</g>
<!-- Node4 -->
<g id="node2" class="node"><title>Node4</title>
<g id="a_node2"><a xlink:href="namespacepicojson.html#a509585c918611015ec995d4374fee4c9" target="_top" xlink:title="picojson::set_last\l_error">
<polygon fill="none" stroke="black" points="102.037,-74.5 102.037,-102.5 194.746,-102.5 194.746,-74.5 102.037,-74.5"/>
<text text-anchor="start" x="110.037" y="-90.5" font-family="Helvetica,sans-Serif" font-size="10.00">picojson::set_last</text>
<text text-anchor="middle" x="148.391" y="-80.5" font-family="Helvetica,sans-Serif" font-size="10.00">_error</text>
</a>
</g>
</g>
<!-- Node3&#45;&gt;Node4 -->
<g id="edge1" class="edge"><title>Node3&#45;&gt;Node4</title>
<path fill="none" stroke="midnightblue" d="M57.9034,-55.5101C70.0155,-59.9752 85.0778,-65.528 99.3699,-70.7968"/>
<polygon fill="midnightblue" stroke="midnightblue" points="98.5022,-74.2072 109.096,-74.3822 100.924,-67.6392 98.5022,-74.2072"/>
</g>
<!-- Node5 -->
<g id="node3" class="node"><title>Node5</title>
<g id="a_node3"><a xlink:href="namespacepicojson.html#a3aca598f5855bc130a92a3e08a0c6ebf" target="_top" xlink:title="picojson::parse">
<polygon fill="none" stroke="black" points="106.761,-37.5 106.761,-55.5 190.021,-55.5 190.021,-37.5 106.761,-37.5"/>
<text text-anchor="middle" x="148.391" y="-43.5" font-family="Helvetica,sans-Serif" font-size="10.00">picojson::parse</text>
</a>
</g>
</g>
<!-- Node3&#45;&gt;Node5 -->
<g id="edge2" class="edge"><title>Node3&#45;&gt;Node5</title>
<path fill="none" stroke="midnightblue" d="M65.1983,-46.5C74.8779,-46.5 85.7754,-46.5 96.3934,-46.5"/>
<polygon fill="midnightblue" stroke="midnightblue" points="96.439,-50.0001 106.439,-46.5 96.4389,-43.0001 96.439,-50.0001"/>
</g>
<!-- Node6 -->
<g id="node4" class="node"><title>Node6</title>
<g id="a_node4"><a xlink:href="classpicojson_1_1value.html#afd038ffc8a714c5d2f4b59adaaaca4ce" target="_top" xlink:title="picojson::value::is">
<polygon fill="none" stroke="black" points="100.926,-0.5 100.926,-18.5 195.856,-18.5 195.856,-0.5 100.926,-0.5"/>
<text text-anchor="middle" x="148.391" y="-6.5" font-family="Helvetica,sans-Serif" font-size="10.00">picojson::value::is</text>
</a>
</g>
</g>
<!-- Node3&#45;&gt;Node6 -->
<g id="edge3" class="edge"><title>Node3&#45;&gt;Node6</title>
<path fill="none" stroke="midnightblue" d="M61.3329,-37.4488C75.9531,-32.7006 94.0686,-26.8173 109.902,-21.6752"/>
<polygon fill="midnightblue" stroke="midnightblue" points="110.984,-25.0038 119.414,-18.586 108.822,-18.3461 110.984,-25.0038"/>
</g>
</g>
</svg>
