<?xml version="1.0" encoding="UTF-8" standalone="no"?>
<!DOCTYPE svg PUBLIC "-//W3C//DTD SVG 1.1//EN"
 "http://www.w3.org/Graphics/SVG/1.1/DTD/svg11.dtd">
<!-- Generated by graphviz version 2.38.0 (20140413.2041)
 -->
<!-- Title: picojson.h Pages: 1 -->
<svg width="340pt" height="82pt"
 viewBox="0.00 0.00 339.88 82.00" xmlns="http://www.w3.org/2000/svg" xmlns:xlink="http://www.w3.org/1999/xlink">
<g id="graph0" class="graph" transform="scale(1 1) rotate(0) translate(4 78)">
<title>picojson.h</title>
<!-- Node16 -->
<g id="node1" class="node"><title>Node16</title>
<polygon fill="#bfbfbf" stroke="black" points="153.739,-55.5 153.739,-73.5 214.768,-73.5 214.768,-55.5 153.739,-55.5"/>
<text text-anchor="middle" x="184.253" y="-61.5" font-family="Helvetica,sans-Serif" font-size="10.00">picojson.h</text>
</g>
<!-- Node17 -->
<g id="node2" class="node"><title>Node17</title>
<g id="a_node2"><a xlink:href="_player_pref_manager_8cpp.html" target="_top" xlink:title="PlayerPrefManager.cpp">
<polygon fill="none" stroke="black" points="0,-0.5 0,-18.5 120.507,-18.5 120.507,-0.5 0,-0.5"/>
<text text-anchor="middle" x="60.2534" y="-6.5" font-family="Helvetica,sans-Serif" font-size="10.00">PlayerPrefManager.cpp</text>
</a>
</g>
</g>
<!-- Node16&#45;&gt;Node17 -->
<g id="edge1" class="edge"><title>Node16&#45;&gt;Node17</title>
<path fill="none" stroke="midnightblue" d="M155.986,-51.4181C132.5,-41.3794 99.7281,-27.3722 79.2636,-18.6253"/>
<polygon fill="midnightblue" stroke="midnightblue" points="154.85,-54.7385 165.42,-55.4504 157.601,-48.3018 154.85,-54.7385"/>
</g>
<!-- Node18 -->
<g id="node3" class="node"><title>Node18</title>
<g id="a_node3"><a xlink:href="_scene_parser_8cpp.html" target="_top" xlink:title="SceneParser.cpp">
<polygon fill="none" stroke="black" points="138.172,-0.5 138.172,-18.5 230.334,-18.5 230.334,-0.5 138.172,-0.5"/>
<text text-anchor="middle" x="184.253" y="-6.5" font-family="Helvetica,sans-Serif" font-size="10.00">SceneParser.cpp</text>
</a>
</g>
</g>
<!-- Node16&#45;&gt;Node18 -->
<g id="edge2" class="edge"><title>Node16&#45;&gt;Node18</title>
<path fill="none" stroke="midnightblue" d="M184.253,-45.1746C184.253,-36.0945 184.253,-25.5949 184.253,-18.5496"/>
<polygon fill="midnightblue" stroke="midnightblue" points="180.754,-45.2187 184.253,-55.2188 187.754,-45.2188 180.754,-45.2187"/>
</g>
<!-- Node19 -->
<g id="node4" class="node"><title>Node19</title>
<g id="a_node4"><a xlink:href="_sprite_atlas_8cpp.html" target="_top" xlink:title="SpriteAtlas.cpp">
<polygon fill="none" stroke="black" points="248.625,-0.5 248.625,-18.5 331.881,-18.5 331.881,-0.5 248.625,-0.5"/>
<text text-anchor="middle" x="290.253" y="-6.5" font-family="Helvetica,sans-Serif" font-size="10.00">SpriteAtlas.cpp</text>
</a>
</g>
</g>
<!-- Node16&#45;&gt;Node19 -->
<g id="edge3" class="edge"><title>Node16&#45;&gt;Node19</title>
<path fill="none" stroke="midnightblue" d="M209.5,-50.8765C229.492,-40.8808 256.821,-27.216 274.003,-18.6253"/>
<polygon fill="midnightblue" stroke="midnightblue" points="207.732,-47.8478 200.353,-55.4504 210.862,-54.1087 207.732,-47.8478"/>
</g>
</g>
</svg>
