<?xml version="1.0" encoding="UTF-8" standalone="no"?>
<!DOCTYPE svg PUBLIC "-//W3C//DTD SVG 1.1//EN"
 "http://www.w3.org/Graphics/SVG/1.1/DTD/svg11.dtd">
<!-- Generated by graphviz version 2.38.0 (20140413.2041)
 -->
<!-- Title: picojson.h Pages: 1 -->
<svg width="953pt" height="82pt"
 viewBox="0.00 0.00 952.80 82.00" xmlns="http://www.w3.org/2000/svg" xmlns:xlink="http://www.w3.org/1999/xlink">
<g id="graph0" class="graph" transform="scale(1 1) rotate(0) translate(4 78)">
<title>picojson.h</title>
<!-- Node0 -->
<g id="node1" class="node"><title>Node0</title>
<polygon fill="#bfbfbf" stroke="black" points="454.049,-55.5 454.049,-73.5 515.079,-73.5 515.079,-55.5 454.049,-55.5"/>
<text text-anchor="middle" x="484.564" y="-61.5" font-family="Helvetica,sans-Serif" font-size="10.00">picojson.h</text>
</g>
<!-- Node1 -->
<g id="node2" class="node"><title>Node1</title>
<polygon fill="none" stroke="#bfbfbf" points="0,-0.5 0,-18.5 57.1279,-18.5 57.1279,-0.5 0,-0.5"/>
<text text-anchor="middle" x="28.564" y="-6.5" font-family="Helvetica,sans-Serif" font-size="10.00">algorithm</text>
</g>
<!-- Node0&#45;&gt;Node1 -->
<g id="edge1" class="edge"><title>Node0&#45;&gt;Node1</title>
<path fill="none" stroke="midnightblue" d="M453.984,-61.4449C386.189,-56.6328 218.02,-43.2851 67.0478,-18.8797"/>
<polygon fill="midnightblue" stroke="midnightblue" points="67.5638,-15.4177 57.1297,-17.2562 66.4329,-22.3257 67.5638,-15.4177"/>
</g>
<!-- Node2 -->
<g id="node3" class="node"><title>Node2</title>
<polygon fill="none" stroke="#bfbfbf" points="75.5024,-0.5 75.5024,-18.5 117.625,-18.5 117.625,-0.5 75.5024,-0.5"/>
<text text-anchor="middle" x="96.564" y="-6.5" font-family="Helvetica,sans-Serif" font-size="10.00">cstdio</text>
</g>
<!-- Node0&#45;&gt;Node2 -->
<g id="edge2" class="edge"><title>Node0&#45;&gt;Node2</title>
<path fill="none" stroke="midnightblue" d="M453.66,-61.2547C392.908,-56.4999 253.576,-43.9108 127.589,-18.9194"/>
<polygon fill="midnightblue" stroke="midnightblue" points="128.266,-15.4854 117.771,-16.9408 126.883,-22.3475 128.266,-15.4854"/>
</g>
<!-- Node3 -->
<g id="node4" class="node"><title>Node3</title>
<polygon fill="none" stroke="#bfbfbf" points="135.392,-0.5 135.392,-18.5 179.736,-18.5 179.736,-0.5 135.392,-0.5"/>
<text text-anchor="middle" x="157.564" y="-6.5" font-family="Helvetica,sans-Serif" font-size="10.00">cstdlib</text>
</g>
<!-- Node0&#45;&gt;Node3 -->
<g id="edge3" class="edge"><title>Node0&#45;&gt;Node3</title>
<path fill="none" stroke="midnightblue" d="M453.668,-60.0775C401.278,-54.0111 291.54,-40.1696 189.67,-19.0164"/>
<polygon fill="midnightblue" stroke="midnightblue" points="190.344,-15.5818 179.838,-16.9465 188.902,-22.4317 190.344,-15.5818"/>
</g>
<!-- Node4 -->
<g id="node5" class="node"><title>Node4</title>
<polygon fill="none" stroke="#bfbfbf" points="197.837,-0.5 197.837,-18.5 243.291,-18.5 243.291,-0.5 197.837,-0.5"/>
<text text-anchor="middle" x="220.564" y="-6.5" font-family="Helvetica,sans-Serif" font-size="10.00">cstring</text>
</g>
<!-- Node0&#45;&gt;Node4 -->
<g id="edge4" class="edge"><title>Node0&#45;&gt;Node4</title>
<path fill="none" stroke="midnightblue" d="M454.02,-58.3453C411.343,-50.9903 331.251,-36.6342 253.543,-19.0905"/>
<polygon fill="midnightblue" stroke="midnightblue" points="254.116,-15.6315 243.588,-16.8223 252.561,-22.4566 254.116,-15.6315"/>
</g>
<!-- Node5 -->
<g id="node6" class="node"><title>Node5</title>
<polygon fill="none" stroke="#bfbfbf" points="261.443,-0.5 261.443,-18.5 309.685,-18.5 309.685,-0.5 261.443,-0.5"/>
<text text-anchor="middle" x="285.564" y="-6.5" font-family="Helvetica,sans-Serif" font-size="10.00">cstddef</text>
</g>
<!-- Node0&#45;&gt;Node5 -->
<g id="edge5" class="edge"><title>Node0&#45;&gt;Node5</title>
<path fill="none" stroke="midnightblue" d="M454.34,-55.4504C418.164,-45.8155 357.732,-29.7206 319.846,-19.6305"/>
<polygon fill="midnightblue" stroke="midnightblue" points="320.361,-16.1457 309.797,-16.9541 318.56,-22.9099 320.361,-16.1457"/>
</g>
<!-- Node6 -->
<g id="node7" class="node"><title>Node6</title>
<polygon fill="none" stroke="#bfbfbf" points="327.392,-0.5 327.392,-18.5 381.736,-18.5 381.736,-0.5 327.392,-0.5"/>
<text text-anchor="middle" x="354.564" y="-6.5" font-family="Helvetica,sans-Serif" font-size="10.00">iostream</text>
</g>
<!-- Node0&#45;&gt;Node6 -->
<g id="edge6" class="edge"><title>Node0&#45;&gt;Node6</title>
<path fill="none" stroke="midnightblue" d="M464.82,-55.4504C443.249,-46.6562 408.478,-32.4802 383.754,-22.4006"/>
<polygon fill="midnightblue" stroke="midnightblue" points="385.075,-19.1596 374.494,-18.6253 382.433,-25.6416 385.075,-19.1596"/>
</g>
<!-- Node7 -->
<g id="node8" class="node"><title>Node7</title>
<polygon fill="none" stroke="#bfbfbf" points="400.002,-0.5 400.002,-18.5 447.125,-18.5 447.125,-0.5 400.002,-0.5"/>
<text text-anchor="middle" x="423.564" y="-6.5" font-family="Helvetica,sans-Serif" font-size="10.00">iterator</text>
</g>
<!-- Node0&#45;&gt;Node7 -->
<g id="edge7" class="edge"><title>Node0&#45;&gt;Node7</title>
<path fill="none" stroke="midnightblue" d="M475.299,-55.4504C466.163,-47.5123 451.98,-35.1891 440.773,-25.4519"/>
<polygon fill="midnightblue" stroke="midnightblue" points="442.76,-22.542 432.916,-18.6253 438.169,-27.8261 442.76,-22.542"/>
</g>
<!-- Node8 -->
<g id="node9" class="node"><title>Node8</title>
<polygon fill="none" stroke="#bfbfbf" points="465.177,-0.5 465.177,-18.5 503.951,-18.5 503.951,-0.5 465.177,-0.5"/>
<text text-anchor="middle" x="484.564" y="-6.5" font-family="Helvetica,sans-Serif" font-size="10.00">limits</text>
</g>
<!-- Node0&#45;&gt;Node8 -->
<g id="edge8" class="edge"><title>Node0&#45;&gt;Node8</title>
<path fill="none" stroke="midnightblue" d="M484.564,-55.2188C484.564,-48.1769 484.564,-37.8083 484.564,-28.8277"/>
<polygon fill="midnightblue" stroke="midnightblue" points="488.064,-28.5495 484.564,-18.5496 481.064,-28.5496 488.064,-28.5495"/>
</g>
<!-- Node9 -->
<g id="node10" class="node"><title>Node9</title>
<polygon fill="none" stroke="#bfbfbf" points="521.837,-0.5 521.837,-18.5 557.291,-18.5 557.291,-0.5 521.837,-0.5"/>
<text text-anchor="middle" x="539.564" y="-6.5" font-family="Helvetica,sans-Serif" font-size="10.00">map</text>
</g>
<!-- Node0&#45;&gt;Node9 -->
<g id="edge9" class="edge"><title>Node0&#45;&gt;Node9</title>
<path fill="none" stroke="midnightblue" d="M493.158,-55.2188C501.358,-47.3162 513.907,-35.2241 523.888,-25.6057"/>
<polygon fill="midnightblue" stroke="midnightblue" points="526.438,-28.0088 531.211,-18.5496 521.581,-22.9682 526.438,-28.0088"/>
</g>
<!-- Node10 -->
<g id="node11" class="node"><title>Node10</title>
<polygon fill="none" stroke="#bfbfbf" points="575.163,-0.5 575.163,-18.5 633.965,-18.5 633.965,-0.5 575.163,-0.5"/>
<text text-anchor="middle" x="604.564" y="-6.5" font-family="Helvetica,sans-Serif" font-size="10.00">stdexcept</text>
</g>
<!-- Node0&#45;&gt;Node10 -->
<g id="edge10" class="edge"><title>Node0&#45;&gt;Node10</title>
<path fill="none" stroke="midnightblue" d="M502.789,-55.4504C522.525,-46.734 554.23,-32.7306 577.011,-22.6691"/>
<polygon fill="midnightblue" stroke="midnightblue" points="578.434,-25.8672 586.167,-18.6253 575.605,-19.4639 578.434,-25.8672"/>
</g>
<!-- Node11 -->
<g id="node12" class="node"><title>Node11</title>
<polygon fill="none" stroke="#bfbfbf" points="652.337,-0.5 652.337,-18.5 692.791,-18.5 692.791,-0.5 652.337,-0.5"/>
<text text-anchor="middle" x="672.564" y="-6.5" font-family="Helvetica,sans-Serif" font-size="10.00">string</text>
</g>
<!-- Node0&#45;&gt;Node11 -->
<g id="edge11" class="edge"><title>Node0&#45;&gt;Node11</title>
<path fill="none" stroke="midnightblue" d="M513.111,-55.4744C544.757,-46.574 597.314,-31.7828 642.564,-19 642.662,-18.9724 642.759,-18.9448 642.858,-18.9171"/>
<polygon fill="midnightblue" stroke="midnightblue" points="643.562,-22.3551 652.232,-16.2654 641.657,-15.6194 643.562,-22.3551"/>
</g>
<!-- Node12 -->
<g id="node13" class="node"><title>Node12</title>
<polygon fill="none" stroke="#bfbfbf" points="710.948,-0.5 710.948,-18.5 754.18,-18.5 754.18,-0.5 710.948,-0.5"/>
<text text-anchor="middle" x="732.564" y="-6.5" font-family="Helvetica,sans-Serif" font-size="10.00">vector</text>
</g>
<!-- Node0&#45;&gt;Node12 -->
<g id="edge12" class="edge"><title>Node0&#45;&gt;Node12</title>
<path fill="none" stroke="midnightblue" d="M515.249,-57.8623C555.602,-50.306 628.903,-36.0908 701.201,-18.9516"/>
<polygon fill="midnightblue" stroke="midnightblue" points="702.018,-22.355 710.93,-16.6257 700.39,-15.5468 702.018,-22.355"/>
</g>
<!-- Node13 -->
<g id="node14" class="node"><title>Node13</title>
<polygon fill="none" stroke="#bfbfbf" points="772.172,-0.5 772.172,-18.5 810.956,-18.5 810.956,-0.5 772.172,-0.5"/>
<text text-anchor="middle" x="791.564" y="-6.5" font-family="Helvetica,sans-Serif" font-size="10.00">utility</text>
</g>
<!-- Node0&#45;&gt;Node13 -->
<g id="edge13" class="edge"><title>Node0&#45;&gt;Node13</title>
<path fill="none" stroke="midnightblue" d="M515.378,-59.9827C565.37,-53.9757 667.355,-40.4746 762.317,-19.0262"/>
<polygon fill="midnightblue" stroke="midnightblue" points="763.109,-22.4354 772.073,-16.7882 761.544,-15.6126 763.109,-22.4354"/>
</g>
<!-- Node14 -->
<g id="node15" class="node"><title>Node14</title>
<polygon fill="none" stroke="#bfbfbf" points="829.278,-0.5 829.278,-18.5 875.85,-18.5 875.85,-0.5 829.278,-0.5"/>
<text text-anchor="middle" x="852.564" y="-6.5" font-family="Helvetica,sans-Serif" font-size="10.00">math.h</text>
</g>
<!-- Node0&#45;&gt;Node14 -->
<g id="edge14" class="edge"><title>Node0&#45;&gt;Node14</title>
<path fill="none" stroke="midnightblue" d="M515.248,-60.6688C572.832,-55.0889 701.142,-41.3929 819.27,-18.8113"/>
<polygon fill="midnightblue" stroke="midnightblue" points="820.056,-22.2244 829.207,-16.8858 818.724,-15.3522 820.056,-22.2244"/>
</g>
<!-- Node15 -->
<g id="node16" class="node"><title>Node15</title>
<polygon fill="none" stroke="#bfbfbf" points="894.33,-0.5 894.33,-18.5 944.798,-18.5 944.798,-0.5 894.33,-0.5"/>
<text text-anchor="middle" x="919.564" y="-6.5" font-family="Helvetica,sans-Serif" font-size="10.00">locale.h</text>
</g>
<!-- Node0&#45;&gt;Node15 -->
<g id="edge15" class="edge"><title>Node0&#45;&gt;Node15</title>
<path fill="none" stroke="midnightblue" d="M515.111,-61.4367C580.787,-56.7156 740.416,-43.7149 884.148,-18.8333"/>
<polygon fill="midnightblue" stroke="midnightblue" points="884.785,-22.2752 894.029,-17.0993 883.575,-15.3805 884.785,-22.2752"/>
</g>
</g>
</svg>
